solid LEDs
facet normal 1.0 0.0 0.0
  outer loop
    vertex 125.96793761419677 -209.2685525373423 0.0
    vertex 125.96793761419677 -207.26855253734232 2.000000000000003
    vertex 125.96793761419677 -209.2685525373423 12.999999999999998
  endloop
endfacet
facet normal 1.0 0.0 0.0
  outer loop
    vertex 125.96793761419677 -207.26855253734232 2.000000000000003
    vertex 125.96793761419677 -209.2685525373423 0.0
    vertex 125.96793761419677 -104.2685525373424 0.0
  endloop
endfacet
facet normal 1.0 0.0 0.0
  outer loop
    vertex 125.96793761419677 -207.26855253734232 2.000000000000003
    vertex 125.96793761419677 -104.2685525373424 0.0
    vertex 125.96793761419677 -106.2685525373424 2.000000000000003
  endloop
endfacet
facet normal 1.0 0.0 0.0
  outer loop
    vertex 125.96793761419677 -106.2685525373424 2.000000000000003
    vertex 125.96793761419677 -104.2685525373424 0.0
    vertex 125.96793761419677 -106.2685525373424 12.999999999999998
  endloop
endfacet
facet normal 1.0 0.0 0.0
  outer loop
    vertex 125.96793761419677 -106.2685525373424 12.999999999999998
    vertex 125.96793761419677 -104.2685525373424 0.0
    vertex 125.96793761419677 -104.2685525373424 12.999999999999998
  endloop
endfacet
facet normal 1.0 0.0 0.0
  outer loop
    vertex 125.96793761419677 -207.26855253734232 12.999999999999998
    vertex 125.96793761419677 -209.2685525373423 12.999999999999998
    vertex 125.96793761419677 -207.26855253734232 2.000000000000003
  endloop
endfacet
facet normal 0.0 0.0 -1.0
  outer loop
    vertex 125.96793761419677 -104.2685525373424 0.0
    vertex 116.96793761419676 -106.2685525373424 0.0
    vertex 116.96793761419676 -104.2685525373424 0.0
  endloop
endfacet
facet normal 0.0 0.0 -1.0
  outer loop
    vertex 116.96793761419676 -106.2685525373424 0.0
    vertex 125.96793761419677 -104.2685525373424 0.0
    vertex 120.96793761419676 -106.2685525373424 0.0
  endloop
endfacet
facet normal 0.0 0.0 -1.0
  outer loop
    vertex 120.96793761419676 -106.2685525373424 0.0
    vertex 125.96793761419677 -104.2685525373424 0.0
    vertex 120.96793761419676 -118.2685525373424 0.0
  endloop
endfacet
facet normal 0.0 0.0 -1.0
  outer loop
    vertex 120.96793761419676 -118.2685525373424 0.0
    vertex 116.96793761419676 -209.2685525373423 0.0
    vertex 116.96793761419676 -118.2685525373424 0.0
  endloop
endfacet
facet normal 0.0 0.0 -1.0
  outer loop
    vertex 116.96793761419676 -209.2685525373423 0.0
    vertex 120.96793761419676 -118.2685525373424 0.0
    vertex 125.96793761419677 -209.2685525373423 0.0
  endloop
endfacet
facet normal 0.0 0.0 -1.0
  outer loop
    vertex 125.96793761419677 -209.2685525373423 0.0
    vertex 120.96793761419676 -118.2685525373424 0.0
    vertex 125.96793761419677 -104.2685525373424 0.0
  endloop
endfacet
facet normal 0.0 0.0 1.0
  outer loop
    vertex 125.96793761419677 -106.2685525373424 12.999999999999998
    vertex 116.96793761419676 -104.2685525373424 12.999999999999998
    vertex 116.96793761419676 -106.2685525373424 12.999999999999998
  endloop
endfacet
facet normal 0.0 0.0 1.0
  outer loop
    vertex 116.96793761419676 -104.2685525373424 12.999999999999998
    vertex 125.96793761419677 -106.2685525373424 12.999999999999998
    vertex 125.96793761419677 -104.2685525373424 12.999999999999998
  endloop
endfacet
facet normal -1.0 0.0 0.0
  outer loop
    vertex 116.96793761419676 -118.2685525373424 12.999999999999998
    vertex 116.96793761419676 -209.2685525373423 0.0
    vertex 116.96793761419676 -209.2685525373423 12.999999999999998
  endloop
endfacet
facet normal -1.0 0.0 0.0
  outer loop
    vertex 116.96793761419676 -209.2685525373423 0.0
    vertex 116.96793761419676 -118.2685525373424 12.999999999999998
    vertex 116.96793761419676 -118.2685525373424 0.0
  endloop
endfacet
facet normal 1.0 -0.0 -0.0
  outer loop
    vertex 118.96793761419676 -118.2685525373424 2.0000000000000018
    vertex 118.96793761419676 -207.26855253734232 12.999999999999998
    vertex 118.96793761419676 -207.26855253734232 1.9999999999999991
  endloop
endfacet
facet normal 1.0 -0.0 -0.0
  outer loop
    vertex 118.96793761419676 -207.26855253734232 12.999999999999998
    vertex 118.96793761419676 -118.2685525373424 2.0000000000000018
    vertex 118.96793761419676 -118.2685525373424 12.999999999999998
  endloop
endfacet
facet normal 0.0 -1.0 0.0
  outer loop
    vertex 125.96793761419677 -209.2685525373423 12.999999999999998
    vertex 116.96793761419676 -209.2685525373423 0.0
    vertex 125.96793761419677 -209.2685525373423 0.0
  endloop
endfacet
facet normal 0.0 -1.0 0.0
  outer loop
    vertex 116.96793761419676 -209.2685525373423 0.0
    vertex 125.96793761419677 -209.2685525373423 12.999999999999998
    vertex 116.96793761419676 -209.2685525373423 12.999999999999998
  endloop
endfacet
facet normal 0.0 0.0 1.0
  outer loop
    vertex 118.96793761419676 -118.2685525373424 12.999999999999998
    vertex 116.96793761419676 -118.2685525373424 12.999999999999998
    vertex 118.96793761419676 -207.26855253734232 12.999999999999998
  endloop
endfacet
facet normal 0.0 0.0 1.0
  outer loop
    vertex 116.96793761419676 -209.2685525373423 12.999999999999998
    vertex 118.96793761419676 -207.26855253734232 12.999999999999998
    vertex 116.96793761419676 -118.2685525373424 12.999999999999998
  endloop
endfacet
facet normal 0.0 0.0 1.0
  outer loop
    vertex 118.96793761419676 -207.26855253734232 12.999999999999998
    vertex 116.96793761419676 -209.2685525373423 12.999999999999998
    vertex 125.96793761419677 -209.2685525373423 12.999999999999998
  endloop
endfacet
facet normal 0.0 0.0 1.0
  outer loop
    vertex 118.96793761419676 -207.26855253734232 12.999999999999998
    vertex 125.96793761419677 -209.2685525373423 12.999999999999998
    vertex 125.96793761419677 -207.26855253734232 12.999999999999998
  endloop
endfacet
facet normal 0.0 -1.0 0.0
  outer loop
    vertex 120.96793761419676 -106.2685525373424 2.0000000000000018
    vertex 116.96793761419676 -106.2685525373424 0.0
    vertex 120.96793761419676 -106.2685525373424 0.0
  endloop
endfacet
facet normal 0.0 -1.0 0.0
  outer loop
    vertex 116.96793761419676 -106.2685525373424 0.0
    vertex 120.96793761419676 -106.2685525373424 2.0000000000000018
    vertex 116.96793761419676 -106.2685525373424 12.999999999999998
  endloop
endfacet
facet normal 0.0 -1.0 0.0
  outer loop
    vertex 116.96793761419676 -106.2685525373424 12.999999999999998
    vertex 120.96793761419676 -106.2685525373424 2.0000000000000018
    vertex 125.96793761419677 -106.2685525373424 2.000000000000003
  endloop
endfacet
facet normal 0.0 -1.0 0.0
  outer loop
    vertex 116.96793761419676 -106.2685525373424 12.999999999999998
    vertex 125.96793761419677 -106.2685525373424 2.000000000000003
    vertex 125.96793761419677 -106.2685525373424 12.999999999999998
  endloop
endfacet
facet normal -3.1461682783950813e-16 -1.596167816143892e-17 1.0
  outer loop
    vertex 125.96793761419677 -207.26855253734232 2.000000000000003
    vertex 118.96793761419676 -118.2685525373424 2.0000000000000018
    vertex 118.96793761419676 -207.26855253734232 1.9999999999999991
  endloop
endfacet
facet normal -3.1461682783950813e-16 -1.596167816143892e-17 1.0
  outer loop
    vertex 118.96793761419676 -118.2685525373424 2.0000000000000018
    vertex 125.96793761419677 -207.26855253734232 2.000000000000003
    vertex 120.96793761419676 -118.2685525373424 2.0000000000000018
  endloop
endfacet
facet normal -3.1461682783950813e-16 -1.596167816143892e-17 1.0
  outer loop
    vertex 120.96793761419676 -118.2685525373424 2.0000000000000018
    vertex 125.96793761419677 -207.26855253734232 2.000000000000003
    vertex 120.96793761419676 -106.2685525373424 2.0000000000000018
  endloop
endfacet
facet normal -3.1461682783950813e-16 -1.596167816143892e-17 1.0
  outer loop
    vertex 120.96793761419676 -106.2685525373424 2.0000000000000018
    vertex 125.96793761419677 -207.26855253734232 2.000000000000003
    vertex 125.96793761419677 -106.2685525373424 2.000000000000003
  endloop
endfacet
facet normal 0.0 1.0 0.0
  outer loop
    vertex 118.96793761419676 -207.26855253734232 12.999999999999998
    vertex 125.96793761419677 -207.26855253734232 2.000000000000003
    vertex 118.96793761419676 -207.26855253734232 1.9999999999999991
  endloop
endfacet
facet normal 0.0 1.0 0.0
  outer loop
    vertex 125.96793761419677 -207.26855253734232 2.000000000000003
    vertex 118.96793761419676 -207.26855253734232 12.999999999999998
    vertex 125.96793761419677 -207.26855253734232 12.999999999999998
  endloop
endfacet
facet normal 0.0 1.0 0.0
  outer loop
    vertex 116.96793761419676 -104.2685525373424 12.999999999999998
    vertex 125.96793761419677 -104.2685525373424 0.0
    vertex 116.96793761419676 -104.2685525373424 0.0
  endloop
endfacet
facet normal 0.0 1.0 0.0
  outer loop
    vertex 125.96793761419677 -104.2685525373424 0.0
    vertex 116.96793761419676 -104.2685525373424 12.999999999999998
    vertex 125.96793761419677 -104.2685525373424 12.999999999999998
  endloop
endfacet
facet normal -1.0 0.0 0.0
  outer loop
    vertex 116.96793761419676 -104.2685525373424 12.999999999999998
    vertex 116.96793761419676 -106.2685525373424 0.0
    vertex 116.96793761419676 -106.2685525373424 12.999999999999998
  endloop
endfacet
facet normal -1.0 0.0 0.0
  outer loop
    vertex 116.96793761419676 -106.2685525373424 0.0
    vertex 116.96793761419676 -104.2685525373424 12.999999999999998
    vertex 116.96793761419676 -104.2685525373424 0.0
  endloop
endfacet
facet normal -1.0 0.0 0.0
  outer loop
    vertex 120.96793761419676 -106.2685525373424 2.0000000000000018
    vertex 120.96793761419676 -118.2685525373424 0.0
    vertex 120.96793761419676 -118.2685525373424 2.0000000000000018
  endloop
endfacet
facet normal -1.0 0.0 0.0
  outer loop
    vertex 120.96793761419676 -118.2685525373424 0.0
    vertex 120.96793761419676 -106.2685525373424 2.0000000000000018
    vertex 120.96793761419676 -106.2685525373424 0.0
  endloop
endfacet
facet normal -0.0 1.0 -0.0
  outer loop
    vertex 116.96793761419676 -118.2685525373424 0.0
    vertex 118.96793761419676 -118.2685525373424 2.0000000000000018
    vertex 120.96793761419676 -118.2685525373424 0.0
  endloop
endfacet
facet normal -0.0 1.0 -0.0
  outer loop
    vertex 118.96793761419676 -118.2685525373424 2.0000000000000018
    vertex 116.96793761419676 -118.2685525373424 0.0
    vertex 116.96793761419676 -118.2685525373424 12.999999999999998
  endloop
endfacet
facet normal -0.0 1.0 -0.0
  outer loop
    vertex 118.96793761419676 -118.2685525373424 2.0000000000000018
    vertex 116.96793761419676 -118.2685525373424 12.999999999999998
    vertex 118.96793761419676 -118.2685525373424 12.999999999999998
  endloop
endfacet
facet normal -0.0 1.0 -0.0
  outer loop
    vertex 120.96793761419676 -118.2685525373424 2.0000000000000018
    vertex 120.96793761419676 -118.2685525373424 0.0
    vertex 118.96793761419676 -118.2685525373424 2.0000000000000018
  endloop
endfacet
endsolid LEDs
