solid LEDs
facet normal 0.0 0.0 -1.0
  outer loop
    vertex 46.83606207691169 -115.64030393697023 4.511946372076636e-14
    vertex 37.83606207691168 -220.64030393697013 4.511946372076636e-14
    vertex 37.83606207691168 -115.64030393697023 4.511946372076636e-14
  endloop
endfacet
facet normal 0.0 0.0 -1.0
  outer loop
    vertex 37.83606207691168 -220.64030393697013 4.511946372076636e-14
    vertex 46.83606207691169 -115.64030393697023 4.511946372076636e-14
    vertex 46.83606207691169 -220.64030393697013 4.511946372076636e-14
  endloop
endfacet
facet normal -1.0 0.0 0.0
  outer loop
    vertex 37.83606207691168 -115.64030393697023 11.000000000000044
    vertex 37.83606207691168 -220.64030393697013 4.511946372076636e-14
    vertex 37.83606207691168 -220.64030393697013 11.000000000000044
  endloop
endfacet
facet normal -1.0 0.0 0.0
  outer loop
    vertex 37.83606207691168 -220.64030393697013 4.511946372076636e-14
    vertex 37.83606207691168 -115.64030393697023 11.000000000000044
    vertex 37.83606207691168 -115.64030393697023 4.511946372076636e-14
  endloop
endfacet
facet normal 1.0 -0.0 -0.0
  outer loop
    vertex 46.83606207691169 -220.64030393697013 4.511946372076636e-14
    vertex 46.83606207691169 -218.64030393697013 2.000000000000048
    vertex 46.83606207691169 -220.64030393697013 11.000000000000044
  endloop
endfacet
facet normal 1.0 -0.0 -0.0
  outer loop
    vertex 46.83606207691169 -218.64030393697013 2.000000000000048
    vertex 46.83606207691169 -220.64030393697013 4.511946372076636e-14
    vertex 46.83606207691169 -115.64030393697023 4.511946372076636e-14
  endloop
endfacet
facet normal 1.0 -0.0 -0.0
  outer loop
    vertex 46.83606207691169 -218.64030393697013 2.000000000000048
    vertex 46.83606207691169 -115.64030393697023 4.511946372076636e-14
    vertex 46.83606207691169 -117.64030393697021 2.000000000000048
  endloop
endfacet
facet normal 1.0 -0.0 -0.0
  outer loop
    vertex 46.83606207691169 -117.64030393697021 2.000000000000048
    vertex 46.83606207691169 -115.64030393697023 4.511946372076636e-14
    vertex 46.83606207691169 -117.64030393697021 11.000000000000044
  endloop
endfacet
facet normal 1.0 -0.0 -0.0
  outer loop
    vertex 46.83606207691169 -117.64030393697021 11.000000000000044
    vertex 46.83606207691169 -115.64030393697023 4.511946372076636e-14
    vertex 46.83606207691169 -115.64030393697023 11.000000000000044
  endloop
endfacet
facet normal 1.0 -0.0 -0.0
  outer loop
    vertex 46.83606207691169 -218.64030393697013 11.000000000000044
    vertex 46.83606207691169 -220.64030393697013 11.000000000000044
    vertex 46.83606207691169 -218.64030393697013 2.000000000000048
  endloop
endfacet
facet normal 0.0 -1.0 0.0
  outer loop
    vertex 46.83606207691169 -220.64030393697013 11.000000000000044
    vertex 37.83606207691168 -220.64030393697013 4.511946372076636e-14
    vertex 46.83606207691169 -220.64030393697013 4.511946372076636e-14
  endloop
endfacet
facet normal 0.0 -1.0 0.0
  outer loop
    vertex 37.83606207691168 -220.64030393697013 4.511946372076636e-14
    vertex 46.83606207691169 -220.64030393697013 11.000000000000044
    vertex 37.83606207691168 -220.64030393697013 11.000000000000044
  endloop
endfacet
facet normal -0.0 -0.0 1.0
  outer loop
    vertex 37.83606207691168 -115.64030393697023 11.000000000000044
    vertex 39.83606207691169 -117.64030393697021 11.000000000000044
    vertex 46.83606207691169 -115.64030393697023 11.000000000000044
  endloop
endfacet
facet normal -0.0 -0.0 1.0
  outer loop
    vertex 39.83606207691169 -117.64030393697021 11.000000000000044
    vertex 37.83606207691168 -115.64030393697023 11.000000000000044
    vertex 39.83606207691169 -218.64030393697013 11.000000000000044
  endloop
endfacet
facet normal -0.0 -0.0 1.0
  outer loop
    vertex 46.83606207691169 -115.64030393697023 11.000000000000044
    vertex 39.83606207691169 -117.64030393697021 11.000000000000044
    vertex 46.83606207691169 -117.64030393697021 11.000000000000044
  endloop
endfacet
facet normal -0.0 -0.0 1.0
  outer loop
    vertex 37.83606207691168 -220.64030393697013 11.000000000000044
    vertex 39.83606207691169 -218.64030393697013 11.000000000000044
    vertex 37.83606207691168 -115.64030393697023 11.000000000000044
  endloop
endfacet
facet normal -0.0 -0.0 1.0
  outer loop
    vertex 39.83606207691169 -218.64030393697013 11.000000000000044
    vertex 37.83606207691168 -220.64030393697013 11.000000000000044
    vertex 46.83606207691169 -220.64030393697013 11.000000000000044
  endloop
endfacet
facet normal -0.0 -0.0 1.0
  outer loop
    vertex 39.83606207691169 -218.64030393697013 11.000000000000044
    vertex 46.83606207691169 -220.64030393697013 11.000000000000044
    vertex 46.83606207691169 -218.64030393697013 11.000000000000044
  endloop
endfacet
facet normal 0.0 -1.0 0.0
  outer loop
    vertex 46.83606207691169 -117.64030393697021 2.000000000000048
    vertex 39.83606207691169 -117.64030393697021 11.000000000000044
    vertex 39.83606207691169 -117.64030393697021 2.000000000000047
  endloop
endfacet
facet normal 0.0 -1.0 0.0
  outer loop
    vertex 39.83606207691169 -117.64030393697021 11.000000000000044
    vertex 46.83606207691169 -117.64030393697021 2.000000000000048
    vertex 46.83606207691169 -117.64030393697021 11.000000000000044
  endloop
endfacet
facet normal -3.52495810318487e-16 -9.155735332947729e-18 1.0
  outer loop
    vertex 46.83606207691169 -218.64030393697013 2.000000000000048
    vertex 39.83606207691169 -117.64030393697021 2.000000000000047
    vertex 39.83606207691169 -218.64030393697013 2.0000000000000444
  endloop
endfacet
facet normal -3.52495810318487e-16 -9.155735332947729e-18 1.0
  outer loop
    vertex 39.83606207691169 -117.64030393697021 2.000000000000047
    vertex 46.83606207691169 -218.64030393697013 2.000000000000048
    vertex 46.83606207691169 -117.64030393697021 2.000000000000048
  endloop
endfacet
facet normal -0.0 1.0 -0.0
  outer loop
    vertex 39.83606207691169 -218.64030393697013 11.000000000000044
    vertex 46.83606207691169 -218.64030393697013 2.000000000000048
    vertex 39.83606207691169 -218.64030393697013 2.0000000000000444
  endloop
endfacet
facet normal -0.0 1.0 -0.0
  outer loop
    vertex 46.83606207691169 -218.64030393697013 2.000000000000048
    vertex 39.83606207691169 -218.64030393697013 11.000000000000044
    vertex 46.83606207691169 -218.64030393697013 11.000000000000044
  endloop
endfacet
facet normal 0.0 1.0 0.0
  outer loop
    vertex 37.83606207691168 -115.64030393697023 11.000000000000044
    vertex 46.83606207691169 -115.64030393697023 4.511946372076636e-14
    vertex 37.83606207691168 -115.64030393697023 4.511946372076636e-14
  endloop
endfacet
facet normal 0.0 1.0 0.0
  outer loop
    vertex 46.83606207691169 -115.64030393697023 4.511946372076636e-14
    vertex 37.83606207691168 -115.64030393697023 11.000000000000044
    vertex 46.83606207691169 -115.64030393697023 11.000000000000044
  endloop
endfacet
facet normal 1.0 -0.0 -0.0
  outer loop
    vertex 39.83606207691169 -117.64030393697021 2.000000000000047
    vertex 39.83606207691169 -218.64030393697013 11.000000000000044
    vertex 39.83606207691169 -218.64030393697013 2.0000000000000444
  endloop
endfacet
facet normal 1.0 -0.0 -0.0
  outer loop
    vertex 39.83606207691169 -218.64030393697013 11.000000000000044
    vertex 39.83606207691169 -117.64030393697021 2.000000000000047
    vertex 39.83606207691169 -117.64030393697021 11.000000000000044
  endloop
endfacet
endsolid LEDs
