solid Backpack
facet normal 1.0 -3.64601727036497e-15 -4.569059617292784e-15
  outer loop
    vertex 231.48524838275276 19.001281870125805 1.4999999999999645
    vertex 231.48524838275293 22.001281870125823 8.999999999999957
    vertex 231.48524838275247 19.001281870125865 95.99999999999994
  endloop
endfacet
facet normal 1.0 -3.64601727036497e-15 -4.569059617292784e-15
  outer loop
    vertex 231.48524838275293 22.001281870125823 8.999999999999957
    vertex 231.48524838275276 19.001281870125805 1.4999999999999645
    vertex 231.48524838275313 84.00128187012571 1.4999999999998745
  endloop
endfacet
facet normal 1.0 -3.64601727036497e-15 -4.569059617292784e-15
  outer loop
    vertex 231.48524838275293 22.001281870125823 8.999999999999957
    vertex 231.48524838275313 84.00128187012571 1.4999999999998745
    vertex 231.48524838275313 81.00128187012571 8.999999999999902
  endloop
endfacet
facet normal 1.0 -3.64601727036497e-15 -4.569059617292784e-15
  outer loop
    vertex 231.48524838275313 81.00128187012571 8.999999999999902
    vertex 231.48524838275313 84.00128187012571 1.4999999999998745
    vertex 231.48524838275267 81.00128187012575 95.99999999999989
  endloop
endfacet
facet normal 1.0 -3.64601727036497e-15 -4.569059617292784e-15
  outer loop
    vertex 231.48524838275267 81.00128187012575 95.99999999999989
    vertex 231.48524838275313 84.00128187012571 1.4999999999998745
    vertex 231.48524838275267 84.00128187012575 95.99999999999989
  endloop
endfacet
facet normal 1.0 -3.64601727036497e-15 -4.569059617292784e-15
  outer loop
    vertex 231.48524838275247 22.001281870125865 95.99999999999994
    vertex 231.48524838275247 19.001281870125865 95.99999999999994
    vertex 231.48524838275293 22.001281870125823 8.999999999999957
  endloop
endfacet
facet normal -5.0529769009246785e-30 -1.0 4.825611093130093e-16
  outer loop
    vertex 253.48524838275313 84.00128187012571 1.50000000000014
    vertex 231.48524838275267 84.00128187012575 95.99999999999989
    vertex 231.48524838275313 84.00128187012571 1.4999999999998745
  endloop
endfacet
facet normal -5.0529769009246785e-30 -1.0 4.825611093130093e-16
  outer loop
    vertex 231.48524838275267 84.00128187012575 95.99999999999989
    vertex 253.48524838275313 84.00128187012571 1.50000000000014
    vertex 253.48524838275267 84.00128187012575 96.00000000000009
  endloop
endfacet
facet normal 1.0 5.946718160934623e-30 4.74941723376488e-15
  outer loop
    vertex 255.48524838275313 81.0012818701257 9.728884364790246e-14
    vertex 255.48524838275267 22.001281870125865 96.00000000000016
    vertex 255.48524838275313 22.001281870125823 1.734279386766957e-13
  endloop
endfacet
facet normal 1.0 5.946718160934623e-30 4.74941723376488e-15
  outer loop
    vertex 255.48524838275267 22.001281870125865 96.00000000000016
    vertex 255.48524838275313 81.0012818701257 9.728884364790246e-14
    vertex 255.48524838275267 22.501281870125865 96.00000000000016
  endloop
endfacet
facet normal 1.0 5.946718160934623e-30 4.74941723376488e-15
  outer loop
    vertex 255.48524838275267 22.501281870125865 96.00000000000016
    vertex 255.48524838275313 81.0012818701257 9.728884364790246e-14
    vertex 255.4852483827532 22.501281870125872 110.50000000000016
  endloop
endfacet
facet normal 1.0 5.946718160934623e-30 4.74941723376488e-15
  outer loop
    vertex 255.4852483827532 22.501281870125872 110.50000000000016
    vertex 255.48524838275313 81.0012818701257 9.728884364790246e-14
    vertex 255.48524838275267 80.50128187012574 96.00000000000009
  endloop
endfacet
facet normal 1.0 5.946718160934623e-30 4.74941723376488e-15
  outer loop
    vertex 255.48524838275267 80.50128187012574 96.00000000000009
    vertex 255.48524838275313 81.0012818701257 9.728884364790246e-14
    vertex 255.48524838275267 81.00128187012574 96.00000000000009
  endloop
endfacet
facet normal 1.0 5.946718160934623e-30 4.74941723376488e-15
  outer loop
    vertex 255.4852483827532 80.50128187012575 110.50000000000009
    vertex 255.4852483827532 22.501281870125872 110.50000000000016
    vertex 255.48524838275267 80.50128187012574 96.00000000000009
  endloop
endfacet
facet normal -1.0 -5.735525049249964e-16 -3.759955310063865e-15
  outer loop
    vertex 229.48524838275293 22.001281870125823 8.999999999999968
    vertex 229.48524838275293 81.00128187012571 4.229949723821846e-15
    vertex 229.48524838275299 22.001281870125727 0.0
  endloop
endfacet
facet normal -1.0 -5.735525049249964e-16 -3.759955310063865e-15
  outer loop
    vertex 229.48524838275293 81.00128187012571 4.229949723821846e-15
    vertex 229.48524838275293 22.001281870125823 8.999999999999968
    vertex 229.48524838275293 81.00128187012571 8.999999999999993
  endloop
endfacet
facet normal -1.156026032476311e-14 1.209331780015798e-15 1.0
  outer loop
    vertex 231.48524838275276 19.001281870125805 1.4999999999999645
    vertex 239.48524838275293 26.001281870125755 1.4999999999999196
    vertex 231.48524838275313 84.00128187012571 1.4999999999998745
  endloop
endfacet
facet normal -1.156026032476311e-14 1.209331780015798e-15 1.0
  outer loop
    vertex 239.48524838275293 26.001281870125755 1.4999999999999196
    vertex 231.48524838275276 19.001281870125805 1.4999999999999645
    vertex 253.48524838275276 19.001281870125723 1.5000000000002076
  endloop
endfacet
facet normal -1.156026032476311e-14 1.209331780015798e-15 1.0
  outer loop
    vertex 239.48524838275293 26.001281870125755 1.4999999999999196
    vertex 253.48524838275276 19.001281870125723 1.5000000000002076
    vertex 245.4852483827529 26.001281870125755 1.4999999999999196
  endloop
endfacet
facet normal -1.156026032476311e-14 1.209331780015798e-15 1.0
  outer loop
    vertex 245.4852483827529 26.001281870125755 1.4999999999999196
    vertex 253.48524838275276 19.001281870125723 1.5000000000002076
    vertex 245.4852483827529 78.50128187012575 1.4999999999999196
  endloop
endfacet
facet normal -1.156026032476311e-14 1.209331780015798e-15 1.0
  outer loop
    vertex 231.48524838275313 84.00128187012571 1.4999999999998745
    vertex 239.48524838275293 78.50128187012575 1.4999999999999196
    vertex 253.48524838275313 84.00128187012571 1.50000000000014
  endloop
endfacet
facet normal -1.156026032476311e-14 1.209331780015798e-15 1.0
  outer loop
    vertex 239.48524838275293 78.50128187012575 1.4999999999999196
    vertex 231.48524838275313 84.00128187012571 1.4999999999998745
    vertex 239.48524838275293 26.001281870125755 1.4999999999999196
  endloop
endfacet
facet normal -1.156026032476311e-14 1.209331780015798e-15 1.0
  outer loop
    vertex 253.48524838275313 84.00128187012571 1.50000000000014
    vertex 239.48524838275293 78.50128187012575 1.4999999999999196
    vertex 245.4852483827529 78.50128187012575 1.4999999999999196
  endloop
endfacet
facet normal -1.156026032476311e-14 1.209331780015798e-15 1.0
  outer loop
    vertex 253.48524838275313 84.00128187012571 1.50000000000014
    vertex 245.4852483827529 78.50128187012575 1.4999999999999196
    vertex 253.48524838275276 19.001281870125723 1.5000000000002076
  endloop
endfacet
facet normal -0.6087614290087243 0.7933533402912323 -1.9782013329161855e-15
  outer loop
    vertex 231.4414412377089 84.96804857158193 96.0
    vertex 231.98524838275296 85.33140888904789 9.86988268891764e-15
    vertex 231.44144123770934 84.96804857158189 9.86988268891764e-15
  endloop
endfacet
facet normal -0.499999999999994 0.866025403784442 -1.6122298649579016e-15
  outer loop
    vertex 231.98524838275296 85.33140888904789 9.86988268891764e-15
    vertex 231.4414412377089 84.96804857158193 96.0
    vertex 231.9852483827525 85.33140888904795 96.0
  endloop
endfacet
facet normal 0.9914448613738122 0.13052619222003822 3.864637466590561e-15
  outer loop
    vertex 255.44247268962218 81.65391283122597 9.728884364790246e-14
    vertex 255.48524838275267 81.00128187012574 96.00000000000009
    vertex 255.48524838275313 81.0012818701257 9.728884364790246e-14
  endloop
endfacet
facet normal 0.9978589232386056 0.06540312923011242 4.708189681532896e-15
  outer loop
    vertex 255.48524838275267 81.00128187012574 96.00000000000009
    vertex 255.44247268962218 81.65391283122597 9.728884364790246e-14
    vertex 255.44247268962175 81.65391283122601 96.00000000000009
  endloop
endfacet
facet normal 0.9659258262890675 0.2588190451025241 2.8833569178944266e-15
  outer loop
    vertex 255.31487751419846 82.29537709563832 9.164891068280667e-14
    vertex 255.44247268962175 81.65391283122601 96.00000000000009
    vertex 255.44247268962218 81.65391283122597 9.728884364790246e-14
  endloop
endfacet
facet normal 0.9914448613738122 0.13052619222003778 3.864637466590568e-15
  outer loop
    vertex 255.44247268962175 81.65391283122601 96.00000000000009
    vertex 255.31487751419846 82.29537709563832 9.164891068280667e-14
    vertex 255.314877514198 82.29537709563836 96.00000000000007
  endloop
endfacet
facet normal 0.9238795325112896 0.3826834323650833 2.6045290416066627e-15
  outer loop
    vertex 255.10464604530955 82.91469903195116 9.164891068280667e-14
    vertex 255.314877514198 82.29537709563836 96.00000000000007
    vertex 255.31487751419846 82.29537709563832 9.164891068280667e-14
  endloop
endfacet
facet normal 0.9659258262890674 0.2588190451025237 2.8833569178944274e-15
  outer loop
    vertex 255.314877514198 82.29537709563836 96.00000000000007
    vertex 255.10464604530955 82.91469903195116 9.164891068280667e-14
    vertex 255.1046460453091 82.9146990319512 96.00000000000007
  endloop
endfacet
facet normal 0.8660254037844441 0.4999999999999905 2.2811369513051258e-15
  outer loop
    vertex 254.81537540167528 83.50128187012571 9.164891068280667e-14
    vertex 255.1046460453091 82.9146990319512 96.00000000000007
    vertex 255.10464604530955 82.91469903195116 9.164891068280667e-14
  endloop
endfacet
facet normal 0.9238795325112894 0.3826834323650835 2.6045290416066623e-15
  outer loop
    vertex 255.1046460453091 82.9146990319512 96.00000000000007
    vertex 254.81537540167528 83.50128187012571 9.164891068280667e-14
    vertex 254.81537540167486 83.50128187012575 96.00000000000007
  endloop
endfacet
facet normal 0.7933533402912318 0.6087614290087249 1.9187139753160544e-15
  outer loop
    vertex 254.45201508420934 84.04508901516931 9.164891068280667e-14
    vertex 254.81537540167486 83.50128187012575 96.00000000000007
    vertex 254.81537540167528 83.50128187012571 9.164891068280667e-14
  endloop
endfacet
facet normal 0.866025403784444 0.4999999999999907 2.281136951305125e-15
  outer loop
    vertex 254.81537540167486 83.50128187012575 96.00000000000007
    vertex 254.45201508420934 84.04508901516931 9.164891068280667e-14
    vertex 254.45201508420888 84.04508901516935 96.00000000000007
  endloop
endfacet
facet normal 0.7071067811865469 0.707106781186548 1.5234612712413678e-15
  outer loop
    vertex 254.02078228868587 84.53681577605845 8.600897771771087e-14
    vertex 254.45201508420888 84.04508901516935 96.00000000000007
    vertex 254.45201508420934 84.04508901516931 9.164891068280667e-14
  endloop
endfacet
facet normal 0.7933533402912318 0.6087614290087249 1.9187139753160544e-15
  outer loop
    vertex 254.45201508420888 84.04508901516935 96.00000000000007
    vertex 254.02078228868587 84.53681577605845 8.600897771771087e-14
    vertex 254.0207822886854 84.53681577605849 96.00000000000007
  endloop
endfacet
facet normal 0.6087614290087241 0.7933533402912326 1.1021417224324834e-15
  outer loop
    vertex 253.5290555277963 84.96804857158193 96.00000000000007
    vertex 254.02078228868587 84.53681577605845 8.600897771771087e-14
    vertex 253.52905552779674 84.96804857158189 8.600897771771087e-14
  endloop
endfacet
facet normal 0.7071067811865469 0.707106781186548 1.5234612712413678e-15
  outer loop
    vertex 254.02078228868587 84.53681577605845 8.600897771771087e-14
    vertex 253.5290555277963 84.96804857158193 96.00000000000007
    vertex 254.0207822886854 84.53681577605849 96.00000000000007
  endloop
endfacet
facet normal 0.4999999999999939 0.8660254037844423 6.61964223181309e-16
  outer loop
    vertex 252.9852483827527 85.33140888904795 96.00000000000007
    vertex 253.52905552779674 84.96804857158189 8.600897771771087e-14
    vertex 252.98524838275316 85.33140888904789 8.036904475261508e-14
  endloop
endfacet
facet normal 0.6087614290087242 0.7933533402912324 1.102141722432484e-15
  outer loop
    vertex 253.52905552779674 84.96804857158189 8.600897771771087e-14
    vertex 252.9852483827527 85.33140888904795 96.00000000000007
    vertex 253.5290555277963 84.96804857158193 96.00000000000007
  endloop
endfacet
facet normal -0.9914448613738087 -0.13052619222006404 -4.514685833354983e-15
  outer loop
    vertex 229.52802407588345 21.348650909025608 95.99999999999996
    vertex 229.48524838275299 22.001281870125727 0.0
    vertex 229.52802407588396 21.34865090902547 0.0
  endloop
endfacet
facet normal -0.9978589232386023 -0.065403129230164 -3.194770015856009e-15
  outer loop
    vertex 229.48524838275299 22.001281870125727 0.0
    vertex 229.52802407588345 21.348650909025608 95.99999999999996
    vertex 229.4852483827525 22.001281870125865 95.99999999999996
  endloop
endfacet
facet normal -0.9978589232386023 -0.065403129230164 -3.194770015856009e-15
  outer loop
    vertex 229.48524838275299 22.001281870125727 0.0
    vertex 229.4852483827525 22.001281870125865 95.99999999999996
    vertex 229.48524838275293 22.001281870125823 8.999999999999968
  endloop
endfacet
facet normal -0.9659258262890672 -0.25881904510252535 -5.420042326455595e-15
  outer loop
    vertex 229.65561925130714 20.707186644613262 95.99999999999996
    vertex 229.52802407588396 21.34865090902547 0.0
    vertex 229.65561925130766 20.707186644613124 5.639932965095795e-15
  endloop
endfacet
facet normal -0.9914448613738087 -0.13052619222006404 -4.514685833354983e-15
  outer loop
    vertex 229.52802407588396 21.34865090902547 0.0
    vertex 229.65561925130714 20.707186644613262 95.99999999999996
    vertex 229.52802407588345 21.348650909025608 95.99999999999996
  endloop
endfacet
facet normal -0.9238795325112894 -0.38268343236508334 -4.561752281371833e-15
  outer loop
    vertex 229.86585072019605 20.08786470830042 95.99999999999997
    vertex 229.65561925130766 20.707186644613124 5.639932965095795e-15
    vertex 229.86585072019656 20.08786470830028 1.127986593019159e-14
  endloop
endfacet
facet normal -0.9659258262890673 -0.25881904510252485 -5.420042326455599e-15
  outer loop
    vertex 229.65561925130766 20.707186644613124 5.639932965095795e-15
    vertex 229.86585072019605 20.08786470830042 95.99999999999997
    vertex 229.65561925130714 20.707186644613262 95.99999999999996
  endloop
endfacet
facet normal -0.8660254037844438 -0.499999999999991 -3.625409389997081e-15
  outer loop
    vertex 230.15512136383026 19.50128187012587 95.99999999999997
    vertex 229.86585072019656 20.08786470830028 1.127986593019159e-14
    vertex 230.1551213638308 19.50128187012573 1.127986593019159e-14
  endloop
endfacet
facet normal -0.9238795325112895 -0.38268343236508306 -4.5617522813718354e-15
  outer loop
    vertex 229.86585072019656 20.08786470830028 1.127986593019159e-14
    vertex 230.15512136383026 19.50128187012587 95.99999999999997
    vertex 229.86585072019605 20.08786470830042 95.99999999999997
  endloop
endfacet
facet normal -0.7933533402912312 -0.6087614290087261 -2.6270347388059426e-15
  outer loop
    vertex 230.51848168129632 18.957474725082267 95.99999999999999
    vertex 230.1551213638308 19.50128187012573 1.127986593019159e-14
    vertex 230.51848168129683 18.95747472508213 1.6919798895287383e-14
  endloop
endfacet
facet normal -0.866025403784444 -0.4999999999999909 -3.6254093899970836e-15
  outer loop
    vertex 230.1551213638308 19.50128187012573 1.127986593019159e-14
    vertex 230.51848168129632 18.957474725082267 95.99999999999999
    vertex 230.15512136383026 19.50128187012587 95.99999999999997
  endloop
endfacet
facet normal -0.707106781186546 -0.7071067811865491 -1.5837107948823658e-15
  outer loop
    vertex 230.9497144768198 18.465747964193135 95.99999999999999
    vertex 230.51848168129683 18.95747472508213 1.6919798895287383e-14
    vertex 230.94971447682028 18.465747964192996 2.255973186038318e-14
  endloop
endfacet
facet normal -0.7933533402912313 -0.6087614290087258 -2.6270347388059458e-15
  outer loop
    vertex 230.51848168129683 18.95747472508213 1.6919798895287383e-14
    vertex 230.9497144768198 18.465747964193135 95.99999999999999
    vertex 230.51848168129632 18.957474725082267 95.99999999999999
  endloop
endfacet
facet normal -0.6087614290087231 -0.7933533402912333 -5.132891201707738e-16
  outer loop
    vertex 231.44144123770943 18.03451516866956 2.8199664825478976e-14
    vertex 230.9497144768198 18.465747964193135 95.99999999999999
    vertex 230.94971447682028 18.465747964192996 2.255973186038318e-14
  endloop
endfacet
facet normal -0.707106781186546 -0.7071067811865491 -1.5837107948823658e-15
  outer loop
    vertex 230.9497144768198 18.465747964193135 95.99999999999999
    vertex 231.44144123770943 18.03451516866956 2.8199664825478976e-14
    vertex 231.4414412377089 18.034515168669696 95.99999999999999
  endloop
endfacet
facet normal -0.4999999999999957 -0.866025403784441 5.659150736976775e-16
  outer loop
    vertex 231.985248382753 17.671154851203543 3.3839597790574766e-14
    vertex 231.4414412377089 18.034515168669696 95.99999999999999
    vertex 231.44144123770943 18.03451516866956 2.8199664825478976e-14
  endloop
endfacet
facet normal -0.6087614290087229 -0.7933533402912334 -5.132891201707715e-16
  outer loop
    vertex 231.4414412377089 18.034515168669696 95.99999999999999
    vertex 231.985248382753 17.671154851203543 3.3839597790574766e-14
    vertex 231.9852483827525 17.67115485120368 96.0
  endloop
endfacet
facet normal -0.06540312922995925 -0.9978589232386157 2.1742627811880977e-15
  outer loop
    vertex 234.485248382753 17.001281870125737 5.639932965095795e-14
    vertex 233.8326174216522 17.04405756325682 96.0
    vertex 233.8326174216527 17.044057563256686 5.0759396685862156e-14
  endloop
endfacet
facet normal -0.13052619221996142 -0.9914448613738224 2.683704543911459e-15
  outer loop
    vertex 233.8326174216522 17.04405756325682 96.0
    vertex 234.485248382753 17.001281870125737 5.639932965095795e-14
    vertex 234.48524838275247 17.00128187012637 81.50000000000004
  endloop
endfacet
facet normal -0.13052619221996142 -0.9914448613738224 2.683704543911459e-15
  outer loop
    vertex 233.8326174216522 17.04405756325682 96.0
    vertex 234.48524838275247 17.00128187012637 81.50000000000004
    vertex 234.48524838275247 17.001281870125876 96.00000000000001
  endloop
endfacet
facet normal 0.3826834323650898 0.9238795325112868 2.1046033254040916e-16
  outer loop
    vertex 252.39866554457814 85.62067953268219 96.00000000000007
    vertex 252.98524838275316 85.33140888904789 8.036904475261508e-14
    vertex 252.3986655445786 85.62067953268213 8.036904475261508e-14
  endloop
endfacet
facet normal 0.499999999999994 0.8660254037844421 6.619642231813096e-16
  outer loop
    vertex 252.98524838275316 85.33140888904789 8.036904475261508e-14
    vertex 252.39866554457814 85.62067953268219 96.00000000000007
    vertex 252.9852483827527 85.33140888904795 96.00000000000007
  endloop
endfacet
facet normal -0.25881904510252435 -0.9659258262890673 2.6769747652240133e-15
  outer loop
    vertex 233.1911531572404 17.171652738680397 4.511946372076636e-14
    vertex 232.57183122092707 17.381884207569442 96.0
    vertex 232.57183122092755 17.381884207569303 3.947953075567056e-14
  endloop
endfacet
facet normal -0.38268343236508934 -0.923879532511287 1.6354363037537602e-15
  outer loop
    vertex 232.57183122092707 17.381884207569442 96.0
    vertex 233.1911531572404 17.171652738680397 4.511946372076636e-14
    vertex 233.1911531572399 17.17165273868053 96.0
  endloop
endfacet
facet normal -0.38268343236508956 -0.9238795325112867 1.6354363037537574e-15
  outer loop
    vertex 232.57183122092755 17.381884207569303 3.947953075567056e-14
    vertex 231.9852483827525 17.67115485120368 96.0
    vertex 231.985248382753 17.671154851203543 3.3839597790574766e-14
  endloop
endfacet
facet normal -0.4999999999999952 -0.8660254037844415 5.659150736976829e-16
  outer loop
    vertex 231.9852483827525 17.67115485120368 96.0
    vertex 232.57183122092755 17.381884207569303 3.947953075567056e-14
    vertex 232.57183122092707 17.381884207569442 96.0
  endloop
endfacet
facet normal 0.06540312923014073 0.9978589232386038 -1.4507546428638413e-16
  outer loop
    vertex 250.48524838275267 86.00128187012591 81.50000000000009
    vertex 251.1378793438534 85.95850617699475 7.472911178751928e-14
    vertex 250.48524838275313 86.0012818701257 7.472911178751928e-14
  endloop
endfacet
facet normal 0.1305261922200455 0.9914448613738113 -3.0875518849843397e-16
  outer loop
    vertex 251.1378793438534 85.95850617699475 7.472911178751928e-14
    vertex 250.48524838275267 86.00128187012591 81.50000000000009
    vertex 251.13787934385294 85.95850617699479 96.00000000000006
  endloop
endfacet
facet normal 0.13052619222004527 0.9914448613738112 -3.0875518849843343e-16
  outer loop
    vertex 251.13787934385294 85.95850617699479 96.00000000000006
    vertex 250.48524838275267 86.00128187012591 81.50000000000009
    vertex 250.48524838275267 86.00128187012575 96.00000000000006
  endloop
endfacet
facet normal 0.13052619222004527 0.9914448613738112 -3.0875518849843343e-16
  outer loop
    vertex 251.13787934385294 85.95850617699479 96.00000000000006
    vertex 251.77934360826575 85.83091100157105 8.036904475261508e-14
    vertex 251.1378793438534 85.95850617699475 7.472911178751928e-14
  endloop
endfacet
facet normal 0.2588190451025201 0.9659258262890684 -2.4464459274091154e-16
  outer loop
    vertex 251.77934360826575 85.83091100157105 8.036904475261508e-14
    vertex 251.13787934385294 85.95850617699479 96.00000000000006
    vertex 251.7793436082653 85.8309110015711 96.00000000000006
  endloop
endfacet
facet normal -0.1305261922199617 -0.9914448613738223 2.6837045439114605e-15
  outer loop
    vertex 233.8326174216527 17.044057563256686 5.0759396685862156e-14
    vertex 233.1911531572399 17.17165273868053 96.0
    vertex 233.1911531572404 17.171652738680397 4.511946372076636e-14
  endloop
endfacet
facet normal -0.25881904510252446 -0.9659258262890673 2.6769747652240126e-15
  outer loop
    vertex 233.1911531572399 17.17165273868053 96.0
    vertex 233.8326174216527 17.044057563256686 5.0759396685862156e-14
    vertex 233.8326174216522 17.04405756325682 96.0
  endloop
endfacet
facet normal 0.25881904510252024 0.9659258262890684 -2.4464459274091105e-16
  outer loop
    vertex 251.7793436082653 85.8309110015711 96.00000000000006
    vertex 252.3986655445786 85.62067953268213 8.036904475261508e-14
    vertex 251.77934360826575 85.83091100157105 8.036904475261508e-14
  endloop
endfacet
facet normal 0.3826834323650898 0.9238795325112867 2.1046033254040914e-16
  outer loop
    vertex 252.3986655445786 85.62067953268213 8.036904475261508e-14
    vertex 251.7793436082653 85.8309110015711 96.00000000000006
    vertex 252.39866554457814 85.62067953268219 96.00000000000007
  endloop
endfacet
facet normal 0.13052619221996978 -0.9914448613738213 2.1360499946517184e-15
  outer loop
    vertex 251.1378793438534 17.044057563256782 1.508682068163125e-13
    vertex 250.48524838275267 17.00128187012637 81.50000000000016
    vertex 250.48524838275313 17.001281870125833 1.4522827385121672e-13
  endloop
endfacet
facet normal 0.06540312922997574 -0.9978589232386146 1.8000289082669515e-15
  outer loop
    vertex 250.48524838275267 17.00128187012637 81.50000000000016
    vertex 251.1378793438534 17.044057563256782 1.508682068163125e-13
    vertex 251.13787934385294 17.04405756325682 96.00000000000013
  endloop
endfacet
facet normal 0.06540312922997574 -0.9978589232386146 1.8000289082669515e-15
  outer loop
    vertex 250.48524838275267 17.00128187012637 81.50000000000016
    vertex 251.13787934385294 17.04405756325682 96.00000000000013
    vertex 250.48524838275267 17.001281870125876 96.00000000000013
  endloop
endfacet
facet normal 0.25881904510252446 -0.9659258262890674 2.873527745358424e-15
  outer loop
    vertex 251.7793436082653 17.17165273868053 96.00000000000014
    vertex 251.1378793438534 17.044057563256782 1.508682068163125e-13
    vertex 251.77934360826575 17.171652738680493 1.508682068163125e-13
  endloop
endfacet
facet normal 0.13052619221996978 -0.9914448613738213 2.1360499946517184e-15
  outer loop
    vertex 251.1378793438534 17.044057563256782 1.508682068163125e-13
    vertex 251.7793436082653 17.17165273868053 96.00000000000014
    vertex 251.13787934385294 17.04405756325682 96.00000000000013
  endloop
endfacet
facet normal 0.38268343236508934 -0.923879532511287 3.6561146250895934e-15
  outer loop
    vertex 252.3986655445786 17.3818842075694 1.565081397814083e-13
    vertex 251.7793436082653 17.17165273868053 96.00000000000014
    vertex 251.77934360826575 17.171652738680493 1.508682068163125e-13
  endloop
endfacet
facet normal 0.25881904510252446 -0.9659258262890674 2.873527745358424e-15
  outer loop
    vertex 251.7793436082653 17.17165273868053 96.00000000000014
    vertex 252.3986655445786 17.3818842075694 1.565081397814083e-13
    vertex 252.39866554457814 17.381884207569442 96.00000000000014
  endloop
endfacet
facet normal 0.4999999999999957 -0.8660254037844412 4.376144369919004e-15
  outer loop
    vertex 252.98524838275316 17.67115485120364 1.6214807274650411e-13
    vertex 252.39866554457814 17.381884207569442 96.00000000000014
    vertex 252.3986655445786 17.3818842075694 1.565081397814083e-13
  endloop
endfacet
facet normal 0.3826834323650893 -0.9238795325112868 3.656114625089593e-15
  outer loop
    vertex 252.39866554457814 17.381884207569442 96.00000000000014
    vertex 252.98524838275316 17.67115485120364 1.6214807274650411e-13
    vertex 252.9852483827527 17.67115485120368 96.00000000000014
  endloop
endfacet
facet normal 0.6087614290087232 -0.7933533402912333 5.021297071282725e-15
  outer loop
    vertex 253.5290555277963 18.034515168669696 96.00000000000014
    vertex 252.98524838275316 17.67115485120364 1.6214807274650411e-13
    vertex 253.52905552779674 18.034515168669653 1.6214807274650411e-13
  endloop
endfacet
facet normal 0.4999999999999957 -0.8660254037844412 4.376144369919004e-15
  outer loop
    vertex 252.98524838275316 17.67115485120364 1.6214807274650411e-13
    vertex 253.5290555277963 18.034515168669696 96.00000000000014
    vertex 252.9852483827527 17.67115485120368 96.00000000000014
  endloop
endfacet
facet normal 0.7071067811865469 -0.7071067811865483 5.580533987590181e-15
  outer loop
    vertex 254.02078228868587 18.465747964193092 1.677880057115999e-13
    vertex 253.5290555277963 18.034515168669696 96.00000000000014
    vertex 253.52905552779674 18.034515168669653 1.6214807274650411e-13
  endloop
endfacet
facet normal 0.6087614290087232 -0.7933533402912333 5.021297071282725e-15
  outer loop
    vertex 253.5290555277963 18.034515168669696 96.00000000000014
    vertex 254.02078228868587 18.465747964193092 1.677880057115999e-13
    vertex 254.0207822886854 18.465747964193135 96.00000000000016
  endloop
endfacet
facet normal 0.7933533402912315 -0.6087614290087257 6.044286420153648e-15
  outer loop
    vertex 254.45201508420934 18.957474725082225 1.677880057115999e-13
    vertex 254.0207822886854 18.465747964193135 96.00000000000016
    vertex 254.02078228868587 18.465747964193092 1.677880057115999e-13
  endloop
endfacet
facet normal 0.7071067811865469 -0.7071067811865481 5.5805339875901814e-15
  outer loop
    vertex 254.0207822886854 18.465747964193135 96.00000000000016
    vertex 254.45201508420934 18.957474725082225 1.677880057115999e-13
    vertex 254.45201508420888 18.957474725082267 96.00000000000016
  endloop
endfacet
facet normal 0.991444861373812 -0.13052619222003892 5.80519660033966e-15
  outer loop
    vertex 255.44247268962218 21.348650909025565 1.734279386766957e-13
    vertex 255.314877514198 20.707186644613262 96.00000000000016
    vertex 255.31487751419846 20.70718664461322 1.734279386766957e-13
  endloop
endfacet
facet normal 0.9659258262890671 -0.25881904510252507 6.792240654512744e-15
  outer loop
    vertex 255.314877514198 20.707186644613262 96.00000000000016
    vertex 255.44247268962218 21.348650909025565 1.734279386766957e-13
    vertex 255.44247268962175 21.348650909025608 96.00000000000016
  endloop
endfacet
facet normal 0.8660254037844433 -0.49999999999999195 6.404619436275549e-15
  outer loop
    vertex 254.81537540167528 19.501281870125826 1.677880057115999e-13
    vertex 254.45201508420888 18.957474725082267 96.00000000000016
    vertex 254.45201508420934 18.957474725082225 1.677880057115999e-13
  endloop
endfacet
facet normal 0.7933533402912313 -0.6087614290087257 6.044286420153645e-15
  outer loop
    vertex 254.45201508420888 18.957474725082267 96.00000000000016
    vertex 254.81537540167528 19.501281870125826 1.677880057115999e-13
    vertex 254.81537540167486 19.50128187012587 96.00000000000016
  endloop
endfacet
facet normal 0.9238795325112894 -0.38268343236508323 6.655367638146748e-15
  outer loop
    vertex 255.10464604530955 20.087864708300376 1.734279386766957e-13
    vertex 254.81537540167486 19.50128187012587 96.00000000000016
    vertex 254.81537540167528 19.501281870125826 1.677880057115999e-13
  endloop
endfacet
facet normal 0.8660254037844433 -0.499999999999992 6.40461943627555e-15
  outer loop
    vertex 254.81537540167486 19.50128187012587 96.00000000000016
    vertex 255.10464604530955 20.087864708300376 1.734279386766957e-13
    vertex 255.1046460453091 20.08786470830042 96.00000000000016
  endloop
endfacet
facet normal -0.13052619222004283 0.9914448613738115 -6.729537212360603e-16
  outer loop
    vertex 233.8326174216522 85.95850617699479 96.0
    vertex 234.48524838275293 86.0012818701257 2.1149748619109232e-14
    vertex 233.83261742165266 85.95850617699475 1.5509815654013436e-14
  endloop
endfacet
facet normal -0.06540312923013582 0.997858923238604 -7.515808062400228e-16
  outer loop
    vertex 234.48524838275293 86.0012818701257 2.1149748619109232e-14
    vertex 233.8326174216522 85.95850617699479 96.0
    vertex 234.48524838275247 86.00128187012591 81.50000000000003
  endloop
endfacet
facet normal -0.06540312923013582 0.997858923238604 -7.515808062400228e-16
  outer loop
    vertex 234.48524838275247 86.00128187012591 81.50000000000003
    vertex 233.8326174216522 85.95850617699479 96.0
    vertex 234.48524838275247 86.00128187012575 96.0
  endloop
endfacet
facet normal -0.3826834323650898 0.9238795325112867 -1.2186726970156742e-15
  outer loop
    vertex 232.57183122092707 85.62067953268219 96.0
    vertex 233.19115315724036 85.83091100157105 1.5509815654013436e-14
    vertex 232.57183122092752 85.62067953268213 1.5509815654013436e-14
  endloop
endfacet
facet normal -0.2588190451025199 0.9659258262890685 -8.042637013475811e-16
  outer loop
    vertex 233.19115315724036 85.83091100157105 1.5509815654013436e-14
    vertex 232.57183122092707 85.62067953268219 96.0
    vertex 233.1911531572399 85.8309110015711 96.0
  endloop
endfacet
facet normal -0.499999999999994 0.8660254037844419 -1.6122298649579016e-15
  outer loop
    vertex 231.9852483827525 85.33140888904795 96.0
    vertex 232.57183122092752 85.62067953268213 1.5509815654013436e-14
    vertex 231.98524838275296 85.33140888904789 9.86988268891764e-15
  endloop
endfacet
facet normal -0.3826834323650896 0.9238795325112868 -1.2186726970156736e-15
  outer loop
    vertex 232.57183122092752 85.62067953268213 1.5509815654013436e-14
    vertex 231.9852483827525 85.33140888904795 96.0
    vertex 232.57183122092707 85.62067953268219 96.0
  endloop
endfacet
facet normal -0.2588190451025199 0.9659258262890684 -8.042637013475812e-16
  outer loop
    vertex 233.1911531572399 85.8309110015711 96.0
    vertex 233.83261742165266 85.95850617699475 1.5509815654013436e-14
    vertex 233.19115315724036 85.83091100157105 1.5509815654013436e-14
  endloop
endfacet
facet normal -0.13052619222004297 0.9914448613738115 -6.729537212360602e-16
  outer loop
    vertex 233.83261742165266 85.95850617699475 1.5509815654013436e-14
    vertex 233.1911531572399 85.8309110015711 96.0
    vertex 233.8326174216522 85.95850617699479 96.0
  endloop
endfacet
facet normal 0.9978589232386056 -0.06540312923011328 4.768369782428066e-15
  outer loop
    vertex 255.48524838275313 22.001281870125823 1.734279386766957e-13
    vertex 255.44247268962175 21.348650909025608 96.00000000000016
    vertex 255.44247268962218 21.348650909025565 1.734279386766957e-13
  endloop
endfacet
facet normal 0.9914448613738119 -0.13052619222003894 5.80519660033966e-15
  outer loop
    vertex 255.44247268962175 21.348650909025608 96.00000000000016
    vertex 255.48524838275313 22.001281870125823 1.734279386766957e-13
    vertex 255.48524838275267 22.001281870125865 96.00000000000016
  endloop
endfacet
facet normal 0.9659258262890672 -0.258819045102525 6.792240654512745e-15
  outer loop
    vertex 255.31487751419846 20.70718664461322 1.734279386766957e-13
    vertex 255.1046460453091 20.08786470830042 96.00000000000016
    vertex 255.10464604530955 20.087864708300376 1.734279386766957e-13
  endloop
endfacet
facet normal 0.9238795325112895 -0.38268343236508323 6.655367638146749e-15
  outer loop
    vertex 255.1046460453091 20.08786470830042 96.00000000000016
    vertex 255.31487751419846 20.70718664461322 1.734279386766957e-13
    vertex 255.314877514198 20.707186644613262 96.00000000000016
  endloop
endfacet
facet normal -1.0 5.46902590554744e-15 -3.431621531656504e-30
  outer loop
    vertex 253.4852483827523 19.00128187012577 96.00000000000014
    vertex 253.48524838275313 84.00128187012571 1.50000000000014
    vertex 253.48524838275276 19.001281870125723 1.5000000000002076
  endloop
endfacet
facet normal -1.0 5.46902590554744e-15 -3.431621531656504e-30
  outer loop
    vertex 253.48524838275313 84.00128187012571 1.50000000000014
    vertex 253.4852483827523 19.00128187012577 96.00000000000014
    vertex 253.48524838275267 84.00128187012575 96.00000000000009
  endloop
endfacet
facet normal 5.499895363969097e-15 -4.935958772059465e-16 -1.0
  outer loop
    vertex 229.5280240758839 81.65391283122597 4.229949723821846e-15
    vertex 229.48524838275299 22.001281870125727 0.0
    vertex 229.48524838275293 81.00128187012571 4.229949723821846e-15
  endloop
endfacet
facet normal 5.499895363969097e-15 -4.935958772059465e-16 -1.0
  outer loop
    vertex 229.48524838275299 22.001281870125727 0.0
    vertex 229.5280240758839 81.65391283122597 4.229949723821846e-15
    vertex 229.52802407588396 21.34865090902547 0.0
  endloop
endfacet
facet normal 5.499895363969097e-15 -4.935958772059465e-16 -1.0
  outer loop
    vertex 229.52802407588396 21.34865090902547 0.0
    vertex 229.5280240758839 81.65391283122597 4.229949723821846e-15
    vertex 229.6556192513076 82.29537709563832 4.229949723821846e-15
  endloop
endfacet
facet normal 5.499895363969097e-15 -4.935958772059465e-16 -1.0
  outer loop
    vertex 229.52802407588396 21.34865090902547 0.0
    vertex 229.6556192513076 82.29537709563832 4.229949723821846e-15
    vertex 229.65561925130766 20.707186644613124 5.639932965095795e-15
  endloop
endfacet
facet normal 5.499895363969097e-15 -4.935958772059465e-16 -1.0
  outer loop
    vertex 229.65561925130766 20.707186644613124 5.639932965095795e-15
    vertex 229.6556192513076 82.29537709563832 4.229949723821846e-15
    vertex 229.8658507201965 82.91469903195116 4.229949723821846e-15
  endloop
endfacet
facet normal 5.499895363969097e-15 -4.935958772059465e-16 -1.0
  outer loop
    vertex 229.65561925130766 20.707186644613124 5.639932965095795e-15
    vertex 229.8658507201965 82.91469903195116 4.229949723821846e-15
    vertex 229.86585072019656 20.08786470830028 1.127986593019159e-14
  endloop
endfacet
facet normal 5.499895363969097e-15 -4.935958772059465e-16 -1.0
  outer loop
    vertex 229.86585072019656 20.08786470830028 1.127986593019159e-14
    vertex 229.8658507201965 82.91469903195116 4.229949723821846e-15
    vertex 230.15512136383072 83.50128187012571 4.229949723821846e-15
  endloop
endfacet
facet normal 5.499895363969097e-15 -4.935958772059465e-16 -1.0
  outer loop
    vertex 229.86585072019656 20.08786470830028 1.127986593019159e-14
    vertex 230.15512136383072 83.50128187012571 4.229949723821846e-15
    vertex 230.1551213638308 19.50128187012573 1.127986593019159e-14
  endloop
endfacet
facet normal 5.499895363969097e-15 -4.935958772059465e-16 -1.0
  outer loop
    vertex 230.1551213638308 19.50128187012573 1.127986593019159e-14
    vertex 230.15512136383072 83.50128187012571 4.229949723821846e-15
    vertex 230.51848168129678 84.04508901516931 4.229949723821846e-15
  endloop
endfacet
facet normal 5.499895363969097e-15 -4.935958772059465e-16 -1.0
  outer loop
    vertex 230.1551213638308 19.50128187012573 1.127986593019159e-14
    vertex 230.51848168129678 84.04508901516931 4.229949723821846e-15
    vertex 230.51848168129683 18.95747472508213 1.6919798895287383e-14
  endloop
endfacet
facet normal 5.499895363969097e-15 -4.935958772059465e-16 -1.0
  outer loop
    vertex 230.51848168129683 18.95747472508213 1.6919798895287383e-14
    vertex 230.51848168129678 84.04508901516931 4.229949723821846e-15
    vertex 230.94971447682022 84.53681577605845 9.86988268891764e-15
  endloop
endfacet
facet normal 5.499895363969097e-15 -4.935958772059465e-16 -1.0
  outer loop
    vertex 230.51848168129683 18.95747472508213 1.6919798895287383e-14
    vertex 230.94971447682022 84.53681577605845 9.86988268891764e-15
    vertex 230.94971447682028 18.465747964192996 2.255973186038318e-14
  endloop
endfacet
facet normal 5.499895363969097e-15 -4.935958772059465e-16 -1.0
  outer loop
    vertex 230.94971447682028 18.465747964192996 2.255973186038318e-14
    vertex 230.94971447682022 84.53681577605845 9.86988268891764e-15
    vertex 231.44144123770934 84.96804857158189 9.86988268891764e-15
  endloop
endfacet
facet normal 5.499895363969097e-15 -4.935958772059465e-16 -1.0
  outer loop
    vertex 230.94971447682028 18.465747964192996 2.255973186038318e-14
    vertex 231.44144123770934 84.96804857158189 9.86988268891764e-15
    vertex 231.44144123770943 18.03451516866956 2.8199664825478976e-14
  endloop
endfacet
facet normal 5.499895363969097e-15 -4.935958772059465e-16 -1.0
  outer loop
    vertex 231.44144123770943 18.03451516866956 2.8199664825478976e-14
    vertex 231.44144123770934 84.96804857158189 9.86988268891764e-15
    vertex 231.98524838275296 85.33140888904789 9.86988268891764e-15
  endloop
endfacet
facet normal 5.499895363969097e-15 -4.935958772059465e-16 -1.0
  outer loop
    vertex 231.44144123770943 18.03451516866956 2.8199664825478976e-14
    vertex 231.98524838275296 85.33140888904789 9.86988268891764e-15
    vertex 231.985248382753 17.671154851203543 3.3839597790574766e-14
  endloop
endfacet
facet normal 5.499895363969097e-15 -4.935958772059465e-16 -1.0
  outer loop
    vertex 231.985248382753 17.671154851203543 3.3839597790574766e-14
    vertex 231.98524838275296 85.33140888904789 9.86988268891764e-15
    vertex 232.57183122092752 85.62067953268213 1.5509815654013436e-14
  endloop
endfacet
facet normal 5.499895363969097e-15 -4.935958772059465e-16 -1.0
  outer loop
    vertex 231.985248382753 17.671154851203543 3.3839597790574766e-14
    vertex 232.57183122092752 85.62067953268213 1.5509815654013436e-14
    vertex 232.57183122092755 17.381884207569303 3.947953075567056e-14
  endloop
endfacet
facet normal 5.499895363969097e-15 -4.935958772059465e-16 -1.0
  outer loop
    vertex 232.57183122092755 17.381884207569303 3.947953075567056e-14
    vertex 232.57183122092752 85.62067953268213 1.5509815654013436e-14
    vertex 233.19115315724036 85.83091100157105 1.5509815654013436e-14
  endloop
endfacet
facet normal 5.499895363969097e-15 -4.935958772059465e-16 -1.0
  outer loop
    vertex 232.57183122092755 17.381884207569303 3.947953075567056e-14
    vertex 233.19115315724036 85.83091100157105 1.5509815654013436e-14
    vertex 233.1911531572404 17.171652738680397 4.511946372076636e-14
  endloop
endfacet
facet normal 5.499895363969097e-15 -4.935958772059465e-16 -1.0
  outer loop
    vertex 233.1911531572404 17.171652738680397 4.511946372076636e-14
    vertex 233.19115315724036 85.83091100157105 1.5509815654013436e-14
    vertex 233.83261742165266 85.95850617699475 1.5509815654013436e-14
  endloop
endfacet
facet normal 5.499895363969097e-15 -4.935958772059465e-16 -1.0
  outer loop
    vertex 233.1911531572404 17.171652738680397 4.511946372076636e-14
    vertex 233.83261742165266 85.95850617699475 1.5509815654013436e-14
    vertex 233.8326174216527 17.044057563256686 5.0759396685862156e-14
  endloop
endfacet
facet normal 5.499895363969097e-15 -4.935958772059465e-16 -1.0
  outer loop
    vertex 233.8326174216527 17.044057563256686 5.0759396685862156e-14
    vertex 233.83261742165266 85.95850617699475 1.5509815654013436e-14
    vertex 234.48524838275293 86.0012818701257 2.1149748619109232e-14
  endloop
endfacet
facet normal 5.499895363969097e-15 -4.935958772059465e-16 -1.0
  outer loop
    vertex 233.8326174216527 17.044057563256686 5.0759396685862156e-14
    vertex 234.48524838275293 86.0012818701257 2.1149748619109232e-14
    vertex 234.485248382753 17.001281870125737 5.639932965095795e-14
  endloop
endfacet
facet normal 5.499895363969097e-15 -4.935958772059465e-16 -1.0
  outer loop
    vertex 234.485248382753 17.001281870125737 5.639932965095795e-14
    vertex 234.48524838275293 86.0012818701257 2.1149748619109232e-14
    vertex 250.48524838275313 86.0012818701257 7.472911178751928e-14
  endloop
endfacet
facet normal 5.499895363969097e-15 -4.935958772059465e-16 -1.0
  outer loop
    vertex 234.485248382753 17.001281870125737 5.639932965095795e-14
    vertex 250.48524838275313 86.0012818701257 7.472911178751928e-14
    vertex 250.48524838275313 17.001281870125833 1.4522827385121672e-13
  endloop
endfacet
facet normal 5.499895363969097e-15 -4.935958772059465e-16 -1.0
  outer loop
    vertex 250.48524838275313 17.001281870125833 1.4522827385121672e-13
    vertex 250.48524838275313 86.0012818701257 7.472911178751928e-14
    vertex 251.1378793438534 85.95850617699475 7.472911178751928e-14
  endloop
endfacet
facet normal 5.499895363969097e-15 -4.935958772059465e-16 -1.0
  outer loop
    vertex 250.48524838275313 17.001281870125833 1.4522827385121672e-13
    vertex 251.1378793438534 85.95850617699475 7.472911178751928e-14
    vertex 251.1378793438534 17.044057563256782 1.508682068163125e-13
  endloop
endfacet
facet normal 5.499895363969097e-15 -4.935958772059465e-16 -1.0
  outer loop
    vertex 251.1378793438534 17.044057563256782 1.508682068163125e-13
    vertex 251.1378793438534 85.95850617699475 7.472911178751928e-14
    vertex 251.77934360826575 85.83091100157105 8.036904475261508e-14
  endloop
endfacet
facet normal 5.499895363969097e-15 -4.935958772059465e-16 -1.0
  outer loop
    vertex 251.1378793438534 17.044057563256782 1.508682068163125e-13
    vertex 251.77934360826575 85.83091100157105 8.036904475261508e-14
    vertex 251.77934360826575 17.171652738680493 1.508682068163125e-13
  endloop
endfacet
facet normal 5.499895363969097e-15 -4.935958772059465e-16 -1.0
  outer loop
    vertex 251.77934360826575 17.171652738680493 1.508682068163125e-13
    vertex 251.77934360826575 85.83091100157105 8.036904475261508e-14
    vertex 252.3986655445786 85.62067953268213 8.036904475261508e-14
  endloop
endfacet
facet normal 5.499895363969097e-15 -4.935958772059465e-16 -1.0
  outer loop
    vertex 251.77934360826575 17.171652738680493 1.508682068163125e-13
    vertex 252.3986655445786 85.62067953268213 8.036904475261508e-14
    vertex 252.3986655445786 17.3818842075694 1.565081397814083e-13
  endloop
endfacet
facet normal 5.499895363969097e-15 -4.935958772059465e-16 -1.0
  outer loop
    vertex 252.3986655445786 17.3818842075694 1.565081397814083e-13
    vertex 252.3986655445786 85.62067953268213 8.036904475261508e-14
    vertex 252.98524838275316 85.33140888904789 8.036904475261508e-14
  endloop
endfacet
facet normal 5.499895363969097e-15 -4.935958772059465e-16 -1.0
  outer loop
    vertex 252.3986655445786 17.3818842075694 1.565081397814083e-13
    vertex 252.98524838275316 85.33140888904789 8.036904475261508e-14
    vertex 252.98524838275316 17.67115485120364 1.6214807274650411e-13
  endloop
endfacet
facet normal 5.499895363969097e-15 -4.935958772059465e-16 -1.0
  outer loop
    vertex 252.98524838275316 17.67115485120364 1.6214807274650411e-13
    vertex 252.98524838275316 85.33140888904789 8.036904475261508e-14
    vertex 253.52905552779674 84.96804857158189 8.600897771771087e-14
  endloop
endfacet
facet normal 5.499895363969097e-15 -4.935958772059465e-16 -1.0
  outer loop
    vertex 252.98524838275316 17.67115485120364 1.6214807274650411e-13
    vertex 253.52905552779674 84.96804857158189 8.600897771771087e-14
    vertex 253.52905552779674 18.034515168669653 1.6214807274650411e-13
  endloop
endfacet
facet normal 5.499895363969097e-15 -4.935958772059465e-16 -1.0
  outer loop
    vertex 253.52905552779674 18.034515168669653 1.6214807274650411e-13
    vertex 253.52905552779674 84.96804857158189 8.600897771771087e-14
    vertex 254.02078228868587 84.53681577605845 8.600897771771087e-14
  endloop
endfacet
facet normal 5.499895363969097e-15 -4.935958772059465e-16 -1.0
  outer loop
    vertex 253.52905552779674 18.034515168669653 1.6214807274650411e-13
    vertex 254.02078228868587 84.53681577605845 8.600897771771087e-14
    vertex 254.02078228868587 18.465747964193092 1.677880057115999e-13
  endloop
endfacet
facet normal 5.499895363969097e-15 -4.935958772059465e-16 -1.0
  outer loop
    vertex 254.02078228868587 18.465747964193092 1.677880057115999e-13
    vertex 254.02078228868587 84.53681577605845 8.600897771771087e-14
    vertex 254.45201508420934 84.04508901516931 9.164891068280667e-14
  endloop
endfacet
facet normal 5.499895363969097e-15 -4.935958772059465e-16 -1.0
  outer loop
    vertex 254.02078228868587 18.465747964193092 1.677880057115999e-13
    vertex 254.45201508420934 84.04508901516931 9.164891068280667e-14
    vertex 254.45201508420934 18.957474725082225 1.677880057115999e-13
  endloop
endfacet
facet normal 5.499895363969097e-15 -4.935958772059465e-16 -1.0
  outer loop
    vertex 254.45201508420934 18.957474725082225 1.677880057115999e-13
    vertex 254.45201508420934 84.04508901516931 9.164891068280667e-14
    vertex 254.81537540167528 83.50128187012571 9.164891068280667e-14
  endloop
endfacet
facet normal 5.499895363969097e-15 -4.935958772059465e-16 -1.0
  outer loop
    vertex 254.45201508420934 18.957474725082225 1.677880057115999e-13
    vertex 254.81537540167528 83.50128187012571 9.164891068280667e-14
    vertex 254.81537540167528 19.501281870125826 1.677880057115999e-13
  endloop
endfacet
facet normal 5.499895363969097e-15 -4.935958772059465e-16 -1.0
  outer loop
    vertex 254.81537540167528 19.501281870125826 1.677880057115999e-13
    vertex 254.81537540167528 83.50128187012571 9.164891068280667e-14
    vertex 255.10464604530955 82.91469903195116 9.164891068280667e-14
  endloop
endfacet
facet normal 5.499895363969097e-15 -4.935958772059465e-16 -1.0
  outer loop
    vertex 254.81537540167528 19.501281870125826 1.677880057115999e-13
    vertex 255.10464604530955 82.91469903195116 9.164891068280667e-14
    vertex 255.10464604530955 20.087864708300376 1.734279386766957e-13
  endloop
endfacet
facet normal 5.499895363969097e-15 -4.935958772059465e-16 -1.0
  outer loop
    vertex 255.10464604530955 20.087864708300376 1.734279386766957e-13
    vertex 255.10464604530955 82.91469903195116 9.164891068280667e-14
    vertex 255.31487751419846 82.29537709563832 9.164891068280667e-14
  endloop
endfacet
facet normal 5.499895363969097e-15 -4.935958772059465e-16 -1.0
  outer loop
    vertex 255.10464604530955 20.087864708300376 1.734279386766957e-13
    vertex 255.31487751419846 82.29537709563832 9.164891068280667e-14
    vertex 255.31487751419846 20.70718664461322 1.734279386766957e-13
  endloop
endfacet
facet normal 5.499895363969097e-15 -4.935958772059465e-16 -1.0
  outer loop
    vertex 255.31487751419846 20.70718664461322 1.734279386766957e-13
    vertex 255.31487751419846 82.29537709563832 9.164891068280667e-14
    vertex 255.44247268962218 81.65391283122597 9.728884364790246e-14
  endloop
endfacet
facet normal 5.499895363969097e-15 -4.935958772059465e-16 -1.0
  outer loop
    vertex 255.31487751419846 20.70718664461322 1.734279386766957e-13
    vertex 255.44247268962218 81.65391283122597 9.728884364790246e-14
    vertex 255.44247268962218 21.348650909025565 1.734279386766957e-13
  endloop
endfacet
facet normal 5.499895363969097e-15 -4.935958772059465e-16 -1.0
  outer loop
    vertex 255.44247268962218 21.348650909025565 1.734279386766957e-13
    vertex 255.44247268962218 81.65391283122597 9.728884364790246e-14
    vertex 255.48524838275313 81.0012818701257 9.728884364790246e-14
  endloop
endfacet
facet normal 5.499895363969097e-15 -4.935958772059465e-16 -1.0
  outer loop
    vertex 255.44247268962218 21.348650909025565 1.734279386766957e-13
    vertex 255.48524838275313 81.0012818701257 9.728884364790246e-14
    vertex 255.48524838275313 22.001281870125823 1.734279386766957e-13
  endloop
endfacet
facet normal 2.5027202532612413e-14 2.427020333340038e-16 1.0
  outer loop
    vertex 231.48524838275293 22.001281870125823 8.999999999999957
    vertex 229.48524838275293 81.00128187012571 8.999999999999993
    vertex 229.48524838275293 22.001281870125823 8.999999999999968
  endloop
endfacet
facet normal 2.5027202532612413e-14 2.427020333340038e-16 1.0
  outer loop
    vertex 229.48524838275293 81.00128187012571 8.999999999999993
    vertex 231.48524838275293 22.001281870125823 8.999999999999957
    vertex 231.48524838275313 81.00128187012571 8.999999999999902
  endloop
endfacet
facet normal -0.9978589232386031 0.06540312923014788 -7.072349300668165e-20
  outer loop
    vertex 229.4852483827525 81.00128187012575 95.99999999999999
    vertex 229.48524838275293 81.00128187012571 4.229949723821846e-15
    vertex 229.48524838275293 81.00128187012571 8.999999999999993
  endloop
endfacet
facet normal -0.9978589232386031 0.06540312923014788 -7.072349300668165e-20
  outer loop
    vertex 229.48524838275293 81.00128187012571 4.229949723821846e-15
    vertex 229.4852483827525 81.00128187012575 95.99999999999999
    vertex 229.5280240758839 81.65391283122597 4.229949723821846e-15
  endloop
endfacet
facet normal -0.9914448613738099 0.1305261922200557 -1.628765422291255e-15
  outer loop
    vertex 229.5280240758839 81.65391283122597 4.229949723821846e-15
    vertex 229.4852483827525 81.00128187012575 95.99999999999999
    vertex 229.52802407588345 81.65391283122601 95.99999999999999
  endloop
endfacet
facet normal 0.0 1.0 0.0
  outer loop
    vertex 229.48524838275293 22.001281870125823 8.999999999999968
    vertex 231.48524838275247 22.001281870125865 95.99999999999994
    vertex 231.48524838275293 22.001281870125823 8.999999999999957
  endloop
endfacet
facet normal 0.0 1.0 0.0
  outer loop
    vertex 231.48524838275247 22.001281870125865 95.99999999999994
    vertex 229.48524838275293 22.001281870125823 8.999999999999968
    vertex 229.4852483827525 22.001281870125865 95.99999999999996
  endloop
endfacet
facet normal 0.0 -1.0 0.0
  outer loop
    vertex 231.48524838275267 81.00128187012575 95.99999999999989
    vertex 229.48524838275293 81.00128187012571 8.999999999999993
    vertex 231.48524838275313 81.00128187012571 8.999999999999902
  endloop
endfacet
facet normal 0.0 -1.0 0.0
  outer loop
    vertex 229.48524838275293 81.00128187012571 8.999999999999993
    vertex 231.48524838275267 81.00128187012575 95.99999999999989
    vertex 229.4852483827525 81.00128187012575 95.99999999999999
  endloop
endfacet
facet normal -0.7071067811865467 0.7071067811865482 -2.3103252276071998e-15
  outer loop
    vertex 230.9497144768198 84.53681577605849 96.0
    vertex 231.44144123770934 84.96804857158189 9.86988268891764e-15
    vertex 230.94971447682022 84.53681577605845 9.86988268891764e-15
  endloop
endfacet
facet normal -0.6087614290087241 0.7933533402912325 -1.9782013329161847e-15
  outer loop
    vertex 231.44144123770934 84.96804857158189 9.86988268891764e-15
    vertex 230.9497144768198 84.53681577605849 96.0
    vertex 231.4414412377089 84.96804857158193 96.0
  endloop
endfacet
facet normal -0.9659258262890675 0.25881904510252396 -3.197336974876219e-15
  outer loop
    vertex 229.65561925130714 82.29537709563836 95.99999999999999
    vertex 229.8658507201965 82.91469903195116 4.229949723821846e-15
    vertex 229.6556192513076 82.29537709563832 4.229949723821846e-15
  endloop
endfacet
facet normal -0.9238795325112894 0.38268343236508345 -3.0502516854458842e-15
  outer loop
    vertex 229.8658507201965 82.91469903195116 4.229949723821846e-15
    vertex 229.65561925130714 82.29537709563836 95.99999999999999
    vertex 229.86585072019605 82.9146990319512 95.99999999999999
  endloop
endfacet
facet normal -0.9238795325112894 0.3826834323650833 -3.0502516854458834e-15
  outer loop
    vertex 229.86585072019605 82.9146990319512 95.99999999999999
    vertex 230.15512136383072 83.50128187012571 4.229949723821846e-15
    vertex 229.8658507201965 82.91469903195116 4.229949723821846e-15
  endloop
endfacet
facet normal -0.866025403784444 0.4999999999999907 -2.8509757439880315e-15
  outer loop
    vertex 230.15512136383072 83.50128187012571 4.229949723821846e-15
    vertex 229.86585072019605 82.9146990319512 95.99999999999999
    vertex 230.15512136383026 83.50128187012575 95.99999999999999
  endloop
endfacet
facet normal -0.7933533402912318 0.6087614290087251 -2.6029188171106963e-15
  outer loop
    vertex 230.51848168129632 84.04508901516935 95.99999999999999
    vertex 230.94971447682022 84.53681577605845 9.86988268891764e-15
    vertex 230.51848168129678 84.04508901516931 4.229949723821846e-15
  endloop
endfacet
facet normal -0.7071067811865469 0.707106781186548 -2.3103252276072014e-15
  outer loop
    vertex 230.94971447682022 84.53681577605845 9.86988268891764e-15
    vertex 230.51848168129632 84.04508901516935 95.99999999999999
    vertex 230.9497144768198 84.53681577605849 96.0
  endloop
endfacet
facet normal -0.9914448613738099 0.13052619222005568 -1.6287654222912547e-15
  outer loop
    vertex 229.52802407588345 81.65391283122601 95.99999999999999
    vertex 229.6556192513076 82.29537709563832 4.229949723821846e-15
    vertex 229.5280240758839 81.65391283122597 4.229949723821846e-15
  endloop
endfacet
facet normal -0.9659258262890674 0.258819045102524 -3.197336974876218e-15
  outer loop
    vertex 229.6556192513076 82.29537709563832 4.229949723821846e-15
    vertex 229.52802407588345 81.65391283122601 95.99999999999999
    vertex 229.65561925130714 82.29537709563836 95.99999999999999
  endloop
endfacet
facet normal -0.8660254037844441 0.49999999999999056 -2.850975743988032e-15
  outer loop
    vertex 230.15512136383026 83.50128187012575 95.99999999999999
    vertex 230.51848168129678 84.04508901516931 4.229949723821846e-15
    vertex 230.15512136383072 83.50128187012571 4.229949723821846e-15
  endloop
endfacet
facet normal -0.7933533402912321 0.6087614290087249 -2.602918817110696e-15
  outer loop
    vertex 230.51848168129678 84.04508901516931 4.229949723821846e-15
    vertex 230.15512136383026 83.50128187012575 95.99999999999999
    vertex 230.51848168129632 84.04508901516935 95.99999999999999
  endloop
endfacet
facet normal 0.0 0.0 1.0
  outer loop
    vertex 243.48524838275293 28.00128187012575 31.499999999999915
    vertex 241.48524838275293 76.50128187012575 31.499999999999915
    vertex 241.48524838275293 28.00128187012575 31.499999999999915
  endloop
endfacet
facet normal 0.0 0.0 1.0
  outer loop
    vertex 241.48524838275293 76.50128187012575 31.499999999999915
    vertex 243.48524838275293 28.00128187012575 31.499999999999915
    vertex 243.48524838275293 76.50128187012575 31.499999999999915
  endloop
endfacet
facet normal -0.0 -1.0 -0.0
  outer loop
    vertex 243.48524838275293 76.50128187012575 41.499999999999915
    vertex 241.48524838275293 76.50128187012575 31.499999999999915
    vertex 243.48524838275293 76.50128187012575 31.499999999999915
  endloop
endfacet
facet normal -0.0 -1.0 -0.0
  outer loop
    vertex 241.48524838275293 76.50128187012575 31.499999999999915
    vertex 243.48524838275293 76.50128187012575 41.499999999999915
    vertex 241.48524838275293 76.50128187012575 41.499999999999915
  endloop
endfacet
facet normal 1.0 0.0 0.0
  outer loop
    vertex 241.48524838275293 76.50128187012575 31.499999999999915
    vertex 241.48524838275293 28.00128187012575 41.499999999999915
    vertex 241.48524838275293 28.00128187012575 31.499999999999915
  endloop
endfacet
facet normal 1.0 0.0 0.0
  outer loop
    vertex 241.48524838275293 28.00128187012575 41.499999999999915
    vertex 241.48524838275293 76.50128187012575 31.499999999999915
    vertex 241.48524838275293 76.50128187012575 41.499999999999915
  endloop
endfacet
facet normal 0.0 1.0 0.0
  outer loop
    vertex 241.48524838275293 28.00128187012575 41.499999999999915
    vertex 243.48524838275293 28.00128187012575 31.499999999999915
    vertex 241.48524838275293 28.00128187012575 31.499999999999915
  endloop
endfacet
facet normal 0.0 1.0 0.0
  outer loop
    vertex 243.48524838275293 28.00128187012575 31.499999999999915
    vertex 241.48524838275293 28.00128187012575 41.499999999999915
    vertex 243.48524838275293 28.00128187012575 41.499999999999915
  endloop
endfacet
facet normal -1.0 0.0 -0.0
  outer loop
    vertex 243.48524838275293 76.50128187012575 41.499999999999915
    vertex 243.48524838275293 28.00128187012575 31.499999999999915
    vertex 243.48524838275293 28.00128187012575 41.499999999999915
  endloop
endfacet
facet normal -1.0 0.0 -0.0
  outer loop
    vertex 243.48524838275293 28.00128187012575 31.499999999999915
    vertex 243.48524838275293 76.50128187012575 41.499999999999915
    vertex 243.48524838275293 76.50128187012575 31.499999999999915
  endloop
endfacet
facet normal 0.0 0.0 1.0
  outer loop
    vertex 239.48524838275293 26.001281870125755 41.499999999999915
    vertex 241.48524838275293 28.00128187012575 41.499999999999915
    vertex 239.48524838275293 78.50128187012575 41.499999999999915
  endloop
endfacet
facet normal 0.0 0.0 1.0
  outer loop
    vertex 241.48524838275293 28.00128187012575 41.499999999999915
    vertex 239.48524838275293 26.001281870125755 41.499999999999915
    vertex 245.4852483827529 26.001281870125755 41.499999999999915
  endloop
endfacet
facet normal 0.0 0.0 1.0
  outer loop
    vertex 241.48524838275293 28.00128187012575 41.499999999999915
    vertex 245.4852483827529 26.001281870125755 41.499999999999915
    vertex 243.48524838275293 28.00128187012575 41.499999999999915
  endloop
endfacet
facet normal 0.0 0.0 1.0
  outer loop
    vertex 243.48524838275293 28.00128187012575 41.499999999999915
    vertex 245.4852483827529 26.001281870125755 41.499999999999915
    vertex 243.48524838275293 76.50128187012575 41.499999999999915
  endloop
endfacet
facet normal 0.0 0.0 1.0
  outer loop
    vertex 239.48524838275293 78.50128187012575 41.499999999999915
    vertex 241.48524838275293 76.50128187012575 41.499999999999915
    vertex 245.4852483827529 78.50128187012575 41.499999999999915
  endloop
endfacet
facet normal 0.0 0.0 1.0
  outer loop
    vertex 241.48524838275293 76.50128187012575 41.499999999999915
    vertex 239.48524838275293 78.50128187012575 41.499999999999915
    vertex 241.48524838275293 28.00128187012575 41.499999999999915
  endloop
endfacet
facet normal 0.0 0.0 1.0
  outer loop
    vertex 245.4852483827529 78.50128187012575 41.499999999999915
    vertex 241.48524838275293 76.50128187012575 41.499999999999915
    vertex 243.48524838275293 76.50128187012575 41.499999999999915
  endloop
endfacet
facet normal 0.0 0.0 1.0
  outer loop
    vertex 245.4852483827529 78.50128187012575 41.499999999999915
    vertex 243.48524838275293 76.50128187012575 41.499999999999915
    vertex 245.4852483827529 26.001281870125755 41.499999999999915
  endloop
endfacet
facet normal 4.699944137579838e-16 -1.0 0.0
  outer loop
    vertex 245.4852483827529 26.001281870125755 41.499999999999915
    vertex 239.48524838275293 26.001281870125755 1.4999999999999196
    vertex 245.4852483827529 26.001281870125755 1.4999999999999196
  endloop
endfacet
facet normal 4.699944137579838e-16 -1.0 0.0
  outer loop
    vertex 239.48524838275293 26.001281870125755 1.4999999999999196
    vertex 245.4852483827529 26.001281870125755 41.499999999999915
    vertex 239.48524838275293 26.001281870125755 41.499999999999915
  endloop
endfacet
facet normal 1.0 -0.0 0.0
  outer loop
    vertex 245.4852483827529 78.50128187012575 1.4999999999999196
    vertex 245.4852483827529 26.001281870125755 41.499999999999915
    vertex 245.4852483827529 26.001281870125755 1.4999999999999196
  endloop
endfacet
facet normal 1.0 -0.0 0.0
  outer loop
    vertex 245.4852483827529 26.001281870125755 41.499999999999915
    vertex 245.4852483827529 78.50128187012575 1.4999999999999196
    vertex 245.4852483827529 78.50128187012575 41.499999999999915
  endloop
endfacet
facet normal 0.0 1.0 0.0
  outer loop
    vertex 239.48524838275293 78.50128187012575 41.499999999999915
    vertex 245.4852483827529 78.50128187012575 1.4999999999999196
    vertex 239.48524838275293 78.50128187012575 1.4999999999999196
  endloop
endfacet
facet normal 0.0 1.0 0.0
  outer loop
    vertex 245.4852483827529 78.50128187012575 1.4999999999999196
    vertex 239.48524838275293 78.50128187012575 41.499999999999915
    vertex 245.4852483827529 78.50128187012575 41.499999999999915
  endloop
endfacet
facet normal -1.0 -0.0 -0.0
  outer loop
    vertex 239.48524838275293 78.50128187012575 41.499999999999915
    vertex 239.48524838275293 26.001281870125755 1.4999999999999196
    vertex 239.48524838275293 26.001281870125755 41.499999999999915
  endloop
endfacet
facet normal -1.0 -0.0 -0.0
  outer loop
    vertex 239.48524838275293 26.001281870125755 1.4999999999999196
    vertex 239.48524838275293 78.50128187012575 41.499999999999915
    vertex 239.48524838275293 78.50128187012575 1.4999999999999196
  endloop
endfacet
facet normal -1.0602947950257973e-29 1.0 7.519910620127741e-15
  outer loop
    vertex 234.48524838275247 84.75128187012575 96.0
    vertex 250.48524838275267 84.75128187012591 81.50000000000006
    vertex 234.48524838275247 84.75128187012591 81.50000000000003
  endloop
endfacet
facet normal -1.0602947950257973e-29 1.0 7.519910620127741e-15
  outer loop
    vertex 250.48524838275267 84.75128187012591 81.50000000000006
    vertex 234.48524838275247 84.75128187012575 96.0
    vertex 250.48524838275267 84.75128187012575 96.00000000000003
  endloop
endfacet
facet normal -5.792002188738353e-15 6.257249164174051e-16 1.0
  outer loop
    vertex 229.52802407588345 21.348650909025608 95.99999999999996
    vertex 231.48524838275247 22.001281870125865 95.99999999999994
    vertex 229.4852483827525 22.001281870125865 95.99999999999996
  endloop
endfacet
facet normal -5.792002188738353e-15 6.257249164174051e-16 1.0
  outer loop
    vertex 231.48524838275247 22.001281870125865 95.99999999999994
    vertex 229.52802407588345 21.348650909025608 95.99999999999996
    vertex 229.65561925130714 20.707186644613262 95.99999999999996
  endloop
endfacet
facet normal -5.792002188738353e-15 6.257249164174051e-16 1.0
  outer loop
    vertex 231.48524838275247 22.001281870125865 95.99999999999994
    vertex 229.65561925130714 20.707186644613262 95.99999999999996
    vertex 229.86585072019605 20.08786470830042 95.99999999999997
  endloop
endfacet
facet normal -5.792002188738353e-15 6.257249164174051e-16 1.0
  outer loop
    vertex 231.48524838275247 22.001281870125865 95.99999999999994
    vertex 229.86585072019605 20.08786470830042 95.99999999999997
    vertex 230.15512136383026 19.50128187012587 95.99999999999997
  endloop
endfacet
facet normal -5.792002188738353e-15 6.257249164174051e-16 1.0
  outer loop
    vertex 231.48524838275247 22.001281870125865 95.99999999999994
    vertex 230.15512136383026 19.50128187012587 95.99999999999997
    vertex 230.51848168129632 18.957474725082267 95.99999999999999
  endloop
endfacet
facet normal -5.792002188738353e-15 6.257249164174051e-16 1.0
  outer loop
    vertex 231.48524838275247 22.001281870125865 95.99999999999994
    vertex 230.51848168129632 18.957474725082267 95.99999999999999
    vertex 230.9497144768198 18.465747964193135 95.99999999999999
  endloop
endfacet
facet normal -5.792002188738353e-15 6.257249164174051e-16 1.0
  outer loop
    vertex 231.48524838275247 22.001281870125865 95.99999999999994
    vertex 230.9497144768198 18.465747964193135 95.99999999999999
    vertex 231.4414412377089 18.034515168669696 95.99999999999999
  endloop
endfacet
facet normal -5.792002188738353e-15 6.257249164174051e-16 1.0
  outer loop
    vertex 231.48524838275247 22.001281870125865 95.99999999999994
    vertex 231.4414412377089 18.034515168669696 95.99999999999999
    vertex 231.48524838275247 19.001281870125865 95.99999999999994
  endloop
endfacet
facet normal -5.792002188738353e-15 6.257249164174051e-16 1.0
  outer loop
    vertex 251.13787934385294 17.04405756325682 96.00000000000013
    vertex 250.48524838275267 18.251281870125876 96.00000000000011
    vertex 250.48524838275267 17.001281870125876 96.00000000000013
  endloop
endfacet
facet normal -5.792002188738353e-15 6.257249164174051e-16 1.0
  outer loop
    vertex 231.9852483827525 17.67115485120368 96.0
    vertex 231.48524838275247 19.001281870125865 95.99999999999994
    vertex 231.4414412377089 18.034515168669696 95.99999999999999
  endloop
endfacet
facet normal -5.792002188738353e-15 6.257249164174051e-16 1.0
  outer loop
    vertex 231.48524838275247 19.001281870125865 95.99999999999994
    vertex 231.9852483827525 17.67115485120368 96.0
    vertex 234.48524838275267 18.251281870125876 96.00000000000011
  endloop
endfacet
facet normal -5.792002188738353e-15 6.257249164174051e-16 1.0
  outer loop
    vertex 231.48524838275247 19.001281870125865 95.99999999999994
    vertex 234.48524838275267 18.251281870125876 96.00000000000011
    vertex 253.4852483827523 19.00128187012577 96.00000000000014
  endloop
endfacet
facet normal -5.792002188738353e-15 6.257249164174051e-16 1.0
  outer loop
    vertex 234.48524838275267 18.251281870125876 96.00000000000011
    vertex 231.9852483827525 17.67115485120368 96.0
    vertex 232.57183122092707 17.381884207569442 96.0
  endloop
endfacet
facet normal -5.792002188738353e-15 6.257249164174051e-16 1.0
  outer loop
    vertex 234.48524838275267 18.251281870125876 96.00000000000011
    vertex 232.57183122092707 17.381884207569442 96.0
    vertex 233.1911531572399 17.17165273868053 96.0
  endloop
endfacet
facet normal -5.792002188738353e-15 6.257249164174051e-16 1.0
  outer loop
    vertex 234.48524838275267 18.251281870125876 96.00000000000011
    vertex 233.1911531572399 17.17165273868053 96.0
    vertex 233.8326174216522 17.04405756325682 96.0
  endloop
endfacet
facet normal -5.792002188738353e-15 6.257249164174051e-16 1.0
  outer loop
    vertex 234.48524838275267 18.251281870125876 96.00000000000011
    vertex 233.8326174216522 17.04405756325682 96.0
    vertex 234.48524838275247 17.001281870125876 96.00000000000001
  endloop
endfacet
facet normal -5.792002188738353e-15 6.257249164174051e-16 1.0
  outer loop
    vertex 253.4852483827523 19.00128187012577 96.00000000000014
    vertex 234.48524838275267 18.251281870125876 96.00000000000011
    vertex 250.48524838275267 18.251281870125876 96.00000000000011
  endloop
endfacet
facet normal -5.792002188738353e-15 6.257249164174051e-16 1.0
  outer loop
    vertex 253.4852483827523 19.00128187012577 96.00000000000014
    vertex 250.48524838275267 18.251281870125876 96.00000000000011
    vertex 251.13787934385294 17.04405756325682 96.00000000000013
  endloop
endfacet
facet normal -5.792002188738353e-15 6.257249164174051e-16 1.0
  outer loop
    vertex 253.4852483827523 19.00128187012577 96.00000000000014
    vertex 251.13787934385294 17.04405756325682 96.00000000000013
    vertex 251.7793436082653 17.17165273868053 96.00000000000014
  endloop
endfacet
facet normal -5.792002188738353e-15 6.257249164174051e-16 1.0
  outer loop
    vertex 253.4852483827523 19.00128187012577 96.00000000000014
    vertex 251.7793436082653 17.17165273868053 96.00000000000014
    vertex 252.39866554457814 17.381884207569442 96.00000000000014
  endloop
endfacet
facet normal -5.792002188738353e-15 6.257249164174051e-16 1.0
  outer loop
    vertex 253.4852483827523 19.00128187012577 96.00000000000014
    vertex 252.39866554457814 17.381884207569442 96.00000000000014
    vertex 252.9852483827527 17.67115485120368 96.00000000000014
  endloop
endfacet
facet normal -5.792002188738353e-15 6.257249164174051e-16 1.0
  outer loop
    vertex 253.4852483827523 19.00128187012577 96.00000000000014
    vertex 252.9852483827527 17.67115485120368 96.00000000000014
    vertex 253.5290555277963 18.034515168669696 96.00000000000014
  endloop
endfacet
facet normal -5.792002188738353e-15 6.257249164174051e-16 1.0
  outer loop
    vertex 253.4852483827523 19.00128187012577 96.00000000000014
    vertex 253.5290555277963 18.034515168669696 96.00000000000014
    vertex 253.48524838275267 84.00128187012575 96.00000000000009
  endloop
endfacet
facet normal -5.792002188738353e-15 6.257249164174051e-16 1.0
  outer loop
    vertex 231.48524838275267 81.00128187012575 95.99999999999989
    vertex 229.52802407588345 81.65391283122601 95.99999999999999
    vertex 229.4852483827525 81.00128187012575 95.99999999999999
  endloop
endfacet
facet normal -5.792002188738353e-15 6.257249164174051e-16 1.0
  outer loop
    vertex 229.52802407588345 81.65391283122601 95.99999999999999
    vertex 231.48524838275267 81.00128187012575 95.99999999999989
    vertex 229.65561925130714 82.29537709563836 95.99999999999999
  endloop
endfacet
facet normal -5.792002188738353e-15 6.257249164174051e-16 1.0
  outer loop
    vertex 229.65561925130714 82.29537709563836 95.99999999999999
    vertex 231.48524838275267 81.00128187012575 95.99999999999989
    vertex 229.86585072019605 82.9146990319512 95.99999999999999
  endloop
endfacet
facet normal -5.792002188738353e-15 6.257249164174051e-16 1.0
  outer loop
    vertex 229.86585072019605 82.9146990319512 95.99999999999999
    vertex 231.48524838275267 81.00128187012575 95.99999999999989
    vertex 230.15512136383026 83.50128187012575 95.99999999999999
  endloop
endfacet
facet normal -5.792002188738353e-15 6.257249164174051e-16 1.0
  outer loop
    vertex 230.15512136383026 83.50128187012575 95.99999999999999
    vertex 231.48524838275267 81.00128187012575 95.99999999999989
    vertex 230.51848168129632 84.04508901516935 95.99999999999999
  endloop
endfacet
facet normal -5.792002188738353e-15 6.257249164174051e-16 1.0
  outer loop
    vertex 230.51848168129632 84.04508901516935 95.99999999999999
    vertex 231.48524838275267 81.00128187012575 95.99999999999989
    vertex 230.9497144768198 84.53681577605849 96.0
  endloop
endfacet
facet normal -5.792002188738353e-15 6.257249164174051e-16 1.0
  outer loop
    vertex 230.9497144768198 84.53681577605849 96.0
    vertex 231.48524838275267 81.00128187012575 95.99999999999989
    vertex 231.4414412377089 84.96804857158193 96.0
  endloop
endfacet
facet normal -5.792002188738353e-15 6.257249164174051e-16 1.0
  outer loop
    vertex 231.4414412377089 84.96804857158193 96.0
    vertex 231.48524838275267 81.00128187012575 95.99999999999989
    vertex 231.48524838275267 84.00128187012575 95.99999999999989
  endloop
endfacet
facet normal -5.792002188738353e-15 6.257249164174051e-16 1.0
  outer loop
    vertex 231.4414412377089 84.96804857158193 96.0
    vertex 231.48524838275267 84.00128187012575 95.99999999999989
    vertex 231.9852483827525 85.33140888904795 96.0
  endloop
endfacet
facet normal -5.792002188738353e-15 6.257249164174051e-16 1.0
  outer loop
    vertex 231.9852483827525 85.33140888904795 96.0
    vertex 231.48524838275267 84.00128187012575 95.99999999999989
    vertex 234.48524838275247 84.75128187012575 96.0
  endloop
endfacet
facet normal -5.792002188738353e-15 6.257249164174051e-16 1.0
  outer loop
    vertex 234.48524838275247 84.75128187012575 96.0
    vertex 231.48524838275267 84.00128187012575 95.99999999999989
    vertex 253.48524838275267 84.00128187012575 96.00000000000009
  endloop
endfacet
facet normal -5.792002188738353e-15 6.257249164174051e-16 1.0
  outer loop
    vertex 231.9852483827525 85.33140888904795 96.0
    vertex 234.48524838275247 84.75128187012575 96.0
    vertex 232.57183122092707 85.62067953268219 96.0
  endloop
endfacet
facet normal -5.792002188738353e-15 6.257249164174051e-16 1.0
  outer loop
    vertex 232.57183122092707 85.62067953268219 96.0
    vertex 234.48524838275247 84.75128187012575 96.0
    vertex 233.1911531572399 85.8309110015711 96.0
  endloop
endfacet
facet normal -5.792002188738353e-15 6.257249164174051e-16 1.0
  outer loop
    vertex 233.1911531572399 85.8309110015711 96.0
    vertex 234.48524838275247 84.75128187012575 96.0
    vertex 233.8326174216522 85.95850617699479 96.0
  endloop
endfacet
facet normal -5.792002188738353e-15 6.257249164174051e-16 1.0
  outer loop
    vertex 234.48524838275247 84.75128187012575 96.0
    vertex 253.48524838275267 84.00128187012575 96.00000000000009
    vertex 250.48524838275267 84.75128187012575 96.00000000000003
  endloop
endfacet
facet normal -5.792002188738353e-15 6.257249164174051e-16 1.0
  outer loop
    vertex 250.48524838275267 84.75128187012575 96.00000000000003
    vertex 253.48524838275267 84.00128187012575 96.00000000000009
    vertex 250.48524838275267 86.00128187012575 96.00000000000006
  endloop
endfacet
facet normal -5.792002188738353e-15 6.257249164174051e-16 1.0
  outer loop
    vertex 250.48524838275267 86.00128187012575 96.00000000000006
    vertex 253.48524838275267 84.00128187012575 96.00000000000009
    vertex 251.13787934385294 85.95850617699479 96.00000000000006
  endloop
endfacet
facet normal -5.792002188738353e-15 6.257249164174051e-16 1.0
  outer loop
    vertex 251.13787934385294 85.95850617699479 96.00000000000006
    vertex 253.48524838275267 84.00128187012575 96.00000000000009
    vertex 251.7793436082653 85.8309110015711 96.00000000000006
  endloop
endfacet
facet normal -5.792002188738353e-15 6.257249164174051e-16 1.0
  outer loop
    vertex 251.7793436082653 85.8309110015711 96.00000000000006
    vertex 253.48524838275267 84.00128187012575 96.00000000000009
    vertex 252.39866554457814 85.62067953268219 96.00000000000007
  endloop
endfacet
facet normal -5.792002188738353e-15 6.257249164174051e-16 1.0
  outer loop
    vertex 252.39866554457814 85.62067953268219 96.00000000000007
    vertex 253.48524838275267 84.00128187012575 96.00000000000009
    vertex 252.9852483827527 85.33140888904795 96.00000000000007
  endloop
endfacet
facet normal -5.792002188738353e-15 6.257249164174051e-16 1.0
  outer loop
    vertex 252.9852483827527 85.33140888904795 96.00000000000007
    vertex 253.48524838275267 84.00128187012575 96.00000000000009
    vertex 253.5290555277963 84.96804857158193 96.00000000000007
  endloop
endfacet
facet normal -5.792002188738353e-15 6.257249164174051e-16 1.0
  outer loop
    vertex 253.5290555277963 84.96804857158193 96.00000000000007
    vertex 253.48524838275267 84.00128187012575 96.00000000000009
    vertex 253.5290555277963 18.034515168669696 96.00000000000014
  endloop
endfacet
facet normal -5.792002188738353e-15 6.257249164174051e-16 1.0
  outer loop
    vertex 253.5290555277963 84.96804857158193 96.00000000000007
    vertex 253.5290555277963 18.034515168669696 96.00000000000014
    vertex 254.0207822886854 18.465747964193135 96.00000000000016
  endloop
endfacet
facet normal -5.792002188738353e-15 6.257249164174051e-16 1.0
  outer loop
    vertex 253.5290555277963 84.96804857158193 96.00000000000007
    vertex 254.0207822886854 18.465747964193135 96.00000000000016
    vertex 254.0207822886854 84.53681577605849 96.00000000000007
  endloop
endfacet
facet normal -5.792002188738353e-15 6.257249164174051e-16 1.0
  outer loop
    vertex 254.0207822886854 84.53681577605849 96.00000000000007
    vertex 254.0207822886854 18.465747964193135 96.00000000000016
    vertex 254.45201508420888 18.957474725082267 96.00000000000016
  endloop
endfacet
facet normal -5.792002188738353e-15 6.257249164174051e-16 1.0
  outer loop
    vertex 254.0207822886854 84.53681577605849 96.00000000000007
    vertex 254.45201508420888 18.957474725082267 96.00000000000016
    vertex 254.45201508420888 84.04508901516935 96.00000000000007
  endloop
endfacet
facet normal -5.792002188738353e-15 6.257249164174051e-16 1.0
  outer loop
    vertex 254.45201508420888 84.04508901516935 96.00000000000007
    vertex 254.45201508420888 18.957474725082267 96.00000000000016
    vertex 254.48524838275267 22.501281870125865 96.00000000000016
  endloop
endfacet
facet normal -5.792002188738353e-15 6.257249164174051e-16 1.0
  outer loop
    vertex 254.48524838275267 22.501281870125865 96.00000000000016
    vertex 254.45201508420888 18.957474725082267 96.00000000000016
    vertex 254.81537540167486 19.50128187012587 96.00000000000016
  endloop
endfacet
facet normal -5.792002188738353e-15 6.257249164174051e-16 1.0
  outer loop
    vertex 254.48524838275267 22.501281870125865 96.00000000000016
    vertex 254.81537540167486 19.50128187012587 96.00000000000016
    vertex 255.48524838275267 22.501281870125865 96.00000000000016
  endloop
endfacet
facet normal -5.792002188738353e-15 6.257249164174051e-16 1.0
  outer loop
    vertex 255.48524838275267 22.501281870125865 96.00000000000016
    vertex 254.81537540167486 19.50128187012587 96.00000000000016
    vertex 255.1046460453091 20.08786470830042 96.00000000000016
  endloop
endfacet
facet normal -5.792002188738353e-15 6.257249164174051e-16 1.0
  outer loop
    vertex 255.48524838275267 22.501281870125865 96.00000000000016
    vertex 255.1046460453091 20.08786470830042 96.00000000000016
    vertex 255.314877514198 20.707186644613262 96.00000000000016
  endloop
endfacet
facet normal -5.792002188738353e-15 6.257249164174051e-16 1.0
  outer loop
    vertex 255.48524838275267 22.501281870125865 96.00000000000016
    vertex 255.314877514198 20.707186644613262 96.00000000000016
    vertex 255.44247268962175 21.348650909025608 96.00000000000016
  endloop
endfacet
facet normal -5.792002188738353e-15 6.257249164174051e-16 1.0
  outer loop
    vertex 255.48524838275267 22.501281870125865 96.00000000000016
    vertex 255.44247268962175 21.348650909025608 96.00000000000016
    vertex 255.48524838275267 22.001281870125865 96.00000000000016
  endloop
endfacet
facet normal -5.792002188738353e-15 6.257249164174051e-16 1.0
  outer loop
    vertex 254.45201508420888 84.04508901516935 96.00000000000007
    vertex 254.48524838275267 80.50128187012585 96.00000000000016
    vertex 254.81537540167486 83.50128187012575 96.00000000000007
  endloop
endfacet
facet normal -5.792002188738353e-15 6.257249164174051e-16 1.0
  outer loop
    vertex 254.48524838275267 80.50128187012585 96.00000000000016
    vertex 254.45201508420888 84.04508901516935 96.00000000000007
    vertex 254.48524838275267 22.501281870125865 96.00000000000016
  endloop
endfacet
facet normal -5.792002188738353e-15 6.257249164174051e-16 1.0
  outer loop
    vertex 254.81537540167486 83.50128187012575 96.00000000000007
    vertex 254.48524838275267 80.50128187012585 96.00000000000016
    vertex 255.48524838275267 80.50128187012574 96.00000000000009
  endloop
endfacet
facet normal -5.792002188738353e-15 6.257249164174051e-16 1.0
  outer loop
    vertex 254.81537540167486 83.50128187012575 96.00000000000007
    vertex 255.48524838275267 80.50128187012574 96.00000000000009
    vertex 255.1046460453091 82.9146990319512 96.00000000000007
  endloop
endfacet
facet normal -5.792002188738353e-15 6.257249164174051e-16 1.0
  outer loop
    vertex 255.1046460453091 82.9146990319512 96.00000000000007
    vertex 255.48524838275267 80.50128187012574 96.00000000000009
    vertex 255.314877514198 82.29537709563836 96.00000000000007
  endloop
endfacet
facet normal -5.792002188738353e-15 6.257249164174051e-16 1.0
  outer loop
    vertex 255.314877514198 82.29537709563836 96.00000000000007
    vertex 255.48524838275267 80.50128187012574 96.00000000000009
    vertex 255.44247268962175 81.65391283122601 96.00000000000009
  endloop
endfacet
facet normal -5.792002188738353e-15 6.257249164174051e-16 1.0
  outer loop
    vertex 255.44247268962175 81.65391283122601 96.00000000000009
    vertex 255.48524838275267 80.50128187012574 96.00000000000009
    vertex 255.48524838275267 81.00128187012574 96.00000000000009
  endloop
endfacet
facet normal -5.792002188738353e-15 6.257249164174051e-16 1.0
  outer loop
    vertex 234.48524838275247 86.00128187012575 96.0
    vertex 233.8326174216522 85.95850617699479 96.0
    vertex 234.48524838275247 84.75128187012575 96.0
  endloop
endfacet
facet normal -3.5249581031848677e-15 -3.7599553100638416e-14 1.0
  outer loop
    vertex 250.48524838275267 17.00128187012637 81.50000000000016
    vertex 234.48524838275267 18.25128187012637 81.50000000000014
    vertex 234.48524838275247 17.00128187012637 81.50000000000004
  endloop
endfacet
facet normal -3.5249581031848677e-15 -3.7599553100638416e-14 1.0
  outer loop
    vertex 234.48524838275267 18.25128187012637 81.50000000000014
    vertex 250.48524838275267 17.00128187012637 81.50000000000016
    vertex 250.48524838275267 18.25128187012637 81.50000000000014
  endloop
endfacet
facet normal -1.0 0.0 -3.524958103184868e-15
  outer loop
    vertex 250.48524838275267 18.251281870125876 96.00000000000011
    vertex 250.48524838275267 17.00128187012637 81.50000000000016
    vertex 250.48524838275267 17.001281870125876 96.00000000000013
  endloop
endfacet
facet normal -1.0 0.0 -3.524958103184868e-15
  outer loop
    vertex 250.48524838275267 17.00128187012637 81.50000000000016
    vertex 250.48524838275267 18.251281870125876 96.00000000000011
    vertex 250.48524838275267 18.25128187012637 81.50000000000014
  endloop
endfacet
facet normal -0.0 -1.0 -3.7599553100638416e-14
  outer loop
    vertex 250.48524838275267 18.251281870125876 96.00000000000011
    vertex 234.48524838275267 18.25128187012637 81.50000000000014
    vertex 250.48524838275267 18.25128187012637 81.50000000000014
  endloop
endfacet
facet normal -0.0 -1.0 -3.7599553100638416e-14
  outer loop
    vertex 234.48524838275267 18.25128187012637 81.50000000000014
    vertex 250.48524838275267 18.251281870125876 96.00000000000011
    vertex 234.48524838275267 18.251281870125876 96.00000000000011
  endloop
endfacet
facet normal 1.0 -1.203185699220439e-13 3.5249581031803443e-15
  outer loop
    vertex 234.48524838275247 17.00128187012637 81.50000000000004
    vertex 234.48524838275267 18.251281870125876 96.00000000000011
    vertex 234.48524838275247 17.001281870125876 96.00000000000001
  endloop
endfacet
facet normal 1.0 -1.203185699220439e-13 3.5249581031803443e-15
  outer loop
    vertex 234.48524838275267 18.251281870125876 96.00000000000011
    vertex 234.48524838275247 17.00128187012637 81.50000000000004
    vertex 234.48524838275267 18.25128187012637 81.50000000000014
  endloop
endfacet
facet normal 3.383959779057487e-14 5.834413412168063e-16 1.0
  outer loop
    vertex 255.4852483827532 22.501281870125872 110.50000000000016
    vertex 254.4852483827532 80.50128187012587 110.50000000000016
    vertex 254.4852483827532 22.501281870125872 110.50000000000016
  endloop
endfacet
facet normal 3.383959779057487e-14 5.834413412168063e-16 1.0
  outer loop
    vertex 254.4852483827532 80.50128187012587 110.50000000000016
    vertex 255.4852483827532 22.501281870125872 110.50000000000016
    vertex 255.4852483827532 80.50128187012575 110.50000000000009
  endloop
endfacet
facet normal 1.1279865930191607e-13 1.0 -5.834413412206234e-16
  outer loop
    vertex 254.48524838275267 80.50128187012585 96.00000000000016
    vertex 255.4852483827532 80.50128187012575 110.50000000000009
    vertex 255.48524838275267 80.50128187012574 96.00000000000009
  endloop
endfacet
facet normal 1.1279865930191607e-13 1.0 -5.834413412206234e-16
  outer loop
    vertex 255.4852483827532 80.50128187012575 110.50000000000009
    vertex 254.48524838275267 80.50128187012585 96.00000000000016
    vertex 254.4852483827532 80.50128187012587 110.50000000000016
  endloop
endfacet
facet normal -1.0 0.0 3.3839597790574874e-14
  outer loop
    vertex 254.4852483827532 22.501281870125872 110.50000000000016
    vertex 254.48524838275267 80.50128187012585 96.00000000000016
    vertex 254.48524838275267 22.501281870125865 96.00000000000016
  endloop
endfacet
facet normal -1.0 0.0 3.3839597790574874e-14
  outer loop
    vertex 254.48524838275267 80.50128187012585 96.00000000000016
    vertex 254.4852483827532 22.501281870125872 110.50000000000016
    vertex 254.4852483827532 80.50128187012587 110.50000000000016
  endloop
endfacet
facet normal 0.0 -1.0 5.834413412168063e-16
  outer loop
    vertex 255.4852483827532 22.501281870125872 110.50000000000016
    vertex 254.48524838275267 22.501281870125865 96.00000000000016
    vertex 255.48524838275267 22.501281870125865 96.00000000000016
  endloop
endfacet
facet normal 0.0 -1.0 5.834413412168063e-16
  outer loop
    vertex 254.48524838275267 22.501281870125865 96.00000000000016
    vertex 255.4852483827532 22.501281870125872 110.50000000000016
    vertex 254.4852483827532 22.501281870125872 110.50000000000016
  endloop
endfacet
facet normal 3.930862369612256e-15 1.0 -1.8026368021350673e-15
  outer loop
    vertex 231.48524838275247 19.001281870125865 95.99999999999994
    vertex 253.48524838275276 19.001281870125723 1.5000000000002076
    vertex 231.48524838275276 19.001281870125805 1.4999999999999645
  endloop
endfacet
facet normal 3.930862369612256e-15 1.0 -1.8026368021350673e-15
  outer loop
    vertex 253.48524838275276 19.001281870125723 1.5000000000002076
    vertex 231.48524838275247 19.001281870125865 95.99999999999994
    vertex 253.4852483827523 19.00128187012577 96.00000000000014
  endloop
endfacet
facet normal -2.2968762190641117e-18 1.0 -2.67860497188992e-15
  outer loop
    vertex 234.48524838275247 86.00128187012591 81.50000000000003
    vertex 250.48524838275313 86.0012818701257 7.472911178751928e-14
    vertex 234.48524838275293 86.0012818701257 2.1149748619109232e-14
  endloop
endfacet
facet normal -2.2968762190641117e-18 1.0 -2.67860497188992e-15
  outer loop
    vertex 250.48524838275313 86.0012818701257 7.472911178751928e-14
    vertex 234.48524838275247 86.00128187012591 81.50000000000003
    vertex 250.48524838275267 86.00128187012591 81.50000000000009
  endloop
endfacet
facet normal -1.0 5.566547673885434e-29 -2.467470672229379e-15
  outer loop
    vertex 250.48524838275267 86.00128187012575 96.00000000000006
    vertex 250.48524838275267 84.75128187012591 81.50000000000006
    vertex 250.48524838275267 84.75128187012575 96.00000000000003
  endloop
endfacet
facet normal -1.0 5.566547673885434e-29 -2.467470672229379e-15
  outer loop
    vertex 250.48524838275267 84.75128187012591 81.50000000000006
    vertex 250.48524838275267 86.00128187012575 96.00000000000006
    vertex 250.48524838275267 86.00128187012591 81.50000000000009
  endloop
endfacet
facet normal -2.467470672229379e-15 -7.519910620127741e-15 1.0
  outer loop
    vertex 250.48524838275267 84.75128187012591 81.50000000000006
    vertex 234.48524838275247 86.00128187012591 81.50000000000003
    vertex 234.48524838275247 84.75128187012591 81.50000000000003
  endloop
endfacet
facet normal -2.467470672229379e-15 -7.519910620127741e-15 1.0
  outer loop
    vertex 234.48524838275247 86.00128187012591 81.50000000000003
    vertex 250.48524838275267 84.75128187012591 81.50000000000006
    vertex 250.48524838275267 86.00128187012591 81.50000000000009
  endloop
endfacet
facet normal 1.0 0.0 2.467470672229379e-15
  outer loop
    vertex 234.48524838275247 84.75128187012591 81.50000000000003
    vertex 234.48524838275247 86.00128187012575 96.0
    vertex 234.48524838275247 84.75128187012575 96.0
  endloop
endfacet
facet normal 1.0 0.0 2.467470672229379e-15
  outer loop
    vertex 234.48524838275247 86.00128187012575 96.0
    vertex 234.48524838275247 84.75128187012591 81.50000000000003
    vertex 234.48524838275247 86.00128187012591 81.50000000000003
  endloop
endfacet
facet normal 2.7052526112310603e-15 -1.0 7.963039745846559e-15
  outer loop
    vertex 250.48524838275313 17.001281870125833 1.4522827385121672e-13
    vertex 234.48524838275247 17.00128187012637 81.50000000000004
    vertex 234.485248382753 17.001281870125737 5.639932965095795e-14
  endloop
endfacet
facet normal 2.7052526112310603e-15 -1.0 7.963039745846559e-15
  outer loop
    vertex 234.48524838275247 17.00128187012637 81.50000000000004
    vertex 250.48524838275313 17.001281870125833 1.4522827385121672e-13
    vertex 250.48524838275267 17.00128187012637 81.50000000000016
  endloop
endfacet
endsolid Backpack
