solid LEDsPanel
facet normal 3.724450683823408e-31 -1.0 -6.680632031199518e-16
  outer loop
    vertex 310.9337828016364 30.55411890922087 112.99999999999993
    vertex 308.9337828016364 30.554118909220946 3.0000000000000004
    vertex 310.9337828016364 30.554118909220946 2.999999999999999
  endloop
endfacet
facet normal 3.724450683823408e-31 -1.0 -6.680632031199518e-16
  outer loop
    vertex 308.9337828016364 30.554118909220946 3.0000000000000004
    vertex 310.9337828016364 30.55411890922087 112.99999999999993
    vertex 308.9337828016364 30.55411890922087 112.99999999999993
  endloop
endfacet
facet normal -5.666751496130853e-44 -1.0 -6.680632031199518e-16
  outer loop
    vertex 480.9337828016364 30.55411890922087 112.99999999999993
    vertex 478.9337828016364 30.554118909220946 3.0
    vertex 480.9337828016364 30.554118909220946 3.0
  endloop
endfacet
facet normal -5.666751496130853e-44 -1.0 -6.680632031199518e-16
  outer loop
    vertex 478.9337828016364 30.554118909220946 3.0
    vertex 480.9337828016364 30.55411890922087 112.99999999999993
    vertex 478.9337828016364 30.55411890922087 112.99999999999993
  endloop
endfacet
facet normal 1.36329066432759e-32 -1.0 -7.062485035670518e-17
  outer loop
    vertex 308.9337828016364 32.554118909220946 3.0000000000000004
    vertex 291.4337828016364 32.55411890922093 112.99999999999993
    vertex 291.4337828016364 32.554118909220946 3.0
  endloop
endfacet
facet normal 1.36329066432759e-32 -1.0 -7.062485035670518e-17
  outer loop
    vertex 291.4337828016364 32.55411890922093 112.99999999999993
    vertex 308.9337828016364 32.554118909220946 3.0000000000000004
    vertex 308.9337828016364 32.55411890922093 112.99999999999993
  endloop
endfacet
facet normal -1.0 0.0 0.0
  outer loop
    vertex 498.4337828016365 28.05411890922087 112.99999999999993
    vertex 498.4337828016365 25.554118909220946 3.0000000000000084
    vertex 498.4337828016365 25.554118909220893 112.99999999999993
  endloop
endfacet
facet normal -1.0 0.0 0.0
  outer loop
    vertex 498.4337828016365 25.554118909220946 3.0000000000000084
    vertex 498.4337828016365 28.05411890922087 112.99999999999993
    vertex 498.4337828016365 28.05411890922094 3.0
  endloop
endfacet
facet normal -1.172722045823316e-30 -1.0 -6.680632031199519e-16
  outer loop
    vertex 291.4337828016364 30.55411890922087 112.99999999999993
    vertex 289.4337828016364 30.554118909220946 3.0
    vertex 291.4337828016364 30.554118909220946 3.0
  endloop
endfacet
facet normal -1.172722045823316e-30 -1.0 -6.680632031199519e-16
  outer loop
    vertex 289.4337828016364 30.554118909220946 3.0
    vertex 291.4337828016364 30.55411890922087 112.99999999999993
    vertex 289.4337828016364 30.55411890922087 112.99999999999993
  endloop
endfacet
facet normal -2.326149025791024e-31 1.0 4.2219409736208977e-16
  outer loop
    vertex 486.9337828016364 25.554118909220946 12.000000000000007
    vertex 498.4337828016365 25.554118909220946 3.0000000000000084
    vertex 486.9337828016364 25.554118909220946 3.0000000000000084
  endloop
endfacet
facet normal -2.326149025791024e-31 1.0 4.2219409736208977e-16
  outer loop
    vertex 498.4337828016365 25.554118909220946 3.0000000000000084
    vertex 486.9337828016364 25.554118909220946 12.000000000000007
    vertex 498.4337828016365 25.554118909220893 112.99999999999993
  endloop
endfacet
facet normal -2.326149025791024e-31 1.0 4.2219409736208977e-16
  outer loop
    vertex 498.4337828016365 25.554118909220893 112.99999999999993
    vertex 486.9337828016364 25.554118909220946 12.000000000000007
    vertex 486.9337828016364 25.554118909220893 112.99999999999993
  endloop
endfacet
facet normal 1.0 -3.61739365700416e-16 -4.3129812690870696e-16
  outer loop
    vertex 310.9337828016364 30.554118909220946 2.999999999999999
    vertex 310.9337828016364 34.05411890922093 112.99999999999993
    vertex 310.9337828016364 30.55411890922087 112.99999999999993
  endloop
endfacet
facet normal 1.0 -3.61739365700416e-16 -4.3129812690870696e-16
  outer loop
    vertex 310.9337828016364 34.05411890922093 112.99999999999993
    vertex 310.9337828016364 30.554118909220946 2.999999999999999
    vertex 310.9337828016364 34.05411890922101 3.000000000000002
  endloop
endfacet
facet normal 1.0 0.0 0.0
  outer loop
    vertex 289.4337828016364 28.05411890922094 3.0
    vertex 289.4337828016364 30.55411890922087 112.99999999999993
    vertex 289.4337828016364 28.05411890922087 112.99999999999993
  endloop
endfacet
facet normal 1.0 0.0 0.0
  outer loop
    vertex 289.4337828016364 30.55411890922087 112.99999999999993
    vertex 289.4337828016364 28.05411890922094 3.0
    vertex 289.4337828016364 30.554118909220946 3.0
  endloop
endfacet
facet normal 1.0 -2.3499720687899137e-16 -1.004613059407688e-15
  outer loop
    vertex 289.4337828016364 35.55411890922093 102.99999999999993
    vertex 289.4337828016364 34.05411890922093 112.99999999999993
    vertex 289.4337828016364 34.05411890922093 102.99999999999993
  endloop
endfacet
facet normal 1.0 -2.3499720687899137e-16 -1.004613059407688e-15
  outer loop
    vertex 289.4337828016364 34.05411890922093 112.99999999999993
    vertex 289.4337828016364 35.55411890922093 102.99999999999993
    vertex 289.4337828016364 35.55411890922093 112.99999999999993
  endloop
endfacet
facet normal 1.3508751133522194e-18 -3.615341644292176e-16 -1.0
  outer loop
    vertex 503.4337828016364 35.55411890922094 0.0
    vertex 286.4337828016364 22.55411890922094 7.049916206369742e-16
    vertex 286.4337828016364 35.55411890922094 0.0
  endloop
endfacet
facet normal 1.3508751133522194e-18 -3.615341644292176e-16 -1.0
  outer loop
    vertex 286.4337828016364 22.55411890922094 7.049916206369742e-16
    vertex 503.4337828016364 35.55411890922094 0.0
    vertex 503.4337828016364 22.55411890922094 7.049916206369747e-16
  endloop
endfacet
facet normal 9.578690497784987e-19 1.0 -2.3499720687899147e-16
  outer loop
    vertex 302.9337828016364 25.554118909220946 12.000000000000007
    vertex 486.9337828016364 25.554118909220946 3.0000000000000084
    vertex 302.9337828016364 25.554118909220946 3.0000000000000075
  endloop
endfacet
facet normal 9.578690497784987e-19 1.0 -2.3499720687899147e-16
  outer loop
    vertex 486.9337828016364 25.554118909220946 3.0000000000000084
    vertex 302.9337828016364 25.554118909220946 12.000000000000007
    vertex 486.9337828016364 25.554118909220946 12.000000000000007
  endloop
endfacet
facet normal -3.8314761991139915e-18 2.3499720687899147e-16 1.0
  outer loop
    vertex 486.9337828016364 22.554118909220943 12.000000000000012
    vertex 302.9337828016364 25.554118909220946 12.000000000000007
    vertex 302.9337828016364 22.554118909220943 12.000000000000007
  endloop
endfacet
facet normal -3.8314761991139915e-18 2.3499720687899147e-16 1.0
  outer loop
    vertex 302.9337828016364 25.554118909220946 12.000000000000007
    vertex 486.9337828016364 22.554118909220943 12.000000000000012
    vertex 486.9337828016364 25.554118909220946 12.000000000000007
  endloop
endfacet
facet normal -4.1791554839705627e-19 -1.0 -6.162902652352169e-16
  outer loop
    vertex 503.4337828016364 22.55411890922094 7.049916206369747e-16
    vertex 486.9337828016364 22.554118909220943 12.000000000000012
    vertex 302.9337828016364 22.554118909220943 12.000000000000007
  endloop
endfacet
facet normal -4.1791554839705627e-19 -1.0 -6.162902652352169e-16
  outer loop
    vertex 486.9337828016364 22.554118909220943 12.000000000000012
    vertex 503.4337828016364 22.55411890922094 7.049916206369747e-16
    vertex 503.4337828016364 22.554118909220875 102.99999999999993
  endloop
endfacet
facet normal -4.1791554839705627e-19 -1.0 -6.162902652352169e-16
  outer loop
    vertex 486.9337828016364 22.554118909220943 12.000000000000012
    vertex 503.4337828016364 22.554118909220875 102.99999999999993
    vertex 486.9337828016364 22.554118909220886 102.99999999999993
  endloop
endfacet
facet normal -4.1791554839705627e-19 -1.0 -6.162902652352169e-16
  outer loop
    vertex 286.4337828016364 22.55411890922094 7.049916206369742e-16
    vertex 302.9337828016364 22.554118909220943 12.000000000000007
    vertex 286.4337828016364 22.554118909220872 112.99999999999993
  endloop
endfacet
facet normal -4.1791554839705627e-19 -1.0 -6.162902652352169e-16
  outer loop
    vertex 302.9337828016364 22.554118909220943 12.000000000000007
    vertex 286.4337828016364 22.55411890922094 7.049916206369742e-16
    vertex 503.4337828016364 22.55411890922094 7.049916206369747e-16
  endloop
endfacet
facet normal -4.1791554839705627e-19 -1.0 -6.162902652352169e-16
  outer loop
    vertex 286.4337828016364 22.554118909220872 112.99999999999993
    vertex 302.9337828016364 22.554118909220943 12.000000000000007
    vertex 289.4337828016364 22.55411890922088 102.99999999999993
  endloop
endfacet
facet normal -4.1791554839705627e-19 -1.0 -6.162902652352169e-16
  outer loop
    vertex 289.4337828016364 22.55411890922088 102.99999999999993
    vertex 302.9337828016364 22.554118909220943 12.000000000000007
    vertex 302.9337828016364 22.554118909220886 102.99999999999993
  endloop
endfacet
facet normal -4.1791554839705627e-19 -1.0 -6.162902652352169e-16
  outer loop
    vertex 286.4337828016364 22.554118909220872 112.99999999999993
    vertex 289.4337828016364 22.55411890922088 102.99999999999993
    vertex 289.4337828016364 22.55411890922088 112.99999999999993
  endloop
endfacet
facet normal 1.0 1.6449804481529428e-15 9.205098366972045e-33
  outer loop
    vertex 289.4337828016364 24.054118909220875 102.99999999999993
    vertex 289.4337828016364 22.55411890922088 112.99999999999993
    vertex 289.4337828016364 22.55411890922088 102.99999999999993
  endloop
endfacet
facet normal 1.0 1.6449804481529428e-15 9.205098366972045e-33
  outer loop
    vertex 289.4337828016364 22.55411890922088 112.99999999999993
    vertex 289.4337828016364 24.054118909220875 102.99999999999993
    vertex 289.4337828016364 24.054118909220875 112.99999999999993
  endloop
endfacet
facet normal 7.963794233121379e-16 -1.0 2.643718577388653e-16
  outer loop
    vertex 302.9337828016364 24.05411890922089 112.99999999999993
    vertex 289.4337828016364 24.054118909220875 102.99999999999993
    vertex 302.9337828016364 24.054118909220886 102.99999999999993
  endloop
endfacet
facet normal 7.963794233121379e-16 -1.0 2.643718577388653e-16
  outer loop
    vertex 289.4337828016364 24.054118909220875 102.99999999999993
    vertex 302.9337828016364 24.05411890922089 112.99999999999993
    vertex 289.4337828016364 24.054118909220875 112.99999999999993
  endloop
endfacet
facet normal -1.0 -4.157642890935989e-16 9.050568102771827e-18
  outer loop
    vertex 286.4337828016364 35.55411890922093 112.99999999999993
    vertex 286.4337828016364 22.55411890922094 7.049916206369742e-16
    vertex 286.4337828016364 22.554118909220872 112.99999999999993
  endloop
endfacet
facet normal -1.0 -4.157642890935989e-16 9.050568102771827e-18
  outer loop
    vertex 286.4337828016364 22.55411890922094 7.049916206369742e-16
    vertex 286.4337828016364 35.55411890922093 112.99999999999993
    vertex 286.4337828016364 35.55411890922094 0.0
  endloop
endfacet
facet normal 0.0 0.0 1.0
  outer loop
    vertex 302.9337828016364 22.554118909220886 102.99999999999993
    vertex 289.4337828016364 24.054118909220875 102.99999999999993
    vertex 289.4337828016364 22.55411890922088 102.99999999999993
  endloop
endfacet
facet normal 0.0 0.0 1.0
  outer loop
    vertex 289.4337828016364 24.054118909220875 102.99999999999993
    vertex 302.9337828016364 22.554118909220886 102.99999999999993
    vertex 302.9337828016364 24.054118909220886 102.99999999999993
  endloop
endfacet
facet normal 0.0 0.0 1.0
  outer loop
    vertex 503.4337828016364 22.554118909220875 102.99999999999993
    vertex 486.9337828016364 24.054118909220886 102.99999999999993
    vertex 486.9337828016364 22.554118909220886 102.99999999999993
  endloop
endfacet
facet normal 0.0 0.0 1.0
  outer loop
    vertex 486.9337828016364 24.054118909220886 102.99999999999993
    vertex 503.4337828016364 22.554118909220875 102.99999999999993
    vertex 501.9337828016364 24.054118909220875 102.99999999999993
  endloop
endfacet
facet normal 0.0 0.0 1.0
  outer loop
    vertex 501.9337828016364 24.054118909220875 102.99999999999993
    vertex 503.4337828016364 22.554118909220875 102.99999999999993
    vertex 501.9337828016364 34.05411890922093 102.99999999999993
  endloop
endfacet
facet normal 0.0 0.0 1.0
  outer loop
    vertex 501.9337828016364 34.05411890922093 102.99999999999993
    vertex 488.9337828016364 35.55411890922093 102.99999999999993
    vertex 488.9337828016364 34.05411890922093 102.99999999999993
  endloop
endfacet
facet normal 0.0 0.0 1.0
  outer loop
    vertex 488.9337828016364 35.55411890922093 102.99999999999993
    vertex 501.9337828016364 34.05411890922093 102.99999999999993
    vertex 503.4337828016364 35.55411890922093 102.99999999999993
  endloop
endfacet
facet normal 0.0 0.0 1.0
  outer loop
    vertex 503.4337828016364 35.55411890922093 102.99999999999993
    vertex 501.9337828016364 34.05411890922093 102.99999999999993
    vertex 503.4337828016364 22.554118909220875 102.99999999999993
  endloop
endfacet
facet normal 1.0 0.0 0.0
  outer loop
    vertex 501.9337828016364 24.054118909220875 102.99999999999993
    vertex 501.9337828016364 34.05411890922093 112.99999999999993
    vertex 501.9337828016364 24.05411890922087 112.99999999999993
  endloop
endfacet
facet normal 1.0 0.0 0.0
  outer loop
    vertex 501.9337828016364 34.05411890922093 112.99999999999993
    vertex 501.9337828016364 24.054118909220875 102.99999999999993
    vertex 501.9337828016364 34.05411890922093 102.99999999999993
  endloop
endfacet
facet normal -1.0926973545930603e-16 1.0 7.687053465756607e-16
  outer loop
    vertex 478.9337828016364 34.05411890922093 112.99999999999993
    vertex 488.9337828016364 34.05411890922101 3.000000000000003
    vertex 478.9337828016364 34.05411890922101 3.000000000000003
  endloop
endfacet
facet normal -1.0926973545930603e-16 1.0 7.687053465756607e-16
  outer loop
    vertex 488.9337828016364 34.05411890922101 3.000000000000003
    vertex 478.9337828016364 34.05411890922093 112.99999999999993
    vertex 488.9337828016364 34.05411890922093 102.99999999999993
  endloop
endfacet
facet normal -1.0926973545930603e-16 1.0 7.687053465756607e-16
  outer loop
    vertex 488.9337828016364 34.05411890922093 102.99999999999993
    vertex 478.9337828016364 34.05411890922093 112.99999999999993
    vertex 501.9337828016364 34.05411890922093 102.99999999999993
  endloop
endfacet
facet normal -1.0926973545930603e-16 1.0 7.687053465756607e-16
  outer loop
    vertex 501.9337828016364 34.05411890922093 102.99999999999993
    vertex 478.9337828016364 34.05411890922093 112.99999999999993
    vertex 501.9337828016364 34.05411890922093 112.99999999999993
  endloop
endfacet
facet normal -9.399888275159647e-16 -1.0 -3.524958103184878e-17
  outer loop
    vertex 501.9337828016364 24.05411890922087 112.99999999999993
    vertex 486.9337828016364 24.054118909220886 102.99999999999993
    vertex 501.9337828016364 24.054118909220875 102.99999999999993
  endloop
endfacet
facet normal -9.399888275159647e-16 -1.0 -3.524958103184878e-17
  outer loop
    vertex 486.9337828016364 24.054118909220886 102.99999999999993
    vertex 501.9337828016364 24.05411890922087 112.99999999999993
    vertex 486.9337828016364 24.05411890922089 112.99999999999993
  endloop
endfacet
facet normal 0.0 0.0 1.0
  outer loop
    vertex 500.4337828016364 30.55411890922087 112.99999999999993
    vertex 498.4337828016365 32.55411890922093 112.99999999999993
    vertex 498.4337828016365 30.55411890922087 112.99999999999993
  endloop
endfacet
facet normal 0.0 0.0 1.0
  outer loop
    vertex 501.9337828016364 24.05411890922087 112.99999999999993
    vertex 486.9337828016364 25.554118909220893 112.99999999999993
    vertex 486.9337828016364 24.05411890922089 112.99999999999993
  endloop
endfacet
facet normal 0.0 0.0 1.0
  outer loop
    vertex 486.9337828016364 25.554118909220893 112.99999999999993
    vertex 501.9337828016364 24.05411890922087 112.99999999999993
    vertex 498.4337828016365 25.554118909220893 112.99999999999993
  endloop
endfacet
facet normal 0.0 0.0 1.0
  outer loop
    vertex 498.4337828016365 25.554118909220893 112.99999999999993
    vertex 501.9337828016364 24.05411890922087 112.99999999999993
    vertex 498.4337828016365 28.05411890922087 112.99999999999993
  endloop
endfacet
facet normal 0.0 0.0 1.0
  outer loop
    vertex 498.4337828016365 28.05411890922087 112.99999999999993
    vertex 501.9337828016364 24.05411890922087 112.99999999999993
    vertex 500.4337828016364 28.05411890922087 112.99999999999993
  endloop
endfacet
facet normal 0.0 0.0 1.0
  outer loop
    vertex 500.4337828016364 28.05411890922087 112.99999999999993
    vertex 501.9337828016364 24.05411890922087 112.99999999999993
    vertex 500.4337828016364 30.55411890922087 112.99999999999993
  endloop
endfacet
facet normal 0.0 0.0 1.0
  outer loop
    vertex 480.9337828016364 30.55411890922087 112.99999999999993
    vertex 478.9337828016364 34.05411890922093 112.99999999999993
    vertex 478.9337828016364 30.55411890922087 112.99999999999993
  endloop
endfacet
facet normal 0.0 0.0 1.0
  outer loop
    vertex 478.9337828016364 34.05411890922093 112.99999999999993
    vertex 480.9337828016364 30.55411890922087 112.99999999999993
    vertex 480.9337828016364 32.55411890922093 112.99999999999993
  endloop
endfacet
facet normal 0.0 0.0 1.0
  outer loop
    vertex 478.9337828016364 34.05411890922093 112.99999999999993
    vertex 480.9337828016364 32.55411890922093 112.99999999999993
    vertex 501.9337828016364 34.05411890922093 112.99999999999993
  endloop
endfacet
facet normal 0.0 0.0 1.0
  outer loop
    vertex 501.9337828016364 34.05411890922093 112.99999999999993
    vertex 480.9337828016364 32.55411890922093 112.99999999999993
    vertex 498.4337828016365 32.55411890922093 112.99999999999993
  endloop
endfacet
facet normal 0.0 0.0 1.0
  outer loop
    vertex 501.9337828016364 34.05411890922093 112.99999999999993
    vertex 498.4337828016365 32.55411890922093 112.99999999999993
    vertex 500.4337828016364 30.55411890922087 112.99999999999993
  endloop
endfacet
facet normal 0.0 0.0 1.0
  outer loop
    vertex 501.9337828016364 34.05411890922093 112.99999999999993
    vertex 500.4337828016364 30.55411890922087 112.99999999999993
    vertex 501.9337828016364 24.05411890922087 112.99999999999993
  endloop
endfacet
facet normal 1.0 0.0 0.0
  outer loop
    vertex 480.9337828016364 30.554118909220946 3.0
    vertex 480.9337828016364 32.55411890922093 112.99999999999993
    vertex 480.9337828016364 30.55411890922087 112.99999999999993
  endloop
endfacet
facet normal 1.0 0.0 0.0
  outer loop
    vertex 480.9337828016364 32.55411890922093 112.99999999999993
    vertex 480.9337828016364 30.554118909220946 3.0
    vertex 480.9337828016364 32.554118909220946 3.0
  endloop
endfacet
facet normal 1.0 0.0 0.0
  outer loop
    vertex 503.4337828016364 22.55411890922094 7.049916206369747e-16
    vertex 503.4337828016364 35.55411890922093 102.99999999999993
    vertex 503.4337828016364 22.554118909220875 102.99999999999993
  endloop
endfacet
facet normal 1.0 0.0 0.0
  outer loop
    vertex 503.4337828016364 35.55411890922093 102.99999999999993
    vertex 503.4337828016364 22.55411890922094 7.049916206369747e-16
    vertex 503.4337828016364 35.55411890922094 0.0
  endloop
endfacet
facet normal 1.0 6.109927378853757e-16 -2.1105159200875234e-17
  outer loop
    vertex 291.4337828016364 25.554118909220946 3.0000000000000084
    vertex 291.4337828016364 28.05411890922087 112.99999999999993
    vertex 291.4337828016364 25.554118909220893 112.99999999999993
  endloop
endfacet
facet normal 1.0 6.109927378853757e-16 -2.1105159200875234e-17
  outer loop
    vertex 291.4337828016364 28.05411890922087 112.99999999999993
    vertex 291.4337828016364 25.554118909220946 3.0000000000000084
    vertex 291.4337828016364 28.05411890922094 3.0
  endloop
endfacet
facet normal 0.0 1.0 6.633947808082374e-16
  outer loop
    vertex 498.4337828016365 28.05411890922087 112.99999999999993
    vertex 500.4337828016364 28.05411890922094 3.0
    vertex 498.4337828016365 28.05411890922094 3.0
  endloop
endfacet
facet normal 0.0 1.0 6.633947808082374e-16
  outer loop
    vertex 500.4337828016364 28.05411890922094 3.0
    vertex 498.4337828016365 28.05411890922087 112.99999999999993
    vertex 500.4337828016364 28.05411890922087 112.99999999999993
  endloop
endfacet
facet normal 0.0 1.0 6.633947808082374e-16
  outer loop
    vertex 289.4337828016364 28.05411890922087 112.99999999999993
    vertex 291.4337828016364 28.05411890922094 3.0
    vertex 289.4337828016364 28.05411890922094 3.0
  endloop
endfacet
facet normal 0.0 1.0 6.633947808082374e-16
  outer loop
    vertex 291.4337828016364 28.05411890922094 3.0
    vertex 289.4337828016364 28.05411890922087 112.99999999999993
    vertex 291.4337828016364 28.05411890922087 112.99999999999993
  endloop
endfacet
facet normal 1.0 3.133296091719889e-16 -3.8963370832385504e-17
  outer loop
    vertex 302.9337828016364 22.554118909220943 12.000000000000007
    vertex 302.9337828016364 24.054118909220886 102.99999999999993
    vertex 302.9337828016364 22.554118909220886 102.99999999999993
  endloop
endfacet
facet normal 1.0 3.133296091719889e-16 -3.8963370832385504e-17
  outer loop
    vertex 302.9337828016364 24.054118909220886 102.99999999999993
    vertex 302.9337828016364 22.554118909220943 12.000000000000007
    vertex 302.9337828016364 25.554118909220946 12.000000000000007
  endloop
endfacet
facet normal 1.0 3.133296091719889e-16 -3.8963370832385504e-17
  outer loop
    vertex 302.9337828016364 24.054118909220886 102.99999999999993
    vertex 302.9337828016364 25.554118909220946 12.000000000000007
    vertex 302.9337828016364 24.05411890922089 112.99999999999993
  endloop
endfacet
facet normal 1.0 3.133296091719889e-16 -3.8963370832385504e-17
  outer loop
    vertex 302.9337828016364 24.05411890922089 112.99999999999993
    vertex 302.9337828016364 25.554118909220946 12.000000000000007
    vertex 302.9337828016364 25.554118909220893 112.99999999999993
  endloop
endfacet
facet normal 2.196394577366649e-31 1.0 4.2219409736208987e-16
  outer loop
    vertex 291.4337828016364 25.554118909220946 3.0000000000000084
    vertex 302.9337828016364 25.554118909220946 12.000000000000007
    vertex 302.9337828016364 25.554118909220946 3.0000000000000075
  endloop
endfacet
facet normal 2.196394577366649e-31 1.0 4.2219409736208987e-16
  outer loop
    vertex 302.9337828016364 25.554118909220946 12.000000000000007
    vertex 291.4337828016364 25.554118909220946 3.0000000000000084
    vertex 291.4337828016364 25.554118909220893 112.99999999999993
  endloop
endfacet
facet normal 2.196394577366649e-31 1.0 4.2219409736208987e-16
  outer loop
    vertex 302.9337828016364 25.554118909220946 12.000000000000007
    vertex 291.4337828016364 25.554118909220893 112.99999999999993
    vertex 302.9337828016364 25.554118909220893 112.99999999999993
  endloop
endfacet
facet normal 1.0 -2.0485953236756873e-31 3.24694756936547e-17
  outer loop
    vertex 291.4337828016364 30.554118909220946 3.0
    vertex 291.4337828016364 32.55411890922093 112.99999999999993
    vertex 291.4337828016364 30.55411890922087 112.99999999999993
  endloop
endfacet
facet normal 1.0 -2.0485953236756873e-31 3.24694756936547e-17
  outer loop
    vertex 291.4337828016364 32.55411890922093 112.99999999999993
    vertex 291.4337828016364 30.554118909220946 3.0
    vertex 291.4337828016364 32.554118909220946 3.0
  endloop
endfacet
facet normal -1.0 0.0 0.0
  outer loop
    vertex 498.4337828016365 32.55411890922093 112.99999999999993
    vertex 498.4337828016365 30.554118909220946 3.0
    vertex 498.4337828016365 30.55411890922087 112.99999999999993
  endloop
endfacet
facet normal -1.0 0.0 0.0
  outer loop
    vertex 498.4337828016365 30.554118909220946 3.0
    vertex 498.4337828016365 32.55411890922093 112.99999999999993
    vertex 498.4337828016365 32.554118909220946 3.0
  endloop
endfacet
facet normal -1.0 0.0 0.0
  outer loop
    vertex 500.4337828016364 30.55411890922087 112.99999999999993
    vertex 500.4337828016364 28.05411890922094 3.0
    vertex 500.4337828016364 28.05411890922087 112.99999999999993
  endloop
endfacet
facet normal -1.0 0.0 0.0
  outer loop
    vertex 500.4337828016364 28.05411890922094 3.0
    vertex 500.4337828016364 30.55411890922087 112.99999999999993
    vertex 500.4337828016364 30.554118909220946 3.0
  endloop
endfacet
facet normal 0.0 -1.0 -6.680632031199519e-16
  outer loop
    vertex 500.4337828016364 30.55411890922087 112.99999999999993
    vertex 498.4337828016365 30.554118909220946 3.0
    vertex 500.4337828016364 30.554118909220946 3.0
  endloop
endfacet
facet normal 0.0 -1.0 -6.680632031199519e-16
  outer loop
    vertex 498.4337828016365 30.554118909220946 3.0
    vertex 500.4337828016364 30.55411890922087 112.99999999999993
    vertex 498.4337828016365 30.55411890922087 112.99999999999993
  endloop
endfacet
facet normal -1.0 0.0 0.0
  outer loop
    vertex 486.9337828016364 24.054118909220886 102.99999999999993
    vertex 486.9337828016364 22.554118909220943 12.000000000000012
    vertex 486.9337828016364 22.554118909220886 102.99999999999993
  endloop
endfacet
facet normal -1.0 0.0 0.0
  outer loop
    vertex 486.9337828016364 22.554118909220943 12.000000000000012
    vertex 486.9337828016364 24.054118909220886 102.99999999999993
    vertex 486.9337828016364 25.554118909220946 12.000000000000007
  endloop
endfacet
facet normal -1.0 0.0 0.0
  outer loop
    vertex 486.9337828016364 25.554118909220946 12.000000000000007
    vertex 486.9337828016364 24.054118909220886 102.99999999999993
    vertex 486.9337828016364 24.05411890922089 112.99999999999993
  endloop
endfacet
facet normal -1.0 0.0 0.0
  outer loop
    vertex 486.9337828016364 25.554118909220946 12.000000000000007
    vertex 486.9337828016364 24.05411890922089 112.99999999999993
    vertex 486.9337828016364 25.554118909220893 112.99999999999993
  endloop
endfacet
facet normal -6.846460455560319e-47 -1.0 -7.062485035670518e-17
  outer loop
    vertex 498.4337828016365 32.55411890922093 112.99999999999993
    vertex 480.9337828016364 32.554118909220946 3.0
    vertex 498.4337828016365 32.554118909220946 3.0
  endloop
endfacet
facet normal -6.846460455560319e-47 -1.0 -7.062485035670518e-17
  outer loop
    vertex 480.9337828016364 32.554118909220946 3.0
    vertex 498.4337828016365 32.55411890922093 112.99999999999993
    vertex 480.9337828016364 32.55411890922093 112.99999999999993
  endloop
endfacet
facet normal -1.0 0.0 0.0
  outer loop
    vertex 478.9337828016364 34.05411890922093 112.99999999999993
    vertex 478.9337828016364 30.554118909220946 3.0
    vertex 478.9337828016364 30.55411890922087 112.99999999999993
  endloop
endfacet
facet normal -1.0 0.0 0.0
  outer loop
    vertex 478.9337828016364 30.554118909220946 3.0
    vertex 478.9337828016364 34.05411890922093 112.99999999999993
    vertex 478.9337828016364 34.05411890922101 3.000000000000003
  endloop
endfacet
facet normal -1.0 -9.020837834884387e-32 5.195116110984754e-17
  outer loop
    vertex 308.9337828016364 32.55411890922093 112.99999999999993
    vertex 308.9337828016364 30.554118909220946 3.0000000000000004
    vertex 308.9337828016364 30.55411890922087 112.99999999999993
  endloop
endfacet
facet normal -1.0 -9.020837834884387e-32 5.195116110984754e-17
  outer loop
    vertex 308.9337828016364 30.554118909220946 3.0000000000000004
    vertex 308.9337828016364 32.55411890922093 112.99999999999993
    vertex 308.9337828016364 32.554118909220946 3.0000000000000004
  endloop
endfacet
facet normal 0.0 0.0 1.0
  outer loop
    vertex 310.9337828016364 30.55411890922087 112.99999999999993
    vertex 308.9337828016364 32.55411890922093 112.99999999999993
    vertex 308.9337828016364 30.55411890922087 112.99999999999993
  endloop
endfacet
facet normal 0.0 0.0 1.0
  outer loop
    vertex 291.4337828016364 30.55411890922087 112.99999999999993
    vertex 289.4337828016364 34.05411890922093 112.99999999999993
    vertex 289.4337828016364 30.55411890922087 112.99999999999993
  endloop
endfacet
facet normal 0.0 0.0 1.0
  outer loop
    vertex 289.4337828016364 34.05411890922093 112.99999999999993
    vertex 291.4337828016364 30.55411890922087 112.99999999999993
    vertex 291.4337828016364 32.55411890922093 112.99999999999993
  endloop
endfacet
facet normal 0.0 0.0 1.0
  outer loop
    vertex 289.4337828016364 34.05411890922093 112.99999999999993
    vertex 291.4337828016364 32.55411890922093 112.99999999999993
    vertex 310.9337828016364 34.05411890922093 112.99999999999993
  endloop
endfacet
facet normal 0.0 0.0 1.0
  outer loop
    vertex 310.9337828016364 34.05411890922093 112.99999999999993
    vertex 291.4337828016364 32.55411890922093 112.99999999999993
    vertex 308.9337828016364 32.55411890922093 112.99999999999993
  endloop
endfacet
facet normal 0.0 0.0 1.0
  outer loop
    vertex 310.9337828016364 34.05411890922093 112.99999999999993
    vertex 308.9337828016364 32.55411890922093 112.99999999999993
    vertex 310.9337828016364 30.55411890922087 112.99999999999993
  endloop
endfacet
facet normal 0.0 0.0 1.0
  outer loop
    vertex 289.4337828016364 22.55411890922088 112.99999999999993
    vertex 286.4337828016364 35.55411890922093 112.99999999999993
    vertex 286.4337828016364 22.554118909220872 112.99999999999993
  endloop
endfacet
facet normal 0.0 0.0 1.0
  outer loop
    vertex 286.4337828016364 35.55411890922093 112.99999999999993
    vertex 289.4337828016364 22.55411890922088 112.99999999999993
    vertex 289.4337828016364 35.55411890922093 112.99999999999993
  endloop
endfacet
facet normal 0.0 0.0 1.0
  outer loop
    vertex 289.4337828016364 35.55411890922093 112.99999999999993
    vertex 289.4337828016364 22.55411890922088 112.99999999999993
    vertex 289.4337828016364 24.054118909220875 112.99999999999993
  endloop
endfacet
facet normal 0.0 0.0 1.0
  outer loop
    vertex 289.4337828016364 35.55411890922093 112.99999999999993
    vertex 289.4337828016364 24.054118909220875 112.99999999999993
    vertex 289.4337828016364 28.05411890922087 112.99999999999993
  endloop
endfacet
facet normal 0.0 0.0 1.0
  outer loop
    vertex 289.4337828016364 35.55411890922093 112.99999999999993
    vertex 289.4337828016364 28.05411890922087 112.99999999999993
    vertex 289.4337828016364 30.55411890922087 112.99999999999993
  endloop
endfacet
facet normal 0.0 0.0 1.0
  outer loop
    vertex 289.4337828016364 35.55411890922093 112.99999999999993
    vertex 289.4337828016364 30.55411890922087 112.99999999999993
    vertex 289.4337828016364 34.05411890922093 112.99999999999993
  endloop
endfacet
facet normal 0.0 0.0 1.0
  outer loop
    vertex 289.4337828016364 24.054118909220875 112.99999999999993
    vertex 291.4337828016364 25.554118909220893 112.99999999999993
    vertex 289.4337828016364 28.05411890922087 112.99999999999993
  endloop
endfacet
facet normal 0.0 0.0 1.0
  outer loop
    vertex 291.4337828016364 25.554118909220893 112.99999999999993
    vertex 289.4337828016364 24.054118909220875 112.99999999999993
    vertex 302.9337828016364 24.05411890922089 112.99999999999993
  endloop
endfacet
facet normal 0.0 0.0 1.0
  outer loop
    vertex 291.4337828016364 25.554118909220893 112.99999999999993
    vertex 302.9337828016364 24.05411890922089 112.99999999999993
    vertex 302.9337828016364 25.554118909220893 112.99999999999993
  endloop
endfacet
facet normal 0.0 0.0 1.0
  outer loop
    vertex 291.4337828016364 28.05411890922087 112.99999999999993
    vertex 289.4337828016364 28.05411890922087 112.99999999999993
    vertex 291.4337828016364 25.554118909220893 112.99999999999993
  endloop
endfacet
facet normal -5.524981270003353e-18 1.0 7.75083002506415e-16
  outer loop
    vertex 289.4337828016364 34.05411890922093 112.99999999999993
    vertex 300.9337828016364 34.05411890922093 102.99999999999993
    vertex 289.4337828016364 34.05411890922093 102.99999999999993
  endloop
endfacet
facet normal -5.524981270003353e-18 1.0 7.75083002506415e-16
  outer loop
    vertex 300.9337828016364 34.05411890922093 102.99999999999993
    vertex 310.9337828016364 34.05411890922101 3.000000000000002
    vertex 300.9337828016364 34.05411890922101 3.000000000000002
  endloop
endfacet
facet normal -5.524981270003353e-18 1.0 7.75083002506415e-16
  outer loop
    vertex 310.9337828016364 34.05411890922101 3.000000000000002
    vertex 300.9337828016364 34.05411890922093 102.99999999999993
    vertex 310.9337828016364 34.05411890922093 112.99999999999993
  endloop
endfacet
facet normal -5.524981270003353e-18 1.0 7.75083002506415e-16
  outer loop
    vertex 310.9337828016364 34.05411890922093 112.99999999999993
    vertex 300.9337828016364 34.05411890922093 102.99999999999993
    vertex 289.4337828016364 34.05411890922093 112.99999999999993
  endloop
endfacet
facet normal 0.0 0.0 1.0
  outer loop
    vertex 300.9337828016364 34.05411890922093 102.99999999999993
    vertex 289.4337828016364 35.55411890922093 102.99999999999993
    vertex 289.4337828016364 34.05411890922093 102.99999999999993
  endloop
endfacet
facet normal 0.0 0.0 1.0
  outer loop
    vertex 289.4337828016364 35.55411890922093 102.99999999999993
    vertex 300.9337828016364 34.05411890922093 102.99999999999993
    vertex 300.9337828016364 35.55411890922093 102.99999999999993
  endloop
endfacet
facet normal -1.0 0.0 0.0
  outer loop
    vertex 488.9337828016364 35.55411890922093 102.99999999999993
    vertex 488.9337828016364 34.05411890922101 3.000000000000003
    vertex 488.9337828016364 34.05411890922093 102.99999999999993
  endloop
endfacet
facet normal -1.0 0.0 0.0
  outer loop
    vertex 488.9337828016364 34.05411890922101 3.000000000000003
    vertex 488.9337828016364 35.55411890922093 102.99999999999993
    vertex 488.9337828016364 35.55411890922101 3.000000000000004
  endloop
endfacet
facet normal 3.0665937152488306e-17 1.0 4.841729477169086e-16
  outer loop
    vertex 300.9337828016364 35.55411890922093 102.99999999999993
    vertex 300.9337828016364 35.55411890922101 3.000000000000003
    vertex 289.4337828016364 35.55411890922093 102.99999999999993
  endloop
endfacet
facet normal 3.0665937152488306e-17 1.0 4.841729477169086e-16
  outer loop
    vertex 286.4337828016364 35.55411890922094 0.0
    vertex 300.9337828016364 35.55411890922101 3.000000000000003
    vertex 503.4337828016364 35.55411890922094 0.0
  endloop
endfacet
facet normal 3.0665937152488306e-17 1.0 4.841729477169086e-16
  outer loop
    vertex 300.9337828016364 35.55411890922101 3.000000000000003
    vertex 286.4337828016364 35.55411890922094 0.0
    vertex 286.4337828016364 35.55411890922093 112.99999999999993
  endloop
endfacet
facet normal 3.0665937152488306e-17 1.0 4.841729477169086e-16
  outer loop
    vertex 300.9337828016364 35.55411890922101 3.000000000000003
    vertex 286.4337828016364 35.55411890922093 112.99999999999993
    vertex 289.4337828016364 35.55411890922093 102.99999999999993
  endloop
endfacet
facet normal 3.0665937152488306e-17 1.0 4.841729477169086e-16
  outer loop
    vertex 289.4337828016364 35.55411890922093 102.99999999999993
    vertex 286.4337828016364 35.55411890922093 112.99999999999993
    vertex 289.4337828016364 35.55411890922093 112.99999999999993
  endloop
endfacet
facet normal 3.0665937152488306e-17 1.0 4.841729477169086e-16
  outer loop
    vertex 503.4337828016364 35.55411890922094 0.0
    vertex 488.9337828016364 35.55411890922101 3.000000000000004
    vertex 503.4337828016364 35.55411890922093 102.99999999999993
  endloop
endfacet
facet normal 3.0665937152488306e-17 1.0 4.841729477169086e-16
  outer loop
    vertex 488.9337828016364 35.55411890922101 3.000000000000004
    vertex 503.4337828016364 35.55411890922094 0.0
    vertex 300.9337828016364 35.55411890922101 3.000000000000003
  endloop
endfacet
facet normal 3.0665937152488306e-17 1.0 4.841729477169086e-16
  outer loop
    vertex 503.4337828016364 35.55411890922093 102.99999999999993
    vertex 488.9337828016364 35.55411890922101 3.000000000000004
    vertex 488.9337828016364 35.55411890922093 102.99999999999993
  endloop
endfacet
facet normal 2.0954066046910236e-19 3.1570804154042507e-16 1.0
  outer loop
    vertex 500.4337828016364 28.05411890922094 3.0
    vertex 498.4337828016365 30.554118909220946 3.0
    vertex 498.4337828016365 28.05411890922094 3.0
  endloop
endfacet
facet normal 2.0954066046910236e-19 3.1570804154042507e-16 1.0
  outer loop
    vertex 498.4337828016365 30.554118909220946 3.0
    vertex 500.4337828016364 28.05411890922094 3.0
    vertex 500.4337828016364 30.554118909220946 3.0
  endloop
endfacet
facet normal 2.0954066046910236e-19 3.1570804154042507e-16 1.0
  outer loop
    vertex 486.9337828016364 25.554118909220946 3.0000000000000084
    vertex 308.9337828016364 30.554118909220946 3.0000000000000004
    vertex 302.9337828016364 25.554118909220946 3.0000000000000075
  endloop
endfacet
facet normal 2.0954066046910236e-19 3.1570804154042507e-16 1.0
  outer loop
    vertex 308.9337828016364 30.554118909220946 3.0000000000000004
    vertex 486.9337828016364 25.554118909220946 3.0000000000000084
    vertex 310.9337828016364 30.554118909220946 2.999999999999999
  endloop
endfacet
facet normal 2.0954066046910236e-19 3.1570804154042507e-16 1.0
  outer loop
    vertex 310.9337828016364 30.554118909220946 2.999999999999999
    vertex 486.9337828016364 25.554118909220946 3.0000000000000084
    vertex 310.9337828016364 34.05411890922101 3.000000000000002
  endloop
endfacet
facet normal 2.0954066046910236e-19 3.1570804154042507e-16 1.0
  outer loop
    vertex 310.9337828016364 34.05411890922101 3.000000000000002
    vertex 486.9337828016364 25.554118909220946 3.0000000000000084
    vertex 478.9337828016364 30.554118909220946 3.0
  endloop
endfacet
facet normal 2.0954066046910236e-19 3.1570804154042507e-16 1.0
  outer loop
    vertex 478.9337828016364 30.554118909220946 3.0
    vertex 486.9337828016364 25.554118909220946 3.0000000000000084
    vertex 480.9337828016364 30.554118909220946 3.0
  endloop
endfacet
facet normal 2.0954066046910236e-19 3.1570804154042507e-16 1.0
  outer loop
    vertex 480.9337828016364 30.554118909220946 3.0
    vertex 486.9337828016364 25.554118909220946 3.0000000000000084
    vertex 480.9337828016364 32.554118909220946 3.0
  endloop
endfacet
facet normal 2.0954066046910236e-19 3.1570804154042507e-16 1.0
  outer loop
    vertex 480.9337828016364 32.554118909220946 3.0
    vertex 486.9337828016364 25.554118909220946 3.0000000000000084
    vertex 498.4337828016365 32.554118909220946 3.0
  endloop
endfacet
facet normal 2.0954066046910236e-19 3.1570804154042507e-16 1.0
  outer loop
    vertex 498.4337828016365 32.554118909220946 3.0
    vertex 486.9337828016364 25.554118909220946 3.0000000000000084
    vertex 498.4337828016365 25.554118909220946 3.0000000000000084
  endloop
endfacet
facet normal 2.0954066046910236e-19 3.1570804154042507e-16 1.0
  outer loop
    vertex 498.4337828016365 32.554118909220946 3.0
    vertex 498.4337828016365 25.554118909220946 3.0000000000000084
    vertex 498.4337828016365 28.05411890922094 3.0
  endloop
endfacet
facet normal 2.0954066046910236e-19 3.1570804154042507e-16 1.0
  outer loop
    vertex 498.4337828016365 32.554118909220946 3.0
    vertex 498.4337828016365 28.05411890922094 3.0
    vertex 498.4337828016365 30.554118909220946 3.0
  endloop
endfacet
facet normal 2.0954066046910236e-19 3.1570804154042507e-16 1.0
  outer loop
    vertex 310.9337828016364 34.05411890922101 3.000000000000002
    vertex 300.9337828016364 35.55411890922101 3.000000000000003
    vertex 300.9337828016364 34.05411890922101 3.000000000000002
  endloop
endfacet
facet normal 2.0954066046910236e-19 3.1570804154042507e-16 1.0
  outer loop
    vertex 300.9337828016364 35.55411890922101 3.000000000000003
    vertex 310.9337828016364 34.05411890922101 3.000000000000002
    vertex 488.9337828016364 35.55411890922101 3.000000000000004
  endloop
endfacet
facet normal 2.0954066046910236e-19 3.1570804154042507e-16 1.0
  outer loop
    vertex 488.9337828016364 35.55411890922101 3.000000000000004
    vertex 310.9337828016364 34.05411890922101 3.000000000000002
    vertex 478.9337828016364 34.05411890922101 3.000000000000003
  endloop
endfacet
facet normal 2.0954066046910236e-19 3.1570804154042507e-16 1.0
  outer loop
    vertex 478.9337828016364 34.05411890922101 3.000000000000003
    vertex 310.9337828016364 34.05411890922101 3.000000000000002
    vertex 478.9337828016364 30.554118909220946 3.0
  endloop
endfacet
facet normal 2.0954066046910236e-19 3.1570804154042507e-16 1.0
  outer loop
    vertex 488.9337828016364 35.55411890922101 3.000000000000004
    vertex 478.9337828016364 34.05411890922101 3.000000000000003
    vertex 488.9337828016364 34.05411890922101 3.000000000000003
  endloop
endfacet
facet normal 2.0954066046910236e-19 3.1570804154042507e-16 1.0
  outer loop
    vertex 302.9337828016364 25.554118909220946 3.0000000000000075
    vertex 291.4337828016364 28.05411890922094 3.0
    vertex 291.4337828016364 25.554118909220946 3.0000000000000084
  endloop
endfacet
facet normal 2.0954066046910236e-19 3.1570804154042507e-16 1.0
  outer loop
    vertex 291.4337828016364 28.05411890922094 3.0
    vertex 302.9337828016364 25.554118909220946 3.0000000000000075
    vertex 291.4337828016364 30.554118909220946 3.0
  endloop
endfacet
facet normal 2.0954066046910236e-19 3.1570804154042507e-16 1.0
  outer loop
    vertex 291.4337828016364 30.554118909220946 3.0
    vertex 302.9337828016364 25.554118909220946 3.0000000000000075
    vertex 291.4337828016364 32.554118909220946 3.0
  endloop
endfacet
facet normal 2.0954066046910236e-19 3.1570804154042507e-16 1.0
  outer loop
    vertex 291.4337828016364 32.554118909220946 3.0
    vertex 302.9337828016364 25.554118909220946 3.0000000000000075
    vertex 308.9337828016364 32.554118909220946 3.0000000000000004
  endloop
endfacet
facet normal 2.0954066046910236e-19 3.1570804154042507e-16 1.0
  outer loop
    vertex 308.9337828016364 32.554118909220946 3.0000000000000004
    vertex 302.9337828016364 25.554118909220946 3.0000000000000075
    vertex 308.9337828016364 30.554118909220946 3.0000000000000004
  endloop
endfacet
facet normal 2.0954066046910236e-19 3.1570804154042507e-16 1.0
  outer loop
    vertex 291.4337828016364 28.05411890922094 3.0
    vertex 289.4337828016364 30.554118909220946 3.0
    vertex 289.4337828016364 28.05411890922094 3.0
  endloop
endfacet
facet normal 2.0954066046910236e-19 3.1570804154042507e-16 1.0
  outer loop
    vertex 289.4337828016364 30.554118909220946 3.0
    vertex 291.4337828016364 28.05411890922094 3.0
    vertex 291.4337828016364 30.554118909220946 3.0
  endloop
endfacet
facet normal 1.0 -0.0 -0.0
  outer loop
    vertex 300.9337828016364 34.05411890922101 3.000000000000002
    vertex 300.9337828016364 35.55411890922093 102.99999999999993
    vertex 300.9337828016364 34.05411890922093 102.99999999999993
  endloop
endfacet
facet normal 1.0 -0.0 -0.0
  outer loop
    vertex 300.9337828016364 35.55411890922093 102.99999999999993
    vertex 300.9337828016364 34.05411890922101 3.000000000000002
    vertex 300.9337828016364 35.55411890922101 3.000000000000003
  endloop
endfacet
endsolid LEDsPanel
