solid LEDsPanel
facet normal 0.0 -1.0 -6.073773962410851e-15
  outer loop
    vertex 232.3414168485025 -79.33521312541207 16.00000000000001
    vertex 230.3414168485025 -79.33521312541198 3.0
    vertex 232.3414168485025 -79.33521312541198 3.0
  endloop
endfacet
facet normal 0.0 -1.0 -6.073773962410851e-15
  outer loop
    vertex 230.3414168485025 -79.33521312541198 3.0
    vertex 232.3414168485025 -79.33521312541207 16.00000000000001
    vertex 230.3414168485025 -79.33521312541207 16.00000000000001
  endloop
endfacet
facet normal -1.0 0.0 0.0
  outer loop
    vertex 230.3414168485025 -77.335213125412 16.00000000000001
    vertex 230.3414168485025 -79.33521312541198 3.0
    vertex 230.3414168485025 -79.33521312541207 16.00000000000001
  endloop
endfacet
facet normal -1.0 0.0 0.0
  outer loop
    vertex 230.3414168485025 -79.33521312541198 3.0
    vertex 230.3414168485025 -77.335213125412 16.00000000000001
    vertex 230.3414168485025 -77.33521312541198 3.0
  endloop
endfacet
facet normal 3.47909229617876e-30 -1.0 -6.073773962410851e-15
  outer loop
    vertex 402.3414168485025 -79.33521312541198 3.0000000000000004
    vertex 400.34141684850243 -79.33521312541207 16.00000000000001
    vertex 400.3414168485025 -79.33521312541198 2.999999999999999
  endloop
endfacet
facet normal 3.47909229617876e-30 -1.0 -6.073773962410851e-15
  outer loop
    vertex 400.34141684850243 -79.33521312541207 16.00000000000001
    vertex 402.3414168485025 -79.33521312541198 3.0000000000000004
    vertex 402.3414168485025 -79.33521312541207 16.00000000000001
  endloop
endfacet
facet normal 1.0 0.0 0.0
  outer loop
    vertex 212.8414168485024 -84.33521312541198 3.0000000000000084
    vertex 212.8414168485024 -81.83521312541205 16.00000000000001
    vertex 212.8414168485024 -84.33521312541204 16.00000000000001
  endloop
endfacet
facet normal 1.0 0.0 0.0
  outer loop
    vertex 212.8414168485024 -81.83521312541205 16.00000000000001
    vertex 212.8414168485024 -84.33521312541198 3.0000000000000084
    vertex 212.8414168485024 -81.835213125412 3.0
  endloop
endfacet
facet normal 1.0 0.0 0.0
  outer loop
    vertex 212.8414168485024 -79.33521312541198 3.0
    vertex 212.8414168485024 -77.335213125412 16.00000000000001
    vertex 212.8414168485024 -79.33521312541207 16.00000000000001
  endloop
endfacet
facet normal 1.0 0.0 0.0
  outer loop
    vertex 212.8414168485024 -77.335213125412 16.00000000000001
    vertex 212.8414168485024 -79.33521312541198 3.0
    vertex 212.8414168485024 -77.33521312541198 3.0
  endloop
endfacet
facet normal -1.0 -2.0485953236756873e-31 3.24694756936547e-17
  outer loop
    vertex 419.84141684850255 -77.335213125412 16.00000000000001
    vertex 419.84141684850255 -79.33521312541198 3.0
    vertex 419.84141684850255 -79.33521312541207 16.00000000000001
  endloop
endfacet
facet normal -1.0 -2.0485953236756873e-31 3.24694756936547e-17
  outer loop
    vertex 419.84141684850255 -79.33521312541198 3.0
    vertex 419.84141684850255 -77.335213125412 16.00000000000001
    vertex 419.84141684850255 -77.33521312541198 3.0
  endloop
endfacet
facet normal 1.172722045823316e-30 -1.0 -6.680632031199519e-16
  outer loop
    vertex 421.84141684850243 -79.33521312541207 16.00000000000001
    vertex 419.84141684850255 -79.33521312541198 3.0
    vertex 421.84141684850243 -79.33521312541198 3.0
  endloop
endfacet
facet normal 1.172722045823316e-30 -1.0 -6.680632031199519e-16
  outer loop
    vertex 419.84141684850255 -79.33521312541198 3.0
    vertex 421.84141684850243 -79.33521312541207 16.00000000000001
    vertex 419.84141684850255 -79.33521312541207 16.00000000000001
  endloop
endfacet
facet normal -0.0 1.0 -0.0
  outer loop
    vertex 419.84141684850255 -81.835213125412 7.000000000000008
    vertex 421.84141684850243 -81.835213125412 3.0
    vertex 419.84141684850255 -81.835213125412 3.0
  endloop
endfacet
facet normal -0.0 1.0 -0.0
  outer loop
    vertex 421.84141684850243 -81.835213125412 3.0
    vertex 419.84141684850255 -81.835213125412 7.000000000000008
    vertex 421.84141684850243 -81.835213125412 7.000000000000008
  endloop
endfacet
facet normal -1.0 0.0 0.0
  outer loop
    vertex 421.84141684850243 -79.33521312541207 16.00000000000001
    vertex 421.84141684850243 -81.835213125412 7.000000000000008
    vertex 421.84141684850243 -81.83521312541205 16.00000000000001
  endloop
endfacet
facet normal -1.0 0.0 0.0
  outer loop
    vertex 421.84141684850243 -81.835213125412 7.000000000000008
    vertex 421.84141684850243 -79.33521312541207 16.00000000000001
    vertex 421.84141684850243 -81.835213125412 3.0
  endloop
endfacet
facet normal -1.0 0.0 0.0
  outer loop
    vertex 421.84141684850243 -81.835213125412 3.0
    vertex 421.84141684850243 -79.33521312541207 16.00000000000001
    vertex 421.84141684850243 -79.33521312541198 3.0
  endloop
endfacet
facet normal 1.0 -9.020837834884387e-32 5.195116110984754e-17
  outer loop
    vertex 402.3414168485025 -79.33521312541198 3.0000000000000004
    vertex 402.3414168485025 -77.335213125412 16.00000000000001
    vertex 402.3414168485025 -79.33521312541207 16.00000000000001
  endloop
endfacet
facet normal 1.0 -9.020837834884387e-32 5.195116110984754e-17
  outer loop
    vertex 402.3414168485025 -77.335213125412 16.00000000000001
    vertex 402.3414168485025 -79.33521312541198 3.0000000000000004
    vertex 402.3414168485025 -77.33521312541198 3.0000000000000004
  endloop
endfacet
facet normal 6.846460455560319e-47 -1.0 -7.062485035670518e-17
  outer loop
    vertex 230.3414168485025 -77.335213125412 16.00000000000001
    vertex 212.8414168485024 -77.33521312541198 3.0
    vertex 230.3414168485025 -77.33521312541198 3.0
  endloop
endfacet
facet normal 6.846460455560319e-47 -1.0 -7.062485035670518e-17
  outer loop
    vertex 212.8414168485024 -77.33521312541198 3.0
    vertex 230.3414168485025 -77.335213125412 16.00000000000001
    vertex 212.8414168485024 -77.335213125412 16.00000000000001
  endloop
endfacet
facet normal -1.36329066432759e-32 -1.0 -7.062485035670518e-17
  outer loop
    vertex 419.84141684850255 -77.335213125412 16.00000000000001
    vertex 402.3414168485025 -77.33521312541198 3.0000000000000004
    vertex 419.84141684850255 -77.33521312541198 3.0
  endloop
endfacet
facet normal -1.36329066432759e-32 -1.0 -7.062485035670518e-17
  outer loop
    vertex 402.3414168485025 -77.33521312541198 3.0000000000000004
    vertex 419.84141684850255 -77.335213125412 16.00000000000001
    vertex 402.3414168485025 -77.335213125412 16.00000000000001
  endloop
endfacet
facet normal 0.0 1.0 6.633947808082374e-16
  outer loop
    vertex 210.8414168485025 -81.83521312541205 16.00000000000001
    vertex 212.8414168485024 -81.835213125412 3.0
    vertex 210.8414168485025 -81.835213125412 3.0
  endloop
endfacet
facet normal 0.0 1.0 6.633947808082374e-16
  outer loop
    vertex 212.8414168485024 -81.835213125412 3.0
    vertex 210.8414168485025 -81.83521312541205 16.00000000000001
    vertex 212.8414168485024 -81.83521312541205 16.00000000000001
  endloop
endfacet
facet normal 1.0 0.0 0.0
  outer loop
    vertex 210.8414168485025 -81.835213125412 3.0
    vertex 210.8414168485025 -79.33521312541207 16.00000000000001
    vertex 210.8414168485025 -81.83521312541205 16.00000000000001
  endloop
endfacet
facet normal 1.0 0.0 0.0
  outer loop
    vertex 210.8414168485025 -79.33521312541207 16.00000000000001
    vertex 210.8414168485025 -81.835213125412 3.0
    vertex 210.8414168485025 -79.33521312541198 3.0
  endloop
endfacet
facet normal 0.0 -1.0 -6.680632031199519e-16
  outer loop
    vertex 212.8414168485024 -79.33521312541207 16.00000000000001
    vertex 210.8414168485025 -79.33521312541198 3.0
    vertex 212.8414168485024 -79.33521312541198 3.0
  endloop
endfacet
facet normal 0.0 -1.0 -6.680632031199519e-16
  outer loop
    vertex 210.8414168485025 -79.33521312541198 3.0
    vertex 212.8414168485024 -79.33521312541207 16.00000000000001
    vertex 210.8414168485025 -79.33521312541207 16.00000000000001
  endloop
endfacet
facet normal -1.0 0.0 0.0
  outer loop
    vertex 419.84141684850255 -81.835213125412 7.000000000000008
    vertex 419.84141684850255 -84.33521312541198 3.0000000000000084
    vertex 419.84141684850255 -84.33521312541198 7.000000000000008
  endloop
endfacet
facet normal -1.0 0.0 0.0
  outer loop
    vertex 419.84141684850255 -84.33521312541198 3.0000000000000084
    vertex 419.84141684850255 -81.835213125412 7.000000000000008
    vertex 419.84141684850255 -81.835213125412 3.0
  endloop
endfacet
facet normal -3.3421824978345553e-15 -3.75995531006387e-15 1.0
  outer loop
    vertex 422.34141684850243 -87.33521312541205 26.000000000000053
    vertex 408.84141684850243 -86.33521312541204 26.000000000000014
    vertex 408.84141684850243 -87.335213125412 26.000000000000004
  endloop
endfacet
facet normal -3.3421824978345553e-15 -3.75995531006387e-15 1.0
  outer loop
    vertex 408.84141684850243 -86.33521312541204 26.000000000000014
    vertex 422.34141684850243 -87.33521312541205 26.000000000000053
    vertex 422.34141684850243 -86.33521312541205 26.000000000000053
  endloop
endfacet
facet normal 8.057047092994009e-16 1.0 -4.544120550118313e-33
  outer loop
    vertex 408.84141684850243 -86.33521312541204 26.000000000000014
    vertex 422.34141684850243 -86.33521312541205 16.00000000000005
    vertex 408.84141684850243 -86.33521312541204 16.000000000000007
  endloop
endfacet
facet normal 8.057047092994009e-16 1.0 -4.544120550118313e-33
  outer loop
    vertex 422.34141684850243 -86.33521312541205 16.00000000000005
    vertex 408.84141684850243 -86.33521312541204 26.000000000000014
    vertex 422.34141684850243 -86.33521312541205 26.000000000000053
  endloop
endfacet
facet normal -1.455466571637621e-15 1.0 -0.0
  outer loop
    vertex 208.84141684850246 -86.33521312541207 26.000000000000014
    vertex 224.3414168485025 -86.33521312541204 16.00000000000001
    vertex 208.84141684850246 -86.33521312541207 16.00000000000001
  endloop
endfacet
facet normal -1.455466571637621e-15 1.0 -0.0
  outer loop
    vertex 224.3414168485025 -86.33521312541204 16.00000000000001
    vertex 208.84141684850246 -86.33521312541207 26.000000000000014
    vertex 224.3414168485025 -86.33521312541204 26.000000000000014
  endloop
endfacet
facet normal 1.0 0.0 -1.1856714397454454e-16
  outer loop
    vertex 421.84141684850243 -74.335213125412 16.00000000000001
    vertex 421.84141684850243 -75.33521312541201 26.000000000000014
    vertex 421.84141684850243 -75.33521312541201 16.00000000000001
  endloop
endfacet
facet normal 1.0 0.0 -1.1856714397454454e-16
  outer loop
    vertex 421.84141684850243 -75.33521312541201 26.000000000000014
    vertex 421.84141684850243 -74.335213125412 16.00000000000001
    vertex 421.84141684850243 -74.335213125412 26.000000000000014
  endloop
endfacet
facet normal -9.600978925579188e-17 -1.0 -1.3363150263280859e-15
  outer loop
    vertex 424.8414168485025 -87.335213125412 7.049916206369742e-16
    vertex 408.84141684850243 -87.33521312541198 11.000000000000009
    vertex 207.84141684850246 -87.335213125412 7.049916206369747e-16
  endloop
endfacet
facet normal -9.600978925579188e-17 -1.0 -1.3363150263280859e-15
  outer loop
    vertex 408.84141684850243 -87.33521312541198 11.000000000000009
    vertex 424.8414168485025 -87.335213125412 7.049916206369742e-16
    vertex 424.8414168485025 -87.33521312541207 16.00000000000001
  endloop
endfacet
facet normal -9.600978925579188e-17 -1.0 -1.3363150263280859e-15
  outer loop
    vertex 408.84141684850243 -87.33521312541198 11.000000000000009
    vertex 424.8414168485025 -87.33521312541207 16.00000000000001
    vertex 422.34141684850243 -87.33521312541205 16.000000000000053
  endloop
endfacet
facet normal -9.600978925579188e-17 -1.0 -1.3363150263280859e-15
  outer loop
    vertex 408.84141684850243 -87.33521312541198 11.000000000000009
    vertex 422.34141684850243 -87.33521312541205 16.000000000000053
    vertex 408.84141684850243 -87.335213125412 26.000000000000004
  endloop
endfacet
facet normal -9.600978925579188e-17 -1.0 -1.3363150263280859e-15
  outer loop
    vertex 408.84141684850243 -87.335213125412 26.000000000000004
    vertex 422.34141684850243 -87.33521312541205 16.000000000000053
    vertex 422.34141684850243 -87.33521312541205 26.000000000000053
  endloop
endfacet
facet normal -9.600978925579188e-17 -1.0 -1.3363150263280859e-15
  outer loop
    vertex 207.84141684850246 -87.335213125412 7.049916206369747e-16
    vertex 224.3414168485025 -87.33521312541198 11.000000000000014
    vertex 207.84141684850246 -87.33521312541207 26.00000000000006
  endloop
endfacet
facet normal -9.600978925579188e-17 -1.0 -1.3363150263280859e-15
  outer loop
    vertex 224.3414168485025 -87.33521312541198 11.000000000000014
    vertex 207.84141684850246 -87.335213125412 7.049916206369747e-16
    vertex 408.84141684850243 -87.33521312541198 11.000000000000009
  endloop
endfacet
facet normal -9.600978925579188e-17 -1.0 -1.3363150263280859e-15
  outer loop
    vertex 207.84141684850246 -87.33521312541207 26.00000000000006
    vertex 224.3414168485025 -87.33521312541198 11.000000000000014
    vertex 224.3414168485025 -87.33521312541198 25.999999999999996
  endloop
endfacet
facet normal -1.3508751133522194e-18 -3.615341644292176e-16 -1.0
  outer loop
    vertex 424.8414168485025 -74.335213125412 0.0
    vertex 207.84141684850246 -87.335213125412 7.049916206369747e-16
    vertex 207.84141684850246 -74.335213125412 0.0
  endloop
endfacet
facet normal -1.3508751133522194e-18 -3.615341644292176e-16 -1.0
  outer loop
    vertex 207.84141684850246 -87.335213125412 7.049916206369747e-16
    vertex 424.8414168485025 -74.335213125412 0.0
    vertex 424.8414168485025 -87.335213125412 7.049916206369742e-16
  endloop
endfacet
facet normal -1.0 0.0 0.0
  outer loop
    vertex 408.84141684850243 -86.33521312541204 26.000000000000014
    vertex 408.84141684850243 -87.33521312541198 11.000000000000009
    vertex 408.84141684850243 -87.335213125412 26.000000000000004
  endloop
endfacet
facet normal -1.0 0.0 0.0
  outer loop
    vertex 408.84141684850243 -87.33521312541198 11.000000000000009
    vertex 408.84141684850243 -86.33521312541204 26.000000000000014
    vertex 408.84141684850243 -86.33521312541204 16.000000000000007
  endloop
endfacet
facet normal -1.0 0.0 0.0
  outer loop
    vertex 408.84141684850243 -87.33521312541198 11.000000000000009
    vertex 408.84141684850243 -86.33521312541204 16.000000000000007
    vertex 408.84141684850243 -84.33521312541204 11.000000000000014
  endloop
endfacet
facet normal -1.0 0.0 0.0
  outer loop
    vertex 408.84141684850243 -84.33521312541204 11.000000000000014
    vertex 408.84141684850243 -86.33521312541204 16.000000000000007
    vertex 408.84141684850243 -84.33521312541204 16.00000000000001
  endloop
endfacet
facet normal 1.0 0.0 3.3421824978345557e-15
  outer loop
    vertex 422.34141684850243 -86.33521312541205 16.00000000000005
    vertex 422.34141684850243 -87.33521312541205 26.000000000000053
    vertex 422.34141684850243 -87.33521312541205 16.000000000000053
  endloop
endfacet
facet normal 1.0 0.0 3.3421824978345557e-15
  outer loop
    vertex 422.34141684850243 -87.33521312541205 26.000000000000053
    vertex 422.34141684850243 -86.33521312541205 16.00000000000005
    vertex 422.34141684850243 -86.33521312541205 26.000000000000053
  endloop
endfacet
facet normal 1.0 -0.0 -0.0
  outer loop
    vertex 424.8414168485025 -87.335213125412 7.049916206369742e-16
    vertex 424.8414168485025 -84.33521312541204 16.00000000000001
    vertex 424.8414168485025 -87.33521312541207 16.00000000000001
  endloop
endfacet
facet normal 1.0 -0.0 -0.0
  outer loop
    vertex 424.8414168485025 -84.33521312541204 16.00000000000001
    vertex 424.8414168485025 -87.335213125412 7.049916206369742e-16
    vertex 424.8414168485025 -84.33521312541198 7.000000000000008
  endloop
endfacet
facet normal 1.0 -0.0 -0.0
  outer loop
    vertex 424.8414168485025 -84.33521312541198 7.000000000000008
    vertex 424.8414168485025 -87.335213125412 7.049916206369742e-16
    vertex 424.8414168485025 -74.335213125412 0.0
  endloop
endfacet
facet normal 1.0 -0.0 -0.0
  outer loop
    vertex 424.8414168485025 -84.33521312541198 7.000000000000008
    vertex 424.8414168485025 -74.335213125412 0.0
    vertex 424.8414168485025 -81.835213125412 7.000000000000008
  endloop
endfacet
facet normal 1.0 -0.0 -0.0
  outer loop
    vertex 424.8414168485025 -81.835213125412 7.000000000000008
    vertex 424.8414168485025 -74.335213125412 16.00000000000001
    vertex 424.8414168485025 -81.83521312541205 16.00000000000001
  endloop
endfacet
facet normal 1.0 -0.0 -0.0
  outer loop
    vertex 424.8414168485025 -74.335213125412 16.00000000000001
    vertex 424.8414168485025 -81.835213125412 7.000000000000008
    vertex 424.8414168485025 -74.335213125412 0.0
  endloop
endfacet
facet normal 1.0217269864303977e-17 -9.399888275159748e-16 1.0
  outer loop
    vertex 408.84141684850243 -87.33521312541198 11.000000000000009
    vertex 224.3414168485025 -84.33521312541204 11.000000000000014
    vertex 224.3414168485025 -87.33521312541198 11.000000000000014
  endloop
endfacet
facet normal 1.0217269864303977e-17 -9.399888275159748e-16 1.0
  outer loop
    vertex 224.3414168485025 -84.33521312541204 11.000000000000014
    vertex 408.84141684850243 -87.33521312541198 11.000000000000009
    vertex 408.84141684850243 -84.33521312541204 11.000000000000014
  endloop
endfacet
facet normal 1.0 0.0 -1.1856714397454454e-16
  outer loop
    vertex 208.84141684850246 -75.335213125412 16.00000000000001
    vertex 208.84141684850246 -86.33521312541207 26.000000000000014
    vertex 208.84141684850246 -86.33521312541207 16.00000000000001
  endloop
endfacet
facet normal 1.0 0.0 -1.1856714397454454e-16
  outer loop
    vertex 208.84141684850246 -86.33521312541207 26.000000000000014
    vertex 208.84141684850246 -75.335213125412 16.00000000000001
    vertex 208.84141684850246 -75.335213125412 26.000000000000014
  endloop
endfacet
facet normal -1.0 0.0 0.0
  outer loop
    vertex 207.84141684850246 -74.335213125412 26.00000000000006
    vertex 207.84141684850246 -87.335213125412 7.049916206369747e-16
    vertex 207.84141684850246 -87.33521312541207 26.00000000000006
  endloop
endfacet
facet normal -1.0 0.0 0.0
  outer loop
    vertex 207.84141684850246 -87.335213125412 7.049916206369747e-16
    vertex 207.84141684850246 -74.335213125412 26.00000000000006
    vertex 207.84141684850246 -74.335213125412 0.0
  endloop
endfacet
facet normal -7.476974363937662e-16 5.923419299247451e-15 1.0
  outer loop
    vertex 424.8414168485025 -87.33521312541207 16.00000000000001
    vertex 422.34141684850243 -86.33521312541205 16.00000000000005
    vertex 422.34141684850243 -87.33521312541205 16.000000000000053
  endloop
endfacet
facet normal -7.476974363937662e-16 5.923419299247451e-15 1.0
  outer loop
    vertex 422.34141684850243 -86.33521312541205 16.00000000000005
    vertex 408.84141684850243 -84.33521312541204 16.00000000000001
    vertex 408.84141684850243 -86.33521312541204 16.000000000000007
  endloop
endfacet
facet normal -7.476974363937662e-16 5.923419299247451e-15 1.0
  outer loop
    vertex 408.84141684850243 -84.33521312541204 16.00000000000001
    vertex 422.34141684850243 -86.33521312541205 16.00000000000005
    vertex 424.8414168485025 -84.33521312541204 16.00000000000001
  endloop
endfacet
facet normal -7.476974363937662e-16 5.923419299247451e-15 1.0
  outer loop
    vertex 424.8414168485025 -84.33521312541204 16.00000000000001
    vertex 422.34141684850243 -86.33521312541205 16.00000000000005
    vertex 424.8414168485025 -87.33521312541207 16.00000000000001
  endloop
endfacet
facet normal -0.0 -0.0 1.0
  outer loop
    vertex 424.8414168485025 -84.33521312541198 7.000000000000008
    vertex 419.84141684850255 -81.835213125412 7.000000000000008
    vertex 419.84141684850255 -84.33521312541198 7.000000000000008
  endloop
endfacet
facet normal -0.0 -0.0 1.0
  outer loop
    vertex 419.84141684850255 -81.835213125412 7.000000000000008
    vertex 424.8414168485025 -84.33521312541198 7.000000000000008
    vertex 421.84141684850243 -81.835213125412 7.000000000000008
  endloop
endfacet
facet normal -0.0 -0.0 1.0
  outer loop
    vertex 421.84141684850243 -81.835213125412 7.000000000000008
    vertex 424.8414168485025 -84.33521312541198 7.000000000000008
    vertex 424.8414168485025 -81.835213125412 7.000000000000008
  endloop
endfacet
facet normal 0.0 -1.0 -5.206091967780732e-15
  outer loop
    vertex 424.8414168485025 -81.83521312541205 16.00000000000001
    vertex 421.84141684850243 -81.835213125412 7.000000000000008
    vertex 424.8414168485025 -81.835213125412 7.000000000000008
  endloop
endfacet
facet normal 0.0 -1.0 -5.206091967780732e-15
  outer loop
    vertex 421.84141684850243 -81.835213125412 7.000000000000008
    vertex 424.8414168485025 -81.83521312541205 16.00000000000001
    vertex 421.84141684850243 -81.83521312541205 16.00000000000001
  endloop
endfacet
facet normal 1.0 -0.0 -0.0
  outer loop
    vertex 224.3414168485025 -87.33521312541198 11.000000000000014
    vertex 224.3414168485025 -86.33521312541204 16.00000000000001
    vertex 224.3414168485025 -87.33521312541198 25.999999999999996
  endloop
endfacet
facet normal 1.0 -0.0 -0.0
  outer loop
    vertex 224.3414168485025 -86.33521312541204 16.00000000000001
    vertex 224.3414168485025 -87.33521312541198 11.000000000000014
    vertex 224.3414168485025 -84.33521312541204 11.000000000000014
  endloop
endfacet
facet normal 1.0 -0.0 -0.0
  outer loop
    vertex 224.3414168485025 -86.33521312541204 16.00000000000001
    vertex 224.3414168485025 -84.33521312541204 11.000000000000014
    vertex 224.3414168485025 -84.33521312541204 16.00000000000001
  endloop
endfacet
facet normal 1.0 -0.0 -0.0
  outer loop
    vertex 224.3414168485025 -86.33521312541204 26.000000000000014
    vertex 224.3414168485025 -87.33521312541198 25.999999999999996
    vertex 224.3414168485025 -86.33521312541204 16.00000000000001
  endloop
endfacet
facet normal 8.938810483348388e-17 -2.921786507493296e-16 1.0
  outer loop
    vertex 421.84141684850243 -79.33521312541207 16.00000000000001
    vertex 419.84141684850255 -77.335213125412 16.00000000000001
    vertex 419.84141684850255 -79.33521312541207 16.00000000000001
  endloop
endfacet
facet normal 8.938810483348388e-17 -2.921786507493296e-16 1.0
  outer loop
    vertex 424.8414168485025 -81.83521312541205 16.00000000000001
    vertex 421.84141684850243 -79.33521312541207 16.00000000000001
    vertex 421.84141684850243 -81.83521312541205 16.00000000000001
  endloop
endfacet
facet normal 8.938810483348388e-17 -2.921786507493296e-16 1.0
  outer loop
    vertex 421.84141684850243 -79.33521312541207 16.00000000000001
    vertex 424.8414168485025 -81.83521312541205 16.00000000000001
    vertex 421.84141684850243 -75.33521312541201 16.00000000000001
  endloop
endfacet
facet normal 8.938810483348388e-17 -2.921786507493296e-16 1.0
  outer loop
    vertex 421.84141684850243 -75.33521312541201 16.00000000000001
    vertex 424.8414168485025 -81.83521312541205 16.00000000000001
    vertex 421.84141684850243 -74.335213125412 16.00000000000001
  endloop
endfacet
facet normal 8.938810483348388e-17 -2.921786507493296e-16 1.0
  outer loop
    vertex 421.84141684850243 -74.335213125412 16.00000000000001
    vertex 424.8414168485025 -81.83521312541205 16.00000000000001
    vertex 424.8414168485025 -74.335213125412 16.00000000000001
  endloop
endfacet
facet normal 8.938810483348388e-17 -2.921786507493296e-16 1.0
  outer loop
    vertex 402.3414168485025 -79.33521312541207 16.00000000000001
    vertex 400.34141684850243 -75.33521312541201 16.000000000000014
    vertex 400.34141684850243 -79.33521312541207 16.00000000000001
  endloop
endfacet
facet normal 8.938810483348388e-17 -2.921786507493296e-16 1.0
  outer loop
    vertex 400.34141684850243 -75.33521312541201 16.000000000000014
    vertex 402.3414168485025 -79.33521312541207 16.00000000000001
    vertex 402.3414168485025 -77.335213125412 16.00000000000001
  endloop
endfacet
facet normal 8.938810483348388e-17 -2.921786507493296e-16 1.0
  outer loop
    vertex 400.34141684850243 -75.33521312541201 16.000000000000014
    vertex 402.3414168485025 -77.335213125412 16.00000000000001
    vertex 410.34141684850255 -75.33521312541201 16.000000000000014
  endloop
endfacet
facet normal 8.938810483348388e-17 -2.921786507493296e-16 1.0
  outer loop
    vertex 410.34141684850255 -75.33521312541201 16.000000000000014
    vertex 402.3414168485025 -77.335213125412 16.00000000000001
    vertex 419.84141684850255 -77.335213125412 16.00000000000001
  endloop
endfacet
facet normal 8.938810483348388e-17 -2.921786507493296e-16 1.0
  outer loop
    vertex 410.34141684850255 -75.33521312541201 16.000000000000014
    vertex 419.84141684850255 -77.335213125412 16.00000000000001
    vertex 421.84141684850243 -75.33521312541201 16.00000000000001
  endloop
endfacet
facet normal 8.938810483348388e-17 -2.921786507493296e-16 1.0
  outer loop
    vertex 421.84141684850243 -75.33521312541201 16.00000000000001
    vertex 419.84141684850255 -77.335213125412 16.00000000000001
    vertex 421.84141684850243 -79.33521312541207 16.00000000000001
  endloop
endfacet
facet normal 0.0 -1.0 0.0
  outer loop
    vertex 421.84141684850243 -75.33521312541201 26.000000000000014
    vertex 410.34141684850255 -75.33521312541201 16.000000000000014
    vertex 421.84141684850243 -75.33521312541201 16.00000000000001
  endloop
endfacet
facet normal 0.0 -1.0 0.0
  outer loop
    vertex 410.34141684850255 -75.33521312541201 16.000000000000014
    vertex 421.84141684850243 -75.33521312541201 26.000000000000014
    vertex 410.34141684850255 -75.33521312541201 26.000000000000014
  endloop
endfacet
facet normal -1.0 -5.639932965095705e-15 -1.7353639892602614e-15
  outer loop
    vertex 400.34141684850243 -75.33521312541201 16.000000000000014
    vertex 400.3414168485025 -79.33521312541198 2.999999999999999
    vertex 400.34141684850243 -79.33521312541207 16.00000000000001
  endloop
endfacet
facet normal -1.0 -5.639932965095705e-15 -1.7353639892602614e-15
  outer loop
    vertex 400.3414168485025 -79.33521312541198 2.999999999999999
    vertex 400.34141684850243 -75.33521312541201 16.000000000000014
    vertex 400.34141684850243 -75.33521312541201 3.000000000000013
  endloop
endfacet
facet normal 1.0 -0.0 -0.0
  outer loop
    vertex 232.3414168485025 -79.33521312541198 3.0
    vertex 232.3414168485025 -75.335213125412 16.00000000000001
    vertex 232.3414168485025 -79.33521312541207 16.00000000000001
  endloop
endfacet
facet normal 1.0 -0.0 -0.0
  outer loop
    vertex 232.3414168485025 -75.335213125412 16.00000000000001
    vertex 232.3414168485025 -79.33521312541198 3.0
    vertex 232.3414168485025 -75.335213125412 3.000000000000007
  endloop
endfacet
facet normal 1.7508469077600589e-15 -4.3149131437142853e-16 1.0
  outer loop
    vertex 207.84141684850246 -87.33521312541207 26.00000000000006
    vertex 208.84141684850246 -86.33521312541207 26.000000000000014
    vertex 207.84141684850246 -74.335213125412 26.00000000000006
  endloop
endfacet
facet normal 1.7508469077600589e-15 -4.3149131437142853e-16 1.0
  outer loop
    vertex 208.84141684850246 -86.33521312541207 26.000000000000014
    vertex 207.84141684850246 -87.33521312541207 26.00000000000006
    vertex 224.3414168485025 -87.33521312541198 25.999999999999996
  endloop
endfacet
facet normal 1.7508469077600589e-15 -4.3149131437142853e-16 1.0
  outer loop
    vertex 208.84141684850246 -86.33521312541207 26.000000000000014
    vertex 224.3414168485025 -87.33521312541198 25.999999999999996
    vertex 224.3414168485025 -86.33521312541204 26.000000000000014
  endloop
endfacet
facet normal 1.7508469077600589e-15 -4.3149131437142853e-16 1.0
  outer loop
    vertex 207.84141684850246 -74.335213125412 26.00000000000006
    vertex 208.84141684850246 -75.335213125412 26.000000000000014
    vertex 222.34141684850252 -74.335213125412 26.00000000000002
  endloop
endfacet
facet normal 1.7508469077600589e-15 -4.3149131437142853e-16 1.0
  outer loop
    vertex 208.84141684850246 -75.335213125412 26.000000000000014
    vertex 207.84141684850246 -74.335213125412 26.00000000000006
    vertex 208.84141684850246 -86.33521312541207 26.000000000000014
  endloop
endfacet
facet normal 1.7508469077600589e-15 -4.3149131437142853e-16 1.0
  outer loop
    vertex 222.34141684850252 -74.335213125412 26.00000000000002
    vertex 208.84141684850246 -75.335213125412 26.000000000000014
    vertex 222.34141684850252 -75.335213125412 26.00000000000002
  endloop
endfacet
facet normal -0.0 -0.0 1.0
  outer loop
    vertex 421.84141684850243 -75.33521312541201 26.000000000000014
    vertex 410.34141684850255 -74.33521312541201 26.000000000000014
    vertex 410.34141684850255 -75.33521312541201 26.000000000000014
  endloop
endfacet
facet normal -0.0 -0.0 1.0
  outer loop
    vertex 410.34141684850255 -74.33521312541201 26.000000000000014
    vertex 421.84141684850243 -75.33521312541201 26.000000000000014
    vertex 421.84141684850243 -74.335213125412 26.000000000000014
  endloop
endfacet
facet normal -1.0 0.0 0.0
  outer loop
    vertex 410.34141684850255 -74.33521312541201 26.000000000000014
    vertex 410.34141684850255 -75.33521312541201 16.000000000000014
    vertex 410.34141684850255 -75.33521312541201 26.000000000000014
  endloop
endfacet
facet normal -1.0 0.0 0.0
  outer loop
    vertex 410.34141684850255 -75.33521312541201 16.000000000000014
    vertex 410.34141684850255 -74.33521312541201 26.000000000000014
    vertex 410.34141684850255 -75.33521312541201 3.000000000000013
  endloop
endfacet
facet normal -1.0 0.0 0.0
  outer loop
    vertex 410.34141684850255 -75.33521312541201 3.000000000000013
    vertex 410.34141684850255 -74.33521312541201 26.000000000000014
    vertex 410.34141684850255 -74.33521312541201 3.000000000000013
  endloop
endfacet
facet normal -0.0 -0.0 1.0
  outer loop
    vertex 208.84141684850246 -86.33521312541207 16.00000000000001
    vertex 210.8414168485025 -81.83521312541205 16.00000000000001
    vertex 208.84141684850246 -75.335213125412 16.00000000000001
  endloop
endfacet
facet normal -0.0 -0.0 1.0
  outer loop
    vertex 210.8414168485025 -81.83521312541205 16.00000000000001
    vertex 208.84141684850246 -86.33521312541207 16.00000000000001
    vertex 212.8414168485024 -84.33521312541204 16.00000000000001
  endloop
endfacet
facet normal -0.0 -0.0 1.0
  outer loop
    vertex 212.8414168485024 -84.33521312541204 16.00000000000001
    vertex 208.84141684850246 -86.33521312541207 16.00000000000001
    vertex 224.3414168485025 -86.33521312541204 16.00000000000001
  endloop
endfacet
facet normal -0.0 -0.0 1.0
  outer loop
    vertex 212.8414168485024 -84.33521312541204 16.00000000000001
    vertex 224.3414168485025 -86.33521312541204 16.00000000000001
    vertex 224.3414168485025 -84.33521312541204 16.00000000000001
  endloop
endfacet
facet normal -0.0 -0.0 1.0
  outer loop
    vertex 212.8414168485024 -81.83521312541205 16.00000000000001
    vertex 210.8414168485025 -81.83521312541205 16.00000000000001
    vertex 212.8414168485024 -84.33521312541204 16.00000000000001
  endloop
endfacet
facet normal -0.0 -0.0 1.0
  outer loop
    vertex 232.3414168485025 -79.33521312541207 16.00000000000001
    vertex 230.3414168485025 -77.335213125412 16.00000000000001
    vertex 230.3414168485025 -79.33521312541207 16.00000000000001
  endloop
endfacet
facet normal -0.0 -0.0 1.0
  outer loop
    vertex 208.84141684850246 -75.335213125412 16.00000000000001
    vertex 212.8414168485024 -77.335213125412 16.00000000000001
    vertex 222.34141684850252 -75.335213125412 16.00000000000001
  endloop
endfacet
facet normal -0.0 -0.0 1.0
  outer loop
    vertex 212.8414168485024 -77.335213125412 16.00000000000001
    vertex 208.84141684850246 -75.335213125412 16.00000000000001
    vertex 210.8414168485025 -79.33521312541207 16.00000000000001
  endloop
endfacet
facet normal -0.0 -0.0 1.0
  outer loop
    vertex 210.8414168485025 -79.33521312541207 16.00000000000001
    vertex 208.84141684850246 -75.335213125412 16.00000000000001
    vertex 210.8414168485025 -81.83521312541205 16.00000000000001
  endloop
endfacet
facet normal -0.0 -0.0 1.0
  outer loop
    vertex 212.8414168485024 -77.335213125412 16.00000000000001
    vertex 210.8414168485025 -79.33521312541207 16.00000000000001
    vertex 212.8414168485024 -79.33521312541207 16.00000000000001
  endloop
endfacet
facet normal -0.0 -0.0 1.0
  outer loop
    vertex 222.34141684850252 -75.335213125412 16.00000000000001
    vertex 212.8414168485024 -77.335213125412 16.00000000000001
    vertex 230.3414168485025 -77.335213125412 16.00000000000001
  endloop
endfacet
facet normal -0.0 -0.0 1.0
  outer loop
    vertex 222.34141684850252 -75.335213125412 16.00000000000001
    vertex 230.3414168485025 -77.335213125412 16.00000000000001
    vertex 232.3414168485025 -75.335213125412 16.00000000000001
  endloop
endfacet
facet normal -0.0 -0.0 1.0
  outer loop
    vertex 232.3414168485025 -75.335213125412 16.00000000000001
    vertex 230.3414168485025 -77.335213125412 16.00000000000001
    vertex 232.3414168485025 -79.33521312541207 16.00000000000001
  endloop
endfacet
facet normal -0.0 1.0 -0.0
  outer loop
    vertex 400.34141684850243 -75.33521312541201 16.000000000000014
    vertex 410.34141684850255 -75.33521312541201 3.000000000000013
    vertex 400.34141684850243 -75.33521312541201 3.000000000000013
  endloop
endfacet
facet normal -0.0 1.0 -0.0
  outer loop
    vertex 410.34141684850255 -75.33521312541201 3.000000000000013
    vertex 400.34141684850243 -75.33521312541201 16.000000000000014
    vertex 410.34141684850255 -75.33521312541201 16.000000000000014
  endloop
endfacet
facet normal 1.0 0.0 0.0
  outer loop
    vertex 222.34141684850252 -74.335213125412 3.000000000000007
    vertex 222.34141684850252 -75.335213125412 16.00000000000001
    vertex 222.34141684850252 -75.335213125412 3.000000000000007
  endloop
endfacet
facet normal 1.0 0.0 0.0
  outer loop
    vertex 222.34141684850252 -75.335213125412 16.00000000000001
    vertex 222.34141684850252 -74.335213125412 3.000000000000007
    vertex 222.34141684850252 -75.335213125412 26.00000000000002
  endloop
endfacet
facet normal 1.0 0.0 0.0
  outer loop
    vertex 222.34141684850252 -75.335213125412 26.00000000000002
    vertex 222.34141684850252 -74.335213125412 3.000000000000007
    vertex 222.34141684850252 -74.335213125412 26.00000000000002
  endloop
endfacet
facet normal -0.0 1.0 -0.0
  outer loop
    vertex 222.34141684850252 -75.335213125412 16.00000000000001
    vertex 232.3414168485025 -75.335213125412 3.000000000000007
    vertex 222.34141684850252 -75.335213125412 3.000000000000007
  endloop
endfacet
facet normal -0.0 1.0 -0.0
  outer loop
    vertex 232.3414168485025 -75.335213125412 3.000000000000007
    vertex 222.34141684850252 -75.335213125412 16.00000000000001
    vertex 232.3414168485025 -75.335213125412 16.00000000000001
  endloop
endfacet
facet normal 0.0 -1.0 0.0
  outer loop
    vertex 222.34141684850252 -75.335213125412 26.00000000000002
    vertex 208.84141684850246 -75.335213125412 16.00000000000001
    vertex 222.34141684850252 -75.335213125412 16.00000000000001
  endloop
endfacet
facet normal 0.0 -1.0 0.0
  outer loop
    vertex 208.84141684850246 -75.335213125412 16.00000000000001
    vertex 222.34141684850252 -75.335213125412 26.00000000000002
    vertex 208.84141684850246 -75.335213125412 26.000000000000014
  endloop
endfacet
facet normal -7.281539763430791e-18 -2.919618637945475e-16 1.0
  outer loop
    vertex 212.8414168485024 -81.835213125412 3.0
    vertex 210.8414168485025 -79.33521312541198 3.0
    vertex 210.8414168485025 -81.835213125412 3.0
  endloop
endfacet
facet normal -7.281539763430791e-18 -2.919618637945475e-16 1.0
  outer loop
    vertex 210.8414168485025 -79.33521312541198 3.0
    vertex 212.8414168485024 -81.835213125412 3.0
    vertex 212.8414168485024 -79.33521312541198 3.0
  endloop
endfacet
facet normal -7.281539763430791e-18 -2.919618637945475e-16 1.0
  outer loop
    vertex 421.84141684850243 -81.835213125412 3.0
    vertex 419.84141684850255 -79.33521312541198 3.0
    vertex 419.84141684850255 -81.835213125412 3.0
  endloop
endfacet
facet normal -7.281539763430791e-18 -2.919618637945475e-16 1.0
  outer loop
    vertex 419.84141684850255 -79.33521312541198 3.0
    vertex 421.84141684850243 -81.835213125412 3.0
    vertex 421.84141684850243 -79.33521312541198 3.0
  endloop
endfacet
facet normal -7.281539763430791e-18 -2.919618637945475e-16 1.0
  outer loop
    vertex 419.84141684850255 -84.33521312541198 3.0000000000000084
    vertex 212.8414168485024 -81.835213125412 3.0
    vertex 212.8414168485024 -84.33521312541198 3.0000000000000084
  endloop
endfacet
facet normal -7.281539763430791e-18 -2.919618637945475e-16 1.0
  outer loop
    vertex 212.8414168485024 -81.835213125412 3.0
    vertex 419.84141684850255 -84.33521312541198 3.0000000000000084
    vertex 212.8414168485024 -79.33521312541198 3.0
  endloop
endfacet
facet normal -7.281539763430791e-18 -2.919618637945475e-16 1.0
  outer loop
    vertex 212.8414168485024 -79.33521312541198 3.0
    vertex 419.84141684850255 -84.33521312541198 3.0000000000000084
    vertex 230.3414168485025 -79.33521312541198 3.0
  endloop
endfacet
facet normal -7.281539763430791e-18 -2.919618637945475e-16 1.0
  outer loop
    vertex 212.8414168485024 -79.33521312541198 3.0
    vertex 230.3414168485025 -79.33521312541198 3.0
    vertex 212.8414168485024 -77.33521312541198 3.0
  endloop
endfacet
facet normal -7.281539763430791e-18 -2.919618637945475e-16 1.0
  outer loop
    vertex 230.3414168485025 -79.33521312541198 3.0
    vertex 419.84141684850255 -84.33521312541198 3.0000000000000084
    vertex 232.3414168485025 -79.33521312541198 3.0
  endloop
endfacet
facet normal -7.281539763430791e-18 -2.919618637945475e-16 1.0
  outer loop
    vertex 232.3414168485025 -79.33521312541198 3.0
    vertex 419.84141684850255 -84.33521312541198 3.0000000000000084
    vertex 232.3414168485025 -75.335213125412 3.000000000000007
  endloop
endfacet
facet normal -7.281539763430791e-18 -2.919618637945475e-16 1.0
  outer loop
    vertex 232.3414168485025 -75.335213125412 3.000000000000007
    vertex 419.84141684850255 -84.33521312541198 3.0000000000000084
    vertex 400.3414168485025 -79.33521312541198 2.999999999999999
  endloop
endfacet
facet normal -7.281539763430791e-18 -2.919618637945475e-16 1.0
  outer loop
    vertex 232.3414168485025 -75.335213125412 3.000000000000007
    vertex 400.3414168485025 -79.33521312541198 2.999999999999999
    vertex 400.34141684850243 -75.33521312541201 3.000000000000013
  endloop
endfacet
facet normal -7.281539763430791e-18 -2.919618637945475e-16 1.0
  outer loop
    vertex 400.3414168485025 -79.33521312541198 2.999999999999999
    vertex 419.84141684850255 -84.33521312541198 3.0000000000000084
    vertex 402.3414168485025 -79.33521312541198 3.0000000000000004
  endloop
endfacet
facet normal -7.281539763430791e-18 -2.919618637945475e-16 1.0
  outer loop
    vertex 402.3414168485025 -79.33521312541198 3.0000000000000004
    vertex 419.84141684850255 -84.33521312541198 3.0000000000000084
    vertex 402.3414168485025 -77.33521312541198 3.0000000000000004
  endloop
endfacet
facet normal -7.281539763430791e-18 -2.919618637945475e-16 1.0
  outer loop
    vertex 402.3414168485025 -77.33521312541198 3.0000000000000004
    vertex 419.84141684850255 -84.33521312541198 3.0000000000000084
    vertex 419.84141684850255 -77.33521312541198 3.0
  endloop
endfacet
facet normal -7.281539763430791e-18 -2.919618637945475e-16 1.0
  outer loop
    vertex 419.84141684850255 -77.33521312541198 3.0
    vertex 419.84141684850255 -84.33521312541198 3.0000000000000084
    vertex 419.84141684850255 -81.835213125412 3.0
  endloop
endfacet
facet normal -7.281539763430791e-18 -2.919618637945475e-16 1.0
  outer loop
    vertex 419.84141684850255 -77.33521312541198 3.0
    vertex 419.84141684850255 -81.835213125412 3.0
    vertex 419.84141684850255 -79.33521312541198 3.0
  endloop
endfacet
facet normal -7.281539763430791e-18 -2.919618637945475e-16 1.0
  outer loop
    vertex 232.3414168485025 -75.335213125412 3.000000000000007
    vertex 222.34141684850252 -74.335213125412 3.000000000000007
    vertex 222.34141684850252 -75.335213125412 3.000000000000007
  endloop
endfacet
facet normal -7.281539763430791e-18 -2.919618637945475e-16 1.0
  outer loop
    vertex 222.34141684850252 -74.335213125412 3.000000000000007
    vertex 232.3414168485025 -75.335213125412 3.000000000000007
    vertex 410.34141684850255 -74.33521312541201 3.000000000000013
  endloop
endfacet
facet normal -7.281539763430791e-18 -2.919618637945475e-16 1.0
  outer loop
    vertex 410.34141684850255 -74.33521312541201 3.000000000000013
    vertex 232.3414168485025 -75.335213125412 3.000000000000007
    vertex 400.34141684850243 -75.33521312541201 3.000000000000013
  endloop
endfacet
facet normal -7.281539763430791e-18 -2.919618637945475e-16 1.0
  outer loop
    vertex 410.34141684850255 -74.33521312541201 3.000000000000013
    vertex 400.34141684850243 -75.33521312541201 3.000000000000013
    vertex 410.34141684850255 -75.33521312541201 3.000000000000013
  endloop
endfacet
facet normal -7.281539763430791e-18 -2.919618637945475e-16 1.0
  outer loop
    vertex 230.3414168485025 -77.33521312541198 3.0
    vertex 212.8414168485024 -77.33521312541198 3.0
    vertex 230.3414168485025 -79.33521312541198 3.0
  endloop
endfacet
facet normal 2.2793765089230186e-17 1.0 -4.138727695774125e-17
  outer loop
    vertex 207.84141684850246 -74.335213125412 0.0
    vertex 222.34141684850252 -74.335213125412 3.000000000000007
    vertex 424.8414168485025 -74.335213125412 0.0
  endloop
endfacet
facet normal 2.2793765089230186e-17 1.0 -4.138727695774125e-17
  outer loop
    vertex 222.34141684850252 -74.335213125412 3.000000000000007
    vertex 207.84141684850246 -74.335213125412 0.0
    vertex 207.84141684850246 -74.335213125412 26.00000000000006
  endloop
endfacet
facet normal 2.2793765089230186e-17 1.0 -4.138727695774125e-17
  outer loop
    vertex 222.34141684850252 -74.335213125412 3.000000000000007
    vertex 207.84141684850246 -74.335213125412 26.00000000000006
    vertex 222.34141684850252 -74.335213125412 26.00000000000002
  endloop
endfacet
facet normal 2.2793765089230186e-17 1.0 -4.138727695774125e-17
  outer loop
    vertex 410.34141684850255 -74.33521312541201 26.000000000000014
    vertex 421.84141684850243 -74.335213125412 16.00000000000001
    vertex 410.34141684850255 -74.33521312541201 3.000000000000013
  endloop
endfacet
facet normal 2.2793765089230186e-17 1.0 -4.138727695774125e-17
  outer loop
    vertex 421.84141684850243 -74.335213125412 16.00000000000001
    vertex 410.34141684850255 -74.33521312541201 26.000000000000014
    vertex 421.84141684850243 -74.335213125412 26.000000000000014
  endloop
endfacet
facet normal 2.2793765089230186e-17 1.0 -4.138727695774125e-17
  outer loop
    vertex 424.8414168485025 -74.335213125412 0.0
    vertex 410.34141684850255 -74.33521312541201 3.000000000000013
    vertex 424.8414168485025 -74.335213125412 16.00000000000001
  endloop
endfacet
facet normal 2.2793765089230186e-17 1.0 -4.138727695774125e-17
  outer loop
    vertex 410.34141684850255 -74.33521312541201 3.000000000000013
    vertex 424.8414168485025 -74.335213125412 0.0
    vertex 222.34141684850252 -74.335213125412 3.000000000000007
  endloop
endfacet
facet normal 2.2793765089230186e-17 1.0 -4.138727695774125e-17
  outer loop
    vertex 424.8414168485025 -74.335213125412 16.00000000000001
    vertex 410.34141684850255 -74.33521312541201 3.000000000000013
    vertex 421.84141684850243 -74.335213125412 16.00000000000001
  endloop
endfacet
facet normal -2.834401499091507e-17 1.0 3.856805323568375e-15
  outer loop
    vertex 212.8414168485024 -84.33521312541198 3.0000000000000084
    vertex 224.3414168485025 -84.33521312541204 11.000000000000014
    vertex 419.84141684850255 -84.33521312541198 3.0000000000000084
  endloop
endfacet
facet normal -2.834401499091507e-17 1.0 3.856805323568375e-15
  outer loop
    vertex 224.3414168485025 -84.33521312541204 11.000000000000014
    vertex 212.8414168485024 -84.33521312541198 3.0000000000000084
    vertex 212.8414168485024 -84.33521312541204 16.00000000000001
  endloop
endfacet
facet normal -2.834401499091507e-17 1.0 3.856805323568375e-15
  outer loop
    vertex 419.84141684850255 -84.33521312541198 3.0000000000000084
    vertex 224.3414168485025 -84.33521312541204 11.000000000000014
    vertex 419.84141684850255 -84.33521312541198 7.000000000000008
  endloop
endfacet
facet normal -2.834401499091507e-17 1.0 3.856805323568375e-15
  outer loop
    vertex 419.84141684850255 -84.33521312541198 7.000000000000008
    vertex 224.3414168485025 -84.33521312541204 11.000000000000014
    vertex 424.8414168485025 -84.33521312541198 7.000000000000008
  endloop
endfacet
facet normal -2.834401499091507e-17 1.0 3.856805323568375e-15
  outer loop
    vertex 224.3414168485025 -84.33521312541204 11.000000000000014
    vertex 212.8414168485024 -84.33521312541204 16.00000000000001
    vertex 224.3414168485025 -84.33521312541204 16.00000000000001
  endloop
endfacet
facet normal -2.834401499091507e-17 1.0 3.856805323568375e-15
  outer loop
    vertex 424.8414168485025 -84.33521312541198 7.000000000000008
    vertex 408.84141684850243 -84.33521312541204 11.000000000000014
    vertex 424.8414168485025 -84.33521312541204 16.00000000000001
  endloop
endfacet
facet normal -2.834401499091507e-17 1.0 3.856805323568375e-15
  outer loop
    vertex 408.84141684850243 -84.33521312541204 11.000000000000014
    vertex 424.8414168485025 -84.33521312541198 7.000000000000008
    vertex 224.3414168485025 -84.33521312541204 11.000000000000014
  endloop
endfacet
facet normal -2.834401499091507e-17 1.0 3.856805323568375e-15
  outer loop
    vertex 424.8414168485025 -84.33521312541204 16.00000000000001
    vertex 408.84141684850243 -84.33521312541204 11.000000000000014
    vertex 408.84141684850243 -84.33521312541204 16.00000000000001
  endloop
endfacet
endsolid LEDsPanel
