solid LEDsPanel
facet normal 0.0 -1.127986593019161e-14 -1.0
  outer loop
    vertex 177.50000000000003 5.999999999999989 -6.767919558114953e-14
    vertex -10.0 4.49999999999998 -4.7939430203314185e-14
    vertex -10.0 5.999999999999989 -6.767919558114953e-14
  endloop
endfacet
facet normal 0.0 -1.127986593019161e-14 -1.0
  outer loop
    vertex -10.0 4.49999999999998 -4.7939430203314185e-14
    vertex 177.50000000000003 5.999999999999989 -6.767919558114953e-14
    vertex 0.0 4.49999999999998 -4.7939430203314185e-14
  endloop
endfacet
facet normal 0.0 -1.127986593019161e-14 -1.0
  outer loop
    vertex 0.0 4.49999999999998 -4.7939430203314185e-14
    vertex 177.50000000000003 5.999999999999989 -6.767919558114953e-14
    vertex 0.0 0.0 0.0
  endloop
endfacet
facet normal 0.0 -1.127986593019161e-14 -1.0
  outer loop
    vertex 0.0 0.0 0.0
    vertex 177.50000000000003 5.999999999999989 -6.767919558114953e-14
    vertex 167.50000000000003 4.499999999999992 -4.7939430203314254e-14
  endloop
endfacet
facet normal 0.0 -1.127986593019161e-14 -1.0
  outer loop
    vertex 167.50000000000003 4.499999999999992 -4.7939430203314254e-14
    vertex 177.50000000000003 5.999999999999989 -6.767919558114953e-14
    vertex 177.50000000000003 4.499999999999992 -4.7939430203314254e-14
  endloop
endfacet
facet normal 0.0 -1.127986593019161e-14 -1.0
  outer loop
    vertex 167.50000000000003 0.0 0.0
    vertex 0.0 0.0 0.0
    vertex 167.50000000000003 4.499999999999992 -4.7939430203314254e-14
  endloop
endfacet
facet normal 0.0 -1.0 -7.413996386041429e-16
  outer loop
    vertex 167.50000000000003 -7.895906151134113e-14 122.49999999999984
    vertex 0.0 0.0 0.0
    vertex 167.50000000000003 0.0 0.0
  endloop
endfacet
facet normal 0.0 -1.0 -7.413996386041429e-16
  outer loop
    vertex 0.0 0.0 0.0
    vertex 167.50000000000003 -7.895906151134113e-14 122.49999999999984
    vertex 0.0 -7.895906151134113e-14 122.49999999999984
  endloop
endfacet
facet normal -2.0828958107280585e-31 6.684364995669e-15 1.0
  outer loop
    vertex 167.50000000000003 -7.895906151134113e-14 122.49999999999984
    vertex 0.0 4.4999999999999805 122.49999999999984
    vertex 0.0 -7.895906151134113e-14 122.49999999999984
  endloop
endfacet
facet normal -2.0828958107280585e-31 6.684364995669e-15 1.0
  outer loop
    vertex 0.0 4.4999999999999805 122.49999999999984
    vertex -10.0 5.999999999999989 122.4999999999998
    vertex -10.0 4.4999999999999805 122.4999999999998
  endloop
endfacet
facet normal -2.0828958107280585e-31 6.684364995669e-15 1.0
  outer loop
    vertex -10.0 5.999999999999989 122.4999999999998
    vertex 0.0 4.4999999999999805 122.49999999999984
    vertex 177.50000000000003 5.999999999999989 122.4999999999998
  endloop
endfacet
facet normal -2.0828958107280585e-31 6.684364995669e-15 1.0
  outer loop
    vertex 177.50000000000003 5.999999999999989 122.4999999999998
    vertex 0.0 4.4999999999999805 122.49999999999984
    vertex 167.50000000000003 4.499999999999992 122.49999999999984
  endloop
endfacet
facet normal -2.0828958107280585e-31 6.684364995669e-15 1.0
  outer loop
    vertex 167.50000000000003 4.499999999999992 122.49999999999984
    vertex 0.0 4.4999999999999805 122.49999999999984
    vertex 167.50000000000003 -7.895906151134113e-14 122.49999999999984
  endloop
endfacet
facet normal -2.0828958107280585e-31 6.684364995669e-15 1.0
  outer loop
    vertex 177.50000000000003 5.999999999999989 122.4999999999998
    vertex 167.50000000000003 4.499999999999992 122.49999999999984
    vertex 177.50000000000003 4.499999999999992 122.4999999999998
  endloop
endfacet
facet normal -1.0 0.0 0.0
  outer loop
    vertex 0.0 4.4999999999999805 122.49999999999984
    vertex 0.0 0.0 0.0
    vertex 0.0 -7.895906151134113e-14 122.49999999999984
  endloop
endfacet
facet normal -1.0 0.0 0.0
  outer loop
    vertex 0.0 0.0 0.0
    vertex 0.0 4.4999999999999805 122.49999999999984
    vertex 0.0 4.49999999999998 -4.7939430203314185e-14
  endloop
endfacet
facet normal -0.0 1.0 -0.0
  outer loop
    vertex -10.0 5.999999999999989 122.4999999999998
    vertex 177.50000000000003 5.999999999999989 -6.767919558114953e-14
    vertex -10.0 5.999999999999989 -6.767919558114953e-14
  endloop
endfacet
facet normal -0.0 1.0 -0.0
  outer loop
    vertex 177.50000000000003 5.999999999999989 -6.767919558114953e-14
    vertex -10.0 5.999999999999989 122.4999999999998
    vertex 177.50000000000003 5.999999999999989 122.4999999999998
  endloop
endfacet
facet normal 1.0 -0.0 -0.0
  outer loop
    vertex 167.50000000000003 0.0 0.0
    vertex 167.50000000000003 4.499999999999992 122.49999999999984
    vertex 167.50000000000003 -7.895906151134113e-14 122.49999999999984
  endloop
endfacet
facet normal 1.0 -0.0 -0.0
  outer loop
    vertex 167.50000000000003 4.499999999999992 122.49999999999984
    vertex 167.50000000000003 0.0 0.0
    vertex 167.50000000000003 4.499999999999992 -4.7939430203314254e-14
  endloop
endfacet
facet normal 1.0 0.0 0.0
  outer loop
    vertex 177.50000000000003 5.999999999999989 -6.767919558114953e-14
    vertex 177.50000000000003 4.499999999999992 122.4999999999998
    vertex 177.50000000000003 4.499999999999992 -4.7939430203314254e-14
  endloop
endfacet
facet normal 1.0 0.0 0.0
  outer loop
    vertex 177.50000000000003 4.499999999999992 122.4999999999998
    vertex 177.50000000000003 5.999999999999989 -6.767919558114953e-14
    vertex 177.50000000000003 5.999999999999989 122.4999999999998
  endloop
endfacet
facet normal 0.0 -1.0 0.0
  outer loop
    vertex 177.50000000000003 4.499999999999992 122.4999999999998
    vertex 167.50000000000003 4.499999999999992 -4.7939430203314254e-14
    vertex 177.50000000000003 4.499999999999992 -4.7939430203314254e-14
  endloop
endfacet
facet normal 0.0 -1.0 0.0
  outer loop
    vertex 167.50000000000003 4.499999999999992 -4.7939430203314254e-14
    vertex 177.50000000000003 4.499999999999992 122.4999999999998
    vertex 167.50000000000003 4.499999999999992 122.49999999999984
  endloop
endfacet
facet normal -1.0 0.0 0.0
  outer loop
    vertex -10.0 4.4999999999999805 122.4999999999998
    vertex -10.0 5.999999999999989 -6.767919558114953e-14
    vertex -10.0 4.49999999999998 -4.7939430203314185e-14
  endloop
endfacet
facet normal -1.0 0.0 0.0
  outer loop
    vertex -10.0 5.999999999999989 -6.767919558114953e-14
    vertex -10.0 4.4999999999999805 122.4999999999998
    vertex -10.0 5.999999999999989 122.4999999999998
  endloop
endfacet
facet normal -1.2366499497086736e-32 -1.0 5.755033637852857e-18
  outer loop
    vertex 0.0 4.4999999999999805 122.49999999999984
    vertex -10.0 4.49999999999998 -4.7939430203314185e-14
    vertex 0.0 4.49999999999998 -4.7939430203314185e-14
  endloop
endfacet
facet normal -1.2366499497086736e-32 -1.0 5.755033637852857e-18
  outer loop
    vertex -10.0 4.49999999999998 -4.7939430203314185e-14
    vertex 0.0 4.4999999999999805 122.49999999999984
    vertex -10.0 4.4999999999999805 122.4999999999998
  endloop
endfacet
endsolid LEDsPanel
