solid Transmitter
facet normal 0.13052619222005626 0.9914448613738099 -2.643751489148079e-16
  outer loop
    vertex 39.87698168154558 -101.86223610406297 1.9999999999999998
    vertex 40.529612642645844 -101.90501179719395 0.0
    vertex 39.87698168154558 -101.86223610406297 0.0
  endloop
endfacet
facet normal 0.0654031292301811 0.997858923238601 -2.66080677412695e-16
  outer loop
    vertex 40.529612642645844 -101.90501179719395 0.0
    vertex 39.87698168154558 -101.86223610406297 1.9999999999999998
    vertex 40.529612642645844 -101.90501179719395 1.9999999999999998
  endloop
endfacet
facet normal -7.310193797226199e-20 -2.666468076004534e-16 -1.0
  outer loop
    vertex 2.572388335776822 -89.25238083609369 0.0
    vertex 2.529612642645894 -113.90501179719395 2.255973186038318e-14
    vertex 2.529612642645894 -89.90501179719396 0.0
  endloop
endfacet
facet normal -7.310193797226199e-20 -2.666468076004534e-16 -1.0
  outer loop
    vertex 2.529612642645894 -113.90501179719395 2.255973186038318e-14
    vertex 2.572388335776822 -89.25238083609369 0.0
    vertex 2.572388335776822 -114.55764275829422 2.255973186038318e-14
  endloop
endfacet
facet normal -7.310193797226199e-20 -2.666468076004534e-16 -1.0
  outer loop
    vertex 2.572388335776822 -114.55764275829422 2.255973186038318e-14
    vertex 2.572388335776822 -89.25238083609369 0.0
    vertex 2.6999835112005584 -88.61091657168136 0.0
  endloop
endfacet
facet normal -7.310193797226199e-20 -2.666468076004534e-16 -1.0
  outer loop
    vertex 2.572388335776822 -114.55764275829422 2.255973186038318e-14
    vertex 2.6999835112005584 -88.61091657168136 0.0
    vertex 2.6999835112005584 -115.19910702270656 2.255973186038318e-14
  endloop
endfacet
facet normal -7.310193797226199e-20 -2.666468076004534e-16 -1.0
  outer loop
    vertex 2.6999835112005584 -115.19910702270656 2.255973186038318e-14
    vertex 2.6999835112005584 -88.61091657168136 0.0
    vertex 2.9102149800894686 -87.9915946353685 0.0
  endloop
endfacet
facet normal -7.310193797226199e-20 -2.666468076004534e-16 -1.0
  outer loop
    vertex 2.6999835112005584 -115.19910702270656 2.255973186038318e-14
    vertex 2.9102149800894686 -87.9915946353685 0.0
    vertex 2.9102149800894686 -115.81842895901939 2.255973186038318e-14
  endloop
endfacet
facet normal -7.310193797226199e-20 -2.666468076004534e-16 -1.0
  outer loop
    vertex 2.9102149800894686 -115.81842895901939 2.255973186038318e-14
    vertex 2.9102149800894686 -87.9915946353685 0.0
    vertex 3.1994856237237173 -87.40501179719396 0.0
  endloop
endfacet
facet normal -7.310193797226199e-20 -2.666468076004534e-16 -1.0
  outer loop
    vertex 2.9102149800894686 -115.81842895901939 2.255973186038318e-14
    vertex 3.1994856237237173 -87.40501179719396 0.0
    vertex 3.1994856237237173 -116.40501179719392 2.255973186038318e-14
  endloop
endfacet
facet normal -7.310193797226199e-20 -2.666468076004534e-16 -1.0
  outer loop
    vertex 3.1994856237237173 -116.40501179719392 2.255973186038318e-14
    vertex 3.1994856237237173 -87.40501179719396 0.0
    vertex 3.5628459411897335 -86.86120465215036 0.0
  endloop
endfacet
facet normal -7.310193797226199e-20 -2.666468076004534e-16 -1.0
  outer loop
    vertex 3.1994856237237173 -116.40501179719392 2.255973186038318e-14
    vertex 3.5628459411897335 -86.86120465215036 0.0
    vertex 3.5628459411897335 -116.94881894223752 2.255973186038318e-14
  endloop
endfacet
facet normal -7.310193797226199e-20 -2.666468076004534e-16 -1.0
  outer loop
    vertex 3.5628459411897335 -116.94881894223752 2.255973186038318e-14
    vertex 3.5628459411897335 -86.86120465215036 0.0
    vertex 3.9940787367131327 -86.36947789126121 0.0
  endloop
endfacet
facet normal -7.310193797226199e-20 -2.666468076004534e-16 -1.0
  outer loop
    vertex 3.5628459411897335 -116.94881894223752 2.255973186038318e-14
    vertex 3.9940787367131327 -86.36947789126121 0.0
    vertex 3.9940787367131327 -117.44054570312667 2.255973186038318e-14
  endloop
endfacet
facet normal -7.310193797226199e-20 -2.666468076004534e-16 -1.0
  outer loop
    vertex 3.9940787367131327 -117.44054570312667 2.255973186038318e-14
    vertex 3.9940787367131327 -86.36947789126121 0.0
    vertex 4.485805497602277 -85.93824509573778 0.0
  endloop
endfacet
facet normal -7.310193797226199e-20 -2.666468076004534e-16 -1.0
  outer loop
    vertex 3.9940787367131327 -117.44054570312667 2.255973186038318e-14
    vertex 4.485805497602277 -85.93824509573778 0.0
    vertex 4.485805497602277 -117.87177849865013 2.255973186038318e-14
  endloop
endfacet
facet normal -7.310193797226199e-20 -2.666468076004534e-16 -1.0
  outer loop
    vertex 4.485805497602277 -117.87177849865013 2.255973186038318e-14
    vertex 4.485805497602277 -85.93824509573778 0.0
    vertex 5.0296126426459065 -85.57488477827177 0.0
  endloop
endfacet
facet normal -7.310193797226199e-20 -2.666468076004534e-16 -1.0
  outer loop
    vertex 4.485805497602277 -117.87177849865013 2.255973186038318e-14
    vertex 5.0296126426459065 -85.57488477827177 0.0
    vertex 5.0296126426459065 -118.23513881611613 2.255973186038318e-14
  endloop
endfacet
facet normal -7.310193797226199e-20 -2.666468076004534e-16 -1.0
  outer loop
    vertex 5.0296126426459065 -118.23513881611613 2.255973186038318e-14
    vertex 5.0296126426459065 -85.57488477827177 0.0
    vertex 5.616195480820419 -85.28561413463753 0.0
  endloop
endfacet
facet normal -7.310193797226199e-20 -2.666468076004534e-16 -1.0
  outer loop
    vertex 5.0296126426459065 -118.23513881611613 2.255973186038318e-14
    vertex 5.616195480820419 -85.28561413463753 0.0
    vertex 5.616195480820419 -118.52440945975036 2.255973186038318e-14
  endloop
endfacet
facet normal -7.310193797226199e-20 -2.666468076004534e-16 -1.0
  outer loop
    vertex 5.616195480820419 -118.52440945975036 2.255973186038318e-14
    vertex 5.616195480820419 -85.28561413463753 0.0
    vertex 6.235517417133299 -85.0753826657486 0.0
  endloop
endfacet
facet normal -7.310193797226199e-20 -2.666468076004534e-16 -1.0
  outer loop
    vertex 5.616195480820419 -118.52440945975036 2.255973186038318e-14
    vertex 6.235517417133299 -85.0753826657486 0.0
    vertex 6.235517417133299 -118.73464092863924 2.255973186038318e-14
  endloop
endfacet
facet normal -7.310193797226199e-20 -2.666468076004534e-16 -1.0
  outer loop
    vertex 6.235517417133299 -118.73464092863924 2.255973186038318e-14
    vertex 6.235517417133299 -85.0753826657486 0.0
    vertex 6.876981681545614 -84.94778749032491 0.0
  endloop
endfacet
facet normal -7.310193797226199e-20 -2.666468076004534e-16 -1.0
  outer loop
    vertex 6.235517417133299 -118.73464092863924 2.255973186038318e-14
    vertex 6.876981681545614 -84.94778749032491 0.0
    vertex 6.876981681545614 -118.86223610406297 2.255973186038318e-14
  endloop
endfacet
facet normal -7.310193797226199e-20 -2.666468076004534e-16 -1.0
  outer loop
    vertex 6.876981681545614 -118.86223610406297 2.255973186038318e-14
    vertex 6.876981681545614 -84.94778749032491 0.0
    vertex 7.529612642645879 -84.90501179719396 0.0
  endloop
endfacet
facet normal -7.310193797226199e-20 -2.666468076004534e-16 -1.0
  outer loop
    vertex 6.876981681545614 -118.86223610406297 2.255973186038318e-14
    vertex 7.529612642645879 -84.90501179719396 0.0
    vertex 7.529612642645879 -118.9050117971939 2.255973186038318e-14
  endloop
endfacet
facet normal -7.310193797226199e-20 -2.666468076004534e-16 -1.0
  outer loop
    vertex 7.529612642645879 -118.9050117971939 2.255973186038318e-14
    vertex 7.529612642645879 -84.90501179719396 0.0
    vertex 30.529612642645837 -84.90501179719396 2.255973186038318e-14
  endloop
endfacet
facet normal -7.310193797226199e-20 -2.666468076004534e-16 -1.0
  outer loop
    vertex 7.529612642645879 -118.9050117971939 2.255973186038318e-14
    vertex 30.529612642645837 -84.90501179719396 2.255973186038318e-14
    vertex 35.9102149800894 -98.81842895901939 0.0
  endloop
endfacet
facet normal -7.310193797226199e-20 -2.666468076004534e-16 -1.0
  outer loop
    vertex 7.529612642645879 -118.9050117971939 2.255973186038318e-14
    vertex 35.9102149800894 -98.81842895901939 0.0
    vertex 36.199485623723646 -99.40501179719394 0.0
  endloop
endfacet
facet normal -7.310193797226199e-20 -2.666468076004534e-16 -1.0
  outer loop
    vertex 7.529612642645879 -118.9050117971939 2.255973186038318e-14
    vertex 36.199485623723646 -99.40501179719394 0.0
    vertex 36.562845941189664 -99.94881894223754 0.0
  endloop
endfacet
facet normal -7.310193797226199e-20 -2.666468076004534e-16 -1.0
  outer loop
    vertex 7.529612642645879 -118.9050117971939 2.255973186038318e-14
    vertex 36.562845941189664 -99.94881894223754 0.0
    vertex 36.9940787367131 -100.44054570312667 0.0
  endloop
endfacet
facet normal -7.310193797226199e-20 -2.666468076004534e-16 -1.0
  outer loop
    vertex 7.529612642645879 -118.9050117971939 2.255973186038318e-14
    vertex 36.9940787367131 -100.44054570312667 0.0
    vertex 37.485805497602236 -100.87177849865012 0.0
  endloop
endfacet
facet normal -7.310193797226199e-20 -2.666468076004534e-16 -1.0
  outer loop
    vertex 7.529612642645879 -118.9050117971939 2.255973186038318e-14
    vertex 37.485805497602236 -100.87177849865012 0.0
    vertex 60.52961264264588 -118.9050117971939 0.0
  endloop
endfacet
facet normal -7.310193797226199e-20 -2.666468076004534e-16 -1.0
  outer loop
    vertex 35.9102149800894 -98.81842895901939 0.0
    vertex 30.529612642645837 -84.90501179719396 2.255973186038318e-14
    vertex 31.18224360374609 -84.94778749032491 2.255973186038318e-14
  endloop
endfacet
facet normal -7.310193797226199e-20 -2.666468076004534e-16 -1.0
  outer loop
    vertex 35.9102149800894 -98.81842895901939 0.0
    vertex 31.18224360374609 -84.94778749032491 2.255973186038318e-14
    vertex 35.6999835112005 -98.19910702270654 0.0
  endloop
endfacet
facet normal -7.310193797226199e-20 -2.666468076004534e-16 -1.0
  outer loop
    vertex 35.6999835112005 -98.19910702270654 0.0
    vertex 31.18224360374609 -84.94778749032491 2.255973186038318e-14
    vertex 31.82370786815844 -85.07538266574862 2.255973186038318e-14
  endloop
endfacet
facet normal -7.310193797226199e-20 -2.666468076004534e-16 -1.0
  outer loop
    vertex 35.6999835112005 -98.19910702270654 0.0
    vertex 31.82370786815844 -85.07538266574862 2.255973186038318e-14
    vertex 32.44302980447129 -85.28561413463753 2.255973186038318e-14
  endloop
endfacet
facet normal -7.310193797226199e-20 -2.666468076004534e-16 -1.0
  outer loop
    vertex 35.6999835112005 -98.19910702270654 0.0
    vertex 32.44302980447129 -85.28561413463753 2.255973186038318e-14
    vertex 33.02961264264584 -85.57488477827175 2.255973186038318e-14
  endloop
endfacet
facet normal -7.310193797226199e-20 -2.666468076004534e-16 -1.0
  outer loop
    vertex 35.6999835112005 -98.19910702270654 0.0
    vertex 33.02961264264584 -85.57488477827175 2.255973186038318e-14
    vertex 35.57238833577679 -97.55764275829421 0.0
  endloop
endfacet
facet normal -7.310193797226199e-20 -2.666468076004534e-16 -1.0
  outer loop
    vertex 35.57238833577679 -97.55764275829421 0.0
    vertex 33.02961264264584 -85.57488477827175 2.255973186038318e-14
    vertex 33.57341978768944 -85.93824509573778 2.255973186038318e-14
  endloop
endfacet
facet normal -7.310193797226199e-20 -2.666468076004534e-16 -1.0
  outer loop
    vertex 35.57238833577679 -97.55764275829421 0.0
    vertex 33.57341978768944 -85.93824509573778 2.255973186038318e-14
    vertex 34.065146548578575 -86.36947789126123 2.255973186038318e-14
  endloop
endfacet
facet normal -7.310193797226199e-20 -2.666468076004534e-16 -1.0
  outer loop
    vertex 35.57238833577679 -97.55764275829421 0.0
    vertex 34.065146548578575 -86.36947789126123 2.255973186038318e-14
    vertex 34.49637934410202 -86.86120465215036 2.255973186038318e-14
  endloop
endfacet
facet normal -7.310193797226199e-20 -2.666468076004534e-16 -1.0
  outer loop
    vertex 35.57238833577679 -97.55764275829421 0.0
    vertex 34.49637934410202 -86.86120465215036 2.255973186038318e-14
    vertex 34.859739661568035 -87.40501179719395 2.255973186038318e-14
  endloop
endfacet
facet normal -7.310193797226199e-20 -2.666468076004534e-16 -1.0
  outer loop
    vertex 35.57238833577679 -97.55764275829421 0.0
    vertex 34.859739661568035 -87.40501179719395 2.255973186038318e-14
    vertex 35.52961264264584 -96.90501179719394 0.0
  endloop
endfacet
facet normal -7.310193797226199e-20 -2.666468076004534e-16 -1.0
  outer loop
    vertex 35.52961264264584 -96.90501179719394 0.0
    vertex 34.859739661568035 -87.40501179719395 2.255973186038318e-14
    vertex 35.149010305202275 -87.99159463536851 2.255973186038318e-14
  endloop
endfacet
facet normal -7.310193797226199e-20 -2.666468076004534e-16 -1.0
  outer loop
    vertex 35.52961264264584 -96.90501179719394 0.0
    vertex 35.149010305202275 -87.99159463536851 2.255973186038318e-14
    vertex 35.35924177409118 -88.61091657168136 2.255973186038318e-14
  endloop
endfacet
facet normal -7.310193797226199e-20 -2.666468076004534e-16 -1.0
  outer loop
    vertex 35.52961264264584 -96.90501179719394 0.0
    vertex 35.35924177409118 -88.61091657168136 2.255973186038318e-14
    vertex 35.486836949514895 -89.2523808360937 2.255973186038318e-14
  endloop
endfacet
facet normal -7.310193797226199e-20 -2.666468076004534e-16 -1.0
  outer loop
    vertex 35.52961264264584 -96.90501179719394 0.0
    vertex 35.486836949514895 -89.2523808360937 2.255973186038318e-14
    vertex 35.52961264264584 -89.90501179719396 2.255973186038318e-14
  endloop
endfacet
facet normal -7.310193797226199e-20 -2.666468076004534e-16 -1.0
  outer loop
    vertex 60.52961264264588 -118.9050117971939 0.0
    vertex 37.485805497602236 -100.87177849865012 0.0
    vertex 38.02961264264584 -101.23513881611612 0.0
  endloop
endfacet
facet normal -7.310193797226199e-20 -2.666468076004534e-16 -1.0
  outer loop
    vertex 60.52961264264588 -118.9050117971939 0.0
    vertex 38.02961264264584 -101.23513881611612 0.0
    vertex 38.61619548082039 -101.52440945975037 0.0
  endloop
endfacet
facet normal -7.310193797226199e-20 -2.666468076004534e-16 -1.0
  outer loop
    vertex 60.52961264264588 -118.9050117971939 0.0
    vertex 38.61619548082039 -101.52440945975037 0.0
    vertex 39.23551741713323 -101.73464092863928 0.0
  endloop
endfacet
facet normal -7.310193797226199e-20 -2.666468076004534e-16 -1.0
  outer loop
    vertex 60.52961264264588 -118.9050117971939 0.0
    vertex 39.23551741713323 -101.73464092863928 0.0
    vertex 39.87698168154558 -101.86223610406297 0.0
  endloop
endfacet
facet normal -7.310193797226199e-20 -2.666468076004534e-16 -1.0
  outer loop
    vertex 60.52961264264588 -118.9050117971939 0.0
    vertex 39.87698168154558 -101.86223610406297 0.0
    vertex 40.529612642645844 -101.90501179719395 0.0
  endloop
endfacet
facet normal -7.310193797226199e-20 -2.666468076004534e-16 -1.0
  outer loop
    vertex 60.52961264264588 -118.9050117971939 0.0
    vertex 40.529612642645844 -101.90501179719395 0.0
    vertex 60.52961264264588 -101.90501179719392 2.255973186038318e-14
  endloop
endfacet
facet normal 0.2588190451025084 0.9659258262890715 -2.5757995813259214e-16
  outer loop
    vertex 39.23551741713323 -101.73464092863928 1.9999999999999998
    vertex 39.87698168154558 -101.86223610406297 0.0
    vertex 39.23551741713323 -101.73464092863928 0.0
  endloop
endfacet
facet normal 0.13052619222005626 0.9914448613738099 -2.643751489148079e-16
  outer loop
    vertex 39.87698168154558 -101.86223610406297 0.0
    vertex 39.23551741713323 -101.73464092863928 1.9999999999999998
    vertex 39.87698168154558 -101.86223610406297 1.9999999999999998
  endloop
endfacet
facet normal 0.3826834323650959 0.9238795325112842 -2.4637750285206895e-16
  outer loop
    vertex 38.61619548082039 -101.52440945975037 1.9999999999999998
    vertex 39.23551741713323 -101.73464092863928 0.0
    vertex 38.61619548082039 -101.52440945975037 0.0
  endloop
endfacet
facet normal 0.2588190451025084 0.9659258262890715 -2.5757995813259214e-16
  outer loop
    vertex 39.23551741713323 -101.73464092863928 0.0
    vertex 38.61619548082039 -101.52440945975037 1.9999999999999998
    vertex 39.23551741713323 -101.73464092863928 1.9999999999999998
  endloop
endfacet
facet normal 0.5000000000000044 0.866025403784436 -2.309594601889996e-16
  outer loop
    vertex 38.02961264264584 -101.23513881611612 1.9999999999999998
    vertex 38.61619548082039 -101.52440945975037 0.0
    vertex 38.02961264264584 -101.23513881611612 0.0
  endloop
endfacet
facet normal 0.3826834323650959 0.9238795325112842 -2.4637750285206895e-16
  outer loop
    vertex 38.61619548082039 -101.52440945975037 0.0
    vertex 38.02961264264584 -101.23513881611612 1.9999999999999998
    vertex 38.61619548082039 -101.52440945975037 1.9999999999999998
  endloop
endfacet
facet normal 0.6087614290087217 0.7933533402912345 -2.1158963712803711e-16
  outer loop
    vertex 37.485805497602236 -100.87177849865012 1.9999999999999998
    vertex 38.02961264264584 -101.23513881611612 0.0
    vertex 37.485805497602236 -100.87177849865012 0.0
  endloop
endfacet
facet normal 0.5000000000000044 0.866025403784436 -2.309594601889996e-16
  outer loop
    vertex 38.02961264264584 -101.23513881611612 0.0
    vertex 37.485805497602236 -100.87177849865012 1.9999999999999998
    vertex 38.02961264264584 -101.23513881611612 1.9999999999999998
  endloop
endfacet
facet normal 0.7071067811865476 0.7071067811865476 -1.8859945671208333e-16
  outer loop
    vertex 36.9940787367131 -100.44054570312667 1.9999999999999998
    vertex 37.485805497602236 -100.87177849865012 0.0
    vertex 36.9940787367131 -100.44054570312667 0.0
  endloop
endfacet
facet normal 0.6087614290087217 0.7933533402912345 -2.1158963712803711e-16
  outer loop
    vertex 37.485805497602236 -100.87177849865012 0.0
    vertex 36.9940787367131 -100.44054570312667 1.9999999999999998
    vertex 37.485805497602236 -100.87177849865012 1.9999999999999998
  endloop
endfacet
facet normal 0.7933533402912358 0.6087614290087197 -1.6238228730213721e-16
  outer loop
    vertex 36.562845941189664 -99.94881894223754 0.0
    vertex 36.9940787367131 -100.44054570312667 1.9999999999999998
    vertex 36.9940787367131 -100.44054570312667 0.0
  endloop
endfacet
facet normal 0.7071067811865476 0.7071067811865476 -1.8859945671208333e-16
  outer loop
    vertex 36.9940787367131 -100.44054570312667 1.9999999999999998
    vertex 36.562845941189664 -99.94881894223754 0.0
    vertex 36.562845941189664 -99.94881894223754 1.9999999999999998
  endloop
endfacet
facet normal 0.8660254037844384 0.5000000000000007 -1.3338671193557676e-16
  outer loop
    vertex 36.199485623723646 -99.40501179719394 0.0
    vertex 36.562845941189664 -99.94881894223754 1.9999999999999998
    vertex 36.562845941189664 -99.94881894223754 0.0
  endloop
endfacet
facet normal 0.7933533402912358 0.6087614290087197 -1.6238228730213721e-16
  outer loop
    vertex 36.562845941189664 -99.94881894223754 1.9999999999999998
    vertex 36.199485623723646 -99.40501179719394 0.0
    vertex 36.199485623723646 -99.40501179719394 1.9999999999999998
  endloop
endfacet
facet normal 0.9238795325112865 0.3826834323650904 -1.0210885294601485e-16
  outer loop
    vertex 35.9102149800894 -98.81842895901939 0.0
    vertex 36.199485623723646 -99.40501179719394 1.9999999999999998
    vertex 36.199485623723646 -99.40501179719394 0.0
  endloop
endfacet
facet normal 0.8660254037844384 0.5000000000000007 -1.3338671193557676e-16
  outer loop
    vertex 36.199485623723646 -99.40501179719394 1.9999999999999998
    vertex 35.9102149800894 -98.81842895901939 0.0
    vertex 35.9102149800894 -98.81842895901939 1.9999999999999998
  endloop
endfacet
facet normal 0.9659258262890691 0.2588190451025175 -6.908388317262326e-17
  outer loop
    vertex 35.6999835112005 -98.19910702270654 0.0
    vertex 35.9102149800894 -98.81842895901939 1.9999999999999998
    vertex 35.9102149800894 -98.81842895901939 0.0
  endloop
endfacet
facet normal 0.9238795325112865 0.3826834323650904 -1.0210885294601485e-16
  outer loop
    vertex 35.9102149800894 -98.81842895901939 1.9999999999999998
    vertex 35.6999835112005 -98.19910702270654 0.0
    vertex 35.6999835112005 -98.19910702270654 1.9999999999999998
  endloop
endfacet
facet normal 0.9914448613738104 0.13052619222005266 -3.487686900447924e-17
  outer loop
    vertex 35.57238833577679 -97.55764275829421 0.0
    vertex 35.6999835112005 -98.19910702270654 1.9999999999999998
    vertex 35.6999835112005 -98.19910702270654 0.0
  endloop
endfacet
facet normal 0.9659258262890691 0.2588190451025175 -6.908388317262326e-17
  outer loop
    vertex 35.6999835112005 -98.19910702270654 1.9999999999999998
    vertex 35.57238833577679 -97.55764275829421 0.0
    vertex 35.57238833577679 -97.55764275829421 1.9999999999999998
  endloop
endfacet
facet normal 0.9978589232386033 0.06540312923014675 -1.751248103741019e-17
  outer loop
    vertex 35.52961264264584 -96.90501179719394 0.0
    vertex 35.57238833577679 -97.55764275829421 1.9999999999999998
    vertex 35.57238833577679 -97.55764275829421 0.0
  endloop
endfacet
facet normal 0.9914448613738104 0.13052619222005266 -3.487686900447924e-17
  outer loop
    vertex 35.57238833577679 -97.55764275829421 1.9999999999999998
    vertex 35.52961264264584 -96.90501179719394 0.0
    vertex 35.52961264264584 -96.90501179719394 1.9999999999999998
  endloop
endfacet
facet normal 1.0 2.355943027326571e-34 -7.310193797226199e-20
  outer loop
    vertex 35.52961264264584 -89.90501179719396 2.255973186038318e-14
    vertex 35.52961264264584 -96.90501179719394 1.9999999999999998
    vertex 35.52961264264584 -96.90501179719394 0.0
  endloop
endfacet
facet normal 1.0 2.355943027326571e-34 -7.310193797226199e-20
  outer loop
    vertex 35.52961264264584 -96.90501179719394 1.9999999999999998
    vertex 35.52961264264584 -89.90501179719396 2.255973186038318e-14
    vertex 35.52961264264584 -89.90501179719396 2.000000000000022
  endloop
endfacet
facet normal 0.9914448613738104 0.13052619222005143 -3.4876869004478925e-17
  outer loop
    vertex 35.486836949514895 -89.2523808360937 2.255973186038318e-14
    vertex 35.52961264264584 -89.90501179719396 2.000000000000022
    vertex 35.52961264264584 -89.90501179719396 2.255973186038318e-14
  endloop
endfacet
facet normal 0.9978589232386037 0.06540312923013929 -1.7512481037408195e-17
  outer loop
    vertex 35.52961264264584 -89.90501179719396 2.000000000000022
    vertex 35.486836949514895 -89.2523808360937 2.255973186038318e-14
    vertex 35.486836949514895 -89.2523808360937 2.000000000000022
  endloop
endfacet
facet normal 0.9659258262890684 0.2588190451025199 -6.908388317262391e-17
  outer loop
    vertex 35.35924177409118 -88.61091657168136 2.255973186038318e-14
    vertex 35.486836949514895 -89.2523808360937 2.000000000000022
    vertex 35.486836949514895 -89.2523808360937 2.255973186038318e-14
  endloop
endfacet
facet normal 0.9914448613738104 0.13052619222005143 -3.4876869004478925e-17
  outer loop
    vertex 35.486836949514895 -89.2523808360937 2.000000000000022
    vertex 35.35924177409118 -88.61091657168136 2.255973186038318e-14
    vertex 35.35924177409118 -88.61091657168136 2.000000000000022
  endloop
endfacet
facet normal 0.923879532511288 0.38268343236508684 -1.0210885294601391e-16
  outer loop
    vertex 35.149010305202275 -87.99159463536851 2.255973186038318e-14
    vertex 35.35924177409118 -88.61091657168136 2.000000000000022
    vertex 35.35924177409118 -88.61091657168136 2.255973186038318e-14
  endloop
endfacet
facet normal 0.9659258262890684 0.2588190451025199 -6.908388317262391e-17
  outer loop
    vertex 35.35924177409118 -88.61091657168136 2.000000000000022
    vertex 35.149010305202275 -87.99159463536851 2.255973186038318e-14
    vertex 35.149010305202275 -87.99159463536851 2.000000000000022
  endloop
endfacet
facet normal 0.8660254037844378 0.5000000000000016 -1.3338671193557696e-16
  outer loop
    vertex 34.859739661568035 -87.40501179719395 2.255973186038318e-14
    vertex 35.149010305202275 -87.99159463536851 2.000000000000022
    vertex 35.149010305202275 -87.99159463536851 2.255973186038318e-14
  endloop
endfacet
facet normal 0.923879532511288 0.38268343236508684 -1.0210885294601391e-16
  outer loop
    vertex 35.149010305202275 -87.99159463536851 2.000000000000022
    vertex 34.859739661568035 -87.40501179719395 2.255973186038318e-14
    vertex 34.859739661568035 -87.40501179719395 2.000000000000022
  endloop
endfacet
facet normal 0.7933533402912328 0.6087614290087235 -1.6238228730213822e-16
  outer loop
    vertex 34.49637934410202 -86.86120465215036 2.255973186038318e-14
    vertex 34.859739661568035 -87.40501179719395 2.000000000000022
    vertex 34.859739661568035 -87.40501179719395 2.255973186038318e-14
  endloop
endfacet
facet normal 0.8660254037844378 0.5000000000000016 -1.3338671193557696e-16
  outer loop
    vertex 34.859739661568035 -87.40501179719395 2.000000000000022
    vertex 34.49637934410202 -86.86120465215036 2.255973186038318e-14
    vertex 34.49637934410202 -86.86120465215036 2.000000000000022
  endloop
endfacet
facet normal 0.7071067811865455 0.7071067811865495 -1.8859945671208388e-16
  outer loop
    vertex 34.065146548578575 -86.36947789126123 2.255973186038318e-14
    vertex 34.49637934410202 -86.86120465215036 2.000000000000022
    vertex 34.49637934410202 -86.86120465215036 2.255973186038318e-14
  endloop
endfacet
facet normal 0.7933533402912328 0.6087614290087235 -1.6238228730213822e-16
  outer loop
    vertex 34.49637934410202 -86.86120465215036 2.000000000000022
    vertex 34.065146548578575 -86.36947789126123 2.255973186038318e-14
    vertex 34.065146548578575 -86.36947789126123 2.000000000000022
  endloop
endfacet
facet normal 0.6087614290087251 0.7933533402912318 -2.1158963712803642e-16
  outer loop
    vertex 33.57341978768944 -85.93824509573778 2.000000000000022
    vertex 34.065146548578575 -86.36947789126123 2.255973186038318e-14
    vertex 33.57341978768944 -85.93824509573778 2.255973186038318e-14
  endloop
endfacet
facet normal 0.7071067811865455 0.7071067811865495 -1.8859945671208388e-16
  outer loop
    vertex 34.065146548578575 -86.36947789126123 2.255973186038318e-14
    vertex 33.57341978768944 -85.93824509573778 2.000000000000022
    vertex 34.065146548578575 -86.36947789126123 2.000000000000022
  endloop
endfacet
facet normal 0.500000000000004 0.8660254037844363 -2.309594601889997e-16
  outer loop
    vertex 33.02961264264584 -85.57488477827175 2.000000000000022
    vertex 33.57341978768944 -85.93824509573778 2.255973186038318e-14
    vertex 33.02961264264584 -85.57488477827175 2.255973186038318e-14
  endloop
endfacet
facet normal 0.6087614290087251 0.7933533402912318 -2.1158963712803642e-16
  outer loop
    vertex 33.57341978768944 -85.93824509573778 2.255973186038318e-14
    vertex 33.02961264264584 -85.57488477827175 2.000000000000022
    vertex 33.57341978768944 -85.93824509573778 2.000000000000022
  endloop
endfacet
facet normal 0.3826834323650812 0.9238795325112903 -2.4637750285207057e-16
  outer loop
    vertex 32.44302980447129 -85.28561413463753 2.000000000000022
    vertex 33.02961264264584 -85.57488477827175 2.255973186038318e-14
    vertex 32.44302980447129 -85.28561413463753 2.255973186038318e-14
  endloop
endfacet
facet normal 0.500000000000004 0.8660254037844363 -2.309594601889997e-16
  outer loop
    vertex 33.02961264264584 -85.57488477827175 2.255973186038318e-14
    vertex 32.44302980447129 -85.28561413463753 2.000000000000022
    vertex 33.02961264264584 -85.57488477827175 2.000000000000022
  endloop
endfacet
facet normal 0.2588190451025161 0.9659258262890696 -2.5757995813259165e-16
  outer loop
    vertex 31.82370786815844 -85.07538266574862 2.000000000000022
    vertex 32.44302980447129 -85.28561413463753 2.255973186038318e-14
    vertex 31.82370786815844 -85.07538266574862 2.255973186038318e-14
  endloop
endfacet
facet normal 0.3826834323650812 0.9238795325112903 -2.4637750285207057e-16
  outer loop
    vertex 32.44302980447129 -85.28561413463753 2.255973186038318e-14
    vertex 31.82370786815844 -85.07538266574862 2.000000000000022
    vertex 32.44302980447129 -85.28561413463753 2.000000000000022
  endloop
endfacet
facet normal 0.1305261922200557 0.9914448613738099 -2.643751489148079e-16
  outer loop
    vertex 31.18224360374609 -84.94778749032491 2.000000000000022
    vertex 31.82370786815844 -85.07538266574862 2.255973186038318e-14
    vertex 31.18224360374609 -84.94778749032491 2.255973186038318e-14
  endloop
endfacet
facet normal 0.2588190451025161 0.9659258262890696 -2.5757995813259165e-16
  outer loop
    vertex 31.82370786815844 -85.07538266574862 2.255973186038318e-14
    vertex 31.18224360374609 -84.94778749032491 2.000000000000022
    vertex 31.82370786815844 -85.07538266574862 2.000000000000022
  endloop
endfacet
facet normal 0.06540312923014788 0.9978589232386031 -2.660806774126956e-16
  outer loop
    vertex 30.529612642645837 -84.90501179719396 2.000000000000022
    vertex 31.18224360374609 -84.94778749032491 2.255973186038318e-14
    vertex 30.529612642645837 -84.90501179719396 2.255973186038318e-14
  endloop
endfacet
facet normal 0.1305261922200557 0.9914448613738099 -2.643751489148079e-16
  outer loop
    vertex 31.18224360374609 -84.94778749032491 2.255973186038318e-14
    vertex 30.529612642645837 -84.90501179719396 2.000000000000022
    vertex 31.18224360374609 -84.94778749032491 2.000000000000022
  endloop
endfacet
facet normal 2.615426296040619e-31 1.0 -2.6664680760045344e-16
  outer loop
    vertex 7.529612642645879 -84.90501179719396 1.9999999999999998
    vertex 30.529612642645837 -84.90501179719396 2.255973186038318e-14
    vertex 7.529612642645879 -84.90501179719396 0.0
  endloop
endfacet
facet normal 2.615426296040619e-31 1.0 -2.6664680760045344e-16
  outer loop
    vertex 30.529612642645837 -84.90501179719396 2.255973186038318e-14
    vertex 7.529612642645879 -84.90501179719396 1.9999999999999998
    vertex 30.529612642645837 -84.90501179719396 2.000000000000022
  endloop
endfacet
facet normal -0.1305261922200518 0.9914448613738105 -2.643560654795932e-16
  outer loop
    vertex 6.876981681545614 -84.94778749032491 1.9999999999999998
    vertex 7.529612642645879 -84.90501179719396 0.0
    vertex 6.876981681545614 -84.94778749032491 0.0
  endloop
endfacet
facet normal -0.06540312923014675 0.9978589232386033 -2.6607111522170324e-16
  outer loop
    vertex 7.529612642645879 -84.90501179719396 0.0
    vertex 6.876981681545614 -84.94778749032491 1.9999999999999998
    vertex 7.529612642645879 -84.90501179719396 1.9999999999999998
  endloop
endfacet
facet normal -0.25881904510251263 0.9659258262890705 -2.5754211778502965e-16
  outer loop
    vertex 6.235517417133299 -85.0753826657486 1.9999999999999998
    vertex 6.876981681545614 -84.94778749032491 0.0
    vertex 6.235517417133299 -85.0753826657486 0.0
  endloop
endfacet
facet normal -0.1305261922200518 0.9914448613738105 -2.643560654795932e-16
  outer loop
    vertex 6.876981681545614 -84.94778749032491 0.0
    vertex 6.235517417133299 -85.0753826657486 1.9999999999999998
    vertex 6.876981681545614 -84.94778749032491 1.9999999999999998
  endloop
endfacet
facet normal -0.38268343236510055 0.9238795325112822 -2.463215530509969e-16
  outer loop
    vertex 5.616195480820419 -85.28561413463753 1.9999999999999998
    vertex 6.235517417133299 -85.0753826657486 0.0
    vertex 5.616195480820419 -85.28561413463753 0.0
  endloop
endfacet
facet normal -0.25881904510251263 0.9659258262890705 -2.5754211778502965e-16
  outer loop
    vertex 6.235517417133299 -85.0753826657486 0.0
    vertex 5.616195480820419 -85.28561413463753 1.9999999999999998
    vertex 6.235517417133299 -85.0753826657486 1.9999999999999998
  endloop
endfacet
facet normal -0.5000000000000058 0.8660254037844354 -2.308863582510272e-16
  outer loop
    vertex 5.0296126426459065 -85.57488477827177 1.9999999999999998
    vertex 5.616195480820419 -85.28561413463753 0.0
    vertex 5.0296126426459065 -85.57488477827177 0.0
  endloop
endfacet
facet normal -0.38268343236510055 0.9238795325112822 -2.463215530509969e-16
  outer loop
    vertex 5.616195480820419 -85.28561413463753 0.0
    vertex 5.0296126426459065 -85.57488477827177 1.9999999999999998
    vertex 5.616195480820419 -85.28561413463753 1.9999999999999998
  endloop
endfacet
facet normal -0.6087614290087024 0.7933533402912492 -2.1150063384759444e-16
  outer loop
    vertex 4.485805497602277 -85.93824509573778 1.9999999999999998
    vertex 5.0296126426459065 -85.57488477827177 0.0
    vertex 4.485805497602277 -85.93824509573778 0.0
  endloop
endfacet
facet normal -0.5000000000000058 0.8660254037844354 -2.308863582510272e-16
  outer loop
    vertex 5.0296126426459065 -85.57488477827177 0.0
    vertex 4.485805497602277 -85.93824509573778 1.9999999999999998
    vertex 5.0296126426459065 -85.57488477827177 1.9999999999999998
  endloop
endfacet
facet normal -0.707106781186559 0.7071067811865359 -1.884960749599641e-16
  outer loop
    vertex 3.9940787367131327 -86.36947789126121 1.9999999999999998
    vertex 4.485805497602277 -85.93824509573778 0.0
    vertex 3.9940787367131327 -86.36947789126121 0.0
  endloop
endfacet
facet normal -0.6087614290087024 0.7933533402912492 -2.1150063384759444e-16
  outer loop
    vertex 4.485805497602277 -85.93824509573778 0.0
    vertex 3.9940787367131327 -86.36947789126121 1.9999999999999998
    vertex 4.485805497602277 -85.93824509573778 1.9999999999999998
  endloop
endfacet
facet normal -0.707106781186559 0.7071067811865359 -1.884960749599641e-16
  outer loop
    vertex 3.9940787367131327 -86.36947789126121 1.9999999999999998
    vertex 3.5628459411897335 -86.86120465215036 0.0
    vertex 3.5628459411897335 -86.86120465215036 1.9999999999999998
  endloop
endfacet
facet normal -0.7933533402912532 0.6087614290086971 -1.622662959687871e-16
  outer loop
    vertex 3.5628459411897335 -86.86120465215036 0.0
    vertex 3.9940787367131327 -86.36947789126121 1.9999999999999998
    vertex 3.9940787367131327 -86.36947789126121 0.0
  endloop
endfacet
facet normal -0.7933533402912532 0.6087614290086971 -1.622662959687871e-16
  outer loop
    vertex 3.5628459411897335 -86.86120465215036 1.9999999999999998
    vertex 3.1994856237237173 -87.40501179719396 0.0
    vertex 3.1994856237237173 -87.40501179719396 1.9999999999999998
  endloop
endfacet
facet normal -0.8660254037844345 0.5000000000000074 -1.3326009566487882e-16
  outer loop
    vertex 3.1994856237237173 -87.40501179719396 0.0
    vertex 3.5628459411897335 -86.86120465215036 1.9999999999999998
    vertex 3.5628459411897335 -86.86120465215036 0.0
  endloop
endfacet
facet normal -0.8660254037844345 0.5000000000000074 -1.3326009566487882e-16
  outer loop
    vertex 3.1994856237237173 -87.40501179719396 1.9999999999999998
    vertex 2.9102149800894686 -87.9915946353685 0.0
    vertex 2.9102149800894686 -87.9915946353685 1.9999999999999998
  endloop
endfacet
facet normal -0.923879532511283 0.38268343236509866 -1.0197377817745807e-16
  outer loop
    vertex 2.9102149800894686 -87.9915946353685 0.0
    vertex 3.1994856237237173 -87.40501179719396 1.9999999999999998
    vertex 3.1994856237237173 -87.40501179719396 0.0
  endloop
endfacet
facet normal -0.923879532511283 0.38268343236509866 -1.0197377817745807e-16
  outer loop
    vertex 2.9102149800894686 -87.9915946353685 1.9999999999999998
    vertex 2.6999835112005584 -88.61091657168136 0.0
    vertex 2.6999835112005584 -88.61091657168136 1.9999999999999998
  endloop
endfacet
facet normal -0.9659258262890632 0.2588190451025393 -6.894266107295067e-17
  outer loop
    vertex 2.6999835112005584 -88.61091657168136 0.0
    vertex 2.9102149800894686 -87.9915946353685 1.9999999999999998
    vertex 2.9102149800894686 -87.9915946353685 0.0
  endloop
endfacet
facet normal -0.9659258262890632 0.2588190451025393 -6.894266107295067e-17
  outer loop
    vertex 2.6999835112005584 -88.61091657168136 1.9999999999999998
    vertex 2.572388335776822 -89.25238083609369 0.0
    vertex 2.572388335776822 -89.25238083609369 1.9999999999999998
  endloop
endfacet
facet normal -0.9914448613738097 0.13052619222005654 -3.4731915922962144e-17
  outer loop
    vertex 2.572388335776822 -89.25238083609369 0.0
    vertex 2.6999835112005584 -88.61091657168136 1.9999999999999998
    vertex 2.6999835112005584 -88.61091657168136 0.0
  endloop
endfacet
facet normal -0.9914448613738097 0.13052619222005654 -3.4731915922962144e-17
  outer loop
    vertex 2.572388335776822 -89.25238083609369 1.9999999999999998
    vertex 2.529612642645894 -89.90501179719396 0.0
    vertex 2.529612642645894 -89.90501179719396 1.9999999999999998
  endloop
endfacet
facet normal -0.9978589232386055 0.0654031292301124 -1.7366590195177716e-17
  outer loop
    vertex 2.529612642645894 -89.90501179719396 0.0
    vertex 2.572388335776822 -89.25238083609369 1.9999999999999998
    vertex 2.572388335776822 -89.25238083609369 0.0
  endloop
endfacet
facet normal -1.0 6.871500496369144e-35 7.3101937972262e-20
  outer loop
    vertex 2.529612642645894 -89.90501179719396 1.9999999999999998
    vertex 2.529612642645894 -113.90501179719395 2.255973186038318e-14
    vertex 2.529612642645894 -113.90501179719395 2.000000000000022
  endloop
endfacet
facet normal -1.0 6.871500496369144e-35 7.3101937972262e-20
  outer loop
    vertex 2.529612642645894 -113.90501179719395 2.255973186038318e-14
    vertex 2.529612642645894 -89.90501179719396 1.9999999999999998
    vertex 2.529612642645894 -89.90501179719396 0.0
  endloop
endfacet
facet normal -0.9978589232386055 -0.0654031292301124 1.751248103740103e-17
  outer loop
    vertex 2.529612642645894 -113.90501179719395 2.000000000000022
    vertex 2.572388335776822 -114.55764275829422 2.255973186038318e-14
    vertex 2.572388335776822 -114.55764275829422 2.000000000000022
  endloop
endfacet
facet normal -0.9914448613738097 -0.13052619222005654 3.4876869004480275e-17
  outer loop
    vertex 2.572388335776822 -114.55764275829422 2.255973186038318e-14
    vertex 2.529612642645894 -113.90501179719395 2.000000000000022
    vertex 2.529612642645894 -113.90501179719395 2.255973186038318e-14
  endloop
endfacet
facet normal -0.9914448613738097 -0.13052619222005654 3.4876869004480275e-17
  outer loop
    vertex 2.572388335776822 -114.55764275829422 2.000000000000022
    vertex 2.6999835112005584 -115.19910702270656 2.255973186038318e-14
    vertex 2.6999835112005584 -115.19910702270656 2.000000000000022
  endloop
endfacet
facet normal -0.965925826289062 -0.2588190451025446 6.908388317263047e-17
  outer loop
    vertex 2.6999835112005584 -115.19910702270656 2.255973186038318e-14
    vertex 2.572388335776822 -114.55764275829422 2.000000000000022
    vertex 2.572388335776822 -114.55764275829422 2.255973186038318e-14
  endloop
endfacet
facet normal -0.965925826289062 -0.2588190451025446 6.908388317263047e-17
  outer loop
    vertex 2.6999835112005584 -115.19910702270656 2.000000000000022
    vertex 2.9102149800894686 -115.81842895901939 2.255973186038318e-14
    vertex 2.9102149800894686 -115.81842895901939 2.000000000000022
  endloop
endfacet
facet normal -0.923879532511281 -0.38268343236510377 1.0210885294601844e-16
  outer loop
    vertex 2.9102149800894686 -115.81842895901939 2.255973186038318e-14
    vertex 2.6999835112005584 -115.19910702270656 2.000000000000022
    vertex 2.6999835112005584 -115.19910702270656 2.255973186038318e-14
  endloop
endfacet
facet normal -0.923879532511281 -0.38268343236510377 1.0210885294601844e-16
  outer loop
    vertex 2.9102149800894686 -115.81842895901939 2.000000000000022
    vertex 3.1994856237237173 -116.40501179719392 2.255973186038318e-14
    vertex 3.1994856237237173 -116.40501179719392 2.000000000000022
  endloop
endfacet
facet normal -0.8660254037844345 -0.5000000000000074 1.333867119355785e-16
  outer loop
    vertex 3.1994856237237173 -116.40501179719392 2.255973186038318e-14
    vertex 2.9102149800894686 -115.81842895901939 2.000000000000022
    vertex 2.9102149800894686 -115.81842895901939 2.255973186038318e-14
  endloop
endfacet
facet normal -0.8660254037844345 -0.5000000000000074 1.333867119355785e-16
  outer loop
    vertex 3.1994856237237173 -116.40501179719392 2.000000000000022
    vertex 3.5628459411897335 -116.94881894223752 2.255973186038318e-14
    vertex 3.5628459411897335 -116.94881894223752 2.000000000000022
  endloop
endfacet
facet normal -0.7933533402912532 -0.6087614290086971 1.6238228730213125e-16
  outer loop
    vertex 3.5628459411897335 -116.94881894223752 2.255973186038318e-14
    vertex 3.1994856237237173 -116.40501179719392 2.000000000000022
    vertex 3.1994856237237173 -116.40501179719392 2.255973186038318e-14
  endloop
endfacet
facet normal -0.7933533402912532 -0.6087614290086971 1.6238228730213125e-16
  outer loop
    vertex 3.5628459411897335 -116.94881894223752 2.000000000000022
    vertex 3.9940787367131327 -117.44054570312667 2.255973186038318e-14
    vertex 3.9940787367131327 -117.44054570312667 2.000000000000022
  endloop
endfacet
facet normal -0.707106781186568 -0.7071067811865268 1.8859945671207776e-16
  outer loop
    vertex 3.9940787367131327 -117.44054570312667 2.255973186038318e-14
    vertex 3.5628459411897335 -116.94881894223752 2.000000000000022
    vertex 3.5628459411897335 -116.94881894223752 2.255973186038318e-14
  endloop
endfacet
facet normal -0.6087614290087127 -0.7933533402912412 2.1158963712803891e-16
  outer loop
    vertex 4.485805497602277 -117.87177849865013 2.000000000000022
    vertex 3.9940787367131327 -117.44054570312667 2.255973186038318e-14
    vertex 4.485805497602277 -117.87177849865013 2.255973186038318e-14
  endloop
endfacet
facet normal -0.707106781186568 -0.7071067811865268 1.8859945671207776e-16
  outer loop
    vertex 3.9940787367131327 -117.44054570312667 2.255973186038318e-14
    vertex 4.485805497602277 -117.87177849865013 2.000000000000022
    vertex 3.9940787367131327 -117.44054570312667 2.000000000000022
  endloop
endfacet
facet normal -0.49999999999999223 -0.866025403784443 2.3095946018900147e-16
  outer loop
    vertex 5.0296126426459065 -118.23513881611613 2.000000000000022
    vertex 4.485805497602277 -117.87177849865013 2.255973186038318e-14
    vertex 5.0296126426459065 -118.23513881611613 2.255973186038318e-14
  endloop
endfacet
facet normal -0.6087614290087127 -0.7933533402912412 2.1158963712803891e-16
  outer loop
    vertex 4.485805497602277 -117.87177849865013 2.255973186038318e-14
    vertex 5.0296126426459065 -118.23513881611613 2.000000000000022
    vertex 4.485805497602277 -117.87177849865013 2.000000000000022
  endloop
endfacet
facet normal -0.38268343236505614 -0.9238795325113006 2.463775028520734e-16
  outer loop
    vertex 5.616195480820419 -118.52440945975036 2.000000000000022
    vertex 5.0296126426459065 -118.23513881611613 2.255973186038318e-14
    vertex 5.616195480820419 -118.52440945975036 2.255973186038318e-14
  endloop
endfacet
facet normal -0.49999999999999223 -0.866025403784443 2.3095946018900147e-16
  outer loop
    vertex 5.0296126426459065 -118.23513881611613 2.255973186038318e-14
    vertex 5.616195480820419 -118.52440945975036 2.000000000000022
    vertex 5.0296126426459065 -118.23513881611613 2.000000000000022
  endloop
endfacet
facet normal -0.25881904510250553 -0.9659258262890722 2.575799581325923e-16
  outer loop
    vertex 6.235517417133299 -118.73464092863924 2.000000000000022
    vertex 5.616195480820419 -118.52440945975036 2.255973186038318e-14
    vertex 6.235517417133299 -118.73464092863924 2.255973186038318e-14
  endloop
endfacet
facet normal -0.38268343236505614 -0.9238795325113006 2.463775028520734e-16
  outer loop
    vertex 5.616195480820419 -118.52440945975036 2.255973186038318e-14
    vertex 6.235517417133299 -118.73464092863924 2.000000000000022
    vertex 5.616195480820419 -118.52440945975036 2.000000000000022
  endloop
endfacet
facet normal -0.13052619222005987 -0.9914448613738094 2.6437514891480774e-16
  outer loop
    vertex 6.876981681545614 -118.86223610406297 2.000000000000022
    vertex 6.235517417133299 -118.73464092863924 2.255973186038318e-14
    vertex 6.876981681545614 -118.86223610406297 2.255973186038318e-14
  endloop
endfacet
facet normal -0.25881904510250553 -0.9659258262890722 2.575799581325923e-16
  outer loop
    vertex 6.235517417133299 -118.73464092863924 2.255973186038318e-14
    vertex 6.876981681545614 -118.86223610406297 2.000000000000022
    vertex 6.235517417133299 -118.73464092863924 2.000000000000022
  endloop
endfacet
facet normal -0.0654031292301124 -0.9978589232386055 2.6608067741269617e-16
  outer loop
    vertex 7.529612642645879 -118.9050117971939 2.000000000000022
    vertex 6.876981681545614 -118.86223610406297 2.255973186038318e-14
    vertex 7.529612642645879 -118.9050117971939 2.255973186038318e-14
  endloop
endfacet
facet normal -0.13052619222005987 -0.9914448613738094 2.6437514891480774e-16
  outer loop
    vertex 6.876981681545614 -118.86223610406297 2.255973186038318e-14
    vertex 7.529612642645879 -118.9050117971939 2.000000000000022
    vertex 6.876981681545614 -118.86223610406297 2.000000000000022
  endloop
endfacet
facet normal 1.1349963171497007e-31 -1.0 2.6664680760045344e-16
  outer loop
    vertex 60.52961264264588 -118.9050117971939 1.9999999999999998
    vertex 7.529612642645879 -118.9050117971939 2.255973186038318e-14
    vertex 60.52961264264588 -118.9050117971939 0.0
  endloop
endfacet
facet normal 1.1349963171497007e-31 -1.0 2.6664680760045344e-16
  outer loop
    vertex 7.529612642645879 -118.9050117971939 2.255973186038318e-14
    vertex 60.52961264264588 -118.9050117971939 1.9999999999999998
    vertex 7.529612642645879 -118.9050117971939 2.000000000000022
  endloop
endfacet
facet normal 1.0 9.70094187722704e-35 -7.310193797226199e-20
  outer loop
    vertex 60.52961264264588 -101.90501179719392 2.255973186038318e-14
    vertex 60.52961264264588 -118.9050117971939 1.9999999999999998
    vertex 60.52961264264588 -118.9050117971939 0.0
  endloop
endfacet
facet normal 1.0 9.70094187722704e-35 -7.310193797226199e-20
  outer loop
    vertex 60.52961264264588 -118.9050117971939 1.9999999999999998
    vertex 60.52961264264588 -101.90501179719392 2.255973186038318e-14
    vertex 60.52961264264588 -101.90501179719392 2.000000000000022
  endloop
endfacet
facet normal -1.1279865930191567e-15 1.0 -2.666468076004534e-16
  outer loop
    vertex 40.529612642645844 -101.90501179719395 1.9999999999999998
    vertex 60.52961264264588 -101.90501179719392 2.255973186038318e-14
    vertex 40.529612642645844 -101.90501179719395 0.0
  endloop
endfacet
facet normal -1.1279865930191567e-15 1.0 -2.666468076004534e-16
  outer loop
    vertex 60.52961264264588 -101.90501179719392 2.255973186038318e-14
    vertex 40.529612642645844 -101.90501179719395 1.9999999999999998
    vertex 60.52961264264588 -101.90501179719392 2.000000000000022
  endloop
endfacet
facet normal 7.310193797226199e-20 2.666468076004534e-16 1.0
  outer loop
    vertex 2.572388335776822 -114.55764275829422 2.000000000000022
    vertex 2.529612642645894 -89.90501179719396 1.9999999999999998
    vertex 2.529612642645894 -113.90501179719395 2.000000000000022
  endloop
endfacet
facet normal 7.310193797226199e-20 2.666468076004534e-16 1.0
  outer loop
    vertex 2.529612642645894 -89.90501179719396 1.9999999999999998
    vertex 2.572388335776822 -114.55764275829422 2.000000000000022
    vertex 2.572388335776822 -89.25238083609369 1.9999999999999998
  endloop
endfacet
facet normal 7.310193797226199e-20 2.666468076004534e-16 1.0
  outer loop
    vertex 2.572388335776822 -89.25238083609369 1.9999999999999998
    vertex 2.572388335776822 -114.55764275829422 2.000000000000022
    vertex 2.6999835112005584 -115.19910702270656 2.000000000000022
  endloop
endfacet
facet normal 7.310193797226199e-20 2.666468076004534e-16 1.0
  outer loop
    vertex 2.572388335776822 -89.25238083609369 1.9999999999999998
    vertex 2.6999835112005584 -115.19910702270656 2.000000000000022
    vertex 2.6999835112005584 -88.61091657168136 1.9999999999999998
  endloop
endfacet
facet normal 7.310193797226199e-20 2.666468076004534e-16 1.0
  outer loop
    vertex 2.6999835112005584 -88.61091657168136 1.9999999999999998
    vertex 2.6999835112005584 -115.19910702270656 2.000000000000022
    vertex 2.9102149800894686 -115.81842895901939 2.000000000000022
  endloop
endfacet
facet normal 7.310193797226199e-20 2.666468076004534e-16 1.0
  outer loop
    vertex 2.6999835112005584 -88.61091657168136 1.9999999999999998
    vertex 2.9102149800894686 -115.81842895901939 2.000000000000022
    vertex 2.9102149800894686 -87.9915946353685 1.9999999999999998
  endloop
endfacet
facet normal 7.310193797226199e-20 2.666468076004534e-16 1.0
  outer loop
    vertex 2.9102149800894686 -87.9915946353685 1.9999999999999998
    vertex 2.9102149800894686 -115.81842895901939 2.000000000000022
    vertex 3.1994856237237173 -116.40501179719392 2.000000000000022
  endloop
endfacet
facet normal 7.310193797226199e-20 2.666468076004534e-16 1.0
  outer loop
    vertex 2.9102149800894686 -87.9915946353685 1.9999999999999998
    vertex 3.1994856237237173 -116.40501179719392 2.000000000000022
    vertex 3.1994856237237173 -87.40501179719396 1.9999999999999998
  endloop
endfacet
facet normal 7.310193797226199e-20 2.666468076004534e-16 1.0
  outer loop
    vertex 3.1994856237237173 -87.40501179719396 1.9999999999999998
    vertex 3.1994856237237173 -116.40501179719392 2.000000000000022
    vertex 3.5628459411897335 -116.94881894223752 2.000000000000022
  endloop
endfacet
facet normal 7.310193797226199e-20 2.666468076004534e-16 1.0
  outer loop
    vertex 3.1994856237237173 -87.40501179719396 1.9999999999999998
    vertex 3.5628459411897335 -116.94881894223752 2.000000000000022
    vertex 3.5628459411897335 -86.86120465215036 1.9999999999999998
  endloop
endfacet
facet normal 7.310193797226199e-20 2.666468076004534e-16 1.0
  outer loop
    vertex 3.5628459411897335 -86.86120465215036 1.9999999999999998
    vertex 3.5628459411897335 -116.94881894223752 2.000000000000022
    vertex 3.9940787367131327 -117.44054570312667 2.000000000000022
  endloop
endfacet
facet normal 7.310193797226199e-20 2.666468076004534e-16 1.0
  outer loop
    vertex 3.5628459411897335 -86.86120465215036 1.9999999999999998
    vertex 3.9940787367131327 -117.44054570312667 2.000000000000022
    vertex 3.9940787367131327 -86.36947789126121 1.9999999999999998
  endloop
endfacet
facet normal 7.310193797226199e-20 2.666468076004534e-16 1.0
  outer loop
    vertex 3.9940787367131327 -86.36947789126121 1.9999999999999998
    vertex 3.9940787367131327 -117.44054570312667 2.000000000000022
    vertex 4.485805497602277 -117.87177849865013 2.000000000000022
  endloop
endfacet
facet normal 7.310193797226199e-20 2.666468076004534e-16 1.0
  outer loop
    vertex 3.9940787367131327 -86.36947789126121 1.9999999999999998
    vertex 4.485805497602277 -117.87177849865013 2.000000000000022
    vertex 4.485805497602277 -85.93824509573778 1.9999999999999998
  endloop
endfacet
facet normal 7.310193797226199e-20 2.666468076004534e-16 1.0
  outer loop
    vertex 4.485805497602277 -85.93824509573778 1.9999999999999998
    vertex 4.485805497602277 -117.87177849865013 2.000000000000022
    vertex 5.0296126426459065 -118.23513881611613 2.000000000000022
  endloop
endfacet
facet normal 7.310193797226199e-20 2.666468076004534e-16 1.0
  outer loop
    vertex 4.485805497602277 -85.93824509573778 1.9999999999999998
    vertex 5.0296126426459065 -118.23513881611613 2.000000000000022
    vertex 5.0296126426459065 -85.57488477827177 1.9999999999999998
  endloop
endfacet
facet normal 7.310193797226199e-20 2.666468076004534e-16 1.0
  outer loop
    vertex 5.0296126426459065 -85.57488477827177 1.9999999999999998
    vertex 5.0296126426459065 -118.23513881611613 2.000000000000022
    vertex 5.616195480820419 -118.52440945975036 2.000000000000022
  endloop
endfacet
facet normal 7.310193797226199e-20 2.666468076004534e-16 1.0
  outer loop
    vertex 5.0296126426459065 -85.57488477827177 1.9999999999999998
    vertex 5.616195480820419 -118.52440945975036 2.000000000000022
    vertex 5.616195480820419 -85.28561413463753 1.9999999999999998
  endloop
endfacet
facet normal 7.310193797226199e-20 2.666468076004534e-16 1.0
  outer loop
    vertex 5.616195480820419 -85.28561413463753 1.9999999999999998
    vertex 5.616195480820419 -118.52440945975036 2.000000000000022
    vertex 6.235517417133299 -118.73464092863924 2.000000000000022
  endloop
endfacet
facet normal 7.310193797226199e-20 2.666468076004534e-16 1.0
  outer loop
    vertex 5.616195480820419 -85.28561413463753 1.9999999999999998
    vertex 6.235517417133299 -118.73464092863924 2.000000000000022
    vertex 6.235517417133299 -85.0753826657486 1.9999999999999998
  endloop
endfacet
facet normal 7.310193797226199e-20 2.666468076004534e-16 1.0
  outer loop
    vertex 6.235517417133299 -85.0753826657486 1.9999999999999998
    vertex 6.235517417133299 -118.73464092863924 2.000000000000022
    vertex 6.876981681545614 -118.86223610406297 2.000000000000022
  endloop
endfacet
facet normal 7.310193797226199e-20 2.666468076004534e-16 1.0
  outer loop
    vertex 6.235517417133299 -85.0753826657486 1.9999999999999998
    vertex 6.876981681545614 -118.86223610406297 2.000000000000022
    vertex 6.876981681545614 -84.94778749032491 1.9999999999999998
  endloop
endfacet
facet normal 7.310193797226199e-20 2.666468076004534e-16 1.0
  outer loop
    vertex 6.876981681545614 -84.94778749032491 1.9999999999999998
    vertex 6.876981681545614 -118.86223610406297 2.000000000000022
    vertex 7.529612642645879 -118.9050117971939 2.000000000000022
  endloop
endfacet
facet normal 7.310193797226199e-20 2.666468076004534e-16 1.0
  outer loop
    vertex 6.876981681545614 -84.94778749032491 1.9999999999999998
    vertex 7.529612642645879 -118.9050117971939 2.000000000000022
    vertex 7.529612642645879 -84.90501179719396 1.9999999999999998
  endloop
endfacet
facet normal 7.310193797226199e-20 2.666468076004534e-16 1.0
  outer loop
    vertex 7.529612642645879 -84.90501179719396 1.9999999999999998
    vertex 7.529612642645879 -118.9050117971939 2.000000000000022
    vertex 60.52961264264588 -118.9050117971939 1.9999999999999998
  endloop
endfacet
facet normal 7.310193797226199e-20 2.666468076004534e-16 1.0
  outer loop
    vertex 7.529612642645879 -84.90501179719396 1.9999999999999998
    vertex 60.52961264264588 -118.9050117971939 1.9999999999999998
    vertex 37.485805497602236 -100.87177849865012 1.9999999999999998
  endloop
endfacet
facet normal 7.310193797226199e-20 2.666468076004534e-16 1.0
  outer loop
    vertex 7.529612642645879 -84.90501179719396 1.9999999999999998
    vertex 37.485805497602236 -100.87177849865012 1.9999999999999998
    vertex 36.9940787367131 -100.44054570312667 1.9999999999999998
  endloop
endfacet
facet normal 7.310193797226199e-20 2.666468076004534e-16 1.0
  outer loop
    vertex 7.529612642645879 -84.90501179719396 1.9999999999999998
    vertex 36.9940787367131 -100.44054570312667 1.9999999999999998
    vertex 36.562845941189664 -99.94881894223754 1.9999999999999998
  endloop
endfacet
facet normal 7.310193797226199e-20 2.666468076004534e-16 1.0
  outer loop
    vertex 7.529612642645879 -84.90501179719396 1.9999999999999998
    vertex 36.562845941189664 -99.94881894223754 1.9999999999999998
    vertex 36.199485623723646 -99.40501179719394 1.9999999999999998
  endloop
endfacet
facet normal 7.310193797226199e-20 2.666468076004534e-16 1.0
  outer loop
    vertex 7.529612642645879 -84.90501179719396 1.9999999999999998
    vertex 36.199485623723646 -99.40501179719394 1.9999999999999998
    vertex 35.9102149800894 -98.81842895901939 1.9999999999999998
  endloop
endfacet
facet normal 7.310193797226199e-20 2.666468076004534e-16 1.0
  outer loop
    vertex 7.529612642645879 -84.90501179719396 1.9999999999999998
    vertex 35.9102149800894 -98.81842895901939 1.9999999999999998
    vertex 30.529612642645837 -84.90501179719396 2.000000000000022
  endloop
endfacet
facet normal 7.310193797226199e-20 2.666468076004534e-16 1.0
  outer loop
    vertex 30.529612642645837 -84.90501179719396 2.000000000000022
    vertex 35.9102149800894 -98.81842895901939 1.9999999999999998
    vertex 31.18224360374609 -84.94778749032491 2.000000000000022
  endloop
endfacet
facet normal 7.310193797226199e-20 2.666468076004534e-16 1.0
  outer loop
    vertex 31.18224360374609 -84.94778749032491 2.000000000000022
    vertex 35.9102149800894 -98.81842895901939 1.9999999999999998
    vertex 35.6999835112005 -98.19910702270654 1.9999999999999998
  endloop
endfacet
facet normal 7.310193797226199e-20 2.666468076004534e-16 1.0
  outer loop
    vertex 31.18224360374609 -84.94778749032491 2.000000000000022
    vertex 35.6999835112005 -98.19910702270654 1.9999999999999998
    vertex 31.82370786815844 -85.07538266574862 2.000000000000022
  endloop
endfacet
facet normal 7.310193797226199e-20 2.666468076004534e-16 1.0
  outer loop
    vertex 31.82370786815844 -85.07538266574862 2.000000000000022
    vertex 35.6999835112005 -98.19910702270654 1.9999999999999998
    vertex 32.44302980447129 -85.28561413463753 2.000000000000022
  endloop
endfacet
facet normal 7.310193797226199e-20 2.666468076004534e-16 1.0
  outer loop
    vertex 32.44302980447129 -85.28561413463753 2.000000000000022
    vertex 35.6999835112005 -98.19910702270654 1.9999999999999998
    vertex 33.02961264264584 -85.57488477827175 2.000000000000022
  endloop
endfacet
facet normal 7.310193797226199e-20 2.666468076004534e-16 1.0
  outer loop
    vertex 33.02961264264584 -85.57488477827175 2.000000000000022
    vertex 35.6999835112005 -98.19910702270654 1.9999999999999998
    vertex 35.57238833577679 -97.55764275829421 1.9999999999999998
  endloop
endfacet
facet normal 7.310193797226199e-20 2.666468076004534e-16 1.0
  outer loop
    vertex 33.02961264264584 -85.57488477827175 2.000000000000022
    vertex 35.57238833577679 -97.55764275829421 1.9999999999999998
    vertex 33.57341978768944 -85.93824509573778 2.000000000000022
  endloop
endfacet
facet normal 7.310193797226199e-20 2.666468076004534e-16 1.0
  outer loop
    vertex 33.57341978768944 -85.93824509573778 2.000000000000022
    vertex 35.57238833577679 -97.55764275829421 1.9999999999999998
    vertex 34.065146548578575 -86.36947789126123 2.000000000000022
  endloop
endfacet
facet normal 7.310193797226199e-20 2.666468076004534e-16 1.0
  outer loop
    vertex 34.065146548578575 -86.36947789126123 2.000000000000022
    vertex 35.57238833577679 -97.55764275829421 1.9999999999999998
    vertex 34.49637934410202 -86.86120465215036 2.000000000000022
  endloop
endfacet
facet normal 7.310193797226199e-20 2.666468076004534e-16 1.0
  outer loop
    vertex 34.49637934410202 -86.86120465215036 2.000000000000022
    vertex 35.57238833577679 -97.55764275829421 1.9999999999999998
    vertex 34.859739661568035 -87.40501179719395 2.000000000000022
  endloop
endfacet
facet normal 7.310193797226199e-20 2.666468076004534e-16 1.0
  outer loop
    vertex 34.859739661568035 -87.40501179719395 2.000000000000022
    vertex 35.57238833577679 -97.55764275829421 1.9999999999999998
    vertex 35.52961264264584 -96.90501179719394 1.9999999999999998
  endloop
endfacet
facet normal 7.310193797226199e-20 2.666468076004534e-16 1.0
  outer loop
    vertex 34.859739661568035 -87.40501179719395 2.000000000000022
    vertex 35.52961264264584 -96.90501179719394 1.9999999999999998
    vertex 35.149010305202275 -87.99159463536851 2.000000000000022
  endloop
endfacet
facet normal 7.310193797226199e-20 2.666468076004534e-16 1.0
  outer loop
    vertex 35.149010305202275 -87.99159463536851 2.000000000000022
    vertex 35.52961264264584 -96.90501179719394 1.9999999999999998
    vertex 35.35924177409118 -88.61091657168136 2.000000000000022
  endloop
endfacet
facet normal 7.310193797226199e-20 2.666468076004534e-16 1.0
  outer loop
    vertex 35.35924177409118 -88.61091657168136 2.000000000000022
    vertex 35.52961264264584 -96.90501179719394 1.9999999999999998
    vertex 35.486836949514895 -89.2523808360937 2.000000000000022
  endloop
endfacet
facet normal 7.310193797226199e-20 2.666468076004534e-16 1.0
  outer loop
    vertex 37.485805497602236 -100.87177849865012 1.9999999999999998
    vertex 60.52961264264588 -118.9050117971939 1.9999999999999998
    vertex 38.02961264264584 -101.23513881611612 1.9999999999999998
  endloop
endfacet
facet normal 7.310193797226199e-20 2.666468076004534e-16 1.0
  outer loop
    vertex 38.02961264264584 -101.23513881611612 1.9999999999999998
    vertex 60.52961264264588 -118.9050117971939 1.9999999999999998
    vertex 38.61619548082039 -101.52440945975037 1.9999999999999998
  endloop
endfacet
facet normal 7.310193797226199e-20 2.666468076004534e-16 1.0
  outer loop
    vertex 38.61619548082039 -101.52440945975037 1.9999999999999998
    vertex 60.52961264264588 -118.9050117971939 1.9999999999999998
    vertex 39.23551741713323 -101.73464092863928 1.9999999999999998
  endloop
endfacet
facet normal 7.310193797226199e-20 2.666468076004534e-16 1.0
  outer loop
    vertex 39.23551741713323 -101.73464092863928 1.9999999999999998
    vertex 60.52961264264588 -118.9050117971939 1.9999999999999998
    vertex 39.87698168154558 -101.86223610406297 1.9999999999999998
  endloop
endfacet
facet normal 7.310193797226199e-20 2.666468076004534e-16 1.0
  outer loop
    vertex 39.87698168154558 -101.86223610406297 1.9999999999999998
    vertex 60.52961264264588 -118.9050117971939 1.9999999999999998
    vertex 40.529612642645844 -101.90501179719395 1.9999999999999998
  endloop
endfacet
facet normal 7.310193797226199e-20 2.666468076004534e-16 1.0
  outer loop
    vertex 40.529612642645844 -101.90501179719395 1.9999999999999998
    vertex 60.52961264264588 -118.9050117971939 1.9999999999999998
    vertex 60.52961264264588 -101.90501179719392 2.000000000000022
  endloop
endfacet
facet normal 7.310193797226199e-20 2.666468076004534e-16 1.0
  outer loop
    vertex 35.52961264264584 -89.90501179719396 2.000000000000022
    vertex 35.486836949514895 -89.2523808360937 2.000000000000022
    vertex 35.52961264264584 -96.90501179719394 1.9999999999999998
  endloop
endfacet
endsolid Transmitter
