solid Transmitter
facet normal 2.563317613006748e-15 2.1942046188663514e-32 -1.0
  outer loop
    vertex 102.9040752040492 81.0454699892904 -2.255973186038318e-14
    vertex 102.86129951091829 51.39283902819008 -2.255973186038318e-14
    vertex 102.86129951091829 80.39283902819017 -2.255973186038318e-14
  endloop
endfacet
facet normal 2.563317613006748e-15 2.1942046188663514e-32 -1.0
  outer loop
    vertex 102.86129951091829 51.39283902819008 -2.255973186038318e-14
    vertex 102.9040752040492 81.0454699892904 -2.255973186038318e-14
    vertex 102.9040752040492 50.74020806708982 -2.255973186038318e-14
  endloop
endfacet
facet normal 2.563317613006748e-15 2.1942046188663514e-32 -1.0
  outer loop
    vertex 102.9040752040492 50.74020806708982 -2.255973186038318e-14
    vertex 102.9040752040492 81.0454699892904 -2.255973186038318e-14
    vertex 103.03167037947294 81.68693425370276 -2.255973186038318e-14
  endloop
endfacet
facet normal 2.563317613006748e-15 2.1942046188663514e-32 -1.0
  outer loop
    vertex 102.9040752040492 50.74020806708982 -2.255973186038318e-14
    vertex 103.03167037947294 81.68693425370276 -2.255973186038318e-14
    vertex 103.0316703794729 50.09874380267747 -2.255973186038318e-14
  endloop
endfacet
facet normal 2.563317613006748e-15 2.1942046188663514e-32 -1.0
  outer loop
    vertex 103.0316703794729 50.09874380267747 -2.255973186038318e-14
    vertex 103.03167037947294 81.68693425370276 -2.255973186038318e-14
    vertex 103.24190184836186 49.479421866364625 -2.255973186038318e-14
  endloop
endfacet
facet normal 2.563317613006748e-15 2.1942046188663514e-32 -1.0
  outer loop
    vertex 103.24190184836186 49.479421866364625 -2.255973186038318e-14
    vertex 103.03167037947294 81.68693425370276 -2.255973186038318e-14
    vertex 103.24190184836186 82.3062561900156 -2.255973186038318e-14
  endloop
endfacet
facet normal 2.563317613006748e-15 2.1942046188663514e-32 -1.0
  outer loop
    vertex 103.24190184836186 49.479421866364625 -2.255973186038318e-14
    vertex 103.24190184836186 82.3062561900156 -2.255973186038318e-14
    vertex 103.5311724919961 82.89283902819015 -2.255973186038318e-14
  endloop
endfacet
facet normal 2.563317613006748e-15 2.1942046188663514e-32 -1.0
  outer loop
    vertex 103.24190184836186 49.479421866364625 -2.255973186038318e-14
    vertex 103.5311724919961 82.89283902819015 -2.255973186038318e-14
    vertex 103.5311724919961 48.892839028190075 -2.255973186038318e-14
  endloop
endfacet
facet normal 2.563317613006748e-15 2.1942046188663514e-32 -1.0
  outer loop
    vertex 103.5311724919961 48.892839028190075 -2.255973186038318e-14
    vertex 103.5311724919961 82.89283902819015 -2.255973186038318e-14
    vertex 103.89453280946208 83.43664617323374 -2.255973186038318e-14
  endloop
endfacet
facet normal 2.563317613006748e-15 2.1942046188663514e-32 -1.0
  outer loop
    vertex 103.5311724919961 48.892839028190075 -2.255973186038318e-14
    vertex 103.89453280946208 83.43664617323374 -2.255973186038318e-14
    vertex 103.89453280946208 48.34903188314647 -2.255973186038318e-14
  endloop
endfacet
facet normal 2.563317613006748e-15 2.1942046188663514e-32 -1.0
  outer loop
    vertex 103.89453280946208 48.34903188314647 -2.255973186038318e-14
    vertex 103.89453280946208 83.43664617323374 -2.255973186038318e-14
    vertex 104.32576560498552 83.92837293412289 -2.255973186038318e-14
  endloop
endfacet
facet normal 2.563317613006748e-15 2.1942046188663514e-32 -1.0
  outer loop
    vertex 103.89453280946208 48.34903188314647 -2.255973186038318e-14
    vertex 104.32576560498552 83.92837293412289 -2.255973186038318e-14
    vertex 104.32576560498552 47.85730512225734 -2.255973186038318e-14
  endloop
endfacet
facet normal 2.563317613006748e-15 2.1942046188663514e-32 -1.0
  outer loop
    vertex 104.32576560498552 47.85730512225734 -2.255973186038318e-14
    vertex 104.32576560498552 83.92837293412289 -2.255973186038318e-14
    vertex 104.81749236587463 84.35960572964633 -2.255973186038318e-14
  endloop
endfacet
facet normal 2.563317613006748e-15 2.1942046188663514e-32 -1.0
  outer loop
    vertex 104.32576560498552 47.85730512225734 -2.255973186038318e-14
    vertex 104.81749236587463 84.35960572964633 -2.255973186038318e-14
    vertex 104.81749236587463 47.4260723267339 -2.255973186038318e-14
  endloop
endfacet
facet normal 2.563317613006748e-15 2.1942046188663514e-32 -1.0
  outer loop
    vertex 104.81749236587463 47.4260723267339 -2.255973186038318e-14
    vertex 104.81749236587463 84.35960572964633 -2.255973186038318e-14
    vertex 105.36129951091826 84.72296604711235 -2.255973186038318e-14
  endloop
endfacet
facet normal 2.563317613006748e-15 2.1942046188663514e-32 -1.0
  outer loop
    vertex 104.81749236587463 47.4260723267339 -2.255973186038318e-14
    vertex 105.36129951091826 84.72296604711235 -2.255973186038318e-14
    vertex 105.36129951091826 47.062712009267884 -2.255973186038318e-14
  endloop
endfacet
facet normal 2.563317613006748e-15 2.1942046188663514e-32 -1.0
  outer loop
    vertex 105.36129951091826 47.062712009267884 -2.255973186038318e-14
    vertex 105.36129951091826 84.72296604711235 -2.255973186038318e-14
    vertex 105.94788234909281 85.01223669074658 -2.255973186038318e-14
  endloop
endfacet
facet normal 2.563317613006748e-15 2.1942046188663514e-32 -1.0
  outer loop
    vertex 105.36129951091826 47.062712009267884 -2.255973186038318e-14
    vertex 105.94788234909281 85.01223669074658 -2.255973186038318e-14
    vertex 105.94788234909281 46.77344136563364 -2.255973186038318e-14
  endloop
endfacet
facet normal 2.563317613006748e-15 2.1942046188663514e-32 -1.0
  outer loop
    vertex 105.94788234909281 46.77344136563364 -2.255973186038318e-14
    vertex 105.94788234909281 85.01223669074658 -2.255973186038318e-14
    vertex 106.56720428540565 85.22246815963548 -2.255973186038318e-14
  endloop
endfacet
facet normal 2.563317613006748e-15 2.1942046188663514e-32 -1.0
  outer loop
    vertex 105.94788234909281 46.77344136563364 -2.255973186038318e-14
    vertex 106.56720428540565 85.22246815963548 -2.255973186038318e-14
    vertex 106.56720428540565 46.56320989674474 -2.255973186038318e-14
  endloop
endfacet
facet normal 2.563317613006748e-15 2.1942046188663514e-32 -1.0
  outer loop
    vertex 106.56720428540565 46.56320989674474 -2.255973186038318e-14
    vertex 106.56720428540565 85.22246815963548 -2.255973186038318e-14
    vertex 107.20866854981806 85.35006333505918 -2.255973186038318e-14
  endloop
endfacet
facet normal 2.563317613006748e-15 2.1942046188663514e-32 -1.0
  outer loop
    vertex 106.56720428540565 46.56320989674474 -2.255973186038318e-14
    vertex 107.20866854981806 85.35006333505918 -2.255973186038318e-14
    vertex 107.20866854981806 46.43561472132102 -2.255973186038318e-14
  endloop
endfacet
facet normal 2.563317613006748e-15 2.1942046188663514e-32 -1.0
  outer loop
    vertex 107.20866854981806 46.43561472132102 -2.255973186038318e-14
    vertex 107.20866854981806 85.35006333505918 -2.255973186038318e-14
    vertex 107.86129951091827 85.39283902819015 -2.255973186038318e-14
  endloop
endfacet
facet normal 2.563317613006748e-15 2.1942046188663514e-32 -1.0
  outer loop
    vertex 107.20866854981806 46.43561472132102 -2.255973186038318e-14
    vertex 107.86129951091827 85.39283902819015 -2.255973186038318e-14
    vertex 107.86129951091827 46.39283902819007 -2.255973186038318e-14
  endloop
endfacet
facet normal 2.563317613006748e-15 2.1942046188663514e-32 -1.0
  outer loop
    vertex 107.86129951091827 46.39283902819007 -2.255973186038318e-14
    vertex 107.86129951091827 85.39283902819015 -2.255973186038318e-14
    vertex 171.86129951091837 85.39283902819015 1.5791812302268225e-13
  endloop
endfacet
facet normal 2.563317613006748e-15 2.1942046188663514e-32 -1.0
  outer loop
    vertex 107.86129951091827 46.39283902819007 -2.255973186038318e-14
    vertex 171.86129951091837 85.39283902819015 1.5791812302268225e-13
    vertex 171.86129951091837 46.39283902819007 1.5791812302268225e-13
  endloop
endfacet
facet normal 2.563317613006748e-15 2.1942046188663514e-32 -1.0
  outer loop
    vertex 171.86129951091837 46.39283902819007 1.5791812302268225e-13
    vertex 171.86129951091837 85.39283902819015 1.5791812302268225e-13
    vertex 172.5139304720186 85.35006333505918 1.5791812302268225e-13
  endloop
endfacet
facet normal 2.563317613006748e-15 2.1942046188663514e-32 -1.0
  outer loop
    vertex 171.86129951091837 46.39283902819007 1.5791812302268225e-13
    vertex 172.5139304720186 85.35006333505918 1.5791812302268225e-13
    vertex 172.5139304720186 46.43561472132101 1.5791812302268225e-13
  endloop
endfacet
facet normal 2.563317613006748e-15 2.1942046188663514e-32 -1.0
  outer loop
    vertex 172.5139304720186 46.43561472132101 1.5791812302268225e-13
    vertex 172.5139304720186 85.35006333505918 1.5791812302268225e-13
    vertex 173.15539473643094 85.22246815963548 1.5791812302268225e-13
  endloop
endfacet
facet normal 2.563317613006748e-15 2.1942046188663514e-32 -1.0
  outer loop
    vertex 172.5139304720186 46.43561472132101 1.5791812302268225e-13
    vertex 173.15539473643094 85.22246815963548 1.5791812302268225e-13
    vertex 173.15539473643094 46.56320989674472 1.5791812302268225e-13
  endloop
endfacet
facet normal 2.563317613006748e-15 2.1942046188663514e-32 -1.0
  outer loop
    vertex 173.15539473643094 46.56320989674472 1.5791812302268225e-13
    vertex 173.15539473643094 85.22246815963548 1.5791812302268225e-13
    vertex 173.77471667274378 85.01223669074658 1.5791812302268225e-13
  endloop
endfacet
facet normal 2.563317613006748e-15 2.1942046188663514e-32 -1.0
  outer loop
    vertex 173.15539473643094 46.56320989674472 1.5791812302268225e-13
    vertex 173.77471667274378 85.01223669074658 1.5791812302268225e-13
    vertex 173.77471667274378 46.77344136563364 1.5791812302268225e-13
  endloop
endfacet
facet normal 2.563317613006748e-15 2.1942046188663514e-32 -1.0
  outer loop
    vertex 173.77471667274378 46.77344136563364 1.5791812302268225e-13
    vertex 173.77471667274378 85.01223669074658 1.5791812302268225e-13
    vertex 174.36129951091834 84.72296604711235 1.5791812302268225e-13
  endloop
endfacet
facet normal 2.563317613006748e-15 2.1942046188663514e-32 -1.0
  outer loop
    vertex 173.77471667274378 46.77344136563364 1.5791812302268225e-13
    vertex 174.36129951091834 84.72296604711235 1.5791812302268225e-13
    vertex 174.36129951091834 47.06271200926787 1.5791812302268225e-13
  endloop
endfacet
facet normal 2.563317613006748e-15 2.1942046188663514e-32 -1.0
  outer loop
    vertex 174.36129951091834 47.06271200926787 1.5791812302268225e-13
    vertex 174.36129951091834 84.72296604711235 1.5791812302268225e-13
    vertex 174.90510665596196 84.35960572964633 1.5791812302268225e-13
  endloop
endfacet
facet normal 2.563317613006748e-15 2.1942046188663514e-32 -1.0
  outer loop
    vertex 174.36129951091834 47.06271200926787 1.5791812302268225e-13
    vertex 174.90510665596196 84.35960572964633 1.5791812302268225e-13
    vertex 174.90510665596196 47.4260723267339 1.5791812302268225e-13
  endloop
endfacet
facet normal 2.563317613006748e-15 2.1942046188663514e-32 -1.0
  outer loop
    vertex 174.90510665596196 47.4260723267339 1.5791812302268225e-13
    vertex 174.90510665596196 84.35960572964633 1.5791812302268225e-13
    vertex 175.39683341685105 83.92837293412289 1.5791812302268225e-13
  endloop
endfacet
facet normal 2.563317613006748e-15 2.1942046188663514e-32 -1.0
  outer loop
    vertex 174.90510665596196 47.4260723267339 1.5791812302268225e-13
    vertex 175.39683341685105 83.92837293412289 1.5791812302268225e-13
    vertex 175.39683341685105 47.85730512225734 1.5791812302268225e-13
  endloop
endfacet
facet normal 2.563317613006748e-15 2.1942046188663514e-32 -1.0
  outer loop
    vertex 175.39683341685105 47.85730512225734 1.5791812302268225e-13
    vertex 175.39683341685105 83.92837293412289 1.5791812302268225e-13
    vertex 175.82806621237452 83.43664617323378 1.5791812302268225e-13
  endloop
endfacet
facet normal 2.563317613006748e-15 2.1942046188663514e-32 -1.0
  outer loop
    vertex 175.39683341685105 47.85730512225734 1.5791812302268225e-13
    vertex 175.82806621237452 83.43664617323378 1.5791812302268225e-13
    vertex 175.82806621237452 48.34903188314647 1.5791812302268225e-13
  endloop
endfacet
facet normal 2.563317613006748e-15 2.1942046188663514e-32 -1.0
  outer loop
    vertex 175.82806621237452 48.34903188314647 1.5791812302268225e-13
    vertex 175.82806621237452 83.43664617323378 1.5791812302268225e-13
    vertex 176.19142652984058 82.89283902819015 1.5791812302268225e-13
  endloop
endfacet
facet normal 2.563317613006748e-15 2.1942046188663514e-32 -1.0
  outer loop
    vertex 175.82806621237452 48.34903188314647 1.5791812302268225e-13
    vertex 176.19142652984058 82.89283902819015 1.5791812302268225e-13
    vertex 176.19142652984058 48.89283902819007 1.5791812302268225e-13
  endloop
endfacet
facet normal 2.563317613006748e-15 2.1942046188663514e-32 -1.0
  outer loop
    vertex 176.19142652984058 48.89283902819007 1.5791812302268225e-13
    vertex 176.19142652984058 82.89283902819015 1.5791812302268225e-13
    vertex 176.48069717347482 82.3062561900156 1.5791812302268225e-13
  endloop
endfacet
facet normal 2.563317613006748e-15 2.1942046188663514e-32 -1.0
  outer loop
    vertex 176.19142652984058 48.89283902819007 1.5791812302268225e-13
    vertex 176.48069717347482 82.3062561900156 1.5791812302268225e-13
    vertex 176.48069717347482 49.479421866364625 1.5791812302268225e-13
  endloop
endfacet
facet normal 2.563317613006748e-15 2.1942046188663514e-32 -1.0
  outer loop
    vertex 176.48069717347482 49.479421866364625 1.5791812302268225e-13
    vertex 176.48069717347482 82.3062561900156 1.5791812302268225e-13
    vertex 176.69092864236364 81.68693425370276 1.5791812302268225e-13
  endloop
endfacet
facet normal 2.563317613006748e-15 2.1942046188663514e-32 -1.0
  outer loop
    vertex 176.48069717347482 49.479421866364625 1.5791812302268225e-13
    vertex 176.69092864236364 81.68693425370276 1.5791812302268225e-13
    vertex 176.69092864236364 50.09874380267747 1.5791812302268225e-13
  endloop
endfacet
facet normal 2.563317613006748e-15 2.1942046188663514e-32 -1.0
  outer loop
    vertex 176.69092864236364 50.09874380267747 1.5791812302268225e-13
    vertex 176.69092864236364 81.68693425370276 1.5791812302268225e-13
    vertex 176.81852381778737 81.04546998929045 1.5791812302268225e-13
  endloop
endfacet
facet normal 2.563317613006748e-15 2.1942046188663514e-32 -1.0
  outer loop
    vertex 176.69092864236364 50.09874380267747 1.5791812302268225e-13
    vertex 176.81852381778737 81.04546998929045 1.5791812302268225e-13
    vertex 176.81852381778737 50.74020806708982 1.5791812302268225e-13
  endloop
endfacet
facet normal 2.563317613006748e-15 2.1942046188663514e-32 -1.0
  outer loop
    vertex 176.81852381778737 50.74020806708982 1.5791812302268225e-13
    vertex 176.81852381778737 81.04546998929045 1.5791812302268225e-13
    vertex 176.86129951091831 80.39283902819017 1.5791812302268225e-13
  endloop
endfacet
facet normal 2.563317613006748e-15 2.1942046188663514e-32 -1.0
  outer loop
    vertex 176.81852381778737 50.74020806708982 1.5791812302268225e-13
    vertex 176.86129951091831 80.39283902819017 1.5791812302268225e-13
    vertex 176.86129951091831 51.39283902819008 1.5791812302268225e-13
  endloop
endfacet
facet normal -0.06540312923015126 -0.9978589232386031 -1.6764899310140328e-16
  outer loop
    vertex 107.86129951091827 46.39283902819007 1.9999999999999774
    vertex 107.20866854981806 46.43561472132102 -2.255973186038318e-14
    vertex 107.86129951091827 46.39283902819007 -2.255973186038318e-14
  endloop
endfacet
facet normal -0.13052619222004905 -0.9914448613738107 -3.345800874763561e-16
  outer loop
    vertex 107.20866854981806 46.43561472132102 -2.255973186038318e-14
    vertex 107.86129951091827 46.39283902819007 1.9999999999999774
    vertex 107.20866854981806 46.43561472132102 1.9999999999999774
  endloop
endfacet
facet normal -0.13052619222004905 -0.9914448613738107 -3.345800874763561e-16
  outer loop
    vertex 107.20866854981806 46.43561472132102 1.9999999999999774
    vertex 106.56720428540565 46.56320989674474 -2.255973186038318e-14
    vertex 107.20866854981806 46.43561472132102 -2.255973186038318e-14
  endloop
endfacet
facet normal -0.2588190451025106 -0.965925826289071 -6.634354168928533e-16
  outer loop
    vertex 106.56720428540565 46.56320989674474 -2.255973186038318e-14
    vertex 107.20866854981806 46.43561472132102 1.9999999999999774
    vertex 106.56720428540565 46.56320989674474 1.9999999999999774
  endloop
endfacet
facet normal -0.2588190451025106 -0.965925826289071 -6.634354168928533e-16
  outer loop
    vertex 106.56720428540565 46.56320989674474 1.9999999999999774
    vertex 105.94788234909281 46.77344136563364 -2.255973186038318e-14
    vertex 106.56720428540565 46.56320989674474 -2.255973186038318e-14
  endloop
endfacet
facet normal -0.3826834323650892 -0.9238795325112871 -9.809391823873097e-16
  outer loop
    vertex 105.94788234909281 46.77344136563364 -2.255973186038318e-14
    vertex 106.56720428540565 46.56320989674474 1.9999999999999774
    vertex 105.94788234909281 46.77344136563364 1.9999999999999774
  endloop
endfacet
facet normal -0.3826834323650892 -0.9238795325112871 -9.809391823873097e-16
  outer loop
    vertex 105.94788234909281 46.77344136563364 1.9999999999999774
    vertex 105.36129951091826 47.062712009267884 -2.255973186038318e-14
    vertex 105.94788234909281 46.77344136563364 -2.255973186038318e-14
  endloop
endfacet
facet normal -0.49999999999999245 -0.8660254037844429 -1.2816588065033545e-15
  outer loop
    vertex 105.36129951091826 47.062712009267884 -2.255973186038318e-14
    vertex 105.94788234909281 46.77344136563364 1.9999999999999774
    vertex 105.36129951091826 47.062712009267884 1.9999999999999774
  endloop
endfacet
facet normal -0.49999999999999245 -0.8660254037844429 -1.2816588065033545e-15
  outer loop
    vertex 105.36129951091826 47.062712009267884 1.9999999999999774
    vertex 104.81749236587463 47.4260723267339 -2.255973186038318e-14
    vertex 105.36129951091826 47.062712009267884 -2.255973186038318e-14
  endloop
endfacet
facet normal -0.6087614290087258 -0.7933533402912313 -1.5604488930972239e-15
  outer loop
    vertex 104.81749236587463 47.4260723267339 -2.255973186038318e-14
    vertex 105.36129951091826 47.062712009267884 1.9999999999999774
    vertex 104.81749236587463 47.4260723267339 1.9999999999999774
  endloop
endfacet
facet normal -0.6087614290087258 -0.7933533402912313 -1.5604488930972239e-15
  outer loop
    vertex 104.81749236587463 47.4260723267339 1.9999999999999774
    vertex 104.32576560498552 47.85730512225734 -2.255973186038318e-14
    vertex 104.81749236587463 47.4260723267339 -2.255973186038318e-14
  endloop
endfacet
facet normal -0.707106781186555 -0.7071067811865401 -1.8125392664920048e-15
  outer loop
    vertex 104.32576560498552 47.85730512225734 -2.255973186038318e-14
    vertex 104.81749236587463 47.4260723267339 1.9999999999999774
    vertex 104.32576560498552 47.85730512225734 1.9999999999999774
  endloop
endfacet
facet normal -0.7933533402912494 -0.6087614290087021 -2.033616590506296e-15
  outer loop
    vertex 103.89453280946208 48.34903188314647 1.9999999999999774
    vertex 104.32576560498552 47.85730512225734 -2.255973186038318e-14
    vertex 104.32576560498552 47.85730512225734 1.9999999999999774
  endloop
endfacet
facet normal -0.707106781186555 -0.7071067811865401 -1.8125392664920048e-15
  outer loop
    vertex 104.32576560498552 47.85730512225734 -2.255973186038318e-14
    vertex 103.89453280946208 48.34903188314647 1.9999999999999774
    vertex 103.89453280946208 48.34903188314647 -2.255973186038318e-14
  endloop
endfacet
facet normal -0.8660254037844508 -0.49999999999997924 -2.2198981708319635e-15
  outer loop
    vertex 103.5311724919961 48.892839028190075 1.9999999999999774
    vertex 103.89453280946208 48.34903188314647 -2.255973186038318e-14
    vertex 103.89453280946208 48.34903188314647 1.9999999999999774
  endloop
endfacet
facet normal -0.7933533402912494 -0.6087614290087021 -2.033616590506296e-15
  outer loop
    vertex 103.89453280946208 48.34903188314647 -2.255973186038318e-14
    vertex 103.5311724919961 48.892839028190075 1.9999999999999774
    vertex 103.5311724919961 48.892839028190075 -2.255973186038318e-14
  endloop
endfacet
facet normal -0.923879532511271 -0.38268343236512786 -2.3681966779825812e-15
  outer loop
    vertex 103.24190184836186 49.479421866364625 1.9999999999999774
    vertex 103.5311724919961 48.892839028190075 -2.255973186038318e-14
    vertex 103.5311724919961 48.892839028190075 1.9999999999999774
  endloop
endfacet
facet normal -0.8660254037844508 -0.49999999999997924 -2.2198981708319635e-15
  outer loop
    vertex 103.5311724919961 48.892839028190075 -2.255973186038318e-14
    vertex 103.24190184836186 49.479421866364625 1.9999999999999774
    vertex 103.24190184836186 49.479421866364625 -2.255973186038318e-14
  endloop
endfacet
facet normal -0.9659258262890633 -0.25881904510253917 -2.4759746833848525e-15
  outer loop
    vertex 103.0316703794729 50.09874380267747 1.9999999999999774
    vertex 103.24190184836186 49.479421866364625 -2.255973186038318e-14
    vertex 103.24190184836186 49.479421866364625 1.9999999999999774
  endloop
endfacet
facet normal -0.923879532511271 -0.38268343236512786 -2.3681966779825812e-15
  outer loop
    vertex 103.24190184836186 49.479421866364625 -2.255973186038318e-14
    vertex 103.0316703794729 50.09874380267747 1.9999999999999774
    vertex 103.0316703794729 50.09874380267747 -2.255973186038318e-14
  endloop
endfacet
facet normal -0.9914448613738145 -0.13052619222002163 -2.541388075484532e-15
  outer loop
    vertex 102.9040752040492 50.74020806708982 1.9999999999999774
    vertex 103.0316703794729 50.09874380267747 -2.255973186038318e-14
    vertex 103.0316703794729 50.09874380267747 1.9999999999999774
  endloop
endfacet
facet normal -0.9659258262890633 -0.25881904510253917 -2.4759746833848525e-15
  outer loop
    vertex 103.0316703794729 50.09874380267747 -2.255973186038318e-14
    vertex 102.9040752040492 50.74020806708982 1.9999999999999774
    vertex 102.9040752040492 50.74020806708982 -2.255973186038318e-14
  endloop
endfacet
facet normal -0.9978589232386055 -0.06540312923011296 -2.557829353233466e-15
  outer loop
    vertex 102.86129951091829 51.39283902819008 1.9999999999999774
    vertex 102.9040752040492 50.74020806708982 -2.255973186038318e-14
    vertex 102.9040752040492 50.74020806708982 1.9999999999999774
  endloop
endfacet
facet normal -0.9914448613738145 -0.13052619222002163 -2.541388075484532e-15
  outer loop
    vertex 102.9040752040492 50.74020806708982 -2.255973186038318e-14
    vertex 102.86129951091829 51.39283902819008 1.9999999999999774
    vertex 102.86129951091829 51.39283902819008 -2.255973186038318e-14
  endloop
endfacet
facet normal -0.99144486137381 0.13052619222005435 -2.541388075484521e-15
  outer loop
    vertex 102.9040752040492 81.0454699892904 1.9999999999999774
    vertex 102.86129951091829 80.39283902819017 -2.255973186038318e-14
    vertex 102.86129951091829 80.39283902819017 1.9999999999999774
  endloop
endfacet
facet normal -0.9978589232386055 0.06540312923011467 -2.5578293532334664e-15
  outer loop
    vertex 102.86129951091829 80.39283902819017 -2.255973186038318e-14
    vertex 102.9040752040492 81.0454699892904 1.9999999999999774
    vertex 102.9040752040492 81.0454699892904 -2.255973186038318e-14
  endloop
endfacet
facet normal -0.9659258262890629 0.25881904510254133 -2.475974683384851e-15
  outer loop
    vertex 103.03167037947294 81.68693425370276 1.9999999999999774
    vertex 102.9040752040492 81.0454699892904 -2.255973186038318e-14
    vertex 102.9040752040492 81.0454699892904 1.9999999999999774
  endloop
endfacet
facet normal -0.99144486137381 0.13052619222005435 -2.541388075484521e-15
  outer loop
    vertex 102.9040752040492 81.0454699892904 -2.255973186038318e-14
    vertex 103.03167037947294 81.68693425370276 1.9999999999999774
    vertex 103.03167037947294 81.68693425370276 -2.255973186038318e-14
  endloop
endfacet
facet normal -0.9238795325112839 0.3826834323650967 -2.3681966779826144e-15
  outer loop
    vertex 103.24190184836186 82.3062561900156 1.9999999999999774
    vertex 103.03167037947294 81.68693425370276 -2.255973186038318e-14
    vertex 103.03167037947294 81.68693425370276 1.9999999999999774
  endloop
endfacet
facet normal -0.9659258262890629 0.25881904510254133 -2.475974683384851e-15
  outer loop
    vertex 103.03167037947294 81.68693425370276 -2.255973186038318e-14
    vertex 103.24190184836186 82.3062561900156 1.9999999999999774
    vertex 103.24190184836186 82.3062561900156 -2.255973186038318e-14
  endloop
endfacet
facet normal -0.8660254037844478 0.4999999999999841 -2.2198981708319556e-15
  outer loop
    vertex 103.5311724919961 82.89283902819015 1.9999999999999774
    vertex 103.24190184836186 82.3062561900156 -2.255973186038318e-14
    vertex 103.24190184836186 82.3062561900156 1.9999999999999774
  endloop
endfacet
facet normal -0.9238795325112839 0.3826834323650967 -2.3681966779826144e-15
  outer loop
    vertex 103.24190184836186 82.3062561900156 -2.255973186038318e-14
    vertex 103.5311724919961 82.89283902819015 1.9999999999999774
    vertex 103.5311724919961 82.89283902819015 -2.255973186038318e-14
  endloop
endfacet
facet normal -0.793353340291247 0.6087614290087051 -2.0336165905062897e-15
  outer loop
    vertex 103.89453280946208 83.43664617323374 1.9999999999999774
    vertex 103.5311724919961 82.89283902819015 -2.255973186038318e-14
    vertex 103.5311724919961 82.89283902819015 1.9999999999999774
  endloop
endfacet
facet normal -0.8660254037844478 0.4999999999999841 -2.2198981708319556e-15
  outer loop
    vertex 103.5311724919961 82.89283902819015 -2.255973186038318e-14
    vertex 103.89453280946208 83.43664617323374 1.9999999999999774
    vertex 103.89453280946208 83.43664617323374 -2.255973186038318e-14
  endloop
endfacet
facet normal -0.7071067811865636 0.7071067811865314 -1.8125392664920273e-15
  outer loop
    vertex 104.32576560498552 83.92837293412289 1.9999999999999774
    vertex 103.89453280946208 83.43664617323374 -2.255973186038318e-14
    vertex 103.89453280946208 83.43664617323374 1.9999999999999774
  endloop
endfacet
facet normal -0.793353340291247 0.6087614290087051 -2.0336165905062897e-15
  outer loop
    vertex 103.89453280946208 83.43664617323374 -2.255973186038318e-14
    vertex 104.32576560498552 83.92837293412289 1.9999999999999774
    vertex 104.32576560498552 83.92837293412289 -2.255973186038318e-14
  endloop
endfacet
facet normal -0.7071067811865636 0.7071067811865314 -1.8125392664920273e-15
  outer loop
    vertex 104.32576560498552 83.92837293412289 1.9999999999999774
    vertex 104.81749236587463 84.35960572964633 -2.255973186038318e-14
    vertex 104.32576560498552 83.92837293412289 -2.255973186038318e-14
  endloop
endfacet
facet normal -0.6087614290087309 0.7933533402912274 -1.560448893097237e-15
  outer loop
    vertex 104.81749236587463 84.35960572964633 -2.255973186038318e-14
    vertex 104.32576560498552 83.92837293412289 1.9999999999999774
    vertex 104.81749236587463 84.35960572964633 1.9999999999999774
  endloop
endfacet
facet normal -0.6087614290087309 0.7933533402912274 -1.560448893097237e-15
  outer loop
    vertex 104.81749236587463 84.35960572964633 1.9999999999999774
    vertex 105.36129951091826 84.72296604711235 -2.255973186038318e-14
    vertex 104.81749236587463 84.35960572964633 -2.255973186038318e-14
  endloop
endfacet
facet normal -0.499999999999979 0.8660254037844506 -1.2816588065033204e-15
  outer loop
    vertex 105.36129951091826 84.72296604711235 -2.255973186038318e-14
    vertex 104.81749236587463 84.35960572964633 1.9999999999999774
    vertex 105.36129951091826 84.72296604711235 1.9999999999999774
  endloop
endfacet
facet normal -0.499999999999979 0.8660254037844506 -1.2816588065033204e-15
  outer loop
    vertex 105.36129951091826 84.72296604711235 1.9999999999999774
    vertex 105.94788234909281 85.01223669074658 -2.255973186038318e-14
    vertex 105.36129951091826 84.72296604711235 -2.255973186038318e-14
  endloop
endfacet
facet normal -0.38268343236508245 0.9238795325112898 -9.809391823872926e-16
  outer loop
    vertex 105.94788234909281 85.01223669074658 -2.255973186038318e-14
    vertex 105.36129951091826 84.72296604711235 1.9999999999999774
    vertex 105.94788234909281 85.01223669074658 1.9999999999999774
  endloop
endfacet
facet normal -0.38268343236508245 0.9238795325112898 -9.809391823872926e-16
  outer loop
    vertex 105.94788234909281 85.01223669074658 1.9999999999999774
    vertex 106.56720428540565 85.22246815963548 -2.255973186038318e-14
    vertex 105.94788234909281 85.01223669074658 -2.255973186038318e-14
  endloop
endfacet
facet normal -0.25881904510250214 0.9659258262890732 -6.634354168928318e-16
  outer loop
    vertex 106.56720428540565 85.22246815963548 -2.255973186038318e-14
    vertex 105.94788234909281 85.01223669074658 1.9999999999999774
    vertex 106.56720428540565 85.22246815963548 1.9999999999999774
  endloop
endfacet
facet normal -0.25881904510250214 0.9659258262890732 -6.634354168928318e-16
  outer loop
    vertex 106.56720428540565 85.22246815963548 1.9999999999999774
    vertex 107.20866854981806 85.35006333505918 -2.255973186038318e-14
    vertex 106.56720428540565 85.22246815963548 -2.255973186038318e-14
  endloop
endfacet
facet normal -0.13052619222004935 0.9914448613738107 -3.3458008747635694e-16
  outer loop
    vertex 107.20866854981806 85.35006333505918 -2.255973186038318e-14
    vertex 106.56720428540565 85.22246815963548 1.9999999999999774
    vertex 107.20866854981806 85.35006333505918 1.9999999999999774
  endloop
endfacet
facet normal -0.13052619222004935 0.9914448613738107 -3.3458008747635694e-16
  outer loop
    vertex 107.20866854981806 85.35006333505918 1.9999999999999774
    vertex 107.86129951091827 85.39283902819015 -2.255973186038318e-14
    vertex 107.20866854981806 85.35006333505918 -2.255973186038318e-14
  endloop
endfacet
facet normal -0.06540312923018562 0.9978589232386009 -1.6764899310149126e-16
  outer loop
    vertex 107.86129951091827 85.39283902819015 -2.255973186038318e-14
    vertex 107.20866854981806 85.35006333505918 1.9999999999999774
    vertex 107.86129951091827 85.39283902819015 1.9999999999999774
  endloop
endfacet
facet normal 0.06540312923018562 0.9978589232386009 1.676489931014913e-16
  outer loop
    vertex 171.86129951091837 85.39283902819015 2.0000000000001577
    vertex 172.5139304720186 85.35006333505918 1.5791812302268225e-13
    vertex 171.86129951091837 85.39283902819015 1.5791812302268225e-13
  endloop
endfacet
facet normal 0.13052619222005601 0.9914448613738098 3.345800874763739e-16
  outer loop
    vertex 172.5139304720186 85.35006333505918 1.5791812302268225e-13
    vertex 171.86129951091837 85.39283902819015 2.0000000000001577
    vertex 172.5139304720186 85.35006333505918 2.0000000000001577
  endloop
endfacet
facet normal 0.13052619222005601 0.9914448613738098 3.345800874763739e-16
  outer loop
    vertex 172.5139304720186 85.35006333505918 2.0000000000001577
    vertex 173.15539473643094 85.22246815963548 1.5791812302268225e-13
    vertex 172.5139304720186 85.35006333505918 1.5791812302268225e-13
  endloop
endfacet
facet normal 0.25881904510250864 0.9659258262890714 6.634354168928484e-16
  outer loop
    vertex 173.15539473643094 85.22246815963548 1.5791812302268225e-13
    vertex 172.5139304720186 85.35006333505918 2.0000000000001577
    vertex 173.15539473643094 85.22246815963548 2.0000000000001577
  endloop
endfacet
facet normal 0.25881904510250864 0.9659258262890714 6.634354168928484e-16
  outer loop
    vertex 173.15539473643094 85.22246815963548 2.0000000000001577
    vertex 173.77471667274378 85.01223669074658 1.5791812302268225e-13
    vertex 173.15539473643094 85.22246815963548 1.5791812302268225e-13
  endloop
endfacet
facet normal 0.38268343236508245 0.9238795325112898 9.809391823872926e-16
  outer loop
    vertex 173.77471667274378 85.01223669074658 1.5791812302268225e-13
    vertex 173.15539473643094 85.22246815963548 2.0000000000001577
    vertex 173.77471667274378 85.01223669074658 2.0000000000001577
  endloop
endfacet
facet normal 0.38268343236508245 0.9238795325112898 9.809391823872926e-16
  outer loop
    vertex 173.77471667274378 85.01223669074658 2.0000000000001577
    vertex 174.36129951091834 84.72296604711235 1.5791812302268225e-13
    vertex 173.77471667274378 85.01223669074658 1.5791812302268225e-13
  endloop
endfacet
facet normal 0.499999999999979 0.8660254037844506 1.2816588065033204e-15
  outer loop
    vertex 174.36129951091834 84.72296604711235 1.5791812302268225e-13
    vertex 173.77471667274378 85.01223669074658 2.0000000000001577
    vertex 174.36129951091834 84.72296604711235 2.0000000000001577
  endloop
endfacet
facet normal 0.499999999999979 0.8660254037844506 1.2816588065033204e-15
  outer loop
    vertex 174.36129951091834 84.72296604711235 2.0000000000001577
    vertex 174.90510665596196 84.35960572964633 1.5791812302268225e-13
    vertex 174.36129951091834 84.72296604711235 1.5791812302268225e-13
  endloop
endfacet
facet normal 0.6087614290087309 0.7933533402912274 1.560448893097237e-15
  outer loop
    vertex 174.90510665596196 84.35960572964633 1.5791812302268225e-13
    vertex 174.36129951091834 84.72296604711235 2.0000000000001577
    vertex 174.90510665596196 84.35960572964633 2.0000000000001577
  endloop
endfacet
facet normal 0.6087614290087309 0.7933533402912274 1.560448893097237e-15
  outer loop
    vertex 174.90510665596196 84.35960572964633 2.0000000000001577
    vertex 175.39683341685105 83.92837293412289 1.5791812302268225e-13
    vertex 174.90510665596196 84.35960572964633 1.5791812302268225e-13
  endloop
endfacet
facet normal 0.7071067811865476 0.7071067811865476 1.8125392664919862e-15
  outer loop
    vertex 175.39683341685105 83.92837293412289 1.5791812302268225e-13
    vertex 174.90510665596196 84.35960572964633 2.0000000000001577
    vertex 175.39683341685105 83.92837293412289 2.0000000000001577
  endloop
endfacet
facet normal 0.7071067811865476 0.7071067811865476 1.8125392664919862e-15
  outer loop
    vertex 175.39683341685105 83.92837293412289 1.5791812302268225e-13
    vertex 175.82806621237452 83.43664617323378 2.0000000000001577
    vertex 175.82806621237452 83.43664617323378 1.5791812302268225e-13
  endloop
endfacet
facet normal 0.79335334029121 0.6087614290087535 2.0336165905061946e-15
  outer loop
    vertex 175.82806621237452 83.43664617323378 2.0000000000001577
    vertex 175.39683341685105 83.92837293412289 1.5791812302268225e-13
    vertex 175.39683341685105 83.92837293412289 2.0000000000001577
  endloop
endfacet
facet normal 0.79335334029121 0.6087614290087535 2.0336165905061946e-15
  outer loop
    vertex 175.82806621237452 83.43664617323378 1.5791812302268225e-13
    vertex 176.19142652984058 82.89283902819015 2.0000000000001577
    vertex 176.19142652984058 82.89283902819015 1.5791812302268225e-13
  endloop
endfacet
facet normal 0.8660254037844286 0.5000000000000171 2.2198981708319067e-15
  outer loop
    vertex 176.19142652984058 82.89283902819015 2.0000000000001577
    vertex 175.82806621237452 83.43664617323378 1.5791812302268225e-13
    vertex 175.82806621237452 83.43664617323378 2.0000000000001577
  endloop
endfacet
facet normal 0.8660254037844286 0.5000000000000171 2.2198981708319067e-15
  outer loop
    vertex 176.19142652984058 82.89283902819015 1.5791812302268225e-13
    vertex 176.48069717347482 82.3062561900156 2.0000000000001577
    vertex 176.48069717347482 82.3062561900156 1.5791812302268225e-13
  endloop
endfacet
facet normal 0.9238795325113089 0.3826834323650364 2.3681966779826787e-15
  outer loop
    vertex 176.48069717347482 82.3062561900156 2.0000000000001577
    vertex 176.19142652984058 82.89283902819015 1.5791812302268225e-13
    vertex 176.19142652984058 82.89283902819015 2.0000000000001577
  endloop
endfacet
facet normal 0.9238795325113089 0.3826834323650364 2.3681966779826787e-15
  outer loop
    vertex 176.48069717347482 82.3062561900156 1.5791812302268225e-13
    vertex 176.69092864236364 81.68693425370276 2.0000000000001577
    vertex 176.69092864236364 81.68693425370276 1.5791812302268225e-13
  endloop
endfacet
facet normal 0.9659258262890779 0.2588190451024847 2.4759746833848896e-15
  outer loop
    vertex 176.69092864236364 81.68693425370276 2.0000000000001577
    vertex 176.48069717347482 82.3062561900156 1.5791812302268225e-13
    vertex 176.48069717347482 82.3062561900156 2.0000000000001577
  endloop
endfacet
facet normal 0.9659258262890779 0.2588190451024847 2.4759746833848896e-15
  outer loop
    vertex 176.69092864236364 81.68693425370276 1.5791812302268225e-13
    vertex 176.81852381778737 81.04546998929045 2.0000000000001577
    vertex 176.81852381778737 81.04546998929045 1.5791812302268225e-13
  endloop
endfacet
facet normal 0.9914448613738094 0.13052619222005876 2.54138807548452e-15
  outer loop
    vertex 176.81852381778737 81.04546998929045 2.0000000000001577
    vertex 176.69092864236364 81.68693425370276 1.5791812302268225e-13
    vertex 176.69092864236364 81.68693425370276 2.0000000000001577
  endloop
endfacet
facet normal 0.9914448613738094 0.13052619222005876 2.54138807548452e-15
  outer loop
    vertex 176.81852381778737 81.04546998929045 1.5791812302268225e-13
    vertex 176.86129951091831 80.39283902819017 2.0000000000001577
    vertex 176.86129951091831 80.39283902819017 1.5791812302268225e-13
  endloop
endfacet
facet normal 0.9978589232386058 0.06540312923011017 2.557829353233467e-15
  outer loop
    vertex 176.86129951091831 80.39283902819017 2.0000000000001577
    vertex 176.81852381778737 81.04546998929045 1.5791812302268225e-13
    vertex 176.81852381778737 81.04546998929045 2.0000000000001577
  endloop
endfacet
facet normal 0.9978589232386055 -0.06540312923011296 2.557829353233466e-15
  outer loop
    vertex 176.86129951091831 51.39283902819008 1.5791812302268225e-13
    vertex 176.81852381778737 50.74020806708982 2.0000000000001577
    vertex 176.81852381778737 50.74020806708982 1.5791812302268225e-13
  endloop
endfacet
facet normal 0.9914448613738099 -0.13052619222005515 2.5413880754845208e-15
  outer loop
    vertex 176.81852381778737 50.74020806708982 2.0000000000001577
    vertex 176.86129951091831 51.39283902819008 1.5791812302268225e-13
    vertex 176.86129951091831 51.39283902819008 2.0000000000001577
  endloop
endfacet
facet normal 0.9914448613738099 -0.13052619222005515 2.5413880754845208e-15
  outer loop
    vertex 176.81852381778737 50.74020806708982 1.5791812302268225e-13
    vertex 176.69092864236364 50.09874380267747 2.0000000000001577
    vertex 176.69092864236364 50.09874380267747 1.5791812302268225e-13
  endloop
endfacet
facet normal 0.9659258262890799 -0.25881904510247716 2.4759746833848947e-15
  outer loop
    vertex 176.69092864236364 50.09874380267747 2.0000000000001577
    vertex 176.81852381778737 50.74020806708982 1.5791812302268225e-13
    vertex 176.81852381778737 50.74020806708982 2.0000000000001577
  endloop
endfacet
facet normal 0.9659258262890799 -0.25881904510247716 2.4759746833848947e-15
  outer loop
    vertex 176.69092864236364 50.09874380267747 1.5791812302268225e-13
    vertex 176.48069717347482 49.479421866364625 2.0000000000001577
    vertex 176.48069717347482 49.479421866364625 1.5791812302268225e-13
  endloop
endfacet
facet normal 0.9238795325113099 -0.3826834323650338 2.368196677982682e-15
  outer loop
    vertex 176.48069717347482 49.479421866364625 2.0000000000001577
    vertex 176.69092864236364 50.09874380267747 1.5791812302268225e-13
    vertex 176.69092864236364 50.09874380267747 2.0000000000001577
  endloop
endfacet
facet normal 0.9238795325113099 -0.3826834323650338 2.368196677982682e-15
  outer loop
    vertex 176.48069717347482 49.479421866364625 1.5791812302268225e-13
    vertex 176.19142652984058 48.89283902819007 2.0000000000001577
    vertex 176.19142652984058 48.89283902819007 1.5791812302268225e-13
  endloop
endfacet
facet normal 0.8660254037844215 -0.5000000000000296 2.2198981708318885e-15
  outer loop
    vertex 176.19142652984058 48.89283902819007 2.0000000000001577
    vertex 176.48069717347482 49.479421866364625 1.5791812302268225e-13
    vertex 176.48069717347482 49.479421866364625 2.0000000000001577
  endloop
endfacet
facet normal 0.8660254037844215 -0.5000000000000296 2.2198981708318885e-15
  outer loop
    vertex 176.19142652984058 48.89283902819007 1.5791812302268225e-13
    vertex 175.82806621237452 48.34903188314647 2.0000000000001577
    vertex 175.82806621237452 48.34903188314647 1.5791812302268225e-13
  endloop
endfacet
facet normal 0.7933533402912116 -0.6087614290087515 2.0336165905061993e-15
  outer loop
    vertex 175.82806621237452 48.34903188314647 2.0000000000001577
    vertex 176.19142652984058 48.89283902819007 1.5791812302268225e-13
    vertex 176.19142652984058 48.89283902819007 2.0000000000001577
  endloop
endfacet
facet normal 0.7933533402912116 -0.6087614290087515 2.0336165905061993e-15
  outer loop
    vertex 175.82806621237452 48.34903188314647 1.5791812302268225e-13
    vertex 175.39683341685105 47.85730512225734 2.0000000000001577
    vertex 175.39683341685105 47.85730512225734 1.5791812302268225e-13
  endloop
endfacet
facet normal 0.707106781186555 -0.7071067811865401 1.8125392664920048e-15
  outer loop
    vertex 175.39683341685105 47.85730512225734 2.0000000000001577
    vertex 175.82806621237452 48.34903188314647 1.5791812302268225e-13
    vertex 175.82806621237452 48.34903188314647 2.0000000000001577
  endloop
endfacet
facet normal 0.707106781186555 -0.7071067811865401 1.8125392664920048e-15
  outer loop
    vertex 175.39683341685105 47.85730512225734 2.0000000000001577
    vertex 174.90510665596196 47.4260723267339 1.5791812302268225e-13
    vertex 175.39683341685105 47.85730512225734 1.5791812302268225e-13
  endloop
endfacet
facet normal 0.6087614290087313 -0.793353340291227 1.5604488930972383e-15
  outer loop
    vertex 174.90510665596196 47.4260723267339 1.5791812302268225e-13
    vertex 175.39683341685105 47.85730512225734 2.0000000000001577
    vertex 174.90510665596196 47.4260723267339 2.0000000000001577
  endloop
endfacet
facet normal 0.6087614290087313 -0.793353340291227 1.5604488930972383e-15
  outer loop
    vertex 174.90510665596196 47.4260723267339 2.0000000000001577
    vertex 174.36129951091834 47.06271200926787 1.5791812302268225e-13
    vertex 174.90510665596196 47.4260723267339 1.5791812302268225e-13
  endloop
endfacet
facet normal 0.4999999999999919 -0.8660254037844433 1.2816588065033534e-15
  outer loop
    vertex 174.36129951091834 47.06271200926787 1.5791812302268225e-13
    vertex 174.90510665596196 47.4260723267339 2.0000000000001577
    vertex 174.36129951091834 47.06271200926787 2.0000000000001577
  endloop
endfacet
facet normal 0.4999999999999919 -0.8660254037844433 1.2816588065033534e-15
  outer loop
    vertex 174.36129951091834 47.06271200926787 2.0000000000001577
    vertex 173.77471667274378 46.77344136563364 1.5791812302268225e-13
    vertex 174.36129951091834 47.06271200926787 1.5791812302268225e-13
  endloop
endfacet
facet normal 0.38268343236508956 -0.923879532511287 9.809391823873107e-16
  outer loop
    vertex 173.77471667274378 46.77344136563364 1.5791812302268225e-13
    vertex 174.36129951091834 47.06271200926787 2.0000000000001577
    vertex 173.77471667274378 46.77344136563364 2.0000000000001577
  endloop
endfacet
facet normal 0.38268343236508956 -0.923879532511287 9.809391823873107e-16
  outer loop
    vertex 173.77471667274378 46.77344136563364 2.0000000000001577
    vertex 173.15539473643094 46.56320989674472 1.5791812302268225e-13
    vertex 173.77471667274378 46.77344136563364 1.5791812302268225e-13
  endloop
endfacet
facet normal 0.258819045102525 -0.9659258262890673 6.634354168928903e-16
  outer loop
    vertex 173.15539473643094 46.56320989674472 1.5791812302268225e-13
    vertex 173.77471667274378 46.77344136563364 2.0000000000001577
    vertex 173.15539473643094 46.56320989674472 2.0000000000001577
  endloop
endfacet
facet normal 0.258819045102525 -0.9659258262890673 6.634354168928903e-16
  outer loop
    vertex 173.15539473643094 46.56320989674472 2.0000000000001577
    vertex 172.5139304720186 46.43561472132101 1.5791812302268225e-13
    vertex 173.15539473643094 46.56320989674472 1.5791812302268225e-13
  endloop
endfacet
facet normal 0.1305261922200472 -0.991444861373811 3.345800874763513e-16
  outer loop
    vertex 172.5139304720186 46.43561472132101 1.5791812302268225e-13
    vertex 173.15539473643094 46.56320989674472 2.0000000000001577
    vertex 172.5139304720186 46.43561472132101 2.0000000000001577
  endloop
endfacet
facet normal 0.1305261922200472 -0.991444861373811 3.345800874763513e-16
  outer loop
    vertex 172.5139304720186 46.43561472132101 2.0000000000001577
    vertex 171.86129951091837 46.39283902819007 1.5791812302268225e-13
    vertex 172.5139304720186 46.43561472132101 1.5791812302268225e-13
  endloop
endfacet
facet normal 0.0654031292301341 -0.9978589232386043 1.6764899310135918e-16
  outer loop
    vertex 171.86129951091837 46.39283902819007 1.5791812302268225e-13
    vertex 172.5139304720186 46.43561472132101 2.0000000000001577
    vertex 171.86129951091837 46.39283902819007 2.0000000000001577
  endloop
endfacet
facet normal 0.0 -1.0 0.0
  outer loop
    vertex 171.86129951091837 46.39283902819007 1.5791812302268225e-13
    vertex 107.86129951091827 46.39283902819007 1.9999999999999774
    vertex 107.86129951091827 46.39283902819007 -2.255973186038318e-14
  endloop
endfacet
facet normal 0.0 -1.0 0.0
  outer loop
    vertex 107.86129951091827 46.39283902819007 1.9999999999999774
    vertex 171.86129951091837 46.39283902819007 1.5791812302268225e-13
    vertex 171.86129951091837 46.39283902819007 2.0000000000001577
  endloop
endfacet
facet normal 0.0 -1.0 0.0
  outer loop
    vertex 107.86129951091827 46.39283902819007 1.9999999999999774
    vertex 171.86129951091837 46.39283902819007 2.0000000000001577
    vertex 159.86129951091831 46.39283902819007 2.000000000000124
  endloop
endfacet
facet normal 0.0 -1.0 0.0
  outer loop
    vertex 107.86129951091827 46.39283902819007 1.9999999999999774
    vertex 159.86129951091831 46.39283902819007 2.000000000000124
    vertex 119.86129951091831 46.39283902819007 2.0000000000000675
  endloop
endfacet
facet normal 0.0 -1.0 0.0
  outer loop
    vertex 159.86129951091831 46.39283902819007 2.000000000000124
    vertex 119.86129951091831 46.39283902818991 7.500000000000067
    vertex 119.86129951091831 46.39283902819007 2.0000000000000675
  endloop
endfacet
facet normal 0.0 -1.0 0.0
  outer loop
    vertex 119.86129951091831 46.39283902818991 7.500000000000067
    vertex 159.86129951091831 46.39283902819007 2.000000000000124
    vertex 159.86129951091831 46.39283902818991 7.5000000000001235
  endloop
endfacet
facet normal -0.0 1.0 -0.0
  outer loop
    vertex 119.86129951091831 85.39283902819022 7.500000000000038
    vertex 159.86129951091831 85.39283902819015 2.0000000000000675
    vertex 119.86129951091831 85.39283902819015 2.0000000000000395
  endloop
endfacet
facet normal -0.0 1.0 -0.0
  outer loop
    vertex 159.86129951091831 85.39283902819015 2.0000000000000675
    vertex 119.86129951091831 85.39283902819022 7.500000000000038
    vertex 159.86129951091831 85.39283902819022 7.500000000000067
  endloop
endfacet
facet normal -0.0 1.0 -0.0
  outer loop
    vertex 107.86129951091827 85.39283902819015 1.9999999999999774
    vertex 171.86129951091837 85.39283902819015 1.5791812302268225e-13
    vertex 107.86129951091827 85.39283902819015 -2.255973186038318e-14
  endloop
endfacet
facet normal -0.0 1.0 -0.0
  outer loop
    vertex 171.86129951091837 85.39283902819015 1.5791812302268225e-13
    vertex 107.86129951091827 85.39283902819015 1.9999999999999774
    vertex 159.86129951091831 85.39283902819015 2.0000000000000675
  endloop
endfacet
facet normal -0.0 1.0 -0.0
  outer loop
    vertex 171.86129951091837 85.39283902819015 1.5791812302268225e-13
    vertex 159.86129951091831 85.39283902819015 2.0000000000000675
    vertex 171.86129951091837 85.39283902819015 2.0000000000001577
  endloop
endfacet
facet normal -0.0 1.0 -0.0
  outer loop
    vertex 159.86129951091831 85.39283902819015 2.0000000000000675
    vertex 107.86129951091827 85.39283902819015 1.9999999999999774
    vertex 119.86129951091831 85.39283902819015 2.0000000000000395
  endloop
endfacet
facet normal -1.0 0.0 0.0
  outer loop
    vertex 102.86129951091829 75.8928390281901 7.499999999999976
    vertex 102.86129951091829 55.892839028190124 1.9999999999999774
    vertex 102.86129951091829 55.892839028190124 7.499999999999976
  endloop
endfacet
facet normal -1.0 0.0 0.0
  outer loop
    vertex 102.86129951091829 55.892839028190124 1.9999999999999774
    vertex 102.86129951091829 51.39283902819008 -2.255973186038318e-14
    vertex 102.86129951091829 51.39283902819008 1.9999999999999774
  endloop
endfacet
facet normal -1.0 0.0 0.0
  outer loop
    vertex 102.86129951091829 51.39283902819008 -2.255973186038318e-14
    vertex 102.86129951091829 55.892839028190124 1.9999999999999774
    vertex 102.86129951091829 80.39283902819017 -2.255973186038318e-14
  endloop
endfacet
facet normal -1.0 0.0 0.0
  outer loop
    vertex 102.86129951091829 80.39283902819017 -2.255973186038318e-14
    vertex 102.86129951091829 55.892839028190124 1.9999999999999774
    vertex 102.86129951091829 75.8928390281901 1.9999999999999774
  endloop
endfacet
facet normal -1.0 0.0 0.0
  outer loop
    vertex 102.86129951091829 75.8928390281901 1.9999999999999774
    vertex 102.86129951091829 55.892839028190124 1.9999999999999774
    vertex 102.86129951091829 75.8928390281901 7.499999999999976
  endloop
endfacet
facet normal -1.0 0.0 0.0
  outer loop
    vertex 102.86129951091829 80.39283902819017 -2.255973186038318e-14
    vertex 102.86129951091829 75.8928390281901 1.9999999999999774
    vertex 102.86129951091829 80.39283902819017 1.9999999999999774
  endloop
endfacet
facet normal -2.464366264055102e-15 1.8606414951198129e-16 1.0
  outer loop
    vertex 102.9040752040492 50.74020806708982 1.9999999999999774
    vertex 102.86129951091829 55.892839028190124 1.9999999999999774
    vertex 102.86129951091829 51.39283902819008 1.9999999999999774
  endloop
endfacet
facet normal -2.464366264055102e-15 1.8606414951198129e-16 1.0
  outer loop
    vertex 102.86129951091829 55.892839028190124 1.9999999999999774
    vertex 102.9040752040492 50.74020806708982 1.9999999999999774
    vertex 103.86129951091829 55.892839028190124 1.9999999999999774
  endloop
endfacet
facet normal -2.464366264055102e-15 1.8606414951198129e-16 1.0
  outer loop
    vertex 103.86129951091829 55.892839028190124 1.9999999999999774
    vertex 102.9040752040492 50.74020806708982 1.9999999999999774
    vertex 103.0316703794729 50.09874380267747 1.9999999999999774
  endloop
endfacet
facet normal -2.464366264055102e-15 1.8606414951198129e-16 1.0
  outer loop
    vertex 103.86129951091829 55.892839028190124 1.9999999999999774
    vertex 103.0316703794729 50.09874380267747 1.9999999999999774
    vertex 103.24190184836186 49.479421866364625 1.9999999999999774
  endloop
endfacet
facet normal -2.464366264055102e-15 1.8606414951198129e-16 1.0
  outer loop
    vertex 103.86129951091829 55.892839028190124 1.9999999999999774
    vertex 103.24190184836186 49.479421866364625 1.9999999999999774
    vertex 103.5311724919961 48.892839028190075 1.9999999999999774
  endloop
endfacet
facet normal -2.464366264055102e-15 1.8606414951198129e-16 1.0
  outer loop
    vertex 103.86129951091829 55.892839028190124 1.9999999999999774
    vertex 103.5311724919961 48.892839028190075 1.9999999999999774
    vertex 103.89453280946208 48.34903188314647 1.9999999999999774
  endloop
endfacet
facet normal -2.464366264055102e-15 1.8606414951198129e-16 1.0
  outer loop
    vertex 103.86129951091829 55.892839028190124 1.9999999999999774
    vertex 103.89453280946208 48.34903188314647 1.9999999999999774
    vertex 103.86129951091829 75.8928390281901 1.9999999999999774
  endloop
endfacet
facet normal -2.464366264055102e-15 1.8606414951198129e-16 1.0
  outer loop
    vertex 159.86129951091831 47.39283902819007 2.000000000000124
    vertex 119.86129951091831 84.39283902819015 2.0000000000000675
    vertex 119.86129951091831 47.39283902819007 2.000000000000124
  endloop
endfacet
facet normal -2.464366264055102e-15 1.8606414951198129e-16 1.0
  outer loop
    vertex 119.86129951091831 84.39283902819015 2.0000000000000675
    vertex 159.86129951091831 47.39283902819007 2.000000000000124
    vertex 159.86129951091831 84.39283902819015 2.0000000000000675
  endloop
endfacet
facet normal -2.464366264055102e-15 1.8606414951198129e-16 1.0
  outer loop
    vertex 103.86129951091829 75.8928390281901 1.9999999999999774
    vertex 102.86129951091829 80.39283902819017 1.9999999999999774
    vertex 102.86129951091829 75.8928390281901 1.9999999999999774
  endloop
endfacet
facet normal -2.464366264055102e-15 1.8606414951198129e-16 1.0
  outer loop
    vertex 102.86129951091829 80.39283902819017 1.9999999999999774
    vertex 103.86129951091829 75.8928390281901 1.9999999999999774
    vertex 102.9040752040492 81.0454699892904 1.9999999999999774
  endloop
endfacet
facet normal -2.464366264055102e-15 1.8606414951198129e-16 1.0
  outer loop
    vertex 102.9040752040492 81.0454699892904 1.9999999999999774
    vertex 103.86129951091829 75.8928390281901 1.9999999999999774
    vertex 103.03167037947294 81.68693425370276 1.9999999999999774
  endloop
endfacet
facet normal -2.464366264055102e-15 1.8606414951198129e-16 1.0
  outer loop
    vertex 103.03167037947294 81.68693425370276 1.9999999999999774
    vertex 103.86129951091829 75.8928390281901 1.9999999999999774
    vertex 103.24190184836186 82.3062561900156 1.9999999999999774
  endloop
endfacet
facet normal -2.464366264055102e-15 1.8606414951198129e-16 1.0
  outer loop
    vertex 103.24190184836186 82.3062561900156 1.9999999999999774
    vertex 103.86129951091829 75.8928390281901 1.9999999999999774
    vertex 103.5311724919961 82.89283902819015 1.9999999999999774
  endloop
endfacet
facet normal -2.464366264055102e-15 1.8606414951198129e-16 1.0
  outer loop
    vertex 103.5311724919961 82.89283902819015 1.9999999999999774
    vertex 103.86129951091829 75.8928390281901 1.9999999999999774
    vertex 103.89453280946208 83.43664617323374 1.9999999999999774
  endloop
endfacet
facet normal -2.464366264055102e-15 1.8606414951198129e-16 1.0
  outer loop
    vertex 103.89453280946208 83.43664617323374 1.9999999999999774
    vertex 103.86129951091829 75.8928390281901 1.9999999999999774
    vertex 103.89453280946208 48.34903188314647 1.9999999999999774
  endloop
endfacet
facet normal -2.464366264055102e-15 1.8606414951198129e-16 1.0
  outer loop
    vertex 103.89453280946208 83.43664617323374 1.9999999999999774
    vertex 103.89453280946208 48.34903188314647 1.9999999999999774
    vertex 104.32576560498552 47.85730512225734 1.9999999999999774
  endloop
endfacet
facet normal -2.464366264055102e-15 1.8606414951198129e-16 1.0
  outer loop
    vertex 103.89453280946208 83.43664617323374 1.9999999999999774
    vertex 104.32576560498552 47.85730512225734 1.9999999999999774
    vertex 104.32576560498552 83.92837293412289 1.9999999999999774
  endloop
endfacet
facet normal -2.464366264055102e-15 1.8606414951198129e-16 1.0
  outer loop
    vertex 104.32576560498552 83.92837293412289 1.9999999999999774
    vertex 104.32576560498552 47.85730512225734 1.9999999999999774
    vertex 104.81749236587463 47.4260723267339 1.9999999999999774
  endloop
endfacet
facet normal -2.464366264055102e-15 1.8606414951198129e-16 1.0
  outer loop
    vertex 104.32576560498552 83.92837293412289 1.9999999999999774
    vertex 104.81749236587463 47.4260723267339 1.9999999999999774
    vertex 104.81749236587463 84.35960572964633 1.9999999999999774
  endloop
endfacet
facet normal -2.464366264055102e-15 1.8606414951198129e-16 1.0
  outer loop
    vertex 104.81749236587463 84.35960572964633 1.9999999999999774
    vertex 104.81749236587463 47.4260723267339 1.9999999999999774
    vertex 105.36129951091826 47.062712009267884 1.9999999999999774
  endloop
endfacet
facet normal -2.464366264055102e-15 1.8606414951198129e-16 1.0
  outer loop
    vertex 104.81749236587463 84.35960572964633 1.9999999999999774
    vertex 105.36129951091826 47.062712009267884 1.9999999999999774
    vertex 105.36129951091826 84.72296604711235 1.9999999999999774
  endloop
endfacet
facet normal -2.464366264055102e-15 1.8606414951198129e-16 1.0
  outer loop
    vertex 105.36129951091826 84.72296604711235 1.9999999999999774
    vertex 105.36129951091826 47.062712009267884 1.9999999999999774
    vertex 105.94788234909281 46.77344136563364 1.9999999999999774
  endloop
endfacet
facet normal -2.464366264055102e-15 1.8606414951198129e-16 1.0
  outer loop
    vertex 105.36129951091826 84.72296604711235 1.9999999999999774
    vertex 105.94788234909281 46.77344136563364 1.9999999999999774
    vertex 105.94788234909281 85.01223669074658 1.9999999999999774
  endloop
endfacet
facet normal -2.464366264055102e-15 1.8606414951198129e-16 1.0
  outer loop
    vertex 105.94788234909281 85.01223669074658 1.9999999999999774
    vertex 105.94788234909281 46.77344136563364 1.9999999999999774
    vertex 106.56720428540565 46.56320989674474 1.9999999999999774
  endloop
endfacet
facet normal -2.464366264055102e-15 1.8606414951198129e-16 1.0
  outer loop
    vertex 105.94788234909281 85.01223669074658 1.9999999999999774
    vertex 106.56720428540565 46.56320989674474 1.9999999999999774
    vertex 106.56720428540565 85.22246815963548 1.9999999999999774
  endloop
endfacet
facet normal -2.464366264055102e-15 1.8606414951198129e-16 1.0
  outer loop
    vertex 106.56720428540565 85.22246815963548 1.9999999999999774
    vertex 106.56720428540565 46.56320989674474 1.9999999999999774
    vertex 107.20866854981806 46.43561472132102 1.9999999999999774
  endloop
endfacet
facet normal -2.464366264055102e-15 1.8606414951198129e-16 1.0
  outer loop
    vertex 106.56720428540565 85.22246815963548 1.9999999999999774
    vertex 107.20866854981806 46.43561472132102 1.9999999999999774
    vertex 107.20866854981806 85.35006333505918 1.9999999999999774
  endloop
endfacet
facet normal -2.464366264055102e-15 1.8606414951198129e-16 1.0
  outer loop
    vertex 107.20866854981806 85.35006333505918 1.9999999999999774
    vertex 107.20866854981806 46.43561472132102 1.9999999999999774
    vertex 107.86129951091827 46.39283902819007 1.9999999999999774
  endloop
endfacet
facet normal -2.464366264055102e-15 1.8606414951198129e-16 1.0
  outer loop
    vertex 107.20866854981806 85.35006333505918 1.9999999999999774
    vertex 107.86129951091827 46.39283902819007 1.9999999999999774
    vertex 107.86129951091827 85.39283902819015 1.9999999999999774
  endloop
endfacet
facet normal -2.464366264055102e-15 1.8606414951198129e-16 1.0
  outer loop
    vertex 107.86129951091827 85.39283902819015 1.9999999999999774
    vertex 107.86129951091827 46.39283902819007 1.9999999999999774
    vertex 119.86129951091831 46.39283902819007 2.0000000000000675
  endloop
endfacet
facet normal -2.464366264055102e-15 1.8606414951198129e-16 1.0
  outer loop
    vertex 107.86129951091827 85.39283902819015 1.9999999999999774
    vertex 119.86129951091831 46.39283902819007 2.0000000000000675
    vertex 119.86129951091831 85.39283902819015 2.0000000000000395
  endloop
endfacet
facet normal -2.464366264055102e-15 1.8606414951198129e-16 1.0
  outer loop
    vertex 119.86129951091831 85.39283902819015 2.0000000000000395
    vertex 119.86129951091831 46.39283902819007 2.0000000000000675
    vertex 119.86129951091831 47.39283902819007 2.000000000000124
  endloop
endfacet
facet normal -2.464366264055102e-15 1.8606414951198129e-16 1.0
  outer loop
    vertex 119.86129951091831 85.39283902819015 2.0000000000000395
    vertex 119.86129951091831 47.39283902819007 2.000000000000124
    vertex 119.86129951091831 84.39283902819015 2.0000000000000675
  endloop
endfacet
facet normal -2.464366264055102e-15 1.8606414951198129e-16 1.0
  outer loop
    vertex 171.86129951091837 46.39283902819007 2.0000000000001577
    vertex 159.86129951091831 47.39283902819007 2.000000000000124
    vertex 159.86129951091831 46.39283902819007 2.000000000000124
  endloop
endfacet
facet normal -2.464366264055102e-15 1.8606414951198129e-16 1.0
  outer loop
    vertex 159.86129951091831 47.39283902819007 2.000000000000124
    vertex 171.86129951091837 46.39283902819007 2.0000000000001577
    vertex 159.86129951091831 84.39283902819015 2.0000000000000675
  endloop
endfacet
facet normal -2.464366264055102e-15 1.8606414951198129e-16 1.0
  outer loop
    vertex 159.86129951091831 84.39283902819015 2.0000000000000675
    vertex 171.86129951091837 46.39283902819007 2.0000000000001577
    vertex 159.86129951091831 85.39283902819015 2.0000000000000675
  endloop
endfacet
facet normal -2.464366264055102e-15 1.8606414951198129e-16 1.0
  outer loop
    vertex 159.86129951091831 85.39283902819015 2.0000000000000675
    vertex 171.86129951091837 46.39283902819007 2.0000000000001577
    vertex 171.86129951091837 85.39283902819015 2.0000000000001577
  endloop
endfacet
facet normal -2.464366264055102e-15 1.8606414951198129e-16 1.0
  outer loop
    vertex 171.86129951091837 85.39283902819015 2.0000000000001577
    vertex 171.86129951091837 46.39283902819007 2.0000000000001577
    vertex 172.5139304720186 46.43561472132101 2.0000000000001577
  endloop
endfacet
facet normal -2.464366264055102e-15 1.8606414951198129e-16 1.0
  outer loop
    vertex 171.86129951091837 85.39283902819015 2.0000000000001577
    vertex 172.5139304720186 46.43561472132101 2.0000000000001577
    vertex 172.5139304720186 85.35006333505918 2.0000000000001577
  endloop
endfacet
facet normal -2.464366264055102e-15 1.8606414951198129e-16 1.0
  outer loop
    vertex 172.5139304720186 85.35006333505918 2.0000000000001577
    vertex 172.5139304720186 46.43561472132101 2.0000000000001577
    vertex 173.15539473643094 46.56320989674472 2.0000000000001577
  endloop
endfacet
facet normal -2.464366264055102e-15 1.8606414951198129e-16 1.0
  outer loop
    vertex 172.5139304720186 85.35006333505918 2.0000000000001577
    vertex 173.15539473643094 46.56320989674472 2.0000000000001577
    vertex 173.15539473643094 85.22246815963548 2.0000000000001577
  endloop
endfacet
facet normal -2.464366264055102e-15 1.8606414951198129e-16 1.0
  outer loop
    vertex 173.15539473643094 85.22246815963548 2.0000000000001577
    vertex 173.15539473643094 46.56320989674472 2.0000000000001577
    vertex 173.77471667274378 46.77344136563364 2.0000000000001577
  endloop
endfacet
facet normal -2.464366264055102e-15 1.8606414951198129e-16 1.0
  outer loop
    vertex 173.15539473643094 85.22246815963548 2.0000000000001577
    vertex 173.77471667274378 46.77344136563364 2.0000000000001577
    vertex 173.77471667274378 85.01223669074658 2.0000000000001577
  endloop
endfacet
facet normal -2.464366264055102e-15 1.8606414951198129e-16 1.0
  outer loop
    vertex 173.77471667274378 85.01223669074658 2.0000000000001577
    vertex 173.77471667274378 46.77344136563364 2.0000000000001577
    vertex 174.36129951091834 47.06271200926787 2.0000000000001577
  endloop
endfacet
facet normal -2.464366264055102e-15 1.8606414951198129e-16 1.0
  outer loop
    vertex 173.77471667274378 85.01223669074658 2.0000000000001577
    vertex 174.36129951091834 47.06271200926787 2.0000000000001577
    vertex 174.36129951091834 84.72296604711235 2.0000000000001577
  endloop
endfacet
facet normal -2.464366264055102e-15 1.8606414951198129e-16 1.0
  outer loop
    vertex 174.36129951091834 84.72296604711235 2.0000000000001577
    vertex 174.36129951091834 47.06271200926787 2.0000000000001577
    vertex 174.90510665596196 47.4260723267339 2.0000000000001577
  endloop
endfacet
facet normal -2.464366264055102e-15 1.8606414951198129e-16 1.0
  outer loop
    vertex 174.36129951091834 84.72296604711235 2.0000000000001577
    vertex 174.90510665596196 47.4260723267339 2.0000000000001577
    vertex 174.90510665596196 84.35960572964633 2.0000000000001577
  endloop
endfacet
facet normal -2.464366264055102e-15 1.8606414951198129e-16 1.0
  outer loop
    vertex 174.90510665596196 84.35960572964633 2.0000000000001577
    vertex 174.90510665596196 47.4260723267339 2.0000000000001577
    vertex 175.39683341685105 47.85730512225734 2.0000000000001577
  endloop
endfacet
facet normal -2.464366264055102e-15 1.8606414951198129e-16 1.0
  outer loop
    vertex 174.90510665596196 84.35960572964633 2.0000000000001577
    vertex 175.39683341685105 47.85730512225734 2.0000000000001577
    vertex 175.39683341685105 83.92837293412289 2.0000000000001577
  endloop
endfacet
facet normal -2.464366264055102e-15 1.8606414951198129e-16 1.0
  outer loop
    vertex 175.39683341685105 83.92837293412289 2.0000000000001577
    vertex 175.39683341685105 47.85730512225734 2.0000000000001577
    vertex 175.82806621237452 48.34903188314647 2.0000000000001577
  endloop
endfacet
facet normal -2.464366264055102e-15 1.8606414951198129e-16 1.0
  outer loop
    vertex 175.39683341685105 83.92837293412289 2.0000000000001577
    vertex 175.82806621237452 48.34903188314647 2.0000000000001577
    vertex 175.82806621237452 83.43664617323378 2.0000000000001577
  endloop
endfacet
facet normal -2.464366264055102e-15 1.8606414951198129e-16 1.0
  outer loop
    vertex 175.82806621237452 83.43664617323378 2.0000000000001577
    vertex 175.82806621237452 48.34903188314647 2.0000000000001577
    vertex 175.86129951091831 53.39283902819009 2.0000000000001577
  endloop
endfacet
facet normal -2.464366264055102e-15 1.8606414951198129e-16 1.0
  outer loop
    vertex 175.86129951091831 53.39283902819009 2.0000000000001577
    vertex 175.82806621237452 48.34903188314647 2.0000000000001577
    vertex 176.19142652984058 48.89283902819007 2.0000000000001577
  endloop
endfacet
facet normal -2.464366264055102e-15 1.8606414951198129e-16 1.0
  outer loop
    vertex 175.86129951091831 53.39283902819009 2.0000000000001577
    vertex 176.19142652984058 48.89283902819007 2.0000000000001577
    vertex 176.86129951091831 53.39283902819009 2.0000000000001577
  endloop
endfacet
facet normal -2.464366264055102e-15 1.8606414951198129e-16 1.0
  outer loop
    vertex 176.86129951091831 53.39283902819009 2.0000000000001577
    vertex 176.19142652984058 48.89283902819007 2.0000000000001577
    vertex 176.48069717347482 49.479421866364625 2.0000000000001577
  endloop
endfacet
facet normal -2.464366264055102e-15 1.8606414951198129e-16 1.0
  outer loop
    vertex 176.86129951091831 53.39283902819009 2.0000000000001577
    vertex 176.48069717347482 49.479421866364625 2.0000000000001577
    vertex 176.69092864236364 50.09874380267747 2.0000000000001577
  endloop
endfacet
facet normal -2.464366264055102e-15 1.8606414951198129e-16 1.0
  outer loop
    vertex 176.86129951091831 53.39283902819009 2.0000000000001577
    vertex 176.69092864236364 50.09874380267747 2.0000000000001577
    vertex 176.81852381778737 50.74020806708982 2.0000000000001577
  endloop
endfacet
facet normal -2.464366264055102e-15 1.8606414951198129e-16 1.0
  outer loop
    vertex 176.86129951091831 53.39283902819009 2.0000000000001577
    vertex 176.81852381778737 50.74020806708982 2.0000000000001577
    vertex 176.86129951091831 51.39283902819008 2.0000000000001577
  endloop
endfacet
facet normal -2.464366264055102e-15 1.8606414951198129e-16 1.0
  outer loop
    vertex 176.86129951091831 59.39283902819009 2.0000000000001577
    vertex 175.86129951091831 72.39283902819015 2.0000000000001577
    vertex 175.86129951091831 59.39283902819009 2.0000000000001577
  endloop
endfacet
facet normal -2.464366264055102e-15 1.8606414951198129e-16 1.0
  outer loop
    vertex 175.86129951091831 72.39283902819015 2.0000000000001577
    vertex 176.86129951091831 59.39283902819009 2.0000000000001577
    vertex 176.86129951091831 72.39283902819015 2.0000000000001577
  endloop
endfacet
facet normal -2.464366264055102e-15 1.8606414951198129e-16 1.0
  outer loop
    vertex 175.82806621237452 83.43664617323378 2.0000000000001577
    vertex 175.86129951091831 78.39283902819015 2.0000000000001577
    vertex 176.19142652984058 82.89283902819015 2.0000000000001577
  endloop
endfacet
facet normal -2.464366264055102e-15 1.8606414951198129e-16 1.0
  outer loop
    vertex 175.86129951091831 78.39283902819015 2.0000000000001577
    vertex 175.82806621237452 83.43664617323378 2.0000000000001577
    vertex 175.86129951091831 53.39283902819009 2.0000000000001577
  endloop
endfacet
facet normal -2.464366264055102e-15 1.8606414951198129e-16 1.0
  outer loop
    vertex 175.86129951091831 78.39283902819015 2.0000000000001577
    vertex 175.86129951091831 53.39283902819009 2.0000000000001577
    vertex 175.86129951091831 59.39283902819009 2.0000000000001577
  endloop
endfacet
facet normal -2.464366264055102e-15 1.8606414951198129e-16 1.0
  outer loop
    vertex 175.86129951091831 78.39283902819015 2.0000000000001577
    vertex 175.86129951091831 59.39283902819009 2.0000000000001577
    vertex 175.86129951091831 72.39283902819015 2.0000000000001577
  endloop
endfacet
facet normal -2.464366264055102e-15 1.8606414951198129e-16 1.0
  outer loop
    vertex 176.19142652984058 82.89283902819015 2.0000000000001577
    vertex 175.86129951091831 78.39283902819015 2.0000000000001577
    vertex 176.86129951091831 78.39283902819015 2.0000000000001577
  endloop
endfacet
facet normal -2.464366264055102e-15 1.8606414951198129e-16 1.0
  outer loop
    vertex 176.19142652984058 82.89283902819015 2.0000000000001577
    vertex 176.86129951091831 78.39283902819015 2.0000000000001577
    vertex 176.48069717347482 82.3062561900156 2.0000000000001577
  endloop
endfacet
facet normal -2.464366264055102e-15 1.8606414951198129e-16 1.0
  outer loop
    vertex 176.48069717347482 82.3062561900156 2.0000000000001577
    vertex 176.86129951091831 78.39283902819015 2.0000000000001577
    vertex 176.69092864236364 81.68693425370276 2.0000000000001577
  endloop
endfacet
facet normal -2.464366264055102e-15 1.8606414951198129e-16 1.0
  outer loop
    vertex 176.69092864236364 81.68693425370276 2.0000000000001577
    vertex 176.86129951091831 78.39283902819015 2.0000000000001577
    vertex 176.81852381778737 81.04546998929045 2.0000000000001577
  endloop
endfacet
facet normal -2.464366264055102e-15 1.8606414951198129e-16 1.0
  outer loop
    vertex 176.81852381778737 81.04546998929045 2.0000000000001577
    vertex 176.86129951091831 78.39283902819015 2.0000000000001577
    vertex 176.86129951091831 80.39283902819017 2.0000000000001577
  endloop
endfacet
facet normal 1.0 -0.0 -0.0
  outer loop
    vertex 176.86129951091831 80.39283902819017 1.5791812302268225e-13
    vertex 176.86129951091831 51.39283902819008 2.0000000000001577
    vertex 176.86129951091831 51.39283902819008 1.5791812302268225e-13
  endloop
endfacet
facet normal 1.0 -0.0 -0.0
  outer loop
    vertex 176.86129951091831 51.39283902819008 2.0000000000001577
    vertex 176.86129951091831 80.39283902819017 1.5791812302268225e-13
    vertex 176.86129951091831 53.39283902819009 2.0000000000001577
  endloop
endfacet
facet normal 1.0 -0.0 -0.0
  outer loop
    vertex 176.86129951091831 53.39283902819009 2.0000000000001577
    vertex 176.86129951091831 80.39283902819017 1.5791812302268225e-13
    vertex 176.86129951091831 59.39283902819009 2.0000000000001577
  endloop
endfacet
facet normal 1.0 -0.0 -0.0
  outer loop
    vertex 176.86129951091831 53.39283902819009 2.0000000000001577
    vertex 176.86129951091831 59.39283902819009 2.0000000000001577
    vertex 176.86129951091831 53.39283902819009 7.500000000000157
  endloop
endfacet
facet normal 1.0 -0.0 -0.0
  outer loop
    vertex 176.86129951091831 59.39283902819009 2.0000000000001577
    vertex 176.86129951091831 80.39283902819017 1.5791812302268225e-13
    vertex 176.86129951091831 72.39283902819015 2.0000000000001577
  endloop
endfacet
facet normal 1.0 -0.0 -0.0
  outer loop
    vertex 176.86129951091831 72.39283902819015 2.0000000000001577
    vertex 176.86129951091831 80.39283902819017 1.5791812302268225e-13
    vertex 176.86129951091831 72.39283902819015 7.500000000000157
  endloop
endfacet
facet normal 1.0 -0.0 -0.0
  outer loop
    vertex 176.86129951091831 72.39283902819015 7.500000000000157
    vertex 176.86129951091831 80.39283902819017 1.5791812302268225e-13
    vertex 176.86129951091831 78.39283902819015 2.0000000000001577
  endloop
endfacet
facet normal 1.0 -0.0 -0.0
  outer loop
    vertex 176.86129951091831 78.39283902819015 2.0000000000001577
    vertex 176.86129951091831 80.39283902819017 1.5791812302268225e-13
    vertex 176.86129951091831 80.39283902819017 2.0000000000001577
  endloop
endfacet
facet normal 1.0 -0.0 -0.0
  outer loop
    vertex 176.86129951091831 78.39283902819015 7.500000000000157
    vertex 176.86129951091831 72.39283902819015 7.500000000000157
    vertex 176.86129951091831 78.39283902819015 2.0000000000001577
  endloop
endfacet
facet normal 1.0 -0.0 -0.0
  outer loop
    vertex 176.86129951091831 59.39283902819009 7.500000000000157
    vertex 176.86129951091831 53.39283902819009 7.500000000000157
    vertex 176.86129951091831 59.39283902819009 2.0000000000001577
  endloop
endfacet
facet normal 0.0 0.0 1.0
  outer loop
    vertex 176.86129951091831 53.39283902819009 7.500000000000157
    vertex 175.86129951091831 59.39283902819009 7.500000000000157
    vertex 175.86129951091831 53.39283902819009 7.500000000000157
  endloop
endfacet
facet normal 0.0 0.0 1.0
  outer loop
    vertex 175.86129951091831 59.39283902819009 7.500000000000157
    vertex 176.86129951091831 53.39283902819009 7.500000000000157
    vertex 176.86129951091831 59.39283902819009 7.500000000000157
  endloop
endfacet
facet normal 0.0 1.0 0.0
  outer loop
    vertex 175.86129951091831 59.39283902819009 7.500000000000157
    vertex 176.86129951091831 59.39283902819009 2.0000000000001577
    vertex 175.86129951091831 59.39283902819009 2.0000000000001577
  endloop
endfacet
facet normal 0.0 1.0 0.0
  outer loop
    vertex 176.86129951091831 59.39283902819009 2.0000000000001577
    vertex 175.86129951091831 59.39283902819009 7.500000000000157
    vertex 176.86129951091831 59.39283902819009 7.500000000000157
  endloop
endfacet
facet normal -1.0 -0.0 -0.0
  outer loop
    vertex 175.86129951091831 59.39283902819009 7.500000000000157
    vertex 175.86129951091831 53.39283902819009 2.0000000000001577
    vertex 175.86129951091831 53.39283902819009 7.500000000000157
  endloop
endfacet
facet normal -1.0 -0.0 -0.0
  outer loop
    vertex 175.86129951091831 53.39283902819009 2.0000000000001577
    vertex 175.86129951091831 59.39283902819009 7.500000000000157
    vertex 175.86129951091831 59.39283902819009 2.0000000000001577
  endloop
endfacet
facet normal 0.0 -1.0 0.0
  outer loop
    vertex 176.86129951091831 53.39283902819009 7.500000000000157
    vertex 175.86129951091831 53.39283902819009 2.0000000000001577
    vertex 176.86129951091831 53.39283902819009 2.0000000000001577
  endloop
endfacet
facet normal 0.0 -1.0 0.0
  outer loop
    vertex 175.86129951091831 53.39283902819009 2.0000000000001577
    vertex 176.86129951091831 53.39283902819009 7.500000000000157
    vertex 175.86129951091831 53.39283902819009 7.500000000000157
  endloop
endfacet
facet normal 0.0 0.0 1.0
  outer loop
    vertex 176.86129951091831 72.39283902819015 7.500000000000157
    vertex 175.86129951091831 78.39283902819015 7.500000000000157
    vertex 175.86129951091831 72.39283902819015 7.500000000000157
  endloop
endfacet
facet normal 0.0 0.0 1.0
  outer loop
    vertex 175.86129951091831 78.39283902819015 7.500000000000157
    vertex 176.86129951091831 72.39283902819015 7.500000000000157
    vertex 176.86129951091831 78.39283902819015 7.500000000000157
  endloop
endfacet
facet normal 0.0 1.0 0.0
  outer loop
    vertex 175.86129951091831 78.39283902819015 7.500000000000157
    vertex 176.86129951091831 78.39283902819015 2.0000000000001577
    vertex 175.86129951091831 78.39283902819015 2.0000000000001577
  endloop
endfacet
facet normal 0.0 1.0 0.0
  outer loop
    vertex 176.86129951091831 78.39283902819015 2.0000000000001577
    vertex 175.86129951091831 78.39283902819015 7.500000000000157
    vertex 176.86129951091831 78.39283902819015 7.500000000000157
  endloop
endfacet
facet normal -1.0 -0.0 -0.0
  outer loop
    vertex 175.86129951091831 78.39283902819015 7.500000000000157
    vertex 175.86129951091831 72.39283902819015 2.0000000000001577
    vertex 175.86129951091831 72.39283902819015 7.500000000000157
  endloop
endfacet
facet normal -1.0 -0.0 -0.0
  outer loop
    vertex 175.86129951091831 72.39283902819015 2.0000000000001577
    vertex 175.86129951091831 78.39283902819015 7.500000000000157
    vertex 175.86129951091831 78.39283902819015 2.0000000000001577
  endloop
endfacet
facet normal 0.0 -1.0 0.0
  outer loop
    vertex 176.86129951091831 72.39283902819015 7.500000000000157
    vertex 175.86129951091831 72.39283902819015 2.0000000000001577
    vertex 176.86129951091831 72.39283902819015 2.0000000000001577
  endloop
endfacet
facet normal 0.0 -1.0 0.0
  outer loop
    vertex 175.86129951091831 72.39283902819015 2.0000000000001577
    vertex 176.86129951091831 72.39283902819015 7.500000000000157
    vertex 175.86129951091831 72.39283902819015 7.500000000000157
  endloop
endfacet
facet normal -3.524958103184873e-16 1.4099832412739513e-14 1.0
  outer loop
    vertex 159.86129951091831 84.39283902819024 7.500000000000067
    vertex 119.86129951091831 85.39283902819022 7.500000000000038
    vertex 119.86129951091831 84.39283902819024 7.500000000000067
  endloop
endfacet
facet normal -3.524958103184873e-16 1.4099832412739513e-14 1.0
  outer loop
    vertex 119.86129951091831 85.39283902819022 7.500000000000038
    vertex 159.86129951091831 84.39283902819024 7.500000000000067
    vertex 159.86129951091831 85.39283902819022 7.500000000000067
  endloop
endfacet
facet normal -1.0 -9.940263703366973e-30 -3.524958103184873e-16
  outer loop
    vertex 119.86129951091831 84.39283902819024 7.500000000000067
    vertex 119.86129951091831 85.39283902819015 2.0000000000000395
    vertex 119.86129951091831 84.39283902819015 2.0000000000000675
  endloop
endfacet
facet normal -1.0 -9.940263703366973e-30 -3.524958103184873e-16
  outer loop
    vertex 119.86129951091831 85.39283902819015 2.0000000000000395
    vertex 119.86129951091831 84.39283902819024 7.500000000000067
    vertex 119.86129951091831 85.39283902819022 7.500000000000038
  endloop
endfacet
facet normal 0.0 -1.0 1.4099832412739515e-14
  outer loop
    vertex 159.86129951091831 84.39283902819024 7.500000000000067
    vertex 119.86129951091831 84.39283902819015 2.0000000000000675
    vertex 159.86129951091831 84.39283902819015 2.0000000000000675
  endloop
endfacet
facet normal 0.0 -1.0 1.4099832412739515e-14
  outer loop
    vertex 119.86129951091831 84.39283902819015 2.0000000000000675
    vertex 159.86129951091831 84.39283902819024 7.500000000000067
    vertex 119.86129951091831 84.39283902819024 7.500000000000067
  endloop
endfacet
facet normal 1.0 -0.0 3.524958103184873e-16
  outer loop
    vertex 159.86129951091831 85.39283902819015 2.0000000000000675
    vertex 159.86129951091831 84.39283902819024 7.500000000000067
    vertex 159.86129951091831 84.39283902819015 2.0000000000000675
  endloop
endfacet
facet normal 1.0 -0.0 3.524958103184873e-16
  outer loop
    vertex 159.86129951091831 84.39283902819024 7.500000000000067
    vertex 159.86129951091831 85.39283902819015 2.0000000000000675
    vertex 159.86129951091831 85.39283902819022 7.500000000000067
  endloop
endfacet
facet normal -7.049916206369746e-16 -2.8199664825479027e-14 1.0
  outer loop
    vertex 159.86129951091831 46.39283902818991 7.5000000000001235
    vertex 119.86129951091831 47.39283902818991 7.5000000000001235
    vertex 119.86129951091831 46.39283902818991 7.500000000000067
  endloop
endfacet
facet normal -7.049916206369746e-16 -2.8199664825479027e-14 1.0
  outer loop
    vertex 119.86129951091831 47.39283902818991 7.5000000000001235
    vertex 159.86129951091831 46.39283902818991 7.5000000000001235
    vertex 159.86129951091831 47.39283902818991 7.5000000000001235
  endloop
endfacet
facet normal 1.0 -0.0 7.049916206369746e-16
  outer loop
    vertex 159.86129951091831 46.39283902819007 2.000000000000124
    vertex 159.86129951091831 47.39283902818991 7.5000000000001235
    vertex 159.86129951091831 46.39283902818991 7.5000000000001235
  endloop
endfacet
facet normal 1.0 -0.0 7.049916206369746e-16
  outer loop
    vertex 159.86129951091831 47.39283902818991 7.5000000000001235
    vertex 159.86129951091831 46.39283902819007 2.000000000000124
    vertex 159.86129951091831 47.39283902819007 2.000000000000124
  endloop
endfacet
facet normal 0.0 1.0 2.819966482547903e-14
  outer loop
    vertex 119.86129951091831 47.39283902818991 7.5000000000001235
    vertex 159.86129951091831 47.39283902819007 2.000000000000124
    vertex 119.86129951091831 47.39283902819007 2.000000000000124
  endloop
endfacet
facet normal 0.0 1.0 2.819966482547903e-14
  outer loop
    vertex 159.86129951091831 47.39283902819007 2.000000000000124
    vertex 119.86129951091831 47.39283902818991 7.5000000000001235
    vertex 159.86129951091831 47.39283902818991 7.5000000000001235
  endloop
endfacet
facet normal -1.0 3.976105481346789e-29 -7.049916206369746e-16
  outer loop
    vertex 119.86129951091831 47.39283902818991 7.5000000000001235
    vertex 119.86129951091831 46.39283902819007 2.0000000000000675
    vertex 119.86129951091831 46.39283902818991 7.500000000000067
  endloop
endfacet
facet normal -1.0 3.976105481346789e-29 -7.049916206369746e-16
  outer loop
    vertex 119.86129951091831 46.39283902819007 2.0000000000000675
    vertex 119.86129951091831 47.39283902818991 7.5000000000001235
    vertex 119.86129951091831 47.39283902819007 2.000000000000124
  endloop
endfacet
facet normal 0.0 0.0 1.0
  outer loop
    vertex 103.86129951091829 55.892839028190124 7.499999999999976
    vertex 102.86129951091829 75.8928390281901 7.499999999999976
    vertex 102.86129951091829 55.892839028190124 7.499999999999976
  endloop
endfacet
facet normal 0.0 0.0 1.0
  outer loop
    vertex 102.86129951091829 75.8928390281901 7.499999999999976
    vertex 103.86129951091829 55.892839028190124 7.499999999999976
    vertex 103.86129951091829 75.8928390281901 7.499999999999976
  endloop
endfacet
facet normal 0.0 -1.0 0.0
  outer loop
    vertex 103.86129951091829 55.892839028190124 7.499999999999976
    vertex 102.86129951091829 55.892839028190124 1.9999999999999774
    vertex 103.86129951091829 55.892839028190124 1.9999999999999774
  endloop
endfacet
facet normal 0.0 -1.0 0.0
  outer loop
    vertex 102.86129951091829 55.892839028190124 1.9999999999999774
    vertex 103.86129951091829 55.892839028190124 7.499999999999976
    vertex 102.86129951091829 55.892839028190124 7.499999999999976
  endloop
endfacet
facet normal 1.0 -0.0 0.0
  outer loop
    vertex 103.86129951091829 75.8928390281901 1.9999999999999774
    vertex 103.86129951091829 55.892839028190124 7.499999999999976
    vertex 103.86129951091829 55.892839028190124 1.9999999999999774
  endloop
endfacet
facet normal 1.0 -0.0 0.0
  outer loop
    vertex 103.86129951091829 55.892839028190124 7.499999999999976
    vertex 103.86129951091829 75.8928390281901 1.9999999999999774
    vertex 103.86129951091829 75.8928390281901 7.499999999999976
  endloop
endfacet
facet normal 0.0 1.0 0.0
  outer loop
    vertex 102.86129951091829 75.8928390281901 7.499999999999976
    vertex 103.86129951091829 75.8928390281901 1.9999999999999774
    vertex 102.86129951091829 75.8928390281901 1.9999999999999774
  endloop
endfacet
facet normal 0.0 1.0 0.0
  outer loop
    vertex 103.86129951091829 75.8928390281901 1.9999999999999774
    vertex 102.86129951091829 75.8928390281901 7.499999999999976
    vertex 103.86129951091829 75.8928390281901 7.499999999999976
  endloop
endfacet
endsolid Transmitter
