solid Transmitter
facet normal 1.0 -0.0 -0.0
  outer loop
    vertex 124.92431190964015 -72.59053309721486 29.8
    vertex 124.92431190964015 -77.59053309721484 35.0
    vertex 124.92431190964015 -77.59053309721484 29.8
  endloop
endfacet
facet normal 1.0 -0.0 -0.0
  outer loop
    vertex 124.92431190964015 -77.59053309721484 35.0
    vertex 124.92431190964015 -72.59053309721486 29.8
    vertex 124.92431190964015 -72.59053309721486 35.0
  endloop
endfacet
facet normal -0.8574929257125441 3.054896160638991e-30 0.5144957554275267
  outer loop
    vertex 100.92431190964014 -72.59053309721486 35.0
    vertex 94.92431190964014 -77.59053309721486 25.0
    vertex 100.92431190964014 -77.59053309721486 35.0
  endloop
endfacet
facet normal -0.8574929257125441 3.054896160638991e-30 0.5144957554275267
  outer loop
    vertex 94.92431190964014 -77.59053309721486 25.0
    vertex 100.92431190964014 -72.59053309721486 35.0
    vertex 94.92431190964014 -72.59053309721486 25.0
  endloop
endfacet
facet normal -2.6162338944341067e-47 1.0 -0.0
  outer loop
    vertex 94.92431190964018 -76.09053309721486 22.5
    vertex 118.92431190964014 -76.09053309721486 2.500000000000001
    vertex 94.92431190964018 -76.09053309721486 2.500000000000001
  endloop
endfacet
facet normal -2.6162338944341067e-47 1.0 -0.0
  outer loop
    vertex 118.92431190964014 -76.09053309721486 2.500000000000001
    vertex 94.92431190964018 -76.09053309721486 22.5
    vertex 118.92431190964014 -76.09053309721486 22.5
  endloop
endfacet
facet normal 1.4239125849300721e-32 0.9914448613738132 0.13052619222003073
  outer loop
    vertex 94.92431190964018 -76.09053309721486 2.500000000000001
    vertex 118.92431190964014 -76.05645892350394 2.2411809548974806
    vertex 94.92431190964018 -76.05645892350394 2.2411809548974806
  endloop
endfacet
facet normal 2.8234616307493515e-32 0.9659258262890669 0.2588190451025261
  outer loop
    vertex 118.92431190964014 -76.05645892350394 2.2411809548974806
    vertex 94.92431190964018 -76.09053309721486 2.500000000000001
    vertex 118.92431190964014 -76.09053309721486 2.500000000000001
  endloop
endfacet
facet normal 2.8234616307493515e-32 0.9659258262890669 0.2588190451025261
  outer loop
    vertex 94.92431190964018 -76.05645892350394 2.2411809548974806
    vertex 118.92431190964014 -75.9565585009993 2.0000000000000018
    vertex 94.92431190964018 -75.9565585009993 2.0000000000000018
  endloop
endfacet
facet normal 5.454509017354042e-32 0.8660254037844356 0.5000000000000053
  outer loop
    vertex 118.92431190964014 -75.9565585009993 2.0000000000000018
    vertex 94.92431190964018 -76.05645892350394 2.2411809548974806
    vertex 118.92431190964014 -76.05645892350394 2.2411809548974806
  endloop
endfacet
facet normal 5.454509017354042e-32 0.8660254037844356 0.5000000000000053
  outer loop
    vertex 94.92431190964018 -75.9565585009993 2.0000000000000018
    vertex 118.92431190964014 -75.79763987840141 1.792893218813455
    vertex 94.92431190964018 -75.79763987840141 1.792893218813455
  endloop
endfacet
facet normal 7.713840628428299e-32 0.7071067811865522 0.7071067811865429
  outer loop
    vertex 118.92431190964014 -75.79763987840141 1.792893218813455
    vertex 94.92431190964018 -75.9565585009993 2.0000000000000018
    vertex 118.92431190964014 -75.9565585009993 2.0000000000000018
  endloop
endfacet
facet normal 7.713840628428299e-32 0.7071067811865522 0.7071067811865429
  outer loop
    vertex 118.92431190964014 -75.79763987840141 1.792893218813455
    vertex 94.92431190964018 -75.59053309721486 1.633974596215564
    vertex 94.92431190964018 -75.79763987840141 1.792893218813455
  endloop
endfacet
facet normal 9.447486748399703e-32 0.4999999999999985 0.8660254037844395
  outer loop
    vertex 94.92431190964018 -75.59053309721486 1.633974596215564
    vertex 118.92431190964014 -75.79763987840141 1.792893218813455
    vertex 118.92431190964014 -75.59053309721486 1.633974596215564
  endloop
endfacet
facet normal 9.447486748399703e-32 0.4999999999999985 0.8660254037844395
  outer loop
    vertex 118.92431190964014 -75.59053309721486 1.633974596215564
    vertex 94.92431190964018 -75.34935214231739 1.5340741737109347
    vertex 94.92431190964018 -75.59053309721486 1.633974596215564
  endloop
endfacet
facet normal 1.0537302259177642e-31 0.25881904510252196 0.9659258262890679
  outer loop
    vertex 94.92431190964018 -75.34935214231739 1.5340741737109347
    vertex 118.92431190964014 -75.59053309721486 1.633974596215564
    vertex 118.92431190964014 -75.34935214231739 1.5340741737109347
  endloop
endfacet
facet normal 1.0537302259177642e-31 0.25881904510252196 0.9659258262890679
  outer loop
    vertex 118.92431190964014 -75.34935214231739 1.5340741737109347
    vertex 94.92431190964018 -75.09053309721486 1.5000000000000029
    vertex 94.92431190964018 -75.34935214231739 1.5340741737109347
  endloop
endfacet
facet normal 1.0909018034707973e-31 3.475332859302292e-16 1.0
  outer loop
    vertex 94.92431190964018 -75.09053309721486 1.5000000000000029
    vertex 118.92431190964014 -75.34935214231739 1.5340741737109347
    vertex 118.92431190964014 -75.09053309721486 1.5000000000000029
  endloop
endfacet
facet normal 1.0909018034707973e-31 3.475332859302292e-16 1.0
  outer loop
    vertex 118.92431190964014 -75.09053309721486 1.5000000000000029
    vertex 94.92431190964018 -74.83171405211235 1.5340741737109345
    vertex 94.92431190964018 -75.09053309721486 1.5000000000000029
  endloop
endfacet
facet normal 1.0537302259177644e-31 -0.25881904510252196 0.9659258262890681
  outer loop
    vertex 94.92431190964018 -74.83171405211235 1.5340741737109345
    vertex 118.92431190964014 -75.09053309721486 1.5000000000000029
    vertex 118.92431190964014 -74.83171405211235 1.5340741737109345
  endloop
endfacet
facet normal 1.0537302259177644e-31 -0.25881904510252196 0.9659258262890681
  outer loop
    vertex 118.92431190964014 -74.83171405211235 1.5340741737109345
    vertex 94.92431190964018 -74.59053309721486 1.633974596215564
    vertex 94.92431190964018 -74.83171405211235 1.5340741737109345
  endloop
endfacet
facet normal 9.447486748399708e-32 -0.49999999999999833 0.8660254037844397
  outer loop
    vertex 94.92431190964018 -74.59053309721486 1.633974596215564
    vertex 118.92431190964014 -74.83171405211235 1.5340741737109345
    vertex 118.92431190964014 -74.59053309721486 1.633974596215564
  endloop
endfacet
facet normal 9.447486748399708e-32 -0.49999999999999833 0.8660254037844397
  outer loop
    vertex 118.92431190964014 -74.59053309721486 1.633974596215564
    vertex 94.92431190964018 -74.38342631602832 1.7928932188134545
    vertex 94.92431190964018 -74.59053309721486 1.633974596215564
  endloop
endfacet
facet normal 7.713840628428303e-32 -0.7071067811865519 0.707106781186543
  outer loop
    vertex 94.92431190964018 -74.38342631602832 1.7928932188134545
    vertex 118.92431190964014 -74.59053309721486 1.633974596215564
    vertex 118.92431190964014 -74.38342631602832 1.7928932188134545
  endloop
endfacet
facet normal 5.45450901735404e-32 -0.8660254037844359 0.5000000000000048
  outer loop
    vertex 118.92431190964014 -74.22450769343043 2.0000000000000018
    vertex 94.92431190964018 -74.38342631602832 1.7928932188134545
    vertex 118.92431190964014 -74.38342631602832 1.7928932188134545
  endloop
endfacet
facet normal 7.713840628428303e-32 -0.7071067811865519 0.707106781186543
  outer loop
    vertex 94.92431190964018 -74.38342631602832 1.7928932188134545
    vertex 118.92431190964014 -74.22450769343043 2.0000000000000018
    vertex 94.92431190964018 -74.22450769343043 2.0000000000000018
  endloop
endfacet
facet normal -0.0 -0.0 1.0
  outer loop
    vertex 124.92431190964015 -77.59053309721484 35.0
    vertex 100.92431190964014 -72.59053309721486 35.0
    vertex 100.92431190964014 -77.59053309721486 35.0
  endloop
endfacet
facet normal -0.0 -0.0 1.0
  outer loop
    vertex 100.92431190964014 -72.59053309721486 35.0
    vertex 124.92431190964015 -77.59053309721484 35.0
    vertex 124.92431190964015 -72.59053309721486 35.0
  endloop
endfacet
facet normal 2.6162338944341067e-47 -1.0 -0.0
  outer loop
    vertex 118.92431190964014 -74.09053309721486 22.5
    vertex 94.92431190964018 -74.09053309721486 2.500000000000001
    vertex 118.92431190964014 -74.09053309721486 2.500000000000001
  endloop
endfacet
facet normal 2.6162338944341067e-47 -1.0 -0.0
  outer loop
    vertex 94.92431190964018 -74.09053309721486 2.500000000000001
    vertex 118.92431190964014 -74.09053309721486 22.5
    vertex 94.92431190964018 -74.09053309721486 22.5
  endloop
endfacet
facet normal 1.0 -0.0 -0.0
  outer loop
    vertex 118.92431190964014 -77.59053309721486 0.0
    vertex 118.92431190964014 -76.09053309721486 2.500000000000001
    vertex 118.92431190964014 -77.59053309721486 25.0
  endloop
endfacet
facet normal 1.0 -0.0 -0.0
  outer loop
    vertex 118.92431190964014 -76.09053309721486 2.500000000000001
    vertex 118.92431190964014 -77.59053309721486 0.0
    vertex 118.92431190964014 -76.05645892350394 2.2411809548974806
  endloop
endfacet
facet normal 1.0 -0.0 -0.0
  outer loop
    vertex 118.92431190964014 -76.05645892350394 2.2411809548974806
    vertex 118.92431190964014 -77.59053309721486 0.0
    vertex 118.92431190964014 -75.9565585009993 2.0000000000000018
  endloop
endfacet
facet normal 1.0 -0.0 -0.0
  outer loop
    vertex 118.92431190964014 -75.9565585009993 2.0000000000000018
    vertex 118.92431190964014 -77.59053309721486 0.0
    vertex 118.92431190964014 -75.79763987840141 1.792893218813455
  endloop
endfacet
facet normal 1.0 -0.0 -0.0
  outer loop
    vertex 118.92431190964014 -75.79763987840141 1.792893218813455
    vertex 118.92431190964014 -77.59053309721486 0.0
    vertex 118.92431190964014 -75.59053309721486 1.633974596215564
  endloop
endfacet
facet normal 1.0 -0.0 -0.0
  outer loop
    vertex 118.92431190964014 -75.59053309721486 1.633974596215564
    vertex 118.92431190964014 -77.59053309721486 0.0
    vertex 118.92431190964014 -72.59053309721486 0.0
  endloop
endfacet
facet normal 1.0 -0.0 -0.0
  outer loop
    vertex 118.92431190964014 -75.59053309721486 1.633974596215564
    vertex 118.92431190964014 -72.59053309721486 0.0
    vertex 118.92431190964014 -75.34935214231739 1.5340741737109347
  endloop
endfacet
facet normal 1.0 -0.0 -0.0
  outer loop
    vertex 118.92431190964014 -75.34935214231739 1.5340741737109347
    vertex 118.92431190964014 -72.59053309721486 0.0
    vertex 118.92431190964014 -75.09053309721486 1.5000000000000029
  endloop
endfacet
facet normal 1.0 -0.0 -0.0
  outer loop
    vertex 118.92431190964014 -75.09053309721486 1.5000000000000029
    vertex 118.92431190964014 -72.59053309721486 0.0
    vertex 118.92431190964014 -74.83171405211235 1.5340741737109345
  endloop
endfacet
facet normal 1.0 -0.0 -0.0
  outer loop
    vertex 118.92431190964014 -74.83171405211235 1.5340741737109345
    vertex 118.92431190964014 -72.59053309721486 0.0
    vertex 118.92431190964014 -74.59053309721486 1.633974596215564
  endloop
endfacet
facet normal 1.0 -0.0 -0.0
  outer loop
    vertex 118.92431190964014 -74.59053309721486 1.633974596215564
    vertex 118.92431190964014 -72.59053309721486 0.0
    vertex 118.92431190964014 -74.38342631602832 1.7928932188134545
  endloop
endfacet
facet normal 1.0 -0.0 -0.0
  outer loop
    vertex 118.92431190964014 -74.38342631602832 1.7928932188134545
    vertex 118.92431190964014 -72.59053309721486 0.0
    vertex 118.92431190964014 -74.22450769343043 2.0000000000000018
  endloop
endfacet
facet normal 1.0 -0.0 -0.0
  outer loop
    vertex 118.92431190964014 -74.22450769343043 2.0000000000000018
    vertex 118.92431190964014 -72.59053309721486 0.0
    vertex 118.92431190964014 -74.1246072709258 2.241180954897481
  endloop
endfacet
facet normal 1.0 -0.0 -0.0
  outer loop
    vertex 118.92431190964014 -74.1246072709258 2.241180954897481
    vertex 118.92431190964014 -72.59053309721486 0.0
    vertex 118.92431190964014 -74.09053309721486 2.500000000000001
  endloop
endfacet
facet normal 1.0 -0.0 -0.0
  outer loop
    vertex 118.92431190964014 -74.09053309721486 2.500000000000001
    vertex 118.92431190964014 -72.59053309721486 0.0
    vertex 118.92431190964014 -74.09053309721486 22.5
  endloop
endfacet
facet normal 1.0 -0.0 -0.0
  outer loop
    vertex 118.92431190964014 -77.59053309721486 25.0
    vertex 118.92431190964014 -75.59053309721486 23.366025403784434
    vertex 118.92431190964014 -72.59053309721486 25.0
  endloop
endfacet
facet normal 1.0 -0.0 -0.0
  outer loop
    vertex 118.92431190964014 -75.59053309721486 23.366025403784434
    vertex 118.92431190964014 -77.59053309721486 25.0
    vertex 118.92431190964014 -75.79763987840141 23.207106781186546
  endloop
endfacet
facet normal 1.0 -0.0 -0.0
  outer loop
    vertex 118.92431190964014 -75.79763987840141 23.207106781186546
    vertex 118.92431190964014 -77.59053309721486 25.0
    vertex 118.92431190964014 -75.9565585009993 22.999999999999996
  endloop
endfacet
facet normal 1.0 -0.0 -0.0
  outer loop
    vertex 118.92431190964014 -75.9565585009993 22.999999999999996
    vertex 118.92431190964014 -77.59053309721486 25.0
    vertex 118.92431190964014 -76.05645892350394 22.75881904510252
  endloop
endfacet
facet normal 1.0 -0.0 -0.0
  outer loop
    vertex 118.92431190964014 -76.05645892350394 22.75881904510252
    vertex 118.92431190964014 -77.59053309721486 25.0
    vertex 118.92431190964014 -76.09053309721486 22.5
  endloop
endfacet
facet normal 1.0 -0.0 -0.0
  outer loop
    vertex 118.92431190964014 -76.09053309721486 22.5
    vertex 118.92431190964014 -77.59053309721486 25.0
    vertex 118.92431190964014 -76.09053309721486 2.500000000000001
  endloop
endfacet
facet normal 1.0 -0.0 -0.0
  outer loop
    vertex 118.92431190964014 -72.59053309721486 25.0
    vertex 118.92431190964014 -75.59053309721486 23.366025403784434
    vertex 118.92431190964014 -75.34935214231739 23.465925826289066
  endloop
endfacet
facet normal 1.0 -0.0 -0.0
  outer loop
    vertex 118.92431190964014 -72.59053309721486 25.0
    vertex 118.92431190964014 -75.34935214231739 23.465925826289066
    vertex 118.92431190964014 -75.09053309721486 23.499999999999996
  endloop
endfacet
facet normal 1.0 -0.0 -0.0
  outer loop
    vertex 118.92431190964014 -72.59053309721486 25.0
    vertex 118.92431190964014 -75.09053309721486 23.499999999999996
    vertex 118.92431190964014 -74.83171405211235 23.465925826289066
  endloop
endfacet
facet normal 1.0 -0.0 -0.0
  outer loop
    vertex 118.92431190964014 -72.59053309721486 25.0
    vertex 118.92431190964014 -74.83171405211235 23.465925826289066
    vertex 118.92431190964014 -74.59053309721486 23.366025403784434
  endloop
endfacet
facet normal 1.0 -0.0 -0.0
  outer loop
    vertex 118.92431190964014 -72.59053309721486 25.0
    vertex 118.92431190964014 -74.59053309721486 23.366025403784434
    vertex 118.92431190964014 -74.38342631602832 23.207106781186546
  endloop
endfacet
facet normal 1.0 -0.0 -0.0
  outer loop
    vertex 118.92431190964014 -72.59053309721486 25.0
    vertex 118.92431190964014 -74.38342631602832 23.207106781186546
    vertex 118.92431190964014 -74.22450769343043 22.999999999999996
  endloop
endfacet
facet normal 1.0 -0.0 -0.0
  outer loop
    vertex 118.92431190964014 -72.59053309721486 25.0
    vertex 118.92431190964014 -74.22450769343043 22.999999999999996
    vertex 118.92431190964014 -74.1246072709258 22.75881904510252
  endloop
endfacet
facet normal 1.0 -0.0 -0.0
  outer loop
    vertex 118.92431190964014 -72.59053309721486 25.0
    vertex 118.92431190964014 -74.1246072709258 22.75881904510252
    vertex 118.92431190964014 -74.09053309721486 22.5
  endloop
endfacet
facet normal 1.0 -0.0 -0.0
  outer loop
    vertex 118.92431190964014 -72.59053309721486 25.0
    vertex 118.92431190964014 -74.09053309721486 22.5
    vertex 118.92431190964014 -72.59053309721486 0.0
  endloop
endfacet
facet normal 0.6246950475544237 -1.9474618106307872e-30 -0.7808688094430308
  outer loop
    vertex 124.92431190964015 -72.59053309721486 29.8
    vertex 118.92431190964014 -77.59053309721486 25.0
    vertex 118.92431190964014 -72.59053309721486 25.0
  endloop
endfacet
facet normal 0.6246950475544237 -1.9474618106307872e-30 -0.7808688094430308
  outer loop
    vertex 118.92431190964014 -77.59053309721486 25.0
    vertex 124.92431190964015 -72.59053309721486 29.8
    vertex 124.92431190964015 -77.59053309721484 29.8
  endloop
endfacet
facet normal -1.0 0.0 0.0
  outer loop
    vertex 94.92431190964014 -77.59053309721486 25.0
    vertex 94.92431190964018 -76.09053309721486 22.5
    vertex 94.92431190964014 -77.59053309721486 0.0
  endloop
endfacet
facet normal -1.0 0.0 0.0
  outer loop
    vertex 94.92431190964018 -76.09053309721486 22.5
    vertex 94.92431190964014 -77.59053309721486 25.0
    vertex 94.92431190964018 -76.05645892350394 22.75881904510252
  endloop
endfacet
facet normal -1.0 0.0 0.0
  outer loop
    vertex 94.92431190964018 -76.05645892350394 22.75881904510252
    vertex 94.92431190964014 -77.59053309721486 25.0
    vertex 94.92431190964018 -75.9565585009993 22.999999999999996
  endloop
endfacet
facet normal -1.0 0.0 0.0
  outer loop
    vertex 94.92431190964018 -75.9565585009993 22.999999999999996
    vertex 94.92431190964014 -77.59053309721486 25.0
    vertex 94.92431190964018 -75.79763987840141 23.207106781186546
  endloop
endfacet
facet normal -1.0 0.0 0.0
  outer loop
    vertex 94.92431190964018 -75.79763987840141 23.207106781186546
    vertex 94.92431190964014 -77.59053309721486 25.0
    vertex 94.92431190964018 -75.59053309721486 23.366025403784434
  endloop
endfacet
facet normal -1.0 0.0 0.0
  outer loop
    vertex 94.92431190964018 -75.59053309721486 23.366025403784434
    vertex 94.92431190964014 -77.59053309721486 25.0
    vertex 94.92431190964014 -72.59053309721486 25.0
  endloop
endfacet
facet normal -1.0 0.0 0.0
  outer loop
    vertex 94.92431190964018 -75.59053309721486 23.366025403784434
    vertex 94.92431190964014 -72.59053309721486 25.0
    vertex 94.92431190964018 -75.34935214231739 23.465925826289066
  endloop
endfacet
facet normal -1.0 0.0 0.0
  outer loop
    vertex 94.92431190964018 -75.34935214231739 23.465925826289066
    vertex 94.92431190964014 -72.59053309721486 25.0
    vertex 94.92431190964018 -75.09053309721486 23.499999999999996
  endloop
endfacet
facet normal -1.0 0.0 0.0
  outer loop
    vertex 94.92431190964018 -75.09053309721486 23.499999999999996
    vertex 94.92431190964014 -72.59053309721486 25.0
    vertex 94.92431190964018 -74.83171405211235 23.465925826289066
  endloop
endfacet
facet normal -1.0 0.0 0.0
  outer loop
    vertex 94.92431190964018 -74.83171405211235 23.465925826289066
    vertex 94.92431190964014 -72.59053309721486 25.0
    vertex 94.92431190964018 -74.59053309721486 23.366025403784434
  endloop
endfacet
facet normal -1.0 0.0 0.0
  outer loop
    vertex 94.92431190964018 -74.59053309721486 23.366025403784434
    vertex 94.92431190964014 -72.59053309721486 25.0
    vertex 94.92431190964018 -74.38342631602832 23.207106781186546
  endloop
endfacet
facet normal -1.0 0.0 0.0
  outer loop
    vertex 94.92431190964018 -74.38342631602832 23.207106781186546
    vertex 94.92431190964014 -72.59053309721486 25.0
    vertex 94.92431190964018 -74.22450769343043 22.999999999999996
  endloop
endfacet
facet normal -1.0 0.0 0.0
  outer loop
    vertex 94.92431190964018 -74.22450769343043 22.999999999999996
    vertex 94.92431190964014 -72.59053309721486 25.0
    vertex 94.92431190964018 -74.1246072709258 22.75881904510252
  endloop
endfacet
facet normal -1.0 0.0 0.0
  outer loop
    vertex 94.92431190964018 -74.1246072709258 22.75881904510252
    vertex 94.92431190964014 -72.59053309721486 25.0
    vertex 94.92431190964018 -74.09053309721486 22.5
  endloop
endfacet
facet normal -1.0 0.0 0.0
  outer loop
    vertex 94.92431190964018 -74.09053309721486 22.5
    vertex 94.92431190964014 -72.59053309721486 25.0
    vertex 94.92431190964018 -74.09053309721486 2.500000000000001
  endloop
endfacet
facet normal -1.0 0.0 0.0
  outer loop
    vertex 94.92431190964014 -77.59053309721486 0.0
    vertex 94.92431190964018 -75.59053309721486 1.633974596215564
    vertex 94.92431190964014 -72.59053309721486 0.0
  endloop
endfacet
facet normal -1.0 0.0 0.0
  outer loop
    vertex 94.92431190964018 -75.59053309721486 1.633974596215564
    vertex 94.92431190964014 -77.59053309721486 0.0
    vertex 94.92431190964018 -75.79763987840141 1.792893218813455
  endloop
endfacet
facet normal -1.0 0.0 0.0
  outer loop
    vertex 94.92431190964018 -75.79763987840141 1.792893218813455
    vertex 94.92431190964014 -77.59053309721486 0.0
    vertex 94.92431190964018 -75.9565585009993 2.0000000000000018
  endloop
endfacet
facet normal -1.0 0.0 0.0
  outer loop
    vertex 94.92431190964018 -75.9565585009993 2.0000000000000018
    vertex 94.92431190964014 -77.59053309721486 0.0
    vertex 94.92431190964018 -76.05645892350394 2.2411809548974806
  endloop
endfacet
facet normal -1.0 0.0 0.0
  outer loop
    vertex 94.92431190964018 -76.05645892350394 2.2411809548974806
    vertex 94.92431190964014 -77.59053309721486 0.0
    vertex 94.92431190964018 -76.09053309721486 2.500000000000001
  endloop
endfacet
facet normal -1.0 0.0 0.0
  outer loop
    vertex 94.92431190964018 -76.09053309721486 2.500000000000001
    vertex 94.92431190964014 -77.59053309721486 0.0
    vertex 94.92431190964018 -76.09053309721486 22.5
  endloop
endfacet
facet normal -1.0 0.0 0.0
  outer loop
    vertex 94.92431190964014 -72.59053309721486 0.0
    vertex 94.92431190964018 -75.59053309721486 1.633974596215564
    vertex 94.92431190964018 -75.34935214231739 1.5340741737109347
  endloop
endfacet
facet normal -1.0 0.0 0.0
  outer loop
    vertex 94.92431190964014 -72.59053309721486 0.0
    vertex 94.92431190964018 -75.34935214231739 1.5340741737109347
    vertex 94.92431190964018 -75.09053309721486 1.5000000000000029
  endloop
endfacet
facet normal -1.0 0.0 0.0
  outer loop
    vertex 94.92431190964014 -72.59053309721486 0.0
    vertex 94.92431190964018 -75.09053309721486 1.5000000000000029
    vertex 94.92431190964018 -74.83171405211235 1.5340741737109345
  endloop
endfacet
facet normal -1.0 0.0 0.0
  outer loop
    vertex 94.92431190964014 -72.59053309721486 0.0
    vertex 94.92431190964018 -74.83171405211235 1.5340741737109345
    vertex 94.92431190964018 -74.59053309721486 1.633974596215564
  endloop
endfacet
facet normal -1.0 0.0 0.0
  outer loop
    vertex 94.92431190964014 -72.59053309721486 0.0
    vertex 94.92431190964018 -74.59053309721486 1.633974596215564
    vertex 94.92431190964018 -74.38342631602832 1.7928932188134545
  endloop
endfacet
facet normal -1.0 0.0 0.0
  outer loop
    vertex 94.92431190964014 -72.59053309721486 0.0
    vertex 94.92431190964018 -74.38342631602832 1.7928932188134545
    vertex 94.92431190964018 -74.22450769343043 2.0000000000000018
  endloop
endfacet
facet normal -1.0 0.0 0.0
  outer loop
    vertex 94.92431190964014 -72.59053309721486 0.0
    vertex 94.92431190964018 -74.22450769343043 2.0000000000000018
    vertex 94.92431190964018 -74.1246072709258 2.241180954897481
  endloop
endfacet
facet normal -1.0 0.0 0.0
  outer loop
    vertex 94.92431190964014 -72.59053309721486 0.0
    vertex 94.92431190964018 -74.1246072709258 2.241180954897481
    vertex 94.92431190964018 -74.09053309721486 2.500000000000001
  endloop
endfacet
facet normal -1.0 0.0 0.0
  outer loop
    vertex 94.92431190964014 -72.59053309721486 0.0
    vertex 94.92431190964018 -74.09053309721486 2.500000000000001
    vertex 94.92431190964014 -72.59053309721486 25.0
  endloop
endfacet
facet normal 0.0 0.0 -1.0
  outer loop
    vertex 118.92431190964014 -72.59053309721486 0.0
    vertex 94.92431190964014 -77.59053309721486 0.0
    vertex 94.92431190964014 -72.59053309721486 0.0
  endloop
endfacet
facet normal 0.0 0.0 -1.0
  outer loop
    vertex 94.92431190964014 -77.59053309721486 0.0
    vertex 118.92431190964014 -72.59053309721486 0.0
    vertex 118.92431190964014 -77.59053309721486 0.0
  endloop
endfacet
facet normal -0.0 1.0 -0.0
  outer loop
    vertex 94.92431190964014 -72.59053309721486 25.0
    vertex 118.92431190964014 -72.59053309721486 0.0
    vertex 94.92431190964014 -72.59053309721486 0.0
  endloop
endfacet
facet normal -0.0 1.0 -0.0
  outer loop
    vertex 118.92431190964014 -72.59053309721486 0.0
    vertex 94.92431190964014 -72.59053309721486 25.0
    vertex 118.92431190964014 -72.59053309721486 25.0
  endloop
endfacet
facet normal -0.0 1.0 -0.0
  outer loop
    vertex 118.92431190964014 -72.59053309721486 25.0
    vertex 94.92431190964014 -72.59053309721486 25.0
    vertex 100.92431190964014 -72.59053309721486 35.0
  endloop
endfacet
facet normal -0.0 1.0 -0.0
  outer loop
    vertex 118.92431190964014 -72.59053309721486 25.0
    vertex 100.92431190964014 -72.59053309721486 35.0
    vertex 124.92431190964015 -72.59053309721486 29.8
  endloop
endfacet
facet normal -0.0 1.0 -0.0
  outer loop
    vertex 124.92431190964015 -72.59053309721486 29.8
    vertex 100.92431190964014 -72.59053309721486 35.0
    vertex 124.92431190964015 -72.59053309721486 35.0
  endloop
endfacet
facet normal -1.0537302259177644e-31 0.2588190451025232 -0.9659258262890676
  outer loop
    vertex 118.92431190964014 -75.34935214231739 23.465925826289066
    vertex 94.92431190964018 -75.59053309721486 23.366025403784434
    vertex 94.92431190964018 -75.34935214231739 23.465925826289066
  endloop
endfacet
facet normal -9.447486748399709e-32 0.4999999999999982 -0.8660254037844397
  outer loop
    vertex 94.92431190964018 -75.59053309721486 23.366025403784434
    vertex 118.92431190964014 -75.34935214231739 23.465925826289066
    vertex 118.92431190964014 -75.59053309721486 23.366025403784434
  endloop
endfacet
facet normal -1.0909018034707973e-31 0.0 -1.0
  outer loop
    vertex 118.92431190964014 -75.09053309721486 23.499999999999996
    vertex 94.92431190964018 -75.34935214231739 23.465925826289066
    vertex 94.92431190964018 -75.09053309721486 23.499999999999996
  endloop
endfacet
facet normal -1.0537302259177644e-31 0.2588190451025232 -0.9659258262890676
  outer loop
    vertex 94.92431190964018 -75.34935214231739 23.465925826289066
    vertex 118.92431190964014 -75.09053309721486 23.499999999999996
    vertex 118.92431190964014 -75.34935214231739 23.465925826289066
  endloop
endfacet
facet normal -1.0537302259177642e-31 -0.2588190451025232 -0.9659258262890676
  outer loop
    vertex 118.92431190964014 -74.83171405211235 23.465925826289066
    vertex 94.92431190964018 -75.09053309721486 23.499999999999996
    vertex 94.92431190964018 -74.83171405211235 23.465925826289066
  endloop
endfacet
facet normal -1.0909018034707973e-31 0.0 -1.0
  outer loop
    vertex 94.92431190964018 -75.09053309721486 23.499999999999996
    vertex 118.92431190964014 -74.83171405211235 23.465925826289066
    vertex 118.92431190964014 -75.09053309721486 23.499999999999996
  endloop
endfacet
facet normal -9.447486748399707e-32 -0.4999999999999982 -0.8660254037844397
  outer loop
    vertex 118.92431190964014 -74.59053309721486 23.366025403784434
    vertex 94.92431190964018 -74.83171405211235 23.465925826289066
    vertex 94.92431190964018 -74.59053309721486 23.366025403784434
  endloop
endfacet
facet normal -1.0537302259177642e-31 -0.2588190451025232 -0.9659258262890676
  outer loop
    vertex 94.92431190964018 -74.83171405211235 23.465925826289066
    vertex 118.92431190964014 -74.59053309721486 23.366025403784434
    vertex 118.92431190964014 -74.83171405211235 23.465925826289066
  endloop
endfacet
facet normal -7.713840628428308e-32 -0.7071067811865513 -0.7071067811865437
  outer loop
    vertex 118.92431190964014 -74.38342631602832 23.207106781186546
    vertex 94.92431190964018 -74.59053309721486 23.366025403784434
    vertex 94.92431190964018 -74.38342631602832 23.207106781186546
  endloop
endfacet
facet normal -9.447486748399707e-32 -0.4999999999999982 -0.8660254037844397
  outer loop
    vertex 94.92431190964018 -74.59053309721486 23.366025403784434
    vertex 118.92431190964014 -74.38342631602832 23.207106781186546
    vertex 118.92431190964014 -74.59053309721486 23.366025403784434
  endloop
endfacet
facet normal -7.713840628428308e-32 -0.7071067811865513 -0.7071067811865437
  outer loop
    vertex 118.92431190964014 -74.38342631602832 23.207106781186546
    vertex 94.92431190964018 -74.22450769343043 22.999999999999996
    vertex 118.92431190964014 -74.22450769343043 22.999999999999996
  endloop
endfacet
facet normal -5.454509017354036e-32 -0.8660254037844359 -0.5000000000000048
  outer loop
    vertex 94.92431190964018 -74.22450769343043 22.999999999999996
    vertex 118.92431190964014 -74.38342631602832 23.207106781186546
    vertex 94.92431190964018 -74.38342631602832 23.207106781186546
  endloop
endfacet
facet normal -2.8234616307493493e-32 -0.9659258262890669 -0.25881904510252596
  outer loop
    vertex 118.92431190964014 -74.1246072709258 22.75881904510252
    vertex 94.92431190964018 -74.09053309721486 22.5
    vertex 118.92431190964014 -74.09053309721486 22.5
  endloop
endfacet
facet normal -1.423912584930074e-32 -0.9914448613738132 -0.13052619222003092
  outer loop
    vertex 94.92431190964018 -74.09053309721486 22.5
    vertex 118.92431190964014 -74.1246072709258 22.75881904510252
    vertex 94.92431190964018 -74.1246072709258 22.75881904510252
  endloop
endfacet
facet normal 1.4239125849300793e-32 -0.9914448613738132 0.13052619222003092
  outer loop
    vertex 118.92431190964014 -74.09053309721486 2.500000000000001
    vertex 94.92431190964018 -74.1246072709258 2.241180954897481
    vertex 118.92431190964014 -74.1246072709258 2.241180954897481
  endloop
endfacet
facet normal 2.823461630749354e-32 -0.9659258262890669 0.25881904510252596
  outer loop
    vertex 94.92431190964018 -74.1246072709258 2.241180954897481
    vertex 118.92431190964014 -74.09053309721486 2.500000000000001
    vertex 94.92431190964018 -74.09053309721486 2.500000000000001
  endloop
endfacet
facet normal -9.447486748399709e-32 0.4999999999999982 -0.8660254037844397
  outer loop
    vertex 118.92431190964014 -75.59053309721486 23.366025403784434
    vertex 94.92431190964018 -75.79763987840141 23.207106781186546
    vertex 94.92431190964018 -75.59053309721486 23.366025403784434
  endloop
endfacet
facet normal -7.713840628428311e-32 0.7071067811865513 -0.7071067811865437
  outer loop
    vertex 94.92431190964018 -75.79763987840141 23.207106781186546
    vertex 118.92431190964014 -75.59053309721486 23.366025403784434
    vertex 118.92431190964014 -75.79763987840141 23.207106781186546
  endloop
endfacet
facet normal 2.609459060330825e-16 -1.0 9.538057404416442e-17
  outer loop
    vertex 118.92431190964014 -77.59053309721486 25.0
    vertex 94.92431190964014 -77.59053309721486 0.0
    vertex 118.92431190964014 -77.59053309721486 0.0
  endloop
endfacet
facet normal 2.609459060330825e-16 -1.0 9.538057404416442e-17
  outer loop
    vertex 94.92431190964014 -77.59053309721486 0.0
    vertex 118.92431190964014 -77.59053309721486 25.0
    vertex 94.92431190964014 -77.59053309721486 25.0
  endloop
endfacet
facet normal 2.609459060330825e-16 -1.0 9.538057404416442e-17
  outer loop
    vertex 94.92431190964014 -77.59053309721486 25.0
    vertex 118.92431190964014 -77.59053309721486 25.0
    vertex 124.92431190964015 -77.59053309721484 29.8
  endloop
endfacet
facet normal 2.609459060330825e-16 -1.0 9.538057404416442e-17
  outer loop
    vertex 94.92431190964014 -77.59053309721486 25.0
    vertex 124.92431190964015 -77.59053309721484 29.8
    vertex 100.92431190964014 -77.59053309721486 35.0
  endloop
endfacet
facet normal 2.609459060330825e-16 -1.0 9.538057404416442e-17
  outer loop
    vertex 100.92431190964014 -77.59053309721486 35.0
    vertex 124.92431190964015 -77.59053309721484 29.8
    vertex 124.92431190964015 -77.59053309721484 35.0
  endloop
endfacet
facet normal -5.454509017354036e-32 -0.8660254037844359 -0.5000000000000048
  outer loop
    vertex 118.92431190964014 -74.22450769343043 22.999999999999996
    vertex 94.92431190964018 -74.1246072709258 22.75881904510252
    vertex 118.92431190964014 -74.1246072709258 22.75881904510252
  endloop
endfacet
facet normal -2.8234616307493493e-32 -0.9659258262890669 -0.25881904510252596
  outer loop
    vertex 94.92431190964018 -74.1246072709258 22.75881904510252
    vertex 118.92431190964014 -74.22450769343043 22.999999999999996
    vertex 94.92431190964018 -74.22450769343043 22.999999999999996
  endloop
endfacet
facet normal 2.823461630749354e-32 -0.9659258262890669 0.25881904510252596
  outer loop
    vertex 118.92431190964014 -74.1246072709258 2.241180954897481
    vertex 94.92431190964018 -74.22450769343043 2.0000000000000018
    vertex 118.92431190964014 -74.22450769343043 2.0000000000000018
  endloop
endfacet
facet normal 5.45450901735404e-32 -0.8660254037844359 0.5000000000000048
  outer loop
    vertex 94.92431190964018 -74.22450769343043 2.0000000000000018
    vertex 118.92431190964014 -74.1246072709258 2.241180954897481
    vertex 94.92431190964018 -74.1246072709258 2.241180954897481
  endloop
endfacet
facet normal -5.45450901735404e-32 0.8660254037844359 -0.5000000000000048
  outer loop
    vertex 94.92431190964018 -75.9565585009993 22.999999999999996
    vertex 118.92431190964014 -76.05645892350394 22.75881904510252
    vertex 94.92431190964018 -76.05645892350394 22.75881904510252
  endloop
endfacet
facet normal -2.823461630749354e-32 0.9659258262890669 -0.25881904510252596
  outer loop
    vertex 118.92431190964014 -76.05645892350394 22.75881904510252
    vertex 94.92431190964018 -75.9565585009993 22.999999999999996
    vertex 118.92431190964014 -75.9565585009993 22.999999999999996
  endloop
endfacet
facet normal -7.713840628428311e-32 0.7071067811865513 -0.7071067811865437
  outer loop
    vertex 94.92431190964018 -75.79763987840141 23.207106781186546
    vertex 118.92431190964014 -75.9565585009993 22.999999999999996
    vertex 94.92431190964018 -75.9565585009993 22.999999999999996
  endloop
endfacet
facet normal -5.45450901735404e-32 0.8660254037844359 -0.5000000000000048
  outer loop
    vertex 118.92431190964014 -75.9565585009993 22.999999999999996
    vertex 94.92431190964018 -75.79763987840141 23.207106781186546
    vertex 118.92431190964014 -75.79763987840141 23.207106781186546
  endloop
endfacet
facet normal -2.823461630749354e-32 0.9659258262890669 -0.25881904510252596
  outer loop
    vertex 94.92431190964018 -76.05645892350394 22.75881904510252
    vertex 118.92431190964014 -76.09053309721486 22.5
    vertex 94.92431190964018 -76.09053309721486 22.5
  endloop
endfacet
facet normal -1.4239125849300793e-32 0.9914448613738132 -0.13052619222003092
  outer loop
    vertex 118.92431190964014 -76.09053309721486 22.5
    vertex 94.92431190964018 -76.05645892350394 22.75881904510252
    vertex 118.92431190964014 -76.05645892350394 22.75881904510252
  endloop
endfacet
endsolid Transmitter
