solid Controller
facet normal -1.0193656618398855e-13 -1.0 -9.39988827515964e-13
  outer loop
    vertex -46.58203069595663 123.81347548369986 1.9999999999522948
    vertex -72.58203069595655 123.81347548370432 -4.671180479457853e-11
    vertex -46.58203069595661 123.8134754837017 -4.771665285119297e-11
  endloop
endfacet
facet normal -1.0193656618398855e-13 -1.0 -9.39988827515964e-13
  outer loop
    vertex -72.58203069595655 123.81347548370432 -4.671180479457853e-11
    vertex -46.58203069595663 123.81347548369986 1.9999999999522948
    vertex -72.5820306959566 123.81347548370246 1.999999999953283
  endloop
endfacet
facet normal 1.0 -1.3253842467974843e-13 -1.879977655157506e-15
  outer loop
    vertex -72.58203069595787 113.81347548370425 -5.6277131103381e-11
    vertex -72.5820306959566 123.81347548370246 1.999999999953283
    vertex -72.58203069595793 113.81347548370239 1.9999999999437064
  endloop
endfacet
facet normal 1.0 -1.3253842467974843e-13 -1.879977655157506e-15
  outer loop
    vertex -72.5820306959566 123.81347548370246 1.999999999953283
    vertex -72.58203069595787 113.81347548370425 -5.6277131103381e-11
    vertex -72.58203069595655 123.81347548370432 -4.671180479457853e-11
  endloop
endfacet
facet normal 0.7933533402912617 0.6087614290086859 1.9279159338662762e-15
  outer loop
    vertex -116.3475751525758 152.93847548370817 -1.4320847285809179e-11
    vertex -116.06946756302952 152.57603861663173 1.9999999999856801
    vertex -116.06946756302952 152.57603861663173 -1.4319789798378224e-11
  endloop
endfacet
facet normal 0.7933533402912617 0.6087614290086859 1.9279159338662762e-15
  outer loop
    vertex -116.06946756302952 152.57603861663173 1.9999999999856801
    vertex -116.3475751525758 152.93847548370817 -1.4320847285809179e-11
    vertex -116.3475751525758 152.93847548370817 1.999999999985679
  endloop
endfacet
facet normal -1.0 -2.5943691639420455e-13 -2.2559731860307463e-13
  outer loop
    vertex -54.58203069595179 166.81347548369922 1.999999999993923
    vertex -54.58203069595191 168.81347548369837 0.9999999999932482
    vertex -54.58203069595137 166.81347548369837 0.9999999999914942
  endloop
endfacet
facet normal -1.0 -2.5943691639420455e-13 -2.2559731860307463e-13
  outer loop
    vertex -54.58203069595191 168.81347548369837 0.9999999999932482
    vertex -54.58203069595179 166.81347548369922 1.999999999993923
    vertex -54.58203069595228 168.81347548369922 1.999999999995759
  endloop
endfacet
facet normal -0.38268343236511104 0.9238795325112781 -1.2080099182948711e-15
  outer loop
    vertex -114.37909736702368 152.12310528770232 1.9999999999856846
    vertex -113.9570306959531 152.29793102708544 -1.4314502361223446e-11
    vertex -114.37909736702368 152.12310528770232 -1.4315207352844082e-11
  endloop
endfacet
facet normal -0.38268343236511104 0.9238795325112781 -1.2080099182948711e-15
  outer loop
    vertex -113.9570306959531 152.29793102708544 -1.4314502361223446e-11
    vertex -114.37909736702368 152.12310528770232 1.9999999999856846
    vertex -113.9570306959531 152.29793102708544 1.9999999999856855
  endloop
endfacet
facet normal -0.9238795325112708 -0.3826834323651284 -2.319610726220569e-15
  outer loop
    vertex -113.31648623933035 154.68847548370815 1.9999999999856868
    vertex -113.14166049994724 154.26640881263756 -1.4312739882171854e-11
    vertex -113.14166049994724 154.26640881263756 1.9999999999856872
  endloop
endfacet
facet normal -0.9238795325112708 -0.3826834323651284 -2.319610726220569e-15
  outer loop
    vertex -113.14166049994724 154.26640881263756 -1.4312739882171854e-11
    vertex -113.31648623933035 154.68847548370815 1.9999999999856868
    vertex -113.31648623933035 154.68847548370815 -1.4313092377982173e-11
  endloop
endfacet
facet normal 0.9914448613738116 0.13052619222004277 2.5532278809210817e-15
  outer loop
    vertex -116.58203069595304 153.81347548370815 -1.4321552277429816e-11
    vertex -116.52240089195891 153.36054215477876 1.9999999999856786
    vertex -116.52240089195891 153.36054215477876 -1.4321199781619497e-11
  endloop
endfacet
facet normal 0.9914448613738116 0.13052619222004277 2.5532278809210817e-15
  outer loop
    vertex -116.52240089195891 153.36054215477876 1.9999999999856786
    vertex -116.58203069595304 153.81347548370815 -1.4321552277429816e-11
    vertex -116.58203069595304 153.81347548370815 1.9999999999856783
  endloop
endfacet
facet normal -0.3826834323650689 -0.9238795325112956 -7.86020469256723e-16
  outer loop
    vertex -113.9570306959531 155.3290199403309 -1.4315207352844082e-11
    vertex -114.37909736702368 155.503845679714 1.9999999999856837
    vertex -114.37909736702368 155.503845679714 -1.4316264840275039e-11
  endloop
endfacet
facet normal -0.3826834323650689 -0.9238795325112956 -7.86020469256723e-16
  outer loop
    vertex -114.37909736702368 155.503845679714 1.9999999999856837
    vertex -113.9570306959531 155.3290199403309 -1.4315207352844082e-11
    vertex -113.9570306959531 155.3290199403309 1.9999999999856846
  endloop
endfacet
facet normal -0.6087614290086932 0.7933533402912564 -1.7672074116642305e-15
  outer loop
    vertex -113.9570306959531 152.29793102708544 1.9999999999856855
    vertex -113.59459382887663 152.57603861663173 -1.431344487379249e-11
    vertex -113.9570306959531 152.29793102708544 -1.4314502361223446e-11
  endloop
endfacet
facet normal -0.6087614290086932 0.7933533402912564 -1.7672074116642305e-15
  outer loop
    vertex -113.59459382887663 152.57603861663173 -1.431344487379249e-11
    vertex -113.9570306959531 152.29793102708544 1.9999999999856855
    vertex -113.59459382887663 152.57603861663173 1.9999999999856863
  endloop
endfacet
facet normal -1.0533404214219279e-13 -8.882894420025889e-13 1.0
  outer loop
    vertex -54.58203069595137 166.81347548369837 0.9999999999914942
    vertex -70.58203069595133 168.81347548369757 0.9999999999914237
    vertex -70.5820306959515 166.81347548369752 0.9999999999896245
  endloop
endfacet
facet normal -1.0533404214219279e-13 -8.882894420025889e-13 1.0
  outer loop
    vertex -70.58203069595133 168.81347548369757 0.9999999999914237
    vertex -54.58203069595137 166.81347548369837 0.9999999999914942
    vertex -54.58203069595191 168.81347548369837 0.9999999999932482
  endloop
endfacet
facet normal -0.9914448613738116 0.13052619222004277 -2.6128467749453367e-15
  outer loop
    vertex -113.08203069595311 153.81347548370815 1.9999999999856874
    vertex -113.14166049994724 153.36054215477876 -1.4312387386361535e-11
    vertex -113.14166049994724 153.36054215477876 1.9999999999856874
  endloop
endfacet
facet normal -0.9914448613738116 0.13052619222004277 -2.6128467749453367e-15
  outer loop
    vertex -113.14166049994724 153.36054215477876 -1.4312387386361535e-11
    vertex -113.08203069595311 153.81347548370815 1.9999999999856874
    vertex -113.08203069595311 153.81347548370815 -1.4312387386361535e-11
  endloop
endfacet
facet normal -0.7933533402912617 0.6087614290086859 -2.2059726403772476e-15
  outer loop
    vertex -113.31648623933035 152.93847548370817 1.9999999999856872
    vertex -113.59459382887663 152.57603861663173 -1.431344487379249e-11
    vertex -113.59459382887663 152.57603861663173 1.9999999999856863
  endloop
endfacet
facet normal -0.7933533402912617 0.6087614290086859 -2.2059726403772476e-15
  outer loop
    vertex -113.59459382887663 152.57603861663173 -1.431344487379249e-11
    vertex -113.31648623933035 152.93847548370817 1.9999999999856872
    vertex -113.31648623933035 152.93847548370817 -1.4312739882171854e-11
  endloop
endfacet
facet normal -0.9238795325112781 0.38268343236511104 -2.4944044791905077e-15
  outer loop
    vertex -113.14166049994724 153.36054215477876 1.9999999999856874
    vertex -113.31648623933035 152.93847548370817 -1.4312739882171854e-11
    vertex -113.31648623933035 152.93847548370817 1.9999999999856872
  endloop
endfacet
facet normal -0.9238795325112781 0.38268343236511104 -2.4944044791905077e-15
  outer loop
    vertex -113.31648623933035 152.93847548370817 -1.4312739882171854e-11
    vertex -113.14166049994724 153.36054215477876 1.9999999999856874
    vertex -113.14166049994724 153.36054215477876 -1.4312387386361535e-11
  endloop
endfacet
facet normal -0.7933533402912617 -0.6087614290086859 -1.9279159338662762e-15
  outer loop
    vertex -113.59459382887663 155.05091235078459 1.9999999999856857
    vertex -113.31648623933035 154.68847548370815 -1.4313092377982173e-11
    vertex -113.31648623933035 154.68847548370815 1.9999999999856868
  endloop
endfacet
facet normal -0.7933533402912617 -0.6087614290086859 -1.9279159338662762e-15
  outer loop
    vertex -113.31648623933035 154.68847548370815 -1.4313092377982173e-11
    vertex -113.59459382887663 155.05091235078459 1.9999999999856857
    vertex -113.59459382887663 155.05091235078459 -1.4314149865413128e-11
  endloop
endfacet
facet normal 0.38268343236511104 0.9238795325112781 7.860204692568368e-16
  outer loop
    vertex -115.70703069595305 152.29793102708544 1.9999999999856812
    vertex -115.28496402488246 152.12310528770232 -1.4317674823516313e-11
    vertex -115.70703069595305 152.29793102708544 -1.4318732310947267e-11
  endloop
endfacet
facet normal 0.38268343236511104 0.9238795325112781 7.860204692568368e-16
  outer loop
    vertex -115.28496402488246 152.12310528770232 -1.4317674823516313e-11
    vertex -115.70703069595305 152.29793102708544 1.9999999999856812
    vertex -115.28496402488246 152.12310528770232 1.9999999999856821
  endloop
endfacet
facet normal 0.9238795325112781 0.38268343236511104 2.319610726220592e-15
  outer loop
    vertex -116.52240089195891 153.36054215477876 -1.4321199781619497e-11
    vertex -116.3475751525758 152.93847548370817 1.999999999985679
    vertex -116.3475751525758 152.93847548370817 -1.4320847285809179e-11
  endloop
endfacet
facet normal 0.9238795325112781 0.38268343236511104 2.319610726220592e-15
  outer loop
    vertex -116.3475751525758 152.93847548370817 1.999999999985679
    vertex -116.52240089195891 153.36054215477876 -1.4321199781619497e-11
    vertex -116.52240089195891 153.36054215477876 1.9999999999856786
  endloop
endfacet
facet normal 0.6087614290086932 0.7933533402912564 1.4048368566504417e-15
  outer loop
    vertex -116.06946756302952 152.57603861663173 1.9999999999856801
    vertex -115.70703069595305 152.29793102708544 -1.4318732310947267e-11
    vertex -116.06946756302952 152.57603861663173 -1.4319789798378224e-11
  endloop
endfacet
facet normal 0.6087614290086932 0.7933533402912564 1.4048368566504417e-15
  outer loop
    vertex -115.70703069595305 152.29793102708544 -1.4318732310947267e-11
    vertex -116.06946756302952 152.57603861663173 1.9999999999856801
    vertex -115.70703069595305 152.29793102708544 1.9999999999856812
  endloop
endfacet
facet normal 9.926282018568481e-14 1.0 -4.511946372062375e-14
  outer loop
    vertex -115.58203069595211 165.81347548370366 1.9999999999994127
    vertex -108.58203069595181 165.8134754837018 -9.848262945885002e-12
    vertex -115.58203069595189 165.81347548370243 -1.0305097516057348e-11
  endloop
endfacet
facet normal 9.926282018568481e-14 1.0 -4.511946372062375e-14
  outer loop
    vertex -108.58203069595181 165.8134754837018 -9.848262945885002e-12
    vertex -115.58203069595211 165.81347548370366 1.9999999999994127
    vertex -108.5820306959521 165.81347548370277 1.9999999999992124
  endloop
endfacet
facet normal -1.0 1.3535839116229417e-13 -7.51991062010484e-14
  outer loop
    vertex -108.5820306959521 165.81347548370277 1.9999999999992124
    vertex -108.5820306959514 168.81347548370186 -1.0042840633180807e-11
    vertex -108.58203069595181 165.8134754837018 -9.848262945885002e-12
  endloop
endfacet
facet normal -1.0 1.3535839116229417e-13 -7.51991062010484e-14
  outer loop
    vertex -108.5820306959514 168.81347548370186 -1.0042840633180807e-11
    vertex -108.5820306959521 165.81347548370277 1.9999999999992124
    vertex -108.5820306959517 168.81347548370277 1.999999999999077
  endloop
endfacet
facet normal 1.0 -1.2031856992204182e-13 6.015928496083676e-14
  outer loop
    vertex -115.5820306959515 168.8134754837024 -1.046301563908003e-11
    vertex -115.58203069595211 165.81347548370366 1.9999999999994127
    vertex -115.58203069595189 165.81347548370243 -1.0305097516057348e-11
  endloop
endfacet
facet normal 1.0 -1.2031856992204182e-13 6.015928496083676e-14
  outer loop
    vertex -115.58203069595211 165.81347548370366 1.9999999999994127
    vertex -115.5820306959515 168.8134754837024 -1.046301563908003e-11
    vertex -115.58203069595177 168.81347548370363 1.9999999999992717
  endloop
endfacet
facet normal -0.9914448613738124 -0.13052619222003636 -2.5532278809210857e-15
  outer loop
    vertex -113.14166049994724 154.26640881263756 1.9999999999856872
    vertex -113.08203069595311 153.81347548370815 -1.4312387386361535e-11
    vertex -113.08203069595311 153.81347548370815 1.9999999999856874
  endloop
endfacet
facet normal -0.9914448613738124 -0.13052619222003636 -2.5532278809210857e-15
  outer loop
    vertex -113.08203069595311 153.81347548370815 -1.4312387386361535e-11
    vertex -113.14166049994724 154.26640881263756 1.9999999999856872
    vertex -113.14166049994724 154.26640881263756 -1.4312739882171854e-11
  endloop
endfacet
facet normal 1.0 -1.0853737661716596e-13 -1.1279865930292936e-14
  outer loop
    vertex -46.58203069595661 123.8134754837017 -4.771665285119297e-11
    vertex -46.58203069595176 168.8134754836999 1.999999999995333
    vertex -46.58203069595663 123.81347548369986 1.9999999999522948
  endloop
endfacet
facet normal 1.0 -1.0853737661716596e-13 -1.1279865930292936e-14
  outer loop
    vertex -46.58203069595176 168.8134754836999 1.999999999995333
    vertex -46.58203069595661 123.8134754837017 -4.771665285119297e-11
    vertex -46.582030695951715 168.81347548370172 -4.59936533303562e-12
  endloop
endfacet
facet normal -0.6087614290087243 -0.7933533402912326 -1.4048368566505283e-15
  outer loop
    vertex -113.59459382887663 155.05091235078459 -1.4314149865413128e-11
    vertex -113.9570306959531 155.3290199403309 1.9999999999856846
    vertex -113.9570306959531 155.3290199403309 -1.4315207352844082e-11
  endloop
endfacet
facet normal -0.6087614290087243 -0.7933533402912326 -1.4048368566505283e-15
  outer loop
    vertex -113.9570306959531 155.3290199403309 1.9999999999856846
    vertex -113.59459382887663 155.05091235078459 -1.4314149865413128e-11
    vertex -113.59459382887663 155.05091235078459 1.9999999999856857
  endloop
endfacet
facet normal -0.13052619222004277 0.9914448613738116 -5.664885453243035e-16
  outer loop
    vertex -114.83203069595307 152.0634754837082 1.9999999999856828
    vertex -114.37909736702368 152.12310528770232 -1.4315207352844082e-11
    vertex -114.83203069595307 152.0634754837082 -1.4316969831895675e-11
  endloop
endfacet
facet normal -0.13052619222004277 0.9914448613738116 -5.664885453243035e-16
  outer loop
    vertex -114.37909736702368 152.12310528770232 -1.4315207352844082e-11
    vertex -114.83203069595307 152.0634754837082 1.9999999999856828
    vertex -114.37909736702368 152.12310528770232 1.9999999999856846
  endloop
endfacet
facet normal -1.0769079548454019e-13 -1.0 -9.775883806166098e-13
  outer loop
    vertex -72.58203069595793 113.81347548370239 1.9999999999437064
    vertex -128.58203069595746 113.81347548371042 -5.252751567041946e-11
    vertex -72.58203069595787 113.81347548370425 -5.6277131103381e-11
  endloop
endfacet
facet normal -1.0769079548454019e-13 -1.0 -9.775883806166098e-13
  outer loop
    vertex -128.58203069595746 113.81347548371042 -5.252751567041946e-11
    vertex -72.58203069595793 113.81347548370239 1.9999999999437064
    vertex -128.5820306959575 113.81347548370836 1.9999999999474558
  endloop
endfacet
facet normal -5.175467897387159e-14 1.0 -6.542322239471135e-13
  outer loop
    vertex -70.58203069595159 166.81347548369817 1.9999999999983478
    vertex -54.58203069595137 166.81347548369837 0.9999999999914942
    vertex -70.5820306959515 166.81347548369752 0.9999999999896245
  endloop
endfacet
facet normal -5.175467897387159e-14 1.0 -6.542322239471135e-13
  outer loop
    vertex -54.58203069595137 166.81347548369837 0.9999999999914942
    vertex -70.58203069595159 166.81347548369817 1.9999999999983478
    vertex -54.58203069595179 166.81347548369922 1.999999999993923
  endloop
endfacet
facet normal 0.13052619222004277 0.9914448613738116 1.1363808584341015e-16
  outer loop
    vertex -115.28496402488246 152.12310528770232 1.9999999999856821
    vertex -114.83203069595307 152.0634754837082 -1.4316969831895675e-11
    vertex -115.28496402488246 152.12310528770232 -1.4317674823516313e-11
  endloop
endfacet
facet normal 0.13052619222004277 0.9914448613738116 1.1363808584341015e-16
  outer loop
    vertex -114.83203069595307 152.0634754837082 -1.4316969831895675e-11
    vertex -115.28496402488246 152.12310528770232 1.9999999999856821
    vertex -114.83203069595307 152.0634754837082 1.9999999999856828
  endloop
endfacet
facet normal -0.13052619222004277 -0.9914448613738116 -1.1363808584341015e-16
  outer loop
    vertex -114.37909736702368 155.503845679714 -1.4316264840275039e-11
    vertex -114.83203069595307 155.56347548370812 1.9999999999856828
    vertex -114.83203069595307 155.56347548370812 -1.4316969831895675e-11
  endloop
endfacet
facet normal -0.13052619222004277 -0.9914448613738116 -1.1363808584341015e-16
  outer loop
    vertex -114.83203069595307 155.56347548370812 1.9999999999856828
    vertex -114.37909736702368 155.503845679714 -1.4316264840275039e-11
    vertex -114.37909736702368 155.503845679714 1.9999999999856837
  endloop
endfacet
facet normal 0.13052619222004277 -0.9914448613738116 5.664885453243035e-16
  outer loop
    vertex -114.83203069595307 155.56347548370812 -1.4316969831895675e-11
    vertex -115.28496402488246 155.503845679714 1.9999999999856812
    vertex -115.28496402488246 155.503845679714 -1.4318732310947267e-11
  endloop
endfacet
facet normal 0.13052619222004277 -0.9914448613738116 5.664885453243035e-16
  outer loop
    vertex -115.28496402488246 155.503845679714 1.9999999999856812
    vertex -114.83203069595307 155.56347548370812 -1.4316969831895675e-11
    vertex -114.83203069595307 155.56347548370812 1.9999999999856828
  endloop
endfacet
facet normal 0.3826834323650689 -0.9238795325112956 1.2080099182947654e-15
  outer loop
    vertex -115.28496402488246 155.503845679714 -1.4318732310947267e-11
    vertex -115.70703069595305 155.3290199403309 1.9999999999856803
    vertex -115.70703069595305 155.3290199403309 -1.4319437302567905e-11
  endloop
endfacet
facet normal 0.3826834323650689 -0.9238795325112956 1.2080099182947654e-15
  outer loop
    vertex -115.70703069595305 155.3290199403309 1.9999999999856803
    vertex -115.28496402488246 155.503845679714 -1.4318732310947267e-11
    vertex -115.28496402488246 155.503845679714 1.9999999999856812
  endloop
endfacet
facet normal 0.6087614290087243 -0.7933533402912326 1.767207411664306e-15
  outer loop
    vertex -115.70703069595305 155.3290199403309 -1.4319437302567905e-11
    vertex -116.06946756302952 155.05091235078459 1.9999999999856795
    vertex -116.06946756302952 155.05091235078459 -1.432049478999886e-11
  endloop
endfacet
facet normal 0.6087614290087243 -0.7933533402912326 1.767207411664306e-15
  outer loop
    vertex -116.06946756302952 155.05091235078459 1.9999999999856795
    vertex -115.70703069595305 155.3290199403309 -1.4319437302567905e-11
    vertex -115.70703069595305 155.3290199403309 1.9999999999856803
  endloop
endfacet
facet normal 0.7933533402912617 -0.6087614290086859 2.2059726403772476e-15
  outer loop
    vertex -116.06946756302952 155.05091235078459 -1.432049478999886e-11
    vertex -116.3475751525758 154.68847548370815 1.9999999999856786
    vertex -116.3475751525758 154.68847548370815 -1.4321199781619497e-11
  endloop
endfacet
facet normal 0.7933533402912617 -0.6087614290086859 2.2059726403772476e-15
  outer loop
    vertex -116.3475751525758 154.68847548370815 1.9999999999856786
    vertex -116.06946756302952 155.05091235078459 -1.432049478999886e-11
    vertex -116.06946756302952 155.05091235078459 1.9999999999856795
  endloop
endfacet
facet normal 0.9238795325112708 -0.3826834323651284 2.4944044791904923e-15
  outer loop
    vertex -116.3475751525758 154.68847548370815 -1.4321199781619497e-11
    vertex -116.52240089195891 154.26640881263756 1.9999999999856783
    vertex -116.52240089195891 154.26640881263756 -1.4321552277429816e-11
  endloop
endfacet
facet normal 0.9238795325112708 -0.3826834323651284 2.4944044791904923e-15
  outer loop
    vertex -116.52240089195891 154.26640881263756 1.9999999999856783
    vertex -116.3475751525758 154.68847548370815 -1.4321199781619497e-11
    vertex -116.3475751525758 154.68847548370815 1.9999999999856786
  endloop
endfacet
facet normal 0.9914448613738124 -0.13052619222003636 2.612846774945338e-15
  outer loop
    vertex -116.52240089195891 154.26640881263756 -1.4321552277429816e-11
    vertex -116.58203069595304 153.81347548370815 1.9999999999856783
    vertex -116.58203069595304 153.81347548370815 -1.4321552277429816e-11
  endloop
endfacet
facet normal 0.9914448613738124 -0.13052619222003636 2.612846774945338e-15
  outer loop
    vertex -116.58203069595304 153.81347548370815 1.9999999999856783
    vertex -116.52240089195891 154.26640881263756 -1.4321552277429816e-11
    vertex -116.52240089195891 154.26640881263756 1.9999999999856783
  endloop
endfacet
facet normal 6.825756514731488e-14 -9.784628379771365e-13 1.0
  outer loop
    vertex -128.5820306959575 113.81347548370836 1.9999999999474558
    vertex -116.06946756302952 152.57603861663173 1.9999999999856801
    vertex -128.58203069595135 168.81347548370837 2.0000000000000426
  endloop
endfacet
facet normal 6.825756514731488e-14 -9.784628379771365e-13 1.0
  outer loop
    vertex -116.06946756302952 152.57603861663173 1.9999999999856801
    vertex -128.5820306959575 113.81347548370836 1.9999999999474558
    vertex -72.58203069595793 113.81347548370239 1.9999999999437064
  endloop
endfacet
facet normal 6.825756514731488e-14 -9.784628379771365e-13 1.0
  outer loop
    vertex -128.58203069595135 168.81347548370837 2.0000000000000426
    vertex -116.06946756302952 152.57603861663173 1.9999999999856801
    vertex -116.3475751525758 152.93847548370817 1.999999999985679
  endloop
endfacet
facet normal 6.825756514731488e-14 -9.784628379771365e-13 1.0
  outer loop
    vertex -128.58203069595135 168.81347548370837 2.0000000000000426
    vertex -116.3475751525758 152.93847548370817 1.999999999985679
    vertex -116.52240089195891 153.36054215477876 1.9999999999856786
  endloop
endfacet
facet normal 6.825756514731488e-14 -9.784628379771365e-13 1.0
  outer loop
    vertex -128.58203069595135 168.81347548370837 2.0000000000000426
    vertex -116.52240089195891 153.36054215477876 1.9999999999856786
    vertex -116.58203069595304 153.81347548370815 1.9999999999856783
  endloop
endfacet
facet normal 6.825756514731488e-14 -9.784628379771365e-13 1.0
  outer loop
    vertex -116.06946756302952 152.57603861663173 1.9999999999856801
    vertex -72.58203069595793 113.81347548370239 1.9999999999437064
    vertex -115.70703069595305 152.29793102708544 1.9999999999856812
  endloop
endfacet
facet normal 6.825756514731488e-14 -9.784628379771365e-13 1.0
  outer loop
    vertex -115.70703069595305 152.29793102708544 1.9999999999856812
    vertex -72.58203069595793 113.81347548370239 1.9999999999437064
    vertex -115.28496402488246 152.12310528770232 1.9999999999856821
  endloop
endfacet
facet normal 6.825756514731488e-14 -9.784628379771365e-13 1.0
  outer loop
    vertex -115.28496402488246 152.12310528770232 1.9999999999856821
    vertex -72.58203069595793 113.81347548370239 1.9999999999437064
    vertex -114.83203069595307 152.0634754837082 1.9999999999856828
  endloop
endfacet
facet normal 6.825756514731488e-14 -9.784628379771365e-13 1.0
  outer loop
    vertex -114.83203069595307 152.0634754837082 1.9999999999856828
    vertex -72.58203069595793 113.81347548370239 1.9999999999437064
    vertex -114.37909736702368 152.12310528770232 1.9999999999856846
  endloop
endfacet
facet normal 6.825756514731488e-14 -9.784628379771365e-13 1.0
  outer loop
    vertex -114.37909736702368 152.12310528770232 1.9999999999856846
    vertex -72.58203069595793 113.81347548370239 1.9999999999437064
    vertex -113.9570306959531 152.29793102708544 1.9999999999856855
  endloop
endfacet
facet normal 6.825756514731488e-14 -9.784628379771365e-13 1.0
  outer loop
    vertex -113.9570306959531 152.29793102708544 1.9999999999856855
    vertex -72.58203069595793 113.81347548370239 1.9999999999437064
    vertex -113.59459382887663 152.57603861663173 1.9999999999856863
  endloop
endfacet
facet normal 6.825756514731488e-14 -9.784628379771365e-13 1.0
  outer loop
    vertex -113.59459382887663 152.57603861663173 1.9999999999856863
    vertex -72.58203069595793 113.81347548370239 1.9999999999437064
    vertex -113.31648623933035 152.93847548370817 1.9999999999856872
  endloop
endfacet
facet normal 6.825756514731488e-14 -9.784628379771365e-13 1.0
  outer loop
    vertex -113.31648623933035 152.93847548370817 1.9999999999856872
    vertex -72.58203069595793 113.81347548370239 1.9999999999437064
    vertex -113.14166049994724 153.36054215477876 1.9999999999856874
  endloop
endfacet
facet normal 6.825756514731488e-14 -9.784628379771365e-13 1.0
  outer loop
    vertex -113.14166049994724 153.36054215477876 1.9999999999856874
    vertex -72.58203069595793 113.81347548370239 1.9999999999437064
    vertex -113.08203069595311 153.81347548370815 1.9999999999856874
  endloop
endfacet
facet normal 6.825756514731488e-14 -9.784628379771365e-13 1.0
  outer loop
    vertex -113.08203069595311 153.81347548370815 1.9999999999856874
    vertex -72.58203069595793 113.81347548370239 1.9999999999437064
    vertex -108.5820306959521 165.81347548370277 1.9999999999992124
  endloop
endfacet
facet normal 6.825756514731488e-14 -9.784628379771365e-13 1.0
  outer loop
    vertex -108.5820306959521 165.81347548370277 1.9999999999992124
    vertex -72.58203069595793 113.81347548370239 1.9999999999437064
    vertex -108.5820306959517 168.81347548370277 1.999999999999077
  endloop
endfacet
facet normal 6.825756514731488e-14 -9.784628379771365e-13 1.0
  outer loop
    vertex -108.5820306959517 168.81347548370277 1.999999999999077
    vertex -72.58203069595793 113.81347548370239 1.9999999999437064
    vertex -72.5820306959566 123.81347548370246 1.999999999953283
  endloop
endfacet
facet normal 6.825756514731488e-14 -9.784628379771365e-13 1.0
  outer loop
    vertex -108.5820306959517 168.81347548370277 1.999999999999077
    vertex -72.5820306959566 123.81347548370246 1.999999999953283
    vertex -70.58203069595147 168.8134754836981 1.999999999996777
  endloop
endfacet
facet normal 6.825756514731488e-14 -9.784628379771365e-13 1.0
  outer loop
    vertex -70.58203069595147 168.8134754836981 1.999999999996777
    vertex -72.5820306959566 123.81347548370246 1.999999999953283
    vertex -70.58203069595159 166.81347548369817 1.9999999999983478
  endloop
endfacet
facet normal 6.825756514731488e-14 -9.784628379771365e-13 1.0
  outer loop
    vertex -115.28496402488246 155.503845679714 1.9999999999856812
    vertex -115.58203069595211 165.81347548370366 1.9999999999994127
    vertex -115.70703069595305 155.3290199403309 1.9999999999856803
  endloop
endfacet
facet normal 6.825756514731488e-14 -9.784628379771365e-13 1.0
  outer loop
    vertex -115.58203069595211 165.81347548370366 1.9999999999994127
    vertex -115.28496402488246 155.503845679714 1.9999999999856812
    vertex -108.5820306959521 165.81347548370277 1.9999999999992124
  endloop
endfacet
facet normal 6.825756514731488e-14 -9.784628379771365e-13 1.0
  outer loop
    vertex -108.5820306959521 165.81347548370277 1.9999999999992124
    vertex -115.28496402488246 155.503845679714 1.9999999999856812
    vertex -114.83203069595307 155.56347548370812 1.9999999999856828
  endloop
endfacet
facet normal 6.825756514731488e-14 -9.784628379771365e-13 1.0
  outer loop
    vertex -108.5820306959521 165.81347548370277 1.9999999999992124
    vertex -114.83203069595307 155.56347548370812 1.9999999999856828
    vertex -114.37909736702368 155.503845679714 1.9999999999856837
  endloop
endfacet
facet normal 6.825756514731488e-14 -9.784628379771365e-13 1.0
  outer loop
    vertex -108.5820306959521 165.81347548370277 1.9999999999992124
    vertex -114.37909736702368 155.503845679714 1.9999999999856837
    vertex -113.9570306959531 155.3290199403309 1.9999999999856846
  endloop
endfacet
facet normal 6.825756514731488e-14 -9.784628379771365e-13 1.0
  outer loop
    vertex -108.5820306959521 165.81347548370277 1.9999999999992124
    vertex -113.9570306959531 155.3290199403309 1.9999999999856846
    vertex -113.59459382887663 155.05091235078459 1.9999999999856857
  endloop
endfacet
facet normal 6.825756514731488e-14 -9.784628379771365e-13 1.0
  outer loop
    vertex -108.5820306959521 165.81347548370277 1.9999999999992124
    vertex -113.59459382887663 155.05091235078459 1.9999999999856857
    vertex -113.31648623933035 154.68847548370815 1.9999999999856868
  endloop
endfacet
facet normal 6.825756514731488e-14 -9.784628379771365e-13 1.0
  outer loop
    vertex -108.5820306959521 165.81347548370277 1.9999999999992124
    vertex -113.31648623933035 154.68847548370815 1.9999999999856868
    vertex -113.14166049994724 154.26640881263756 1.9999999999856872
  endloop
endfacet
facet normal 6.825756514731488e-14 -9.784628379771365e-13 1.0
  outer loop
    vertex -108.5820306959521 165.81347548370277 1.9999999999992124
    vertex -113.14166049994724 154.26640881263756 1.9999999999856872
    vertex -113.08203069595311 153.81347548370815 1.9999999999856874
  endloop
endfacet
facet normal 6.825756514731488e-14 -9.784628379771365e-13 1.0
  outer loop
    vertex -116.58203069595304 153.81347548370815 1.9999999999856783
    vertex -115.58203069595177 168.81347548370363 1.9999999999992717
    vertex -128.58203069595135 168.81347548370837 2.0000000000000426
  endloop
endfacet
facet normal 6.825756514731488e-14 -9.784628379771365e-13 1.0
  outer loop
    vertex -115.58203069595177 168.81347548370363 1.9999999999992717
    vertex -116.58203069595304 153.81347548370815 1.9999999999856783
    vertex -116.52240089195891 154.26640881263756 1.9999999999856783
  endloop
endfacet
facet normal 6.825756514731488e-14 -9.784628379771365e-13 1.0
  outer loop
    vertex -115.58203069595177 168.81347548370363 1.9999999999992717
    vertex -116.52240089195891 154.26640881263756 1.9999999999856783
    vertex -116.3475751525758 154.68847548370815 1.9999999999856786
  endloop
endfacet
facet normal 6.825756514731488e-14 -9.784628379771365e-13 1.0
  outer loop
    vertex -115.58203069595177 168.81347548370363 1.9999999999992717
    vertex -116.3475751525758 154.68847548370815 1.9999999999856786
    vertex -116.06946756302952 155.05091235078459 1.9999999999856795
  endloop
endfacet
facet normal 6.825756514731488e-14 -9.784628379771365e-13 1.0
  outer loop
    vertex -115.58203069595177 168.81347548370363 1.9999999999992717
    vertex -116.06946756302952 155.05091235078459 1.9999999999856795
    vertex -115.70703069595305 155.3290199403309 1.9999999999856803
  endloop
endfacet
facet normal 6.825756514731488e-14 -9.784628379771365e-13 1.0
  outer loop
    vertex -115.58203069595177 168.81347548370363 1.9999999999992717
    vertex -115.70703069595305 155.3290199403309 1.9999999999856803
    vertex -115.58203069595211 165.81347548370366 1.9999999999994127
  endloop
endfacet
facet normal 6.825756514731488e-14 -9.784628379771365e-13 1.0
  outer loop
    vertex -46.58203069595663 123.81347548369986 1.9999999999522948
    vertex -70.58203069595159 166.81347548369817 1.9999999999983478
    vertex -72.5820306959566 123.81347548370246 1.999999999953283
  endloop
endfacet
facet normal 6.825756514731488e-14 -9.784628379771365e-13 1.0
  outer loop
    vertex -70.58203069595159 166.81347548369817 1.9999999999983478
    vertex -46.58203069595663 123.81347548369986 1.9999999999522948
    vertex -54.58203069595179 166.81347548369922 1.999999999993923
  endloop
endfacet
facet normal 6.825756514731488e-14 -9.784628379771365e-13 1.0
  outer loop
    vertex -54.58203069595179 166.81347548369922 1.999999999993923
    vertex -46.58203069595176 168.8134754836999 1.999999999995333
    vertex -54.58203069595228 168.81347548369922 1.999999999995759
  endloop
endfacet
facet normal 6.825756514731488e-14 -9.784628379771365e-13 1.0
  outer loop
    vertex -46.58203069595176 168.8134754836999 1.999999999995333
    vertex -54.58203069595179 166.81347548369922 1.999999999993923
    vertex -46.58203069595663 123.81347548369986 1.9999999999522948
  endloop
endfacet
facet normal 3.72797986451849e-14 1.0 8.317495096599097e-13
  outer loop
    vertex -108.5820306959517 168.81347548370277 1.999999999999077
    vertex -46.582030695951715 168.81347548370172 -4.59936533303562e-12
    vertex -108.5820306959514 168.81347548370186 -1.0042840633180807e-11
  endloop
endfacet
facet normal 3.72797986451849e-14 1.0 8.317495096599097e-13
  outer loop
    vertex -46.582030695951715 168.81347548370172 -4.59936533303562e-12
    vertex -108.5820306959517 168.81347548370277 1.999999999999077
    vertex -70.58203069595133 168.81347548369757 0.9999999999914237
  endloop
endfacet
facet normal 3.72797986451849e-14 1.0 8.317495096599097e-13
  outer loop
    vertex -70.58203069595133 168.81347548369757 0.9999999999914237
    vertex -108.5820306959517 168.81347548370277 1.999999999999077
    vertex -70.58203069595147 168.8134754836981 1.999999999996777
  endloop
endfacet
facet normal 3.72797986451849e-14 1.0 8.317495096599097e-13
  outer loop
    vertex -46.582030695951715 168.81347548370172 -4.59936533303562e-12
    vertex -54.58203069595191 168.81347548369837 0.9999999999932482
    vertex -46.58203069595176 168.8134754836999 1.999999999995333
  endloop
endfacet
facet normal 3.72797986451849e-14 1.0 8.317495096599097e-13
  outer loop
    vertex -54.58203069595191 168.81347548369837 0.9999999999932482
    vertex -46.582030695951715 168.81347548370172 -4.59936533303562e-12
    vertex -70.58203069595133 168.81347548369757 0.9999999999914237
  endloop
endfacet
facet normal 3.72797986451849e-14 1.0 8.317495096599097e-13
  outer loop
    vertex -46.58203069595176 168.8134754836999 1.999999999995333
    vertex -54.58203069595191 168.81347548369837 0.9999999999932482
    vertex -54.58203069595228 168.81347548369922 1.999999999995759
  endloop
endfacet
facet normal 5.226337880991067e-13 1.0 4.662344584462963e-13
  outer loop
    vertex -128.58203069595135 168.81347548371042 2.2559731860608302e-14
    vertex -115.58203069595177 168.81347548370363 1.9999999999992717
    vertex -115.5820306959515 168.8134754837024 -1.046301563908003e-11
  endloop
endfacet
facet normal 5.226337880991067e-13 1.0 4.662344584462963e-13
  outer loop
    vertex -115.58203069595177 168.81347548370363 1.9999999999992717
    vertex -128.58203069595135 168.81347548371042 2.2559731860608302e-14
    vertex -128.58203069595135 168.81347548370837 2.0000000000000426
  endloop
endfacet
facet normal 1.0 -1.1177321694461493e-13 -1.1279865930304151e-14
  outer loop
    vertex -128.58203069595746 113.81347548371042 -5.252751567041946e-11
    vertex -128.58203069595135 168.81347548370837 2.0000000000000426
    vertex -128.5820306959575 113.81347548370836 1.9999999999474558
  endloop
endfacet
facet normal 1.0 -1.1177321694461493e-13 -1.1279865930304151e-14
  outer loop
    vertex -128.58203069595135 168.81347548370837 2.0000000000000426
    vertex -128.58203069595746 113.81347548371042 -5.252751567041946e-11
    vertex -128.58203069595135 168.81347548371042 2.2559731860608302e-14
  endloop
endfacet
facet normal 1.0 -7.331912854624262e-14 -5.639932965058162e-14
  outer loop
    vertex -70.58203069595133 168.81347548369757 0.9999999999914237
    vertex -70.58203069595159 166.81347548369817 1.9999999999983478
    vertex -70.5820306959515 166.81347548369752 0.9999999999896245
  endloop
endfacet
facet normal 1.0 -7.331912854624262e-14 -5.639932965058162e-14
  outer loop
    vertex -70.58203069595159 166.81347548369817 1.9999999999983478
    vertex -70.58203069595133 168.81347548369757 0.9999999999914237
    vertex -70.58203069595147 168.8134754836981 1.999999999996777
  endloop
endfacet
facet normal -1.8021087060075884e-14 8.738735754051353e-13 -1.0
  outer loop
    vertex -115.5820306959515 168.8134754837024 -1.046301563908003e-11
    vertex -116.58203069595304 153.81347548370815 -1.4321552277429816e-11
    vertex -128.58203069595135 168.81347548371042 2.2559731860608302e-14
  endloop
endfacet
facet normal -1.8021087060075884e-14 8.738735754051353e-13 -1.0
  outer loop
    vertex -116.58203069595304 153.81347548370815 -1.4321552277429816e-11
    vertex -115.5820306959515 168.8134754837024 -1.046301563908003e-11
    vertex -116.52240089195891 154.26640881263756 -1.4321552277429816e-11
  endloop
endfacet
facet normal -1.8021087060075884e-14 8.738735754051353e-13 -1.0
  outer loop
    vertex -116.52240089195891 154.26640881263756 -1.4321552277429816e-11
    vertex -115.5820306959515 168.8134754837024 -1.046301563908003e-11
    vertex -116.3475751525758 154.68847548370815 -1.4321199781619497e-11
  endloop
endfacet
facet normal -1.8021087060075884e-14 8.738735754051353e-13 -1.0
  outer loop
    vertex -116.3475751525758 154.68847548370815 -1.4321199781619497e-11
    vertex -115.5820306959515 168.8134754837024 -1.046301563908003e-11
    vertex -116.06946756302952 155.05091235078459 -1.432049478999886e-11
  endloop
endfacet
facet normal -1.8021087060075884e-14 8.738735754051353e-13 -1.0
  outer loop
    vertex -116.06946756302952 155.05091235078459 -1.432049478999886e-11
    vertex -115.5820306959515 168.8134754837024 -1.046301563908003e-11
    vertex -115.70703069595305 155.3290199403309 -1.4319437302567905e-11
  endloop
endfacet
facet normal -1.8021087060075884e-14 8.738735754051353e-13 -1.0
  outer loop
    vertex -115.70703069595305 155.3290199403309 -1.4319437302567905e-11
    vertex -115.5820306959515 168.8134754837024 -1.046301563908003e-11
    vertex -115.58203069595189 165.81347548370243 -1.0305097516057348e-11
  endloop
endfacet
facet normal -1.8021087060075884e-14 8.738735754051353e-13 -1.0
  outer loop
    vertex -115.58203069595189 165.81347548370243 -1.0305097516057348e-11
    vertex -115.28496402488246 155.503845679714 -1.4318732310947267e-11
    vertex -115.70703069595305 155.3290199403309 -1.4319437302567905e-11
  endloop
endfacet
facet normal -1.8021087060075884e-14 8.738735754051353e-13 -1.0
  outer loop
    vertex -115.28496402488246 155.503845679714 -1.4318732310947267e-11
    vertex -115.58203069595189 165.81347548370243 -1.0305097516057348e-11
    vertex -108.58203069595181 165.8134754837018 -9.848262945885002e-12
  endloop
endfacet
facet normal -1.8021087060075884e-14 8.738735754051353e-13 -1.0
  outer loop
    vertex -115.28496402488246 155.503845679714 -1.4318732310947267e-11
    vertex -108.58203069595181 165.8134754837018 -9.848262945885002e-12
    vertex -114.83203069595307 155.56347548370812 -1.4316969831895675e-11
  endloop
endfacet
facet normal -1.8021087060075884e-14 8.738735754051353e-13 -1.0
  outer loop
    vertex -114.83203069595307 155.56347548370812 -1.4316969831895675e-11
    vertex -108.58203069595181 165.8134754837018 -9.848262945885002e-12
    vertex -114.37909736702368 155.503845679714 -1.4316264840275039e-11
  endloop
endfacet
facet normal -1.8021087060075884e-14 8.738735754051353e-13 -1.0
  outer loop
    vertex -114.37909736702368 155.503845679714 -1.4316264840275039e-11
    vertex -108.58203069595181 165.8134754837018 -9.848262945885002e-12
    vertex -113.9570306959531 155.3290199403309 -1.4315207352844082e-11
  endloop
endfacet
facet normal -1.8021087060075884e-14 8.738735754051353e-13 -1.0
  outer loop
    vertex -113.9570306959531 155.3290199403309 -1.4315207352844082e-11
    vertex -108.58203069595181 165.8134754837018 -9.848262945885002e-12
    vertex -113.59459382887663 155.05091235078459 -1.4314149865413128e-11
  endloop
endfacet
facet normal -1.8021087060075884e-14 8.738735754051353e-13 -1.0
  outer loop
    vertex -113.59459382887663 155.05091235078459 -1.4314149865413128e-11
    vertex -108.58203069595181 165.8134754837018 -9.848262945885002e-12
    vertex -113.31648623933035 154.68847548370815 -1.4313092377982173e-11
  endloop
endfacet
facet normal -1.8021087060075884e-14 8.738735754051353e-13 -1.0
  outer loop
    vertex -113.31648623933035 154.68847548370815 -1.4313092377982173e-11
    vertex -108.58203069595181 165.8134754837018 -9.848262945885002e-12
    vertex -113.14166049994724 154.26640881263756 -1.4312739882171854e-11
  endloop
endfacet
facet normal -1.8021087060075884e-14 8.738735754051353e-13 -1.0
  outer loop
    vertex -113.14166049994724 154.26640881263756 -1.4312739882171854e-11
    vertex -108.58203069595181 165.8134754837018 -9.848262945885002e-12
    vertex -113.08203069595311 153.81347548370815 -1.4312387386361535e-11
  endloop
endfacet
facet normal -1.8021087060075884e-14 8.738735754051353e-13 -1.0
  outer loop
    vertex -128.58203069595746 113.81347548371042 -5.252751567041946e-11
    vertex -116.06946756302952 152.57603861663173 -1.4319789798378224e-11
    vertex -72.58203069595787 113.81347548370425 -5.6277131103381e-11
  endloop
endfacet
facet normal -1.8021087060075884e-14 8.738735754051353e-13 -1.0
  outer loop
    vertex -116.06946756302952 152.57603861663173 -1.4319789798378224e-11
    vertex -128.58203069595746 113.81347548371042 -5.252751567041946e-11
    vertex -128.58203069595135 168.81347548371042 2.2559731860608302e-14
  endloop
endfacet
facet normal -1.8021087060075884e-14 8.738735754051353e-13 -1.0
  outer loop
    vertex -116.06946756302952 152.57603861663173 -1.4319789798378224e-11
    vertex -128.58203069595135 168.81347548371042 2.2559731860608302e-14
    vertex -116.3475751525758 152.93847548370817 -1.4320847285809179e-11
  endloop
endfacet
facet normal -1.8021087060075884e-14 8.738735754051353e-13 -1.0
  outer loop
    vertex -116.3475751525758 152.93847548370817 -1.4320847285809179e-11
    vertex -128.58203069595135 168.81347548371042 2.2559731860608302e-14
    vertex -116.52240089195891 153.36054215477876 -1.4321199781619497e-11
  endloop
endfacet
facet normal -1.8021087060075884e-14 8.738735754051353e-13 -1.0
  outer loop
    vertex -116.52240089195891 153.36054215477876 -1.4321199781619497e-11
    vertex -128.58203069595135 168.81347548371042 2.2559731860608302e-14
    vertex -116.58203069595304 153.81347548370815 -1.4321552277429816e-11
  endloop
endfacet
facet normal -1.8021087060075884e-14 8.738735754051353e-13 -1.0
  outer loop
    vertex -72.58203069595787 113.81347548370425 -5.6277131103381e-11
    vertex -116.06946756302952 152.57603861663173 -1.4319789798378224e-11
    vertex -115.70703069595305 152.29793102708544 -1.4318732310947267e-11
  endloop
endfacet
facet normal -1.8021087060075884e-14 8.738735754051353e-13 -1.0
  outer loop
    vertex -72.58203069595787 113.81347548370425 -5.6277131103381e-11
    vertex -115.70703069595305 152.29793102708544 -1.4318732310947267e-11
    vertex -115.28496402488246 152.12310528770232 -1.4317674823516313e-11
  endloop
endfacet
facet normal -1.8021087060075884e-14 8.738735754051353e-13 -1.0
  outer loop
    vertex -72.58203069595787 113.81347548370425 -5.6277131103381e-11
    vertex -115.28496402488246 152.12310528770232 -1.4317674823516313e-11
    vertex -114.83203069595307 152.0634754837082 -1.4316969831895675e-11
  endloop
endfacet
facet normal -1.8021087060075884e-14 8.738735754051353e-13 -1.0
  outer loop
    vertex -72.58203069595787 113.81347548370425 -5.6277131103381e-11
    vertex -114.83203069595307 152.0634754837082 -1.4316969831895675e-11
    vertex -114.37909736702368 152.12310528770232 -1.4315207352844082e-11
  endloop
endfacet
facet normal -1.8021087060075884e-14 8.738735754051353e-13 -1.0
  outer loop
    vertex -72.58203069595787 113.81347548370425 -5.6277131103381e-11
    vertex -114.37909736702368 152.12310528770232 -1.4315207352844082e-11
    vertex -113.9570306959531 152.29793102708544 -1.4314502361223446e-11
  endloop
endfacet
facet normal -1.8021087060075884e-14 8.738735754051353e-13 -1.0
  outer loop
    vertex -72.58203069595787 113.81347548370425 -5.6277131103381e-11
    vertex -113.9570306959531 152.29793102708544 -1.4314502361223446e-11
    vertex -113.59459382887663 152.57603861663173 -1.431344487379249e-11
  endloop
endfacet
facet normal -1.8021087060075884e-14 8.738735754051353e-13 -1.0
  outer loop
    vertex -72.58203069595787 113.81347548370425 -5.6277131103381e-11
    vertex -113.59459382887663 152.57603861663173 -1.431344487379249e-11
    vertex -113.31648623933035 152.93847548370817 -1.4312739882171854e-11
  endloop
endfacet
facet normal -1.8021087060075884e-14 8.738735754051353e-13 -1.0
  outer loop
    vertex -72.58203069595787 113.81347548370425 -5.6277131103381e-11
    vertex -113.31648623933035 152.93847548370817 -1.4312739882171854e-11
    vertex -113.14166049994724 153.36054215477876 -1.4312387386361535e-11
  endloop
endfacet
facet normal -1.8021087060075884e-14 8.738735754051353e-13 -1.0
  outer loop
    vertex -72.58203069595787 113.81347548370425 -5.6277131103381e-11
    vertex -113.14166049994724 153.36054215477876 -1.4312387386361535e-11
    vertex -113.08203069595311 153.81347548370815 -1.4312387386361535e-11
  endloop
endfacet
facet normal -1.8021087060075884e-14 8.738735754051353e-13 -1.0
  outer loop
    vertex -72.58203069595787 113.81347548370425 -5.6277131103381e-11
    vertex -113.08203069595311 153.81347548370815 -1.4312387386361535e-11
    vertex -108.58203069595181 165.8134754837018 -9.848262945885002e-12
  endloop
endfacet
facet normal -1.8021087060075884e-14 8.738735754051353e-13 -1.0
  outer loop
    vertex -72.58203069595787 113.81347548370425 -5.6277131103381e-11
    vertex -108.58203069595181 165.8134754837018 -9.848262945885002e-12
    vertex -108.5820306959514 168.81347548370186 -1.0042840633180807e-11
  endloop
endfacet
facet normal -1.8021087060075884e-14 8.738735754051353e-13 -1.0
  outer loop
    vertex -72.58203069595787 113.81347548370425 -5.6277131103381e-11
    vertex -108.5820306959514 168.81347548370186 -1.0042840633180807e-11
    vertex -72.58203069595655 123.81347548370432 -4.671180479457853e-11
  endloop
endfacet
facet normal -1.8021087060075884e-14 8.738735754051353e-13 -1.0
  outer loop
    vertex -72.58203069595655 123.81347548370432 -4.671180479457853e-11
    vertex -108.5820306959514 168.81347548370186 -1.0042840633180807e-11
    vertex -46.582030695951715 168.81347548370172 -4.59936533303562e-12
  endloop
endfacet
facet normal -1.8021087060075884e-14 8.738735754051353e-13 -1.0
  outer loop
    vertex -72.58203069595655 123.81347548370432 -4.671180479457853e-11
    vertex -46.582030695951715 168.81347548370172 -4.59936533303562e-12
    vertex -46.58203069595661 123.8134754837017 -4.771665285119297e-11
  endloop
endfacet
endsolid Controller
