solid Controller
facet normal 7.472911178750758e-15 1.0 1.8799776550319287e-14
  outer loop
    vertex -252.69366311501446 146.78373955938298 1.9999999999949494
    vertex -170.69366311501466 146.78373955938235 1.1984857550827507e-14
    vertex -252.69366311501452 146.78373955938295 -5.050794967450163e-12
  endloop
endfacet
facet normal 7.472911178750758e-15 1.0 1.8799776550319287e-14
  outer loop
    vertex -170.69366311501466 146.78373955938235 1.1984857550827507e-14
    vertex -252.69366311501446 146.78373955938298 1.9999999999949494
    vertex -170.69366311501457 146.78373955938227 1.9999999999999554
  endloop
endfacet
facet normal 1.0 -1.4151104530603908e-14 -3.759955310064376e-15
  outer loop
    vertex -170.69366311501543 90.7837395593823 -1.0107229867865435e-12
    vertex -170.69366311501457 146.78373955938227 1.9999999999999554
    vertex -170.69366311501537 90.78373955938227 1.9999999999988933
  endloop
endfacet
facet normal 1.0 -1.4151104530603908e-14 -3.759955310064376e-15
  outer loop
    vertex -170.69366311501457 146.78373955938227 1.9999999999999554
    vertex -170.69366311501543 90.7837395593823 -1.0107229867865435e-12
    vertex -170.69366311501466 146.78373955938235 1.1984857550827507e-14
  endloop
endfacet
facet normal -1.0 4.511946372077945e-15 -1.6543803364282376e-13
  outer loop
    vertex -245.69366311501506 100.78373955938322 1.9999999999949871
    vertex -245.69366311501466 90.78373955938326 -4.838357492431555e-12
    vertex -245.69366311501514 90.78373955938322 1.9999999999948854
  endloop
endfacet
facet normal -1.0 4.511946372077945e-15 -1.6543803364282376e-13
  outer loop
    vertex -245.69366311501466 90.78373955938326 -4.838357492431555e-12
    vertex -245.69366311501506 100.78373955938322 1.9999999999949871
    vertex -245.69366311501466 100.78373955938326 -4.781958162780597e-12
  endloop
endfacet
facet normal -1.77255036045847e-14 -1.0 -1.8799776550321672e-14
  outer loop
    vertex -245.69366311501466 100.78373955938326 -4.781958162780597e-12
    vertex -252.69366311501483 100.78373955938333 1.999999999994265
    vertex -252.69366311501486 100.78373955938339 -5.673067571265733e-12
  endloop
endfacet
facet normal -1.77255036045847e-14 -1.0 -1.8799776550321672e-14
  outer loop
    vertex -252.69366311501483 100.78373955938333 1.999999999994265
    vertex -245.69366311501466 100.78373955938326 -4.781958162780597e-12
    vertex -245.69366311501506 100.78373955938322 1.9999999999949871
  endloop
endfacet
facet normal -1.0 8.021237994802981e-15 9.157805414792406e-29
  outer loop
    vertex -252.69366311501446 146.78373955938298 1.9999999999949494
    vertex -252.69366311501486 100.78373955938339 -5.673067571265733e-12
    vertex -252.69366311501483 100.78373955938333 1.999999999994265
  endloop
endfacet
facet normal -1.0 8.021237994802981e-15 9.157805414792406e-29
  outer loop
    vertex -252.69366311501486 100.78373955938339 -5.673067571265733e-12
    vertex -252.69366311501446 146.78373955938298 1.9999999999949494
    vertex -252.69366311501452 146.78373955938295 -5.050794967450163e-12
  endloop
endfacet
facet normal -1.2902312399601888e-14 -1.0 -1.6919798895289557e-14
  outer loop
    vertex -170.69366311501543 90.7837395593823 -1.0107229867865435e-12
    vertex -245.69366311501514 90.78373955938322 1.9999999999948854
    vertex -245.69366311501466 90.78373955938326 -4.838357492431555e-12
  endloop
endfacet
facet normal -1.2902312399601888e-14 -1.0 -1.6919798895289557e-14
  outer loop
    vertex -245.69366311501514 90.78373955938322 1.9999999999948854
    vertex -170.69366311501543 90.7837395593823 -1.0107229867865435e-12
    vertex -170.69366311501537 90.78373955938227 1.9999999999988933
  endloop
endfacet
facet normal 5.912766434030445e-14 1.112332692212255e-14 -1.0
  outer loop
    vertex -252.69366311501452 146.78373955938295 -5.050794967450163e-12
    vertex -245.69366311501466 100.78373955938326 -4.781958162780597e-12
    vertex -252.69366311501486 100.78373955938339 -5.673067571265733e-12
  endloop
endfacet
facet normal 5.912766434030445e-14 1.112332692212255e-14 -1.0
  outer loop
    vertex -245.69366311501466 100.78373955938326 -4.781958162780597e-12
    vertex -252.69366311501452 146.78373955938295 -5.050794967450163e-12
    vertex -170.69366311501466 146.78373955938235 1.1984857550827507e-14
  endloop
endfacet
facet normal 5.912766434030445e-14 1.112332692212255e-14 -1.0
  outer loop
    vertex -245.69366311501466 100.78373955938326 -4.781958162780597e-12
    vertex -170.69366311501466 146.78373955938235 1.1984857550827507e-14
    vertex -245.69366311501466 90.78373955938326 -4.838357492431555e-12
  endloop
endfacet
facet normal 5.912766434030445e-14 1.112332692212255e-14 -1.0
  outer loop
    vertex -245.69366311501466 90.78373955938326 -4.838357492431555e-12
    vertex -170.69366311501466 146.78373955938235 1.1984857550827507e-14
    vertex -170.69366311501543 90.7837395593823 -1.0107229867865435e-12
  endloop
endfacet
facet normal -5.95481151294197e-14 -1.3835667775956947e-14 1.0
  outer loop
    vertex -170.69366311501537 90.78373955938227 1.9999999999988933
    vertex -245.69366311501506 100.78373955938322 1.9999999999949871
    vertex -245.69366311501514 90.78373955938322 1.9999999999948854
  endloop
endfacet
facet normal -5.95481151294197e-14 -1.3835667775956947e-14 1.0
  outer loop
    vertex -245.69366311501506 100.78373955938322 1.9999999999949871
    vertex -252.69366311501446 146.78373955938298 1.9999999999949494
    vertex -252.69366311501483 100.78373955938333 1.999999999994265
  endloop
endfacet
facet normal -5.95481151294197e-14 -1.3835667775956947e-14 1.0
  outer loop
    vertex -252.69366311501446 146.78373955938298 1.9999999999949494
    vertex -245.69366311501506 100.78373955938322 1.9999999999949871
    vertex -170.69366311501457 146.78373955938227 1.9999999999999554
  endloop
endfacet
facet normal -5.95481151294197e-14 -1.3835667775956947e-14 1.0
  outer loop
    vertex -170.69366311501457 146.78373955938227 1.9999999999999554
    vertex -245.69366311501506 100.78373955938322 1.9999999999949871
    vertex -170.69366311501537 90.78373955938227 1.9999999999988933
  endloop
endfacet
endsolid Controller
