solid Controller
facet normal 1.0 -2.996214387707182e-14 -1.1279865930191255e-14
  outer loop
    vertex 55.3146337186332 78.90258871972206 1.5670788740725251e-12
    vertex 55.314633718632386 52.90258871972234 3.000000000002031
    vertex 55.31463371863243 52.902588719722296 2.019096001504295e-12
  endloop
endfacet
facet normal 1.0 -2.996214387707182e-14 -1.1279865930191255e-14
  outer loop
    vertex 55.314633718632386 52.90258871972234 3.000000000002031
    vertex 55.3146337186332 78.90258871972206 1.5670788740725251e-12
    vertex 55.31463371863332 78.90258871972216 3.00000000000173
  endloop
endfacet
facet normal -2.4586452984807578e-14 -1.0 1.5039821240242492e-14
  outer loop
    vertex -3.685366281367192 59.902588719723084 7.145090075155716e-13
    vertex -17.68536628136703 59.90258871972341 1.0000000000003069
    vertex -17.68536628136704 59.90258871972341 2.8951655887494816e-13
  endloop
endfacet
facet normal -2.4586452984807578e-14 -1.0 1.5039821240242492e-14
  outer loop
    vertex -17.68536628136703 59.90258871972341 1.0000000000003069
    vertex -3.685366281367192 59.902588719723084 7.145090075155716e-13
    vertex -3.6853662813674966 59.902588719723084 1.0000000000007092
  endloop
endfacet
facet normal 1.0 -1.0474161220892204e-14 3.1671277701308777e-28
  outer loop
    vertex -17.68536628136704 59.90258871972341 2.8951655887494816e-13
    vertex -17.685366281367113 52.90258871972347 1.0000000000002716
    vertex -17.685366281367106 52.902588719723376 3.0925632425278346e-13
  endloop
endfacet
facet normal 1.0 -1.0474161220892204e-14 3.1671277701308777e-28
  outer loop
    vertex -17.685366281367113 52.90258871972347 1.0000000000002716
    vertex -17.68536628136704 59.90258871972341 2.8951655887494816e-13
    vertex -17.68536628136703 59.90258871972341 1.0000000000003069
  endloop
endfacet
facet normal -1.0 3.8351544162651186e-14 -1.8799776550319394e-14
  outer loop
    vertex 42.31463371863268 57.90258871972247 3.000000000001665
    vertex 42.31463371863247 52.90258871972244 1.6385180249637685e-12
    vertex 42.31463371863243 52.90258871972244 3.000000000001623
  endloop
endfacet
facet normal -1.0 3.8351544162651186e-14 -1.8799776550319394e-14
  outer loop
    vertex 42.31463371863247 52.90258871972244 1.6385180249637685e-12
    vertex 42.31463371863268 57.90258871972247 3.000000000001665
    vertex 42.31463371863274 57.90258871972247 1.6723576227543458e-12
  endloop
endfacet
facet normal -1.0 3.1894793319848474e-14 -2.293572739139033e-13
  outer loop
    vertex -26.685366281367006 52.90258871972347 3.0000000000005325
    vertex -26.68536628136546 78.90258871972348 1.8423781019309975e-13
    vertex -26.68536628136704 52.90258871972323 5.856717888441665e-13
  endloop
endfacet
facet normal -1.0 3.1894793319848474e-14 -2.293572739139033e-13
  outer loop
    vertex -26.68536628136546 78.90258871972348 1.8423781019309975e-13
    vertex -26.685366281367006 52.90258871972347 3.0000000000005325
    vertex -26.685366281366868 78.90258871972378 3.0000000000004756
  endloop
endfacet
facet normal 1.991250736365975e-14 1.0 -6.141260339769993e-14
  outer loop
    vertex -26.685366281366868 78.90258871972378 3.0000000000004756
    vertex 55.3146337186332 78.90258871972206 1.5670788740725251e-12
    vertex -26.68536628136546 78.90258871972348 1.8423781019309975e-13
  endloop
endfacet
facet normal 1.991250736365975e-14 1.0 -6.141260339769993e-14
  outer loop
    vertex 55.3146337186332 78.90258871972206 1.5670788740725251e-12
    vertex -26.685366281366868 78.90258871972378 3.0000000000004756
    vertex 55.31463371863332 78.90258871972216 3.00000000000173
  endloop
endfacet
facet normal -1.127986593019185e-14 -1.0 7.519910620127595e-15
  outer loop
    vertex 55.31463371863243 52.902588719722296 2.019096001504295e-12
    vertex 42.31463371863243 52.90258871972244 3.000000000001623
    vertex 42.31463371863247 52.90258871972244 1.6385180249637685e-12
  endloop
endfacet
facet normal -1.127986593019185e-14 -1.0 7.519910620127595e-15
  outer loop
    vertex 42.31463371863243 52.90258871972244 3.000000000001623
    vertex 55.31463371863243 52.902588719722296 2.019096001504295e-12
    vertex 55.314633718632386 52.90258871972234 3.000000000002031
  endloop
endfacet
facet normal -1.7810820435079407e-14 6.27771545112702e-15 1.0
  outer loop
    vertex -18.685366281367127 52.90258871972347 3.0000000000003624
    vertex -26.685366281366868 78.90258871972378 3.0000000000004756
    vertex -26.685366281367006 52.90258871972347 3.0000000000005325
  endloop
endfacet
facet normal -1.7810820435079407e-14 6.27771545112702e-15 1.0
  outer loop
    vertex -26.685366281366868 78.90258871972378 3.0000000000004756
    vertex -18.685366281367127 52.90258871972347 3.0000000000003624
    vertex -18.685366281367145 60.902588719723404 3.000000000000316
  endloop
endfacet
facet normal -1.7810820435079407e-14 6.27771545112702e-15 1.0
  outer loop
    vertex 55.314633718632386 52.90258871972234 3.000000000002031
    vertex 42.31463371863268 57.90258871972247 3.000000000001665
    vertex 42.31463371863243 52.90258871972244 3.000000000001623
  endloop
endfacet
facet normal -1.7810820435079407e-14 6.27771545112702e-15 1.0
  outer loop
    vertex -18.685366281367145 60.902588719723404 3.000000000000316
    vertex 55.31463371863332 78.90258871972216 3.00000000000173
    vertex -26.685366281366868 78.90258871972378 3.0000000000004756
  endloop
endfacet
facet normal -1.7810820435079407e-14 6.27771545112702e-15 1.0
  outer loop
    vertex 55.31463371863332 78.90258871972216 3.00000000000173
    vertex -18.685366281367145 60.902588719723404 3.000000000000316
    vertex -2.6853662813677723 60.90258871972336 3.0000000000006715
  endloop
endfacet
facet normal -1.7810820435079407e-14 6.27771545112702e-15 1.0
  outer loop
    vertex 55.31463371863332 78.90258871972216 3.00000000000173
    vertex -2.6853662813677723 60.90258871972336 3.0000000000006715
    vertex -2.6853662813677497 52.90258871972301 3.00000000000069
  endloop
endfacet
facet normal -1.7810820435079407e-14 6.27771545112702e-15 1.0
  outer loop
    vertex 55.31463371863332 78.90258871972216 3.00000000000173
    vertex -2.6853662813677497 52.90258871972301 3.00000000000069
    vertex 35.31463371863268 57.902588719722736 3.0000000000015192
  endloop
endfacet
facet normal -1.7810820435079407e-14 6.27771545112702e-15 1.0
  outer loop
    vertex 35.31463371863268 57.902588719722736 3.0000000000015192
    vertex -2.6853662813677497 52.90258871972301 3.00000000000069
    vertex 35.31463371863251 52.90258871972306 3.00000000000069
  endloop
endfacet
facet normal -1.7810820435079407e-14 6.27771545112702e-15 1.0
  outer loop
    vertex 55.31463371863332 78.90258871972216 3.00000000000173
    vertex 35.31463371863268 57.902588719722736 3.0000000000015192
    vertex 42.31463371863268 57.90258871972247 3.000000000001665
  endloop
endfacet
facet normal -1.7810820435079407e-14 6.27771545112702e-15 1.0
  outer loop
    vertex 55.31463371863332 78.90258871972216 3.00000000000173
    vertex 42.31463371863268 57.90258871972247 3.000000000001665
    vertex 55.314633718632386 52.90258871972234 3.000000000002031
  endloop
endfacet
facet normal 1.8080219740933556e-14 -1.603411461211306e-14 -1.0
  outer loop
    vertex -26.68536628136546 78.90258871972348 1.8423781019309975e-13
    vertex -17.685366281367106 52.902588719723376 3.0925632425278346e-13
    vertex -26.68536628136704 52.90258871972323 5.856717888441665e-13
  endloop
endfacet
facet normal 1.8080219740933556e-14 -1.603411461211306e-14 -1.0
  outer loop
    vertex -17.685366281367106 52.902588719723376 3.0925632425278346e-13
    vertex -26.68536628136546 78.90258871972348 1.8423781019309975e-13
    vertex -17.68536628136704 59.90258871972341 2.8951655887494816e-13
  endloop
endfacet
facet normal 1.8080219740933556e-14 -1.603411461211306e-14 -1.0
  outer loop
    vertex -17.68536628136704 59.90258871972341 2.8951655887494816e-13
    vertex -26.68536628136546 78.90258871972348 1.8423781019309975e-13
    vertex 55.3146337186332 78.90258871972206 1.5670788740725251e-12
  endloop
endfacet
facet normal 1.8080219740933556e-14 -1.603411461211306e-14 -1.0
  outer loop
    vertex -17.68536628136704 59.90258871972341 2.8951655887494816e-13
    vertex 55.3146337186332 78.90258871972206 1.5670788740725251e-12
    vertex -3.685366281367192 59.902588719723084 7.145090075155716e-13
  endloop
endfacet
facet normal 1.8080219740933556e-14 -1.603411461211306e-14 -1.0
  outer loop
    vertex -3.685366281367192 59.902588719723084 7.145090075155716e-13
    vertex 55.3146337186332 78.90258871972206 1.5670788740725251e-12
    vertex 35.31463371863275 57.902588719722736 1.5266593544893658e-12
  endloop
endfacet
facet normal 1.8080219740933556e-14 -1.603411461211306e-14 -1.0
  outer loop
    vertex -3.685366281367192 59.902588719723084 7.145090075155716e-13
    vertex 35.31463371863275 57.902588719722736 1.5266593544893658e-12
    vertex 35.31463371863254 52.90258871972265 1.33155292347808e-12
  endloop
endfacet
facet normal 1.8080219740933556e-14 -1.603411461211306e-14 -1.0
  outer loop
    vertex 35.31463371863275 57.902588719722736 1.5266593544893658e-12
    vertex 55.3146337186332 78.90258871972206 1.5670788740725251e-12
    vertex 42.31463371863274 57.90258871972247 1.6723576227543458e-12
  endloop
endfacet
facet normal 1.8080219740933556e-14 -1.603411461211306e-14 -1.0
  outer loop
    vertex 42.31463371863274 57.90258871972247 1.6723576227543458e-12
    vertex 55.3146337186332 78.90258871972206 1.5670788740725251e-12
    vertex 55.31463371863243 52.902588719722296 2.019096001504295e-12
  endloop
endfacet
facet normal 1.8080219740933556e-14 -1.603411461211306e-14 -1.0
  outer loop
    vertex 55.31463371863243 52.902588719722296 2.019096001504295e-12
    vertex 42.31463371863247 52.90258871972244 1.6385180249637685e-12
    vertex 42.31463371863274 57.90258871972247 1.6723576227543458e-12
  endloop
endfacet
facet normal 1.8080219740933556e-14 -1.603411461211306e-14 -1.0
  outer loop
    vertex 35.31463371863254 52.90258871972265 1.33155292347808e-12
    vertex -3.685366281367463 52.90258871972305 7.088690745504758e-13
    vertex -3.685366281367192 59.902588719723084 7.145090075155716e-13
  endloop
endfacet
facet normal -2.7455012367401628e-15 -1.0 -5.964489183727073e-28
  outer loop
    vertex -2.685366281367727 60.90258871972336 1.0000000000006721
    vertex -18.685366281367145 60.902588719723404 3.000000000000316
    vertex -18.685366281367113 60.902588719723404 1.0000000000003162
  endloop
endfacet
facet normal -2.7455012367401628e-15 -1.0 -5.964489183727073e-28
  outer loop
    vertex -18.685366281367145 60.902588719723404 3.000000000000316
    vertex -2.685366281367727 60.90258871972336 1.0000000000006721
    vertex -2.6853662813677723 60.90258871972336 3.0000000000006715
  endloop
endfacet
facet normal 1.3251444602024429e-14 -1.0 5.128844964992525e-14
  outer loop
    vertex -17.685366281367113 52.90258871972347 1.0000000000002716
    vertex -26.68536628136704 52.90258871972323 5.856717888441665e-13
    vertex -17.685366281367106 52.902588719723376 3.0925632425278346e-13
  endloop
endfacet
facet normal 1.3251444602024429e-14 -1.0 5.128844964992525e-14
  outer loop
    vertex -26.68536628136704 52.90258871972323 5.856717888441665e-13
    vertex -17.685366281367113 52.90258871972347 1.0000000000002716
    vertex -18.685366281367113 52.90258871972347 1.0000000000003624
  endloop
endfacet
facet normal 1.3251444602024429e-14 -1.0 5.128844964992525e-14
  outer loop
    vertex -26.68536628136704 52.90258871972323 5.856717888441665e-13
    vertex -18.685366281367113 52.90258871972347 1.0000000000003624
    vertex -26.685366281367006 52.90258871972347 3.0000000000005325
  endloop
endfacet
facet normal 1.3251444602024429e-14 -1.0 5.128844964992525e-14
  outer loop
    vertex -26.685366281367006 52.90258871972347 3.0000000000005325
    vertex -18.685366281367113 52.90258871972347 1.0000000000003624
    vertex -18.685366281367127 52.90258871972347 3.0000000000003624
  endloop
endfacet
facet normal -5.486898654884745e-15 -1.0 7.373472637367382e-14
  outer loop
    vertex 35.31463371863251 52.90258871972306 3.00000000000069
    vertex -2.685366281367727 52.90258871972301 1.0000000000006903
    vertex 35.31463371863254 52.90258871972265 1.33155292347808e-12
  endloop
endfacet
facet normal -5.486898654884745e-15 -1.0 7.373472637367382e-14
  outer loop
    vertex -2.685366281367727 52.90258871972301 1.0000000000006903
    vertex 35.31463371863251 52.90258871972306 3.00000000000069
    vertex -2.6853662813677497 52.90258871972301 3.00000000000069
  endloop
endfacet
facet normal -5.486898654884745e-15 -1.0 7.373472637367382e-14
  outer loop
    vertex 35.31463371863254 52.90258871972265 1.33155292347808e-12
    vertex -3.685366281367722 52.90258871972305 1.0000000000007008
    vertex -3.685366281367463 52.90258871972305 7.088690745504758e-13
  endloop
endfacet
facet normal -5.486898654884745e-15 -1.0 7.373472637367382e-14
  outer loop
    vertex -3.685366281367722 52.90258871972305 1.0000000000007008
    vertex 35.31463371863254 52.90258871972265 1.33155292347808e-12
    vertex -2.685366281367727 52.90258871972301 1.0000000000006903
  endloop
endfacet
facet normal -3.609557097661307e-14 -1.0 -8.13952970981483e-28
  outer loop
    vertex 42.31463371863274 57.90258871972247 1.6723576227543458e-12
    vertex 35.31463371863268 57.902588719722736 3.0000000000015192
    vertex 35.31463371863275 57.902588719722736 1.5266593544893658e-12
  endloop
endfacet
facet normal -3.609557097661307e-14 -1.0 -8.13952970981483e-28
  outer loop
    vertex 35.31463371863268 57.902588719722736 3.0000000000015192
    vertex 42.31463371863274 57.90258871972247 1.6723576227543458e-12
    vertex 42.31463371863268 57.90258871972247 3.000000000001665
  endloop
endfacet
facet normal 1.0 -4.2299497238226126e-14 1.6919798895292672e-14
  outer loop
    vertex 35.31463371863275 57.902588719722736 1.5266593544893658e-12
    vertex 35.31463371863251 52.90258871972306 3.00000000000069
    vertex 35.31463371863254 52.90258871972265 1.33155292347808e-12
  endloop
endfacet
facet normal 1.0 -4.2299497238226126e-14 1.6919798895292672e-14
  outer loop
    vertex 35.31463371863251 52.90258871972306 3.00000000000069
    vertex 35.31463371863275 57.902588719722736 1.5266593544893658e-12
    vertex 35.31463371863268 57.902588719722736 3.0000000000015192
  endloop
endfacet
facet normal -1.0 3.545100720917369e-14 -2.819966482547917e-13
  outer loop
    vertex -3.6853662813674966 59.902588719723084 1.0000000000007092
    vertex -3.685366281367463 52.90258871972305 7.088690745504758e-13
    vertex -3.685366281367722 52.90258871972305 1.0000000000007008
  endloop
endfacet
facet normal -1.0 3.545100720917369e-14 -2.819966482547917e-13
  outer loop
    vertex -3.685366281367463 52.90258871972305 7.088690745504758e-13
    vertex -3.6853662813674966 59.902588719723084 1.0000000000007092
    vertex -3.685366281367192 59.902588719723084 7.145090075155716e-13
  endloop
endfacet
facet normal 1.0 1.0574874309555344e-15 1.127986593019159e-14
  outer loop
    vertex -18.685366281367113 60.902588719723404 1.0000000000003162
    vertex -18.685366281367127 52.90258871972347 3.0000000000003624
    vertex -18.685366281367113 52.90258871972347 1.0000000000003624
  endloop
endfacet
facet normal 1.0 1.0574874309555344e-15 1.127986593019159e-14
  outer loop
    vertex -18.685366281367127 52.90258871972347 3.0000000000003624
    vertex -18.685366281367113 60.902588719723404 1.0000000000003162
    vertex -18.685366281367145 60.902588719723404 3.000000000000316
  endloop
endfacet
facet normal -1.0 -1.4099832412739266e-15 -1.6919798895287386e-14
  outer loop
    vertex -2.6853662813677723 60.90258871972336 3.0000000000006715
    vertex -2.685366281367727 52.90258871972301 1.0000000000006903
    vertex -2.6853662813677497 52.90258871972301 3.00000000000069
  endloop
endfacet
facet normal -1.0 -1.4099832412739266e-15 -1.6919798895287386e-14
  outer loop
    vertex -2.685366281367727 52.90258871972301 1.0000000000006903
    vertex -2.6853662813677723 60.90258871972336 3.0000000000006715
    vertex -2.685366281367727 60.90258871972336 1.0000000000006721
  endloop
endfacet
facet normal -3.2591073529555465e-14 8.40890177250237e-15 1.0
  outer loop
    vertex -2.685366281367727 52.90258871972301 1.0000000000006903
    vertex -3.6853662813674966 59.902588719723084 1.0000000000007092
    vertex -3.685366281367722 52.90258871972305 1.0000000000007008
  endloop
endfacet
facet normal -3.2591073529555465e-14 8.40890177250237e-15 1.0
  outer loop
    vertex -17.685366281367113 52.90258871972347 1.0000000000002716
    vertex -18.685366281367113 60.902588719723404 1.0000000000003162
    vertex -18.685366281367113 52.90258871972347 1.0000000000003624
  endloop
endfacet
facet normal -3.2591073529555465e-14 8.40890177250237e-15 1.0
  outer loop
    vertex -18.685366281367113 60.902588719723404 1.0000000000003162
    vertex -17.685366281367113 52.90258871972347 1.0000000000002716
    vertex -17.68536628136703 59.90258871972341 1.0000000000003069
  endloop
endfacet
facet normal -3.2591073529555465e-14 8.40890177250237e-15 1.0
  outer loop
    vertex -18.685366281367113 60.902588719723404 1.0000000000003162
    vertex -17.68536628136703 59.90258871972341 1.0000000000003069
    vertex -2.685366281367727 60.90258871972336 1.0000000000006721
  endloop
endfacet
facet normal -3.2591073529555465e-14 8.40890177250237e-15 1.0
  outer loop
    vertex -2.685366281367727 60.90258871972336 1.0000000000006721
    vertex -17.68536628136703 59.90258871972341 1.0000000000003069
    vertex -3.6853662813674966 59.902588719723084 1.0000000000007092
  endloop
endfacet
facet normal -3.2591073529555465e-14 8.40890177250237e-15 1.0
  outer loop
    vertex -2.685366281367727 60.90258871972336 1.0000000000006721
    vertex -3.6853662813674966 59.902588719723084 1.0000000000007092
    vertex -2.685366281367727 52.90258871972301 1.0000000000006903
  endloop
endfacet
endsolid Controller
