solid Controller
facet normal 7.519910620128145e-15 1.0 2.255973186038137e-14
  outer loop
    vertex -89.64448161624183 39.710910871017504 4.716393942061287e-13
    vertex -86.64448161624256 39.71091087101746 1.000000000000642
    vertex -86.64448161624206 39.71091087101746 4.039601986249791e-13
  endloop
endfacet
facet normal 7.519910620128145e-15 1.0 2.255973186038137e-14
  outer loop
    vertex -86.64448161624256 39.71091087101746 1.000000000000642
    vertex -89.64448161624183 39.710910871017504 4.716393942061287e-13
    vertex -89.64448161624227 39.71091087101746 1.0000000000005094
  endloop
endfacet
facet normal -0.7071067811865046 0.7071067811865904 2.7920722665468704e-14
  outer loop
    vertex -89.64448161624206 36.29741094619514 1.0000000000004412
    vertex -87.6444816162418 38.29741094619508 3.0000000000004037
    vertex -87.64448161624185 38.297410946195114 1.0000000000004243
  endloop
endfacet
facet normal -0.7071067811865046 0.7071067811865904 2.7920722665468704e-14
  outer loop
    vertex -87.6444816162418 38.29741094619508 3.0000000000004037
    vertex -89.64448161624206 36.29741094619514 1.0000000000004412
    vertex -89.644481616242 36.29741094619511 3.0000000000004206
  endloop
endfacet
facet normal -1.0 1.2533184366883703e-14 -4.737543690679646e-13
  outer loop
    vertex -86.64448161624242 48.71091087101753 1.0000000000006615
    vertex -86.64448161624206 39.71091087101746 4.039601986249791e-13
    vertex -86.64448161624256 39.71091087101746 1.000000000000642
  endloop
endfacet
facet normal -1.0 1.2533184366883703e-14 -4.737543690679646e-13
  outer loop
    vertex -86.64448161624206 39.71091087101746 4.039601986249791e-13
    vertex -86.64448161624242 48.71091087101753 1.0000000000006615
    vertex -86.64448161624198 48.710910871017575 5.4777848923494e-13
  endloop
endfacet
facet normal -1.0 3.4469934327555675e-14 1.1664476959635186e-14
  outer loop
    vertex -89.644481616242 36.29741094619511 3.0000000000004206
    vertex -89.6444816162425 32.21091087101754 1.0000000000003992
    vertex -89.64448161624209 32.21091087101752 3.000000000000356
  endloop
endfacet
facet normal -1.0 3.4469934327555675e-14 1.1664476959635186e-14
  outer loop
    vertex -89.6444816162425 32.21091087101754 1.0000000000003992
    vertex -89.644481616242 36.29741094619511 3.0000000000004206
    vertex -89.64448161624246 33.21091087101752 1.0000000000004106
  endloop
endfacet
facet normal -1.0 3.4469934327555675e-14 1.1664476959635186e-14
  outer loop
    vertex -89.64448161624246 33.21091087101752 1.0000000000004106
    vertex -89.644481616242 36.29741094619511 3.0000000000004206
    vertex -89.64448161624196 33.21091087101754 3.870403997297053e-13
  endloop
endfacet
facet normal -1.0 3.4469934327555675e-14 1.1664476959635186e-14
  outer loop
    vertex -89.64448161624196 33.21091087101754 3.870403997297053e-13
    vertex -89.644481616242 36.29741094619511 3.0000000000004206
    vertex -89.64448161624206 36.29741094619514 1.0000000000004412
  endloop
endfacet
facet normal -1.0 3.4469934327555675e-14 1.1664476959635186e-14
  outer loop
    vertex -89.64448161624196 33.21091087101754 3.870403997297053e-13
    vertex -89.64448161624206 36.29741094619514 1.0000000000004412
    vertex -89.64448161624183 39.710910871017504 4.716393942061287e-13
  endloop
endfacet
facet normal -1.0 3.4469934327555675e-14 1.1664476959635186e-14
  outer loop
    vertex -89.64448161624183 39.710910871017504 4.716393942061287e-13
    vertex -89.64448161624206 36.29741094619514 1.0000000000004412
    vertex -89.64448161624227 39.71091087101746 1.0000000000005094
  endloop
endfacet
facet normal -2.707167823246347e-14 -3.1019631308027666e-14 1.0
  outer loop
    vertex -89.64448161624222 55.21091087101759 1.000000000000594
    vertex -92.14448161624192 56.21091087101759 1.0000000000006475
    vertex -92.14448161624192 55.21091087101759 1.0000000000005516
  endloop
endfacet
facet normal -2.707167823246347e-14 -3.1019631308027666e-14 1.0
  outer loop
    vertex -92.14448161624192 56.21091087101759 1.0000000000006475
    vertex -89.64448161624222 55.21091087101759 1.000000000000594
    vertex -89.64448161624227 56.21091087101754 1.0000000000007405
  endloop
endfacet
facet normal -0.38268343236508756 -0.9238795325112876 -4.676259607260427e-15
  outer loop
    vertex -86.89448161624252 28.389114101292915 3.0000000000002767
    vertex -88.82392925542256 29.188317481330046 3.440359108708435e-13
    vertex -86.89448161624257 28.389114101292936 2.143174526736402e-13
  endloop
endfacet
facet normal -0.38268343236508756 -0.9238795325112876 -4.676259607260427e-15
  outer loop
    vertex -88.82392925542256 29.188317481330046 3.440359108708435e-13
    vertex -86.89448161624252 28.389114101292915 3.0000000000002767
    vertex -88.82392925542251 29.18831748133 3.0000000000004374
  endloop
endfacet
facet normal 0.6087614290089246 0.7933533402910787 2.779433625487495e-15
  outer loop
    vertex -96.55133586573487 15.804056621525255 3.0000000000000875
    vertex -94.89448161624337 14.532707640742137 4.314548718298283e-13
    vertex -96.55133586573496 15.8040566215253 8.741896095898482e-14
  endloop
endfacet
facet normal 0.6087614290089246 0.7933533402910787 2.779433625487495e-15
  outer loop
    vertex -94.89448161624337 14.532707640742137 4.314548718298283e-13
    vertex -96.55133586573487 15.804056621525255 3.0000000000000875
    vertex -94.89448161624337 14.53270764074209 3.000000000000522
  endloop
endfacet
facet normal 0.7933533402912855 -0.6087614290086552 -6.858823918759915e-15
  outer loop
    vertex -97.82268484651757 25.46091087101772 1.8047785488306544e-13
    vertex -96.55133586573469 27.117765120510043 3.000000000000271
    vertex -97.82268484651762 25.460910871017678 3.000000000000189
  endloop
endfacet
facet normal 0.7933533402912855 -0.6087614290086552 -6.858823918759915e-15
  outer loop
    vertex -96.55133586573469 27.117765120510043 3.000000000000271
    vertex -97.82268484651757 25.46091087101772 1.8047785488306544e-13
    vertex -96.55133586573473 27.117765120510068 2.509770169467629e-13
  endloop
endfacet
facet normal -1.5039821240258234e-14 -1.0 -2.5379698342932223e-14
  outer loop
    vertex -86.14448161624199 50.21091087101755 1.0000000000005544
    vertex -87.6444816162418 50.210910871017525 3.0000000000005036
    vertex -87.64448161624179 50.21091087101758 1.0000000000005522
  endloop
endfacet
facet normal -1.5039821240258234e-14 -1.0 -2.5379698342932223e-14
  outer loop
    vertex -87.6444816162418 50.210910871017525 3.0000000000005036
    vertex -86.14448161624199 50.21091087101755 1.0000000000005544
    vertex -86.14448161624213 50.210910871017504 3.0000000000005085
  endloop
endfacet
facet normal 0.0 -1.0 0.0
  outer loop
    vertex -89.64448161624173 55.21091087101759 6.182776512986265e-13
    vertex -92.14448161624192 55.21091087101759 1.0000000000005516
    vertex -92.1444816162422 55.21091087101759 5.505984557174769e-13
  endloop
endfacet
facet normal 0.0 -1.0 0.0
  outer loop
    vertex -92.14448161624192 55.21091087101759 1.0000000000005516
    vertex -89.64448161624173 55.21091087101759 6.182776512986265e-13
    vertex -89.64448161624222 55.21091087101759 1.000000000000594
  endloop
endfacet
facet normal 0.38268343236506963 0.9238795325112953 1.196732298471869e-15
  outer loop
    vertex -94.89448161624337 14.532707640742137 4.314548718298283e-13
    vertex -92.96503397706324 13.733504260705027 3.000000000000164
    vertex -92.96503397706334 13.733504260705027 2.848166147373376e-13
  endloop
endfacet
facet normal 0.38268343236506963 0.9238795325112953 1.196732298471869e-15
  outer loop
    vertex -92.96503397706324 13.733504260705027 3.000000000000164
    vertex -94.89448161624337 14.532707640742137 4.314548718298283e-13
    vertex -94.89448161624337 14.53270764074209 3.000000000000522
  endloop
endfacet
facet normal -0.7933533402912802 0.6087614290086619 1.5118055743787144e-14
  outer loop
    vertex -83.96627838596731 17.460910871017298 3.0000000000001776
    vertex -85.23762736675026 15.804056621524985 8.459899447643692e-15
    vertex -85.23762736675026 15.80405662152494 3.0000000000001075
  endloop
endfacet
facet normal -0.7933533402912802 0.6087614290086619 1.5118055743787144e-14
  outer loop
    vertex -85.23762736675026 15.804056621524985 8.459899447643692e-15
    vertex -83.96627838596731 17.460910871017298 3.0000000000001776
    vertex -83.96627838596736 17.46091087101734 2.3123725156892757e-13
  endloop
endfacet
facet normal 0.9238795325112158 0.38268343236526087 4.319826411593885e-15
  outer loop
    vertex -97.82268484651772 17.460910871017703 6.203926261605374e-14
    vertex -98.62188822655519 19.390358510197537 3.000000000000378
    vertex -97.82268484651772 17.460910871017678 3.000000000000085
  endloop
endfacet
facet normal 0.9238795325112158 0.38268343236526087 4.319826411593885e-15
  outer loop
    vertex -98.62188822655519 19.390358510197537 3.000000000000378
    vertex -97.82268484651772 17.460910871017703 6.203926261605374e-14
    vertex -98.62188822655519 19.39035851019758 3.158362460453645e-13
  endloop
endfacet
facet normal -0.7933533402912953 -0.6087614290086422 -9.174184043686836e-15
  outer loop
    vertex -85.23762736675008 27.117765120509727 3.0000000000002904
    vertex -83.96627838596719 25.46091087101736 3.2429614549300823e-13
    vertex -83.96627838596719 25.460910871017315 3.0000000000003104
  endloop
endfacet
facet normal -0.7933533402912953 -0.6087614290086422 -9.174184043686836e-15
  outer loop
    vertex -83.96627838596719 25.46091087101736 3.2429614549300823e-13
    vertex -85.23762736675008 27.117765120509727 3.0000000000002904
    vertex -85.23762736675008 27.117765120509773 2.425171174991192e-13
  endloop
endfacet
facet normal -1.8524953764978985e-27 1.0 2.255973186038357e-14
  outer loop
    vertex -92.14448161624237 32.2109108710175 3.000000000000294
    vertex -89.6444816162425 32.21091087101754 1.0000000000003992
    vertex -92.14448161624215 32.21091087101756 1.0000000000003035
  endloop
endfacet
facet normal -1.8524953764978985e-27 1.0 2.255973186038357e-14
  outer loop
    vertex -89.6444816162425 32.21091087101754 1.0000000000003992
    vertex -92.14448161624237 32.2109108710175 3.000000000000294
    vertex -89.64448161624209 32.21091087101752 3.000000000000356
  endloop
endfacet
facet normal -0.1305261922200288 0.9914448613738134 9.422629037004781e-15
  outer loop
    vertex -90.8944816162432 13.460910871017505 3.355760114231998e-13
    vertex -88.82392925542297 13.733504260704892 3.0000000000002482
    vertex -88.82392925542301 13.733504260704915 1.5227819005758646e-13
  endloop
endfacet
facet normal -0.1305261922200288 0.9914448613738134 9.422629037004781e-15
  outer loop
    vertex -88.82392925542297 13.733504260704892 3.0000000000002482
    vertex -90.8944816162432 13.460910871017505 3.355760114231998e-13
    vertex -90.89448161624316 13.460910871017484 3.0000000000002736
  endloop
endfacet
facet normal 9.023892744152758e-15 1.0 2.255973186038478e-14
  outer loop
    vertex -92.14448161624239 33.21091087101756 3.9550029917734904e-13
    vertex -89.64448161624246 33.21091087101752 1.0000000000004106
    vertex -89.64448161624196 33.21091087101754 3.870403997297053e-13
  endloop
endfacet
facet normal 9.023892744152758e-15 1.0 2.255973186038478e-14
  outer loop
    vertex -89.64448161624246 33.21091087101752 1.0000000000004106
    vertex -92.14448161624239 33.21091087101756 3.9550029917734904e-13
    vertex -92.14448161624212 33.21091087101754 1.0000000000003204
  endloop
endfacet
facet normal 1.0 -1.0089338061626701e-14 -7.006050061085398e-13
  outer loop
    vertex -81.64448161624405 11.710910871017868 5.696332294746752e-13
    vertex -81.64448161624215 60.710910871017326 3.0000000000006835
    vertex -81.64448161624216 11.710910871017324 3.0000000000001457
  endloop
endfacet
facet normal 1.0 -1.0089338061626701e-14 -7.006050061085398e-13
  outer loop
    vertex -81.64448161624215 60.710910871017326 3.0000000000006835
    vertex -81.64448161624405 11.710910871017868 5.696332294746752e-13
    vertex -81.6444816162424 60.71091087101796 1.6699227343097255e-13
  endloop
endfacet
facet normal -0.1305261922200727 -0.9914448613738077 -4.5130069308363354e-15
  outer loop
    vertex -88.82392925542251 29.18831748133 3.0000000000004374
    vertex -90.89448161624276 29.46091087101752 4.258149388647325e-13
    vertex -88.82392925542256 29.188317481330046 3.440359108708435e-13
  endloop
endfacet
facet normal -0.1305261922200727 -0.9914448613738077 -4.5130069308363354e-15
  outer loop
    vertex -90.89448161624276 29.46091087101752 4.258149388647325e-13
    vertex -88.82392925542251 29.18831748133 3.0000000000004374
    vertex -90.89448161624266 29.46091087101752 3.000000000000381
  endloop
endfacet
facet normal -1.0 1.8936275655981167e-15 -5.6399329650958476e-14
  outer loop
    vertex -86.14448161624213 50.210910871017504 3.0000000000005085
    vertex -86.14448161624203 38.29741094619513 1.000000000000371
    vertex -86.14448161624213 38.297410946195065 3.0000000000003673
  endloop
endfacet
facet normal -1.0 1.8936275655981167e-15 -5.6399329650958476e-14
  outer loop
    vertex -86.14448161624203 38.29741094619513 1.000000000000371
    vertex -86.14448161624213 50.210910871017504 3.0000000000005085
    vertex -86.14448161624199 50.21091087101755 1.0000000000005544
  endloop
endfacet
facet normal 0.13052619222001635 -0.9914448613738152 -5.6939462677075876e-15
  outer loop
    vertex -90.89448161624276 29.46091087101752 4.258149388647325e-13
    vertex -92.96503397706284 29.188317481330134 3.0000000000003637
    vertex -92.96503397706284 29.18831748133016 3.8633540810906194e-13
  endloop
endfacet
facet normal 0.13052619222001635 -0.9914448613738152 -5.6939462677075876e-15
  outer loop
    vertex -92.96503397706284 29.188317481330134 3.0000000000003637
    vertex -90.89448161624276 29.46091087101752 4.258149388647325e-13
    vertex -90.89448161624266 29.46091087101752 3.000000000000381
  endloop
endfacet
facet normal -7.51991062012798e-15 -1.0 -2.255973186038591e-14
  outer loop
    vertex -86.64448161624242 48.71091087101753 1.0000000000006615
    vertex -89.64448161624173 48.710910871017575 5.505984557174879e-13
    vertex -86.64448161624198 48.710910871017575 5.4777848923494e-13
  endloop
endfacet
facet normal -7.51991062012798e-15 -1.0 -2.255973186038591e-14
  outer loop
    vertex -89.64448161624173 48.710910871017575 5.505984557174879e-13
    vertex -86.64448161624242 48.71091087101753 1.0000000000006615
    vertex -89.64448161624219 48.710910871017575 1.0000000000005798
  endloop
endfacet
facet normal -0.9238795325112302 0.3826834323652261 1.125782647000547e-14
  outer loop
    vertex -83.16707500592999 19.390358510197107 3.0000000000000395
    vertex -83.96627838596736 17.46091087101734 2.3123725156892757e-13
    vertex -83.96627838596731 17.460910871017298 3.0000000000001776
  endloop
endfacet
facet normal -0.9238795325112302 0.3826834323652261 1.125782647000547e-14
  outer loop
    vertex -83.96627838596736 17.46091087101734 2.3123725156892757e-13
    vertex -83.16707500592999 19.390358510197107 3.0000000000000395
    vertex -83.16707500592999 19.390358510197128 -2.255973186038318e-14
  endloop
endfacet
facet normal 0.6087614290088554 -0.7933533402911317 -1.8106861065278724e-14
  outer loop
    vertex -94.89448161624296 28.389114101293185 5.809130954048669e-13
    vertex -96.55133586573469 27.117765120510043 3.000000000000271
    vertex -96.55133586573473 27.117765120510068 2.509770169467629e-13
  endloop
endfacet
facet normal 0.6087614290088554 -0.7933533402911317 -1.8106861065278724e-14
  outer loop
    vertex -96.55133586573469 27.117765120510043 3.000000000000271
    vertex -94.89448161624296 28.389114101293185 5.809130954048669e-13
    vertex -94.89448161624291 28.389114101293142 3.000000000000516
  endloop
endfacet
facet normal 0.3826834323650243 -0.9238795325113138 -1.3307932017781268e-14
  outer loop
    vertex -92.96503397706284 29.188317481330134 3.0000000000003637
    vertex -94.89448161624296 28.389114101293185 5.809130954048669e-13
    vertex -92.96503397706284 29.18831748133016 3.8633540810906194e-13
  endloop
endfacet
facet normal 0.3826834323650243 -0.9238795325113138 -1.3307932017781268e-14
  outer loop
    vertex -94.89448161624296 28.389114101293185 5.809130954048669e-13
    vertex -92.96503397706284 29.188317481330134 3.0000000000003637
    vertex -94.89448161624291 28.389114101293142 3.000000000000516
  endloop
endfacet
facet normal 0.9238795325112075 -0.38268343236528146 2.6451860950790595e-15
  outer loop
    vertex -98.62188822655509 23.53146323183791 4.258149388647325e-13
    vertex -97.82268484651762 25.460910871017678 3.000000000000189
    vertex -98.62188822655509 23.53146323183789 3.0000000000003726
  endloop
endfacet
facet normal 0.9238795325112075 -0.38268343236528146 2.6451860950790595e-15
  outer loop
    vertex -97.82268484651762 25.460910871017678 3.000000000000189
    vertex -98.62188822655509 23.53146323183791 4.258149388647325e-13
    vertex -97.82268484651757 25.46091087101772 1.8047785488306544e-13
  endloop
endfacet
facet normal 1.0 -1.0300858698514631e-14 3.562062925324254e-15
  outer loop
    vertex -92.14448161624215 32.21091087101756 1.0000000000003035
    vertex -92.1444816162421 56.2109108710175 3.000000000000596
    vertex -92.14448161624237 32.2109108710175 3.000000000000294
  endloop
endfacet
facet normal 1.0 -1.0300858698514631e-14 3.562062925324254e-15
  outer loop
    vertex -92.1444816162421 56.2109108710175 3.000000000000596
    vertex -92.14448161624215 32.21091087101756 1.0000000000003035
    vertex -92.14448161624212 33.21091087101754 1.0000000000003204
  endloop
endfacet
facet normal 1.0 -1.0300858698514631e-14 3.562062925324254e-15
  outer loop
    vertex -92.1444816162421 56.2109108710175 3.000000000000596
    vertex -92.14448161624212 33.21091087101754 1.0000000000003204
    vertex -92.14448161624239 33.21091087101756 3.9550029917734904e-13
  endloop
endfacet
facet normal 1.0 -1.0300858698514631e-14 3.562062925324254e-15
  outer loop
    vertex -92.1444816162421 56.2109108710175 3.000000000000596
    vertex -92.14448161624239 33.21091087101756 3.9550029917734904e-13
    vertex -92.14448161624192 55.21091087101759 1.0000000000005516
  endloop
endfacet
facet normal 1.0 -1.0300858698514631e-14 3.562062925324254e-15
  outer loop
    vertex -92.14448161624192 55.21091087101759 1.0000000000005516
    vertex -92.14448161624239 33.21091087101756 3.9550029917734904e-13
    vertex -92.1444816162422 55.21091087101759 5.505984557174769e-13
  endloop
endfacet
facet normal 1.0 -1.0300858698514631e-14 3.562062925324254e-15
  outer loop
    vertex -92.1444816162421 56.2109108710175 3.000000000000596
    vertex -92.14448161624192 55.21091087101759 1.0000000000005516
    vertex -92.14448161624192 56.21091087101759 1.0000000000006475
  endloop
endfacet
facet normal -0.6087614290086261 0.7933533402913077 1.1919135816281295e-14
  outer loop
    vertex -86.89448161624297 14.532707640741911 6.203926261605374e-14
    vertex -85.23762736675026 15.80405662152494 3.0000000000001075
    vertex -85.23762736675026 15.804056621524985 8.459899447643692e-15
  endloop
endfacet
facet normal -0.6087614290086261 0.7933533402913077 1.1919135816281295e-14
  outer loop
    vertex -85.23762736675026 15.80405662152494 3.0000000000001075
    vertex -86.89448161624297 14.532707640741911 6.203926261605374e-14
    vertex -86.89448161624297 14.532707640741865 3.000000000000141
  endloop
endfacet
facet normal -4.60083823845924e-15 -3.0065464174998116e-15 -1.0
  outer loop
    vertex -107.6444816162417 60.71091087101796 6.63022588220926e-13
    vertex -92.1444816162422 55.21091087101759 5.505984557174769e-13
    vertex -107.6444816162417 11.710910871017944 4.049736240796446e-13
  endloop
endfacet
facet normal -4.60083823845924e-15 -3.0065464174998116e-15 -1.0
  outer loop
    vertex -92.1444816162422 55.21091087101759 5.505984557174769e-13
    vertex -107.6444816162417 60.71091087101796 6.63022588220926e-13
    vertex -81.6444816162424 60.71091087101796 1.6699227343097255e-13
  endloop
endfacet
facet normal -4.60083823845924e-15 -3.0065464174998116e-15 -1.0
  outer loop
    vertex -107.6444816162417 11.710910871017944 4.049736240796446e-13
    vertex -92.1444816162422 55.21091087101759 5.505984557174769e-13
    vertex -98.62188822655509 23.53146323183791 4.258149388647325e-13
  endloop
endfacet
facet normal -4.60083823845924e-15 -3.0065464174998116e-15 -1.0
  outer loop
    vertex -107.6444816162417 11.710910871017944 4.049736240796446e-13
    vertex -98.62188822655509 23.53146323183791 4.258149388647325e-13
    vertex -98.89448161624223 21.460910871017752 1.127986593019159e-13
  endloop
endfacet
facet normal -4.60083823845924e-15 -3.0065464174998116e-15 -1.0
  outer loop
    vertex -98.62188822655509 23.53146323183791 4.258149388647325e-13
    vertex -92.1444816162422 55.21091087101759 5.505984557174769e-13
    vertex -97.82268484651757 25.46091087101772 1.8047785488306544e-13
  endloop
endfacet
facet normal -4.60083823845924e-15 -3.0065464174998116e-15 -1.0
  outer loop
    vertex -97.82268484651757 25.46091087101772 1.8047785488306544e-13
    vertex -92.1444816162422 55.21091087101759 5.505984557174769e-13
    vertex -96.55133586573473 27.117765120510068 2.509770169467629e-13
  endloop
endfacet
facet normal -4.60083823845924e-15 -3.0065464174998116e-15 -1.0
  outer loop
    vertex -96.55133586573473 27.117765120510068 2.509770169467629e-13
    vertex -92.1444816162422 55.21091087101759 5.505984557174769e-13
    vertex -94.89448161624296 28.389114101293185 5.809130954048669e-13
  endloop
endfacet
facet normal -4.60083823845924e-15 -3.0065464174998116e-15 -1.0
  outer loop
    vertex -94.89448161624296 28.389114101293185 5.809130954048669e-13
    vertex -92.1444816162422 55.21091087101759 5.505984557174769e-13
    vertex -92.96503397706284 29.18831748133016 3.8633540810906194e-13
  endloop
endfacet
facet normal -4.60083823845924e-15 -3.0065464174998116e-15 -1.0
  outer loop
    vertex -92.96503397706284 29.18831748133016 3.8633540810906194e-13
    vertex -92.1444816162422 55.21091087101759 5.505984557174769e-13
    vertex -92.14448161624239 33.21091087101756 3.9550029917734904e-13
  endloop
endfacet
facet normal -4.60083823845924e-15 -3.0065464174998116e-15 -1.0
  outer loop
    vertex -92.1444816162422 55.21091087101759 5.505984557174769e-13
    vertex -81.6444816162424 60.71091087101796 1.6699227343097255e-13
    vertex -89.64448161624173 55.21091087101759 6.182776512986265e-13
  endloop
endfacet
facet normal -4.60083823845924e-15 -3.0065464174998116e-15 -1.0
  outer loop
    vertex -89.64448161624173 55.21091087101759 6.182776512986265e-13
    vertex -81.6444816162424 60.71091087101796 1.6699227343097255e-13
    vertex -86.64448161624198 48.710910871017575 5.4777848923494e-13
  endloop
endfacet
facet normal -4.60083823845924e-15 -3.0065464174998116e-15 -1.0
  outer loop
    vertex -86.64448161624198 48.710910871017575 5.4777848923494e-13
    vertex -81.6444816162424 60.71091087101796 1.6699227343097255e-13
    vertex -85.23762736675008 27.117765120509773 2.425171174991192e-13
  endloop
endfacet
facet normal -4.60083823845924e-15 -3.0065464174998116e-15 -1.0
  outer loop
    vertex -85.23762736675008 27.117765120509773 2.425171174991192e-13
    vertex -81.6444816162424 60.71091087101796 1.6699227343097255e-13
    vertex -83.96627838596719 25.46091087101736 3.2429614549300823e-13
  endloop
endfacet
facet normal -4.60083823845924e-15 -3.0065464174998116e-15 -1.0
  outer loop
    vertex -83.96627838596719 25.46091087101736 3.2429614549300823e-13
    vertex -81.6444816162424 60.71091087101796 1.6699227343097255e-13
    vertex -83.16707500592985 23.53146323183748 6.485922909860164e-14
  endloop
endfacet
facet normal -4.60083823845924e-15 -3.0065464174998116e-15 -1.0
  outer loop
    vertex -83.16707500592985 23.53146323183748 6.485922909860164e-14
    vertex -81.6444816162424 60.71091087101796 1.6699227343097255e-13
    vertex -82.89448161624298 21.460910871017322 3.9197534107415776e-13
  endloop
endfacet
facet normal -4.60083823845924e-15 -3.0065464174998116e-15 -1.0
  outer loop
    vertex -82.89448161624298 21.460910871017322 3.9197534107415776e-13
    vertex -81.6444816162424 60.71091087101796 1.6699227343097255e-13
    vertex -81.64448161624405 11.710910871017868 5.696332294746752e-13
  endloop
endfacet
facet normal -4.60083823845924e-15 -3.0065464174998116e-15 -1.0
  outer loop
    vertex -107.6444816162417 11.710910871017944 4.049736240796446e-13
    vertex -92.96503397706334 13.733504260705027 2.848166147373376e-13
    vertex -81.64448161624405 11.710910871017868 5.696332294746752e-13
  endloop
endfacet
facet normal -4.60083823845924e-15 -3.0065464174998116e-15 -1.0
  outer loop
    vertex -92.96503397706334 13.733504260705027 2.848166147373376e-13
    vertex -107.6444816162417 11.710910871017944 4.049736240796446e-13
    vertex -94.89448161624337 14.532707640742137 4.314548718298283e-13
  endloop
endfacet
facet normal -4.60083823845924e-15 -3.0065464174998116e-15 -1.0
  outer loop
    vertex -94.89448161624337 14.532707640742137 4.314548718298283e-13
    vertex -107.6444816162417 11.710910871017944 4.049736240796446e-13
    vertex -96.55133586573496 15.8040566215253 8.741896095898482e-14
  endloop
endfacet
facet normal -4.60083823845924e-15 -3.0065464174998116e-15 -1.0
  outer loop
    vertex -96.55133586573496 15.8040566215253 8.741896095898482e-14
    vertex -107.6444816162417 11.710910871017944 4.049736240796446e-13
    vertex -97.82268484651772 17.460910871017703 6.203926261605374e-14
  endloop
endfacet
facet normal -4.60083823845924e-15 -3.0065464174998116e-15 -1.0
  outer loop
    vertex -97.82268484651772 17.460910871017703 6.203926261605374e-14
    vertex -107.6444816162417 11.710910871017944 4.049736240796446e-13
    vertex -98.62188822655519 19.39035851019758 3.158362460453645e-13
  endloop
endfacet
facet normal -4.60083823845924e-15 -3.0065464174998116e-15 -1.0
  outer loop
    vertex -98.62188822655519 19.39035851019758 3.158362460453645e-13
    vertex -107.6444816162417 11.710910871017944 4.049736240796446e-13
    vertex -98.89448161624223 21.460910871017752 1.127986593019159e-13
  endloop
endfacet
facet normal -4.60083823845924e-15 -3.0065464174998116e-15 -1.0
  outer loop
    vertex -81.64448161624405 11.710910871017868 5.696332294746752e-13
    vertex -92.96503397706334 13.733504260705027 2.848166147373376e-13
    vertex -90.8944816162432 13.460910871017505 3.355760114231998e-13
  endloop
endfacet
facet normal -4.60083823845924e-15 -3.0065464174998116e-15 -1.0
  outer loop
    vertex -81.64448161624405 11.710910871017868 5.696332294746752e-13
    vertex -90.8944816162432 13.460910871017505 3.355760114231998e-13
    vertex -88.82392925542301 13.733504260704915 1.5227819005758646e-13
  endloop
endfacet
facet normal -4.60083823845924e-15 -3.0065464174998116e-15 -1.0
  outer loop
    vertex -81.64448161624405 11.710910871017868 5.696332294746752e-13
    vertex -88.82392925542301 13.733504260704915 1.5227819005758646e-13
    vertex -86.89448161624297 14.532707640741911 6.203926261605374e-14
  endloop
endfacet
facet normal -4.60083823845924e-15 -3.0065464174998116e-15 -1.0
  outer loop
    vertex -81.64448161624405 11.710910871017868 5.696332294746752e-13
    vertex -86.89448161624297 14.532707640741911 6.203926261605374e-14
    vertex -85.23762736675026 15.804056621524985 8.459899447643692e-15
  endloop
endfacet
facet normal -4.60083823845924e-15 -3.0065464174998116e-15 -1.0
  outer loop
    vertex -81.64448161624405 11.710910871017868 5.696332294746752e-13
    vertex -85.23762736675026 15.804056621524985 8.459899447643692e-15
    vertex -83.96627838596736 17.46091087101734 2.3123725156892757e-13
  endloop
endfacet
facet normal -4.60083823845924e-15 -3.0065464174998116e-15 -1.0
  outer loop
    vertex -81.64448161624405 11.710910871017868 5.696332294746752e-13
    vertex -83.96627838596736 17.46091087101734 2.3123725156892757e-13
    vertex -83.16707500592999 19.390358510197128 -2.255973186038318e-14
  endloop
endfacet
facet normal -4.60083823845924e-15 -3.0065464174998116e-15 -1.0
  outer loop
    vertex -81.64448161624405 11.710910871017868 5.696332294746752e-13
    vertex -83.16707500592999 19.390358510197128 -2.255973186038318e-14
    vertex -82.89448161624298 21.460910871017322 3.9197534107415776e-13
  endloop
endfacet
facet normal -4.60083823845924e-15 -3.0065464174998116e-15 -1.0
  outer loop
    vertex -92.14448161624239 33.21091087101756 3.9550029917734904e-13
    vertex -90.89448161624276 29.46091087101752 4.258149388647325e-13
    vertex -92.96503397706284 29.18831748133016 3.8633540810906194e-13
  endloop
endfacet
facet normal -4.60083823845924e-15 -3.0065464174998116e-15 -1.0
  outer loop
    vertex -90.89448161624276 29.46091087101752 4.258149388647325e-13
    vertex -92.14448161624239 33.21091087101756 3.9550029917734904e-13
    vertex -89.64448161624196 33.21091087101754 3.870403997297053e-13
  endloop
endfacet
facet normal -4.60083823845924e-15 -3.0065464174998116e-15 -1.0
  outer loop
    vertex -90.89448161624276 29.46091087101752 4.258149388647325e-13
    vertex -89.64448161624196 33.21091087101754 3.870403997297053e-13
    vertex -88.82392925542256 29.188317481330046 3.440359108708435e-13
  endloop
endfacet
facet normal -4.60083823845924e-15 -3.0065464174998116e-15 -1.0
  outer loop
    vertex -88.82392925542256 29.188317481330046 3.440359108708435e-13
    vertex -89.64448161624196 33.21091087101754 3.870403997297053e-13
    vertex -89.64448161624183 39.710910871017504 4.716393942061287e-13
  endloop
endfacet
facet normal -4.60083823845924e-15 -3.0065464174998116e-15 -1.0
  outer loop
    vertex -88.82392925542256 29.188317481330046 3.440359108708435e-13
    vertex -89.64448161624183 39.710910871017504 4.716393942061287e-13
    vertex -86.64448161624206 39.71091087101746 4.039601986249791e-13
  endloop
endfacet
facet normal -4.60083823845924e-15 -3.0065464174998116e-15 -1.0
  outer loop
    vertex -88.82392925542256 29.188317481330046 3.440359108708435e-13
    vertex -86.64448161624206 39.71091087101746 4.039601986249791e-13
    vertex -86.89448161624257 28.389114101292936 2.143174526736402e-13
  endloop
endfacet
facet normal -4.60083823845924e-15 -3.0065464174998116e-15 -1.0
  outer loop
    vertex -86.89448161624257 28.389114101292936 2.143174526736402e-13
    vertex -86.64448161624206 39.71091087101746 4.039601986249791e-13
    vertex -85.23762736675008 27.117765120509773 2.425171174991192e-13
  endloop
endfacet
facet normal -4.60083823845924e-15 -3.0065464174998116e-15 -1.0
  outer loop
    vertex -85.23762736675008 27.117765120509773 2.425171174991192e-13
    vertex -86.64448161624206 39.71091087101746 4.039601986249791e-13
    vertex -86.64448161624198 48.710910871017575 5.4777848923494e-13
  endloop
endfacet
facet normal -4.60083823845924e-15 -3.0065464174998116e-15 -1.0
  outer loop
    vertex -86.64448161624198 48.710910871017575 5.4777848923494e-13
    vertex -89.64448161624173 48.710910871017575 5.505984557174879e-13
    vertex -89.64448161624173 55.21091087101759 6.182776512986265e-13
  endloop
endfacet
facet normal -1.9125740814039984e-15 -1.0052122935055172e-14 1.0
  outer loop
    vertex -89.64448161624206 36.29741094619514 1.0000000000004412
    vertex -86.64448161624256 39.71091087101746 1.000000000000642
    vertex -89.64448161624227 39.71091087101746 1.0000000000005094
  endloop
endfacet
facet normal -1.9125740814039984e-15 -1.0052122935055172e-14 1.0
  outer loop
    vertex -86.64448161624256 39.71091087101746 1.000000000000642
    vertex -89.64448161624206 36.29741094619514 1.0000000000004412
    vertex -87.64448161624185 38.297410946195114 1.0000000000004243
  endloop
endfacet
facet normal -1.9125740814039984e-15 -1.0052122935055172e-14 1.0
  outer loop
    vertex -86.64448161624256 39.71091087101746 1.000000000000642
    vertex -87.64448161624185 38.297410946195114 1.0000000000004243
    vertex -86.14448161624203 38.29741094619513 1.000000000000371
  endloop
endfacet
facet normal -1.9125740814039984e-15 -1.0052122935055172e-14 1.0
  outer loop
    vertex -86.64448161624256 39.71091087101746 1.000000000000642
    vertex -86.14448161624203 38.29741094619513 1.000000000000371
    vertex -86.64448161624242 48.71091087101753 1.0000000000006615
  endloop
endfacet
facet normal -1.9125740814039984e-15 -1.0052122935055172e-14 1.0
  outer loop
    vertex -86.64448161624242 48.71091087101753 1.0000000000006615
    vertex -89.64448161624178 52.210910871017596 1.0000000000005973
    vertex -89.64448161624219 48.710910871017575 1.0000000000005798
  endloop
endfacet
facet normal -1.9125740814039984e-15 -1.0052122935055172e-14 1.0
  outer loop
    vertex -89.64448161624178 52.210910871017596 1.0000000000005973
    vertex -86.64448161624242 48.71091087101753 1.0000000000006615
    vertex -87.64448161624179 50.21091087101758 1.0000000000005522
  endloop
endfacet
facet normal -1.9125740814039984e-15 -1.0052122935055172e-14 1.0
  outer loop
    vertex -87.64448161624179 50.21091087101758 1.0000000000005522
    vertex -86.64448161624242 48.71091087101753 1.0000000000006615
    vertex -86.14448161624199 50.21091087101755 1.0000000000005544
  endloop
endfacet
facet normal -1.9125740814039984e-15 -1.0052122935055172e-14 1.0
  outer loop
    vertex -86.14448161624199 50.21091087101755 1.0000000000005544
    vertex -86.64448161624242 48.71091087101753 1.0000000000006615
    vertex -86.14448161624203 38.29741094619513 1.000000000000371
  endloop
endfacet
facet normal -0.6087614290087141 -0.7933533402912403 -4.375154698906676e-15
  outer loop
    vertex -85.23762736675008 27.117765120509773 2.425171174991192e-13
    vertex -86.89448161624252 28.389114101292915 3.0000000000002767
    vertex -86.89448161624257 28.389114101292936 2.143174526736402e-13
  endloop
endfacet
facet normal -0.6087614290087141 -0.7933533402912403 -4.375154698906676e-15
  outer loop
    vertex -86.89448161624252 28.389114101292915 3.0000000000002767
    vertex -85.23762736675008 27.117765120509773 2.425171174991192e-13
    vertex -85.23762736675008 27.117765120509727 3.0000000000002904
  endloop
endfacet
facet normal -0.7071067811865506 -0.7071067811865446 -2.1911213712671066e-14
  outer loop
    vertex -89.6444816162418 52.210910871017546 3.0000000000005485
    vertex -87.64448161624179 50.21091087101758 1.0000000000005522
    vertex -87.6444816162418 50.210910871017525 3.0000000000005036
  endloop
endfacet
facet normal -0.7071067811865506 -0.7071067811865446 -2.1911213712671066e-14
  outer loop
    vertex -87.64448161624179 50.21091087101758 1.0000000000005522
    vertex -89.6444816162418 52.210910871017546 3.0000000000005485
    vertex -89.64448161624178 52.210910871017596 1.0000000000005973
  endloop
endfacet
facet normal -3.722355756963748e-14 -1.4099832412739829e-14 1.0
  outer loop
    vertex -89.6444816162425 32.21091087101754 1.0000000000003992
    vertex -92.14448161624212 33.21091087101754 1.0000000000003204
    vertex -92.14448161624215 32.21091087101756 1.0000000000003035
  endloop
endfacet
facet normal -3.722355756963748e-14 -1.4099832412739829e-14 1.0
  outer loop
    vertex -92.14448161624212 33.21091087101754 1.0000000000003204
    vertex -89.6444816162425 32.21091087101754 1.0000000000003992
    vertex -89.64448161624246 33.21091087101752 1.0000000000004106
  endloop
endfacet
facet normal -0.9914448613738439 -0.13052619221979728 -9.856623105111118e-16
  outer loop
    vertex -83.16707500592989 23.53146323183746 3.0000000000001497
    vertex -82.89448161624298 21.460910871017322 3.9197534107415776e-13
    vertex -82.89448161624294 21.4609108710173 3.000000000000381
  endloop
endfacet
facet normal -0.9914448613738439 -0.13052619221979728 -9.856623105111118e-16
  outer loop
    vertex -82.89448161624298 21.460910871017322 3.9197534107415776e-13
    vertex -83.16707500592989 23.53146323183746 3.0000000000001497
    vertex -83.16707500592985 23.53146323183748 6.485922909860164e-14
  endloop
endfacet
facet normal 2.9541270894763544e-27 -1.0 -2.2559731860384174e-14
  outer loop
    vertex -89.64448161624227 56.21091087101754 1.0000000000007405
    vertex -92.1444816162421 56.2109108710175 3.000000000000596
    vertex -92.14448161624192 56.21091087101759 1.0000000000006475
  endloop
endfacet
facet normal 2.9541270894763544e-27 -1.0 -2.2559731860384174e-14
  outer loop
    vertex -92.1444816162421 56.2109108710175 3.000000000000596
    vertex -89.64448161624227 56.21091087101754 1.0000000000007405
    vertex -89.64448161624182 56.21091087101754 3.0000000000006524
  endloop
endfacet
facet normal 2.49264537691652e-28 1.0 2.5379698342931264e-14
  outer loop
    vertex -87.64448161624185 38.297410946195114 1.0000000000004243
    vertex -86.14448161624213 38.297410946195065 3.0000000000003673
    vertex -86.14448161624203 38.29741094619513 1.000000000000371
  endloop
endfacet
facet normal 2.49264537691652e-28 1.0 2.5379698342931264e-14
  outer loop
    vertex -86.14448161624213 38.297410946195065 3.0000000000003673
    vertex -87.64448161624185 38.297410946195114 1.0000000000004243
    vertex -87.6444816162418 38.29741094619508 3.0000000000004037
  endloop
endfacet
facet normal -0.9238795325112428 -0.38268343236519625 -1.1263628986885909e-14
  outer loop
    vertex -83.96627838596719 25.460910871017315 3.0000000000003104
    vertex -83.16707500592985 23.53146323183748 6.485922909860164e-14
    vertex -83.16707500592989 23.53146323183746 3.0000000000001497
  endloop
endfacet
facet normal -0.9238795325112428 -0.38268343236519625 -1.1263628986885909e-14
  outer loop
    vertex -83.16707500592985 23.53146323183748 6.485922909860164e-14
    vertex -83.96627838596719 25.460910871017315 3.0000000000003104
    vertex -83.96627838596719 25.46091087101736 3.2429614549300823e-13
  endloop
endfacet
facet normal -1.0 -1.7527504337651082e-14 2.1933430780244224e-14
  outer loop
    vertex -89.64448161624182 56.21091087101754 3.0000000000006524
    vertex -89.64448161624178 52.210910871017596 1.0000000000005973
    vertex -89.6444816162418 52.210910871017546 3.0000000000005485
  endloop
endfacet
facet normal -1.0 -1.7527504337651082e-14 2.1933430780244224e-14
  outer loop
    vertex -89.64448161624178 52.210910871017596 1.0000000000005973
    vertex -89.64448161624182 56.21091087101754 3.0000000000006524
    vertex -89.64448161624222 55.21091087101759 1.000000000000594
  endloop
endfacet
facet normal -1.0 -1.7527504337651082e-14 2.1933430780244224e-14
  outer loop
    vertex -89.64448161624222 55.21091087101759 1.000000000000594
    vertex -89.64448161624182 56.21091087101754 3.0000000000006524
    vertex -89.64448161624227 56.21091087101754 1.0000000000007405
  endloop
endfacet
facet normal -1.0 -1.7527504337651082e-14 2.1933430780244224e-14
  outer loop
    vertex -89.64448161624178 52.210910871017596 1.0000000000005973
    vertex -89.64448161624173 48.710910871017575 5.505984557174879e-13
    vertex -89.64448161624219 48.710910871017575 1.0000000000005798
  endloop
endfacet
facet normal -1.0 -1.7527504337651082e-14 2.1933430780244224e-14
  outer loop
    vertex -89.64448161624173 48.710910871017575 5.505984557174879e-13
    vertex -89.64448161624178 52.210910871017596 1.0000000000005973
    vertex -89.64448161624173 55.21091087101759 6.182776512986265e-13
  endloop
endfacet
facet normal -1.0 -1.7527504337651082e-14 2.1933430780244224e-14
  outer loop
    vertex -89.64448161624173 55.21091087101759 6.182776512986265e-13
    vertex -89.64448161624178 52.210910871017596 1.0000000000005973
    vertex -89.64448161624222 55.21091087101759 1.000000000000594
  endloop
endfacet
facet normal 0.991444861373826 0.13052619221993395 5.36665063596802e-14
  outer loop
    vertex -98.62188822655519 19.39035851019758 3.158362460453645e-13
    vertex -98.89448161624254 21.460910871017727 3.000000000000175
    vertex -98.62188822655519 19.390358510197537 3.000000000000378
  endloop
endfacet
facet normal 0.991444861373826 0.13052619221993395 5.36665063596802e-14
  outer loop
    vertex -98.89448161624254 21.460910871017727 3.000000000000175
    vertex -98.62188822655519 19.39035851019758 3.158362460453645e-13
    vertex -98.89448161624223 21.460910871017752 1.127986593019159e-13
  endloop
endfacet
facet normal -0.3826834323650377 0.9238795325113083 1.3283684305508268e-14
  outer loop
    vertex -88.82392925542301 13.733504260704915 1.5227819005758646e-13
    vertex -86.89448161624297 14.532707640741865 3.000000000000141
    vertex -86.89448161624297 14.532707640741911 6.203926261605374e-14
  endloop
endfacet
facet normal -0.3826834323650377 0.9238795325113083 1.3283684305508268e-14
  outer loop
    vertex -86.89448161624297 14.532707640741865 3.000000000000141
    vertex -88.82392925542301 13.733504260704915 1.5227819005758646e-13
    vertex -88.82392925542297 13.733504260704892 3.0000000000002482
  endloop
endfacet
facet normal 0.9914448613738202 -0.1305261922199778 5.1205705938607475e-14
  outer loop
    vertex -98.89448161624223 21.460910871017752 1.127986593019159e-13
    vertex -98.62188822655509 23.53146323183789 3.0000000000003726
    vertex -98.89448161624254 21.460910871017727 3.000000000000175
  endloop
endfacet
facet normal 0.9914448613738202 -0.1305261922199778 5.1205705938607475e-14
  outer loop
    vertex -98.62188822655509 23.53146323183789 3.0000000000003726
    vertex -98.89448161624223 21.460910871017752 1.127986593019159e-13
    vertex -98.62188822655509 23.53146323183791 4.258149388647325e-13
  endloop
endfacet
facet normal 2.354491245844989e-15 -9.761688736198102e-15 1.0
  outer loop
    vertex -90.89448161624266 29.46091087101752 3.000000000000381
    vertex -92.14448161624237 32.2109108710175 3.000000000000294
    vertex -92.96503397706284 29.188317481330134 3.0000000000003637
  endloop
endfacet
facet normal 2.354491245844989e-15 -9.761688736198102e-15 1.0
  outer loop
    vertex -92.14448161624237 32.2109108710175 3.000000000000294
    vertex -90.89448161624266 29.46091087101752 3.000000000000381
    vertex -89.64448161624209 32.21091087101752 3.000000000000356
  endloop
endfacet
facet normal 2.354491245844989e-15 -9.761688736198102e-15 1.0
  outer loop
    vertex -89.64448161624209 32.21091087101752 3.000000000000356
    vertex -90.89448161624266 29.46091087101752 3.000000000000381
    vertex -88.82392925542251 29.18831748133 3.0000000000004374
  endloop
endfacet
facet normal 2.354491245844989e-15 -9.761688736198102e-15 1.0
  outer loop
    vertex -89.64448161624209 32.21091087101752 3.000000000000356
    vertex -88.82392925542251 29.18831748133 3.0000000000004374
    vertex -89.644481616242 36.29741094619511 3.0000000000004206
  endloop
endfacet
facet normal 2.354491245844989e-15 -9.761688736198102e-15 1.0
  outer loop
    vertex -89.644481616242 36.29741094619511 3.0000000000004206
    vertex -88.82392925542251 29.18831748133 3.0000000000004374
    vertex -87.6444816162418 38.29741094619508 3.0000000000004037
  endloop
endfacet
facet normal 2.354491245844989e-15 -9.761688736198102e-15 1.0
  outer loop
    vertex -87.6444816162418 38.29741094619508 3.0000000000004037
    vertex -88.82392925542251 29.18831748133 3.0000000000004374
    vertex -86.89448161624252 28.389114101292915 3.0000000000002767
  endloop
endfacet
facet normal 2.354491245844989e-15 -9.761688736198102e-15 1.0
  outer loop
    vertex -87.6444816162418 38.29741094619508 3.0000000000004037
    vertex -86.89448161624252 28.389114101292915 3.0000000000002767
    vertex -86.14448161624213 38.297410946195065 3.0000000000003673
  endloop
endfacet
facet normal 2.354491245844989e-15 -9.761688736198102e-15 1.0
  outer loop
    vertex -86.14448161624213 38.297410946195065 3.0000000000003673
    vertex -86.89448161624252 28.389114101292915 3.0000000000002767
    vertex -85.23762736675008 27.117765120509727 3.0000000000002904
  endloop
endfacet
facet normal 2.354491245844989e-15 -9.761688736198102e-15 1.0
  outer loop
    vertex -86.14448161624213 38.297410946195065 3.0000000000003673
    vertex -85.23762736675008 27.117765120509727 3.0000000000002904
    vertex -86.14448161624213 50.210910871017504 3.0000000000005085
  endloop
endfacet
facet normal 2.354491245844989e-15 -9.761688736198102e-15 1.0
  outer loop
    vertex -107.64448161624189 11.71091087101795 3.0000000000002376
    vertex -98.62188822655519 19.390358510197537 3.000000000000378
    vertex -107.64448161624186 60.71091087101755 3.0000000000006963
  endloop
endfacet
facet normal 2.354491245844989e-15 -9.761688736198102e-15 1.0
  outer loop
    vertex -98.62188822655519 19.390358510197537 3.000000000000378
    vertex -107.64448161624189 11.71091087101795 3.0000000000002376
    vertex -97.82268484651772 17.460910871017678 3.000000000000085
  endloop
endfacet
facet normal 2.354491245844989e-15 -9.761688736198102e-15 1.0
  outer loop
    vertex -97.82268484651772 17.460910871017678 3.000000000000085
    vertex -107.64448161624189 11.71091087101795 3.0000000000002376
    vertex -96.55133586573487 15.804056621525255 3.0000000000000875
  endloop
endfacet
facet normal 2.354491245844989e-15 -9.761688736198102e-15 1.0
  outer loop
    vertex -96.55133586573487 15.804056621525255 3.0000000000000875
    vertex -107.64448161624189 11.71091087101795 3.0000000000002376
    vertex -94.89448161624337 14.53270764074209 3.000000000000522
  endloop
endfacet
facet normal 2.354491245844989e-15 -9.761688736198102e-15 1.0
  outer loop
    vertex -94.89448161624337 14.53270764074209 3.000000000000522
    vertex -107.64448161624189 11.71091087101795 3.0000000000002376
    vertex -92.96503397706324 13.733504260705027 3.000000000000164
  endloop
endfacet
facet normal 2.354491245844989e-15 -9.761688736198102e-15 1.0
  outer loop
    vertex -92.96503397706324 13.733504260705027 3.000000000000164
    vertex -107.64448161624189 11.71091087101795 3.0000000000002376
    vertex -81.64448161624216 11.710910871017324 3.0000000000001457
  endloop
endfacet
facet normal 2.354491245844989e-15 -9.761688736198102e-15 1.0
  outer loop
    vertex -107.64448161624186 60.71091087101755 3.0000000000006963
    vertex -98.62188822655519 19.390358510197537 3.000000000000378
    vertex -98.89448161624254 21.460910871017727 3.000000000000175
  endloop
endfacet
facet normal 2.354491245844989e-15 -9.761688736198102e-15 1.0
  outer loop
    vertex -92.96503397706324 13.733504260705027 3.000000000000164
    vertex -81.64448161624216 11.710910871017324 3.0000000000001457
    vertex -90.89448161624316 13.460910871017484 3.0000000000002736
  endloop
endfacet
facet normal 2.354491245844989e-15 -9.761688736198102e-15 1.0
  outer loop
    vertex -90.89448161624316 13.460910871017484 3.0000000000002736
    vertex -81.64448161624216 11.710910871017324 3.0000000000001457
    vertex -88.82392925542297 13.733504260704892 3.0000000000002482
  endloop
endfacet
facet normal 2.354491245844989e-15 -9.761688736198102e-15 1.0
  outer loop
    vertex -88.82392925542297 13.733504260704892 3.0000000000002482
    vertex -81.64448161624216 11.710910871017324 3.0000000000001457
    vertex -86.89448161624297 14.532707640741865 3.000000000000141
  endloop
endfacet
facet normal 2.354491245844989e-15 -9.761688736198102e-15 1.0
  outer loop
    vertex -86.89448161624297 14.532707640741865 3.000000000000141
    vertex -81.64448161624216 11.710910871017324 3.0000000000001457
    vertex -85.23762736675026 15.80405662152494 3.0000000000001075
  endloop
endfacet
facet normal 2.354491245844989e-15 -9.761688736198102e-15 1.0
  outer loop
    vertex -85.23762736675026 15.80405662152494 3.0000000000001075
    vertex -81.64448161624216 11.710910871017324 3.0000000000001457
    vertex -83.96627838596731 17.460910871017298 3.0000000000001776
  endloop
endfacet
facet normal 2.354491245844989e-15 -9.761688736198102e-15 1.0
  outer loop
    vertex -83.96627838596731 17.460910871017298 3.0000000000001776
    vertex -81.64448161624216 11.710910871017324 3.0000000000001457
    vertex -83.16707500592999 19.390358510197107 3.0000000000000395
  endloop
endfacet
facet normal 2.354491245844989e-15 -9.761688736198102e-15 1.0
  outer loop
    vertex -83.16707500592999 19.390358510197107 3.0000000000000395
    vertex -81.64448161624216 11.710910871017324 3.0000000000001457
    vertex -82.89448161624294 21.4609108710173 3.000000000000381
  endloop
endfacet
facet normal 2.354491245844989e-15 -9.761688736198102e-15 1.0
  outer loop
    vertex -107.64448161624186 60.71091087101755 3.0000000000006963
    vertex -92.1444816162421 56.2109108710175 3.000000000000596
    vertex -81.64448161624215 60.710910871017326 3.0000000000006835
  endloop
endfacet
facet normal 2.354491245844989e-15 -9.761688736198102e-15 1.0
  outer loop
    vertex -92.1444816162421 56.2109108710175 3.000000000000596
    vertex -107.64448161624186 60.71091087101755 3.0000000000006963
    vertex -98.62188822655509 23.53146323183789 3.0000000000003726
  endloop
endfacet
facet normal 2.354491245844989e-15 -9.761688736198102e-15 1.0
  outer loop
    vertex -98.62188822655509 23.53146323183789 3.0000000000003726
    vertex -107.64448161624186 60.71091087101755 3.0000000000006963
    vertex -98.89448161624254 21.460910871017727 3.000000000000175
  endloop
endfacet
facet normal 2.354491245844989e-15 -9.761688736198102e-15 1.0
  outer loop
    vertex -92.1444816162421 56.2109108710175 3.000000000000596
    vertex -98.62188822655509 23.53146323183789 3.0000000000003726
    vertex -97.82268484651762 25.460910871017678 3.000000000000189
  endloop
endfacet
facet normal 2.354491245844989e-15 -9.761688736198102e-15 1.0
  outer loop
    vertex -92.1444816162421 56.2109108710175 3.000000000000596
    vertex -97.82268484651762 25.460910871017678 3.000000000000189
    vertex -96.55133586573469 27.117765120510043 3.000000000000271
  endloop
endfacet
facet normal 2.354491245844989e-15 -9.761688736198102e-15 1.0
  outer loop
    vertex -92.1444816162421 56.2109108710175 3.000000000000596
    vertex -96.55133586573469 27.117765120510043 3.000000000000271
    vertex -94.89448161624291 28.389114101293142 3.000000000000516
  endloop
endfacet
facet normal 2.354491245844989e-15 -9.761688736198102e-15 1.0
  outer loop
    vertex -92.1444816162421 56.2109108710175 3.000000000000596
    vertex -94.89448161624291 28.389114101293142 3.000000000000516
    vertex -92.96503397706284 29.188317481330134 3.0000000000003637
  endloop
endfacet
facet normal 2.354491245844989e-15 -9.761688736198102e-15 1.0
  outer loop
    vertex -92.1444816162421 56.2109108710175 3.000000000000596
    vertex -92.96503397706284 29.188317481330134 3.0000000000003637
    vertex -92.14448161624237 32.2109108710175 3.000000000000294
  endloop
endfacet
facet normal 2.354491245844989e-15 -9.761688736198102e-15 1.0
  outer loop
    vertex -81.64448161624215 60.710910871017326 3.0000000000006835
    vertex -92.1444816162421 56.2109108710175 3.000000000000596
    vertex -89.64448161624182 56.21091087101754 3.0000000000006524
  endloop
endfacet
facet normal 2.354491245844989e-15 -9.761688736198102e-15 1.0
  outer loop
    vertex -81.64448161624215 60.710910871017326 3.0000000000006835
    vertex -89.64448161624182 56.21091087101754 3.0000000000006524
    vertex -89.6444816162418 52.210910871017546 3.0000000000005485
  endloop
endfacet
facet normal 2.354491245844989e-15 -9.761688736198102e-15 1.0
  outer loop
    vertex -81.64448161624215 60.710910871017326 3.0000000000006835
    vertex -89.6444816162418 52.210910871017546 3.0000000000005485
    vertex -87.6444816162418 50.210910871017525 3.0000000000005036
  endloop
endfacet
facet normal 2.354491245844989e-15 -9.761688736198102e-15 1.0
  outer loop
    vertex -81.64448161624215 60.710910871017326 3.0000000000006835
    vertex -87.6444816162418 50.210910871017525 3.0000000000005036
    vertex -86.14448161624213 50.210910871017504 3.0000000000005085
  endloop
endfacet
facet normal 2.354491245844989e-15 -9.761688736198102e-15 1.0
  outer loop
    vertex -81.64448161624215 60.710910871017326 3.0000000000006835
    vertex -86.14448161624213 50.210910871017504 3.0000000000005085
    vertex -85.23762736675008 27.117765120509727 3.0000000000002904
  endloop
endfacet
facet normal 2.354491245844989e-15 -9.761688736198102e-15 1.0
  outer loop
    vertex -81.64448161624215 60.710910871017326 3.0000000000006835
    vertex -85.23762736675008 27.117765120509727 3.0000000000002904
    vertex -83.96627838596719 25.460910871017315 3.0000000000003104
  endloop
endfacet
facet normal 2.354491245844989e-15 -9.761688736198102e-15 1.0
  outer loop
    vertex -81.64448161624215 60.710910871017326 3.0000000000006835
    vertex -83.96627838596719 25.460910871017315 3.0000000000003104
    vertex -83.16707500592989 23.53146323183746 3.0000000000001497
  endloop
endfacet
facet normal 2.354491245844989e-15 -9.761688736198102e-15 1.0
  outer loop
    vertex -81.64448161624215 60.710910871017326 3.0000000000006835
    vertex -83.16707500592989 23.53146323183746 3.0000000000001497
    vertex -82.89448161624294 21.4609108710173 3.000000000000381
  endloop
endfacet
facet normal 2.354491245844989e-15 -9.761688736198102e-15 1.0
  outer loop
    vertex -81.64448161624215 60.710910871017326 3.0000000000006835
    vertex -82.89448161624294 21.4609108710173 3.000000000000381
    vertex -81.64448161624216 11.710910871017324 3.0000000000001457
  endloop
endfacet
facet normal 0.13052619222009212 0.991444861373805 7.809438600015723e-16
  outer loop
    vertex -92.96503397706324 13.733504260705027 3.000000000000164
    vertex -90.8944816162432 13.460910871017505 3.355760114231998e-13
    vertex -92.96503397706334 13.733504260705027 2.848166147373376e-13
  endloop
endfacet
facet normal 0.13052619222009212 0.991444861373805 7.809438600015723e-16
  outer loop
    vertex -90.8944816162432 13.460910871017505 3.355760114231998e-13
    vertex -92.96503397706324 13.733504260705027 3.000000000000164
    vertex -90.89448161624316 13.460910871017484 3.0000000000002736
  endloop
endfacet
facet normal -0.9914448613738371 0.13052619221984832 8.437873050410346e-15
  outer loop
    vertex -82.89448161624294 21.4609108710173 3.000000000000381
    vertex -83.16707500592999 19.390358510197128 -2.255973186038318e-14
    vertex -83.16707500592999 19.390358510197107 3.0000000000000395
  endloop
endfacet
facet normal -0.9914448613738371 0.13052619221984832 8.437873050410346e-15
  outer loop
    vertex -83.16707500592999 19.390358510197128 -2.255973186038318e-14
    vertex -82.89448161624294 21.4609108710173 3.000000000000381
    vertex -82.89448161624298 21.460910871017322 3.9197534107415776e-13
  endloop
endfacet
facet normal 0.7933533402913163 0.6087614290086147 -5.06568249538864e-15
  outer loop
    vertex -96.55133586573496 15.8040566215253 8.741896095898482e-14
    vertex -97.82268484651772 17.460910871017678 3.000000000000085
    vertex -96.55133586573487 15.804056621525255 3.0000000000000875
  endloop
endfacet
facet normal 0.7933533402913163 0.6087614290086147 -5.06568249538864e-15
  outer loop
    vertex -97.82268484651772 17.460910871017678 3.000000000000085
    vertex -96.55133586573496 15.8040566215253 8.741896095898482e-14
    vertex -97.82268484651772 17.460910871017703 6.203926261605374e-14
  endloop
endfacet
facet normal -1.3503301041432256e-14 -1.0 -8.976893302777582e-14
  outer loop
    vertex -81.64448161624405 11.710910871017868 5.696332294746752e-13
    vertex -107.64448161624189 11.71091087101795 3.0000000000002376
    vertex -107.6444816162417 11.710910871017944 4.049736240796446e-13
  endloop
endfacet
facet normal -1.3503301041432256e-14 -1.0 -8.976893302777582e-14
  outer loop
    vertex -107.64448161624189 11.71091087101795 3.0000000000002376
    vertex -81.64448161624405 11.710910871017868 5.696332294746752e-13
    vertex -81.64448161624216 11.710910871017324 3.0000000000001457
  endloop
endfacet
facet normal -1.0 1.2690550306841814e-14 -4.511946372079133e-14
  outer loop
    vertex -107.64448161624189 11.71091087101795 3.0000000000002376
    vertex -107.6444816162417 60.71091087101796 6.63022588220926e-13
    vertex -107.6444816162417 11.710910871017944 4.049736240796446e-13
  endloop
endfacet
facet normal -1.0 1.2690550306841814e-14 -4.511946372079133e-14
  outer loop
    vertex -107.6444816162417 60.71091087101796 6.63022588220926e-13
    vertex -107.64448161624189 11.71091087101795 3.0000000000002376
    vertex -107.64448161624186 60.71091087101755 3.0000000000006963
  endloop
endfacet
facet normal 4.3384099731524186e-15 1.0 1.7295794426292483e-13
  outer loop
    vertex -107.6444816162417 60.71091087101796 6.63022588220926e-13
    vertex -81.64448161624215 60.710910871017326 3.0000000000006835
    vertex -81.6444816162424 60.71091087101796 1.6699227343097255e-13
  endloop
endfacet
facet normal 4.3384099731524186e-15 1.0 1.7295794426292483e-13
  outer loop
    vertex -81.64448161624215 60.710910871017326 3.0000000000006835
    vertex -107.6444816162417 60.71091087101796 6.63022588220926e-13
    vertex -107.64448161624186 60.71091087101755 3.0000000000006963
  endloop
endfacet
endsolid Controller
