solid Controller
facet normal 1.1247786445709014e-13 -2.0193988166886395e-15 1.0
  outer loop
    vertex -51.41531014887506 212.56047329701215 13.000000000009065
    vertex -48.41531014887647 227.56047329701258 13.000000000008848
    vertex -51.41531014887615 227.56047329701238 13.000000000009152
  endloop
endfacet
facet normal 1.1247786445709014e-13 -2.0193988166886395e-15 1.0
  outer loop
    vertex -48.41531014887647 227.56047329701258 13.000000000008848
    vertex -51.41531014887506 212.56047329701215 13.000000000009065
    vertex -48.415310148875655 215.56047329701238 13.000000000008797
  endloop
endfacet
facet normal 1.1247786445709014e-13 -2.0193988166886395e-15 1.0
  outer loop
    vertex -48.415310148875655 215.56047329701238 13.000000000008797
    vertex -51.41531014887506 212.56047329701215 13.000000000009065
    vertex -28.41531014887551 212.56047329701377 13.000000000006464
  endloop
endfacet
facet normal 1.1247786445709014e-13 -2.0193988166886395e-15 1.0
  outer loop
    vertex -48.415310148875655 215.56047329701238 13.000000000008797
    vertex -28.41531014887551 212.56047329701377 13.000000000006464
    vertex -28.415310148875417 215.56047329701371 13.000000000006535
  endloop
endfacet
facet normal -1.1771234274868595e-13 -9.788487377584373e-15 -1.0
  outer loop
    vertex 24.584689851122395 227.5604732970178 -8.788200220396382e-15
    vertex -51.41531014887655 212.56047329701215 9.120153966408804e-12
    vertex -51.41531014887769 227.5604732970122 9.154222890405233e-12
  endloop
endfacet
facet normal -1.1771234274868595e-13 -9.788487377584373e-15 -1.0
  outer loop
    vertex -51.41531014887655 212.56047329701215 9.120153966408804e-12
    vertex 24.584689851122395 227.5604732970178 -8.788200220396382e-15
    vertex -31.41531014887654 212.56047329701352 6.879972592672757e-12
  endloop
endfacet
facet normal -1.1771234274868595e-13 -9.788487377584373e-15 -1.0
  outer loop
    vertex -31.41531014887654 212.56047329701352 6.879972592672757e-12
    vertex 24.584689851122395 227.5604732970178 -8.788200220396382e-15
    vertex -31.415310148875854 201.56047329701383 6.949262787015948e-12
  endloop
endfacet
facet normal -1.1771234274868595e-13 -9.788487377584373e-15 -1.0
  outer loop
    vertex -31.415310148875854 201.56047329701383 6.949262787015948e-12
    vertex 24.584689851122395 227.5604732970178 -8.788200220396382e-15
    vertex 24.584689851124544 201.56047329701823 3.4226931617173177e-13
  endloop
endfacet
facet normal 1.0 9.023892744153267e-14 -3.0079642480515736e-14
  outer loop
    vertex 24.584689851124544 201.56047329701823 3.4226931617173177e-13
    vertex 24.584689851122214 227.56047329701835 3.0000000000001665
    vertex 24.584689851124907 201.56047329701806 3.00000000000063
  endloop
endfacet
facet normal 1.0 9.023892744153267e-14 -3.0079642480515736e-14
  outer loop
    vertex 24.584689851122214 227.56047329701835 3.0000000000001665
    vertex 24.584689851124544 201.56047329701823 3.4226931617173177e-13
    vertex 24.584689851122395 227.5604732970178 -8.788200220396382e-15
  endloop
endfacet
facet normal 6.931162285768197e-14 -1.0 2.186050715049504e-15
  outer loop
    vertex -28.41531014887551 212.56047329701377 13.000000000006464
    vertex -31.415310148875413 212.56047329701352 10.000000000006906
    vertex -28.415310148875868 212.56047329701377 10.000000000006365
  endloop
endfacet
facet normal 6.931162285768197e-14 -1.0 2.186050715049504e-15
  outer loop
    vertex -31.415310148875413 212.56047329701352 10.000000000006906
    vertex -51.41531014887655 212.56047329701215 9.120153966408804e-12
    vertex -31.41531014887654 212.56047329701352 6.879972592672757e-12
  endloop
endfacet
facet normal 6.931162285768197e-14 -1.0 2.186050715049504e-15
  outer loop
    vertex -51.41531014887655 212.56047329701215 9.120153966408804e-12
    vertex -31.415310148875413 212.56047329701352 10.000000000006906
    vertex -51.41531014887506 212.56047329701215 13.000000000009065
  endloop
endfacet
facet normal 6.931162285768197e-14 -1.0 2.186050715049504e-15
  outer loop
    vertex -51.41531014887506 212.56047329701215 13.000000000009065
    vertex -31.415310148875413 212.56047329701352 10.000000000006906
    vertex -28.41531014887551 212.56047329701377 13.000000000006464
  endloop
endfacet
facet normal -1.0 -7.519910620127669e-14 1.1626938728043713e-13
  outer loop
    vertex -51.41531014887615 227.56047329701238 13.000000000009152
    vertex -51.41531014887655 212.56047329701215 9.120153966408804e-12
    vertex -51.41531014887506 212.56047329701215 13.000000000009065
  endloop
endfacet
facet normal -1.0 -7.519910620127669e-14 1.1626938728043713e-13
  outer loop
    vertex -51.41531014887655 212.56047329701215 9.120153966408804e-12
    vertex -51.41531014887615 227.56047329701238 13.000000000009152
    vertex -51.41531014887769 227.5604732970122 9.154222890405233e-12
  endloop
endfacet
facet normal -7.748639621393217e-14 1.0 -1.712369491354503e-14
  outer loop
    vertex -51.41531014887769 227.5604732970122 9.154222890405233e-12
    vertex 24.584689851122214 227.56047329701835 3.0000000000001665
    vertex 24.584689851122395 227.5604732970178 -8.788200220396382e-15
  endloop
endfacet
facet normal -7.748639621393217e-14 1.0 -1.712369491354503e-14
  outer loop
    vertex 24.584689851122214 227.56047329701835 3.0000000000001665
    vertex -51.41531014887769 227.5604732970122 9.154222890405233e-12
    vertex -48.41531014887756 227.5604732970125 3.0000000000088334
  endloop
endfacet
facet normal -7.748639621393217e-14 1.0 -1.712369491354503e-14
  outer loop
    vertex -48.41531014887756 227.5604732970125 3.0000000000088334
    vertex -51.41531014887769 227.5604732970122 9.154222890405233e-12
    vertex -51.41531014887615 227.56047329701238 13.000000000009152
  endloop
endfacet
facet normal -7.748639621393217e-14 1.0 -1.712369491354503e-14
  outer loop
    vertex -48.41531014887756 227.5604732970125 3.0000000000088334
    vertex -51.41531014887615 227.56047329701238 13.000000000009152
    vertex -48.41531014887647 227.56047329701258 13.000000000008848
  endloop
endfacet
facet normal -6.767919558114883e-14 1.0 7.478847652928549e-27
  outer loop
    vertex -48.415310148876735 215.56047329701238 3.000000000008793
    vertex -28.415310148875417 215.56047329701371 13.000000000006535
    vertex -28.415310148876546 215.56047329701371 3.0000000000065974
  endloop
endfacet
facet normal -6.767919558114883e-14 1.0 7.478847652928549e-27
  outer loop
    vertex -28.415310148875417 215.56047329701371 13.000000000006535
    vertex -48.415310148876735 215.56047329701238 3.000000000008793
    vertex -48.415310148875655 215.56047329701238 13.000000000008797
  endloop
endfacet
facet normal -1.0 -6.76791955811508e-14 1.1505463248795434e-13
  outer loop
    vertex -31.415310148874678 201.5604732970139 10.000000000006953
    vertex -31.41531014887654 212.56047329701352 6.879972592672757e-12
    vertex -31.415310148875854 201.56047329701383 6.949262787015948e-12
  endloop
endfacet
facet normal -1.0 -6.76791955811508e-14 1.1505463248795434e-13
  outer loop
    vertex -31.41531014887654 212.56047329701352 6.879972592672757e-12
    vertex -31.415310148874678 201.5604732970139 10.000000000006953
    vertex -31.415310148875413 212.56047329701352 10.000000000006906
  endloop
endfacet
facet normal 1.0 7.68090595338821e-14 -9.764926759051441e-14
  outer loop
    vertex -28.415310148876546 215.56047329701371 3.0000000000065974
    vertex -28.415310148874774 201.56047329701408 10.000000000006569
    vertex -28.41531014887554 201.560473297014 3.0000000000065827
  endloop
endfacet
facet normal 1.0 7.68090595338821e-14 -9.764926759051441e-14
  outer loop
    vertex -28.415310148874774 201.56047329701408 10.000000000006569
    vertex -28.415310148876546 215.56047329701371 3.0000000000065974
    vertex -28.415310148875868 212.56047329701377 10.000000000006365
  endloop
endfacet
facet normal 1.0 7.68090595338821e-14 -9.764926759051441e-14
  outer loop
    vertex -28.415310148875868 212.56047329701377 10.000000000006365
    vertex -28.415310148876546 215.56047329701371 3.0000000000065974
    vertex -28.41531014887551 212.56047329701377 13.000000000006464
  endloop
endfacet
facet normal 1.0 7.68090595338821e-14 -9.764926759051441e-14
  outer loop
    vertex -28.41531014887551 212.56047329701377 13.000000000006464
    vertex -28.415310148876546 215.56047329701371 3.0000000000065974
    vertex -28.415310148875417 215.56047329701371 13.000000000006535
  endloop
endfacet
facet normal 7.756891694469217e-14 -1.0 4.9754794281084924e-15
  outer loop
    vertex 24.584689851124907 201.56047329701806 3.00000000000063
    vertex -31.415310148875854 201.56047329701383 6.949262787015948e-12
    vertex 24.584689851124544 201.56047329701823 3.4226931617173177e-13
  endloop
endfacet
facet normal 7.756891694469217e-14 -1.0 4.9754794281084924e-15
  outer loop
    vertex -31.415310148875854 201.56047329701383 6.949262787015948e-12
    vertex 24.584689851124907 201.56047329701806 3.00000000000063
    vertex -28.41531014887554 201.560473297014 3.0000000000065827
  endloop
endfacet
facet normal 7.756891694469217e-14 -1.0 4.9754794281084924e-15
  outer loop
    vertex -31.415310148875854 201.56047329701383 6.949262787015948e-12
    vertex -28.41531014887554 201.560473297014 3.0000000000065827
    vertex -31.415310148874678 201.5604732970139 10.000000000006953
  endloop
endfacet
facet normal 7.756891694469217e-14 -1.0 4.9754794281084924e-15
  outer loop
    vertex -31.415310148874678 201.5604732970139 10.000000000006953
    vertex -28.41531014887554 201.560473297014 3.0000000000065827
    vertex -28.415310148874774 201.56047329701408 10.000000000006569
  endloop
endfacet
facet normal 1.1499271721195981e-13 1.0085333112221224e-14 1.0
  outer loop
    vertex -48.415310148876735 215.56047329701238 3.000000000008793
    vertex 24.584689851122214 227.56047329701835 3.0000000000001665
    vertex -48.41531014887756 227.5604732970125 3.0000000000088334
  endloop
endfacet
facet normal 1.1499271721195981e-13 1.0085333112221224e-14 1.0
  outer loop
    vertex 24.584689851122214 227.56047329701835 3.0000000000001665
    vertex -48.415310148876735 215.56047329701238 3.000000000008793
    vertex -28.415310148876546 215.56047329701371 3.0000000000065974
  endloop
endfacet
facet normal 1.1499271721195981e-13 1.0085333112221224e-14 1.0
  outer loop
    vertex 24.584689851122214 227.56047329701835 3.0000000000001665
    vertex -28.415310148876546 215.56047329701371 3.0000000000065974
    vertex -28.41531014887554 201.560473297014 3.0000000000065827
  endloop
endfacet
facet normal 1.1499271721195981e-13 1.0085333112221224e-14 1.0
  outer loop
    vertex 24.584689851122214 227.56047329701835 3.0000000000001665
    vertex -28.41531014887554 201.560473297014 3.0000000000065827
    vertex 24.584689851124907 201.56047329701806 3.00000000000063
  endloop
endfacet
facet normal 1.5415816771263021e-13 1.0172021954917883e-14 1.0
  outer loop
    vertex -31.415310148874678 201.5604732970139 10.000000000006953
    vertex -28.415310148875868 212.56047329701377 10.000000000006365
    vertex -31.415310148875413 212.56047329701352 10.000000000006906
  endloop
endfacet
facet normal 1.5415816771263021e-13 1.0172021954917883e-14 1.0
  outer loop
    vertex -28.415310148875868 212.56047329701377 10.000000000006365
    vertex -31.415310148874678 201.5604732970139 10.000000000006953
    vertex -28.415310148874774 201.56047329701408 10.000000000006569
  endloop
endfacet
facet normal 1.0 7.068715982919986e-14 -1.0828671292983948e-13
  outer loop
    vertex -48.41531014887756 227.5604732970125 3.0000000000088334
    vertex -48.415310148875655 215.56047329701238 13.000000000008797
    vertex -48.415310148876735 215.56047329701238 3.000000000008793
  endloop
endfacet
facet normal 1.0 7.068715982919986e-14 -1.0828671292983948e-13
  outer loop
    vertex -48.415310148875655 215.56047329701238 13.000000000008797
    vertex -48.41531014887756 227.5604732970125 3.0000000000088334
    vertex -48.41531014887647 227.56047329701258 13.000000000008848
  endloop
endfacet
endsolid Controller
