solid Controller
facet normal -6.627696479587996e-15 1.0 -3.9479530755671156e-14
  outer loop
    vertex 54.92527514082001 135.2098548631749 3.0000000000010716
    vertex 66.83877506564201 135.2098548631749 1.0000000000017804
    vertex 54.92527514081939 135.20985486317483 1.0000000000012108
  endloop
endfacet
facet normal -6.627696479587996e-15 1.0 -3.9479530755671156e-14
  outer loop
    vertex 66.83877506564201 135.2098548631749 1.0000000000017804
    vertex 54.92527514082001 135.2098548631749 3.0000000000010716
    vertex 66.83877506564237 135.20985486317497 3.0000000000016867
  endloop
endfacet
facet normal -1.0 -3.759955310063273e-14 -5.639932965095789e-13
  outer loop
    vertex 65.33877506564212 135.7098548631749 1.0000000000010303
    vertex 65.33877506564258 138.70985486317468 1.0828671292983925e-12
    vertex 65.33877506564262 135.70985486317483 9.982681348219558e-13
  endloop
endfacet
facet normal -1.0 -3.759955310063273e-14 -5.639932965095789e-13
  outer loop
    vertex 65.33877506564258 138.70985486317468 1.0828671292983925e-12
    vertex 65.33877506564212 135.7098548631749 1.0000000000010303
    vertex 65.33877506564194 138.70985486317477 1.0000000000010303
  endloop
endfacet
facet normal -2.947630081447678e-14 1.0 -4.3939012635078424e-15
  outer loop
    vertex 65.33877506564194 138.70985486317477 1.0000000000010303
    vertex 71.33877506564257 138.70985486317466 2.594369163944066e-12
    vertex 65.33877506564258 138.70985486317468 1.0828671292983925e-12
  endloop
endfacet
facet normal -2.947630081447678e-14 1.0 -4.3939012635078424e-15
  outer loop
    vertex 71.33877506564257 138.70985486317466 2.594369163944066e-12
    vertex 65.33877506564194 138.70985486317477 1.0000000000010303
    vertex 71.33877506564302 138.7098548631751 1.0000000000026321
  endloop
endfacet
facet normal -2.947630081447678e-14 1.0 -4.3939012635078424e-15
  outer loop
    vertex 71.33877506564302 138.7098548631751 1.0000000000026321
    vertex 65.33877506564194 138.70985486317477 1.0000000000010303
    vertex 66.83877506564193 138.7098548631748 1.000000000001707
  endloop
endfacet
facet normal -2.947630081447678e-14 1.0 -4.3939012635078424e-15
  outer loop
    vertex 71.33877506564302 138.7098548631751 1.0000000000026321
    vertex 66.83877506564193 138.7098548631748 1.000000000001707
    vertex 66.83877506564228 138.7098548631748 3.000000000001602
  endloop
endfacet
facet normal -2.947630081447678e-14 1.0 -4.3939012635078424e-15
  outer loop
    vertex 71.33877506564302 138.7098548631751 1.0000000000026321
    vertex 66.83877506564228 138.7098548631748 3.000000000001602
    vertex 72.33877506564225 138.7098548631748 3.0000000000014833
  endloop
endfacet
facet normal -2.947630081447678e-14 1.0 -4.3939012635078424e-15
  outer loop
    vertex 72.33877506564225 138.7098548631748 3.0000000000014833
    vertex 72.33877506564284 138.7098548631751 1.000000000001662
    vertex 71.33877506564302 138.7098548631751 1.0000000000026321
  endloop
endfacet
facet normal 1.0 -2.4708121262300334e-15 -8.419759037874635e-15
  outer loop
    vertex 49.338775065641364 141.2098548631751 1.0000000000008948
    vertex 49.33877506564231 141.209854863175 3.000000000000846
    vertex 49.33877506564146 138.709854863175 1.0000000000009852
  endloop
endfacet
facet normal 1.0 -2.4708121262300334e-15 -8.419759037874635e-15
  outer loop
    vertex 49.33877506564236 138.70985486317485 3.000000000000835
    vertex 49.33877506564228 132.20985486317517 42.00000000000023
    vertex 49.33877506564228 132.20985486317497 3.0000000000005222
  endloop
endfacet
facet normal 1.0 -2.4708121262300334e-15 -8.419759037874635e-15
  outer loop
    vertex 49.33877506564228 132.20985486317517 42.00000000000023
    vertex 49.33877506564236 138.70985486317485 3.000000000000835
    vertex 49.338775065642245 158.20985486317463 41.99999999999974
  endloop
endfacet
facet normal 1.0 -2.4708121262300334e-15 -8.419759037874635e-15
  outer loop
    vertex 49.338775065642245 158.20985486317463 41.99999999999974
    vertex 49.33877506564236 138.70985486317485 3.000000000000835
    vertex 49.33877506564146 138.709854863175 1.0000000000009852
  endloop
endfacet
facet normal 1.0 -2.4708121262300334e-15 -8.419759037874635e-15
  outer loop
    vertex 49.338775065642245 158.20985486317463 41.99999999999974
    vertex 49.33877506564146 138.709854863175 1.0000000000009852
    vertex 49.33877506564231 141.209854863175 3.000000000000846
  endloop
endfacet
facet normal 1.0 -2.4708121262300334e-15 -8.419759037874635e-15
  outer loop
    vertex 49.338775065642245 158.20985486317463 41.99999999999974
    vertex 49.33877506564231 141.209854863175 3.000000000000846
    vertex 49.338775065642245 158.20985486317485 3.000000000000546
  endloop
endfacet
facet normal 1.046207565025485e-12 2.594369163947723e-14 1.0
  outer loop
    vertex 49.33877506564146 138.709854863175 1.0000000000009852
    vertex 50.33877506564116 141.20985486317508 0.9999999999998741
    vertex 49.338775065641364 141.2098548631751 1.0000000000008948
  endloop
endfacet
facet normal 1.046207565025485e-12 2.594369163947723e-14 1.0
  outer loop
    vertex 50.33877506564116 141.20985486317508 0.9999999999998741
    vertex 49.33877506564146 138.709854863175 1.0000000000009852
    vertex 50.33877506564125 138.70985486317497 0.9999999999999135
  endloop
endfacet
facet normal 0.0 1.0 0.0
  outer loop
    vertex 52.33877506564249 143.2098548631748 3.0000000000004796
    vertex 75.33877506564276 143.2098548631748 4.963141009284299e-13
    vertex 52.33877506564281 143.2098548631748 4.68114436102951e-13
  endloop
endfacet
facet normal 0.0 1.0 0.0
  outer loop
    vertex 75.33877506564276 143.2098548631748 4.963141009284299e-13
    vertex 52.33877506564249 143.2098548631748 3.0000000000004796
    vertex 75.33877506564278 143.2098548631748 3.0000000000004627
  endloop
endfacet
facet normal 1.0 1.2533184366879644e-15 6.76791955811486e-14
  outer loop
    vertex 52.3387750656426 158.20985486317488 4.668692847692962e-13
    vertex 52.33877506564249 143.2098548631748 3.0000000000004796
    vertex 52.33877506564281 143.2098548631748 4.68114436102951e-13
  endloop
endfacet
facet normal 1.0 1.2533184366879644e-15 6.76791955811486e-14
  outer loop
    vertex 52.33877506564249 143.2098548631748 3.0000000000004796
    vertex 52.3387750656426 158.20985486317488 4.668692847692962e-13
    vertex 52.33877506564251 158.20985486317485 3.000000000000518
  endloop
endfacet
facet normal 1.0039080677871896e-12 4.511946372078293e-14 1.0
  outer loop
    vertex 71.33877506564302 138.7098548631751 1.0000000000026321
    vertex 72.33877506564284 141.2098548631752 1.0000000000015152
    vertex 71.33877506564292 141.2098548631752 1.000000000002553
  endloop
endfacet
facet normal 1.0039080677871896e-12 4.511946372078293e-14 1.0
  outer loop
    vertex 72.33877506564284 141.2098548631752 1.0000000000015152
    vertex 71.33877506564302 138.7098548631751 1.0000000000026321
    vertex 72.33877506564284 138.7098548631751 1.000000000001662
  endloop
endfacet
facet normal -1.0 -9.023892744164992e-15 -3.0455638011519463e-13
  outer loop
    vertex 72.3387750656422 141.20985486317488 3.0000000000014326
    vertex 72.33877506564284 138.7098548631751 1.000000000001662
    vertex 72.33877506564225 138.7098548631748 3.0000000000014833
  endloop
endfacet
facet normal -1.0 -9.023892744164992e-15 -3.0455638011519463e-13
  outer loop
    vertex 72.33877506564284 138.7098548631751 1.000000000001662
    vertex 72.3387750656422 141.20985486317488 3.0000000000014326
    vertex 72.33877506564284 141.2098548631752 1.0000000000015152
  endloop
endfacet
facet normal 8.708087765927626e-15 -1.0 1.0111231171658293e-14
  outer loop
    vertex 49.33877506564228 132.20985486317497 3.0000000000005222
    vertex 46.33877506564303 132.2098548631753 42.00000000000022
    vertex 46.33877506564287 132.2098548631749 6.120657299015243e-13
  endloop
endfacet
facet normal 8.708087765927626e-15 -1.0 1.0111231171658293e-14
  outer loop
    vertex 46.33877506564303 132.2098548631753 42.00000000000022
    vertex 49.33877506564228 132.20985486317497 3.0000000000005222
    vertex 49.33877506564228 132.20985486317517 42.00000000000023
  endloop
endfacet
facet normal 8.708087765927626e-15 -1.0 1.0111231171658293e-14
  outer loop
    vertex 75.33877506564274 132.20985486317517 3.000000000000528
    vertex 46.33877506564287 132.2098548631749 6.120657299015243e-13
    vertex 75.33877506564274 132.2098548631752 4.321408096228802e-13
  endloop
endfacet
facet normal 8.708087765927626e-15 -1.0 1.0111231171658293e-14
  outer loop
    vertex 46.33877506564287 132.2098548631749 6.120657299015243e-13
    vertex 75.33877506564274 132.20985486317517 3.000000000000528
    vertex 49.33877506564228 132.20985486317497 3.0000000000005222
  endloop
endfacet
facet normal -1.0 -3.609557097660864e-14 4.511946372076905e-13
  outer loop
    vertex 71.33877506564302 138.7098548631751 1.0000000000026321
    vertex 71.33877506564248 141.20985486317477 2.639488627664832e-12
    vertex 71.33877506564257 138.70985486317466 2.594369163944066e-12
  endloop
endfacet
facet normal -1.0 -3.609557097660864e-14 4.511946372076905e-13
  outer loop
    vertex 71.33877506564248 141.20985486317477 2.639488627664832e-12
    vertex 71.33877506564302 138.7098548631751 1.0000000000026321
    vertex 71.33877506564292 141.2098548631752 1.000000000002553
  endloop
endfacet
facet normal 1.0 3.222818837197387e-14 -2.8199664825480097e-13
  outer loop
    vertex 54.92527514081934 138.7098548631748 1.0000000000011204
    vertex 54.92527514082001 135.2098548631749 3.0000000000010716
    vertex 54.92527514081939 135.20985486317483 1.0000000000012108
  endloop
endfacet
facet normal 1.0 3.222818837197387e-14 -2.8199664825480097e-13
  outer loop
    vertex 54.92527514082001 135.2098548631749 3.0000000000010716
    vertex 54.92527514081934 138.7098548631748 1.0000000000011204
    vertex 54.925275140819835 138.7098548631748 3.0000000000011
  endloop
endfacet
facet normal -1.0 -7.75490782700662e-15 6.192867569517125e-15
  outer loop
    vertex 46.33877506564303 132.2098548631753 42.00000000000022
    vertex 46.33877506564243 158.2098548631748 4.832361490601622e-13
    vertex 46.33877506564287 132.2098548631749 6.120657299015243e-13
  endloop
endfacet
facet normal -1.0 -7.75490782700662e-15 6.192867569517125e-15
  outer loop
    vertex 46.33877506564243 158.2098548631748 4.832361490601622e-13
    vertex 46.33877506564303 132.2098548631753 42.00000000000022
    vertex 46.338775065642906 158.20985486317548 41.99999999999973
  endloop
endfacet
facet normal 2.1893196155180878e-14 1.0 -1.0654633049588932e-14
  outer loop
    vertex 50.33877506564125 138.70985486317497 0.9999999999999135
    vertex 56.33877506564255 138.7098548631747 6.203926261605374e-14
    vertex 50.33877506564256 138.70985486317477 0.0
  endloop
endfacet
facet normal 2.1893196155180878e-14 1.0 -1.0654633049588932e-14
  outer loop
    vertex 56.33877506564255 138.7098548631747 6.203926261605374e-14
    vertex 50.33877506564125 138.70985486317497 0.9999999999999135
    vertex 56.33877506564169 138.70985486317477 1.0000000000001392
  endloop
endfacet
facet normal 2.1893196155180878e-14 1.0 -1.0654633049588932e-14
  outer loop
    vertex 56.33877506564169 138.70985486317477 1.0000000000001392
    vertex 50.33877506564125 138.70985486317497 0.9999999999999135
    vertex 49.33877506564146 138.709854863175 1.0000000000009852
  endloop
endfacet
facet normal 2.1893196155180878e-14 1.0 -1.0654633049588932e-14
  outer loop
    vertex 56.33877506564169 138.70985486317477 1.0000000000001392
    vertex 49.33877506564146 138.709854863175 1.0000000000009852
    vertex 54.92527514081934 138.7098548631748 1.0000000000011204
  endloop
endfacet
facet normal 2.1893196155180878e-14 1.0 -1.0654633049588932e-14
  outer loop
    vertex 54.92527514081934 138.7098548631748 1.0000000000011204
    vertex 49.33877506564146 138.709854863175 1.0000000000009852
    vertex 49.33877506564236 138.70985486317485 3.000000000000835
  endloop
endfacet
facet normal 2.1893196155180878e-14 1.0 -1.0654633049588932e-14
  outer loop
    vertex 54.92527514081934 138.7098548631748 1.0000000000011204
    vertex 49.33877506564236 138.70985486317485 3.000000000000835
    vertex 54.925275140819835 138.7098548631748 3.0000000000011
  endloop
endfacet
facet normal -1.4064832156693488e-14 1.0277109990384435e-14 1.0
  outer loop
    vertex 49.33877506564228 132.20985486317497 3.0000000000005222
    vertex 54.92527514082001 135.2098548631749 3.0000000000010716
    vertex 49.33877506564236 138.70985486317485 3.000000000000835
  endloop
endfacet
facet normal -1.4064832156693488e-14 1.0277109990384435e-14 1.0
  outer loop
    vertex 54.92527514082001 135.2098548631749 3.0000000000010716
    vertex 49.33877506564228 132.20985486317497 3.0000000000005222
    vertex 75.33877506564274 132.20985486317517 3.000000000000528
  endloop
endfacet
facet normal -1.4064832156693488e-14 1.0277109990384435e-14 1.0
  outer loop
    vertex 49.33877506564236 138.70985486317485 3.000000000000835
    vertex 54.92527514082001 135.2098548631749 3.0000000000010716
    vertex 54.925275140819835 138.7098548631748 3.0000000000011
  endloop
endfacet
facet normal -1.4064832156693488e-14 1.0277109990384435e-14 1.0
  outer loop
    vertex 54.92527514082001 135.2098548631749 3.0000000000010716
    vertex 75.33877506564274 132.20985486317517 3.000000000000528
    vertex 66.83877506564237 135.20985486317497 3.0000000000016867
  endloop
endfacet
facet normal -1.4064832156693488e-14 1.0277109990384435e-14 1.0
  outer loop
    vertex 66.83877506564237 135.20985486317497 3.0000000000016867
    vertex 75.33877506564274 132.20985486317517 3.000000000000528
    vertex 72.33877506564225 138.7098548631748 3.0000000000014833
  endloop
endfacet
facet normal -1.4064832156693488e-14 1.0277109990384435e-14 1.0
  outer loop
    vertex 72.3387750656422 141.20985486317488 3.0000000000014326
    vertex 52.33877506564249 143.2098548631748 3.0000000000004796
    vertex 49.33877506564231 141.209854863175 3.000000000000846
  endloop
endfacet
facet normal -1.4064832156693488e-14 1.0277109990384435e-14 1.0
  outer loop
    vertex 52.33877506564249 143.2098548631748 3.0000000000004796
    vertex 72.3387750656422 141.20985486317488 3.0000000000014326
    vertex 75.33877506564278 143.2098548631748 3.0000000000004627
  endloop
endfacet
facet normal -1.4064832156693488e-14 1.0277109990384435e-14 1.0
  outer loop
    vertex 75.33877506564278 143.2098548631748 3.0000000000004627
    vertex 72.3387750656422 141.20985486317488 3.0000000000014326
    vertex 72.33877506564225 138.7098548631748 3.0000000000014833
  endloop
endfacet
facet normal -1.4064832156693488e-14 1.0277109990384435e-14 1.0
  outer loop
    vertex 75.33877506564278 143.2098548631748 3.0000000000004627
    vertex 72.33877506564225 138.7098548631748 3.0000000000014833
    vertex 75.33877506564274 132.20985486317517 3.000000000000528
  endloop
endfacet
facet normal -1.4064832156693488e-14 1.0277109990384435e-14 1.0
  outer loop
    vertex 72.33877506564225 138.7098548631748 3.0000000000014833
    vertex 66.83877506564228 138.7098548631748 3.000000000001602
    vertex 66.83877506564237 135.20985486317497 3.0000000000016867
  endloop
endfacet
facet normal -1.4064832156693488e-14 1.0277109990384435e-14 1.0
  outer loop
    vertex 49.33877506564231 141.209854863175 3.000000000000846
    vertex 52.33877506564251 158.20985486317485 3.000000000000518
    vertex 49.338775065642245 158.20985486317485 3.000000000000546
  endloop
endfacet
facet normal -1.4064832156693488e-14 1.0277109990384435e-14 1.0
  outer loop
    vertex 52.33877506564251 158.20985486317485 3.000000000000518
    vertex 49.33877506564231 141.209854863175 3.000000000000846
    vertex 52.33877506564249 143.2098548631748 3.0000000000004796
  endloop
endfacet
facet normal -3.455821518854611e-15 -4.324574938393336e-15 -1.0
  outer loop
    vertex 71.33877506564257 138.70985486317466 2.594369163944066e-12
    vertex 65.33877506564262 135.70985486317483 9.982681348219558e-13
    vertex 65.33877506564258 138.70985486317468 1.0828671292983925e-12
  endloop
endfacet
facet normal -3.455821518854611e-15 -4.324574938393336e-15 -1.0
  outer loop
    vertex 52.3387750656426 158.20985486317488 4.668692847692962e-13
    vertex 46.33877506564287 132.2098548631749 6.120657299015243e-13
    vertex 46.33877506564243 158.2098548631748 4.832361490601622e-13
  endloop
endfacet
facet normal -3.455821518854611e-15 -4.324574938393336e-15 -1.0
  outer loop
    vertex 46.33877506564287 132.2098548631749 6.120657299015243e-13
    vertex 52.3387750656426 158.20985486317488 4.668692847692962e-13
    vertex 50.33877506564242 141.20985486317488 5.639932965095795e-15
  endloop
endfacet
facet normal -3.455821518854611e-15 -4.324574938393336e-15 -1.0
  outer loop
    vertex 50.33877506564242 141.20985486317488 5.639932965095795e-15
    vertex 52.3387750656426 158.20985486317488 4.668692847692962e-13
    vertex 52.33877506564281 143.2098548631748 4.68114436102951e-13
  endloop
endfacet
facet normal -3.455821518854611e-15 -4.324574938393336e-15 -1.0
  outer loop
    vertex 50.33877506564242 141.20985486317488 5.639932965095795e-15
    vertex 52.33877506564281 143.2098548631748 4.68114436102951e-13
    vertex 71.33877506564248 141.20985486317477 2.639488627664832e-12
  endloop
endfacet
facet normal -3.455821518854611e-15 -4.324574938393336e-15 -1.0
  outer loop
    vertex 71.33877506564248 141.20985486317477 2.639488627664832e-12
    vertex 52.33877506564281 143.2098548631748 4.68114436102951e-13
    vertex 75.33877506564276 143.2098548631748 4.963141009284299e-13
  endloop
endfacet
facet normal -3.455821518854611e-15 -4.324574938393336e-15 -1.0
  outer loop
    vertex 71.33877506564248 141.20985486317477 2.639488627664832e-12
    vertex 75.33877506564276 143.2098548631748 4.963141009284299e-13
    vertex 71.33877506564257 138.70985486317466 2.594369163944066e-12
  endloop
endfacet
facet normal -3.455821518854611e-15 -4.324574938393336e-15 -1.0
  outer loop
    vertex 71.33877506564257 138.70985486317466 2.594369163944066e-12
    vertex 75.33877506564276 143.2098548631748 4.963141009284299e-13
    vertex 75.33877506564274 132.2098548631752 4.321408096228802e-13
  endloop
endfacet
facet normal -3.455821518854611e-15 -4.324574938393336e-15 -1.0
  outer loop
    vertex 46.33877506564287 132.2098548631749 6.120657299015243e-13
    vertex 56.338775065642686 135.70985486317483 9.587886040662851e-14
    vertex 75.33877506564274 132.2098548631752 4.321408096228802e-13
  endloop
endfacet
facet normal -3.455821518854611e-15 -4.324574938393336e-15 -1.0
  outer loop
    vertex 56.338775065642686 135.70985486317483 9.587886040662851e-14
    vertex 46.33877506564287 132.2098548631749 6.120657299015243e-13
    vertex 50.33877506564256 138.70985486317477 0.0
  endloop
endfacet
facet normal -3.455821518854611e-15 -4.324574938393336e-15 -1.0
  outer loop
    vertex 50.33877506564256 138.70985486317477 0.0
    vertex 46.33877506564287 132.2098548631749 6.120657299015243e-13
    vertex 50.33877506564242 141.20985486317488 5.639932965095795e-15
  endloop
endfacet
facet normal -3.455821518854611e-15 -4.324574938393336e-15 -1.0
  outer loop
    vertex 56.338775065642686 135.70985486317483 9.587886040662851e-14
    vertex 50.33877506564256 138.70985486317477 0.0
    vertex 56.33877506564255 138.7098548631747 6.203926261605374e-14
  endloop
endfacet
facet normal -3.455821518854611e-15 -4.324574938393336e-15 -1.0
  outer loop
    vertex 75.33877506564274 132.2098548631752 4.321408096228802e-13
    vertex 56.338775065642686 135.70985486317483 9.587886040662851e-14
    vertex 65.33877506564262 135.70985486317483 9.982681348219558e-13
  endloop
endfacet
facet normal -3.455821518854611e-15 -4.324574938393336e-15 -1.0
  outer loop
    vertex 75.33877506564274 132.2098548631752 4.321408096228802e-13
    vertex 65.33877506564262 135.70985486317483 9.982681348219558e-13
    vertex 71.33877506564257 138.70985486317466 2.594369163944066e-12
  endloop
endfacet
facet normal -7.710399620431942e-28 -1.0 1.068618877596894e-14
  outer loop
    vertex 72.3387750656422 141.20985486317488 3.0000000000014326
    vertex 71.33877506564292 141.2098548631752 1.000000000002553
    vertex 72.33877506564284 141.2098548631752 1.0000000000015152
  endloop
endfacet
facet normal -7.710399620431942e-28 -1.0 1.068618877596894e-14
  outer loop
    vertex 71.33877506564292 141.2098548631752 1.000000000002553
    vertex 72.3387750656422 141.20985486317488 3.0000000000014326
    vertex 49.33877506564231 141.209854863175 3.000000000000846
  endloop
endfacet
facet normal -7.710399620431942e-28 -1.0 1.068618877596894e-14
  outer loop
    vertex 71.33877506564248 141.20985486317477 2.639488627664832e-12
    vertex 50.33877506564116 141.20985486317508 0.9999999999998741
    vertex 50.33877506564242 141.20985486317488 5.639932965095795e-15
  endloop
endfacet
facet normal -7.710399620431942e-28 -1.0 1.068618877596894e-14
  outer loop
    vertex 50.33877506564116 141.20985486317508 0.9999999999998741
    vertex 71.33877506564248 141.20985486317477 2.639488627664832e-12
    vertex 71.33877506564292 141.2098548631752 1.000000000002553
  endloop
endfacet
facet normal -7.710399620431942e-28 -1.0 1.068618877596894e-14
  outer loop
    vertex 50.33877506564116 141.20985486317508 0.9999999999998741
    vertex 71.33877506564292 141.2098548631752 1.000000000002553
    vertex 49.338775065641364 141.2098548631751 1.0000000000008948
  endloop
endfacet
facet normal -7.710399620431942e-28 -1.0 1.068618877596894e-14
  outer loop
    vertex 49.338775065641364 141.2098548631751 1.0000000000008948
    vertex 71.33877506564292 141.2098548631752 1.000000000002553
    vertex 49.33877506564231 141.209854863175 3.000000000000846
  endloop
endfacet
facet normal -1.0 -2.5782550697577828e-14 1.8047785488307488e-13
  outer loop
    vertex 66.83877506564237 135.20985486317497 3.0000000000016867
    vertex 66.83877506564193 138.7098548631748 1.000000000001707
    vertex 66.83877506564201 135.2098548631749 1.0000000000017804
  endloop
endfacet
facet normal -1.0 -2.5782550697577828e-14 1.8047785488307488e-13
  outer loop
    vertex 66.83877506564193 138.7098548631748 1.000000000001707
    vertex 66.83877506564237 135.20985486317497 3.0000000000016867
    vertex 66.83877506564228 138.7098548631748 3.000000000001602
  endloop
endfacet
facet normal -6.640069636324532e-14 3.621309316462745e-14 1.0
  outer loop
    vertex 54.92527514081939 135.20985486317483 1.0000000000012108
    vertex 56.33877506564169 138.70985486317477 1.0000000000001392
    vertex 54.92527514081934 138.7098548631748 1.0000000000011204
  endloop
endfacet
facet normal -6.640069636324532e-14 3.621309316462745e-14 1.0
  outer loop
    vertex 56.33877506564169 138.70985486317477 1.0000000000001392
    vertex 54.92527514081939 135.20985486317483 1.0000000000012108
    vertex 56.33877506564187 135.70985486317494 1.0000000000001787
  endloop
endfacet
facet normal -6.640069636324532e-14 3.621309316462745e-14 1.0
  outer loop
    vertex 56.33877506564187 135.70985486317494 1.0000000000001787
    vertex 54.92527514081939 135.20985486317483 1.0000000000012108
    vertex 66.83877506564201 135.2098548631749 1.0000000000017804
  endloop
endfacet
facet normal -6.640069636324532e-14 3.621309316462745e-14 1.0
  outer loop
    vertex 56.33877506564187 135.70985486317494 1.0000000000001787
    vertex 66.83877506564201 135.2098548631749 1.0000000000017804
    vertex 65.33877506564212 135.7098548631749 1.0000000000010303
  endloop
endfacet
facet normal -6.640069636324532e-14 3.621309316462745e-14 1.0
  outer loop
    vertex 65.33877506564212 135.7098548631749 1.0000000000010303
    vertex 66.83877506564201 135.2098548631749 1.0000000000017804
    vertex 66.83877506564193 138.7098548631748 1.000000000001707
  endloop
endfacet
facet normal -6.640069636324532e-14 3.621309316462745e-14 1.0
  outer loop
    vertex 66.83877506564193 138.7098548631748 1.000000000001707
    vertex 65.33877506564194 138.70985486317477 1.0000000000010303
    vertex 65.33877506564212 135.7098548631749 1.0000000000010303
  endloop
endfacet
facet normal 1.0 5.263937434090687e-14 8.347100788341069e-13
  outer loop
    vertex 56.33877506564255 138.7098548631747 6.203926261605374e-14
    vertex 56.33877506564187 135.70985486317494 1.0000000000001787
    vertex 56.338775065642686 135.70985486317483 9.587886040662851e-14
  endloop
endfacet
facet normal 1.0 5.263937434090687e-14 8.347100788341069e-13
  outer loop
    vertex 56.33877506564187 135.70985486317494 1.0000000000001787
    vertex 56.33877506564255 138.7098548631747 6.203926261605374e-14
    vertex 56.33877506564169 138.70985486317477 1.0000000000001392
  endloop
endfacet
facet normal 2.4506157411991338e-14 1.0 -7.104860175576114e-15
  outer loop
    vertex 46.33877506564243 158.2098548631748 4.832361490601622e-13
    vertex 52.33877506564251 158.20985486317485 3.000000000000518
    vertex 52.3387750656426 158.20985486317488 4.668692847692962e-13
  endloop
endfacet
facet normal 2.4506157411991338e-14 1.0 -7.104860175576114e-15
  outer loop
    vertex 52.33877506564251 158.20985486317485 3.000000000000518
    vertex 46.33877506564243 158.2098548631748 4.832361490601622e-13
    vertex 49.338775065642245 158.20985486317485 3.000000000000546
  endloop
endfacet
facet normal 2.4506157411991338e-14 1.0 -7.104860175576114e-15
  outer loop
    vertex 49.338775065642245 158.20985486317485 3.000000000000546
    vertex 46.33877506564243 158.2098548631748 4.832361490601622e-13
    vertex 46.338775065642906 158.20985486317548 41.99999999999973
  endloop
endfacet
facet normal 2.4506157411991338e-14 1.0 -7.104860175576114e-15
  outer loop
    vertex 49.338775065642245 158.20985486317485 3.000000000000546
    vertex 46.338775065642906 158.20985486317548 41.99999999999973
    vertex 49.338775065642245 158.20985486317463 41.99999999999974
  endloop
endfacet
facet normal 1.0 4.5119463720773106e-14 1.2859047160419727e-12
  outer loop
    vertex 50.33877506564242 141.20985486317488 5.639932965095795e-15
    vertex 50.33877506564125 138.70985486317497 0.9999999999999135
    vertex 50.33877506564256 138.70985486317477 0.0
  endloop
endfacet
facet normal 1.0 4.5119463720773106e-14 1.2859047160419727e-12
  outer loop
    vertex 50.33877506564125 138.70985486317497 0.9999999999999135
    vertex 50.33877506564242 141.20985486317488 5.639932965095795e-15
    vertex 50.33877506564116 141.20985486317508 0.9999999999998741
  endloop
endfacet
facet normal 2.8655129519822786e-27 1.691979889528748e-14 1.0
  outer loop
    vertex 46.33877506564303 132.2098548631753 42.00000000000022
    vertex 49.338775065642245 158.20985486317463 41.99999999999974
    vertex 46.338775065642906 158.20985486317548 41.99999999999973
  endloop
endfacet
facet normal 2.8655129519822786e-27 1.691979889528748e-14 1.0
  outer loop
    vertex 49.338775065642245 158.20985486317463 41.99999999999974
    vertex 46.33877506564303 132.2098548631753 42.00000000000022
    vertex 49.33877506564228 132.20985486317517 42.00000000000023
  endloop
endfacet
facet normal 1.0 4.0285235464970656e-16 -1.87997765503187e-15
  outer loop
    vertex 75.33877506564274 132.2098548631752 4.321408096228802e-13
    vertex 75.33877506564278 143.2098548631748 3.0000000000004627
    vertex 75.33877506564274 132.20985486317517 3.000000000000528
  endloop
endfacet
facet normal 1.0 4.0285235464970656e-16 -1.87997765503187e-15
  outer loop
    vertex 75.33877506564278 143.2098548631748 3.0000000000004627
    vertex 75.33877506564274 132.2098548631752 4.321408096228802e-13
    vertex 75.33877506564276 143.2098548631748 4.963141009284299e-13
  endloop
endfacet
facet normal 1.2533184366978554e-15 1.0 -1.0151879337171795e-13
  outer loop
    vertex 56.33877506564187 135.70985486317494 1.0000000000001787
    vertex 65.33877506564262 135.70985486317483 9.982681348219558e-13
    vertex 56.338775065642686 135.70985486317483 9.587886040662851e-14
  endloop
endfacet
facet normal 1.2533184366978554e-15 1.0 -1.0151879337171795e-13
  outer loop
    vertex 65.33877506564262 135.70985486317483 9.982681348219558e-13
    vertex 56.33877506564187 135.70985486317494 1.0000000000001787
    vertex 65.33877506564212 135.7098548631749 1.0000000000010303
  endloop
endfacet
endsolid Controller
