solid Transmitter
facet normal 6.077862393146046e-32 -1.1409356630166111e-32 1.0
  outer loop
    vertex 307.638848151395 9.430944310737473 3.0
    vertex 302.638848151395 12.43094431073747 3.0
    vertex 302.638848151395 9.430944310737473 3.0
  endloop
endfacet
facet normal 6.077862393146046e-32 -1.1409356630166111e-32 1.0
  outer loop
    vertex 302.638848151395 12.43094431073747 3.0
    vertex 307.638848151395 9.430944310737473 3.0
    vertex 307.638848151395 12.430944310737473 3.0
  endloop
endfacet
facet normal 6.077862393146046e-32 -1.1409356630166111e-32 1.0
  outer loop
    vertex 307.638848151395 12.430944310737473 3.0
    vertex 307.638848151395 9.430944310737473 3.0
    vertex 308.0304267280552 9.456609726616009 3.0
  endloop
endfacet
facet normal 6.077862393146046e-32 -1.1409356630166111e-32 1.0
  outer loop
    vertex 307.638848151395 12.430944310737473 3.0
    vertex 308.0304267280552 9.456609726616009 3.0
    vertex 307.638848151395 33.430944310737466 3.0
  endloop
endfacet
facet normal 6.077862393146046e-32 -1.1409356630166111e-32 1.0
  outer loop
    vertex 307.638848151395 33.430944310737466 3.0
    vertex 308.0304267280552 9.456609726616009 3.0
    vertex 307.638848151395 36.430944310737466 3.0
  endloop
endfacet
facet normal 6.077862393146046e-32 -1.1409356630166111e-32 1.0
  outer loop
    vertex 307.638848151395 36.430944310737466 3.0
    vertex 308.0304267280552 9.456609726616009 3.0
    vertex 308.0304267280552 36.4052788948589 3.0
  endloop
endfacet
facet normal 6.077862393146046e-32 -1.1409356630166111e-32 1.0
  outer loop
    vertex 308.0304267280552 36.4052788948589 3.0
    vertex 308.0304267280552 9.456609726616009 3.0
    vertex 308.41530528670256 9.53316683187024 3.0
  endloop
endfacet
facet normal 6.077862393146046e-32 -1.1409356630166111e-32 1.0
  outer loop
    vertex 308.0304267280552 36.4052788948589 3.0
    vertex 308.41530528670256 9.53316683187024 3.0
    vertex 308.41530528670256 36.32872178960467 3.0
  endloop
endfacet
facet normal 6.077862393146046e-32 -1.1409356630166111e-32 1.0
  outer loop
    vertex 308.41530528670256 36.32872178960467 3.0
    vertex 308.41530528670256 9.53316683187024 3.0
    vertex 308.78689844849026 9.659305713203588 3.0
  endloop
endfacet
facet normal 6.077862393146046e-32 -1.1409356630166111e-32 1.0
  outer loop
    vertex 308.41530528670256 36.32872178960467 3.0
    vertex 308.78689844849026 9.659305713203588 3.0
    vertex 308.78689844849026 36.202582908271324 3.0
  endloop
endfacet
facet normal 6.077862393146046e-32 -1.1409356630166111e-32 1.0
  outer loop
    vertex 308.78689844849026 36.202582908271324 3.0
    vertex 308.78689844849026 9.659305713203588 3.0
    vertex 309.13884815139505 9.832868099384138 3.0
  endloop
endfacet
facet normal 6.077862393146046e-32 -1.1409356630166111e-32 1.0
  outer loop
    vertex 308.78689844849026 36.202582908271324 3.0
    vertex 309.13884815139505 9.832868099384138 3.0
    vertex 309.138848151395 36.02902052209079 3.0
  endloop
endfacet
facet normal 6.077862393146046e-32 -1.1409356630166111e-32 1.0
  outer loop
    vertex 309.138848151395 36.02902052209079 3.0
    vertex 309.13884815139505 9.832868099384138 3.0
    vertex 309.46513243842116 35.81100433161117 3.0
  endloop
endfacet
facet normal 6.077862393146046e-32 -1.1409356630166111e-32 1.0
  outer loop
    vertex 309.46513243842116 35.81100433161117 3.0
    vertex 309.13884815139505 9.832868099384138 3.0
    vertex 309.46513243842116 10.050884289863752 3.0
  endloop
endfacet
facet normal 6.077862393146046e-32 -1.1409356630166111e-32 1.0
  outer loop
    vertex 309.46513243842116 35.81100433161117 3.0
    vertex 309.46513243842116 10.050884289863752 3.0
    vertex 309.76016849495466 10.309623967177819 3.0
  endloop
endfacet
facet normal 6.077862393146046e-32 -1.1409356630166111e-32 1.0
  outer loop
    vertex 309.46513243842116 35.81100433161117 3.0
    vertex 309.76016849495466 10.309623967177819 3.0
    vertex 309.76016849495466 35.55226465429711 3.0
  endloop
endfacet
facet normal 6.077862393146046e-32 -1.1409356630166111e-32 1.0
  outer loop
    vertex 309.76016849495466 35.55226465429711 3.0
    vertex 309.76016849495466 10.309623967177819 3.0
    vertex 310.0189081722687 10.604660023711302 3.0
  endloop
endfacet
facet normal 6.077862393146046e-32 -1.1409356630166111e-32 1.0
  outer loop
    vertex 309.76016849495466 35.55226465429711 3.0
    vertex 310.0189081722687 10.604660023711302 3.0
    vertex 310.0189081722687 35.25722859776363 3.0
  endloop
endfacet
facet normal 6.077862393146046e-32 -1.1409356630166111e-32 1.0
  outer loop
    vertex 310.0189081722687 35.25722859776363 3.0
    vertex 310.0189081722687 10.604660023711302 3.0
    vertex 310.2369243627483 10.930944310737466 3.0
  endloop
endfacet
facet normal 6.077862393146046e-32 -1.1409356630166111e-32 1.0
  outer loop
    vertex 310.0189081722687 35.25722859776363 3.0
    vertex 310.2369243627483 10.930944310737466 3.0
    vertex 310.2369243627483 34.930944310737466 3.0
  endloop
endfacet
facet normal 6.077862393146046e-32 -1.1409356630166111e-32 1.0
  outer loop
    vertex 310.2369243627483 34.930944310737466 3.0
    vertex 310.2369243627483 10.930944310737466 3.0
    vertex 310.41048674892886 11.2828940136422 3.0
  endloop
endfacet
facet normal 6.077862393146046e-32 -1.1409356630166111e-32 1.0
  outer loop
    vertex 310.2369243627483 34.930944310737466 3.0
    vertex 310.41048674892886 11.2828940136422 3.0
    vertex 310.41048674892886 34.57899460783273 3.0
  endloop
endfacet
facet normal 6.077862393146046e-32 -1.1409356630166111e-32 1.0
  outer loop
    vertex 310.41048674892886 34.57899460783273 3.0
    vertex 310.41048674892886 11.2828940136422 3.0
    vertex 310.5366256302622 11.654487175429908 3.0
  endloop
endfacet
facet normal 6.077862393146046e-32 -1.1409356630166111e-32 1.0
  outer loop
    vertex 310.41048674892886 34.57899460783273 3.0
    vertex 310.5366256302622 11.654487175429908 3.0
    vertex 310.5366256302622 34.20740144604503 3.0
  endloop
endfacet
facet normal 6.077862393146046e-32 -1.1409356630166111e-32 1.0
  outer loop
    vertex 310.5366256302622 34.20740144604503 3.0
    vertex 310.5366256302622 11.654487175429908 3.0
    vertex 310.61318273551643 12.039365734077316 3.0
  endloop
endfacet
facet normal 6.077862393146046e-32 -1.1409356630166111e-32 1.0
  outer loop
    vertex 310.5366256302622 34.20740144604503 3.0
    vertex 310.61318273551643 12.039365734077316 3.0
    vertex 310.61318273551643 33.822522887397625 3.0
  endloop
endfacet
facet normal 6.077862393146046e-32 -1.1409356630166111e-32 1.0
  outer loop
    vertex 310.61318273551643 33.822522887397625 3.0
    vertex 310.61318273551643 12.039365734077316 3.0
    vertex 310.638848151395 12.430944310737473 3.0
  endloop
endfacet
facet normal 6.077862393146046e-32 -1.1409356630166111e-32 1.0
  outer loop
    vertex 310.61318273551643 33.822522887397625 3.0
    vertex 310.638848151395 12.430944310737473 3.0
    vertex 310.638848151395 33.430944310737466 3.0
  endloop
endfacet
facet normal 6.077862393146046e-32 -1.1409356630166111e-32 1.0
  outer loop
    vertex 299.66451356727356 12.03936573407732 3.0
    vertex 299.63884815139505 33.430944310737466 3.0
    vertex 299.63884815139505 12.430944310737473 3.0
  endloop
endfacet
facet normal 6.077862393146046e-32 -1.1409356630166111e-32 1.0
  outer loop
    vertex 299.63884815139505 33.430944310737466 3.0
    vertex 299.66451356727356 12.03936573407732 3.0
    vertex 299.66451356727356 33.822522887397625 3.0
  endloop
endfacet
facet normal 6.077862393146046e-32 -1.1409356630166111e-32 1.0
  outer loop
    vertex 299.66451356727356 33.822522887397625 3.0
    vertex 299.66451356727356 12.03936573407732 3.0
    vertex 299.7410706725278 11.65448717542991 3.0
  endloop
endfacet
facet normal 6.077862393146046e-32 -1.1409356630166111e-32 1.0
  outer loop
    vertex 299.66451356727356 33.822522887397625 3.0
    vertex 299.7410706725278 11.65448717542991 3.0
    vertex 299.7410706725278 34.20740144604503 3.0
  endloop
endfacet
facet normal 6.077862393146046e-32 -1.1409356630166111e-32 1.0
  outer loop
    vertex 299.7410706725278 34.20740144604503 3.0
    vertex 299.7410706725278 11.65448717542991 3.0
    vertex 299.8672095538612 11.282894013642203 3.0
  endloop
endfacet
facet normal 6.077862393146046e-32 -1.1409356630166111e-32 1.0
  outer loop
    vertex 299.7410706725278 34.20740144604503 3.0
    vertex 299.8672095538612 11.282894013642203 3.0
    vertex 299.8672095538612 34.57899460783274 3.0
  endloop
endfacet
facet normal 6.077862393146046e-32 -1.1409356630166111e-32 1.0
  outer loop
    vertex 299.8672095538612 34.57899460783274 3.0
    vertex 299.8672095538612 11.282894013642203 3.0
    vertex 300.0407719400417 10.930944310737472 3.0
  endloop
endfacet
facet normal 6.077862393146046e-32 -1.1409356630166111e-32 1.0
  outer loop
    vertex 299.8672095538612 34.57899460783274 3.0
    vertex 300.0407719400417 10.930944310737472 3.0
    vertex 300.0407719400417 34.93094431073747 3.0
  endloop
endfacet
facet normal 6.077862393146046e-32 -1.1409356630166111e-32 1.0
  outer loop
    vertex 300.0407719400417 34.93094431073747 3.0
    vertex 300.0407719400417 10.930944310737472 3.0
    vertex 300.25878813052134 10.60466002371131 3.0
  endloop
endfacet
facet normal 6.077862393146046e-32 -1.1409356630166111e-32 1.0
  outer loop
    vertex 300.0407719400417 34.93094431073747 3.0
    vertex 300.25878813052134 10.60466002371131 3.0
    vertex 300.2587881305213 35.257228597763635 3.0
  endloop
endfacet
facet normal 6.077862393146046e-32 -1.1409356630166111e-32 1.0
  outer loop
    vertex 300.2587881305213 35.257228597763635 3.0
    vertex 300.25878813052134 10.60466002371131 3.0
    vertex 300.5175278078354 35.55226465429711 3.0
  endloop
endfacet
facet normal 6.077862393146046e-32 -1.1409356630166111e-32 1.0
  outer loop
    vertex 300.5175278078354 35.55226465429711 3.0
    vertex 300.25878813052134 10.60466002371131 3.0
    vertex 300.5175278078354 10.30962396717783 3.0
  endloop
endfacet
facet normal 6.077862393146046e-32 -1.1409356630166111e-32 1.0
  outer loop
    vertex 300.5175278078354 35.55226465429711 3.0
    vertex 300.5175278078354 10.30962396717783 3.0
    vertex 300.8125638643689 10.050884289863767 3.0
  endloop
endfacet
facet normal 6.077862393146046e-32 -1.1409356630166111e-32 1.0
  outer loop
    vertex 300.5175278078354 35.55226465429711 3.0
    vertex 300.8125638643689 10.050884289863767 3.0
    vertex 300.8125638643689 35.81100433161117 3.0
  endloop
endfacet
facet normal 6.077862393146046e-32 -1.1409356630166111e-32 1.0
  outer loop
    vertex 300.8125638643689 35.81100433161117 3.0
    vertex 300.8125638643689 10.050884289863767 3.0
    vertex 301.138848151395 9.832868099384156 3.0
  endloop
endfacet
facet normal 6.077862393146046e-32 -1.1409356630166111e-32 1.0
  outer loop
    vertex 300.8125638643689 35.81100433161117 3.0
    vertex 301.138848151395 9.832868099384156 3.0
    vertex 301.138848151395 36.02902052209079 3.0
  endloop
endfacet
facet normal 6.077862393146046e-32 -1.1409356630166111e-32 1.0
  outer loop
    vertex 301.138848151395 36.02902052209079 3.0
    vertex 301.138848151395 9.832868099384156 3.0
    vertex 301.49079785429973 9.659305713203612 3.0
  endloop
endfacet
facet normal 6.077862393146046e-32 -1.1409356630166111e-32 1.0
  outer loop
    vertex 301.138848151395 36.02902052209079 3.0
    vertex 301.49079785429973 9.659305713203612 3.0
    vertex 301.49079785429973 36.202582908271324 3.0
  endloop
endfacet
facet normal 6.077862393146046e-32 -1.1409356630166111e-32 1.0
  outer loop
    vertex 301.49079785429973 36.202582908271324 3.0
    vertex 301.49079785429973 9.659305713203612 3.0
    vertex 301.8623910160875 9.533166831870268 3.0
  endloop
endfacet
facet normal 6.077862393146046e-32 -1.1409356630166111e-32 1.0
  outer loop
    vertex 301.49079785429973 36.202582908271324 3.0
    vertex 301.8623910160875 9.533166831870268 3.0
    vertex 301.8623910160875 36.32872178960467 3.0
  endloop
endfacet
facet normal 6.077862393146046e-32 -1.1409356630166111e-32 1.0
  outer loop
    vertex 301.8623910160875 36.32872178960467 3.0
    vertex 301.8623910160875 9.533166831870268 3.0
    vertex 302.24726957473484 9.456609726616042 3.0
  endloop
endfacet
facet normal 6.077862393146046e-32 -1.1409356630166111e-32 1.0
  outer loop
    vertex 301.8623910160875 36.32872178960467 3.0
    vertex 302.24726957473484 9.456609726616042 3.0
    vertex 302.24726957473484 36.4052788948589 3.0
  endloop
endfacet
facet normal 6.077862393146046e-32 -1.1409356630166111e-32 1.0
  outer loop
    vertex 302.24726957473484 36.4052788948589 3.0
    vertex 302.24726957473484 9.456609726616042 3.0
    vertex 302.638848151395 9.430944310737473 3.0
  endloop
endfacet
facet normal 6.077862393146046e-32 -1.1409356630166111e-32 1.0
  outer loop
    vertex 302.24726957473484 36.4052788948589 3.0
    vertex 302.638848151395 9.430944310737473 3.0
    vertex 302.638848151395 36.430944310737466 3.0
  endloop
endfacet
facet normal 6.077862393146046e-32 -1.1409356630166111e-32 1.0
  outer loop
    vertex 302.638848151395 36.430944310737466 3.0
    vertex 302.638848151395 9.430944310737473 3.0
    vertex 302.638848151395 12.43094431073747 3.0
  endloop
endfacet
facet normal 6.077862393146046e-32 -1.1409356630166111e-32 1.0
  outer loop
    vertex 302.638848151395 36.430944310737466 3.0
    vertex 302.638848151395 12.43094431073747 3.0
    vertex 302.638848151395 33.430944310737466 3.0
  endloop
endfacet
facet normal 6.077862393146046e-32 -1.1409356630166111e-32 1.0
  outer loop
    vertex 302.638848151395 36.430944310737466 3.0
    vertex 302.638848151395 33.430944310737466 3.0
    vertex 307.638848151395 33.430944310737466 3.0
  endloop
endfacet
facet normal 6.077862393146046e-32 -1.1409356630166111e-32 1.0
  outer loop
    vertex 302.638848151395 36.430944310737466 3.0
    vertex 307.638848151395 33.430944310737466 3.0
    vertex 307.638848151395 36.430944310737466 3.0
  endloop
endfacet
facet normal 0.0 0.0 -1.0
  outer loop
    vertex 307.638848151395 36.430944310737466 0.0
    vertex 302.638848151395 33.430944310737466 0.0
    vertex 302.638848151395 36.430944310737466 0.0
  endloop
endfacet
facet normal 0.0 0.0 -1.0
  outer loop
    vertex 302.638848151395 33.430944310737466 0.0
    vertex 307.638848151395 36.430944310737466 0.0
    vertex 307.638848151395 33.430944310737466 0.0
  endloop
endfacet
facet normal 0.0 0.0 -1.0
  outer loop
    vertex 307.638848151395 33.430944310737466 0.0
    vertex 307.638848151395 36.430944310737466 0.0
    vertex 308.0304267280552 36.4052788948589 0.0
  endloop
endfacet
facet normal 0.0 0.0 -1.0
  outer loop
    vertex 307.638848151395 33.430944310737466 0.0
    vertex 308.0304267280552 36.4052788948589 0.0
    vertex 307.638848151395 12.430944310737473 0.0
  endloop
endfacet
facet normal 0.0 0.0 -1.0
  outer loop
    vertex 307.638848151395 12.430944310737473 0.0
    vertex 308.0304267280552 36.4052788948589 0.0
    vertex 307.638848151395 9.430944310737473 0.0
  endloop
endfacet
facet normal 0.0 0.0 -1.0
  outer loop
    vertex 307.638848151395 9.430944310737473 0.0
    vertex 308.0304267280552 36.4052788948589 0.0
    vertex 308.0304267280552 9.456609726616009 0.0
  endloop
endfacet
facet normal 0.0 0.0 -1.0
  outer loop
    vertex 308.0304267280552 9.456609726616009 0.0
    vertex 308.0304267280552 36.4052788948589 0.0
    vertex 308.41530528670256 36.32872178960467 0.0
  endloop
endfacet
facet normal 0.0 0.0 -1.0
  outer loop
    vertex 308.0304267280552 9.456609726616009 0.0
    vertex 308.41530528670256 36.32872178960467 0.0
    vertex 308.41530528670256 9.53316683187024 0.0
  endloop
endfacet
facet normal 0.0 0.0 -1.0
  outer loop
    vertex 308.41530528670256 9.53316683187024 0.0
    vertex 308.41530528670256 36.32872178960467 0.0
    vertex 308.78689844849026 36.202582908271324 0.0
  endloop
endfacet
facet normal 0.0 0.0 -1.0
  outer loop
    vertex 308.41530528670256 9.53316683187024 0.0
    vertex 308.78689844849026 36.202582908271324 0.0
    vertex 308.78689844849026 9.659305713203588 0.0
  endloop
endfacet
facet normal 0.0 0.0 -1.0
  outer loop
    vertex 308.78689844849026 9.659305713203588 0.0
    vertex 308.78689844849026 36.202582908271324 0.0
    vertex 309.138848151395 36.02902052209079 0.0
  endloop
endfacet
facet normal 0.0 0.0 -1.0
  outer loop
    vertex 308.78689844849026 9.659305713203588 0.0
    vertex 309.138848151395 36.02902052209079 0.0
    vertex 309.13884815139505 9.832868099384138 0.0
  endloop
endfacet
facet normal 0.0 0.0 -1.0
  outer loop
    vertex 309.13884815139505 9.832868099384138 0.0
    vertex 309.138848151395 36.02902052209079 0.0
    vertex 309.46513243842116 35.81100433161117 0.0
  endloop
endfacet
facet normal 0.0 0.0 -1.0
  outer loop
    vertex 309.13884815139505 9.832868099384138 0.0
    vertex 309.46513243842116 35.81100433161117 0.0
    vertex 309.46513243842116 10.050884289863752 0.0
  endloop
endfacet
facet normal 0.0 0.0 -1.0
  outer loop
    vertex 309.46513243842116 10.050884289863752 0.0
    vertex 309.46513243842116 35.81100433161117 0.0
    vertex 309.76016849495466 35.55226465429711 0.0
  endloop
endfacet
facet normal 0.0 0.0 -1.0
  outer loop
    vertex 309.46513243842116 10.050884289863752 0.0
    vertex 309.76016849495466 35.55226465429711 0.0
    vertex 309.76016849495466 10.309623967177819 0.0
  endloop
endfacet
facet normal 0.0 0.0 -1.0
  outer loop
    vertex 309.76016849495466 10.309623967177819 0.0
    vertex 309.76016849495466 35.55226465429711 0.0
    vertex 310.0189081722687 35.25722859776363 0.0
  endloop
endfacet
facet normal 0.0 0.0 -1.0
  outer loop
    vertex 309.76016849495466 10.309623967177819 0.0
    vertex 310.0189081722687 35.25722859776363 0.0
    vertex 310.0189081722687 10.604660023711302 0.0
  endloop
endfacet
facet normal 0.0 0.0 -1.0
  outer loop
    vertex 310.0189081722687 10.604660023711302 0.0
    vertex 310.0189081722687 35.25722859776363 0.0
    vertex 310.2369243627483 34.930944310737466 0.0
  endloop
endfacet
facet normal 0.0 0.0 -1.0
  outer loop
    vertex 310.0189081722687 10.604660023711302 0.0
    vertex 310.2369243627483 34.930944310737466 0.0
    vertex 310.2369243627483 10.930944310737466 0.0
  endloop
endfacet
facet normal 0.0 0.0 -1.0
  outer loop
    vertex 310.2369243627483 10.930944310737466 0.0
    vertex 310.2369243627483 34.930944310737466 0.0
    vertex 310.41048674892886 34.57899460783273 0.0
  endloop
endfacet
facet normal 0.0 0.0 -1.0
  outer loop
    vertex 310.2369243627483 10.930944310737466 0.0
    vertex 310.41048674892886 34.57899460783273 0.0
    vertex 310.41048674892886 11.2828940136422 0.0
  endloop
endfacet
facet normal 0.0 0.0 -1.0
  outer loop
    vertex 310.41048674892886 11.2828940136422 0.0
    vertex 310.41048674892886 34.57899460783273 0.0
    vertex 310.5366256302622 34.20740144604503 0.0
  endloop
endfacet
facet normal 0.0 0.0 -1.0
  outer loop
    vertex 310.41048674892886 11.2828940136422 0.0
    vertex 310.5366256302622 34.20740144604503 0.0
    vertex 310.5366256302622 11.654487175429908 0.0
  endloop
endfacet
facet normal 0.0 0.0 -1.0
  outer loop
    vertex 310.5366256302622 11.654487175429908 0.0
    vertex 310.5366256302622 34.20740144604503 0.0
    vertex 310.61318273551643 33.822522887397625 0.0
  endloop
endfacet
facet normal 0.0 0.0 -1.0
  outer loop
    vertex 310.5366256302622 11.654487175429908 0.0
    vertex 310.61318273551643 33.822522887397625 0.0
    vertex 310.61318273551643 12.039365734077316 0.0
  endloop
endfacet
facet normal 0.0 0.0 -1.0
  outer loop
    vertex 310.61318273551643 12.039365734077316 0.0
    vertex 310.61318273551643 33.822522887397625 0.0
    vertex 310.638848151395 33.430944310737466 0.0
  endloop
endfacet
facet normal 0.0 0.0 -1.0
  outer loop
    vertex 310.61318273551643 12.039365734077316 0.0
    vertex 310.638848151395 33.430944310737466 0.0
    vertex 310.638848151395 12.430944310737473 0.0
  endloop
endfacet
facet normal 0.0 0.0 -1.0
  outer loop
    vertex 299.66451356727356 33.822522887397625 0.0
    vertex 299.63884815139505 12.430944310737473 0.0
    vertex 299.63884815139505 33.430944310737466 0.0
  endloop
endfacet
facet normal 0.0 0.0 -1.0
  outer loop
    vertex 299.63884815139505 12.430944310737473 0.0
    vertex 299.66451356727356 33.822522887397625 0.0
    vertex 299.66451356727356 12.03936573407732 0.0
  endloop
endfacet
facet normal 0.0 0.0 -1.0
  outer loop
    vertex 299.66451356727356 12.03936573407732 0.0
    vertex 299.66451356727356 33.822522887397625 0.0
    vertex 299.7410706725278 34.20740144604503 0.0
  endloop
endfacet
facet normal 0.0 0.0 -1.0
  outer loop
    vertex 299.66451356727356 12.03936573407732 0.0
    vertex 299.7410706725278 34.20740144604503 0.0
    vertex 299.7410706725278 11.65448717542991 0.0
  endloop
endfacet
facet normal 0.0 0.0 -1.0
  outer loop
    vertex 299.7410706725278 11.65448717542991 0.0
    vertex 299.7410706725278 34.20740144604503 0.0
    vertex 299.8672095538612 34.57899460783274 0.0
  endloop
endfacet
facet normal 0.0 0.0 -1.0
  outer loop
    vertex 299.7410706725278 11.65448717542991 0.0
    vertex 299.8672095538612 34.57899460783274 0.0
    vertex 299.8672095538612 11.282894013642203 0.0
  endloop
endfacet
facet normal 0.0 0.0 -1.0
  outer loop
    vertex 299.8672095538612 11.282894013642203 0.0
    vertex 299.8672095538612 34.57899460783274 0.0
    vertex 300.0407719400417 34.93094431073747 0.0
  endloop
endfacet
facet normal 0.0 0.0 -1.0
  outer loop
    vertex 299.8672095538612 11.282894013642203 0.0
    vertex 300.0407719400417 34.93094431073747 0.0
    vertex 300.0407719400417 10.930944310737472 0.0
  endloop
endfacet
facet normal 0.0 0.0 -1.0
  outer loop
    vertex 300.0407719400417 10.930944310737472 0.0
    vertex 300.0407719400417 34.93094431073747 0.0
    vertex 300.2587881305213 35.257228597763635 0.0
  endloop
endfacet
facet normal 0.0 0.0 -1.0
  outer loop
    vertex 300.0407719400417 10.930944310737472 0.0
    vertex 300.2587881305213 35.257228597763635 0.0
    vertex 300.25878813052134 10.60466002371131 0.0
  endloop
endfacet
facet normal 0.0 0.0 -1.0
  outer loop
    vertex 300.25878813052134 10.60466002371131 0.0
    vertex 300.2587881305213 35.257228597763635 0.0
    vertex 300.5175278078354 35.55226465429711 0.0
  endloop
endfacet
facet normal 0.0 0.0 -1.0
  outer loop
    vertex 300.25878813052134 10.60466002371131 0.0
    vertex 300.5175278078354 35.55226465429711 0.0
    vertex 300.5175278078354 10.30962396717783 0.0
  endloop
endfacet
facet normal 0.0 0.0 -1.0
  outer loop
    vertex 300.5175278078354 10.30962396717783 0.0
    vertex 300.5175278078354 35.55226465429711 0.0
    vertex 300.8125638643689 35.81100433161117 0.0
  endloop
endfacet
facet normal 0.0 0.0 -1.0
  outer loop
    vertex 300.5175278078354 10.30962396717783 0.0
    vertex 300.8125638643689 35.81100433161117 0.0
    vertex 300.8125638643689 10.050884289863767 0.0
  endloop
endfacet
facet normal 0.0 0.0 -1.0
  outer loop
    vertex 300.8125638643689 10.050884289863767 0.0
    vertex 300.8125638643689 35.81100433161117 0.0
    vertex 301.138848151395 36.02902052209079 0.0
  endloop
endfacet
facet normal 0.0 0.0 -1.0
  outer loop
    vertex 300.8125638643689 10.050884289863767 0.0
    vertex 301.138848151395 36.02902052209079 0.0
    vertex 301.138848151395 9.832868099384156 0.0
  endloop
endfacet
facet normal 0.0 0.0 -1.0
  outer loop
    vertex 301.138848151395 9.832868099384156 0.0
    vertex 301.138848151395 36.02902052209079 0.0
    vertex 301.49079785429973 36.202582908271324 0.0
  endloop
endfacet
facet normal 0.0 0.0 -1.0
  outer loop
    vertex 301.138848151395 9.832868099384156 0.0
    vertex 301.49079785429973 36.202582908271324 0.0
    vertex 301.49079785429973 9.659305713203612 0.0
  endloop
endfacet
facet normal 0.0 0.0 -1.0
  outer loop
    vertex 301.49079785429973 9.659305713203612 0.0
    vertex 301.49079785429973 36.202582908271324 0.0
    vertex 301.8623910160875 36.32872178960467 0.0
  endloop
endfacet
facet normal 0.0 0.0 -1.0
  outer loop
    vertex 301.49079785429973 9.659305713203612 0.0
    vertex 301.8623910160875 36.32872178960467 0.0
    vertex 301.8623910160875 9.533166831870268 0.0
  endloop
endfacet
facet normal 0.0 0.0 -1.0
  outer loop
    vertex 301.8623910160875 9.533166831870268 0.0
    vertex 301.8623910160875 36.32872178960467 0.0
    vertex 302.24726957473484 36.4052788948589 0.0
  endloop
endfacet
facet normal 0.0 0.0 -1.0
  outer loop
    vertex 301.8623910160875 9.533166831870268 0.0
    vertex 302.24726957473484 36.4052788948589 0.0
    vertex 302.24726957473484 9.456609726616042 0.0
  endloop
endfacet
facet normal 0.0 0.0 -1.0
  outer loop
    vertex 302.24726957473484 9.456609726616042 0.0
    vertex 302.24726957473484 36.4052788948589 0.0
    vertex 302.638848151395 36.430944310737466 0.0
  endloop
endfacet
facet normal 0.0 0.0 -1.0
  outer loop
    vertex 302.24726957473484 9.456609726616042 0.0
    vertex 302.638848151395 36.430944310737466 0.0
    vertex 302.638848151395 9.430944310737473 0.0
  endloop
endfacet
facet normal 0.0 0.0 -1.0
  outer loop
    vertex 302.638848151395 9.430944310737473 0.0
    vertex 302.638848151395 36.430944310737466 0.0
    vertex 302.638848151395 33.430944310737466 0.0
  endloop
endfacet
facet normal 0.0 0.0 -1.0
  outer loop
    vertex 302.638848151395 9.430944310737473 0.0
    vertex 302.638848151395 33.430944310737466 0.0
    vertex 302.638848151395 12.43094431073747 0.0
  endloop
endfacet
facet normal 0.0 0.0 -1.0
  outer loop
    vertex 302.638848151395 9.430944310737473 0.0
    vertex 302.638848151395 12.43094431073747 0.0
    vertex 307.638848151395 12.430944310737473 0.0
  endloop
endfacet
facet normal 0.0 0.0 -1.0
  outer loop
    vertex 302.638848151395 9.430944310737473 0.0
    vertex 307.638848151395 12.430944310737473 0.0
    vertex 307.638848151395 9.430944310737473 0.0
  endloop
endfacet
facet normal 0.8314696123025475 -0.555570233019599 -0.0
  outer loop
    vertex 310.2369243627483 10.930944310737466 0.0
    vertex 310.0189081722687 10.604660023711302 3.0
    vertex 310.0189081722687 10.604660023711302 0.0
  endloop
endfacet
facet normal 0.8314696123025475 -0.555570233019599 -0.0
  outer loop
    vertex 310.0189081722687 10.604660023711302 3.0
    vertex 310.2369243627483 10.930944310737466 0.0
    vertex 310.2369243627483 10.930944310737466 3.0
  endloop
endfacet
facet normal 0.9807852804032363 -0.1950903220160988 -0.0
  outer loop
    vertex 310.61318273551643 12.039365734077316 0.0
    vertex 310.5366256302622 11.654487175429908 3.0
    vertex 310.5366256302622 11.654487175429908 0.0
  endloop
endfacet
facet normal 0.9807852804032363 -0.1950903220160988 -0.0
  outer loop
    vertex 310.5366256302622 11.654487175429908 3.0
    vertex 310.61318273551643 12.039365734077316 0.0
    vertex 310.61318273551643 12.039365734077316 3.0
  endloop
endfacet
facet normal 0.6593458151000541 -0.7518398074789904 -0.0
  outer loop
    vertex 309.76016849495466 10.309623967177819 3.0
    vertex 309.46513243842116 10.050884289863752 0.0
    vertex 309.76016849495466 10.309623967177819 0.0
  endloop
endfacet
facet normal 0.6593458151000541 -0.7518398074789904 -0.0
  outer loop
    vertex 309.46513243842116 10.050884289863752 0.0
    vertex 309.76016849495466 10.309623967177819 3.0
    vertex 309.46513243842116 10.050884289863752 3.0
  endloop
endfacet
facet normal -0.8968727415327205 -0.44228869021893624 -0.0
  outer loop
    vertex 299.8672095538612 11.282894013642203 3.0
    vertex 300.0407719400417 10.930944310737472 0.0
    vertex 300.0407719400417 10.930944310737472 3.0
  endloop
endfacet
facet normal -0.8968727415327205 -0.44228869021893624 -0.0
  outer loop
    vertex 300.0407719400417 10.930944310737472 0.0
    vertex 299.8672095538612 11.282894013642203 3.0
    vertex 299.8672095538612 11.282894013642203 0.0
  endloop
endfacet
facet normal -0.8314696123024932 -0.55557023301968 -0.0
  outer loop
    vertex 300.0407719400417 10.930944310737472 3.0
    vertex 300.25878813052134 10.60466002371131 0.0
    vertex 300.25878813052134 10.60466002371131 3.0
  endloop
endfacet
facet normal -0.8314696123024932 -0.55557023301968 -0.0
  outer loop
    vertex 300.25878813052134 10.60466002371131 0.0
    vertex 300.0407719400417 10.930944310737472 3.0
    vertex 300.0407719400417 10.930944310737472 0.0
  endloop
endfacet
facet normal -0.6593458151000501 -0.751839807478994 -0.0
  outer loop
    vertex 300.8125638643689 10.050884289863767 3.0
    vertex 300.5175278078354 10.30962396717783 0.0
    vertex 300.8125638643689 10.050884289863767 0.0
  endloop
endfacet
facet normal -0.6593458151000501 -0.751839807478994 -0.0
  outer loop
    vertex 300.5175278078354 10.30962396717783 0.0
    vertex 300.8125638643689 10.050884289863767 3.0
    vertex 300.5175278078354 10.30962396717783 3.0
  endloop
endfacet
facet normal -0.4422886902189785 -0.8968727415326997 -0.0
  outer loop
    vertex 301.49079785429973 9.659305713203612 3.0
    vertex 301.138848151395 9.832868099384156 0.0
    vertex 301.49079785429973 9.659305713203612 0.0
  endloop
endfacet
facet normal -0.4422886902189785 -0.8968727415326997 -0.0
  outer loop
    vertex 301.138848151395 9.832868099384156 0.0
    vertex 301.49079785429973 9.659305713203612 3.0
    vertex 301.138848151395 9.832868099384156 3.0
  endloop
endfacet
facet normal -0.19509032201613613 -0.9807852804032291 -0.0
  outer loop
    vertex 302.24726957473484 9.456609726616042 3.0
    vertex 301.8623910160875 9.533166831870268 0.0
    vertex 302.24726957473484 9.456609726616042 0.0
  endloop
endfacet
facet normal -0.19509032201613613 -0.9807852804032291 -0.0
  outer loop
    vertex 301.8623910160875 9.533166831870268 0.0
    vertex 302.24726957473484 9.456609726616042 3.0
    vertex 301.8623910160875 9.533166831870268 3.0
  endloop
endfacet
facet normal -0.0654031292301424 0.9978589232386036 -0.0
  outer loop
    vertex 302.24726957473484 36.4052788948589 3.0
    vertex 302.638848151395 36.430944310737466 0.0
    vertex 302.24726957473484 36.4052788948589 0.0
  endloop
endfacet
facet normal -0.0654031292301424 0.9978589232386036 -0.0
  outer loop
    vertex 302.638848151395 36.430944310737466 0.0
    vertex 302.24726957473484 36.4052788948589 3.0
    vertex 302.638848151395 36.430944310737466 3.0
  endloop
endfacet
facet normal -0.5555702330196355 0.8314696123025233 -0.0
  outer loop
    vertex 300.8125638643689 35.81100433161117 3.0
    vertex 301.138848151395 36.02902052209079 0.0
    vertex 300.8125638643689 35.81100433161117 0.0
  endloop
endfacet
facet normal -0.5555702330196355 0.8314696123025233 -0.0
  outer loop
    vertex 301.138848151395 36.02902052209079 0.0
    vertex 300.8125638643689 35.81100433161117 3.0
    vertex 301.138848151395 36.02902052209079 3.0
  endloop
endfacet
facet normal -0.8314696123025452 0.5555702330196022 -0.0
  outer loop
    vertex 300.2587881305213 35.257228597763635 3.0
    vertex 300.0407719400417 34.93094431073747 0.0
    vertex 300.0407719400417 34.93094431073747 3.0
  endloop
endfacet
facet normal -0.8314696123025452 0.5555702330196022 -0.0
  outer loop
    vertex 300.0407719400417 34.93094431073747 0.0
    vertex 300.2587881305213 35.257228597763635 3.0
    vertex 300.2587881305213 35.257228597763635 0.0
  endloop
endfacet
facet normal -0.8968727415327198 0.4422886902189377 -0.0
  outer loop
    vertex 300.0407719400417 34.93094431073747 3.0
    vertex 299.8672095538612 34.57899460783274 0.0
    vertex 299.8672095538612 34.57899460783274 3.0
  endloop
endfacet
facet normal -0.8968727415327198 0.4422886902189377 -0.0
  outer loop
    vertex 299.8672095538612 34.57899460783274 0.0
    vertex 300.0407719400417 34.93094431073747 3.0
    vertex 300.0407719400417 34.93094431073747 0.0
  endloop
endfacet
facet normal -0.9807852804032142 0.19509032201621082 -0.0
  outer loop
    vertex 299.7410706725278 34.20740144604503 3.0
    vertex 299.66451356727356 33.822522887397625 0.0
    vertex 299.66451356727356 33.822522887397625 3.0
  endloop
endfacet
facet normal -0.9807852804032142 0.19509032201621082 -0.0
  outer loop
    vertex 299.66451356727356 33.822522887397625 0.0
    vertex 299.7410706725278 34.20740144604503 3.0
    vertex 299.7410706725278 34.20740144604503 0.0
  endloop
endfacet
facet normal -0.99785892323861 0.0654031292300441 0.0
  outer loop
    vertex 299.66451356727356 33.822522887397625 3.0
    vertex 299.63884815139505 33.430944310737466 0.0
    vertex 299.63884815139505 33.430944310737466 3.0
  endloop
endfacet
facet normal -0.99785892323861 0.0654031292300441 0.0
  outer loop
    vertex 299.63884815139505 33.430944310737466 0.0
    vertex 299.66451356727356 33.822522887397625 3.0
    vertex 299.66451356727356 33.822522887397625 0.0
  endloop
endfacet
facet normal 0.06540312923005653 -0.9978589232386094 0.0
  outer loop
    vertex 308.0304267280552 9.456609726616009 3.0
    vertex 307.638848151395 9.430944310737473 0.0
    vertex 308.0304267280552 9.456609726616009 0.0
  endloop
endfacet
facet normal 0.06540312923005653 -0.9978589232386094 0.0
  outer loop
    vertex 307.638848151395 9.430944310737473 0.0
    vertex 308.0304267280552 9.456609726616009 3.0
    vertex 307.638848151395 9.430944310737473 3.0
  endloop
endfacet
facet normal 0.19509032201614993 -0.9807852804032262 -0.0
  outer loop
    vertex 308.41530528670256 9.53316683187024 3.0
    vertex 308.0304267280552 9.456609726616009 0.0
    vertex 308.41530528670256 9.53316683187024 0.0
  endloop
endfacet
facet normal 0.19509032201614993 -0.9807852804032262 -0.0
  outer loop
    vertex 308.0304267280552 9.456609726616009 0.0
    vertex 308.41530528670256 9.53316683187024 3.0
    vertex 308.0304267280552 9.456609726616009 3.0
  endloop
endfacet
facet normal 0.32143946530316925 -0.9469301294951031 -0.0
  outer loop
    vertex 308.78689844849026 9.659305713203588 3.0
    vertex 308.41530528670256 9.53316683187024 0.0
    vertex 308.78689844849026 9.659305713203588 0.0
  endloop
endfacet
facet normal 0.32143946530316925 -0.9469301294951031 -0.0
  outer loop
    vertex 308.41530528670256 9.53316683187024 0.0
    vertex 308.78689844849026 9.659305713203588 3.0
    vertex 308.41530528670256 9.53316683187024 3.0
  endloop
endfacet
facet normal 0.44228869021899003 -0.896872741532694 -0.0
  outer loop
    vertex 309.13884815139505 9.832868099384138 3.0
    vertex 308.78689844849026 9.659305713203588 0.0
    vertex 309.13884815139505 9.832868099384138 0.0
  endloop
endfacet
facet normal 0.44228869021899003 -0.896872741532694 -0.0
  outer loop
    vertex 308.78689844849026 9.659305713203588 0.0
    vertex 309.13884815139505 9.832868099384138 3.0
    vertex 308.78689844849026 9.659305713203588 3.0
  endloop
endfacet
facet normal 0.9469301294951049 -0.32143946530316386 -0.0
  outer loop
    vertex 310.5366256302622 11.654487175429908 0.0
    vertex 310.41048674892886 11.2828940136422 3.0
    vertex 310.41048674892886 11.2828940136422 0.0
  endloop
endfacet
facet normal 0.9469301294951049 -0.32143946530316386 -0.0
  outer loop
    vertex 310.41048674892886 11.2828940136422 3.0
    vertex 310.5366256302622 11.654487175429908 0.0
    vertex 310.5366256302622 11.654487175429908 3.0
  endloop
endfacet
facet normal -0.99785892323861 -0.06540312923004456 0.0
  outer loop
    vertex 299.63884815139505 12.430944310737473 3.0
    vertex 299.66451356727356 12.03936573407732 0.0
    vertex 299.66451356727356 12.03936573407732 3.0
  endloop
endfacet
facet normal -0.99785892323861 -0.06540312923004456 0.0
  outer loop
    vertex 299.66451356727356 12.03936573407732 0.0
    vertex 299.63884815139505 12.430944310737473 3.0
    vertex 299.63884815139505 12.430944310737473 0.0
  endloop
endfacet
facet normal -0.9469301294951047 -0.321439465303165 -0.0
  outer loop
    vertex 299.7410706725278 11.65448717542991 3.0
    vertex 299.8672095538612 11.282894013642203 0.0
    vertex 299.8672095538612 11.282894013642203 3.0
  endloop
endfacet
facet normal -0.9469301294951047 -0.321439465303165 -0.0
  outer loop
    vertex 299.8672095538612 11.282894013642203 0.0
    vertex 299.7410706725278 11.65448717542991 3.0
    vertex 299.7410706725278 11.65448717542991 0.0
  endloop
endfacet
facet normal -0.19509032201613613 0.9807852804032291 -0.0
  outer loop
    vertex 301.8623910160875 36.32872178960467 3.0
    vertex 302.24726957473484 36.4052788948589 0.0
    vertex 301.8623910160875 36.32872178960467 0.0
  endloop
endfacet
facet normal -0.19509032201613613 0.9807852804032291 -0.0
  outer loop
    vertex 302.24726957473484 36.4052788948589 0.0
    vertex 301.8623910160875 36.32872178960467 3.0
    vertex 302.24726957473484 36.4052788948589 3.0
  endloop
endfacet
facet normal -0.32143946530316275 0.9469301294951052 -0.0
  outer loop
    vertex 301.49079785429973 36.202582908271324 3.0
    vertex 301.8623910160875 36.32872178960467 0.0
    vertex 301.49079785429973 36.202582908271324 0.0
  endloop
endfacet
facet normal -0.32143946530316275 0.9469301294951052 -0.0
  outer loop
    vertex 301.8623910160875 36.32872178960467 0.0
    vertex 301.49079785429973 36.202582908271324 3.0
    vertex 301.8623910160875 36.32872178960467 3.0
  endloop
endfacet
facet normal 0.32143946530316275 0.9469301294951052 0.0
  outer loop
    vertex 308.41530528670256 36.32872178960467 3.0
    vertex 308.78689844849026 36.202582908271324 0.0
    vertex 308.41530528670256 36.32872178960467 0.0
  endloop
endfacet
facet normal 0.32143946530316275 0.9469301294951052 0.0
  outer loop
    vertex 308.78689844849026 36.202582908271324 0.0
    vertex 308.41530528670256 36.32872178960467 3.0
    vertex 308.78689844849026 36.202582908271324 3.0
  endloop
endfacet
facet normal 0.19509032201613613 0.9807852804032291 0.0
  outer loop
    vertex 308.0304267280552 36.4052788948589 3.0
    vertex 308.41530528670256 36.32872178960467 0.0
    vertex 308.0304267280552 36.4052788948589 0.0
  endloop
endfacet
facet normal 0.19509032201613613 0.9807852804032291 0.0
  outer loop
    vertex 308.41530528670256 36.32872178960467 0.0
    vertex 308.0304267280552 36.4052788948589 3.0
    vertex 308.41530528670256 36.32872178960467 3.0
  endloop
endfacet
facet normal 0.7518398074790066 0.6593458151000359 0.0
  outer loop
    vertex 309.76016849495466 35.55226465429711 0.0
    vertex 310.0189081722687 35.25722859776363 3.0
    vertex 310.0189081722687 35.25722859776363 0.0
  endloop
endfacet
facet normal 0.7518398074790066 0.6593458151000359 0.0
  outer loop
    vertex 310.0189081722687 35.25722859776363 3.0
    vertex 309.76016849495466 35.55226465429711 0.0
    vertex 309.76016849495466 35.55226465429711 3.0
  endloop
endfacet
facet normal 0.5555702330195923 0.8314696123025521 0.0
  outer loop
    vertex 309.138848151395 36.02902052209079 3.0
    vertex 309.46513243842116 35.81100433161117 0.0
    vertex 309.138848151395 36.02902052209079 0.0
  endloop
endfacet
facet normal 0.5555702330195923 0.8314696123025521 0.0
  outer loop
    vertex 309.46513243842116 35.81100433161117 0.0
    vertex 309.138848151395 36.02902052209079 3.0
    vertex 309.46513243842116 35.81100433161117 3.0
  endloop
endfacet
facet normal 0.9807852804032362 0.19509032201610021 0.0
  outer loop
    vertex 310.5366256302622 34.20740144604503 0.0
    vertex 310.61318273551643 33.822522887397625 3.0
    vertex 310.61318273551643 33.822522887397625 0.0
  endloop
endfacet
facet normal 0.9807852804032362 0.19509032201610021 0.0
  outer loop
    vertex 310.61318273551643 33.822522887397625 3.0
    vertex 310.5366256302622 34.20740144604503 0.0
    vertex 310.5366256302622 34.20740144604503 3.0
  endloop
endfacet
facet normal 0.9978589232386025 0.06540312923015856 -0.0
  outer loop
    vertex 310.61318273551643 33.822522887397625 0.0
    vertex 310.638848151395 33.430944310737466 3.0
    vertex 310.638848151395 33.430944310737466 0.0
  endloop
endfacet
facet normal 0.9978589232386025 0.06540312923015856 -0.0
  outer loop
    vertex 310.638848151395 33.430944310737466 3.0
    vertex 310.61318273551643 33.822522887397625 0.0
    vertex 310.61318273551643 33.822522887397625 3.0
  endloop
endfacet
facet normal 0.659345815100046 0.7518398074789977 0.0
  outer loop
    vertex 309.46513243842116 35.81100433161117 3.0
    vertex 309.76016849495466 35.55226465429711 0.0
    vertex 309.46513243842116 35.81100433161117 0.0
  endloop
endfacet
facet normal 0.659345815100046 0.7518398074789977 0.0
  outer loop
    vertex 309.76016849495466 35.55226465429711 0.0
    vertex 309.46513243842116 35.81100433161117 3.0
    vertex 309.76016849495466 35.55226465429711 3.0
  endloop
endfacet
facet normal 0.0654031292301424 0.9978589232386036 -0.0
  outer loop
    vertex 307.638848151395 36.430944310737466 3.0
    vertex 308.0304267280552 36.4052788948589 0.0
    vertex 307.638848151395 36.430944310737466 0.0
  endloop
endfacet
facet normal 0.0654031292301424 0.9978589232386036 -0.0
  outer loop
    vertex 308.0304267280552 36.4052788948589 0.0
    vertex 307.638848151395 36.430944310737466 3.0
    vertex 308.0304267280552 36.4052788948589 3.0
  endloop
endfacet
facet normal 0.9469301294951039 0.3214394653031672 0.0
  outer loop
    vertex 310.41048674892886 34.57899460783273 0.0
    vertex 310.5366256302622 34.20740144604503 3.0
    vertex 310.5366256302622 34.20740144604503 0.0
  endloop
endfacet
facet normal 0.9469301294951039 0.3214394653031672 0.0
  outer loop
    vertex 310.5366256302622 34.20740144604503 3.0
    vertex 310.41048674892886 34.57899460783273 0.0
    vertex 310.41048674892886 34.57899460783273 3.0
  endloop
endfacet
facet normal 0.896872741532674 0.4422886902190301 0.0
  outer loop
    vertex 310.2369243627483 34.930944310737466 0.0
    vertex 310.41048674892886 34.57899460783273 3.0
    vertex 310.41048674892886 34.57899460783273 0.0
  endloop
endfacet
facet normal 0.896872741532674 0.4422886902190301 0.0
  outer loop
    vertex 310.41048674892886 34.57899460783273 3.0
    vertex 310.2369243627483 34.930944310737466 0.0
    vertex 310.2369243627483 34.930944310737466 3.0
  endloop
endfacet
facet normal 0.8314696123025452 0.5555702330196022 0.0
  outer loop
    vertex 310.0189081722687 35.25722859776363 0.0
    vertex 310.2369243627483 34.930944310737466 3.0
    vertex 310.2369243627483 34.930944310737466 0.0
  endloop
endfacet
facet normal 0.8314696123025452 0.5555702330196022 0.0
  outer loop
    vertex 310.2369243627483 34.930944310737466 3.0
    vertex 310.0189081722687 35.25722859776363 0.0
    vertex 310.0189081722687 35.25722859776363 3.0
  endloop
endfacet
facet normal 0.4422886902190183 0.89687274153268 0.0
  outer loop
    vertex 308.78689844849026 36.202582908271324 3.0
    vertex 309.138848151395 36.02902052209079 0.0
    vertex 308.78689844849026 36.202582908271324 0.0
  endloop
endfacet
facet normal 0.4422886902190183 0.89687274153268 0.0
  outer loop
    vertex 309.138848151395 36.02902052209079 0.0
    vertex 308.78689844849026 36.202582908271324 3.0
    vertex 309.138848151395 36.02902052209079 3.0
  endloop
endfacet
facet normal -0.0654031292301424 -0.9978589232386036 0.0
  outer loop
    vertex 302.638848151395 9.430944310737473 3.0
    vertex 302.24726957473484 9.456609726616042 0.0
    vertex 302.638848151395 9.430944310737473 0.0
  endloop
endfacet
facet normal -0.0654031292301424 -0.9978589232386036 0.0
  outer loop
    vertex 302.24726957473484 9.456609726616042 0.0
    vertex 302.638848151395 9.430944310737473 3.0
    vertex 302.24726957473484 9.456609726616042 3.0
  endloop
endfacet
facet normal 0.5555702330196429 -0.8314696123025181 -0.0
  outer loop
    vertex 309.46513243842116 10.050884289863752 3.0
    vertex 309.13884815139505 9.832868099384138 0.0
    vertex 309.46513243842116 10.050884289863752 0.0
  endloop
endfacet
facet normal 0.5555702330196429 -0.8314696123025181 -0.0
  outer loop
    vertex 309.13884815139505 9.832868099384138 0.0
    vertex 309.46513243842116 10.050884289863752 3.0
    vertex 309.13884815139505 9.832868099384138 3.0
  endloop
endfacet
facet normal 0.7518398074790066 -0.6593458151000359 -0.0
  outer loop
    vertex 310.0189081722687 10.604660023711302 0.0
    vertex 309.76016849495466 10.309623967177819 3.0
    vertex 309.76016849495466 10.309623967177819 0.0
  endloop
endfacet
facet normal 0.7518398074790066 -0.6593458151000359 -0.0
  outer loop
    vertex 309.76016849495466 10.309623967177819 3.0
    vertex 310.0189081722687 10.604660023711302 0.0
    vertex 310.0189081722687 10.604660023711302 3.0
  endloop
endfacet
facet normal 0.8968727415326756 -0.44228869021902734 -0.0
  outer loop
    vertex 310.41048674892886 11.2828940136422 0.0
    vertex 310.2369243627483 10.930944310737466 3.0
    vertex 310.2369243627483 10.930944310737466 0.0
  endloop
endfacet
facet normal 0.8968727415326756 -0.44228869021902734 -0.0
  outer loop
    vertex 310.2369243627483 10.930944310737466 3.0
    vertex 310.41048674892886 11.2828940136422 0.0
    vertex 310.41048674892886 11.2828940136422 3.0
  endloop
endfacet
facet normal 0.9978589232386025 -0.06540312923015856 -0.0
  outer loop
    vertex 310.638848151395 12.430944310737473 0.0
    vertex 310.61318273551643 12.039365734077316 3.0
    vertex 310.61318273551643 12.039365734077316 0.0
  endloop
endfacet
facet normal 0.9978589232386025 -0.06540312923015856 -0.0
  outer loop
    vertex 310.61318273551643 12.039365734077316 3.0
    vertex 310.638848151395 12.430944310737473 0.0
    vertex 310.638848151395 12.430944310737473 3.0
  endloop
endfacet
facet normal -0.9807852804032143 -0.1950903220162094 -0.0
  outer loop
    vertex 299.66451356727356 12.03936573407732 3.0
    vertex 299.7410706725278 11.65448717542991 0.0
    vertex 299.7410706725278 11.65448717542991 3.0
  endloop
endfacet
facet normal -0.9807852804032143 -0.1950903220162094 -0.0
  outer loop
    vertex 299.7410706725278 11.65448717542991 0.0
    vertex 299.66451356727356 12.03936573407732 3.0
    vertex 299.66451356727356 12.03936573407732 0.0
  endloop
endfacet
facet normal -0.7518398074790019 -0.6593458151000412 -0.0
  outer loop
    vertex 300.25878813052134 10.60466002371131 3.0
    vertex 300.5175278078354 10.30962396717783 0.0
    vertex 300.5175278078354 10.30962396717783 3.0
  endloop
endfacet
facet normal -0.7518398074790019 -0.6593458151000412 -0.0
  outer loop
    vertex 300.5175278078354 10.30962396717783 0.0
    vertex 300.25878813052134 10.60466002371131 3.0
    vertex 300.25878813052134 10.60466002371131 0.0
  endloop
endfacet
facet normal -0.5555702330196379 -0.8314696123025214 -0.0
  outer loop
    vertex 301.138848151395 9.832868099384156 3.0
    vertex 300.8125638643689 10.050884289863767 0.0
    vertex 301.138848151395 9.832868099384156 0.0
  endloop
endfacet
facet normal -0.5555702330196379 -0.8314696123025214 -0.0
  outer loop
    vertex 300.8125638643689 10.050884289863767 0.0
    vertex 301.138848151395 9.832868099384156 3.0
    vertex 300.8125638643689 10.050884289863767 3.0
  endloop
endfacet
facet normal -0.3214394653031563 -0.9469301294951075 -0.0
  outer loop
    vertex 301.8623910160875 9.533166831870268 3.0
    vertex 301.49079785429973 9.659305713203612 0.0
    vertex 301.8623910160875 9.533166831870268 0.0
  endloop
endfacet
facet normal -0.3214394653031563 -0.9469301294951075 -0.0
  outer loop
    vertex 301.49079785429973 9.659305713203612 0.0
    vertex 301.8623910160875 9.533166831870268 3.0
    vertex 301.49079785429973 9.659305713203612 3.0
  endloop
endfacet
facet normal -0.44228869021897266 0.8968727415327025 -0.0
  outer loop
    vertex 301.138848151395 36.02902052209079 3.0
    vertex 301.49079785429973 36.202582908271324 0.0
    vertex 301.138848151395 36.02902052209079 0.0
  endloop
endfacet
facet normal -0.44228869021897266 0.8968727415327025 -0.0
  outer loop
    vertex 301.49079785429973 36.202582908271324 0.0
    vertex 301.138848151395 36.02902052209079 3.0
    vertex 301.49079785429973 36.202582908271324 3.0
  endloop
endfacet
facet normal -0.6593458151000541 0.7518398074789904 -0.0
  outer loop
    vertex 300.5175278078354 35.55226465429711 3.0
    vertex 300.8125638643689 35.81100433161117 0.0
    vertex 300.5175278078354 35.55226465429711 0.0
  endloop
endfacet
facet normal -0.6593458151000541 0.7518398074789904 -0.0
  outer loop
    vertex 300.8125638643689 35.81100433161117 0.0
    vertex 300.5175278078354 35.55226465429711 3.0
    vertex 300.8125638643689 35.81100433161117 3.0
  endloop
endfacet
facet normal -0.7518398074789432 0.6593458151001079 -0.0
  outer loop
    vertex 300.5175278078354 35.55226465429711 3.0
    vertex 300.2587881305213 35.257228597763635 0.0
    vertex 300.2587881305213 35.257228597763635 3.0
  endloop
endfacet
facet normal -0.7518398074789432 0.6593458151001079 -0.0
  outer loop
    vertex 300.2587881305213 35.257228597763635 0.0
    vertex 300.5175278078354 35.55226465429711 3.0
    vertex 300.5175278078354 35.55226465429711 0.0
  endloop
endfacet
facet normal -0.9469301294951052 0.32143946530316275 -0.0
  outer loop
    vertex 299.8672095538612 34.57899460783274 3.0
    vertex 299.7410706725278 34.20740144604503 0.0
    vertex 299.7410706725278 34.20740144604503 3.0
  endloop
endfacet
facet normal -0.9469301294951052 0.32143946530316275 -0.0
  outer loop
    vertex 299.7410706725278 34.20740144604503 0.0
    vertex 299.8672095538612 34.57899460783274 3.0
    vertex 299.8672095538612 34.57899460783274 0.0
  endloop
endfacet
facet normal 1.0 -0.0 -0.0
  outer loop
    vertex 310.638848151395 33.430944310737466 0.0
    vertex 310.638848151395 12.430944310737473 3.0
    vertex 310.638848151395 12.430944310737473 0.0
  endloop
endfacet
facet normal 1.0 -0.0 -0.0
  outer loop
    vertex 310.638848151395 12.430944310737473 3.0
    vertex 310.638848151395 33.430944310737466 0.0
    vertex 310.638848151395 33.430944310737466 3.0
  endloop
endfacet
facet normal -0.0 -1.0 -0.0
  outer loop
    vertex 307.638848151395 33.430944310737466 3.0
    vertex 302.638848151395 33.430944310737466 0.0
    vertex 307.638848151395 33.430944310737466 0.0
  endloop
endfacet
facet normal -0.0 -1.0 -0.0
  outer loop
    vertex 302.638848151395 33.430944310737466 0.0
    vertex 307.638848151395 33.430944310737466 3.0
    vertex 302.638848151395 33.430944310737466 3.0
  endloop
endfacet
facet normal -0.0 1.0 -0.0
  outer loop
    vertex 302.638848151395 36.430944310737466 3.0
    vertex 307.638848151395 36.430944310737466 0.0
    vertex 302.638848151395 36.430944310737466 0.0
  endloop
endfacet
facet normal -0.0 1.0 -0.0
  outer loop
    vertex 307.638848151395 36.430944310737466 0.0
    vertex 302.638848151395 36.430944310737466 3.0
    vertex 307.638848151395 36.430944310737466 3.0
  endloop
endfacet
facet normal -5.639932965095805e-16 1.0 0.0
  outer loop
    vertex 302.638848151395 12.43094431073747 3.0
    vertex 307.638848151395 12.430944310737473 0.0
    vertex 302.638848151395 12.43094431073747 0.0
  endloop
endfacet
facet normal -5.639932965095805e-16 1.0 0.0
  outer loop
    vertex 307.638848151395 12.430944310737473 0.0
    vertex 302.638848151395 12.43094431073747 3.0
    vertex 307.638848151395 12.430944310737473 3.0
  endloop
endfacet
facet normal 0.0 -1.0 0.0
  outer loop
    vertex 307.638848151395 9.430944310737473 3.0
    vertex 302.638848151395 9.430944310737473 0.0
    vertex 307.638848151395 9.430944310737473 0.0
  endloop
endfacet
facet normal 0.0 -1.0 0.0
  outer loop
    vertex 302.638848151395 9.430944310737473 0.0
    vertex 307.638848151395 9.430944310737473 3.0
    vertex 302.638848151395 9.430944310737473 3.0
  endloop
endfacet
facet normal -1.0 0.0 0.0
  outer loop
    vertex 299.63884815139505 33.430944310737466 3.0
    vertex 299.63884815139505 12.430944310737473 0.0
    vertex 299.63884815139505 12.430944310737473 3.0
  endloop
endfacet
facet normal -1.0 0.0 0.0
  outer loop
    vertex 299.63884815139505 12.430944310737473 0.0
    vertex 299.63884815139505 33.430944310737466 3.0
    vertex 299.63884815139505 33.430944310737466 0.0
  endloop
endfacet
facet normal 1.0 0.0 0.0
  outer loop
    vertex 302.638848151395 33.430944310737466 0.0
    vertex 302.638848151395 12.43094431073747 3.0
    vertex 302.638848151395 12.43094431073747 0.0
  endloop
endfacet
facet normal 1.0 0.0 0.0
  outer loop
    vertex 302.638848151395 12.43094431073747 3.0
    vertex 302.638848151395 33.430944310737466 0.0
    vertex 302.638848151395 33.430944310737466 3.0
  endloop
endfacet
facet normal -1.0 0.0 0.0
  outer loop
    vertex 307.638848151395 33.430944310737466 3.0
    vertex 307.638848151395 12.430944310737473 0.0
    vertex 307.638848151395 12.430944310737473 3.0
  endloop
endfacet
facet normal -1.0 0.0 0.0
  outer loop
    vertex 307.638848151395 12.430944310737473 0.0
    vertex 307.638848151395 33.430944310737466 3.0
    vertex 307.638848151395 33.430944310737466 0.0
  endloop
endfacet
endsolid Transmitter
