solid Transmitter
facet normal 1.0 0.0 0.0
  outer loop
    vertex 190.6860343312594 -1.441210199640987 1.0359716938442273e-13
    vertex 190.6860343312594 -23.941210199640967 1.000000000000107
    vertex 190.6860343312594 -23.941210199640967 1.186389489005671e-13
  endloop
endfacet
facet normal 1.0 0.0 0.0
  outer loop
    vertex 190.6860343312594 -23.941210199640967 1.000000000000107
    vertex 190.6860343312594 -1.441210199640987 1.0359716938442273e-13
    vertex 190.6860343312594 -1.441210199641032 3.0000000000000777
  endloop
endfacet
facet normal 1.0 0.0 0.0
  outer loop
    vertex 190.6860343312594 -24.441210199640945 1.000000000000107
    vertex 190.6860343312594 -1.441210199641032 3.0000000000000777
    vertex 190.6860343312594 -24.44121019964099 3.0000000000000777
  endloop
endfacet
facet normal 1.0 0.0 0.0
  outer loop
    vertex 190.6860343312594 -1.441210199641032 3.0000000000000777
    vertex 190.6860343312594 -24.441210199640945 1.000000000000107
    vertex 190.6860343312594 -23.941210199640967 1.000000000000107
  endloop
endfacet
facet normal 0.0 -1.0 0.0
  outer loop
    vertex 196.68603433125935 -5.941210199640934 1.0000000000000993
    vertex 193.18603433125952 -5.941210199640956 3.0000000000000835
    vertex 193.1860343312595 -5.941210199640956 1.0000000000000873
  endloop
endfacet
facet normal 0.0 -1.0 0.0
  outer loop
    vertex 193.18603433125952 -5.941210199640956 3.0000000000000835
    vertex 196.68603433125935 -5.941210199640934 1.0000000000000993
    vertex 196.68603433125932 -5.941210199640934 3.000000000000134
  endloop
endfacet
facet normal -9.023892744152987e-15 1.0 6.445637674395269e-15
  outer loop
    vertex 190.6860343312594 -24.44121019964099 3.0000000000000777
    vertex 193.1860343312595 -24.441210199640945 1.0000000000001117
    vertex 190.6860343312594 -24.441210199640945 1.000000000000107
  endloop
endfacet
facet normal -9.023892744152987e-15 1.0 6.445637674395269e-15
  outer loop
    vertex 193.1860343312595 -24.441210199640945 1.0000000000001117
    vertex 190.6860343312594 -24.44121019964099 3.0000000000000777
    vertex 193.18603433125952 -24.441210199640945 3.000000000000086
  endloop
endfacet
facet normal 1.0 4.828488761530355e-15 1.0671562539714483e-14
  outer loop
    vertex 178.68603433125935 21.55878980035897 1.9669266215771584e-13
    vertex 178.68603433125932 19.558789800358973 3.0000000000002394
    vertex 178.68603433125935 19.558789800358973 2.396971510165713e-13
  endloop
endfacet
facet normal 1.0 4.828488761530355e-15 1.0671562539714483e-14
  outer loop
    vertex 178.68603433125932 19.558789800358973 3.0000000000002394
    vertex 178.68603433125935 21.55878980035897 1.9669266215771584e-13
    vertex 178.6860343312589 19.706840097454155 37.77163859753393
  endloop
endfacet
facet normal 1.0 4.828488761530355e-15 1.0671562539714483e-14
  outer loop
    vertex 178.6860343312589 19.706840097454155 37.77163859753393
    vertex 178.68603433125935 21.55878980035897 1.9669266215771584e-13
    vertex 178.6860343312589 20.058789800358884 37.59807621135339
  endloop
endfacet
facet normal 1.0 4.828488761530355e-15 1.0671562539714483e-14
  outer loop
    vertex 178.6860343312589 20.058789800358884 37.59807621135339
    vertex 178.68603433125935 21.55878980035897 1.9669266215771584e-13
    vertex 178.6860343312589 20.38507408738504 37.38006002087377
  endloop
endfacet
facet normal 1.0 4.828488761530355e-15 1.0671562539714483e-14
  outer loop
    vertex 178.6860343312589 20.38507408738504 37.38006002087377
    vertex 178.68603433125935 21.55878980035897 1.9669266215771584e-13
    vertex 178.6860343312589 20.68011014391851 37.12132034355972
  endloop
endfacet
facet normal 1.0 4.828488761530355e-15 1.0671562539714483e-14
  outer loop
    vertex 178.6860343312589 20.68011014391851 37.12132034355972
    vertex 178.68603433125935 21.55878980035897 1.9669266215771584e-13
    vertex 178.6860343312589 20.938849821232576 36.82628428702623
  endloop
endfacet
facet normal 1.0 4.828488761530355e-15 1.0671562539714483e-14
  outer loop
    vertex 178.6860343312589 20.938849821232576 36.82628428702623
    vertex 178.68603433125935 21.55878980035897 1.9669266215771584e-13
    vertex 178.6860343312589 21.156866011712186 36.50000000000007
  endloop
endfacet
facet normal 1.0 4.828488761530355e-15 1.0671562539714483e-14
  outer loop
    vertex 178.6860343312589 21.156866011712186 36.50000000000007
    vertex 178.68603433125935 21.55878980035897 1.9669266215771584e-13
    vertex 178.6860343312589 21.330428397892746 36.148050297095345
  endloop
endfacet
facet normal 1.0 4.828488761530355e-15 1.0671562539714483e-14
  outer loop
    vertex 178.6860343312589 21.330428397892746 36.148050297095345
    vertex 178.68603433125935 21.55878980035897 1.9669266215771584e-13
    vertex 178.6860343312589 21.456567279226068 35.77645713530763
  endloop
endfacet
facet normal 1.0 4.828488761530355e-15 1.0671562539714483e-14
  outer loop
    vertex 178.6860343312589 21.456567279226068 35.77645713530763
    vertex 178.68603433125935 21.55878980035897 1.9669266215771584e-13
    vertex 178.6860343312589 21.533124384480306 35.39157857666023
  endloop
endfacet
facet normal 1.0 4.828488761530355e-15 1.0671562539714483e-14
  outer loop
    vertex 178.6860343312589 21.533124384480306 35.39157857666023
    vertex 178.68603433125935 21.55878980035897 1.9669266215771584e-13
    vertex 178.6860343312589 21.55878980035888 35.00000000000008
  endloop
endfacet
facet normal 1.0 4.828488761530355e-15 1.0671562539714483e-14
  outer loop
    vertex 178.68603433125944 -26.941210199640715 5.0759396685862156e-14
    vertex 178.68603433125924 -29.441210199641095 56.00000000000006
    vertex 178.68603433125946 -29.441210199641095 1.0151879337172431e-13
  endloop
endfacet
facet normal 1.0 4.828488761530355e-15 1.0671562539714483e-14
  outer loop
    vertex 178.68603433125924 -29.441210199641095 56.00000000000006
    vertex 178.68603433125944 -26.941210199640715 5.0759396685862156e-14
    vertex 178.68603433125944 -26.941210199640715 3.0000000000000226
  endloop
endfacet
facet normal 1.0 4.828488761530355e-15 1.0671562539714483e-14
  outer loop
    vertex 178.68603433125924 -29.441210199641095 56.00000000000006
    vertex 178.68603433125944 -26.941210199640715 3.0000000000000226
    vertex 178.68603433125867 1.558789800358868 56.0000000000001
  endloop
endfacet
facet normal 1.0 4.828488761530355e-15 1.0671562539714483e-14
  outer loop
    vertex 178.68603433125867 1.558789800358868 56.0000000000001
    vertex 178.68603433125944 -26.941210199640715 3.0000000000000226
    vertex 178.68603433125892 4.584455216237487 40.60842142333993
  endloop
endfacet
facet normal 1.0 4.828488761530355e-15 1.0671562539714483e-14
  outer loop
    vertex 178.68603433125892 4.584455216237487 40.60842142333993
    vertex 178.68603433125944 -26.941210199640715 3.0000000000000226
    vertex 178.68603433125892 4.661012321491724 40.22354286469252
  endloop
endfacet
facet normal 1.0 4.828488761530355e-15 1.0671562539714483e-14
  outer loop
    vertex 178.68603433125892 4.661012321491724 40.22354286469252
    vertex 178.68603433125944 -26.941210199640715 3.0000000000000226
    vertex 178.68603433125892 4.78715120282507 39.85194970290481
  endloop
endfacet
facet normal 1.0 4.828488761530355e-15 1.0671562539714483e-14
  outer loop
    vertex 178.68603433125892 4.78715120282507 39.85194970290481
    vertex 178.68603433125944 -26.941210199640715 3.0000000000000226
    vertex 178.68603433125932 19.558789800358973 3.0000000000002394
  endloop
endfacet
facet normal 1.0 4.828488761530355e-15 1.0671562539714483e-14
  outer loop
    vertex 178.68603433125867 1.558789800358868 56.0000000000001
    vertex 178.68603433125892 4.584455216237487 40.60842142333993
    vertex 178.68603433125867 1.950368377019022 55.97433458412153
  endloop
endfacet
facet normal 1.0 4.828488761530355e-15 1.0671562539714483e-14
  outer loop
    vertex 178.68603433125867 1.950368377019022 55.97433458412153
    vertex 178.68603433125892 4.584455216237487 40.60842142333993
    vertex 178.68603433125867 2.33524693566643 55.8977774788673
  endloop
endfacet
facet normal 1.0 4.828488761530355e-15 1.0671562539714483e-14
  outer loop
    vertex 178.68603433125867 2.33524693566643 55.8977774788673
    vertex 178.68603433125892 4.584455216237487 40.60842142333993
    vertex 178.68603433125867 2.706840097454137 55.771638597533965
  endloop
endfacet
facet normal 1.0 4.828488761530355e-15 1.0671562539714483e-14
  outer loop
    vertex 178.68603433125867 2.706840097454137 55.771638597533965
    vertex 178.68603433125892 4.584455216237487 40.60842142333993
    vertex 178.68603433125867 3.0587898003588685 55.598076211353415
  endloop
endfacet
facet normal 1.0 4.828488761530355e-15 1.0671562539714483e-14
  outer loop
    vertex 178.68603433125867 3.0587898003588685 55.598076211353415
    vertex 178.68603433125892 4.584455216237487 40.60842142333993
    vertex 178.68603433125867 3.3850740873850316 55.380060020873806
  endloop
endfacet
facet normal 1.0 4.828488761530355e-15 1.0671562539714483e-14
  outer loop
    vertex 178.68603433125867 3.3850740873850316 55.380060020873806
    vertex 178.68603433125892 4.584455216237487 40.60842142333993
    vertex 178.6860343312589 4.558789800358912 41.00000000000008
  endloop
endfacet
facet normal 1.0 4.828488761530355e-15 1.0671562539714483e-14
  outer loop
    vertex 178.68603433125867 3.3850740873850316 55.380060020873806
    vertex 178.6860343312589 4.558789800358912 41.00000000000008
    vertex 178.6860343312587 3.680110143918513 55.121320343559745
  endloop
endfacet
facet normal 1.0 4.828488761530355e-15 1.0671562539714483e-14
  outer loop
    vertex 178.6860343312587 3.680110143918513 55.121320343559745
    vertex 178.6860343312589 4.558789800358912 41.00000000000008
    vertex 178.6860343312587 3.9388498212325773 54.82628428702627
  endloop
endfacet
facet normal 1.0 4.828488761530355e-15 1.0671562539714483e-14
  outer loop
    vertex 178.6860343312587 3.9388498212325773 54.82628428702627
    vertex 178.6860343312589 4.558789800358912 41.00000000000008
    vertex 178.6860343312587 4.1568660117121885 54.50000000000011
  endloop
endfacet
facet normal 1.0 4.828488761530355e-15 1.0671562539714483e-14
  outer loop
    vertex 178.6860343312587 4.1568660117121885 54.50000000000011
    vertex 178.6860343312589 4.558789800358912 41.00000000000008
    vertex 178.6860343312587 4.330428397892734 54.148050297095374
  endloop
endfacet
facet normal 1.0 4.828488761530355e-15 1.0671562539714483e-14
  outer loop
    vertex 178.6860343312587 4.330428397892734 54.148050297095374
    vertex 178.6860343312589 4.558789800358912 41.00000000000008
    vertex 178.6860343312587 4.45656727922608 53.776457135307666
  endloop
endfacet
facet normal 1.0 4.828488761530355e-15 1.0671562539714483e-14
  outer loop
    vertex 178.6860343312587 4.45656727922608 53.776457135307666
    vertex 178.6860343312589 4.558789800358912 41.00000000000008
    vertex 178.6860343312587 4.533124384480307 53.391578576660265
  endloop
endfacet
facet normal 1.0 4.828488761530355e-15 1.0671562539714483e-14
  outer loop
    vertex 178.6860343312587 4.533124384480307 53.391578576660265
    vertex 178.6860343312589 4.558789800358912 41.00000000000008
    vertex 178.6860343312587 4.558789800358877 53.00000000000011
  endloop
endfacet
facet normal 1.0 4.828488761530355e-15 1.0671562539714483e-14
  outer loop
    vertex 178.68603433125892 4.78715120282507 39.85194970290481
    vertex 178.68603433125932 19.558789800358973 3.0000000000002394
    vertex 178.68603433125892 4.960713589005605 39.50000000000008
  endloop
endfacet
facet normal 1.0 4.828488761530355e-15 1.0671562539714483e-14
  outer loop
    vertex 178.68603433125892 4.960713589005605 39.50000000000008
    vertex 178.68603433125932 19.558789800358973 3.0000000000002394
    vertex 178.68603433125892 5.178729779485216 39.173715712973916
  endloop
endfacet
facet normal 1.0 4.828488761530355e-15 1.0671562539714483e-14
  outer loop
    vertex 178.68603433125892 5.178729779485216 39.173715712973916
    vertex 178.68603433125932 19.558789800358973 3.0000000000002394
    vertex 178.68603433125892 5.437469456799281 38.87867965644044
  endloop
endfacet
facet normal 1.0 4.828488761530355e-15 1.0671562539714483e-14
  outer loop
    vertex 178.68603433125892 5.437469456799281 38.87867965644044
    vertex 178.68603433125932 19.558789800358973 3.0000000000002394
    vertex 178.68603433125892 5.732505513332754 38.61993997912637
  endloop
endfacet
facet normal 1.0 4.828488761530355e-15 1.0671562539714483e-14
  outer loop
    vertex 178.68603433125892 5.732505513332754 38.61993997912637
    vertex 178.68603433125932 19.558789800358973 3.0000000000002394
    vertex 178.68603433125892 6.058789800358909 38.40192378864676
  endloop
endfacet
facet normal 1.0 4.828488761530355e-15 1.0671562539714483e-14
  outer loop
    vertex 178.68603433125892 6.058789800358909 38.40192378864676
    vertex 178.68603433125932 19.558789800358973 3.0000000000002394
    vertex 178.68603433125892 6.410739503263639 38.22836140246622
  endloop
endfacet
facet normal 1.0 4.828488761530355e-15 1.0671562539714483e-14
  outer loop
    vertex 178.68603433125892 6.410739503263639 38.22836140246622
    vertex 178.68603433125932 19.558789800358973 3.0000000000002394
    vertex 178.68603433125892 6.782332665051349 38.10222252113287
  endloop
endfacet
facet normal 1.0 4.828488761530355e-15 1.0671562539714483e-14
  outer loop
    vertex 178.68603433125892 6.782332665051349 38.10222252113287
    vertex 178.68603433125932 19.558789800358973 3.0000000000002394
    vertex 178.68603433125892 7.167211223698761 38.02566541587865
  endloop
endfacet
facet normal 1.0 4.828488761530355e-15 1.0671562539714483e-14
  outer loop
    vertex 178.68603433125892 7.167211223698761 38.02566541587865
    vertex 178.68603433125932 19.558789800358973 3.0000000000002394
    vertex 178.68603433125892 7.558789800358906 38.00000000000008
  endloop
endfacet
facet normal 1.0 4.828488761530355e-15 1.0671562539714483e-14
  outer loop
    vertex 178.68603433125892 7.558789800358906 38.00000000000008
    vertex 178.68603433125932 19.558789800358973 3.0000000000002394
    vertex 178.6860343312589 18.558789800358888 38.00000000000008
  endloop
endfacet
facet normal 1.0 4.828488761530355e-15 1.0671562539714483e-14
  outer loop
    vertex 178.6860343312589 18.558789800358888 38.00000000000008
    vertex 178.68603433125932 19.558789800358973 3.0000000000002394
    vertex 178.6860343312589 18.950368377019032 37.97433458412151
  endloop
endfacet
facet normal 1.0 4.828488761530355e-15 1.0671562539714483e-14
  outer loop
    vertex 178.6860343312589 18.950368377019032 37.97433458412151
    vertex 178.68603433125932 19.558789800358973 3.0000000000002394
    vertex 178.6860343312589 19.335246935666444 37.897777478867276
  endloop
endfacet
facet normal 1.0 4.828488761530355e-15 1.0671562539714483e-14
  outer loop
    vertex 178.6860343312589 19.335246935666444 37.897777478867276
    vertex 178.68603433125932 19.558789800358973 3.0000000000002394
    vertex 178.6860343312589 19.706840097454155 37.77163859753393
  endloop
endfacet
facet normal -3.2312975714380054e-29 1.0 2.8787157842676376e-15
  outer loop
    vertex 176.68603433125872 4.558789800358877 53.000000000000085
    vertex 178.6860343312589 4.558789800358912 41.00000000000008
    vertex 176.6860343312589 4.558789800358912 41.00000000000006
  endloop
endfacet
facet normal -3.2312975714380054e-29 1.0 2.8787157842676376e-15
  outer loop
    vertex 178.6860343312589 4.558789800358912 41.00000000000008
    vertex 176.68603433125872 4.558789800358877 53.000000000000085
    vertex 178.6860343312587 4.558789800358877 53.00000000000011
  endloop
endfacet
facet normal -1.3458692833255634e-14 0.44228869021900596 0.896872741532686
  outer loop
    vertex 178.68603433125867 2.706840097454137 55.771638597533965
    vertex 176.68603433125867 3.058789800358869 55.598076211353394
    vertex 176.68603433125867 2.706840097454138 55.77163859753394
  endloop
endfacet
facet normal -1.3458692833255634e-14 0.44228869021900596 0.896872741532686
  outer loop
    vertex 176.68603433125867 3.058789800358869 55.598076211353394
    vertex 178.68603433125867 2.706840097454137 55.771638597533965
    vertex 178.68603433125867 3.0587898003588685 55.598076211353415
  endloop
endfacet
facet normal 0.0 1.0 0.0
  outer loop
    vertex 193.18603433125952 -1.441210199640987 3.0000000000000817
    vertex 205.1860343312594 -1.441210199640987 1.1561862578446379e-13
    vertex 193.1860343312595 -1.441210199640987 1.0289217776378575e-13
  endloop
endfacet
facet normal 0.0 1.0 0.0
  outer loop
    vertex 205.1860343312594 -1.441210199640987 1.1561862578446379e-13
    vertex 193.18603433125952 -1.441210199640987 3.0000000000000817
    vertex 205.1860343312594 -1.441210199640987 3.0000000000000964
  endloop
endfacet
facet normal -3.759955310063826e-15 -2.7680652589428116e-16 1.0
  outer loop
    vertex 176.68603433125895 7.558789800358906 38.00000000000006
    vertex 178.6860343312589 18.558789800358888 38.00000000000008
    vertex 176.6860343312589 18.558789800358888 38.00000000000008
  endloop
endfacet
facet normal -3.759955310063826e-15 -2.7680652589428116e-16 1.0
  outer loop
    vertex 178.6860343312589 18.558789800358888 38.00000000000008
    vertex 176.68603433125895 7.558789800358906 38.00000000000006
    vertex 178.68603433125892 7.558789800358906 38.00000000000008
  endloop
endfacet
facet normal 5.832539947393651e-16 2.5524660452200004e-15 -1.0
  outer loop
    vertex 196.18603433125935 -16.441210199641006 9.466923379890997e-14
    vertex 193.1860343312595 -23.941210199640967 1.1701868257515315e-13
    vertex 193.1860343312595 -16.441210199641006 1.4662833064190608e-13
  endloop
endfacet
facet normal 5.832539947393651e-16 2.5524660452200004e-15 -1.0
  outer loop
    vertex 205.1860343312594 -1.441210199640987 1.1561862578446379e-13
    vertex 193.1860343312595 -7.441210199640931 1.1384534379698605e-13
    vertex 193.1860343312595 -1.441210199640987 1.0289217776378575e-13
  endloop
endfacet
facet normal 5.832539947393651e-16 2.5524660452200004e-15 -1.0
  outer loop
    vertex 193.1860343312595 -7.441210199640931 1.1384534379698605e-13
    vertex 205.1860343312594 -1.441210199640987 1.1561862578446379e-13
    vertex 196.18603433125935 -7.441210199640931 9.466923379890997e-14
  endloop
endfacet
facet normal 5.832539947393651e-16 2.5524660452200004e-15 -1.0
  outer loop
    vertex 196.18603433125935 -7.441210199640931 9.466923379890997e-14
    vertex 205.1860343312594 -1.441210199640987 1.1561862578446379e-13
    vertex 196.18603433125935 -16.441210199641006 9.466923379890997e-14
  endloop
endfacet
facet normal 5.832539947393651e-16 2.5524660452200004e-15 -1.0
  outer loop
    vertex 188.68603433125935 19.558789800358973 3.1137129911466356e-13
    vertex 178.68603433125944 -26.941210199640715 5.0759396685862156e-14
    vertex 178.68603433125935 19.558789800358973 2.396971510165713e-13
  endloop
endfacet
facet normal 5.832539947393651e-16 2.5524660452200004e-15 -1.0
  outer loop
    vertex 178.68603433125944 -26.941210199640715 5.0759396685862156e-14
    vertex 188.68603433125935 19.558789800358973 3.1137129911466356e-13
    vertex 188.68603433125938 -1.441210199640987 2.110416396000425e-13
  endloop
endfacet
facet normal 5.832539947393651e-16 2.5524660452200004e-15 -1.0
  outer loop
    vertex 178.68603433125944 -26.941210199640715 5.0759396685862156e-14
    vertex 188.68603433125938 -1.441210199640987 2.110416396000425e-13
    vertex 190.6860343312594 -23.941210199640967 1.186389489005671e-13
  endloop
endfacet
facet normal 5.832539947393651e-16 2.5524660452200004e-15 -1.0
  outer loop
    vertex 178.68603433125944 -26.941210199640715 5.0759396685862156e-14
    vertex 190.6860343312594 -23.941210199640967 1.186389489005671e-13
    vertex 205.1860343312594 -26.941210199640917 1.3676837440357302e-13
  endloop
endfacet
facet normal 5.832539947393651e-16 2.5524660452200004e-15 -1.0
  outer loop
    vertex 190.6860343312594 -23.941210199640967 1.186389489005671e-13
    vertex 188.68603433125938 -1.441210199640987 2.110416396000425e-13
    vertex 190.6860343312594 -1.441210199640987 1.0359716938442273e-13
  endloop
endfacet
facet normal 5.832539947393651e-16 2.5524660452200004e-15 -1.0
  outer loop
    vertex 205.1860343312594 -26.941210199640917 1.3676837440357302e-13
    vertex 190.6860343312594 -23.941210199640967 1.186389489005671e-13
    vertex 193.1860343312595 -23.941210199640967 1.1701868257515315e-13
  endloop
endfacet
facet normal 5.832539947393651e-16 2.5524660452200004e-15 -1.0
  outer loop
    vertex 205.1860343312594 -26.941210199640917 1.3676837440357302e-13
    vertex 193.1860343312595 -23.941210199640967 1.1701868257515315e-13
    vertex 196.18603433125935 -16.441210199641006 9.466923379890997e-14
  endloop
endfacet
facet normal 5.832539947393651e-16 2.5524660452200004e-15 -1.0
  outer loop
    vertex 205.1860343312594 -26.941210199640917 1.3676837440357302e-13
    vertex 196.18603433125935 -16.441210199641006 9.466923379890997e-14
    vertex 205.1860343312594 -1.441210199640987 1.1561862578446379e-13
  endloop
endfacet
facet normal 5.832539947393651e-16 2.5524660452200004e-15 -1.0
  outer loop
    vertex 178.68603433125935 21.55878980035897 1.9669266215771584e-13
    vertex 176.68603433125935 -29.441210199641027 4.511946372076636e-14
    vertex 176.68603433125932 21.55878980035897 1.5241819684181356e-13
  endloop
endfacet
facet normal 5.832539947393651e-16 2.5524660452200004e-15 -1.0
  outer loop
    vertex 176.68603433125935 -29.441210199641027 4.511946372076636e-14
    vertex 178.68603433125935 21.55878980035897 1.9669266215771584e-13
    vertex 178.68603433125935 19.558789800358973 2.396971510165713e-13
  endloop
endfacet
facet normal 5.832539947393651e-16 2.5524660452200004e-15 -1.0
  outer loop
    vertex 176.68603433125935 -29.441210199641027 4.511946372076636e-14
    vertex 178.68603433125935 19.558789800358973 2.396971510165713e-13
    vertex 178.68603433125944 -26.941210199640715 5.0759396685862156e-14
  endloop
endfacet
facet normal 5.832539947393651e-16 2.5524660452200004e-15 -1.0
  outer loop
    vertex 176.68603433125935 -29.441210199641027 4.511946372076636e-14
    vertex 178.68603433125944 -26.941210199640715 5.0759396685862156e-14
    vertex 178.68603433125946 -29.441210199641095 1.0151879337172431e-13
  endloop
endfacet
facet normal 0.0 1.0 0.0
  outer loop
    vertex 190.6860343312594 -23.941210199640967 1.186389489005671e-13
    vertex 193.1860343312595 -23.941210199640967 1.0000000000001117
    vertex 193.1860343312595 -23.941210199640967 1.1701868257515315e-13
  endloop
endfacet
facet normal 0.0 1.0 0.0
  outer loop
    vertex 193.1860343312595 -23.941210199640967 1.0000000000001117
    vertex 190.6860343312594 -23.941210199640967 1.186389489005671e-13
    vertex 190.6860343312594 -23.941210199640967 1.000000000000107
  endloop
endfacet
facet normal -1.0 2.638154171973625e-16 2.220116403980926e-15
  outer loop
    vertex 193.1860343312595 -17.854710124463356 3.000000000000109
    vertex 193.1860343312595 -24.441210199640945 1.0000000000001117
    vertex 193.18603433125952 -24.441210199640945 3.000000000000086
  endloop
endfacet
facet normal -1.0 2.638154171973625e-16 2.220116403980926e-15
  outer loop
    vertex 193.1860343312595 -24.441210199640945 1.0000000000001117
    vertex 193.1860343312595 -17.854710124463356 3.000000000000109
    vertex 193.1860343312595 -23.941210199640967 1.0000000000001117
  endloop
endfacet
facet normal -1.0 2.638154171973625e-16 2.220116403980926e-15
  outer loop
    vertex 193.1860343312595 -23.941210199640967 1.0000000000001117
    vertex 193.1860343312595 -17.854710124463356 3.000000000000109
    vertex 193.1860343312595 -23.941210199640967 1.1701868257515315e-13
  endloop
endfacet
facet normal -1.0 2.638154171973625e-16 2.220116403980926e-15
  outer loop
    vertex 193.1860343312595 -23.941210199640967 1.1701868257515315e-13
    vertex 193.1860343312595 -17.854710124463356 3.000000000000109
    vertex 193.1860343312595 -17.854710124463356 1.0000000000001061
  endloop
endfacet
facet normal -1.0 2.638154171973625e-16 2.220116403980926e-15
  outer loop
    vertex 193.1860343312595 -23.941210199640967 1.1701868257515315e-13
    vertex 193.1860343312595 -17.854710124463356 1.0000000000001061
    vertex 193.1860343312595 -16.441210199641006 1.4662833064190608e-13
  endloop
endfacet
facet normal -1.0 2.638154171973625e-16 2.220116403980926e-15
  outer loop
    vertex 193.1860343312595 -16.441210199641006 1.4662833064190608e-13
    vertex 193.1860343312595 -17.854710124463356 1.0000000000001061
    vertex 193.18603433125952 -16.441210199641006 1.0000000000001237
  endloop
endfacet
facet normal 6.876370072830237e-16 8.535969518072844e-16 1.0
  outer loop
    vertex 196.6860343312595 -17.854710124463335 1.0000000000000937
    vertex 193.18603433125952 -16.441210199641006 1.0000000000001237
    vertex 193.1860343312595 -17.854710124463356 1.0000000000001061
  endloop
endfacet
facet normal 6.876370072830237e-16 8.535969518072844e-16 1.0
  outer loop
    vertex 193.18603433125952 -16.441210199641006 1.0000000000001237
    vertex 196.6860343312595 -17.854710124463335 1.0000000000000937
    vertex 196.18603433125935 -16.441210199641006 1.000000000000119
  endloop
endfacet
facet normal 6.876370072830237e-16 8.535969518072844e-16 1.0
  outer loop
    vertex 196.18603433125935 -16.441210199641006 1.000000000000119
    vertex 196.6860343312595 -17.854710124463335 1.0000000000000937
    vertex 196.18603433125935 -7.441210199640931 1.000000000000119
  endloop
endfacet
facet normal 6.876370072830237e-16 8.535969518072844e-16 1.0
  outer loop
    vertex 196.18603433125935 -7.441210199640931 1.000000000000119
    vertex 196.6860343312595 -17.854710124463335 1.0000000000000937
    vertex 196.68603433125935 -5.941210199640934 1.0000000000000993
  endloop
endfacet
facet normal 6.876370072830237e-16 8.535969518072844e-16 1.0
  outer loop
    vertex 196.18603433125935 -7.441210199640931 1.000000000000119
    vertex 193.1860343312595 -5.941210199640956 1.0000000000000873
    vertex 193.1860343312595 -7.441210199640931 1.0000000000000915
  endloop
endfacet
facet normal 6.876370072830237e-16 8.535969518072844e-16 1.0
  outer loop
    vertex 193.1860343312595 -5.941210199640956 1.0000000000000873
    vertex 196.18603433125935 -7.441210199640931 1.000000000000119
    vertex 196.68603433125935 -5.941210199640934 1.0000000000000993
  endloop
endfacet
facet normal 0.0 1.0 0.0
  outer loop
    vertex 178.68603433125932 19.558789800358973 3.0000000000002394
    vertex 188.68603433125935 19.558789800358973 3.1137129911466356e-13
    vertex 178.68603433125935 19.558789800358973 2.396971510165713e-13
  endloop
endfacet
facet normal 0.0 1.0 0.0
  outer loop
    vertex 188.68603433125935 19.558789800358973 3.1137129911466356e-13
    vertex 178.68603433125932 19.558789800358973 3.0000000000002394
    vertex 188.68603433125932 19.558789800358973 3.0000000000003113
  endloop
endfacet
facet normal -7.809137951671106e-15 -1.0 -1.016965440421288e-29
  outer loop
    vertex 205.1860343312594 -26.941210199640917 1.3676837440357302e-13
    vertex 178.68603433125944 -26.941210199640715 3.0000000000000226
    vertex 178.68603433125944 -26.941210199640715 5.0759396685862156e-14
  endloop
endfacet
facet normal -7.809137951671106e-15 -1.0 -1.016965440421288e-29
  outer loop
    vertex 178.68603433125944 -26.941210199640715 3.0000000000000226
    vertex 205.1860343312594 -26.941210199640917 1.3676837440357302e-13
    vertex 205.1860343312594 -26.941210199640917 3.0000000000001177
  endloop
endfacet
facet normal -1.2442360878689517e-14 0.5555702330196002 0.8314696123025467
  outer loop
    vertex 178.68603433125867 3.0587898003588685 55.598076211353415
    vertex 176.68603433125867 3.3850740873850316 55.380060020873785
    vertex 176.68603433125867 3.058789800358869 55.598076211353394
  endloop
endfacet
facet normal -1.2442360878689517e-14 0.5555702330196002 0.8314696123025467
  outer loop
    vertex 176.68603433125867 3.3850740873850316 55.380060020873785
    vertex 178.68603433125867 3.0587898003588685 55.598076211353415
    vertex 178.68603433125867 3.3850740873850316 55.380060020873806
  endloop
endfacet
facet normal 4.028485937603247e-27 -1.0 -1.0742729457325333e-15
  outer loop
    vertex 178.68603433125946 -29.441210199641095 1.0151879337172431e-13
    vertex 176.68603433125864 -29.441210199641162 56.000000000000036
    vertex 176.68603433125935 -29.441210199641027 4.511946372076636e-14
  endloop
endfacet
facet normal 4.028485937603247e-27 -1.0 -1.0742729457325333e-15
  outer loop
    vertex 176.68603433125864 -29.441210199641162 56.000000000000036
    vertex 178.68603433125946 -29.441210199641095 1.0151879337172431e-13
    vertex 178.68603433125924 -29.441210199641095 56.00000000000006
  endloop
endfacet
facet normal 0.0 1.0 0.0
  outer loop
    vertex 193.1860343312595 -16.441210199641006 1.4662833064190608e-13
    vertex 196.18603433125935 -16.441210199641006 1.000000000000119
    vertex 196.18603433125935 -16.441210199641006 9.466923379890997e-14
  endloop
endfacet
facet normal 0.0 1.0 0.0
  outer loop
    vertex 196.18603433125935 -16.441210199641006 1.000000000000119
    vertex 193.1860343312595 -16.441210199641006 1.4662833064190608e-13
    vertex 193.18603433125952 -16.441210199641006 1.0000000000001237
  endloop
endfacet
facet normal -2.830987102716167e-29 1.0 2.578255069758085e-15
  outer loop
    vertex 176.6860343312589 21.55878980035888 35.00000000000008
    vertex 178.68603433125935 21.55878980035897 1.9669266215771584e-13
    vertex 176.68603433125932 21.55878980035897 1.5241819684181356e-13
  endloop
endfacet
facet normal -2.830987102716167e-29 1.0 2.578255069758085e-15
  outer loop
    vertex 178.68603433125935 21.55878980035897 1.9669266215771584e-13
    vertex 176.6860343312589 21.55878980035888 35.00000000000008
    vertex 178.6860343312589 21.55878980035888 35.00000000000008
  endloop
endfacet
facet normal 0.0 1.0 0.0
  outer loop
    vertex 193.1860343312595 -17.854710124463356 1.0000000000001061
    vertex 196.68603433125946 -17.854710124463335 3.0000000000001297
    vertex 196.6860343312595 -17.854710124463335 1.0000000000000937
  endloop
endfacet
facet normal 0.0 1.0 0.0
  outer loop
    vertex 196.68603433125946 -17.854710124463335 3.0000000000001297
    vertex 193.1860343312595 -17.854710124463356 1.0000000000001061
    vertex 193.1860343312595 -17.854710124463356 3.000000000000109
  endloop
endfacet
facet normal -1.1213136679814749e-14 0.659345815100072 0.7518398074789749
  outer loop
    vertex 178.68603433125867 3.3850740873850316 55.380060020873806
    vertex 176.6860343312587 3.680110143918513 55.12132034355972
    vertex 176.68603433125867 3.3850740873850316 55.380060020873785
  endloop
endfacet
facet normal -1.1213136679814749e-14 0.659345815100072 0.7518398074789749
  outer loop
    vertex 176.6860343312587 3.680110143918513 55.12132034355972
    vertex 178.68603433125867 3.3850740873850316 55.380060020873806
    vertex 178.6860343312587 3.680110143918513 55.121320343559745
  endloop
endfacet
facet normal -1.0 -1.1361765393582852e-14 -1.626002867092763e-30
  outer loop
    vertex 196.68603433125932 -5.941210199640934 3.000000000000134
    vertex 196.6860343312595 -17.854710124463335 1.0000000000000937
    vertex 196.68603433125946 -17.854710124463335 3.0000000000001297
  endloop
endfacet
facet normal -1.0 -1.1361765393582852e-14 -1.626002867092763e-30
  outer loop
    vertex 196.6860343312595 -17.854710124463335 1.0000000000000937
    vertex 196.68603433125932 -5.941210199640934 3.000000000000134
    vertex 196.68603433125935 -5.941210199640934 1.0000000000000993
  endloop
endfacet
facet normal -1.0 0.0 0.0
  outer loop
    vertex 196.18603433125935 -7.441210199640931 1.000000000000119
    vertex 196.18603433125935 -16.441210199641006 9.466923379890997e-14
    vertex 196.18603433125935 -16.441210199641006 1.000000000000119
  endloop
endfacet
facet normal -1.0 0.0 0.0
  outer loop
    vertex 196.18603433125935 -16.441210199641006 9.466923379890997e-14
    vertex 196.18603433125935 -7.441210199640931 1.000000000000119
    vertex 196.18603433125935 -7.441210199640931 9.466923379890997e-14
  endloop
endfacet
facet normal -9.792052603479806e-15 0.7518398074789672 0.6593458151000806
  outer loop
    vertex 176.6860343312587 3.680110143918513 55.12132034355972
    vertex 178.6860343312587 3.9388498212325773 54.82628428702627
    vertex 176.6860343312587 3.9388498212325773 54.82628428702625
  endloop
endfacet
facet normal -9.792052603479806e-15 0.7518398074789672 0.6593458151000806
  outer loop
    vertex 178.6860343312587 3.9388498212325773 54.82628428702627
    vertex 176.6860343312587 3.680110143918513 55.12132034355972
    vertex 178.6860343312587 3.680110143918513 55.121320343559745
  endloop
endfacet
facet normal -8.203423792228984e-15 0.8314696123025479 0.5555702330195981
  outer loop
    vertex 176.6860343312587 3.9388498212325773 54.82628428702625
    vertex 178.6860343312587 4.1568660117121885 54.50000000000011
    vertex 176.6860343312587 4.1568660117121885 54.50000000000008
  endloop
endfacet
facet normal -8.203423792228984e-15 0.8314696123025479 0.5555702330195981
  outer loop
    vertex 178.6860343312587 4.1568660117121885 54.50000000000011
    vertex 176.6860343312587 3.9388498212325773 54.82628428702625
    vertex 178.6860343312587 3.9388498212325773 54.82628428702627
  endloop
endfacet
facet normal -1.0 3.890596637203917e-16 5.1969692799843504e-15
  outer loop
    vertex 193.18603433125952 -1.441210199640987 3.0000000000000817
    vertex 193.1860343312595 -5.941210199640956 1.0000000000000873
    vertex 193.18603433125952 -5.941210199640956 3.0000000000000835
  endloop
endfacet
facet normal -1.0 3.890596637203917e-16 5.1969692799843504e-15
  outer loop
    vertex 193.1860343312595 -5.941210199640956 1.0000000000000873
    vertex 193.1860343312595 -7.441210199640931 1.1384534379698605e-13
    vertex 193.1860343312595 -7.441210199640931 1.0000000000000915
  endloop
endfacet
facet normal -1.0 3.890596637203917e-16 5.1969692799843504e-15
  outer loop
    vertex 193.1860343312595 -7.441210199640931 1.1384534379698605e-13
    vertex 193.1860343312595 -5.941210199640956 1.0000000000000873
    vertex 193.1860343312595 -1.441210199640987 1.0289217776378575e-13
  endloop
endfacet
facet normal -1.0 3.890596637203917e-16 5.1969692799843504e-15
  outer loop
    vertex 193.1860343312595 -1.441210199640987 1.0289217776378575e-13
    vertex 193.1860343312595 -5.941210199640956 1.0000000000000873
    vertex 193.18603433125952 -1.441210199640987 3.0000000000000817
  endloop
endfacet
facet normal -6.474432125474709e-15 0.8968727415326869 0.44228869021900413
  outer loop
    vertex 176.6860343312587 4.1568660117121885 54.50000000000008
    vertex 178.6860343312587 4.330428397892734 54.148050297095374
    vertex 176.6860343312587 4.330428397892734 54.14805029709535
  endloop
endfacet
facet normal -6.474432125474709e-15 0.8968727415326869 0.44228869021900413
  outer loop
    vertex 178.6860343312587 4.330428397892734 54.148050297095374
    vertex 176.6860343312587 4.1568660117121885 54.50000000000008
    vertex 178.6860343312587 4.1568660117121885 54.50000000000011
  endloop
endfacet
facet normal -3.6659564273121394e-15 0.0 1.0
  outer loop
    vertex 193.1860343312595 -24.441210199640945 1.0000000000001117
    vertex 190.6860343312594 -23.941210199640967 1.000000000000107
    vertex 190.6860343312594 -24.441210199640945 1.000000000000107
  endloop
endfacet
facet normal -3.6659564273121394e-15 0.0 1.0
  outer loop
    vertex 190.6860343312594 -23.941210199640967 1.000000000000107
    vertex 193.1860343312595 -24.441210199640945 1.0000000000001117
    vertex 193.1860343312595 -23.941210199640967 1.0000000000001117
  endloop
endfacet
facet normal -4.63466113000172e-15 0.9469301294951052 0.32143946530316275
  outer loop
    vertex 176.6860343312587 4.330428397892734 54.14805029709535
    vertex 178.6860343312587 4.45656727922608 53.776457135307666
    vertex 176.6860343312587 4.45656727922608 53.77645713530764
  endloop
endfacet
facet normal -4.63466113000172e-15 0.9469301294951052 0.32143946530316275
  outer loop
    vertex 178.6860343312587 4.45656727922608 53.776457135307666
    vertex 176.6860343312587 4.330428397892734 54.14805029709535
    vertex 178.6860343312587 4.330428397892734 54.148050297095374
  endloop
endfacet
facet normal -1.1238962817720075e-14 0.06540312923015897 0.9978589232386025
  outer loop
    vertex 178.68603433125867 1.558789800358868 56.0000000000001
    vertex 176.68603433125867 1.950368377019023 55.9743345841215
    vertex 176.68603433125867 1.5587898003588683 56.00000000000008
  endloop
endfacet
facet normal -1.1238962817720075e-14 0.06540312923015897 0.9978589232386025
  outer loop
    vertex 176.68603433125867 1.950368377019023 55.9743345841215
    vertex 178.68603433125867 1.558789800358868 56.0000000000001
    vertex 178.68603433125867 1.950368377019022 55.97433458412153
  endloop
endfacet
facet normal 0.0 -1.0 0.0
  outer loop
    vertex 196.18603433125935 -7.441210199640931 1.000000000000119
    vertex 193.1860343312595 -7.441210199640931 1.1384534379698605e-13
    vertex 196.18603433125935 -7.441210199640931 9.466923379890997e-14
  endloop
endfacet
facet normal 0.0 -1.0 0.0
  outer loop
    vertex 193.1860343312595 -7.441210199640931 1.1384534379698605e-13
    vertex 196.18603433125935 -7.441210199640931 1.000000000000119
    vertex 193.1860343312595 -7.441210199640931 1.0000000000000915
  endloop
endfacet
facet normal -1.4787061311651707e-14 0.195090322016127 0.9807852804032308
  outer loop
    vertex 178.68603433125867 1.950368377019022 55.97433458412153
    vertex 176.68603433125867 2.3352469356664307 55.897777478867276
    vertex 176.68603433125867 1.950368377019023 55.9743345841215
  endloop
endfacet
facet normal -1.4787061311651707e-14 0.195090322016127 0.9807852804032308
  outer loop
    vertex 176.68603433125867 2.3352469356664307 55.897777478867276
    vertex 178.68603433125867 1.950368377019022 55.97433458412153
    vertex 178.68603433125867 2.33524693566643 55.8977774788673
  endloop
endfacet
facet normal 1.8799776550319456e-15 1.0 7.519910620127628e-15
  outer loop
    vertex 188.68603433125938 -1.441210199640987 2.110416396000425e-13
    vertex 190.6860343312594 -1.441210199641032 3.0000000000000777
    vertex 190.6860343312594 -1.441210199640987 1.0359716938442273e-13
  endloop
endfacet
facet normal 1.8799776550319456e-15 1.0 7.519910620127628e-15
  outer loop
    vertex 190.6860343312594 -1.441210199641032 3.0000000000000777
    vertex 188.68603433125938 -1.441210199640987 2.110416396000425e-13
    vertex 188.68603433125935 -1.441210199640987 3.0000000000002545
  endloop
endfacet
facet normal 3.961315643197084e-16 -3.4585147021550755e-15 1.0
  outer loop
    vertex 178.68603433125944 -26.941210199640715 3.0000000000000226
    vertex 188.68603433125932 19.558789800358973 3.0000000000003113
    vertex 178.68603433125932 19.558789800358973 3.0000000000002394
  endloop
endfacet
facet normal 3.961315643197084e-16 -3.4585147021550755e-15 1.0
  outer loop
    vertex 188.68603433125932 19.558789800358973 3.0000000000003113
    vertex 178.68603433125944 -26.941210199640715 3.0000000000000226
    vertex 188.68603433125935 -1.441210199640987 3.0000000000002545
  endloop
endfacet
facet normal 3.961315643197084e-16 -3.4585147021550755e-15 1.0
  outer loop
    vertex 188.68603433125935 -1.441210199640987 3.0000000000002545
    vertex 178.68603433125944 -26.941210199640715 3.0000000000000226
    vertex 190.6860343312594 -24.44121019964099 3.0000000000000777
  endloop
endfacet
facet normal 3.961315643197084e-16 -3.4585147021550755e-15 1.0
  outer loop
    vertex 190.6860343312594 -24.44121019964099 3.0000000000000777
    vertex 178.68603433125944 -26.941210199640715 3.0000000000000226
    vertex 205.1860343312594 -26.941210199640917 3.0000000000001177
  endloop
endfacet
facet normal 3.961315643197084e-16 -3.4585147021550755e-15 1.0
  outer loop
    vertex 190.6860343312594 -24.44121019964099 3.0000000000000777
    vertex 205.1860343312594 -26.941210199640917 3.0000000000001177
    vertex 193.18603433125952 -24.441210199640945 3.000000000000086
  endloop
endfacet
facet normal 3.961315643197084e-16 -3.4585147021550755e-15 1.0
  outer loop
    vertex 193.18603433125952 -24.441210199640945 3.000000000000086
    vertex 205.1860343312594 -26.941210199640917 3.0000000000001177
    vertex 196.68603433125946 -17.854710124463335 3.0000000000001297
  endloop
endfacet
facet normal 3.961315643197084e-16 -3.4585147021550755e-15 1.0
  outer loop
    vertex 196.68603433125932 -5.941210199640934 3.000000000000134
    vertex 193.18603433125952 -1.441210199640987 3.0000000000000817
    vertex 193.18603433125952 -5.941210199640956 3.0000000000000835
  endloop
endfacet
facet normal 3.961315643197084e-16 -3.4585147021550755e-15 1.0
  outer loop
    vertex 193.18603433125952 -1.441210199640987 3.0000000000000817
    vertex 196.68603433125932 -5.941210199640934 3.000000000000134
    vertex 205.1860343312594 -1.441210199640987 3.0000000000000964
  endloop
endfacet
facet normal 3.961315643197084e-16 -3.4585147021550755e-15 1.0
  outer loop
    vertex 205.1860343312594 -1.441210199640987 3.0000000000000964
    vertex 196.68603433125932 -5.941210199640934 3.000000000000134
    vertex 196.68603433125946 -17.854710124463335 3.0000000000001297
  endloop
endfacet
facet normal 3.961315643197084e-16 -3.4585147021550755e-15 1.0
  outer loop
    vertex 205.1860343312594 -1.441210199640987 3.0000000000000964
    vertex 196.68603433125946 -17.854710124463335 3.0000000000001297
    vertex 205.1860343312594 -26.941210199640917 3.0000000000001177
  endloop
endfacet
facet normal 3.961315643197084e-16 -3.4585147021550755e-15 1.0
  outer loop
    vertex 196.68603433125946 -17.854710124463335 3.0000000000001297
    vertex 193.1860343312595 -17.854710124463356 3.000000000000109
    vertex 193.18603433125952 -24.441210199640945 3.000000000000086
  endloop
endfacet
facet normal 3.961315643197084e-16 -3.4585147021550755e-15 1.0
  outer loop
    vertex 190.6860343312594 -1.441210199641032 3.0000000000000777
    vertex 188.68603433125935 -1.441210199640987 3.0000000000002545
    vertex 190.6860343312594 -24.44121019964099 3.0000000000000777
  endloop
endfacet
facet normal 1.0 1.6785514777070442e-15 1.0809871516433545e-14
  outer loop
    vertex 188.68603433125935 19.558789800358973 3.1137129911466356e-13
    vertex 188.68603433125935 -1.441210199640987 3.0000000000002545
    vertex 188.68603433125938 -1.441210199640987 2.110416396000425e-13
  endloop
endfacet
facet normal 1.0 1.6785514777070442e-15 1.0809871516433545e-14
  outer loop
    vertex 188.68603433125935 -1.441210199640987 3.0000000000002545
    vertex 188.68603433125935 19.558789800358973 3.1137129911466356e-13
    vertex 188.68603433125932 19.558789800358973 3.0000000000003113
  endloop
endfacet
facet normal -1.1279865930189932e-14 -1.4554665716377235e-15 1.0
  outer loop
    vertex 178.68603433125924 -29.441210199641095 56.00000000000006
    vertex 176.68603433125867 1.5587898003588683 56.00000000000008
    vertex 176.68603433125864 -29.441210199641162 56.000000000000036
  endloop
endfacet
facet normal -1.1279865930189932e-14 -1.4554665716377235e-15 1.0
  outer loop
    vertex 176.68603433125867 1.5587898003588683 56.00000000000008
    vertex 178.68603433125924 -29.441210199641095 56.00000000000006
    vertex 178.68603433125867 1.558789800358868 56.0000000000001
  endloop
endfacet
facet normal -1.2320603168450747e-15 0.896872741532674 0.4422886902190301
  outer loop
    vertex 176.6860343312589 21.156866011712186 36.50000000000007
    vertex 178.6860343312589 21.330428397892746 36.148050297095345
    vertex 176.6860343312589 21.330428397892746 36.148050297095345
  endloop
endfacet
facet normal -1.2320603168450747e-15 0.896872741532674 0.4422886902190301
  outer loop
    vertex 178.6860343312589 21.330428397892746 36.148050297095345
    vertex 176.6860343312589 21.156866011712186 36.50000000000007
    vertex 178.6860343312589 21.156866011712186 36.50000000000007
  endloop
endfacet
facet normal -1.0 -4.423481325810487e-16 -1.2224074791018895e-14
  outer loop
    vertex 176.68603433125867 1.5587898003588683 56.00000000000008
    vertex 176.68603433125935 -29.441210199641027 4.511946372076636e-14
    vertex 176.68603433125864 -29.441210199641162 56.000000000000036
  endloop
endfacet
facet normal -1.0 -4.423481325810487e-16 -1.2224074791018895e-14
  outer loop
    vertex 176.68603433125935 -29.441210199641027 4.511946372076636e-14
    vertex 176.68603433125867 1.5587898003588683 56.00000000000008
    vertex 176.6860343312589 4.584455216237487 40.608421423339905
  endloop
endfacet
facet normal -1.0 -4.423481325810487e-16 -1.2224074791018895e-14
  outer loop
    vertex 176.68603433125935 -29.441210199641027 4.511946372076636e-14
    vertex 176.6860343312589 4.584455216237487 40.608421423339905
    vertex 176.68603433125892 4.661012321491724 40.2235428646925
  endloop
endfacet
facet normal -1.0 -4.423481325810487e-16 -1.2224074791018895e-14
  outer loop
    vertex 176.68603433125935 -29.441210199641027 4.511946372076636e-14
    vertex 176.68603433125892 4.661012321491724 40.2235428646925
    vertex 176.68603433125892 4.78715120282507 39.85194970290479
  endloop
endfacet
facet normal -1.0 -4.423481325810487e-16 -1.2224074791018895e-14
  outer loop
    vertex 176.68603433125935 -29.441210199641027 4.511946372076636e-14
    vertex 176.68603433125892 4.78715120282507 39.85194970290479
    vertex 176.68603433125932 21.55878980035897 1.5241819684181356e-13
  endloop
endfacet
facet normal -1.0 -4.423481325810487e-16 -1.2224074791018895e-14
  outer loop
    vertex 176.6860343312589 4.584455216237487 40.608421423339905
    vertex 176.68603433125867 1.5587898003588683 56.00000000000008
    vertex 176.68603433125867 1.950368377019023 55.9743345841215
  endloop
endfacet
facet normal -1.0 -4.423481325810487e-16 -1.2224074791018895e-14
  outer loop
    vertex 176.6860343312589 4.584455216237487 40.608421423339905
    vertex 176.68603433125867 1.950368377019023 55.9743345841215
    vertex 176.68603433125867 2.3352469356664307 55.897777478867276
  endloop
endfacet
facet normal -1.0 -4.423481325810487e-16 -1.2224074791018895e-14
  outer loop
    vertex 176.6860343312589 4.584455216237487 40.608421423339905
    vertex 176.68603433125867 2.3352469356664307 55.897777478867276
    vertex 176.68603433125867 2.706840097454138 55.77163859753394
  endloop
endfacet
facet normal -1.0 -4.423481325810487e-16 -1.2224074791018895e-14
  outer loop
    vertex 176.6860343312589 4.584455216237487 40.608421423339905
    vertex 176.68603433125867 2.706840097454138 55.77163859753394
    vertex 176.68603433125867 3.058789800358869 55.598076211353394
  endloop
endfacet
facet normal -1.0 -4.423481325810487e-16 -1.2224074791018895e-14
  outer loop
    vertex 176.6860343312589 4.584455216237487 40.608421423339905
    vertex 176.68603433125867 3.058789800358869 55.598076211353394
    vertex 176.68603433125867 3.3850740873850316 55.380060020873785
  endloop
endfacet
facet normal -1.0 -4.423481325810487e-16 -1.2224074791018895e-14
  outer loop
    vertex 176.6860343312589 4.584455216237487 40.608421423339905
    vertex 176.68603433125867 3.3850740873850316 55.380060020873785
    vertex 176.6860343312589 4.558789800358912 41.00000000000006
  endloop
endfacet
facet normal -1.0 -4.423481325810487e-16 -1.2224074791018895e-14
  outer loop
    vertex 176.6860343312589 4.558789800358912 41.00000000000006
    vertex 176.68603433125867 3.3850740873850316 55.380060020873785
    vertex 176.6860343312587 3.680110143918513 55.12132034355972
  endloop
endfacet
facet normal -1.0 -4.423481325810487e-16 -1.2224074791018895e-14
  outer loop
    vertex 176.6860343312589 4.558789800358912 41.00000000000006
    vertex 176.6860343312587 3.680110143918513 55.12132034355972
    vertex 176.6860343312587 3.9388498212325773 54.82628428702625
  endloop
endfacet
facet normal -1.0 -4.423481325810487e-16 -1.2224074791018895e-14
  outer loop
    vertex 176.6860343312589 4.558789800358912 41.00000000000006
    vertex 176.6860343312587 3.9388498212325773 54.82628428702625
    vertex 176.6860343312587 4.1568660117121885 54.50000000000008
  endloop
endfacet
facet normal -1.0 -4.423481325810487e-16 -1.2224074791018895e-14
  outer loop
    vertex 176.6860343312589 4.558789800358912 41.00000000000006
    vertex 176.6860343312587 4.1568660117121885 54.50000000000008
    vertex 176.6860343312587 4.330428397892734 54.14805029709535
  endloop
endfacet
facet normal -1.0 -4.423481325810487e-16 -1.2224074791018895e-14
  outer loop
    vertex 176.6860343312589 4.558789800358912 41.00000000000006
    vertex 176.6860343312587 4.330428397892734 54.14805029709535
    vertex 176.6860343312587 4.45656727922608 53.77645713530764
  endloop
endfacet
facet normal -1.0 -4.423481325810487e-16 -1.2224074791018895e-14
  outer loop
    vertex 176.6860343312589 4.558789800358912 41.00000000000006
    vertex 176.6860343312587 4.45656727922608 53.77645713530764
    vertex 176.68603433125872 4.533124384480307 53.39157857666024
  endloop
endfacet
facet normal -1.0 -4.423481325810487e-16 -1.2224074791018895e-14
  outer loop
    vertex 176.6860343312589 4.558789800358912 41.00000000000006
    vertex 176.68603433125872 4.533124384480307 53.39157857666024
    vertex 176.68603433125872 4.558789800358877 53.000000000000085
  endloop
endfacet
facet normal -1.0 -4.423481325810487e-16 -1.2224074791018895e-14
  outer loop
    vertex 176.68603433125932 21.55878980035897 1.5241819684181356e-13
    vertex 176.68603433125892 4.78715120282507 39.85194970290479
    vertex 176.68603433125892 4.960713589005605 39.50000000000006
  endloop
endfacet
facet normal -1.0 -4.423481325810487e-16 -1.2224074791018895e-14
  outer loop
    vertex 176.68603433125932 21.55878980035897 1.5241819684181356e-13
    vertex 176.68603433125892 4.960713589005605 39.50000000000006
    vertex 176.68603433125892 5.178729779485216 39.173715712973895
  endloop
endfacet
facet normal -1.0 -4.423481325810487e-16 -1.2224074791018895e-14
  outer loop
    vertex 176.68603433125932 21.55878980035897 1.5241819684181356e-13
    vertex 176.68603433125892 5.178729779485216 39.173715712973895
    vertex 176.68603433125892 5.437469456799281 38.87867965644042
  endloop
endfacet
facet normal -1.0 -4.423481325810487e-16 -1.2224074791018895e-14
  outer loop
    vertex 176.68603433125932 21.55878980035897 1.5241819684181356e-13
    vertex 176.68603433125892 5.437469456799281 38.87867965644042
    vertex 176.68603433125895 5.732505513332754 38.61993997912635
  endloop
endfacet
facet normal -1.0 -4.423481325810487e-16 -1.2224074791018895e-14
  outer loop
    vertex 176.68603433125932 21.55878980035897 1.5241819684181356e-13
    vertex 176.68603433125895 5.732505513332754 38.61993997912635
    vertex 176.68603433125895 6.058789800358909 38.40192378864674
  endloop
endfacet
facet normal -1.0 -4.423481325810487e-16 -1.2224074791018895e-14
  outer loop
    vertex 176.68603433125932 21.55878980035897 1.5241819684181356e-13
    vertex 176.68603433125895 6.058789800358909 38.40192378864674
    vertex 176.68603433125895 6.410739503263639 38.2283614024662
  endloop
endfacet
facet normal -1.0 -4.423481325810487e-16 -1.2224074791018895e-14
  outer loop
    vertex 176.68603433125932 21.55878980035897 1.5241819684181356e-13
    vertex 176.68603433125895 6.410739503263639 38.2283614024662
    vertex 176.68603433125895 6.782332665051349 38.10222252113285
  endloop
endfacet
facet normal -1.0 -4.423481325810487e-16 -1.2224074791018895e-14
  outer loop
    vertex 176.68603433125932 21.55878980035897 1.5241819684181356e-13
    vertex 176.68603433125895 6.782332665051349 38.10222252113285
    vertex 176.68603433125895 7.167211223698761 38.02566541587862
  endloop
endfacet
facet normal -1.0 -4.423481325810487e-16 -1.2224074791018895e-14
  outer loop
    vertex 176.68603433125932 21.55878980035897 1.5241819684181356e-13
    vertex 176.68603433125895 7.167211223698761 38.02566541587862
    vertex 176.68603433125895 7.558789800358906 38.00000000000006
  endloop
endfacet
facet normal -1.0 -4.423481325810487e-16 -1.2224074791018895e-14
  outer loop
    vertex 176.68603433125932 21.55878980035897 1.5241819684181356e-13
    vertex 176.68603433125895 7.558789800358906 38.00000000000006
    vertex 176.6860343312589 18.558789800358888 38.00000000000008
  endloop
endfacet
facet normal -1.0 -4.423481325810487e-16 -1.2224074791018895e-14
  outer loop
    vertex 176.68603433125932 21.55878980035897 1.5241819684181356e-13
    vertex 176.6860343312589 18.558789800358888 38.00000000000008
    vertex 176.6860343312589 18.950368377019032 37.97433458412151
  endloop
endfacet
facet normal -1.0 -4.423481325810487e-16 -1.2224074791018895e-14
  outer loop
    vertex 176.68603433125932 21.55878980035897 1.5241819684181356e-13
    vertex 176.6860343312589 18.950368377019032 37.97433458412151
    vertex 176.6860343312589 19.335246935666444 37.897777478867276
  endloop
endfacet
facet normal -1.0 -4.423481325810487e-16 -1.2224074791018895e-14
  outer loop
    vertex 176.68603433125932 21.55878980035897 1.5241819684181356e-13
    vertex 176.6860343312589 19.335246935666444 37.897777478867276
    vertex 176.6860343312589 19.706840097454155 37.77163859753393
  endloop
endfacet
facet normal -1.0 -4.423481325810487e-16 -1.2224074791018895e-14
  outer loop
    vertex 176.68603433125932 21.55878980035897 1.5241819684181356e-13
    vertex 176.6860343312589 19.706840097454155 37.77163859753393
    vertex 176.6860343312589 20.058789800358884 37.59807621135339
  endloop
endfacet
facet normal -1.0 -4.423481325810487e-16 -1.2224074791018895e-14
  outer loop
    vertex 176.68603433125932 21.55878980035897 1.5241819684181356e-13
    vertex 176.6860343312589 20.058789800358884 37.59807621135339
    vertex 176.6860343312589 20.38507408738504 37.38006002087377
  endloop
endfacet
facet normal -1.0 -4.423481325810487e-16 -1.2224074791018895e-14
  outer loop
    vertex 176.68603433125932 21.55878980035897 1.5241819684181356e-13
    vertex 176.6860343312589 20.38507408738504 37.38006002087377
    vertex 176.6860343312589 20.68011014391851 37.12132034355972
  endloop
endfacet
facet normal -1.0 -4.423481325810487e-16 -1.2224074791018895e-14
  outer loop
    vertex 176.68603433125932 21.55878980035897 1.5241819684181356e-13
    vertex 176.6860343312589 20.68011014391851 37.12132034355972
    vertex 176.6860343312589 20.938849821232576 36.82628428702623
  endloop
endfacet
facet normal -1.0 -4.423481325810487e-16 -1.2224074791018895e-14
  outer loop
    vertex 176.68603433125932 21.55878980035897 1.5241819684181356e-13
    vertex 176.6860343312589 20.938849821232576 36.82628428702623
    vertex 176.6860343312589 21.156866011712186 36.50000000000007
  endloop
endfacet
facet normal -1.0 -4.423481325810487e-16 -1.2224074791018895e-14
  outer loop
    vertex 176.68603433125932 21.55878980035897 1.5241819684181356e-13
    vertex 176.6860343312589 21.156866011712186 36.50000000000007
    vertex 176.6860343312589 21.330428397892746 36.148050297095345
  endloop
endfacet
facet normal -1.0 -4.423481325810487e-16 -1.2224074791018895e-14
  outer loop
    vertex 176.68603433125932 21.55878980035897 1.5241819684181356e-13
    vertex 176.6860343312589 21.330428397892746 36.148050297095345
    vertex 176.6860343312589 21.456567279226068 35.77645713530763
  endloop
endfacet
facet normal -1.0 -4.423481325810487e-16 -1.2224074791018895e-14
  outer loop
    vertex 176.68603433125932 21.55878980035897 1.5241819684181356e-13
    vertex 176.6860343312589 21.456567279226068 35.77645713530763
    vertex 176.6860343312589 21.533124384480306 35.39157857666023
  endloop
endfacet
facet normal -1.0 -4.423481325810487e-16 -1.2224074791018895e-14
  outer loop
    vertex 176.68603433125932 21.55878980035897 1.5241819684181356e-13
    vertex 176.6860343312589 21.533124384480306 35.39157857666023
    vertex 176.6860343312589 21.55878980035888 35.00000000000008
  endloop
endfacet
facet normal -1.4244742821990352e-14 0.3214394653031392 0.9469301294951135
  outer loop
    vertex 178.68603433125867 2.33524693566643 55.8977774788673
    vertex 176.68603433125867 2.706840097454138 55.77163859753394
    vertex 176.68603433125867 2.3352469356664307 55.897777478867276
  endloop
endfacet
facet normal -1.4244742821990352e-14 0.3214394653031392 0.9469301294951135
  outer loop
    vertex 176.68603433125867 2.706840097454138 55.77163859753394
    vertex 178.68603433125867 2.33524693566643 55.8977774788673
    vertex 178.68603433125867 2.706840097454137 55.771638597533965
  endloop
endfacet
facet normal -1.304373735193059e-15 0.9469301294951229 0.32143946530311124
  outer loop
    vertex 176.6860343312589 21.330428397892746 36.148050297095345
    vertex 178.6860343312589 21.456567279226068 35.77645713530763
    vertex 176.6860343312589 21.456567279226068 35.77645713530763
  endloop
endfacet
facet normal -1.304373735193059e-15 0.9469301294951229 0.32143946530311124
  outer loop
    vertex 178.6860343312589 21.456567279226068 35.77645713530763
    vertex 176.6860343312589 21.330428397892746 36.148050297095345
    vertex 178.6860343312589 21.330428397892746 36.148050297095345
  endloop
endfacet
facet normal -7.375360812375832e-16 0.9978589232386025 0.06540312923015952
  outer loop
    vertex 176.6860343312589 4.558789800358912 41.00000000000006
    vertex 178.68603433125892 4.584455216237487 40.60842142333993
    vertex 176.6860343312589 4.584455216237487 40.608421423339905
  endloop
endfacet
facet normal -7.375360812375832e-16 0.9978589232386025 0.06540312923015952
  outer loop
    vertex 178.68603433125892 4.584455216237487 40.60842142333993
    vertex 176.6860343312589 4.558789800358912 41.00000000000006
    vertex 178.6860343312589 4.558789800358912 41.00000000000008
  endloop
endfacet
facet normal -4.2234936540380307e-16 0.32143946530316275 0.9469301294951052
  outer loop
    vertex 178.6860343312589 19.335246935666444 37.897777478867276
    vertex 176.6860343312589 19.706840097454155 37.77163859753393
    vertex 176.6860343312589 19.335246935666444 37.897777478867276
  endloop
endfacet
facet normal -4.2234936540380307e-16 0.32143946530316275 0.9469301294951052
  outer loop
    vertex 176.6860343312589 19.706840097454155 37.77163859753393
    vertex 178.6860343312589 19.335246935666444 37.897777478867276
    vertex 178.6860343312589 19.706840097454155 37.77163859753393
  endloop
endfacet
facet normal -1.1386660048842825e-15 0.8314696123025452 0.5555702330196022
  outer loop
    vertex 176.6860343312589 20.938849821232576 36.82628428702623
    vertex 178.6860343312589 21.156866011712186 36.50000000000007
    vertex 176.6860343312589 21.156866011712186 36.50000000000007
  endloop
endfacet
facet normal -1.1386660048842825e-15 0.8314696123025452 0.5555702330196022
  outer loop
    vertex 178.6860343312589 21.156866011712186 36.50000000000007
    vertex 176.6860343312589 20.938849821232576 36.82628428702623
    vertex 178.6860343312589 20.938849821232576 36.82628428702623
  endloop
endfacet
facet normal 1.0621475605723279e-19 0.06540312923014616 0.9978589232386034
  outer loop
    vertex 178.6860343312589 18.558789800358888 38.00000000000008
    vertex 176.6860343312589 18.950368377019032 37.97433458412151
    vertex 176.6860343312589 18.558789800358888 38.00000000000008
  endloop
endfacet
facet normal 1.0621475605723279e-19 0.06540312923014616 0.9978589232386034
  outer loop
    vertex 176.6860343312589 18.950368377019032 37.97433458412151
    vertex 178.6860343312589 18.558789800358888 38.00000000000008
    vertex 178.6860343312589 18.950368377019032 37.97433458412151
  endloop
endfacet
facet normal 1.0 0.0 0.0
  outer loop
    vertex 205.1860343312594 -1.441210199640987 1.1561862578446379e-13
    vertex 205.1860343312594 -26.941210199640917 3.0000000000001177
    vertex 205.1860343312594 -26.941210199640917 1.3676837440357302e-13
  endloop
endfacet
facet normal 1.0 0.0 0.0
  outer loop
    vertex 205.1860343312594 -26.941210199640917 3.0000000000001177
    vertex 205.1860343312594 -1.441210199640987 1.1561862578446379e-13
    vertex 205.1860343312594 -1.441210199640987 3.0000000000000964
  endloop
endfacet
facet normal -5.146650335791347e-15 0.980785280403225 0.19509032201615548
  outer loop
    vertex 176.6860343312589 4.584455216237487 40.608421423339905
    vertex 178.68603433125892 4.661012321491724 40.22354286469252
    vertex 176.68603433125892 4.661012321491724 40.2235428646925
  endloop
endfacet
facet normal -5.146650335791347e-15 0.980785280403225 0.19509032201615548
  outer loop
    vertex 178.68603433125892 4.661012321491724 40.22354286469252
    vertex 176.6860343312589 4.584455216237487 40.608421423339905
    vertex 178.68603433125892 4.584455216237487 40.60842142333993
  endloop
endfacet
facet normal -2.464353937850404e-16 0.1950903220161389 0.9807852804032284
  outer loop
    vertex 178.6860343312589 18.950368377019032 37.97433458412151
    vertex 176.6860343312589 19.335246935666444 37.897777478867276
    vertex 176.6860343312589 18.950368377019032 37.97433458412151
  endloop
endfacet
facet normal -2.464353937850404e-16 0.1950903220161389 0.9807852804032284
  outer loop
    vertex 176.6860343312589 19.335246935666444 37.897777478867276
    vertex 178.6860343312589 18.950368377019032 37.97433458412151
    vertex 178.6860343312589 19.335246935666444 37.897777478867276
  endloop
endfacet
facet normal -1.0257888018820329e-15 0.7518398074789717 0.6593458151000755
  outer loop
    vertex 176.6860343312589 20.68011014391851 37.12132034355972
    vertex 178.6860343312589 20.938849821232576 36.82628428702623
    vertex 176.6860343312589 20.938849821232576 36.82628428702623
  endloop
endfacet
facet normal -1.0257888018820329e-15 0.7518398074789717 0.6593458151000755
  outer loop
    vertex 178.6860343312589 20.938849821232576 36.82628428702623
    vertex 176.6860343312589 20.68011014391851 37.12132034355972
    vertex 178.6860343312589 20.68011014391851 37.12132034355972
  endloop
endfacet
facet normal -1.1870765560571063e-14 0.1950903220161251 0.9807852804032312
  outer loop
    vertex 178.68603433125892 6.782332665051349 38.10222252113287
    vertex 176.68603433125895 7.167211223698761 38.02566541587862
    vertex 176.68603433125895 6.782332665051349 38.10222252113285
  endloop
endfacet
facet normal -1.1870765560571063e-14 0.1950903220161251 0.9807852804032312
  outer loop
    vertex 176.68603433125895 7.167211223698761 38.02566541587862
    vertex 178.68603433125892 6.782332665051349 38.10222252113287
    vertex 178.68603433125892 7.167211223698761 38.02566541587865
  endloop
endfacet
facet normal 0.0 0.9978589232386025 0.06540312923015952
  outer loop
    vertex 176.6860343312589 21.533124384480306 35.39157857666023
    vertex 178.6860343312589 21.55878980035888 35.00000000000008
    vertex 176.6860343312589 21.55878980035888 35.00000000000008
  endloop
endfacet
facet normal 0.0 0.9978589232386025 0.06540312923015952
  outer loop
    vertex 178.6860343312589 21.55878980035888 35.00000000000008
    vertex 176.6860343312589 21.533124384480306 35.39157857666023
    vertex 178.6860343312589 21.533124384480306 35.39157857666023
  endloop
endfacet
facet normal -1.3543689572910903e-15 0.980785280403225 0.19509032201615548
  outer loop
    vertex 176.6860343312589 21.456567279226068 35.77645713530763
    vertex 178.6860343312589 21.533124384480306 35.39157857666023
    vertex 176.6860343312589 21.533124384480306 35.39157857666023
  endloop
endfacet
facet normal -1.3543689572910903e-15 0.980785280403225 0.19509032201615548
  outer loop
    vertex 178.6860343312589 21.533124384480306 35.39157857666023
    vertex 176.6860343312589 21.456567279226068 35.77645713530763
    vertex 178.6860343312589 21.456567279226068 35.77645713530763
  endloop
endfacet
facet normal -9.815635777383315e-15 0.7518398074789717 0.6593458151000755
  outer loop
    vertex 176.68603433125892 5.178729779485216 39.173715712973895
    vertex 178.68603433125892 5.437469456799281 38.87867965644044
    vertex 176.68603433125892 5.437469456799281 38.87867965644042
  endloop
endfacet
facet normal -9.815635777383315e-15 0.7518398074789717 0.6593458151000755
  outer loop
    vertex 178.68603433125892 5.437469456799281 38.87867965644044
    vertex 176.68603433125892 5.178729779485216 39.173715712973895
    vertex 178.68603433125892 5.178729779485216 39.173715712973916
  endloop
endfacet
facet normal -1.1255573178799137e-14 0.06540312923014614 0.9978589232386034
  outer loop
    vertex 178.68603433125892 7.167211223698761 38.02566541587865
    vertex 176.68603433125895 7.558789800358906 38.00000000000006
    vertex 176.68603433125895 7.167211223698761 38.02566541587862
  endloop
endfacet
facet normal -1.1255573178799137e-14 0.06540312923014614 0.9978589232386034
  outer loop
    vertex 176.68603433125895 7.558789800358906 38.00000000000006
    vertex 178.68603433125892 7.167211223698761 38.02566541587865
    vertex 178.68603433125892 7.558789800358906 38.00000000000008
  endloop
endfacet
facet normal -8.856107722306912e-15 0.8314696123025452 0.5555702330196022
  outer loop
    vertex 176.68603433125892 4.960713589005605 39.50000000000006
    vertex 178.68603433125892 5.178729779485216 39.173715712973916
    vertex 176.68603433125892 5.178729779485216 39.173715712973895
  endloop
endfacet
facet normal -8.856107722306912e-15 0.8314696123025452 0.5555702330196022
  outer loop
    vertex 178.68603433125892 5.178729779485216 39.173715712973916
    vertex 176.68603433125892 4.960713589005605 39.50000000000006
    vertex 178.68603433125892 4.960713589005605 39.50000000000008
  endloop
endfacet
facet normal -8.953600680772196e-16 0.6593458151000744 0.7518398074789725
  outer loop
    vertex 178.6860343312589 20.38507408738504 37.38006002087377
    vertex 176.6860343312589 20.68011014391851 37.12132034355972
    vertex 176.6860343312589 20.38507408738504 37.38006002087377
  endloop
endfacet
facet normal -8.953600680772196e-16 0.6593458151000744 0.7518398074789725
  outer loop
    vertex 176.6860343312589 20.68011014391851 37.12132034355972
    vertex 178.6860343312589 20.38507408738504 37.38006002087377
    vertex 178.6860343312589 20.68011014391851 37.12132034355972
  endloop
endfacet
facet normal -5.910368222831437e-16 0.4422886902189955 0.8968727415326913
  outer loop
    vertex 178.6860343312589 19.706840097454155 37.77163859753393
    vertex 176.6860343312589 20.058789800358884 37.59807621135339
    vertex 176.6860343312589 19.706840097454155 37.77163859753393
  endloop
endfacet
facet normal -5.910368222831437e-16 0.4422886902189955 0.8968727415326913
  outer loop
    vertex 176.6860343312589 20.058789800358884 37.59807621135339
    vertex 178.6860343312589 19.706840097454155 37.77163859753393
    vertex 178.6860343312589 20.058789800358884 37.59807621135339
  endloop
endfacet
facet normal -7.745049208724786e-15 0.8968727415326969 0.4422886902189839
  outer loop
    vertex 176.68603433125892 4.78715120282507 39.85194970290479
    vertex 178.68603433125892 4.960713589005605 39.50000000000008
    vertex 176.68603433125892 4.960713589005605 39.50000000000006
  endloop
endfacet
facet normal -7.745049208724786e-15 0.8968727415326969 0.4422886902189839
  outer loop
    vertex 178.68603433125892 4.960713589005605 39.50000000000008
    vertex 176.68603433125892 4.78715120282507 39.85194970290479
    vertex 178.68603433125892 4.78715120282507 39.85194970290481
  endloop
endfacet
facet normal -1.185452953922758e-14 0.32143946530316275 0.9469301294951052
  outer loop
    vertex 178.68603433125892 6.410739503263639 38.22836140246622
    vertex 176.68603433125895 6.782332665051349 38.10222252113285
    vertex 176.68603433125895 6.410739503263639 38.2283614024662
  endloop
endfacet
facet normal -1.185452953922758e-14 0.32143946530316275 0.9469301294951052
  outer loop
    vertex 176.68603433125895 6.782332665051349 38.10222252113285
    vertex 178.68603433125892 6.410739503263639 38.22836140246622
    vertex 178.68603433125892 6.782332665051349 38.10222252113287
  endloop
endfacet
facet normal -1.0607215582900102e-14 0.6593458151000826 0.7518398074789654
  outer loop
    vertex 178.68603433125892 5.437469456799281 38.87867965644044
    vertex 176.68603433125895 5.732505513332754 38.61993997912635
    vertex 176.68603433125892 5.437469456799281 38.87867965644042
  endloop
endfacet
facet normal -1.0607215582900102e-14 0.6593458151000826 0.7518398074789654
  outer loop
    vertex 176.68603433125895 5.732505513332754 38.61993997912635
    vertex 178.68603433125892 5.437469456799281 38.87867965644044
    vertex 178.68603433125892 5.732505513332754 38.61993997912637
  endloop
endfacet
facet normal -1.1635459230771385e-14 0.442288690219007 0.8968727415326855
  outer loop
    vertex 178.68603433125892 6.058789800358909 38.40192378864676
    vertex 176.68603433125895 6.410739503263639 38.2283614024662
    vertex 176.68603433125895 6.058789800358909 38.40192378864674
  endloop
endfacet
facet normal -1.1635459230771385e-14 0.442288690219007 0.8968727415326855
  outer loop
    vertex 176.68603433125895 6.410739503263639 38.2283614024662
    vertex 178.68603433125892 6.058789800358909 38.40192378864676
    vertex 178.68603433125892 6.410739503263639 38.22836140246622
  endloop
endfacet
facet normal -7.496114752668957e-16 0.5555702330196188 0.8314696123025341
  outer loop
    vertex 178.6860343312589 20.058789800358884 37.59807621135339
    vertex 176.6860343312589 20.38507408738504 37.38006002087377
    vertex 176.6860343312589 20.058789800358884 37.59807621135339
  endloop
endfacet
facet normal -7.496114752668957e-16 0.5555702330196188 0.8314696123025341
  outer loop
    vertex 176.6860343312589 20.38507408738504 37.38006002087377
    vertex 178.6860343312589 20.058789800358884 37.59807621135339
    vertex 178.6860343312589 20.38507408738504 37.38006002087377
  endloop
endfacet
facet normal -1.1217302988917933e-14 0.555570233019609 0.8314696123025409
  outer loop
    vertex 178.68603433125892 5.732505513332754 38.61993997912637
    vertex 176.68603433125895 6.058789800358909 38.40192378864674
    vertex 176.68603433125895 5.732505513332754 38.61993997912635
  endloop
endfacet
facet normal -1.1217302988917933e-14 0.555570233019609 0.8314696123025409
  outer loop
    vertex 176.68603433125895 6.058789800358909 38.40192378864674
    vertex 178.68603433125892 5.732505513332754 38.61993997912637
    vertex 178.68603433125892 6.058789800358909 38.40192378864676
  endloop
endfacet
facet normal -6.501470755848418e-15 0.9469301294951052 0.32143946530316275
  outer loop
    vertex 176.68603433125892 4.661012321491724 40.2235428646925
    vertex 178.68603433125892 4.78715120282507 39.85194970290481
    vertex 176.68603433125892 4.78715120282507 39.85194970290479
  endloop
endfacet
facet normal -6.501470755848418e-15 0.9469301294951052 0.32143946530316275
  outer loop
    vertex 178.68603433125892 4.78715120282507 39.85194970290481
    vertex 176.68603433125892 4.661012321491724 40.2235428646925
    vertex 178.68603433125892 4.661012321491724 40.22354286469252
  endloop
endfacet
facet normal -2.7155897976236717e-15 0.9807852804032294 0.19509032201613405
  outer loop
    vertex 176.6860343312587 4.45656727922608 53.77645713530764
    vertex 178.6860343312587 4.533124384480307 53.391578576660265
    vertex 176.68603433125872 4.533124384480307 53.39157857666024
  endloop
endfacet
facet normal -2.7155897976236717e-15 0.9807852804032294 0.19509032201613405
  outer loop
    vertex 178.6860343312587 4.533124384480307 53.391578576660265
    vertex 176.6860343312587 4.45656727922608 53.77645713530764
    vertex 178.6860343312587 4.45656727922608 53.776457135307666
  endloop
endfacet
facet normal -7.376935011446477e-16 0.9978589232386034 0.06540312923014606
  outer loop
    vertex 176.68603433125872 4.533124384480307 53.39157857666024
    vertex 178.6860343312587 4.558789800358877 53.00000000000011
    vertex 176.68603433125872 4.558789800358877 53.000000000000085
  endloop
endfacet
facet normal -7.376935011446477e-16 0.9978589232386034 0.06540312923014606
  outer loop
    vertex 178.6860343312587 4.558789800358877 53.00000000000011
    vertex 176.68603433125872 4.533124384480307 53.39157857666024
    vertex 178.6860343312587 4.533124384480307 53.391578576660265
  endloop
endfacet
endsolid Transmitter
