solid Transmitter
facet normal -1.1255573178799009e-14 0.06540312923013182 0.9978589232386043
  outer loop
    vertex 5.9664316288964905 143.17529088287523 55.00000000000006
    vertex 3.966431628896478 143.56686945953538 54.97433458412147
    vertex 3.966431628896478 143.17529088287523 55.000000000000036
  endloop
endfacet
facet normal -1.1255573178799009e-14 0.06540312923013182 0.9978589232386043
  outer loop
    vertex 3.966431628896478 143.56686945953538 54.97433458412147
    vertex 5.9664316288964905 143.17529088287523 55.00000000000006
    vertex 5.9664316288964905 143.56686945953538 54.97433458412149
  endloop
endfacet
facet normal -1.0944971287537959e-14 0.1950903220161251 0.9807852804032312
  outer loop
    vertex 5.9664316288964905 143.56686945953538 54.97433458412149
    vertex 3.966431628896479 143.9517480181828 54.89777747886725
    vertex 3.966431628896478 143.56686945953538 54.97433458412147
  endloop
endfacet
facet normal -1.0944971287537959e-14 0.1950903220161251 0.9807852804032312
  outer loop
    vertex 3.966431628896479 143.9517480181828 54.89777747886725
    vertex 5.9664316288964905 143.56686945953538 54.97433458412149
    vertex 5.9664316288964905 143.9517480181828 54.89777747886727
  endloop
endfacet
facet normal -2.8148534344423265e-16 -3.0974673770159328e-15 1.0
  outer loop
    vertex 5.966431628897165 114.17529088287564 2.999999999999978
    vertex 13.966431628897066 163.17529088287534 3.0000000000002442
    vertex 5.966431628897064 163.17529088287534 3.0000000000001514
  endloop
endfacet
facet normal -2.8148534344423265e-16 -3.0974673770159328e-15 1.0
  outer loop
    vertex 13.966431628897066 163.17529088287534 3.0000000000002442
    vertex 5.966431628897165 114.17529088287564 2.999999999999978
    vertex 13.966431628897093 140.17529088287537 3.000000000000188
  endloop
endfacet
facet normal -2.8148534344423265e-16 -3.0974673770159328e-15 1.0
  outer loop
    vertex 13.966431628897093 140.17529088287537 3.000000000000188
    vertex 5.966431628897165 114.17529088287564 2.999999999999978
    vertex 17.966431628897165 117.17529088287537 3.0000000000000324
  endloop
endfacet
facet normal -2.8148534344423265e-16 -3.0974673770159328e-15 1.0
  outer loop
    vertex 17.966431628897165 117.17529088287537 3.0000000000000324
    vertex 5.966431628897165 114.17529088287564 2.999999999999978
    vertex 31.96643162889715 114.17529088287544 3.0000000000000724
  endloop
endfacet
facet normal -2.8148534344423265e-16 -3.0974673770159328e-15 1.0
  outer loop
    vertex 17.966431628897165 117.17529088287537 3.0000000000000324
    vertex 31.96643162889715 114.17529088287544 3.0000000000000724
    vertex 20.466431628897272 117.17529088287542 3.000000000000041
  endloop
endfacet
facet normal -2.8148534344423265e-16 -3.0974673770159328e-15 1.0
  outer loop
    vertex 20.466431628897272 117.17529088287542 3.000000000000041
    vertex 31.96643162889715 114.17529088287544 3.0000000000000724
    vertex 23.966431628897222 122.76179095805303 3.000000000000085
  endloop
endfacet
facet normal -2.8148534344423265e-16 -3.0974673770159328e-15 1.0
  outer loop
    vertex 23.966431628897087 134.67529088287543 3.000000000000089
    vertex 20.466431628897272 140.17529088287537 3.000000000000037
    vertex 20.466431628897272 134.6752908828754 3.000000000000038
  endloop
endfacet
facet normal -2.8148534344423265e-16 -3.0974673770159328e-15 1.0
  outer loop
    vertex 20.466431628897272 140.17529088287537 3.000000000000037
    vertex 23.966431628897087 134.67529088287543 3.000000000000089
    vertex 31.96643162889715 140.17529088287537 3.000000000000051
  endloop
endfacet
facet normal -2.8148534344423265e-16 -3.0974673770159328e-15 1.0
  outer loop
    vertex 31.96643162889715 140.17529088287537 3.000000000000051
    vertex 23.966431628897087 134.67529088287543 3.000000000000089
    vertex 23.966431628897222 122.76179095805303 3.000000000000085
  endloop
endfacet
facet normal -2.8148534344423265e-16 -3.0974673770159328e-15 1.0
  outer loop
    vertex 31.96643162889715 140.17529088287537 3.000000000000051
    vertex 23.966431628897222 122.76179095805303 3.000000000000085
    vertex 31.96643162889715 114.17529088287544 3.0000000000000724
  endloop
endfacet
facet normal -2.8148534344423265e-16 -3.0974673770159328e-15 1.0
  outer loop
    vertex 23.966431628897222 122.76179095805303 3.000000000000085
    vertex 20.46643162889725 122.76179095805301 3.0000000000000635
    vertex 20.466431628897272 117.17529088287542 3.000000000000041
  endloop
endfacet
facet normal -2.8148534344423265e-16 -3.0974673770159328e-15 1.0
  outer loop
    vertex 17.966431628897165 140.17529088287534 3.0000000000000324
    vertex 13.966431628897093 140.17529088287537 3.000000000000188
    vertex 17.966431628897165 117.17529088287537 3.0000000000000324
  endloop
endfacet
facet normal -1.0599183145385467e-14 0.32143946530316275 0.9469301294951052
  outer loop
    vertex 5.9664316288964905 143.9517480181828 54.89777747886727
    vertex 3.9664316288964803 144.3233411799705 54.7716385975339
    vertex 3.966431628896479 143.9517480181828 54.89777747886725
  endloop
endfacet
facet normal -1.0599183145385467e-14 0.32143946530316275 0.9469301294951052
  outer loop
    vertex 3.9664316288964803 144.3233411799705 54.7716385975339
    vertex 5.9664316288964905 143.9517480181828 54.89777747886727
    vertex 5.966431628896492 144.3233411799705 54.77163859753392
  endloop
endfacet
facet normal -1.0072040040966672e-14 0.442288690219007 0.8968727415326855
  outer loop
    vertex 5.966431628896492 144.3233411799705 54.77163859753392
    vertex 3.9664316288964816 144.67529088287523 54.59807621135335
    vertex 3.9664316288964803 144.3233411799705 54.7716385975339
  endloop
endfacet
facet normal -1.0072040040966672e-14 0.442288690219007 0.8968727415326855
  outer loop
    vertex 3.9664316288964816 144.67529088287523 54.59807621135335
    vertex 5.966431628896492 144.3233411799705 54.77163859753392
    vertex 5.966431628896493 144.67529088287523 54.59807621135337
  endloop
endfacet
facet normal -9.37256153894988e-15 0.555570233019609 0.8314696123025409
  outer loop
    vertex 5.966431628896493 144.67529088287523 54.59807621135337
    vertex 3.9664316288964843 145.0015751699014 54.38006002087374
    vertex 3.9664316288964816 144.67529088287523 54.59807621135335
  endloop
endfacet
facet normal -9.37256153894988e-15 0.555570233019609 0.8314696123025409
  outer loop
    vertex 3.9664316288964843 145.0015751699014 54.38006002087374
    vertex 5.966431628896493 144.67529088287523 54.59807621135337
    vertex 5.966431628896496 145.0015751699014 54.38006002087376
  endloop
endfacet
facet normal -8.512715910436874e-15 0.6593458151000541 0.7518398074789904
  outer loop
    vertex 5.966431628896496 145.0015751699014 54.38006002087376
    vertex 3.9664316288964874 145.2966112264349 54.121320343559674
    vertex 3.9664316288964843 145.0015751699014 54.38006002087374
  endloop
endfacet
facet normal -8.512715910436874e-15 0.6593458151000541 0.7518398074789904
  outer loop
    vertex 3.9664316288964874 145.2966112264349 54.121320343559674
    vertex 5.966431628896496 145.0015751699014 54.38006002087376
    vertex 5.966431628896499 145.2966112264349 54.1213203435597
  endloop
endfacet
facet normal -7.507215352525375e-15 0.7518398074789654 0.6593458151000826
  outer loop
    vertex 3.9664316288964874 145.2966112264349 54.121320343559674
    vertex 5.966431628896502 145.55535090374894 53.826284287026226
    vertex 3.96643162889649 145.55535090374894 53.826284287026205
  endloop
endfacet
facet normal -7.507215352525375e-15 0.7518398074789654 0.6593458151000826
  outer loop
    vertex 5.966431628896502 145.55535090374894 53.826284287026226
    vertex 3.9664316288964874 145.2966112264349 54.121320343559674
    vertex 5.966431628896499 145.2966112264349 54.1213203435597
  endloop
endfacet
facet normal -6.373264258538625e-15 0.8314696123025498 0.5555702330195956
  outer loop
    vertex 3.96643162889649 145.55535090374894 53.826284287026205
    vertex 5.9664316288965065 145.77336709422855 53.50000000000006
    vertex 3.9664316288964936 145.77336709422855 53.500000000000036
  endloop
endfacet
facet normal -6.373264258538625e-15 0.8314696123025498 0.5555702330195956
  outer loop
    vertex 5.9664316288965065 145.77336709422855 53.50000000000006
    vertex 3.96643162889649 145.55535090374894 53.826284287026205
    vertex 5.966431628896502 145.55535090374894 53.826284287026226
  endloop
endfacet
facet normal -3.6659564273121394e-15 0.0 1.0
  outer loop
    vertex 20.46643162889724 117.17529088287542 1.0000000000000666
    vertex 17.966431628897155 117.67529088287539 1.000000000000062
    vertex 17.966431628897155 117.17529088287542 1.000000000000062
  endloop
endfacet
facet normal -3.6659564273121394e-15 0.0 1.0
  outer loop
    vertex 17.966431628897155 117.67529088287539 1.000000000000062
    vertex 20.46643162889724 117.17529088287542 1.0000000000000666
    vertex 20.46643162889724 117.67529088287539 1.0000000000000666
  endloop
endfacet
facet normal 1.8799776550319456e-15 1.0 7.519910620127628e-15
  outer loop
    vertex 13.966431628897134 140.17529088287537 1.4430243284640902e-13
    vertex 17.966431628897165 140.17529088287534 3.0000000000000324
    vertex 17.966431628897155 140.17529088287537 5.847770566365637e-14
  endloop
endfacet
facet normal 1.8799776550319456e-15 1.0 7.519910620127628e-15
  outer loop
    vertex 17.966431628897165 140.17529088287534 3.0000000000000324
    vertex 13.966431628897134 140.17529088287537 1.4430243284640902e-13
    vertex 13.966431628897093 140.17529088287537 3.000000000000188
  endloop
endfacet
facet normal -5.130264846085701e-15 0.8968727415326969 0.4422886902189839
  outer loop
    vertex 3.9664316288964936 145.77336709422855 53.500000000000036
    vertex 5.96643162889651 145.9469294804091 53.14805029709533
    vertex 3.9664316288964976 145.9469294804091 53.14805029709531
  endloop
endfacet
facet normal -5.130264846085701e-15 0.8968727415326969 0.4422886902189839
  outer loop
    vertex 5.96643162889651 145.9469294804091 53.14805029709533
    vertex 3.9664316288964936 145.77336709422855 53.500000000000036
    vertex 5.9664316288965065 145.77336709422855 53.50000000000006
  endloop
endfacet
facet normal -3.799485179738434e-15 0.9469301294951052 0.32143946530316275
  outer loop
    vertex 3.9664316288964976 145.9469294804091 53.14805029709531
    vertex 5.9664316288965145 146.07306836174243 52.776457135307616
    vertex 3.966431628896502 146.07306836174243 52.776457135307595
  endloop
endfacet
facet normal -3.799485179738434e-15 0.9469301294951052 0.32143946530316275
  outer loop
    vertex 5.9664316288965145 146.07306836174243 52.776457135307616
    vertex 3.9664316288964976 145.9469294804091 53.14805029709531
    vertex 5.96643162889651 145.9469294804091 53.14805029709533
  endloop
endfacet
facet normal -2.4036952685490415e-15 0.9807852804032354 0.1950903220161029
  outer loop
    vertex 3.966431628896502 146.07306836174243 52.776457135307595
    vertex 5.966431628896519 146.14962546699667 52.39157857666022
    vertex 3.966431628896506 146.14962546699667 52.391578576660194
  endloop
endfacet
facet normal -2.4036952685490415e-15 0.9807852804032354 0.1950903220161029
  outer loop
    vertex 5.966431628896519 146.14962546699667 52.39157857666022
    vertex 3.966431628896502 146.07306836174243 52.776457135307595
    vertex 5.9664316288965145 146.07306836174243 52.776457135307616
  endloop
endfacet
facet normal -7.38081382975793e-16 0.9978589232386025 0.06540312923015858
  outer loop
    vertex 3.966431628896506 146.14962546699667 52.391578576660194
    vertex 5.966431628896523 146.17529088287523 52.000000000000064
    vertex 3.9664316288965105 146.17529088287523 52.00000000000004
  endloop
endfacet
facet normal -7.38081382975793e-16 0.9978589232386025 0.06540312923015858
  outer loop
    vertex 5.966431628896523 146.17529088287523 52.000000000000064
    vertex 3.966431628896506 146.14962546699667 52.391578576660194
    vertex 5.966431628896519 146.14962546699667 52.39157857666022
  endloop
endfacet
facet normal 0.0 -1.0 0.0
  outer loop
    vertex 23.466431628897098 133.17529088287543 1.000000000000074
    vertex 20.46643162889724 133.17529088287543 6.87258800762197e-14
    vertex 23.466431628897098 133.17529088287543 4.9549770078143606e-14
  endloop
endfacet
facet normal 0.0 -1.0 0.0
  outer loop
    vertex 20.46643162889724 133.17529088287543 6.87258800762197e-14
    vertex 23.466431628897098 133.17529088287543 1.000000000000074
    vertex 20.46643162889724 133.17529088287543 1.0000000000000464
  endloop
endfacet
facet normal 1.0 1.0867663151077525e-15 1.1514863137070418e-14
  outer loop
    vertex 13.9664316288971 163.17529088287534 2.0045016207675112e-13
    vertex 13.966431628897093 140.17529088287537 3.000000000000188
    vertex 13.966431628897134 140.17529088287537 1.4430243284640902e-13
  endloop
endfacet
facet normal 1.0 1.0867663151077525e-15 1.1514863137070418e-14
  outer loop
    vertex 13.966431628897093 140.17529088287537 3.000000000000188
    vertex 13.9664316288971 163.17529088287534 2.0045016207675112e-13
    vertex 13.966431628897066 163.17529088287534 3.0000000000002442
  endloop
endfacet
facet normal -1.0 0.0 0.0
  outer loop
    vertex 23.466431628897098 133.17529088287543 1.000000000000074
    vertex 23.466431628897098 124.17529088287536 4.9549770078143606e-14
    vertex 23.466431628897098 124.17529088287536 1.000000000000074
  endloop
endfacet
facet normal -1.0 0.0 0.0
  outer loop
    vertex 23.466431628897098 124.17529088287536 4.9549770078143606e-14
    vertex 23.466431628897098 133.17529088287543 1.000000000000074
    vertex 23.466431628897098 133.17529088287543 4.9549770078143606e-14
  endloop
endfacet
facet normal 1.0 8.09833601901786e-15 1.0933733640087398e-14
  outer loop
    vertex 5.966431628896808 114.1752908828756 52.99999999999999
    vertex 5.966431628897062 112.17529088287527 55.000000000000014
    vertex 5.966431628897086 112.17529088287527 53.000000000000014
  endloop
endfacet
facet normal 1.0 8.09833601901786e-15 1.0933733640087398e-14
  outer loop
    vertex 5.966431628897062 112.17529088287527 55.000000000000014
    vertex 5.966431628896808 114.1752908828756 52.99999999999999
    vertex 5.9664316288964905 143.17529088287523 55.00000000000006
  endloop
endfacet
facet normal 1.0 8.09833601901786e-15 1.0933733640087398e-14
  outer loop
    vertex 5.9664316288964905 143.17529088287523 55.00000000000006
    vertex 5.966431628896808 114.1752908828756 52.99999999999999
    vertex 5.966431628897165 114.17529088287564 2.999999999999978
  endloop
endfacet
facet normal 1.0 8.09833601901786e-15 1.0933733640087398e-14
  outer loop
    vertex 5.9664316288964905 143.17529088287523 55.00000000000006
    vertex 5.966431628897165 114.17529088287564 2.999999999999978
    vertex 5.966431628896658 146.2775134040081 40.223542864692476
  endloop
endfacet
facet normal 1.0 8.09833601901786e-15 1.0933733640087398e-14
  outer loop
    vertex 5.966431628896658 146.2775134040081 40.223542864692476
    vertex 5.966431628897165 114.17529088287564 2.999999999999978
    vertex 5.966431628896663 146.40365228534142 39.85194970290477
  endloop
endfacet
facet normal 1.0 8.09833601901786e-15 1.0933733640087398e-14
  outer loop
    vertex 5.966431628896663 146.40365228534142 39.85194970290477
    vertex 5.966431628897165 114.17529088287564 2.999999999999978
    vertex 5.966431628897064 163.17529088287534 3.0000000000001514
  endloop
endfacet
facet normal 1.0 8.09833601901786e-15 1.0933733640087398e-14
  outer loop
    vertex 5.9664316288964905 143.17529088287523 55.00000000000006
    vertex 5.966431628896658 146.2775134040081 40.223542864692476
    vertex 5.966431628896654 146.20095629875385 40.608421423339884
  endloop
endfacet
facet normal 1.0 8.09833601901786e-15 1.0933733640087398e-14
  outer loop
    vertex 5.9664316288964905 143.17529088287523 55.00000000000006
    vertex 5.966431628896654 146.20095629875385 40.608421423339884
    vertex 5.9664316288964905 143.56686945953538 54.97433458412149
  endloop
endfacet
facet normal 1.0 8.09833601901786e-15 1.0933733640087398e-14
  outer loop
    vertex 5.9664316288964905 143.56686945953538 54.97433458412149
    vertex 5.966431628896654 146.20095629875385 40.608421423339884
    vertex 5.9664316288964905 143.9517480181828 54.89777747886727
  endloop
endfacet
facet normal 1.0 8.09833601901786e-15 1.0933733640087398e-14
  outer loop
    vertex 5.9664316288964905 143.9517480181828 54.89777747886727
    vertex 5.966431628896654 146.20095629875385 40.608421423339884
    vertex 5.966431628896492 144.3233411799705 54.77163859753392
  endloop
endfacet
facet normal 1.0 8.09833601901786e-15 1.0933733640087398e-14
  outer loop
    vertex 5.966431628896492 144.3233411799705 54.77163859753392
    vertex 5.966431628896654 146.20095629875385 40.608421423339884
    vertex 5.966431628896493 144.67529088287523 54.59807621135337
  endloop
endfacet
facet normal 1.0 8.09833601901786e-15 1.0933733640087398e-14
  outer loop
    vertex 5.966431628896493 144.67529088287523 54.59807621135337
    vertex 5.966431628896654 146.20095629875385 40.608421423339884
    vertex 5.966431628896496 145.0015751699014 54.38006002087376
  endloop
endfacet
facet normal 1.0 8.09833601901786e-15 1.0933733640087398e-14
  outer loop
    vertex 5.966431628896496 145.0015751699014 54.38006002087376
    vertex 5.966431628896654 146.20095629875385 40.608421423339884
    vertex 5.966431628896499 145.2966112264349 54.1213203435597
  endloop
endfacet
facet normal 1.0 8.09833601901786e-15 1.0933733640087398e-14
  outer loop
    vertex 5.966431628896499 145.2966112264349 54.1213203435597
    vertex 5.966431628896654 146.20095629875385 40.608421423339884
    vertex 5.9664316288966495 146.1752908828753 41.000000000000036
  endloop
endfacet
facet normal 1.0 8.09833601901786e-15 1.0933733640087398e-14
  outer loop
    vertex 5.966431628896499 145.2966112264349 54.1213203435597
    vertex 5.9664316288966495 146.1752908828753 41.000000000000036
    vertex 5.966431628896502 145.55535090374894 53.826284287026226
  endloop
endfacet
facet normal 1.0 8.09833601901786e-15 1.0933733640087398e-14
  outer loop
    vertex 5.966431628896502 145.55535090374894 53.826284287026226
    vertex 5.9664316288966495 146.1752908828753 41.000000000000036
    vertex 5.9664316288965065 145.77336709422855 53.50000000000006
  endloop
endfacet
facet normal 1.0 8.09833601901786e-15 1.0933733640087398e-14
  outer loop
    vertex 5.9664316288965065 145.77336709422855 53.50000000000006
    vertex 5.9664316288966495 146.1752908828753 41.000000000000036
    vertex 5.96643162889651 145.9469294804091 53.14805029709533
  endloop
endfacet
facet normal 1.0 8.09833601901786e-15 1.0933733640087398e-14
  outer loop
    vertex 5.96643162889651 145.9469294804091 53.14805029709533
    vertex 5.9664316288966495 146.1752908828753 41.000000000000036
    vertex 5.9664316288965145 146.07306836174243 52.776457135307616
  endloop
endfacet
facet normal 1.0 8.09833601901786e-15 1.0933733640087398e-14
  outer loop
    vertex 5.9664316288965145 146.07306836174243 52.776457135307616
    vertex 5.9664316288966495 146.1752908828753 41.000000000000036
    vertex 5.966431628896519 146.14962546699667 52.39157857666022
  endloop
endfacet
facet normal 1.0 8.09833601901786e-15 1.0933733640087398e-14
  outer loop
    vertex 5.966431628896519 146.14962546699667 52.39157857666022
    vertex 5.9664316288966495 146.1752908828753 41.000000000000036
    vertex 5.966431628896523 146.17529088287523 52.000000000000064
  endloop
endfacet
facet normal 1.0 8.09833601901786e-15 1.0933733640087398e-14
  outer loop
    vertex 5.966431628896663 146.40365228534142 39.85194970290477
    vertex 5.966431628897064 163.17529088287534 3.0000000000001514
    vertex 5.966431628896666 146.57721467152197 39.500000000000036
  endloop
endfacet
facet normal 1.0 8.09833601901786e-15 1.0933733640087398e-14
  outer loop
    vertex 5.966431628896666 146.57721467152197 39.500000000000036
    vertex 5.966431628897064 163.17529088287534 3.0000000000001514
    vertex 5.966431628896669 146.79523086200157 39.17371571297387
  endloop
endfacet
facet normal 1.0 8.09833601901786e-15 1.0933733640087398e-14
  outer loop
    vertex 5.966431628896669 146.79523086200157 39.17371571297387
    vertex 5.966431628897064 163.17529088287534 3.0000000000001514
    vertex 5.966431628896672 147.05397053931566 38.8786796564404
  endloop
endfacet
facet normal 1.0 8.09833601901786e-15 1.0933733640087398e-14
  outer loop
    vertex 5.966431628896672 147.05397053931566 38.8786796564404
    vertex 5.966431628897064 163.17529088287534 3.0000000000001514
    vertex 5.9664316288966734 147.34900659584912 38.61993997912633
  endloop
endfacet
facet normal 1.0 8.09833601901786e-15 1.0933733640087398e-14
  outer loop
    vertex 5.9664316288966734 147.34900659584912 38.61993997912633
    vertex 5.966431628897064 163.17529088287534 3.0000000000001514
    vertex 5.966431628896675 147.67529088287526 38.40192378864672
  endloop
endfacet
facet normal 1.0 8.09833601901786e-15 1.0933733640087398e-14
  outer loop
    vertex 5.966431628896675 147.67529088287526 38.40192378864672
    vertex 5.966431628897064 163.17529088287534 3.0000000000001514
    vertex 5.966431628896676 148.02724058578 38.22836140246617
  endloop
endfacet
facet normal 1.0 8.09833601901786e-15 1.0933733640087398e-14
  outer loop
    vertex 5.966431628896676 148.02724058578 38.22836140246617
    vertex 5.966431628897064 163.17529088287534 3.0000000000001514
    vertex 5.966431628896677 148.39883374756772 38.10222252113283
  endloop
endfacet
facet normal 1.0 8.09833601901786e-15 1.0933733640087398e-14
  outer loop
    vertex 5.966431628896677 148.39883374756772 38.10222252113283
    vertex 5.966431628897064 163.17529088287534 3.0000000000001514
    vertex 5.966431628896676 148.78371230621514 38.0256654158786
  endloop
endfacet
facet normal 1.0 8.09833601901786e-15 1.0933733640087398e-14
  outer loop
    vertex 5.966431628896676 148.78371230621514 38.0256654158786
    vertex 5.966431628897064 163.17529088287534 3.0000000000001514
    vertex 5.966431628896676 149.17529088287526 38.00000000000003
  endloop
endfacet
facet normal 1.0 8.09833601901786e-15 1.0933733640087398e-14
  outer loop
    vertex 5.966431628896676 149.17529088287526 38.00000000000003
    vertex 5.966431628897064 163.17529088287534 3.0000000000001514
    vertex 5.966431628896646 160.17529088287526 38.00000000000003
  endloop
endfacet
facet normal 1.0 8.09833601901786e-15 1.0933733640087398e-14
  outer loop
    vertex 5.966431628896646 160.17529088287526 38.00000000000003
    vertex 5.966431628897064 163.17529088287534 3.0000000000001514
    vertex 5.966431628896646 160.56686945953538 37.974334584121465
  endloop
endfacet
facet normal 1.0 8.09833601901786e-15 1.0933733640087398e-14
  outer loop
    vertex 5.966431628896646 160.56686945953538 37.974334584121465
    vertex 5.966431628897064 163.17529088287534 3.0000000000001514
    vertex 5.966431628896644 160.9517480181828 37.89777747886723
  endloop
endfacet
facet normal 1.0 8.09833601901786e-15 1.0933733640087398e-14
  outer loop
    vertex 5.966431628896644 160.9517480181828 37.89777747886723
    vertex 5.966431628897064 163.17529088287534 3.0000000000001514
    vertex 5.966431628896644 161.32334117997053 37.77163859753389
  endloop
endfacet
facet normal 1.0 8.09833601901786e-15 1.0933733640087398e-14
  outer loop
    vertex 5.966431628896644 161.32334117997053 37.77163859753389
    vertex 5.966431628897064 163.17529088287534 3.0000000000001514
    vertex 5.966431628896644 161.67529088287526 37.598076211353344
  endloop
endfacet
facet normal 1.0 8.09833601901786e-15 1.0933733640087398e-14
  outer loop
    vertex 5.966431628896644 161.67529088287526 37.598076211353344
    vertex 5.966431628897064 163.17529088287534 3.0000000000001514
    vertex 5.966431628896643 162.0015751699014 37.38006002087373
  endloop
endfacet
facet normal 1.0 8.09833601901786e-15 1.0933733640087398e-14
  outer loop
    vertex 5.966431628896643 162.0015751699014 37.38006002087373
    vertex 5.966431628897064 163.17529088287534 3.0000000000001514
    vertex 5.966431628896643 162.29661122643486 37.12132034355967
  endloop
endfacet
facet normal 1.0 8.09833601901786e-15 1.0933733640087398e-14
  outer loop
    vertex 5.966431628896643 162.29661122643486 37.12132034355967
    vertex 5.966431628897064 163.17529088287534 3.0000000000001514
    vertex 5.966431628896643 162.55535090374894 36.82628428702619
  endloop
endfacet
facet normal 1.0 8.09833601901786e-15 1.0933733640087398e-14
  outer loop
    vertex 5.966431628896643 162.55535090374894 36.82628428702619
    vertex 5.966431628897064 163.17529088287534 3.0000000000001514
    vertex 5.966431628896643 162.77336709422855 36.50000000000003
  endloop
endfacet
facet normal 1.0 8.09833601901786e-15 1.0933733640087398e-14
  outer loop
    vertex 5.966431628896643 162.77336709422855 36.50000000000003
    vertex 5.966431628897064 163.17529088287534 3.0000000000001514
    vertex 5.9664316288966415 162.9469294804091 36.148050297095295
  endloop
endfacet
facet normal 1.0 8.09833601901786e-15 1.0933733640087398e-14
  outer loop
    vertex 5.9664316288966415 162.9469294804091 36.148050297095295
    vertex 5.966431628897064 163.17529088287534 3.0000000000001514
    vertex 5.9664316288966415 163.07306836174243 35.77645713530759
  endloop
endfacet
facet normal 1.0 8.09833601901786e-15 1.0933733640087398e-14
  outer loop
    vertex 5.9664316288966415 163.07306836174243 35.77645713530759
    vertex 5.966431628897064 163.17529088287534 3.0000000000001514
    vertex 5.9664316288966415 163.14962546699667 35.39157857666018
  endloop
endfacet
facet normal 1.0 8.09833601901786e-15 1.0933733640087398e-14
  outer loop
    vertex 5.9664316288966415 163.14962546699667 35.39157857666018
    vertex 5.966431628897064 163.17529088287534 3.0000000000001514
    vertex 5.9664316288966415 163.17529088287523 35.00000000000003
  endloop
endfacet
facet normal -1.0 3.890596637203917e-16 5.1969692799843504e-15
  outer loop
    vertex 20.466431628897272 140.17529088287537 3.000000000000037
    vertex 20.46643162889724 134.6752908828754 1.0000000000000422
    vertex 20.466431628897272 134.6752908828754 3.000000000000038
  endloop
endfacet
facet normal -1.0 3.890596637203917e-16 5.1969692799843504e-15
  outer loop
    vertex 20.46643162889724 134.6752908828754 1.0000000000000422
    vertex 20.46643162889724 133.17529088287543 6.87258800762197e-14
    vertex 20.46643162889724 133.17529088287543 1.0000000000000464
  endloop
endfacet
facet normal -1.0 3.890596637203917e-16 5.1969692799843504e-15
  outer loop
    vertex 20.46643162889724 133.17529088287543 6.87258800762197e-14
    vertex 20.46643162889724 134.6752908828754 1.0000000000000422
    vertex 20.46643162889724 140.17529088287537 5.777271404301939e-14
  endloop
endfacet
facet normal -1.0 3.890596637203917e-16 5.1969692799843504e-15
  outer loop
    vertex 20.46643162889724 140.17529088287537 5.777271404301939e-14
    vertex 20.46643162889724 134.6752908828754 1.0000000000000422
    vertex 20.466431628897272 140.17529088287537 3.000000000000037
  endloop
endfacet
facet normal 1.0 -1.3188080203634172e-16 4.912742688668769e-16
  outer loop
    vertex 34.96643162889714 112.17529088287533 3.722577054187101e-14
    vertex 34.966431628897126 114.17529088287537 53.000000000000085
    vertex 34.9664316288971 112.17529088287527 53.000000000000036
  endloop
endfacet
facet normal 1.0 -1.3188080203634172e-16 4.912742688668769e-16
  outer loop
    vertex 34.966431628897126 114.17529088287537 53.000000000000085
    vertex 34.96643162889714 112.17529088287533 3.722577054187101e-14
    vertex 34.96643162889715 114.17529088287543 2.5000000000000835
  endloop
endfacet
facet normal 1.0 -1.3188080203634172e-16 4.912742688668769e-16
  outer loop
    vertex 34.96643162889715 114.17529088287543 2.5000000000000835
    vertex 34.96643162889714 112.17529088287533 3.722577054187101e-14
    vertex 34.96643162889714 140.17529088287537 7.129696090559594e-14
  endloop
endfacet
facet normal 1.0 -1.3188080203634172e-16 4.912742688668769e-16
  outer loop
    vertex 34.96643162889715 114.17529088287543 2.5000000000000835
    vertex 34.96643162889714 140.17529088287537 7.129696090559594e-14
    vertex 34.96643162889715 140.17529088287537 2.5000000000000555
  endloop
endfacet
facet normal 7.779217882890708e-15 1.0 9.023892744153562e-16
  outer loop
    vertex 5.966431628896808 114.1752908828756 52.99999999999999
    vertex 31.96643162889715 114.17529088287544 3.0000000000000724
    vertex 5.966431628897165 114.17529088287564 2.999999999999978
  endloop
endfacet
facet normal 7.779217882890708e-15 1.0 9.023892744153562e-16
  outer loop
    vertex 31.96643162889715 114.17529088287544 3.0000000000000724
    vertex 34.96643162889715 114.17529088287543 2.5000000000000835
    vertex 31.96643162889715 114.17529088287544 2.5000000000000724
  endloop
endfacet
facet normal 7.779217882890708e-15 1.0 9.023892744153562e-16
  outer loop
    vertex 34.96643162889715 114.17529088287543 2.5000000000000835
    vertex 31.96643162889715 114.17529088287544 3.0000000000000724
    vertex 34.966431628897126 114.17529088287537 53.000000000000085
  endloop
endfacet
facet normal 7.779217882890708e-15 1.0 9.023892744153562e-16
  outer loop
    vertex 34.966431628897126 114.17529088287537 53.000000000000085
    vertex 31.96643162889715 114.17529088287544 3.0000000000000724
    vertex 5.966431628896808 114.1752908828756 52.99999999999999
  endloop
endfacet
facet normal -9.023892744152987e-15 1.0 6.445637674395269e-15
  outer loop
    vertex 17.966431628897165 117.17529088287537 3.0000000000000324
    vertex 20.46643162889724 117.17529088287542 1.0000000000000666
    vertex 17.966431628897155 117.17529088287542 1.000000000000062
  endloop
endfacet
facet normal -9.023892744152987e-15 1.0 6.445637674395269e-15
  outer loop
    vertex 20.46643162889724 117.17529088287542 1.0000000000000666
    vertex 17.966431628897165 117.17529088287537 3.0000000000000324
    vertex 20.466431628897272 117.17529088287542 3.000000000000041
  endloop
endfacet
facet normal 1.0 0.0 0.0
  outer loop
    vertex 17.966431628897155 140.17529088287537 5.847770566365637e-14
    vertex 17.966431628897155 117.67529088287539 1.000000000000062
    vertex 17.966431628897155 117.67529088287539 7.351948517980073e-14
  endloop
endfacet
facet normal 1.0 0.0 0.0
  outer loop
    vertex 17.966431628897155 117.67529088287539 1.000000000000062
    vertex 17.966431628897155 140.17529088287537 5.847770566365637e-14
    vertex 17.966431628897165 140.17529088287534 3.0000000000000324
  endloop
endfacet
facet normal 1.0 0.0 0.0
  outer loop
    vertex 17.966431628897155 117.17529088287542 1.000000000000062
    vertex 17.966431628897165 140.17529088287534 3.0000000000000324
    vertex 17.966431628897165 117.17529088287537 3.0000000000000324
  endloop
endfacet
facet normal 1.0 0.0 0.0
  outer loop
    vertex 17.966431628897165 140.17529088287534 3.0000000000000324
    vertex 17.966431628897155 117.17529088287542 1.000000000000062
    vertex 17.966431628897155 117.67529088287539 1.000000000000062
  endloop
endfacet
facet normal 0.0 1.0 0.0
  outer loop
    vertex 17.966431628897155 117.67529088287539 7.351948517980073e-14
    vertex 20.46643162889724 117.67529088287539 1.0000000000000666
    vertex 20.46643162889724 117.67529088287539 7.18992188543868e-14
  endloop
endfacet
facet normal 0.0 1.0 0.0
  outer loop
    vertex 20.46643162889724 117.67529088287539 1.0000000000000666
    vertex 17.966431628897155 117.67529088287539 7.351948517980073e-14
    vertex 17.966431628897155 117.67529088287539 1.000000000000062
  endloop
endfacet
facet normal 0.0 1.0 0.0
  outer loop
    vertex 20.46643162889724 124.17529088287536 1.0150886692113972e-13
    vertex 23.466431628897098 124.17529088287536 1.000000000000074
    vertex 23.466431628897098 124.17529088287536 4.9549770078143606e-14
  endloop
endfacet
facet normal 0.0 1.0 0.0
  outer loop
    vertex 23.466431628897098 124.17529088287536 1.000000000000074
    vertex 20.46643162889724 124.17529088287536 1.0150886692113972e-13
    vertex 20.46643162889726 124.17529088287536 1.0000000000000786
  endloop
endfacet
facet normal 0.0 1.0 0.0
  outer loop
    vertex 20.46643162889724 122.76179095805301 1.0000000000000608
    vertex 23.966431628897222 122.76179095805303 3.000000000000085
    vertex 23.966431628897244 122.76179095805303 1.0000000000000486
  endloop
endfacet
facet normal 0.0 1.0 0.0
  outer loop
    vertex 23.966431628897222 122.76179095805303 3.000000000000085
    vertex 20.46643162889724 122.76179095805301 1.0000000000000608
    vertex 20.46643162889725 122.76179095805301 3.0000000000000635
  endloop
endfacet
facet normal 4.2844417858393127e-16 -1.0 -1.5584311476490872e-15
  outer loop
    vertex 34.9664316288971 112.17529088287527 53.000000000000036
    vertex 5.966431628897086 112.17529088287527 53.000000000000014
    vertex 34.96643162889714 112.17529088287533 3.722577054187101e-14
  endloop
endfacet
facet normal 4.2844417858393127e-16 -1.0 -1.5584311476490872e-15
  outer loop
    vertex 34.96643162889714 112.17529088287533 3.722577054187101e-14
    vertex 3.9664316288964856 112.1752908828752 54.99999999999999
    vertex 3.966431628897097 112.17529088287533 0.0
  endloop
endfacet
facet normal 4.2844417858393127e-16 -1.0 -1.5584311476490872e-15
  outer loop
    vertex 3.9664316288964856 112.1752908828752 54.99999999999999
    vertex 34.96643162889714 112.17529088287533 3.722577054187101e-14
    vertex 5.966431628897086 112.17529088287527 53.000000000000014
  endloop
endfacet
facet normal 4.2844417858393127e-16 -1.0 -1.5584311476490872e-15
  outer loop
    vertex 3.9664316288964856 112.1752908828752 54.99999999999999
    vertex 5.966431628897086 112.17529088287527 53.000000000000014
    vertex 5.966431628897062 112.17529088287527 55.000000000000014
  endloop
endfacet
facet normal -1.9448044707227046e-15 -5.639932965094337e-15 1.0
  outer loop
    vertex 5.966431628897086 112.17529088287527 53.000000000000014
    vertex 34.966431628897126 114.17529088287537 53.000000000000085
    vertex 5.966431628896808 114.1752908828756 52.99999999999999
  endloop
endfacet
facet normal -1.9448044707227046e-15 -5.639932965094337e-15 1.0
  outer loop
    vertex 34.966431628897126 114.17529088287537 53.000000000000085
    vertex 5.966431628897086 112.17529088287527 53.000000000000014
    vertex 34.9664316288971 112.17529088287527 53.000000000000036
  endloop
endfacet
facet normal -1.311112243728065e-16 1.0 2.660349027875992e-15
  outer loop
    vertex 3.9664316288970647 163.17529088287534 1.0729873312104719e-13
    vertex 5.966431628897064 163.17529088287534 3.0000000000001514
    vertex 13.9664316288971 163.17529088287534 2.0045016207675112e-13
  endloop
endfacet
facet normal -1.311112243728065e-16 1.0 2.660349027875992e-15
  outer loop
    vertex 5.966431628897064 163.17529088287534 3.0000000000001514
    vertex 3.9664316288970647 163.17529088287534 1.0729873312104719e-13
    vertex 3.9664316288966424 163.17529088287523 35.00000000000003
  endloop
endfacet
facet normal -1.311112243728065e-16 1.0 2.660349027875992e-15
  outer loop
    vertex 5.966431628897064 163.17529088287534 3.0000000000001514
    vertex 3.9664316288966424 163.17529088287523 35.00000000000003
    vertex 5.9664316288966415 163.17529088287523 35.00000000000003
  endloop
endfacet
facet normal -1.311112243728065e-16 1.0 2.660349027875992e-15
  outer loop
    vertex 13.966431628897066 163.17529088287534 3.0000000000002442
    vertex 13.9664316288971 163.17529088287534 2.0045016207675112e-13
    vertex 5.966431628897064 163.17529088287534 3.0000000000001514
  endloop
endfacet
facet normal 0.0 1.0 0.0
  outer loop
    vertex 20.466431628897272 140.17529088287537 3.000000000000037
    vertex 34.96643162889714 140.17529088287537 7.129696090559594e-14
    vertex 20.46643162889724 140.17529088287537 5.777271404301939e-14
  endloop
endfacet
facet normal 0.0 1.0 0.0
  outer loop
    vertex 34.96643162889714 140.17529088287537 7.129696090559594e-14
    vertex 20.466431628897272 140.17529088287537 3.000000000000037
    vertex 31.96643162889715 140.17529088287537 2.500000000000051
  endloop
endfacet
facet normal 0.0 1.0 0.0
  outer loop
    vertex 31.96643162889715 140.17529088287537 2.500000000000051
    vertex 20.466431628897272 140.17529088287537 3.000000000000037
    vertex 31.96643162889715 140.17529088287537 3.000000000000051
  endloop
endfacet
facet normal 0.0 1.0 0.0
  outer loop
    vertex 34.96643162889715 140.17529088287537 2.5000000000000555
    vertex 34.96643162889714 140.17529088287537 7.129696090559594e-14
    vertex 31.96643162889715 140.17529088287537 2.500000000000051
  endloop
endfacet
facet normal -4.411339283887172e-29 1.0 3.4600815736783966e-15
  outer loop
    vertex 3.9664316288965105 146.17529088287523 52.00000000000004
    vertex 5.9664316288966495 146.1752908828753 41.000000000000036
    vertex 3.966431628896651 146.1752908828753 41.00000000000001
  endloop
endfacet
facet normal -4.411339283887172e-29 1.0 3.4600815736783966e-15
  outer loop
    vertex 5.9664316288966495 146.1752908828753 41.000000000000036
    vertex 3.9664316288965105 146.17529088287523 52.00000000000004
    vertex 5.966431628896523 146.17529088287523 52.000000000000064
  endloop
endfacet
facet normal -3.759955310063826e-15 -2.7680652589428116e-16 1.0
  outer loop
    vertex 3.966431628896676 149.17529088287526 38.00000000000001
    vertex 5.966431628896646 160.17529088287526 38.00000000000003
    vertex 3.9664316288966464 160.17529088287526 38.00000000000003
  endloop
endfacet
facet normal -3.759955310063826e-15 -2.7680652589428116e-16 1.0
  outer loop
    vertex 5.966431628896646 160.17529088287526 38.00000000000003
    vertex 3.966431628896676 149.17529088287526 38.00000000000001
    vertex 5.966431628896676 149.17529088287526 38.00000000000003
  endloop
endfacet
facet normal 7.751111606394386e-16 1.2516493336042763e-15 -1.0
  outer loop
    vertex 23.466431628897098 124.17529088287536 4.9549770078143606e-14
    vertex 20.46643162889724 117.67529088287539 7.18992188543868e-14
    vertex 20.46643162889724 124.17529088287536 1.0150886692113972e-13
  endloop
endfacet
facet normal 7.751111606394386e-16 1.2516493336042763e-15 -1.0
  outer loop
    vertex 34.96643162889714 140.17529088287537 7.129696090559594e-14
    vertex 20.46643162889724 133.17529088287543 6.87258800762197e-14
    vertex 20.46643162889724 140.17529088287537 5.777271404301939e-14
  endloop
endfacet
facet normal 7.751111606394386e-16 1.2516493336042763e-15 -1.0
  outer loop
    vertex 20.46643162889724 133.17529088287543 6.87258800762197e-14
    vertex 34.96643162889714 140.17529088287537 7.129696090559594e-14
    vertex 23.466431628897098 133.17529088287543 4.9549770078143606e-14
  endloop
endfacet
facet normal 7.751111606394386e-16 1.2516493336042763e-15 -1.0
  outer loop
    vertex 23.466431628897098 133.17529088287543 4.9549770078143606e-14
    vertex 34.96643162889714 140.17529088287537 7.129696090559594e-14
    vertex 23.466431628897098 124.17529088287536 4.9549770078143606e-14
  endloop
endfacet
facet normal 7.751111606394386e-16 1.2516493336042763e-15 -1.0
  outer loop
    vertex 13.9664316288971 163.17529088287534 2.0045016207675112e-13
    vertex 3.966431628897097 112.17529088287533 0.0
    vertex 3.9664316288970647 163.17529088287534 1.0729873312104719e-13
  endloop
endfacet
facet normal 7.751111606394386e-16 1.2516493336042763e-15 -1.0
  outer loop
    vertex 3.966431628897097 112.17529088287533 0.0
    vertex 13.9664316288971 163.17529088287534 2.0045016207675112e-13
    vertex 13.966431628897134 140.17529088287537 1.4430243284640902e-13
  endloop
endfacet
facet normal 7.751111606394386e-16 1.2516493336042763e-15 -1.0
  outer loop
    vertex 3.966431628897097 112.17529088287533 0.0
    vertex 13.966431628897134 140.17529088287537 1.4430243284640902e-13
    vertex 17.966431628897155 117.67529088287539 7.351948517980073e-14
  endloop
endfacet
facet normal 7.751111606394386e-16 1.2516493336042763e-15 -1.0
  outer loop
    vertex 3.966431628897097 112.17529088287533 0.0
    vertex 17.966431628897155 117.67529088287539 7.351948517980073e-14
    vertex 34.96643162889714 112.17529088287533 3.722577054187101e-14
  endloop
endfacet
facet normal 7.751111606394386e-16 1.2516493336042763e-15 -1.0
  outer loop
    vertex 17.966431628897155 117.67529088287539 7.351948517980073e-14
    vertex 13.966431628897134 140.17529088287537 1.4430243284640902e-13
    vertex 17.966431628897155 140.17529088287537 5.847770566365637e-14
  endloop
endfacet
facet normal 7.751111606394386e-16 1.2516493336042763e-15 -1.0
  outer loop
    vertex 34.96643162889714 112.17529088287533 3.722577054187101e-14
    vertex 17.966431628897155 117.67529088287539 7.351948517980073e-14
    vertex 20.46643162889724 117.67529088287539 7.18992188543868e-14
  endloop
endfacet
facet normal 7.751111606394386e-16 1.2516493336042763e-15 -1.0
  outer loop
    vertex 34.96643162889714 112.17529088287533 3.722577054187101e-14
    vertex 20.46643162889724 117.67529088287539 7.18992188543868e-14
    vertex 23.466431628897098 124.17529088287536 4.9549770078143606e-14
  endloop
endfacet
facet normal 7.751111606394386e-16 1.2516493336042763e-15 -1.0
  outer loop
    vertex 34.96643162889714 112.17529088287533 3.722577054187101e-14
    vertex 23.466431628897098 124.17529088287536 4.9549770078143606e-14
    vertex 34.96643162889714 140.17529088287537 7.129696090559594e-14
  endloop
endfacet
facet normal 0.0 -1.0 0.0
  outer loop
    vertex 23.96643162889711 134.67529088287543 1.0000000000000542
    vertex 20.466431628897272 134.6752908828754 3.000000000000038
    vertex 20.46643162889724 134.6752908828754 1.0000000000000422
  endloop
endfacet
facet normal 0.0 -1.0 0.0
  outer loop
    vertex 20.466431628897272 134.6752908828754 3.000000000000038
    vertex 23.96643162889711 134.67529088287543 1.0000000000000542
    vertex 23.966431628897087 134.67529088287543 3.000000000000089
  endloop
endfacet
facet normal -1.0 2.638154171973625e-16 2.220116403980926e-15
  outer loop
    vertex 20.46643162889725 122.76179095805301 3.0000000000000635
    vertex 20.46643162889724 117.17529088287542 1.0000000000000666
    vertex 20.466431628897272 117.17529088287542 3.000000000000041
  endloop
endfacet
facet normal -1.0 2.638154171973625e-16 2.220116403980926e-15
  outer loop
    vertex 20.46643162889724 117.17529088287542 1.0000000000000666
    vertex 20.46643162889725 122.76179095805301 3.0000000000000635
    vertex 20.46643162889724 117.67529088287539 1.0000000000000666
  endloop
endfacet
facet normal -1.0 2.638154171973625e-16 2.220116403980926e-15
  outer loop
    vertex 20.46643162889724 117.67529088287539 1.0000000000000666
    vertex 20.46643162889725 122.76179095805301 3.0000000000000635
    vertex 20.46643162889724 117.67529088287539 7.18992188543868e-14
  endloop
endfacet
facet normal -1.0 2.638154171973625e-16 2.220116403980926e-15
  outer loop
    vertex 20.46643162889724 117.67529088287539 7.18992188543868e-14
    vertex 20.46643162889725 122.76179095805301 3.0000000000000635
    vertex 20.46643162889724 122.76179095805301 1.0000000000000608
  endloop
endfacet
facet normal -1.0 2.638154171973625e-16 2.220116403980926e-15
  outer loop
    vertex 20.46643162889724 117.67529088287539 7.18992188543868e-14
    vertex 20.46643162889724 122.76179095805301 1.0000000000000608
    vertex 20.46643162889724 124.17529088287536 1.0150886692113972e-13
  endloop
endfacet
facet normal -1.0 2.638154171973625e-16 2.220116403980926e-15
  outer loop
    vertex 20.46643162889724 124.17529088287536 1.0150886692113972e-13
    vertex 20.46643162889724 122.76179095805301 1.0000000000000608
    vertex 20.46643162889726 124.17529088287536 1.0000000000000786
  endloop
endfacet
facet normal -1.1279865930189906e-14 -1.4554665716377297e-15 1.0
  outer loop
    vertex 3.9664316288964856 112.1752908828752 54.99999999999999
    vertex 5.9664316288964905 143.17529088287523 55.00000000000006
    vertex 3.966431628896478 143.17529088287523 55.000000000000036
  endloop
endfacet
facet normal -1.1279865930189906e-14 -1.4554665716377297e-15 1.0
  outer loop
    vertex 5.9664316288964905 143.17529088287523 55.00000000000006
    vertex 3.9664316288964856 112.1752908828752 54.99999999999999
    vertex 5.966431628897062 112.17529088287527 55.000000000000014
  endloop
endfacet
facet normal 6.876370072830237e-16 8.535969518072844e-16 1.0
  outer loop
    vertex 23.966431628897244 122.76179095805303 1.0000000000000486
    vertex 20.46643162889726 124.17529088287536 1.0000000000000786
    vertex 20.46643162889724 122.76179095805301 1.0000000000000608
  endloop
endfacet
facet normal 6.876370072830237e-16 8.535969518072844e-16 1.0
  outer loop
    vertex 20.46643162889726 124.17529088287536 1.0000000000000786
    vertex 23.966431628897244 122.76179095805303 1.0000000000000486
    vertex 23.466431628897098 124.17529088287536 1.000000000000074
  endloop
endfacet
facet normal 6.876370072830237e-16 8.535969518072844e-16 1.0
  outer loop
    vertex 23.466431628897098 124.17529088287536 1.000000000000074
    vertex 23.966431628897244 122.76179095805303 1.0000000000000486
    vertex 23.466431628897098 133.17529088287543 1.000000000000074
  endloop
endfacet
facet normal 6.876370072830237e-16 8.535969518072844e-16 1.0
  outer loop
    vertex 23.466431628897098 133.17529088287543 1.000000000000074
    vertex 23.966431628897244 122.76179095805303 1.0000000000000486
    vertex 23.96643162889711 134.67529088287543 1.0000000000000542
  endloop
endfacet
facet normal 6.876370072830237e-16 8.535969518072844e-16 1.0
  outer loop
    vertex 23.466431628897098 133.17529088287543 1.000000000000074
    vertex 20.46643162889724 134.6752908828754 1.0000000000000422
    vertex 20.46643162889724 133.17529088287543 1.0000000000000464
  endloop
endfacet
facet normal 6.876370072830237e-16 8.535969518072844e-16 1.0
  outer loop
    vertex 20.46643162889724 134.6752908828754 1.0000000000000422
    vertex 23.466431628897098 133.17529088287543 1.000000000000074
    vertex 23.96643162889711 134.67529088287543 1.0000000000000542
  endloop
endfacet
facet normal -1.0 -1.1361765393582852e-14 -1.626002867092763e-30
  outer loop
    vertex 23.966431628897087 134.67529088287543 3.000000000000089
    vertex 23.966431628897244 122.76179095805303 1.0000000000000486
    vertex 23.966431628897222 122.76179095805303 3.000000000000085
  endloop
endfacet
facet normal -1.0 -1.1361765393582852e-14 -1.626002867092763e-30
  outer loop
    vertex 23.966431628897244 122.76179095805303 1.0000000000000486
    vertex 23.966431628897087 134.67529088287543 3.000000000000089
    vertex 23.96643162889711 134.67529088287543 1.0000000000000542
  endloop
endfacet
facet normal -1.0 -1.2942220083236779e-15 -1.0887569266166988e-14
  outer loop
    vertex 3.966431628896478 143.17529088287523 55.000000000000036
    vertex 3.966431628897097 112.17529088287533 0.0
    vertex 3.9664316288964856 112.1752908828752 54.99999999999999
  endloop
endfacet
facet normal -1.0 -1.2942220083236779e-15 -1.0887569266166988e-14
  outer loop
    vertex 3.966431628897097 112.17529088287533 0.0
    vertex 3.966431628896478 143.17529088287523 55.000000000000036
    vertex 3.9664316288966592 146.2775134040081 40.223542864692455
  endloop
endfacet
facet normal -1.0 -1.2942220083236779e-15 -1.0887569266166988e-14
  outer loop
    vertex 3.966431628897097 112.17529088287533 0.0
    vertex 3.9664316288966592 146.2775134040081 40.223542864692455
    vertex 3.9664316288966632 146.40365228534142 39.85194970290474
  endloop
endfacet
facet normal -1.0 -1.2942220083236779e-15 -1.0887569266166988e-14
  outer loop
    vertex 3.966431628897097 112.17529088287533 0.0
    vertex 3.9664316288966632 146.40365228534142 39.85194970290474
    vertex 3.9664316288970647 163.17529088287534 1.0729873312104719e-13
  endloop
endfacet
facet normal -1.0 -1.2942220083236779e-15 -1.0887569266166988e-14
  outer loop
    vertex 3.9664316288966592 146.2775134040081 40.223542864692455
    vertex 3.966431628896478 143.17529088287523 55.000000000000036
    vertex 3.966431628896655 146.20095629875385 40.608421423339855
  endloop
endfacet
facet normal -1.0 -1.2942220083236779e-15 -1.0887569266166988e-14
  outer loop
    vertex 3.966431628896655 146.20095629875385 40.608421423339855
    vertex 3.966431628896478 143.17529088287523 55.000000000000036
    vertex 3.966431628896478 143.56686945953538 54.97433458412147
  endloop
endfacet
facet normal -1.0 -1.2942220083236779e-15 -1.0887569266166988e-14
  outer loop
    vertex 3.966431628896655 146.20095629875385 40.608421423339855
    vertex 3.966431628896478 143.56686945953538 54.97433458412147
    vertex 3.966431628896479 143.9517480181828 54.89777747886725
  endloop
endfacet
facet normal -1.0 -1.2942220083236779e-15 -1.0887569266166988e-14
  outer loop
    vertex 3.966431628896655 146.20095629875385 40.608421423339855
    vertex 3.966431628896479 143.9517480181828 54.89777747886725
    vertex 3.9664316288964803 144.3233411799705 54.7716385975339
  endloop
endfacet
facet normal -1.0 -1.2942220083236779e-15 -1.0887569266166988e-14
  outer loop
    vertex 3.966431628896655 146.20095629875385 40.608421423339855
    vertex 3.9664316288964803 144.3233411799705 54.7716385975339
    vertex 3.9664316288964816 144.67529088287523 54.59807621135335
  endloop
endfacet
facet normal -1.0 -1.2942220083236779e-15 -1.0887569266166988e-14
  outer loop
    vertex 3.966431628896655 146.20095629875385 40.608421423339855
    vertex 3.9664316288964816 144.67529088287523 54.59807621135335
    vertex 3.9664316288964843 145.0015751699014 54.38006002087374
  endloop
endfacet
facet normal -1.0 -1.2942220083236779e-15 -1.0887569266166988e-14
  outer loop
    vertex 3.966431628896655 146.20095629875385 40.608421423339855
    vertex 3.9664316288964843 145.0015751699014 54.38006002087374
    vertex 3.9664316288964874 145.2966112264349 54.121320343559674
  endloop
endfacet
facet normal -1.0 -1.2942220083236779e-15 -1.0887569266166988e-14
  outer loop
    vertex 3.966431628896655 146.20095629875385 40.608421423339855
    vertex 3.9664316288964874 145.2966112264349 54.121320343559674
    vertex 3.966431628896651 146.1752908828753 41.00000000000001
  endloop
endfacet
facet normal -1.0 -1.2942220083236779e-15 -1.0887569266166988e-14
  outer loop
    vertex 3.966431628896651 146.1752908828753 41.00000000000001
    vertex 3.9664316288964874 145.2966112264349 54.121320343559674
    vertex 3.96643162889649 145.55535090374894 53.826284287026205
  endloop
endfacet
facet normal -1.0 -1.2942220083236779e-15 -1.0887569266166988e-14
  outer loop
    vertex 3.966431628896651 146.1752908828753 41.00000000000001
    vertex 3.96643162889649 145.55535090374894 53.826284287026205
    vertex 3.9664316288964936 145.77336709422855 53.500000000000036
  endloop
endfacet
facet normal -1.0 -1.2942220083236779e-15 -1.0887569266166988e-14
  outer loop
    vertex 3.966431628896651 146.1752908828753 41.00000000000001
    vertex 3.9664316288964936 145.77336709422855 53.500000000000036
    vertex 3.9664316288964976 145.9469294804091 53.14805029709531
  endloop
endfacet
facet normal -1.0 -1.2942220083236779e-15 -1.0887569266166988e-14
  outer loop
    vertex 3.966431628896651 146.1752908828753 41.00000000000001
    vertex 3.9664316288964976 145.9469294804091 53.14805029709531
    vertex 3.966431628896502 146.07306836174243 52.776457135307595
  endloop
endfacet
facet normal -1.0 -1.2942220083236779e-15 -1.0887569266166988e-14
  outer loop
    vertex 3.966431628896651 146.1752908828753 41.00000000000001
    vertex 3.966431628896502 146.07306836174243 52.776457135307595
    vertex 3.966431628896506 146.14962546699667 52.391578576660194
  endloop
endfacet
facet normal -1.0 -1.2942220083236779e-15 -1.0887569266166988e-14
  outer loop
    vertex 3.966431628896651 146.1752908828753 41.00000000000001
    vertex 3.966431628896506 146.14962546699667 52.391578576660194
    vertex 3.9664316288965105 146.17529088287523 52.00000000000004
  endloop
endfacet
facet normal -1.0 -1.2942220083236779e-15 -1.0887569266166988e-14
  outer loop
    vertex 3.9664316288970647 163.17529088287534 1.0729873312104719e-13
    vertex 3.9664316288966632 146.40365228534142 39.85194970290474
    vertex 3.9664316288966663 146.57721467152197 39.500000000000014
  endloop
endfacet
facet normal -1.0 -1.2942220083236779e-15 -1.0887569266166988e-14
  outer loop
    vertex 3.9664316288970647 163.17529088287534 1.0729873312104719e-13
    vertex 3.9664316288966663 146.57721467152197 39.500000000000014
    vertex 3.966431628896669 146.79523086200157 39.17371571297385
  endloop
endfacet
facet normal -1.0 -1.2942220083236779e-15 -1.0887569266166988e-14
  outer loop
    vertex 3.9664316288970647 163.17529088287534 1.0729873312104719e-13
    vertex 3.966431628896669 146.79523086200157 39.17371571297385
    vertex 3.966431628896672 147.05397053931566 38.878679656440376
  endloop
endfacet
facet normal -1.0 -1.2942220083236779e-15 -1.0887569266166988e-14
  outer loop
    vertex 3.9664316288970647 163.17529088287534 1.0729873312104719e-13
    vertex 3.966431628896672 147.05397053931566 38.878679656440376
    vertex 3.9664316288966748 147.34900659584912 38.61993997912631
  endloop
endfacet
facet normal -1.0 -1.2942220083236779e-15 -1.0887569266166988e-14
  outer loop
    vertex 3.9664316288970647 163.17529088287534 1.0729873312104719e-13
    vertex 3.9664316288966748 147.34900659584912 38.61993997912631
    vertex 3.966431628896676 147.67529088287526 38.4019237886467
  endloop
endfacet
facet normal -1.0 -1.2942220083236779e-15 -1.0887569266166988e-14
  outer loop
    vertex 3.9664316288970647 163.17529088287534 1.0729873312104719e-13
    vertex 3.966431628896676 147.67529088287526 38.4019237886467
    vertex 3.966431628896676 148.02724058578 38.22836140246615
  endloop
endfacet
facet normal -1.0 -1.2942220083236779e-15 -1.0887569266166988e-14
  outer loop
    vertex 3.9664316288970647 163.17529088287534 1.0729873312104719e-13
    vertex 3.966431628896676 148.02724058578 38.22836140246615
    vertex 3.9664316288966774 148.39883374756772 38.1022225211328
  endloop
endfacet
facet normal -1.0 -1.2942220083236779e-15 -1.0887569266166988e-14
  outer loop
    vertex 3.9664316288970647 163.17529088287534 1.0729873312104719e-13
    vertex 3.9664316288966774 148.39883374756772 38.1022225211328
    vertex 3.966431628896676 148.78371230621514 38.02566541587858
  endloop
endfacet
facet normal -1.0 -1.2942220083236779e-15 -1.0887569266166988e-14
  outer loop
    vertex 3.9664316288970647 163.17529088287534 1.0729873312104719e-13
    vertex 3.966431628896676 148.78371230621514 38.02566541587858
    vertex 3.966431628896676 149.17529088287526 38.00000000000001
  endloop
endfacet
facet normal -1.0 -1.2942220083236779e-15 -1.0887569266166988e-14
  outer loop
    vertex 3.9664316288970647 163.17529088287534 1.0729873312104719e-13
    vertex 3.966431628896676 149.17529088287526 38.00000000000001
    vertex 3.9664316288966464 160.17529088287526 38.00000000000003
  endloop
endfacet
facet normal -1.0 -1.2942220083236779e-15 -1.0887569266166988e-14
  outer loop
    vertex 3.9664316288970647 163.17529088287534 1.0729873312104719e-13
    vertex 3.9664316288966464 160.17529088287526 38.00000000000003
    vertex 3.966431628896646 160.56686945953538 37.974334584121465
  endloop
endfacet
facet normal -1.0 -1.2942220083236779e-15 -1.0887569266166988e-14
  outer loop
    vertex 3.9664316288970647 163.17529088287534 1.0729873312104719e-13
    vertex 3.966431628896646 160.56686945953538 37.974334584121465
    vertex 3.966431628896645 160.9517480181828 37.89777747886723
  endloop
endfacet
facet normal -1.0 -1.2942220083236779e-15 -1.0887569266166988e-14
  outer loop
    vertex 3.9664316288970647 163.17529088287534 1.0729873312104719e-13
    vertex 3.966431628896645 160.9517480181828 37.89777747886723
    vertex 3.966431628896645 161.32334117997053 37.77163859753389
  endloop
endfacet
facet normal -1.0 -1.2942220083236779e-15 -1.0887569266166988e-14
  outer loop
    vertex 3.9664316288970647 163.17529088287534 1.0729873312104719e-13
    vertex 3.966431628896645 161.32334117997053 37.77163859753389
    vertex 3.9664316288966446 161.67529088287526 37.598076211353344
  endloop
endfacet
facet normal -1.0 -1.2942220083236779e-15 -1.0887569266166988e-14
  outer loop
    vertex 3.9664316288970647 163.17529088287534 1.0729873312104719e-13
    vertex 3.9664316288966446 161.67529088287526 37.598076211353344
    vertex 3.9664316288966437 162.0015751699014 37.38006002087373
  endloop
endfacet
facet normal -1.0 -1.2942220083236779e-15 -1.0887569266166988e-14
  outer loop
    vertex 3.9664316288970647 163.17529088287534 1.0729873312104719e-13
    vertex 3.9664316288966437 162.0015751699014 37.38006002087373
    vertex 3.9664316288966437 162.29661122643486 37.12132034355967
  endloop
endfacet
facet normal -1.0 -1.2942220083236779e-15 -1.0887569266166988e-14
  outer loop
    vertex 3.9664316288970647 163.17529088287534 1.0729873312104719e-13
    vertex 3.9664316288966437 162.29661122643486 37.12132034355967
    vertex 3.966431628896643 162.55535090374894 36.82628428702619
  endloop
endfacet
facet normal -1.0 -1.2942220083236779e-15 -1.0887569266166988e-14
  outer loop
    vertex 3.9664316288970647 163.17529088287534 1.0729873312104719e-13
    vertex 3.966431628896643 162.55535090374894 36.82628428702619
    vertex 3.966431628896643 162.77336709422855 36.50000000000003
  endloop
endfacet
facet normal -1.0 -1.2942220083236779e-15 -1.0887569266166988e-14
  outer loop
    vertex 3.9664316288970647 163.17529088287534 1.0729873312104719e-13
    vertex 3.966431628896643 162.77336709422855 36.50000000000003
    vertex 3.9664316288966424 162.9469294804091 36.148050297095295
  endloop
endfacet
facet normal -1.0 -1.2942220083236779e-15 -1.0887569266166988e-14
  outer loop
    vertex 3.9664316288970647 163.17529088287534 1.0729873312104719e-13
    vertex 3.9664316288966424 162.9469294804091 36.148050297095295
    vertex 3.9664316288966424 163.07306836174243 35.77645713530759
  endloop
endfacet
facet normal -1.0 -1.2942220083236779e-15 -1.0887569266166988e-14
  outer loop
    vertex 3.9664316288970647 163.17529088287534 1.0729873312104719e-13
    vertex 3.9664316288966424 163.07306836174243 35.77645713530759
    vertex 3.9664316288966424 163.14962546699667 35.39157857666018
  endloop
endfacet
facet normal -1.0 -1.2942220083236779e-15 -1.0887569266166988e-14
  outer loop
    vertex 3.9664316288970647 163.17529088287534 1.0729873312104719e-13
    vertex 3.9664316288966424 163.14962546699667 35.39157857666018
    vertex 3.9664316288966424 163.17529088287523 35.00000000000003
  endloop
endfacet
facet normal -1.1635459230771385e-14 0.442288690219007 0.8968727415326855
  outer loop
    vertex 5.966431628896675 147.67529088287526 38.40192378864672
    vertex 3.966431628896676 148.02724058578 38.22836140246615
    vertex 3.966431628896676 147.67529088287526 38.4019237886467
  endloop
endfacet
facet normal -1.1635459230771385e-14 0.442288690219007 0.8968727415326855
  outer loop
    vertex 3.966431628896676 148.02724058578 38.22836140246615
    vertex 5.966431628896675 147.67529088287526 38.40192378864672
    vertex 5.966431628896676 148.02724058578 38.22836140246617
  endloop
endfacet
facet normal -8.856107722306912e-15 0.8314696123025452 0.5555702330196022
  outer loop
    vertex 3.9664316288966663 146.57721467152197 39.500000000000014
    vertex 5.966431628896669 146.79523086200157 39.17371571297387
    vertex 3.966431628896669 146.79523086200157 39.17371571297385
  endloop
endfacet
facet normal -8.856107722306912e-15 0.8314696123025452 0.5555702330196022
  outer loop
    vertex 5.966431628896669 146.79523086200157 39.17371571297387
    vertex 3.9664316288966663 146.57721467152197 39.500000000000014
    vertex 5.966431628896666 146.57721467152197 39.500000000000036
  endloop
endfacet
facet normal -1.1217302988917933e-14 0.555570233019609 0.8314696123025409
  outer loop
    vertex 5.9664316288966734 147.34900659584912 38.61993997912633
    vertex 3.966431628896676 147.67529088287526 38.4019237886467
    vertex 3.9664316288966748 147.34900659584912 38.61993997912631
  endloop
endfacet
facet normal -1.1217302988917933e-14 0.555570233019609 0.8314696123025409
  outer loop
    vertex 3.966431628896676 147.67529088287526 38.4019237886467
    vertex 5.9664316288966734 147.34900659584912 38.61993997912633
    vertex 5.966431628896675 147.67529088287526 38.40192378864672
  endloop
endfacet
facet normal -1.0607215582900102e-14 0.6593458151000826 0.7518398074789654
  outer loop
    vertex 5.966431628896672 147.05397053931566 38.8786796564404
    vertex 3.9664316288966748 147.34900659584912 38.61993997912631
    vertex 3.966431628896672 147.05397053931566 38.878679656440376
  endloop
endfacet
facet normal -1.0607215582900102e-14 0.6593458151000826 0.7518398074789654
  outer loop
    vertex 3.9664316288966748 147.34900659584912 38.61993997912631
    vertex 5.966431628896672 147.05397053931566 38.8786796564404
    vertex 5.9664316288966734 147.34900659584912 38.61993997912633
  endloop
endfacet
facet normal -1.1255573178799137e-14 0.06540312923014614 0.9978589232386034
  outer loop
    vertex 5.966431628896676 148.78371230621514 38.0256654158786
    vertex 3.966431628896676 149.17529088287526 38.00000000000001
    vertex 3.966431628896676 148.78371230621514 38.02566541587858
  endloop
endfacet
facet normal -1.1255573178799137e-14 0.06540312923014614 0.9978589232386034
  outer loop
    vertex 3.966431628896676 149.17529088287526 38.00000000000001
    vertex 5.966431628896676 148.78371230621514 38.0256654158786
    vertex 5.966431628896676 149.17529088287526 38.00000000000003
  endloop
endfacet
facet normal -6.501470755848418e-15 0.9469301294951052 0.32143946530316275
  outer loop
    vertex 3.9664316288966592 146.2775134040081 40.223542864692455
    vertex 5.966431628896663 146.40365228534142 39.85194970290477
    vertex 3.9664316288966632 146.40365228534142 39.85194970290474
  endloop
endfacet
facet normal -6.501470755848418e-15 0.9469301294951052 0.32143946530316275
  outer loop
    vertex 5.966431628896663 146.40365228534142 39.85194970290477
    vertex 3.9664316288966592 146.2775134040081 40.223542864692455
    vertex 5.966431628896658 146.2775134040081 40.223542864692476
  endloop
endfacet
facet normal -7.745049208724786e-15 0.8968727415326969 0.4422886902189839
  outer loop
    vertex 3.9664316288966632 146.40365228534142 39.85194970290474
    vertex 5.966431628896666 146.57721467152197 39.500000000000036
    vertex 3.9664316288966663 146.57721467152197 39.500000000000014
  endloop
endfacet
facet normal -7.745049208724786e-15 0.8968727415326969 0.4422886902189839
  outer loop
    vertex 5.966431628896666 146.57721467152197 39.500000000000036
    vertex 3.9664316288966632 146.40365228534142 39.85194970290474
    vertex 5.966431628896663 146.40365228534142 39.85194970290477
  endloop
endfacet
facet normal -1.1870765560571063e-14 0.1950903220161251 0.9807852804032312
  outer loop
    vertex 3.9664316288966774 148.39883374756772 38.1022225211328
    vertex 5.966431628896676 148.78371230621514 38.0256654158786
    vertex 3.966431628896676 148.78371230621514 38.02566541587858
  endloop
endfacet
facet normal -1.1870765560571063e-14 0.1950903220161251 0.9807852804032312
  outer loop
    vertex 5.966431628896676 148.78371230621514 38.0256654158786
    vertex 3.9664316288966774 148.39883374756772 38.1022225211328
    vertex 5.966431628896677 148.39883374756772 38.10222252113283
  endloop
endfacet
facet normal -1.185452953922758e-14 0.32143946530316275 0.9469301294951052
  outer loop
    vertex 5.966431628896676 148.02724058578 38.22836140246617
    vertex 3.9664316288966774 148.39883374756772 38.1022225211328
    vertex 3.966431628896676 148.02724058578 38.22836140246615
  endloop
endfacet
facet normal -1.185452953922758e-14 0.32143946530316275 0.9469301294951052
  outer loop
    vertex 3.9664316288966774 148.39883374756772 38.1022225211328
    vertex 5.966431628896676 148.02724058578 38.22836140246617
    vertex 5.966431628896677 148.39883374756772 38.10222252113283
  endloop
endfacet
facet normal -9.815635777383315e-15 0.7518398074789717 0.6593458151000755
  outer loop
    vertex 3.966431628896669 146.79523086200157 39.17371571297385
    vertex 5.966431628896672 147.05397053931566 38.8786796564404
    vertex 3.966431628896672 147.05397053931566 38.878679656440376
  endloop
endfacet
facet normal -9.815635777383315e-15 0.7518398074789717 0.6593458151000755
  outer loop
    vertex 5.966431628896672 147.05397053931566 38.8786796564404
    vertex 3.966431628896669 146.79523086200157 39.17371571297385
    vertex 5.966431628896669 146.79523086200157 39.17371571297387
  endloop
endfacet
facet normal -1.304373735193059e-15 0.9469301294951229 0.32143946530311124
  outer loop
    vertex 3.9664316288966424 162.9469294804091 36.148050297095295
    vertex 5.9664316288966415 163.07306836174243 35.77645713530759
    vertex 3.9664316288966424 163.07306836174243 35.77645713530759
  endloop
endfacet
facet normal -1.304373735193059e-15 0.9469301294951229 0.32143946530311124
  outer loop
    vertex 5.9664316288966415 163.07306836174243 35.77645713530759
    vertex 3.9664316288966424 162.9469294804091 36.148050297095295
    vertex 5.9664316288966415 162.9469294804091 36.148050297095295
  endloop
endfacet
facet normal -1.1386660048842825e-15 0.8314696123025452 0.5555702330196022
  outer loop
    vertex 3.966431628896643 162.55535090374894 36.82628428702619
    vertex 5.966431628896643 162.77336709422855 36.50000000000003
    vertex 3.966431628896643 162.77336709422855 36.50000000000003
  endloop
endfacet
facet normal -1.1386660048842825e-15 0.8314696123025452 0.5555702330196022
  outer loop
    vertex 5.966431628896643 162.77336709422855 36.50000000000003
    vertex 3.966431628896643 162.55535090374894 36.82628428702619
    vertex 5.966431628896643 162.55535090374894 36.82628428702619
  endloop
endfacet
facet normal 1.0 2.0071686324106376e-30 2.4674706722294074e-15
  outer loop
    vertex 31.96643162889715 140.17529088287537 2.500000000000051
    vertex 31.96643162889715 114.17529088287544 3.0000000000000724
    vertex 31.96643162889715 114.17529088287544 2.5000000000000724
  endloop
endfacet
facet normal 1.0 2.0071686324106376e-30 2.4674706722294074e-15
  outer loop
    vertex 31.96643162889715 114.17529088287544 3.0000000000000724
    vertex 31.96643162889715 140.17529088287537 2.500000000000051
    vertex 31.96643162889715 140.17529088287537 3.000000000000051
  endloop
endfacet
facet normal 1.0621475605723279e-19 0.06540312923014616 0.9978589232386034
  outer loop
    vertex 3.9664316288966464 160.17529088287526 38.00000000000003
    vertex 5.966431628896646 160.56686945953538 37.974334584121465
    vertex 3.966431628896646 160.56686945953538 37.974334584121465
  endloop
endfacet
facet normal 1.0621475605723279e-19 0.06540312923014616 0.9978589232386034
  outer loop
    vertex 5.966431628896646 160.56686945953538 37.974334584121465
    vertex 3.9664316288966464 160.17529088287526 38.00000000000003
    vertex 5.966431628896646 160.17529088287526 38.00000000000003
  endloop
endfacet
facet normal -4.2234936540380307e-16 0.32143946530316275 0.9469301294951052
  outer loop
    vertex 5.966431628896644 160.9517480181828 37.89777747886723
    vertex 3.966431628896645 161.32334117997053 37.77163859753389
    vertex 3.966431628896645 160.9517480181828 37.89777747886723
  endloop
endfacet
facet normal -4.2234936540380307e-16 0.32143946530316275 0.9469301294951052
  outer loop
    vertex 3.966431628896645 161.32334117997053 37.77163859753389
    vertex 5.966431628896644 160.9517480181828 37.89777747886723
    vertex 5.966431628896644 161.32334117997053 37.77163859753389
  endloop
endfacet
facet normal -2.464353937850404e-16 0.1950903220161389 0.9807852804032284
  outer loop
    vertex 3.966431628896646 160.56686945953538 37.974334584121465
    vertex 5.966431628896644 160.9517480181828 37.89777747886723
    vertex 3.966431628896645 160.9517480181828 37.89777747886723
  endloop
endfacet
facet normal -2.464353937850404e-16 0.1950903220161389 0.9807852804032284
  outer loop
    vertex 5.966431628896644 160.9517480181828 37.89777747886723
    vertex 3.966431628896646 160.56686945953538 37.974334584121465
    vertex 5.966431628896646 160.56686945953538 37.974334584121465
  endloop
endfacet
facet normal -7.496114752668957e-16 0.5555702330196188 0.8314696123025341
  outer loop
    vertex 3.9664316288966446 161.67529088287526 37.598076211353344
    vertex 5.966431628896643 162.0015751699014 37.38006002087373
    vertex 3.9664316288966437 162.0015751699014 37.38006002087373
  endloop
endfacet
facet normal -7.496114752668957e-16 0.5555702330196188 0.8314696123025341
  outer loop
    vertex 5.966431628896643 162.0015751699014 37.38006002087373
    vertex 3.9664316288966446 161.67529088287526 37.598076211353344
    vertex 5.966431628896644 161.67529088287526 37.598076211353344
  endloop
endfacet
facet normal -1.2320603168450747e-15 0.896872741532674 0.4422886902190301
  outer loop
    vertex 3.966431628896643 162.77336709422855 36.50000000000003
    vertex 5.9664316288966415 162.9469294804091 36.148050297095295
    vertex 3.9664316288966424 162.9469294804091 36.148050297095295
  endloop
endfacet
facet normal -1.2320603168450747e-15 0.896872741532674 0.4422886902190301
  outer loop
    vertex 5.9664316288966415 162.9469294804091 36.148050297095295
    vertex 3.966431628896643 162.77336709422855 36.50000000000003
    vertex 5.966431628896643 162.77336709422855 36.50000000000003
  endloop
endfacet
facet normal -8.953600680772196e-16 0.6593458151000744 0.7518398074789725
  outer loop
    vertex 5.966431628896643 162.0015751699014 37.38006002087373
    vertex 3.9664316288966437 162.29661122643486 37.12132034355967
    vertex 3.9664316288966437 162.0015751699014 37.38006002087373
  endloop
endfacet
facet normal -8.953600680772196e-16 0.6593458151000744 0.7518398074789725
  outer loop
    vertex 3.9664316288966437 162.29661122643486 37.12132034355967
    vertex 5.966431628896643 162.0015751699014 37.38006002087373
    vertex 5.966431628896643 162.29661122643486 37.12132034355967
  endloop
endfacet
facet normal -1.0257888018820329e-15 0.7518398074789717 0.6593458151000755
  outer loop
    vertex 3.9664316288966437 162.29661122643486 37.12132034355967
    vertex 5.966431628896643 162.55535090374894 36.82628428702619
    vertex 3.966431628896643 162.55535090374894 36.82628428702619
  endloop
endfacet
facet normal -1.0257888018820329e-15 0.7518398074789717 0.6593458151000755
  outer loop
    vertex 5.966431628896643 162.55535090374894 36.82628428702619
    vertex 3.9664316288966437 162.29661122643486 37.12132034355967
    vertex 5.966431628896643 162.29661122643486 37.12132034355967
  endloop
endfacet
facet normal -5.910368222831437e-16 0.4422886902189955 0.8968727415326913
  outer loop
    vertex 3.966431628896645 161.32334117997053 37.77163859753389
    vertex 5.966431628896644 161.67529088287526 37.598076211353344
    vertex 3.9664316288966446 161.67529088287526 37.598076211353344
  endloop
endfacet
facet normal -5.910368222831437e-16 0.4422886902189955 0.8968727415326913
  outer loop
    vertex 5.966431628896644 161.67529088287526 37.598076211353344
    vertex 3.966431628896645 161.32334117997053 37.77163859753389
    vertex 5.966431628896644 161.32334117997053 37.77163859753389
  endloop
endfacet
facet normal -1.3543689572910903e-15 0.980785280403225 0.19509032201615548
  outer loop
    vertex 3.9664316288966424 163.07306836174243 35.77645713530759
    vertex 5.9664316288966415 163.14962546699667 35.39157857666018
    vertex 3.9664316288966424 163.14962546699667 35.39157857666018
  endloop
endfacet
facet normal -1.3543689572910903e-15 0.980785280403225 0.19509032201615548
  outer loop
    vertex 5.9664316288966415 163.14962546699667 35.39157857666018
    vertex 3.9664316288966424 163.07306836174243 35.77645713530759
    vertex 5.9664316288966415 163.07306836174243 35.77645713530759
  endloop
endfacet
facet normal -0.0 0.9978589232386025 0.06540312923015952
  outer loop
    vertex 3.9664316288966424 163.14962546699667 35.39157857666018
    vertex 5.9664316288966415 163.17529088287523 35.00000000000003
    vertex 3.9664316288966424 163.17529088287523 35.00000000000003
  endloop
endfacet
facet normal -0.0 0.9978589232386025 0.06540312923015952
  outer loop
    vertex 5.9664316288966415 163.17529088287523 35.00000000000003
    vertex 3.9664316288966424 163.14962546699667 35.39157857666018
    vertex 5.9664316288966415 163.14962546699667 35.39157857666018
  endloop
endfacet
facet normal -7.375360812375832e-16 0.9978589232386025 0.06540312923015952
  outer loop
    vertex 3.966431628896651 146.1752908828753 41.00000000000001
    vertex 5.966431628896654 146.20095629875385 40.608421423339884
    vertex 3.966431628896655 146.20095629875385 40.608421423339855
  endloop
endfacet
facet normal -7.375360812375832e-16 0.9978589232386025 0.06540312923015952
  outer loop
    vertex 5.966431628896654 146.20095629875385 40.608421423339884
    vertex 3.966431628896651 146.1752908828753 41.00000000000001
    vertex 5.9664316288966495 146.1752908828753 41.000000000000036
  endloop
endfacet
facet normal -2.4674706722294074e-15 9.490271816266983e-16 1.0
  outer loop
    vertex 34.96643162889715 114.17529088287543 2.5000000000000835
    vertex 31.96643162889715 140.17529088287537 2.500000000000051
    vertex 31.96643162889715 114.17529088287544 2.5000000000000724
  endloop
endfacet
facet normal -2.4674706722294074e-15 9.490271816266983e-16 1.0
  outer loop
    vertex 31.96643162889715 140.17529088287537 2.500000000000051
    vertex 34.96643162889715 114.17529088287543 2.5000000000000835
    vertex 34.96643162889715 140.17529088287537 2.5000000000000555
  endloop
endfacet
facet normal -5.146650335791347e-15 0.980785280403225 0.19509032201615548
  outer loop
    vertex 3.966431628896655 146.20095629875385 40.608421423339855
    vertex 5.966431628896658 146.2775134040081 40.223542864692476
    vertex 3.9664316288966592 146.2775134040081 40.223542864692455
  endloop
endfacet
facet normal -5.146650335791347e-15 0.980785280403225 0.19509032201615548
  outer loop
    vertex 5.966431628896658 146.2775134040081 40.223542864692476
    vertex 3.966431628896655 146.20095629875385 40.608421423339855
    vertex 5.966431628896654 146.20095629875385 40.608421423339884
  endloop
endfacet
endsolid Transmitter
