solid LED
facet normal 0.0 0.0 -1.0
  outer loop
    vertex 100.00000000000001 140.0 0.0
    vertex 0.0 0.0 0.0
    vertex 0.0 140.0 0.0
  endloop
endfacet
facet normal 0.0 0.0 -1.0
  outer loop
    vertex 0.0 0.0 0.0
    vertex 100.00000000000001 140.0 0.0
    vertex 100.00000000000001 0.0 0.0
  endloop
endfacet
facet normal 0.0 0.0 1.0
  outer loop
    vertex 100.00000000000001 0.0 1.9999999999999998
    vertex 0.0 140.0 1.9999999999999998
    vertex 0.0 0.0 1.9999999999999998
  endloop
endfacet
facet normal 0.0 0.0 1.0
  outer loop
    vertex 0.0 140.0 1.9999999999999998
    vertex 100.00000000000001 0.0 1.9999999999999998
    vertex 100.00000000000001 140.0 1.9999999999999998
  endloop
endfacet
facet normal -0.0 1.0 0.0
  outer loop
    vertex 0.0 140.0 1.9999999999999998
    vertex 100.00000000000001 140.0 0.0
    vertex 0.0 140.0 0.0
  endloop
endfacet
facet normal -0.0 1.0 0.0
  outer loop
    vertex 100.00000000000001 140.0 0.0
    vertex 0.0 140.0 1.9999999999999998
    vertex 100.00000000000001 140.0 1.9999999999999998
  endloop
endfacet
facet normal 1.0 0.0 0.0
  outer loop
    vertex 100.00000000000001 140.0 0.0
    vertex 100.00000000000001 0.0 1.9999999999999998
    vertex 100.00000000000001 0.0 0.0
  endloop
endfacet
facet normal 1.0 0.0 0.0
  outer loop
    vertex 100.00000000000001 0.0 1.9999999999999998
    vertex 100.00000000000001 140.0 0.0
    vertex 100.00000000000001 140.0 1.9999999999999998
  endloop
endfacet
facet normal -0.0 -1.0 -0.0
  outer loop
    vertex 100.00000000000001 0.0 1.9999999999999998
    vertex 0.0 0.0 0.0
    vertex 100.00000000000001 0.0 0.0
  endloop
endfacet
facet normal -0.0 -1.0 -0.0
  outer loop
    vertex 0.0 0.0 0.0
    vertex 100.00000000000001 0.0 1.9999999999999998
    vertex 0.0 0.0 1.9999999999999998
  endloop
endfacet
facet normal -1.0 0.0 0.0
  outer loop
    vertex 0.0 140.0 1.9999999999999998
    vertex 0.0 0.0 0.0
    vertex 0.0 0.0 1.9999999999999998
  endloop
endfacet
facet normal -1.0 0.0 0.0
  outer loop
    vertex 0.0 0.0 0.0
    vertex 0.0 140.0 1.9999999999999998
    vertex 0.0 140.0 0.0
  endloop
endfacet
endsolid LED
